<svg xmlns="http://www.w3.org/2000/svg" width="793.701" height="406.639" version="1.2" viewBox="0 0 119.502 61.227">
    <style>
        tspan{white-space:pre}
    </style>
    <text fill="currentColor" font-family="serif" font-size="2.47" font-weight="bold" transform="translate(5.69 5.514)">
<tspan>Allegro</tspan>
</text>
    <path stroke="currentColor" stroke-linecap="round" stroke-linejoin="round" stroke-width=".1" d="M14.276 13.874h99.485m-99.485-1h99.485m-99.485-1h99.485m-99.485-1h99.485m-99.485-1h99.485"/>
    <rect width=".19" height="4.95" y="38.137" fill="currentColor" ry="0" transform="translate(113.621 6.547)"/>
    <rect width=".19" height="7.211" y="16.377" fill="currentColor" ry="0" transform="translate(113.621 6.547)"/>
    <rect width=".19" height="4.95" y="7.377" fill="currentColor" ry="0" transform="translate(113.621 6.547)"/>
    <rect width="1.956" height=".2" x="103.061" y="-.1" fill="currentColor" ry=".1" transform="translate(5.69 23.874)"/>
    <rect width="1.956" height=".2" x="93.919" y="-.1" fill="currentColor" ry=".1" transform="translate(5.69 23.874)"/>
    <rect width="1.956" height=".2" x="89.237" y="-.1" fill="currentColor" ry=".1" transform="translate(5.69 23.874)"/>
    <rect width="1.956" height=".2" x="89.237" y="-.1" fill="currentColor" ry=".1" transform="translate(5.69 24.874)"/>
    <rect width="1.956" height=".2" x="84.722" y="-.1" fill="currentColor" ry=".1" transform="translate(5.69 23.874)"/>
    <rect width="1.956" height=".2" x="75.524" y="-.1" fill="currentColor" ry=".1" transform="translate(5.69 23.874)"/>
    <rect width="1.956" height=".2" x="70.842" y="-.1" fill="currentColor" ry=".1" transform="translate(5.69 23.874)"/>
    <rect width="1.956" height=".2" x="70.842" y="-.1" fill="currentColor" ry=".1" transform="translate(5.69 24.874)"/>
    <rect width="1.956" height=".2" x="57.877" y="-.1" fill="currentColor" ry=".1" transform="translate(5.69 23.874)"/>
    <rect width="1.956" height=".2" x="46.053" y="-.1" fill="currentColor" ry=".1" transform="translate(5.69 23.874)"/>
    <rect width="1.956" height=".2" x="46.053" y="-.1" fill="currentColor" ry=".1" transform="translate(5.69 24.874)"/>
    <rect width="1.956" height=".2" x="36.855" y="-.1" fill="currentColor" ry=".1" transform="translate(5.69 23.874)"/>
    <rect width="1.956" height=".2" x="26.291" y="-.1" fill="currentColor" ry=".1" transform="translate(5.69 23.874)"/>
    <rect width="1.956" height=".2" x="26.291" y="-.1" fill="currentColor" ry=".1" transform="translate(5.69 24.874)"/>
    <path stroke="currentColor" stroke-linecap="round" stroke-linejoin="round" stroke-width=".1" d="M14.276 22.874h99.485m-99.485-1h99.485m-99.485-1h99.485m-99.485-1h99.485m-99.485-1h99.485"/>
    <rect width=".19" height="4.95" y="7.377" fill="currentColor" ry="0" transform="translate(113.621 6.547)"/>
    <rect width=".19" height="4.05" y="-2.05" fill="currentColor" ry="0" transform="translate(113.621 51.635)"/>
    <rect width=".19" height="4.05" y="-2" fill="currentColor" ry="0" transform="translate(113.621 42.635)"/>
    <rect width=".19" height="4.05" y="-2.05" fill="currentColor" ry="0" transform="translate(113.621 32.135)"/>
    <path stroke="currentColor" stroke-linecap="round" stroke-linejoin="round" stroke-width=".1" d="M14.276 34.135h99.485m-99.485-1h99.485m-99.485-1h99.485m-99.485-1.001h99.485m-99.485-1h99.485"/>
    <rect width=".19" height="4.1" y="-2.05" fill="currentColor" ry="0" transform="translate(113.621 20.874)"/>
    <rect width=".19" height="4.05" y="-2" fill="currentColor" ry="0" transform="translate(113.621 11.874)"/>
    <rect width=".19" height="4.95" y="38.137" fill="currentColor" ry="0" transform="translate(75.45 6.547)"/>
    <rect width=".19" height="7.211" y="16.377" fill="currentColor" ry="0" transform="translate(75.45 6.547)"/>
    <rect width=".19" height="4.95" y="7.377" fill="currentColor" ry="0" transform="translate(75.45 6.547)"/>
    <path stroke="currentColor" stroke-linecap="round" stroke-linejoin="round" stroke-width=".1" d="M14.276 44.635h99.485m-99.485-1h99.485m-99.485-1h99.485m-99.485-1h99.485m-99.485-1h99.485"/>
    <rect width=".19" height="4.95" y="7.377" fill="currentColor" ry="0" transform="translate(75.45 6.547)"/>
    <path stroke="currentColor" stroke-linecap="round" stroke-linejoin="round" stroke-width=".1" d="M14.276 53.635h99.485m-99.485-1h99.485m-99.485-1h99.485m-99.485-1h99.485m-99.485-1h99.485"/>
    <rect width=".19" height="4.05" y="-2.05" fill="currentColor" ry="0" transform="translate(75.45 51.635)"/>
    <rect width=".19" height="4.05" y="-2" fill="currentColor" ry="0" transform="translate(75.45 42.635)"/>
    <rect width=".19" height="4.05" y="-2.05" fill="currentColor" ry="0" transform="translate(75.45 32.135)"/>
    <rect width=".19" height="4.1" y="-2.05" fill="currentColor" ry="0" transform="translate(75.45 20.874)"/>
    <rect width=".19" height="4.05" y="-2" fill="currentColor" ry="0" transform="translate(75.45 11.874)"/>
    <rect width=".19" height="4.95" y="38.137" fill="currentColor" ry="0" transform="translate(29.214 6.547)"/>
    <rect width=".19" height="7.211" y="16.377" fill="currentColor" ry="0" transform="translate(29.214 6.547)"/>
    <rect width=".19" height="4.95" y="7.377" fill="currentColor" ry="0" transform="translate(29.214 6.547)"/>
    <rect width=".19" height="4.95" y="7.377" fill="currentColor" ry="0" transform="translate(29.214 6.547)"/>
    <rect width=".19" height="4.05" y="-2.05" fill="currentColor" ry="0" transform="translate(29.214 51.635)"/>
    <rect width=".19" height="4.05" y="-2" fill="currentColor" ry="0" transform="translate(29.214 42.635)"/>
    <rect width=".19" height="4.05" y="-2.05" fill="currentColor" ry="0" transform="translate(29.214 32.135)"/>
    <rect width=".19" height="4.1" y="-2.05" fill="currentColor" ry="0" transform="translate(29.214 20.874)"/>
    <rect width=".19" height="4.05" y="-2" fill="currentColor" ry="0" transform="translate(29.214 11.874)"/>
    <path fill="currentColor" d="M16.09 15.414h-.024a.783.783 0 0 1-.78-.788c0-.232.212-.412.448-.412.216 0 .38.188.38.412 0 .208-.172.38-.38.38a.326.326 0 0 1-.124-.024c.104.156.272.26.468.26h.016zm.78-1.728a.69.69 0 0 0 .452-.656.764.764 0 0 0-.692-.76c.076.356.192.968.24 1.416zm-1.548-.924c0 .58.564.988 1.056.988.004 0 .188 0 .328-.024a17.343 17.343 0 0 0-.252-1.456c-.316.032-.496.244-.496.476 0 .176.1.364.324.492.02.02.028.04.028.06 0 .044-.04.088-.088.088-.06 0-.504-.248-.504-.748 0-.352.232-.696.64-.788a15.048 15.048 0 0 0-.184-.7c-.428.484-.852.972-.852 1.612zm.704-2.1c-.116-.384-.208-.68-.208-1.384 0-.46.22-.896.596-1.168a.06.06 0 0 1 .08 0c.272.32.532.98.532 1.432 0 .572-.344 1.02-.72 1.456.084.272.156.552.224.828.008 0 .028-.004.052-.004.62 0 1.024.512 1.024 1.044 0 .452-.296.848-.72.984.012.14.02.28.02.42 0 .076-.004.156-.008.232-.028.476-.352.9-.808.912l.004-.172c.372-.008.612-.368.636-.764a3.775 3.775 0 0 0-.008-.588c-.02.004-.176.032-.356.032-.772 0-1.332-.72-1.332-1.496 0-.708.524-1.224.992-1.764zm.712-1.452c0-.136.004-.264-.08-.516a1.153 1.153 0 0 0-.648 1.036c0 .208.048.46.144.776.32-.388.584-.792.584-1.296zm1.788.188c0-.032.02-.06.052-.072l.184-.068v-.632c0-.04.032-.076.072-.076s.076.036.076.076v.58l.332-.124V8.45c0-.04.036-.076.076-.076s.072.036.072.076v.58l.128-.048c.008-.004.02-.004.028-.004a.08.08 0 0 1 .08.08v.24c0 .032-.02.064-.052.076l-.184.064v.64l.128-.044c.008-.004.02-.004.028-.004a.08.08 0 0 1 .08.08v.24c0 .032-.02.06-.052.072l-.184.068v.632c0 .04-.032.076-.072.076s-.076-.036-.076-.076v-.58l-.332.124v.632c0 .04-.036.076-.076.076s-.072-.036-.072-.076v-.58l-.128.048c-.008.004-.02.004-.028.004a.08.08 0 0 1-.08-.08v-.24c0-.032.02-.064.052-.076l.184-.064v-.64l-.128.044c-.008.004-.02.004-.028.004a.08.08 0 0 1-.08-.08v-.24zm.716.096-.332.12v.64l.332-.12v-.64zm2.534 1.332c.464 0 .704.424.704.652 0 .16-.12.288-.268.288-.124 0-.3-.1-.3-.3 0-.152.108-.308.288-.308.016 0 .036 0 .056.004a.599.599 0 0 0-.48-.236c-.424 0-.452.292-.452.744v.408c0 .452.028.748.452.748.32 0 .556-.28.632-.604.008-.028.028-.04.048-.04.024 0 .052.016.052.048 0 .088-.2.696-.732.696-.236 0-1-.076-1-1.052 0-.248.072-1.048 1-1.048zm2.676 9.736c0-.236.496-.332.496-.728a.427.427 0 0 0-.1-.276l-.14-.168a.057.057 0 0 1-.016-.04c0-.036.036-.06.068-.06.016 0 .032.004.044.02l.604.72a.16.16 0 0 1 .04.1c0 .236-.496.332-.496.728 0 .096.028.196.096.276l.336.396a.057.057 0 0 1 .016.04c0 .036-.032.064-.064.064s-.18-.176-.436-.176c-.064 0-.212 0-.212.268 0 .14.044.296.112.376.028.032-.02.076-.048.044-.18-.216-.368-.592-.368-.808 0-.164.108-.168.16-.168.132 0 .312.052.476.124l-.528-.632a.16.16 0 0 1-.04-.1zm-8.362 3.852h-.024a.783.783 0 0 1-.78-.788c0-.232.212-.412.448-.412.216 0 .38.188.38.412 0 .208-.172.38-.38.38a.326.326 0 0 1-.124-.024c.104.156.272.26.468.26h.016zm.78-1.728a.69.69 0 0 0 .452-.656.764.764 0 0 0-.692-.76c.076.356.192.968.24 1.416zm-1.548-.924c0 .58.564.988 1.056.988.004 0 .188 0 .328-.024a17.343 17.343 0 0 0-.252-1.456c-.316.032-.496.244-.496.476 0 .176.1.364.324.492.02.02.028.04.028.06 0 .044-.04.088-.088.088-.06 0-.504-.248-.504-.748 0-.352.232-.696.64-.788a15.048 15.048 0 0 0-.184-.7c-.428.484-.852.972-.852 1.612zm.704-2.1c-.116-.384-.208-.68-.208-1.384 0-.46.22-.896.596-1.168a.06.06 0 0 1 .08 0c.272.32.532.98.532 1.432 0 .572-.344 1.02-.72 1.456.084.272.156.552.224.828.008 0 .028-.004.052-.004.62 0 1.024.512 1.024 1.044 0 .452-.296.848-.72.984.012.14.02.28.02.42 0 .076-.004.156-.008.232-.028.476-.352.9-.808.912l.004-.172c.372-.008.612-.368.636-.764a3.775 3.775 0 0 0-.008-.588c-.02.004-.176.032-.356.032-.772 0-1.332-.72-1.332-1.496 0-.708.524-1.224.992-1.764zm.712-1.452c0-.136.004-.264-.08-.516a1.153 1.153 0 0 0-.648 1.036c0 .208.048.46.144.776.32-.388.584-.792.584-1.296zm1.788.188c0-.032.02-.06.052-.072l.184-.068v-.632c0-.04.032-.076.072-.076s.076.036.076.076v.58l.332-.124v-.632c0-.04.036-.076.076-.076s.072.036.072.076v.58l.128-.048c.008-.004.02-.004.028-.004a.08.08 0 0 1 .08.08v.24c0 .032-.02.064-.052.076l-.184.064v.64l.128-.044c.008-.004.02-.004.028-.004a.08.08 0 0 1 .08.08v.24c0 .032-.02.06-.052.072l-.184.068v.632c0 .04-.032.076-.072.076s-.076-.036-.076-.076v-.58l-.332.124v.632c0 .04-.036.076-.076.076s-.072-.036-.072-.076v-.58l-.128.048c-.008.004-.02.004-.028.004a.08.08 0 0 1-.08-.08v-.24c0-.032.02-.064.052-.076l.184-.064v-.64l-.128.044c-.008.004-.02.004-.028.004a.08.08 0 0 1-.08-.08v-.24zm.716.096-.332.12v.64l.332-.12v-.64zm2.534 1.332c.464 0 .704.424.704.652 0 .16-.12.288-.268.288-.124 0-.3-.1-.3-.3 0-.152.108-.308.288-.308.016 0 .036 0 .056.004a.599.599 0 0 0-.48-.236c-.424 0-.452.292-.452.744v.408c0 .452.028.748.452.748.32 0 .556-.28.632-.604.008-.028.028-.04.048-.04.024 0 .052.016.052.048 0 .088-.2.696-.732.696-.236 0-1-.076-1-1.052 0-.248.072-1.048 1-1.048zm2.676 11.997c0-.236.496-.332.496-.728a.427.427 0 0 0-.1-.276l-.14-.168a.057.057 0 0 1-.016-.04c0-.036.036-.06.068-.06.016 0 .032.004.044.02l.604.72a.16.16 0 0 1 .04.1c0 .236-.496.332-.496.728 0 .096.028.196.096.276l.336.396a.057.057 0 0 1 .016.04c0 .036-.032.064-.064.064s-.18-.176-.436-.176c-.064 0-.212 0-.212.268 0 .14.044.296.112.376.028.032-.02.076-.048.044-.18-.216-.368-.592-.368-.808 0-.164.108-.168.16-.168.132 0 .312.052.476.124l-.528-.632a.16.16 0 0 1-.04-.1zm-7.198-.189c0-.112.092-.204.204-.204s.204.092.204.204-.092.204-.204.204-.204-.092-.204-.204zm0-1c0-.112.092-.204.204-.204s.204.092.204.204-.092.204-.204.204-.204-.092-.204-.204zm-1.3-.552c.688 0 1.172.352 1.172 1.004 0 1.053-1.052 1.657-2.064 2.085a.049.049 0 0 1-.036.016.053.053 0 0 1-.052-.052c0-.012.004-.024.016-.036.808-.472 1.648-1.06 1.648-1.972 0-.48-.252-.94-.684-.94-.296 0-.516.215-.616.503a.323.323 0 0 1 .136-.032c.22 0 .4.18.4.4 0 .232-.176.424-.4.424-.24 0-.448-.188-.448-.424 0-.532.408-.976.928-.976zm2.572.577c0-.032.02-.06.052-.072l.184-.068v-.632c0-.04.032-.077.072-.077s.076.036.076.076v.58l.332-.124v-.632c0-.04.036-.076.076-.076s.072.036.072.076v.58l.128-.048c.008-.004.02-.004.028-.004a.08.08 0 0 1 .08.08v.24c0 .032-.02.064-.052.076l-.184.064v.64l.128-.044c.008-.004.02-.004.028-.004a.08.08 0 0 1 .08.08v.24c0 .032-.02.06-.052.072l-.184.068v.632c0 .04-.032.076-.072.076s-.076-.036-.076-.076v-.58l-.332.124v.632c0 .04-.036.076-.076.076s-.072-.036-.072-.076v-.58l-.128.048c-.008.004-.02.004-.028.004a.08.08 0 0 1-.08-.08v-.24c0-.032.02-.064.052-.076l.184-.064v-.64l-.128.044c-.008.004-.02.004-.028.004a.08.08 0 0 1-.08-.08v-.24zm.716.096-.332.12v.64l.332-.12v-.64zm2.534.332c.464 0 .704.424.704.652 0 .16-.12.288-.268.288-.124 0-.3-.1-.3-.3 0-.153.108-.309.288-.309.016 0 .036 0 .056.004a.599.599 0 0 0-.48-.236c-.424 0-.452.292-.452.744v.408c0 .452.028.748.452.748.32 0 .556-.28.632-.604.008-.028.028-.04.048-.04.024 0 .052.016.052.048 0 .088-.2.696-.732.696-.236 0-1-.076-1-1.052 0-.248.072-1.048 1-1.048zm2.676 11.236c0-.236.496-.332.496-.728a.427.427 0 0 0-.1-.276l-.14-.169a.057.057 0 0 1-.016-.04c0-.035.036-.06.068-.06.016 0 .032.005.044.02l.604.72a.16.16 0 0 1 .04.1c0 .237-.496.333-.496.729 0 .096.028.196.096.276l.336.396a.057.057 0 0 1 .016.04c0 .036-.032.064-.064.064s-.18-.176-.436-.176c-.064 0-.212 0-.212.268 0 .14.044.296.112.376.028.032-.02.076-.048.044-.18-.216-.368-.592-.368-.808 0-.164.108-.168.16-.168.132 0 .312.052.476.124l-.528-.632a.16.16 0 0 1-.04-.1zm-8.362 3.852h-.024a.783.783 0 0 1-.78-.788c0-.232.212-.412.448-.412.216 0 .38.188.38.412 0 .208-.172.38-.38.38a.326.326 0 0 1-.124-.024c.104.156.272.26.468.26h.016zm.78-1.728a.69.69 0 0 0 .452-.657.764.764 0 0 0-.692-.76c.076.357.192.969.24 1.417zm-1.548-.925c0 .58.564.989 1.056.989.004 0 .188 0 .328-.025a17.343 17.343 0 0 0-.252-1.455c-.316.031-.496.243-.496.475 0 .176.1.364.324.492.02.02.028.04.028.06 0 .044-.04.088-.088.088-.06 0-.504-.248-.504-.748 0-.352.232-.696.64-.788a15.048 15.048 0 0 0-.184-.7c-.428.485-.852.973-.852 1.613zm.704-2.1c-.116-.383-.208-.68-.208-1.383 0-.46.22-.897.596-1.169a.06.06 0 0 1 .08 0c.272.32.532.98.532 1.433 0 .572-.344 1.02-.72 1.456.084.272.156.552.224.828.008 0 .028-.004.052-.004.62 0 1.024.512 1.024 1.044 0 .452-.296.848-.72.984.012.14.02.28.02.42 0 .076-.004.156-.008.232-.028.476-.352.9-.808.912l.004-.172c.372-.008.612-.368.636-.764a3.775 3.775 0 0 0-.008-.588c-.02.004-.176.032-.356.032-.772 0-1.332-.72-1.332-1.496 0-.708.524-1.224.992-1.764zm.712-1.451c0-.136.004-.264-.08-.516a1.153 1.153 0 0 0-.648 1.036c0 .208.048.46.144.776.32-.388.584-.792.584-1.296zm1.788.188c0-.032.02-.06.052-.072l.184-.069v-.631c0-.04.032-.076.072-.076s.076.036.076.076v.58l.332-.124v-.633c0-.04.036-.075.076-.075s.072.036.072.076v.58l.128-.048c.008-.005.02-.005.028-.005a.08.08 0 0 1 .08.08v.24c0 .033-.02.065-.052.077l-.184.064v.64l.128-.044c.008-.004.02-.004.028-.004a.08.08 0 0 1 .08.08v.24c0 .032-.02.06-.052.072l-.184.068v.632c0 .04-.032.076-.072.076s-.076-.036-.076-.076v-.58l-.332.124v.632c0 .04-.036.076-.076.076s-.072-.036-.072-.076v-.58l-.128.048c-.008.004-.02.004-.028.004a.08.08 0 0 1-.08-.08v-.24c0-.032.02-.064.052-.076l.184-.064v-.64l-.128.044c-.008.004-.02.004-.028.004a.08.08 0 0 1-.08-.08v-.24zm.716.096-.332.12v.64l.332-.12v-.64zm2.534 1.332c.464 0 .704.423.704.651 0 .16-.12.289-.268.289-.124 0-.3-.1-.3-.3 0-.152.108-.308.288-.308.016 0 .036 0 .056.004a.599.599 0 0 0-.48-.237c-.424 0-.452.293-.452.745v.408c0 .452.028.748.452.748.32 0 .556-.28.632-.605.008-.027.028-.04.048-.04.024 0 .052.017.052.049 0 .088-.2.696-.732.696-.236 0-1-.076-1-1.052 0-.248.072-1.048 1-1.048zm2.676 9.736c0-.236.496-.332.496-.728a.427.427 0 0 0-.1-.276l-.14-.169a.057.057 0 0 1-.016-.04c0-.035.036-.06.068-.06.016 0 .032.005.044.02l.604.72a.16.16 0 0 1 .04.1c0 .237-.496.333-.496.729 0 .096.028.196.096.276l.336.396a.057.057 0 0 1 .016.04c0 .036-.032.064-.064.064s-.18-.176-.436-.176c-.064 0-.212 0-.212.268 0 .14.044.296.112.376.028.032-.02.076-.048.044-.18-.216-.368-.592-.368-.808 0-.164.108-.168.16-.168.132 0 .312.052.476.124l-.528-.632a.16.16 0 0 1-.04-.1zm-7.198-.188c0-.112.092-.204.204-.204s.204.092.204.204-.092.204-.204.204-.204-.092-.204-.204zm0-1c0-.112.092-.204.204-.204s.204.092.204.204-.092.204-.204.204-.204-.092-.204-.204zm-1.3-.552c.688 0 1.172.352 1.172 1.004 0 1.051-1.052 1.655-2.064 2.083a.049.049 0 0 1-.036.017.053.053 0 0 1-.052-.052c0-.012.004-.024.016-.036.808-.472 1.648-1.06 1.648-1.972 0-.48-.252-.94-.684-.94-.296 0-.516.216-.616.504a.323.323 0 0 1 .136-.033c.22 0 .4.18.4.4 0 .233-.176.425-.4.425-.24 0-.448-.188-.448-.424 0-.532.408-.976.928-.976zm2.572.576c0-.032.02-.06.052-.072l.184-.069v-.631c0-.04.032-.076.072-.076s.076.036.076.076v.58l.332-.124v-.633c0-.04.036-.075.076-.075s.072.036.072.076v.58l.128-.048c.008-.005.02-.005.028-.005a.08.08 0 0 1 .08.08v.24c0 .033-.02.065-.052.077l-.184.064v.64l.128-.044c.008-.004.02-.004.028-.004a.08.08 0 0 1 .08.08v.24c0 .032-.02.06-.052.072l-.184.068v.632c0 .04-.032.076-.072.076s-.076-.036-.076-.076v-.58l-.332.124v.632c0 .04-.036.076-.076.076s-.072-.036-.072-.076v-.58l-.128.048c-.008.004-.02.004-.028.004a.08.08 0 0 1-.08-.08v-.24c0-.032.02-.064.052-.076l.184-.064v-.64l-.128.044c-.008.004-.02.004-.028.004a.08.08 0 0 1-.08-.08v-.24zm.716.096-.332.12v.64l.332-.12v-.64zm2.534.332c.464 0 .704.423.704.651 0 .16-.12.289-.268.289-.124 0-.3-.1-.3-.3 0-.152.108-.308.288-.308.016 0 .036 0 .056.004a.599.599 0 0 0-.48-.237c-.424 0-.452.293-.452.745v.408c0 .452.028.748.452.748.32 0 .556-.28.632-.605.008-.027.028-.04.048-.04.024 0 .052.017.052.049 0 .088-.2.696-.732.696-.236 0-1-.076-1-1.052 0-.248.072-1.048 1-1.048z"/>
    <rect width=".13" height="3.314" x="-.065" y="-.814" fill="currentColor" ry=".04" transform="translate(24.541 11.874)"/>
    <path fill="currentColor" stroke="currentColor" stroke-linecap="round" stroke-linejoin="round" stroke-width=".08" d="M109.168 53.244v.4H95.294v-.4zm0-19.5v.4H95.294v-.4z"/>
    <path fill="currentColor" d="M30.802 10.984c.194 0 .328.112.328.278 0 .254-.3.5-.585.5-.193 0-.325-.111-.325-.276 0-.255.297-.502.582-.502zm-5.293 4.456-.2.652c-.12.396-.484 1.02-.872 1.02-.18 0-.348-.108-.348-.276 0-.156.068-.308.208-.308.096 0 .176.08.176.176 0 .12-.152.096-.152.216 0 .04.044.044.092.044h.024c.192 0 .244-.232.292-.432L25 15.44h-.196c-.044 0-.076-.032-.076-.076s.032-.076.076-.076h.24c.128-.384.472-.764.852-.764.18 0 .348.108.348.276 0 .156-.068.308-.208.308a.174.174 0 0 1-.176-.172c0-.12.152-.1.152-.22 0-.04-.04-.044-.088-.044h-.028c-.248 0-.28.352-.344.616h.22c.044 0 .076.032.076.076s-.032.076-.076.076h-.264zm-.161-5.11c.264 0 .432.144.432.356 0 .356-.452.732-.872.732-.264 0-.432-.144-.432-.356 0-.356.452-.732.872-.732z"/>
    <path fill="currentColor" stroke="currentColor" stroke-linecap="round" stroke-linejoin="round" stroke-width=".08" d="M110.342 19.674v.4l-13.874.19v-.4zm-19.514 33.57v.4h-13.93v-.4z"/>
    <rect width=".13" height="2.486" x="-.065" y="-3.1" fill="currentColor" ry=".04" transform="translate(31.073 11.874)"/>
    <path fill="currentColor" d="M31.138 9.407v.597-.597c0 .32.238.563.409.826a.374.374 0 0 0 .016-.112c0-.263-.243-.526-.425-.714zm.322 1.781c0-.03.12-.207.12-.473s-.252-.526-.442-.711v.21h-.059v-1.4h.059c0 .495.563.812.563 1.307a.643.643 0 0 1-.065.27c.05.1.081.206.081.324 0 .176-.042.35-.114.51-.014.028-.04.036-.065.036-.039 0-.078-.028-.078-.073zm63.88 31.071h-1.42c-.024 0-.04-.016-.04-.04v-.544c0-.024.016-.04.04-.04h1.42c.024 0 .04.016.04.04v.544c0 .024-.016.04-.04.04z"/>
    <path fill="currentColor" stroke="currentColor" stroke-linecap="round" stroke-linejoin="round" stroke-width=".08" d="M90.828 33.744v.4h-13.93v-.4z"/>
    <path fill="currentColor" d="M33.18 11.33c.264 0 .432.144.432.356 0 .356-.452.732-.872.732-.264 0-.432-.144-.432-.356 0-.356.452-.732.872-.732zm0 13.5c.264 0 .432.144.432.356 0 .356-.452.732-.872.732-.264 0-.432-.144-.432-.356 0-.356.452-.732.872-.732zm.16 2.582-.2.652c-.12.396-.484 1.02-.872 1.02-.18 0-.348-.108-.348-.276 0-.156.068-.308.208-.308.096 0 .176.08.176.176 0 .12-.152.096-.152.216 0 .04.044.044.092.044h.024c.192 0 .244-.232.292-.432l.272-1.092h-.196c-.044 0-.076-.031-.076-.075s.032-.076.076-.076h.24c.128-.384.472-.764.852-.764.18 0 .348.108.348.276 0 .156-.068.308-.208.308a.174.174 0 0 1-.176-.172c0-.12.152-.1.152-.22 0-.04-.04-.044-.088-.044h-.028c-.248 0-.28.352-.344.616h.22c.044 0 .076.032.076.076s-.032.076-.076.076h-.264zm-.16 2.678c.264 0 .432.144.432.356 0 .356-.452.732-.872.732-.264 0-.432-.144-.432-.356 0-.356.452-.732.872-.732zm.16 5.61-.2.653c-.12.396-.484 1.02-.872 1.02-.18 0-.348-.108-.348-.276 0-.156.068-.308.208-.308.096 0 .176.08.176.176 0 .12-.152.096-.152.216 0 .04.044.044.092.044h.024c.192 0 .244-.232.292-.432l.272-1.092h-.196c-.044 0-.076-.032-.076-.076s.032-.076.076-.076h.24c.128-.384.472-.764.852-.764.18 0 .348.108.348.276 0 .156-.068.308-.208.308a.174.174 0 0 1-.176-.172c0-.12.152-.1.152-.22 0-.04-.04-.044-.088-.044h-.028c-.248 0-.28.352-.344.616h.22c.044 0 .076.032.076.076s-.032.076-.076.076h-.264zm-.16 13.89c.264 0 .432.145.432.357 0 .356-.452.732-.872.732-.264 0-.432-.144-.432-.356 0-.356.452-.732.872-.732zm.16 5.61-.2.653c-.12.396-.484 1.02-.872 1.02-.18 0-.348-.108-.348-.276 0-.156.068-.308.208-.308.096 0 .176.08.176.176 0 .12-.152.096-.152.216 0 .04.044.044.092.044h.024c.192 0 .244-.232.292-.432l.272-1.092h-.196c-.044 0-.076-.032-.076-.076s.032-.076.076-.076h.24c.128-.384.472-.764.852-.764.18 0 .348.108.348.276 0 .156-.068.308-.208.308a.174.174 0 0 1-.176-.172c0-.12.152-.1.152-.22 0-.04-.04-.044-.088-.044h-.028c-.248 0-.28.352-.344.616h.22c.044 0 .076.032.076.076s-.032.076-.076.076h-.264z"/>
    <rect width=".13" height="3.308" x="-.065" y="-3.494" fill="currentColor" ry=".04" transform="translate(33.547 11.874)"/>
    <rect width=".13" height="4.504" x="-.065" y="-.19" fill="currentColor" ry=".04" transform="translate(33.547 20.874)"/>
    <rect width=".13" height="3.124" x="-.065" y="-1.314" fill="currentColor" ry=".04" transform="translate(32.373 32.135)"/>
    <rect width=".13" height="3.124" x="-.065" y="-1.314" fill="currentColor" ry=".04" transform="translate(32.373 51.635)"/>
    <path fill="currentColor" stroke="currentColor" stroke-linecap="round" stroke-linejoin="round" stroke-width=".08" d="M92.002 19.674v.4l-13.93.19v-.4z"/>
    <path fill="currentColor" d="M37.84 11.83c.265 0 .433.144.433.356 0 .356-.452.732-.872.732-.264 0-.432-.144-.432-.356 0-.356.452-.732.872-.732zm0 11c.265 0 .433.144.433.356 0 .356-.452.732-.872.732-.264 0-.432-.144-.432-.356 0-.356.452-.732.872-.732zm0 7.26c.265 0 .433.144.433.356 0 .356-.452.732-.872.732-.264 0-.432-.144-.432-.356 0-.356.452-.732.872-.732zm0 19.5c.265 0 .433.145.433.357 0 .356-.452.732-.872.732-.264 0-.432-.144-.432-.356 0-.356.452-.732.872-.732z"/>
    <rect width=".13" height="3.393" x="-.065" y="-3.079" fill="currentColor" ry=".04" transform="translate(38.208 11.874)"/>
    <rect width=".13" height="2.504" x="-.065" y="-.19" fill="currentColor" ry=".04" transform="translate(38.208 20.874)"/>
    <rect width=".13" height="3.124" x="-.065" y="-1.314" fill="currentColor" ry=".04" transform="translate(37.034 32.135)"/>
    <rect width=".13" height="3.124" x="-.065" y="-1.314" fill="currentColor" ry=".04" transform="translate(37.034 51.635)"/>
    <path fill="currentColor" stroke="currentColor" stroke-linecap="round" stroke-linejoin="round" stroke-width=".08" d="M69.887 53.244v.4H52.109v-.4z"/>
    <path fill="currentColor" d="M40.792 12.33c.264 0 .432.144.432.356 0 .356-.452.732-.872.732-.264 0-.432-.144-.432-.356 0-.356.452-.732.872-.732z"/>
    <rect width=".13" height="3.63" x="-.065" y="-2.816" fill="currentColor" ry=".04" transform="translate(41.16 11.874)"/>
    <path fill="currentColor" stroke="currentColor" stroke-linecap="round" stroke-linejoin="round" stroke-width=".08" d="M69.887 33.744v.4H52.109v-.4z"/>
    <path fill="currentColor" d="M43.744 12.33c.264 0 .432.144.432.356 0 .356-.452.732-.872.732-.264 0-.432-.144-.432-.356 0-.356.452-.732.872-.732zm0 11.5c.264 0 .432.144.432.356 0 .356-.452.732-.872.732-.264 0-.432-.144-.432-.356 0-.356.452-.732.872-.732zm0 6.26c.264 0 .432.144.432.356 0 .356-.452.732-.872.732-.264 0-.432-.144-.432-.356 0-.356.452-.732.872-.732zm0 19.5c.264 0 .432.145.432.357 0 .356-.452.732-.872.732-.264 0-.432-.144-.432-.356 0-.356.452-.732.872-.732z"/>
    <rect width=".13" height="3.314" x="-.065" y="-2.5" fill="currentColor" ry=".04" transform="translate(44.111 11.874)"/>
    <rect width=".13" height="3.504" x="-.065" y="-.19" fill="currentColor" ry=".04" transform="translate(44.111 20.874)"/>
    <rect width=".13" height="3.124" x="-.065" y="-1.314" fill="currentColor" ry=".04" transform="translate(42.937 32.135)"/>
    <rect width=".13" height="3.124" x="-.065" y="-1.314" fill="currentColor" ry=".04" transform="translate(42.937 51.635)"/>
    <path fill="currentColor" stroke="currentColor" stroke-linecap="round" stroke-linejoin="round" stroke-width=".08" d="M71.06 20.484v.4H53.285v-.4z"/>
    <path fill="currentColor" d="M48.426 22.83c.264 0 .432.144.432.356 0 .356-.452.732-.872.732-.264 0-.432-.144-.432-.356 0-.356.452-.732.872-.732zm0 7.26c.264 0 .432.144.432.356 0 .356-.452.732-.872.732-.264 0-.432-.144-.432-.356 0-.356.452-.732.872-.732zm0 19.5c.264 0 .432.145.432.357 0 .356-.452.732-.872.732-.264 0-.432-.144-.432-.356 0-.356.452-.732.872-.732z"/>
    <rect width=".13" height="2.504" x="-.065" y="-.19" fill="currentColor" ry=".04" transform="translate(48.793 20.874)"/>
    <rect width=".13" height="3.124" x="-.065" y="-1.314" fill="currentColor" ry=".04" transform="translate(47.619 32.135)"/>
    <rect width=".13" height="3.124" x="-.065" y="-1.314" fill="currentColor" ry=".04" transform="translate(47.619 51.635)"/>
    <path fill="currentColor" stroke="currentColor" stroke-linecap="round" stroke-linejoin="round" stroke-width=".08" d="M72.838 11.864v.4l-8.904 1v-.4zm0 .81v.4l-8.904 1v-.4z"/>
    <path fill="currentColor" d="M52.941 12.33c.264 0 .432.144.432.356 0 .356-.452.732-.872.732-.264 0-.432-.144-.432-.356 0-.356.452-.732.872-.732zm0 12.5c.264 0 .432.144.432.356 0 .356-.452.732-.872.732-.264 0-.432-.144-.432-.356 0-.356.452-.732.872-.732zm0 5.26c.264 0 .432.144.432.356 0 .356-.452.732-.872.732-.264 0-.432-.144-.432-.356 0-.356.452-.732.872-.732zm0 19.5c.264 0 .432.145.432.357 0 .356-.452.732-.872.732-.264 0-.432-.144-.432-.356 0-.356.452-.732.872-.732z"/>
    <rect width=".13" height="3.82" x="-.065" y="-3.006" fill="currentColor" ry=".04" transform="translate(53.309 11.874)"/>
    <rect width=".13" height="4.504" x="-.065" y="-.19" fill="currentColor" ry=".04" transform="translate(53.309 20.874)"/>
    <rect width=".13" height="3.124" x="-.065" y="-1.314" fill="currentColor" ry=".04" transform="translate(52.134 32.135)"/>
    <rect width=".13" height="3.124" x="-.065" y="-1.314" fill="currentColor" ry=".04" transform="translate(52.134 51.635)"/>
    <path fill="currentColor" d="M55.893 11.83c.264 0 .432.144.432.356 0 .356-.452.732-.872.732-.264 0-.432-.144-.432-.356 0-.356.452-.732.872-.732z"/>
    <rect width=".13" height="3.586" x="-.065" y="-3.272" fill="currentColor" ry=".04" transform="translate(56.26 11.874)"/>
    <path fill="currentColor" d="M58.844 11.33c.264 0 .432.144.432.356 0 .356-.452.732-.872.732-.264 0-.432-.144-.432-.356 0-.356.452-.732.872-.732zm0 11.5c.264 0 .432.144.432.356 0 .356-.452.732-.872.732-.264 0-.432-.144-.432-.356 0-.356.452-.732.872-.732zm0 7.26c.264 0 .432.144.432.356 0 .356-.452.732-.872.732-.264 0-.432-.144-.432-.356 0-.356.452-.732.872-.732zm0 19.5c.264 0 .432.145.432.357 0 .356-.452.732-.872.732-.264 0-.432-.144-.432-.356 0-.356.452-.732.872-.732z"/>
    <rect width=".13" height="3.352" x="-.065" y="-3.538" fill="currentColor" ry=".04" transform="translate(59.212 11.874)"/>
    <rect width=".13" height="2.504" x="-.065" y="-.19" fill="currentColor" ry=".04" transform="translate(59.212 20.874)"/>
    <rect width=".13" height="3.124" x="-.065" y="-1.314" fill="currentColor" ry=".04" transform="translate(58.037 32.135)"/>
    <rect width=".13" height="3.124" x="-.065" y="-1.314" fill="currentColor" ry=".04" transform="translate(58.037 51.635)"/>
    <path fill="currentColor" d="M61.796 10.83c.264 0 .432.144.432.356 0 .356-.452.732-.872.732-.264 0-.432-.144-.432-.356 0-.356.452-.732.872-.732z"/>
    <rect width=".13" height="3.118" x="-.065" y="-3.804" fill="currentColor" ry=".04" transform="translate(62.163 11.874)"/>
    <path fill="currentColor" stroke="currentColor" stroke-linecap="round" stroke-linejoin="round" stroke-width=".08" d="M77.56 8.829c2.433-1.65 16.017-1.28 18.358.5h0c-2.344-1.66-15.928-2.03-18.358-.5z"/>
    <path fill="currentColor" d="M64.766 10.33c.264 0 .432.144.432.356 0 .356-.452.732-.872.732-.264 0-.432-.144-.432-.356 0-.356.452-.732.872-.732zm0 13.5c.264 0 .432.144.432.356 0 .356-.452.732-.872.732-.264 0-.432-.144-.432-.356 0-.356.452-.732.872-.732zm0 6.26c.264 0 .432.144.432.356 0 .356-.452.732-.872.732-.264 0-.432-.144-.432-.356 0-.356.452-.732.872-.732zm0 19.5c.264 0 .432.145.432.357 0 .356-.452.732-.872.732-.264 0-.432-.144-.432-.356 0-.356.452-.732.872-.732z"/>
    <rect width=".13" height="2.807" x="-.065" y="-.814" fill="currentColor" ry=".04" transform="translate(63.959 11.874)"/>
    <rect width=".13" height="3.504" x="-.065" y="-.19" fill="currentColor" ry=".04" transform="translate(65.133 20.874)"/>
    <rect width=".13" height="3.124" x="-.065" y="-1.314" fill="currentColor" ry=".04" transform="translate(63.959 32.135)"/>
    <rect width=".13" height="3.124" x="-.065" y="-1.314" fill="currentColor" ry=".04" transform="translate(63.959 51.635)"/>
    <path fill="currentColor" stroke="currentColor" stroke-linecap="round" stroke-linejoin="round" stroke-width=".08" d="M62.188 7.864v.4l-8.904.81v-.4zm0 .81v.4l-8.904.81v-.4z"/>
    <path fill="currentColor" d="M67.717 9.83c.264 0 .432.144.432.356 0 .356-.452.732-.872.732-.264 0-.432-.144-.432-.356 0-.356.452-.732.872-.732z"/>
    <rect width=".13" height="2.978" x="-.065" y="-1.314" fill="currentColor" ry=".04" transform="translate(66.91 11.874)"/>
    <path fill="currentColor" stroke="currentColor" stroke-linecap="round" stroke-linejoin="round" stroke-width=".08" d="M47.644 53.244v.4H32.348v-.4z"/>
    <path fill="currentColor" d="M70.668 9.33c.264 0 .432.144.432.356 0 .356-.451.732-.871.732-.265 0-.433-.144-.433-.356 0-.356.452-.732.872-.732zm0 13.5c.264 0 .432.144.432.356 0 .356-.451.732-.871.732-.265 0-.433-.144-.433-.356 0-.356.452-.732.872-.732zm0 7.26c.264 0 .432.144.432.356 0 .356-.451.732-.871.732-.265 0-.433-.144-.433-.356 0-.356.452-.732.872-.732zm0 19.5c.264 0 .432.145.432.357 0 .356-.451.732-.871.732-.265 0-.433-.144-.433-.356 0-.356.452-.732.872-.732z"/>
    <rect width=".13" height="3.15" x="-.065" y="-1.814" fill="currentColor" ry=".04" transform="translate(69.862 11.874)"/>
    <rect width=".13" height="2.504" x="-.065" y="-.19" fill="currentColor" ry=".04" transform="translate(71.036 20.874)"/>
    <rect width=".13" height="3.124" x="-.065" y="-1.314" fill="currentColor" ry=".04" transform="translate(69.862 32.135)"/>
    <rect width=".13" height="3.124" x="-.065" y="-1.314" fill="currentColor" ry=".04" transform="translate(69.862 51.635)"/>
    <path fill="currentColor" stroke="currentColor" stroke-linecap="round" stroke-linejoin="round" stroke-width=".08" d="M47.644 33.744v.4H32.348v-.4z"/>
    <path fill="currentColor" d="M73.62 8.83c.264 0 .432.144.432.356 0 .356-.452.732-.872.732-.264 0-.432-.144-.432-.356 0-.356.452-.732.872-.732z"/>
    <rect width=".13" height="3.321" x="-.065" y="-2.314" fill="currentColor" ry=".04" transform="translate(72.813 11.874)"/>
    <path fill="currentColor" stroke="currentColor" stroke-linecap="round" stroke-linejoin="round" stroke-width=".08" d="M48.818 20.484v.4H33.522v-.4z"/>
    <path fill="currentColor" d="M78.115 9.614a.166.166 0 0 0-.168-.164c-.156 0-.816.44-.924.572a.168.168 0 0 0-.04.112c0 .092.076.164.168.164.156 0 .812-.44.92-.572a.172.172 0 0 0 .044-.112zm-.208-.284c.164 0 .328.056.328.284 0 .104-.064.448-.296.604-.1.068-.348.2-.748.2-.164 0-.332-.056-.332-.284 0-.104.064-.448.296-.604.1-.068.352-.2.752-.2z"/>
    <rect width=".16" height="43.861" y="-21.93" fill="currentColor" ry=".05" transform="translate(14.166 31.754)"/>
    <path fill="currentColor" d="M77.73 24.83c.265 0 .433.144.433.356 0 .356-.452.732-.872.732-.264 0-.432-.144-.432-.356 0-.356.452-.732.872-.732zM13.542 48.599c0-1.02-.528-1.452-.528-1.464 0-.072.528-.384.528-1.464 0-1.044-.432-1.956-.432-3.12 0-.756.18-1.464.708-2.004.06-.06.156.036.096.096-.396.396-.516.9-.516 1.44 0 1.02.408 1.92.408 3.06 0 .744-.18 1.452-.696 1.992.516.54.696 1.248.696 1.992 0 1.14-.408 2.04-.408 3.06 0 .54.12 1.044.516 1.44.06.06-.036.155-.096.095-.528-.54-.708-1.248-.708-2.004 0-1.164.432-2.076.432-3.12zM77.73 30.09c.265 0 .433.144.433.356 0 .356-.452.732-.872.732-.264 0-.432-.144-.432-.356 0-.356.452-.732.872-.732z"/>
    <text fill="currentColor" font-family="serif" font-size="2.2" transform="translate(3.258 47.882)">
<tspan>Cembalo</tspan>
</text>
    <path fill="currentColor" d="M77.73 49.59c.265 0 .433.145.433.357 0 .356-.452.732-.872.732-.264 0-.432-.144-.432-.356 0-.356.452-.732.872-.732zm-.416 5.22c-.097 0-.101.088-.101.202s.004.2.101.2c.101 0 .121-.083.121-.2s-.02-.202-.12-.202zm-.101-.068a.198.198 0 0 1 .101-.027c.227 0 .39.09.39.297s-.163.295-.39.295c-.25 0-.387-.273-.387-.55 0-.284.17-.55.433-.55.165 0 .31.114.31.27a.128.128 0 0 1-.255 0c0-.046.077-.05.077-.096 0-.057-.068-.08-.132-.08-.134 0-.152.133-.152.284 0 .051.005.106.005.157zm-.029.963c.022 0 .09.033.159.033.07 0 .138-.033.167-.033.033 0 .057.024.057.046a.028.028 0 0 1-.009.022l-.58.64h.294v-.009c0-.132.11-.09.165-.187.016-.024.018-.052.031-.079a.04.04 0 0 1 .037-.022c.025 0 .053.018.053.055v.242h.154c.04 0 .06.031.06.06s-.02.059-.06.059h-.154c.005.099.08.18.176.18.031 0 .049.022.049.047s-.018.048-.049.048c-.107 0-.21-.03-.319-.03s-.213.03-.32.03c-.032 0-.047-.024-.047-.048s.015-.047.046-.047a.183.183 0 0 0 .178-.18h-.295c-.094 0-.125-.055-.125-.092 0-.011.002-.022.007-.027a.97.97 0 0 0 .27-.64c0-.037.025-.068.055-.068z"/>
    <rect width=".13" height="3.241" x="-.065" y="-1.741" fill="currentColor" ry=".04" transform="translate(76.924 11.874)"/>
    <rect width=".13" height="5.125" x="-.065" y="-.811" fill="currentColor" ry=".04" transform="translate(78.098 20.874)"/>
    <rect width=".13" height="3.124" x="-.065" y="-1.314" fill="currentColor" ry=".04" transform="translate(76.924 32.135)"/>
    <path fill="currentColor" d="M12.916 9.823v-.348c0-.056.044-.1.1-.1h.2c.636 0 1.084-.544 1.448-1.08.048-.068.152.004.104.072-.396.576-.86 1.456-1.552 1.456h-.3zm0 24.363h.3c.692 0 1.156.88 1.552 1.456.048.068-.056.14-.104.072-.364-.536-.812-1.08-1.448-1.08h-.2a.099.099 0 0 1-.1-.1v-.348z"/>
    <rect width=".45" height="24.451" y="-12.225" fill="currentColor" ry="0" transform="translate(12.916 22.004)"/>
    <rect width=".13" height="3.124" x="-.065" y="-1.314" fill="currentColor" ry=".04" transform="translate(76.924 51.635)"/>
    <path fill="currentColor" stroke="currentColor" stroke-linecap="round" stroke-linejoin="round" stroke-width=".08" d="M43.724 13.624c1.173.923 7.624.923 8.797 0h0c-1.173.803-7.624.803-8.797 0z"/>
    <path fill="currentColor" d="M82.413 23.33c.264 0 .432.144.432.356 0 .356-.452.732-.872.732-.264 0-.432-.144-.432-.356 0-.356.452-.732.872-.732zm0 6.76c.264 0 .432.144.432.356 0 .356-.452.732-.872.732-.264 0-.432-.144-.432-.356 0-.356.452-.732.872-.732zm0 19.5c.264 0 .432.145.432.357 0 .356-.452.732-.872.732-.264 0-.432-.144-.432-.356 0-.356.452-.732.872-.732z"/>
    <rect width=".13" height="3.688" x="-.065" y="-.874" fill="currentColor" ry=".04" transform="translate(82.78 20.874)"/>
    <rect width=".13" height="3.124" x="-.065" y="-1.314" fill="currentColor" ry=".04" transform="translate(81.606 32.135)"/>
    <rect width=".13" height="3.124" x="-.065" y="-1.314" fill="currentColor" ry=".04" transform="translate(81.606 51.635)"/>
    <path fill="currentColor" stroke="currentColor" stroke-linecap="round" stroke-linejoin="round" stroke-width=".08" d="M41.185 8.864v.4l-7.663-.69v-.4zm0 .81v.4l-3.002-.275v-.4z"/>
    <path fill="currentColor" d="M87.095 22.33c.264 0 .432.144.432.356 0 .356-.452.732-.872.732-.264 0-.432-.144-.432-.356 0-.356.452-.732.872-.732zm0 7.76c.264 0 .432.144.432.356 0 .356-.452.732-.872.732-.264 0-.432-.144-.432-.356 0-.356.452-.732.872-.732zm0 19.5c.264 0 .432.145.432.357 0 .356-.452.732-.872.732-.264 0-.432-.144-.432-.356 0-.356.452-.732.872-.732z"/>
    <rect width=".13" height="2.752" x="-.065" y="-.938" fill="currentColor" ry=".04" transform="translate(87.462 20.874)"/>
    <rect width=".13" height="3.124" x="-.065" y="-1.314" fill="currentColor" ry=".04" transform="translate(86.288 32.135)"/>
    <rect width=".13" height="3.124" x="-.065" y="-1.314" fill="currentColor" ry=".04" transform="translate(86.288 51.635)"/>
    <path fill="currentColor" d="M91.61 23.33c.264 0 .432.144.432.356 0 .356-.452.732-.872.732-.264 0-.432-.144-.432-.356 0-.356.452-.732.872-.732zm0 6.76c.264 0 .432.144.432.356 0 .356-.452.732-.872.732-.264 0-.432-.144-.432-.356 0-.356.452-.732.872-.732zm0 19.5c.264 0 .432.145.432.357 0 .356-.452.732-.872.732-.264 0-.432-.144-.432-.356 0-.356.452-.732.872-.732z"/>
    <rect width=".13" height="3.813" x="-.065" y="-.999" fill="currentColor" ry=".04" transform="translate(91.978 20.874)"/>
    <rect width=".13" height="3.124" x="-.065" y="-1.314" fill="currentColor" ry=".04" transform="translate(90.803 32.135)"/>
    <rect width=".13" height="3.124" x="-.065" y="-1.314" fill="currentColor" ry=".04" transform="translate(90.803 51.635)"/>
    <path fill="currentColor" d="M96.126 9.83c.264 0 .432.144.432.356 0 .356-.452.732-.872.732-.264 0-.432-.144-.432-.356 0-.356.452-.732.872-.732zM94.718 7.8c0 .06.032.12.156.12.04 0 .184-.009.412-.113l.02-.096a.542.542 0 0 0-.324-.116c-.204 0-.264.124-.264.204zm1.084.491c0 .244-.188.46-.392.46-.156 0-.224-.176-.224-.364 0-.056.004-.112.016-.164l.06-.304c-.08.032-.252.1-.404.1-.076 0-.24-.024-.24-.204 0-.152.128-.32.384-.32a.61.61 0 0 1 .328.1l.184-.928c.024.012.052.02.08.02.088 0 .192-.064.272-.14l-.212 1.064.256-.144a.622.622 0 0 1 .296-.08c.116 0 .212.04.256.112a.373.373 0 0 1 .276-.12c.144 0 .276.088.276.276 0 .196-.124.36-.26.36-.1 0-.152-.088-.152-.192 0-.2.148-.256.24-.256h.012c-.032-.056-.092-.08-.152-.08-.096 0-.2.064-.22.172l-.216 1.08c-.044-.028-.096-.044-.152-.044s-.116.016-.172.044l.216-1.08v-.028c0-.064-.048-.104-.116-.104a.236.236 0 0 0-.096.028l-.316.176-.028.124c.108.124.2.268.2.436zm-.24.26c.092 0 .14-.136.14-.244 0-.12-.056-.22-.128-.312l-.02.108c-.016.072-.052.224-.052.332 0 .068.016.116.06.116zm.564 16.279c.264 0 .432.144.432.356 0 .356-.452.732-.872.732-.264 0-.432-.144-.432-.356 0-.356.452-.732.872-.732zm0 5.26c.264 0 .432.144.432.356 0 .356-.452.732-.872.732-.264 0-.432-.144-.432-.356 0-.356.452-.732.872-.732zm0 19.5c.264 0 .432.145.432.357 0 .356-.452.732-.872.732-.264 0-.432-.144-.432-.356 0-.356.452-.732.872-.732z"/>
    <rect width=".13" height="3.314" x="-.065" y="-1.314" fill="currentColor" ry=".04" transform="translate(95.319 11.874)"/>
    <rect width=".13" height="5.125" x="-.065" y="-.811" fill="currentColor" ry=".04" transform="translate(96.493 20.874)"/>
    <rect width=".13" height="3.124" x="-.065" y="-1.314" fill="currentColor" ry=".04" transform="translate(95.319 32.135)"/>
    <rect width=".13" height="3.124" x="-.065" y="-1.314" fill="currentColor" ry=".04" transform="translate(95.319 51.635)"/>
    <path fill="currentColor" d="M100.808 23.33c.264 0 .432.144.432.356 0 .356-.452.732-.872.732-.264 0-.432-.144-.432-.356 0-.356.452-.732.872-.732zm0 6.76c.264 0 .432.144.432.356 0 .356-.452.732-.872.732-.264 0-.432-.144-.432-.356 0-.356.452-.732.872-.732zm0 19.5c.264 0 .432.145.432.357 0 .356-.452.732-.872.732-.264 0-.432-.144-.432-.356 0-.356.452-.732.872-.732z"/>
    <rect width=".13" height="3.688" x="-.065" y="-.875" fill="currentColor" ry=".04" transform="translate(101.175 20.874)"/>
    <rect width=".13" height="3.124" x="-.065" y="-1.314" fill="currentColor" ry=".04" transform="translate(100 32.135)"/>
    <rect width=".13" height="3.124" x="-.065" y="-1.314" fill="currentColor" ry=".04" transform="translate(100 51.635)"/>
    <path fill="currentColor" d="M104.898 11.054c.316 0 .184.392.364.392.064 0 .216-.192.244-.252.024-.048.092-.048.112 0l-.492 1.68c-.032.028-.068.04-.108.04s-.08-.012-.112-.04l.468-1.304a1.272 1.272 0 0 1-.42.088c-.188 0-.348-.136-.348-.316a.29.29 0 0 1 .292-.288zm.592 11.276c.264 0 .432.144.432.356 0 .356-.452.732-.872.732-.264 0-.432-.144-.432-.356 0-.356.452-.732.872-.732zm0 7.76c.264 0 .432.144.432.356 0 .356-.452.732-.872.732-.264 0-.432-.144-.432-.356 0-.356.452-.732.872-.732zm0 19.5c.264 0 .432.145.432.357 0 .356-.452.732-.872.732-.264 0-.432-.144-.432-.356 0-.356.452-.732.872-.732z"/>
    <rect width=".13" height="2.752" x="-.065" y="-.938" fill="currentColor" ry=".04" transform="translate(105.857 20.874)"/>
    <rect width=".13" height="3.124" x="-.065" y="-1.314" fill="currentColor" ry=".04" transform="translate(104.683 32.135)"/>
    <rect width=".13" height="3.124" x="-.065" y="-1.314" fill="currentColor" ry=".04" transform="translate(104.683 51.635)"/>
    <path fill="currentColor" d="M53.137 42.259h-1.42c-.024 0-.04-.016-.04-.04v-.544c0-.024.016-.04.04-.04h1.42c.024 0 .04.016.04.04v.544c0 .024-.016.04-.04.04zM109.95 9.83c.264 0 .432.144.432.356 0 .356-.452.732-.872.732-.264 0-.432-.144-.432-.356 0-.356.452-.732.872-.732zm0 13.5c.264 0 .432.144.432.356 0 .356-.452.732-.872.732-.264 0-.432-.144-.432-.356 0-.356.452-.732.872-.732zm0 6.76c.264 0 .432.144.432.356 0 .356-.452.732-.872.732-.264 0-.432-.144-.432-.356 0-.356.452-.732.872-.732zm0 19.5c.264 0 .432.145.432.357 0 .356-.452.732-.872.732-.264 0-.432-.144-.432-.356 0-.356.452-.732.872-.732z"/>
    <rect width=".13" height="3.314" x="-.065" y="-1.314" fill="currentColor" ry=".04" transform="translate(109.143 11.874)"/>
    <path fill="currentColor" d="M109.208 13.834h-.064v-1h.064v1zm0 0v-1c.388-.236.896-.592.896-1.036 0-.228-.06-.448-.16-.652-.012-.064.04-.108.092-.108.028 0 .06.012.08.044.1.224.16.468.16.716 0 .812-1.068 1.224-1.068 2.036z"/>
    <rect width=".13" height="3.813" x="-.065" y="-.999" fill="currentColor" ry=".04" transform="translate(110.317 20.874)"/>
    <rect width=".13" height="3.124" x="-.065" y="-1.314" fill="currentColor" ry=".04" transform="translate(109.143 32.135)"/>
    <rect width=".13" height="3.124" x="-.065" y="-1.314" fill="currentColor" ry=".04" transform="translate(109.143 51.635)"/>
    <text fill="currentColor" font-family="serif" font-size="2.2" transform="translate(4.607 32.848)">
<tspan>Basso</tspan>
</text>
    <path fill="currentColor" d="M12.292 17.838c0-1.02-.528-1.452-.528-1.464 0-.072.528-.384.528-1.464 0-1.044-.432-1.956-.432-3.12 0-.756.18-1.464.708-2.004.06-.06.156.036.096.096-.396.396-.516.9-.516 1.44 0 1.02.408 1.92.408 3.06 0 .744-.18 1.452-.696 1.992.516.54.696 1.248.696 1.992 0 1.14-.408 2.04-.408 3.06 0 .54.12 1.044.516 1.44.06.06-.036.156-.096.096-.528-.54-.708-1.248-.708-2.004 0-1.164.432-2.076.432-3.12z"/>
    <text fill="currentColor" font-family="serif" font-size="2.2" transform="translate(2.934 21.62)">
<tspan>Violino II</tspan>
</text>
    <text fill="currentColor" font-family="serif" font-size="2.2" transform="translate(3.31 12.62)">
<tspan>Violino I</tspan>
</text>
</svg>
