<svg xmlns="http://www.w3.org/2000/svg" xmlns:xlink="http://www.w3.org/1999/xlink" width="680.315" height="60mm" version="1.2" viewBox="0 0 102.43 34.143">
    <defs>
        <path id="a" fill="currentColor" d="M218 136c66 0 108-36 108-89 0-89-113-183-218-183C42-136 0-100 0-47c0 89 113 183 218 183z"/>
        <path id="b" fill="currentColor" d="m27 41-1-66v-11c0-22 1-44 4-66 45 38 93 80 93 139 0 33-14 67-43 67-31 0-52-30-53-63zm-42-179-12 595c8 5 18 8 27 8s19-3 27-8l-7-345c25 21 58 34 91 34 52 0 89-48 89-102 0-80-86-117-147-169-15-13-24-38-45-38-13 0-23 11-23 25z"/>
        <path id="c" fill="currentColor" d="M250 262c116 0 176-106 176-163 0-40-30-72-67-72-31 0-75 25-75 75 0 38 27 77 72 77 4 0 9 0 14-1-28 37-72 59-120 59-106 0-113-73-113-186V-51c0-113 7-187 113-187 80 0 139 70 158 151 2 7 7 10 12 10 6 0 13-4 13-12 0-22-50-174-183-174C191-263 0-244 0 0c0 62 18 262 250 262z"/>
        <path id="d" fill="currentColor" d="M0 0c0 31 25 56 56 56s56-25 56-56-25-56-56-56S0-31 0 0z"/>
        <path id="e" fill="currentColor" stroke="currentColor" stroke-linecap="round" stroke-linejoin="round" stroke-width=".08" d="M.522-1.545c.57-1.016 2.134-1.508 3.182-1h0c-1.012-.393-2.577.099-3.182 1z"/>
    </defs>
    <text fill="currentColor" font-family="serif" font-size="2.47" font-weight="bold" transform="translate(5.69 5.514)">
<tspan style="white-space:pre">Allegro</tspan>
</text>
    <path stroke="currentColor" stroke-linecap="round" stroke-linejoin="round" stroke-width=".1" d="M5.74 13.007h90.95m-90.95-1h90.95m-90.95-1h90.95m-90.95-1h90.95m-90.95-1h90.95"/>
    <rect width=".19" height="4.95" y="6.51" fill="currentColor" ry="0" transform="translate(96.55 6.547)"/>
    <path stroke="currentColor" stroke-linecap="round" stroke-linejoin="round" stroke-width=".1" d="M5.74 22.007h90.95m-90.95-1h90.95m-90.95-1h90.95m-90.95-1h90.95m-90.95-1h90.95"/>
    <rect width=".19" height="4.05" y="-2.05" fill="currentColor" ry="0" transform="translate(96.55 20.007)"/>
    <rect width=".19" height="4.05" y="-2" fill="currentColor" ry="0" transform="translate(96.55 11.007)"/>
    <rect width=".19" height="4.95" y="6.51" fill="currentColor" ry="0" transform="translate(71.296 6.547)"/>
    <rect width=".19" height="4.05" y="-2.05" fill="currentColor" ry="0" transform="translate(71.296 20.007)"/>
    <rect width=".19" height="4.05" y="-2" fill="currentColor" ry="0" transform="translate(71.296 11.007)"/>
    <rect width=".19" height="4.95" y="6.51" fill="currentColor" ry="0" transform="translate(42.853 6.547)"/>
    <rect width=".19" height="4.05" y="-2.05" fill="currentColor" ry="0" transform="translate(42.853 20.007)"/>
    <rect width=".19" height="4.05" y="-2" fill="currentColor" ry="0" transform="translate(42.853 11.007)"/>
    <use xlink:href="#a" transform="matrix(.004 0 0 -.004 17.6 13.007)"/>
    <path fill="currentColor" d="M18.163 15.192c.312 0 .388-.704.388-.712 0-.072-.028-.132-.1-.132-.244 0-.408.496-.408.692 0 .088.032.152.12.152zm-.856-.436c0-.008.204-.604.536-.604.14 0 .236.084.264.208.116-.124.268-.208.412-.208.276 0 .428.196.428.456 0 .472-.42.744-.636.744-.212 0-.28-.08-.336-.08-.028 0-.056.012-.064.036l-.116.344c-.004.008-.004.02-.004.028 0 .148.228.072.228.168 0 .028-.016.056-.052.056-.012 0-.2-.02-.464-.02s-.448.02-.46.02a.055.055 0 0 1-.056-.056c0-.124.348.004.408-.164l.408-1.2a.315.315 0 0 0 .016-.08c0-.032-.008-.056-.044-.056-.132 0-.252.24-.316.388a.104.104 0 0 1-.096.068c-.032 0-.056-.016-.056-.048zm-9.752-.209H7.53a.783.783 0 0 1-.78-.788c0-.232.212-.412.448-.412.216 0 .38.188.38.412 0 .208-.172.38-.38.38a.326.326 0 0 1-.124-.024c.104.156.272.26.468.26h.016zm.78-1.728a.69.69 0 0 0 .452-.656.764.764 0 0 0-.692-.76c.076.356.192.968.24 1.416zm-1.548-.924c0 .58.564.988 1.056.988.004 0 .188 0 .328-.024a17.343 17.343 0 0 0-.252-1.456c-.316.032-.496.244-.496.476 0 .176.1.364.324.492.02.02.028.04.028.06 0 .044-.04.088-.088.088-.06 0-.504-.248-.504-.748 0-.352.232-.696.64-.788a15.048 15.048 0 0 0-.184-.7c-.428.484-.852.972-.852 1.612zm.704-2.1c-.116-.384-.208-.68-.208-1.384 0-.46.22-.896.596-1.168a.06.06 0 0 1 .08 0c.272.32.532.98.532 1.432 0 .572-.344 1.02-.72 1.456.084.272.156.552.224.828.008 0 .028-.004.052-.004.62 0 1.024.512 1.024 1.044 0 .452-.296.848-.72.984.012.14.02.28.02.42 0 .076-.004.156-.008.232-.028.476-.352.9-.808.912l.004-.172c.372-.008.612-.368.636-.764a3.775 3.775 0 0 0-.008-.588c-.02.004-.176.032-.356.032-.772 0-1.332-.72-1.332-1.496 0-.708.524-1.224.992-1.764zm.712-1.452c0-.136.004-.264-.08-.516a1.153 1.153 0 0 0-.648 1.036c0 .208.048.46.144.776.32-.388.584-.792.584-1.296z"/>
    <use xlink:href="#b" transform="matrix(.004 0 0 -.004 10.11 11.007)"/>
    <use xlink:href="#b" transform="matrix(.004 0 0 -.004 11.03 9.507)"/>
    <use xlink:href="#b" transform="matrix(.004 0 0 -.004 11.95 11.507)"/>
    <use xlink:href="#c" transform="matrix(.004 0 0 -.004 13.9 11.007)"/>
    <use xlink:href="#a" transform="matrix(.004 0 0 -.004 17.6 19.507)"/>
    <path fill="currentColor" d="M8.719 19.507c0-.112.092-.204.204-.204s.204.092.204.204-.092.204-.204.204-.204-.092-.204-.204zm0-1c0-.112.092-.204.204-.204s.204.092.204.204-.092.204-.204.204-.204-.092-.204-.204zm-1.3-.552c.688 0 1.172.352 1.172 1.004 0 1.052-1.052 1.656-2.064 2.084a.049.049 0 0 1-.036.016.053.053 0 0 1-.052-.052c0-.012.004-.024.016-.036.808-.472 1.648-1.06 1.648-1.972 0-.48-.252-.94-.684-.94-.296 0-.516.216-.616.504a.323.323 0 0 1 .136-.032c.22 0 .4.18.4.4 0 .232-.176.424-.4.424-.24 0-.448-.188-.448-.424 0-.532.408-.976.928-.976z"/>
    <use xlink:href="#b" transform="matrix(.004 0 0 -.004 10.11 21.007)"/>
    <use xlink:href="#b" transform="matrix(.004 0 0 -.004 11.03 19.507)"/>
    <use xlink:href="#b" transform="matrix(.004 0 0 -.004 11.95 21.507)"/>
    <use xlink:href="#c" transform="matrix(.004 0 0 -.004 13.9 20.007)"/>
    <rect width=".13" height="3.314" x="-.065" y="-1.5" fill="currentColor" ry=".04" transform="translate(18.84 11.007)"/>
    <rect width=".13" height="2.504" x="-.065" y="-.314" fill="currentColor" ry=".04" transform="translate(17.666 20.007)"/>
    <path fill="currentColor" stroke="currentColor" stroke-linecap="round" stroke-linejoin="round" stroke-width=".08" d="M93.943 21.997v.4h-9.798v-.4z"/>
    <use xlink:href="#a" transform="matrix(.004 0 0 -.004 20.783 18.507)"/>
    <rect width=".13" height="3.504" x="-.065" y="-1.314" fill="currentColor" ry=".04" transform="translate(20.848 20.007)"/>
    <path fill="currentColor" stroke="currentColor" stroke-linecap="round" stroke-linejoin="round" stroke-width=".08" d="M91.446 11.899v.4l-1.085.098v-.4zm1.084.718v.4l-2.17.19v-.4z"/>
    <use xlink:href="#a" transform="matrix(.004 0 0 -.004 23.466 13.007)"/>
    <use xlink:href="#a" transform="matrix(.004 0 0 -.004 23.466 19.507)"/>
    <rect width=".13" height="3.314" x="-.065" y="-1.5" fill="currentColor" ry=".04" transform="translate(24.705 11.007)"/>
    <rect width=".13" height="2.504" x="-.065" y="-.314" fill="currentColor" ry=".04" transform="translate(23.53 20.007)"/>
    <path fill="currentColor" stroke="currentColor" stroke-linecap="round" stroke-linejoin="round" stroke-width=".08" d="M85.23 13.337v.4l-1.085.16v-.4zm1.084.66v.4l-2.169.31v-.4z"/>
    <use xlink:href="#a" transform="matrix(.004 0 0 -.004 26.649 18.507)"/>
    <rect width=".13" height="3.504" x="-.065" y="-1.314" fill="currentColor" ry=".04" transform="translate(26.714 20.007)"/>
    <path fill="currentColor" stroke="currentColor" stroke-linecap="round" stroke-linejoin="round" stroke-width=".08" d="M90.902 8.812a1.566 1.566 0 0 1 2.118-.35h0c-.655-.346-1.609-.188-2.118.35z"/>
    <use xlink:href="#a" transform="matrix(.004 0 0 -.004 29.331 13.007)"/>
    <path fill="currentColor" d="M28.795 7.8c0 .06.032.12.156.12.04 0 .184-.009.412-.113l.02-.096a.542.542 0 0 0-.324-.116c-.204 0-.264.124-.264.204zm1.084.491c0 .244-.188.46-.392.46-.156 0-.224-.176-.224-.364 0-.056.004-.112.016-.164l.06-.304c-.08.032-.252.1-.404.1-.076 0-.24-.024-.24-.204 0-.152.128-.32.384-.32a.61.61 0 0 1 .328.1l.184-.928c.024.012.052.02.08.02.088 0 .192-.064.272-.14l-.212 1.064.256-.144a.622.622 0 0 1 .296-.08c.116 0 .212.04.256.112a.373.373 0 0 1 .276-.12c.144 0 .276.088.276.276 0 .196-.124.36-.26.36-.1 0-.152-.088-.152-.192 0-.2.148-.256.24-.256h.012c-.032-.056-.092-.08-.152-.08-.096 0-.2.064-.22.172l-.216 1.08c-.044-.028-.096-.044-.152-.044s-.116.016-.172.044l.216-1.08v-.028c0-.064-.048-.104-.116-.104a.236.236 0 0 0-.096.028l-.316.176-.028.124c.108.124.2.268.2.436zm-.24.26c.092 0 .14-.136.14-.244 0-.12-.056-.22-.128-.312l-.02.108c-.016.072-.052.224-.052.332 0 .068.016.116.06.116z"/>
    <use xlink:href="#a" transform="matrix(.004 0 0 -.004 29.331 19.507)"/>
    <use xlink:href="#d" transform="matrix(.004 0 0 -.004 31.085 12.507)"/>
    <rect width=".13" height="3.314" x="-.065" y="-1.5" fill="currentColor" ry=".04" transform="translate(30.57 11.007)"/>
    <rect width=".13" height="2.504" x="-.065" y="-.314" fill="currentColor" ry=".04" transform="translate(29.396 20.007)"/>
    <path fill="currentColor" stroke="currentColor" stroke-linecap="round" stroke-linejoin="round" stroke-width=".08" d="M81.513 21.997v.4h-9.098v-.4z"/>
    <use xlink:href="#a" transform="matrix(.004 0 0 -.004 32.514 18.507)"/>
    <rect width=".13" height="3.504" x="-.065" y="-1.314" fill="currentColor" ry=".04" transform="translate(32.579 20.007)"/>
    <path fill="currentColor" stroke="currentColor" stroke-linecap="round" stroke-linejoin="round" stroke-width=".08" d="M84.687 9.816a1.59 1.59 0 0 1 2.118-.35h0c-.655-.334-1.609-.177-2.118.35z"/>
    <use xlink:href="#a" transform="matrix(.004 0 0 -.004 35.197 19.507)"/>
    <rect width=".13" height="2.504" x="-.065" y="-.314" fill="currentColor" ry=".04" transform="translate(35.262 20.007)"/>
    <path fill="currentColor" stroke="currentColor" stroke-linecap="round" stroke-linejoin="round" stroke-width=".08" d="M67.055 21.997v.4H56.903v-.4z"/>
    <use xlink:href="#a" transform="matrix(.004 0 0 -.004 38.38 13.507)"/>
    <use xlink:href="#a" transform="matrix(.004 0 0 -.004 38.38 18.507)"/>
    <rect width=".13" height="3.129" x="-.065" y="-.816" fill="currentColor" ry=".04" transform="translate(39.619 11.007)"/>
    <rect width=".13" height="3.504" x="-.065" y="-1.314" fill="currentColor" ry=".04" transform="translate(38.444 20.007)"/>
    <path fill="currentColor" stroke="currentColor" stroke-linecap="round" stroke-linejoin="round" stroke-width=".08" d="M70.347 6.997v.4l-6.405.81v-.4zm0 .81v.4l-6.405.81v-.4z"/>
    <use xlink:href="#a" transform="matrix(.004 0 0 -.004 40.498 13.007)"/>
    <rect width=".13" height="2.808" x="-.065" y="-.995" fill="currentColor" ry=".04" transform="translate(41.737 11.007)"/>
    <path fill="currentColor" stroke="currentColor" stroke-linecap="round" stroke-linejoin="round" stroke-width=".08" d="M54.27 21.997v.4H43.972v-.4zm-.24-13v.4l-2.419.81v-.4zm-1.333 1.243v.4l-1.086.377v-.4z"/>
    <use xlink:href="#a" transform="matrix(.004 0 0 -.004 43.932 12.507)"/>
    <path fill="currentColor" stroke="currentColor" stroke-linecap="round" stroke-linejoin="round" stroke-width=".08" d="M47.564 7.997v.4l-2.418.81v-.4zM46.231 9.24v.4l-1.085.377v-.4z"/>
    <use xlink:href="#a" transform="matrix(.004 0 0 -.004 43.932 19.507)"/>
    <path fill="currentColor" stroke="currentColor" stroke-linecap="round" stroke-linejoin="round" stroke-width=".08" d="M38.47 21.997v.4h-9.1v-.4z"/>
    <rect width=".13" height="3.335" x="-.065" y="-2.021" fill="currentColor" ry=".04" transform="translate(45.171 11.007)"/>
    <rect width=".13" height="2.504" x="-.065" y="-.314" fill="currentColor" ry=".04" transform="translate(43.997 20.007)"/>
    <path fill="currentColor" stroke="currentColor" stroke-linecap="round" stroke-linejoin="round" stroke-width=".08" d="M41.762 9.807v.4l-2.168.19v-.4zm0 .81v.4l-2.168.19v-.4z"/>
    <use xlink:href="#a" transform="matrix(.004 0 0 -.004 46.3 11.507)"/>
    <use xlink:href="#d" transform="matrix(.004 0 0 -.004 48.055 11.507)"/>
    <rect width=".13" height="3.103" x="-.065" y="-2.789" fill="currentColor" ry=".04" transform="translate(47.54 11.007)"/>
    <use xlink:href="#e" stroke-linecap="round" stroke-linejoin="round" stroke-width=".08" transform="translate(35.197 20.007)"/>
    <use xlink:href="#a" transform="matrix(.004 0 0 -.004 47.715 18.007)"/>
    <rect width=".13" height="4.004" x="-.065" y="-1.814" fill="currentColor" ry=".04" transform="translate(47.78 20.007)"/>
    <path fill="currentColor" stroke="currentColor" stroke-linecap="round" stroke-linejoin="round" stroke-width=".08" d="M26.739 21.997v.4H17.64v-.4z"/>
    <use xlink:href="#a" transform="matrix(.004 0 0 -.004 50.397 13.507)"/>
    <use xlink:href="#a" transform="matrix(.004 0 0 -.004 50.397 19.507)"/>
    <rect width=".13" height="3.335" x="-.065" y="-1.021" fill="currentColor" ry=".04" transform="translate(51.636 11.007)"/>
    <rect width=".13" height="2.504" x="-.065" y="-.314" fill="currentColor" ry=".04" transform="translate(50.462 20.007)"/>
    <use xlink:href="#e" stroke-linecap="round" stroke-linejoin="round" stroke-width=".08" transform="translate(29.331 20.007)"/>
    <use xlink:href="#a" transform="matrix(.004 0 0 -.004 52.766 12.507)"/>
    <use xlink:href="#d" transform="matrix(.004 0 0 -.004 54.52 12.507)"/>
    <rect width=".13" height="3.103" x="-.065" y="-1.789" fill="currentColor" ry=".04" transform="translate(54.005 11.007)"/>
    <use xlink:href="#e" stroke-linecap="round" stroke-linejoin="round" stroke-width=".08" transform="translate(23.466 20.007)"/>
    <use xlink:href="#a" transform="matrix(.004 0 0 -.004 54.18 18.007)"/>
    <rect width=".13" height="4.004" x="-.065" y="-1.814" fill="currentColor" ry=".04" transform="translate(54.245 20.007)"/>
    <use xlink:href="#a" transform="matrix(.004 0 0 -.004 56.863 13.007)"/>
    <use xlink:href="#a" transform="matrix(.004 0 0 -.004 56.863 19.507)"/>
    <rect width=".13" height="3.314" x="-.065" y="-1.5" fill="currentColor" ry=".04" transform="translate(58.102 11.007)"/>
    <rect width=".13" height="2.504" x="-.065" y="-.314" fill="currentColor" ry=".04" transform="translate(56.928 20.007)"/>
    <use xlink:href="#e" stroke-linecap="round" stroke-linejoin="round" stroke-width=".08" transform="translate(17.6 20.007)"/>
    <use xlink:href="#a" transform="matrix(.004 0 0 -.004 60.045 18.507)"/>
    <rect width=".13" height="3.504" x="-.065" y="-1.314" fill="currentColor" ry=".04" transform="translate(60.11 20.007)"/>
    <use xlink:href="#a" transform="matrix(.004 0 0 -.004 62.728 12.007)"/>
    <use xlink:href="#a" transform="matrix(.004 0 0 -.004 62.728 19.507)"/>
    <rect width=".13" height="3.822" x="-.065" y="-3.008" fill="currentColor" ry=".04" transform="translate(63.967 11.007)"/>
    <rect width=".13" height="2.504" x="-.065" y="-.314" fill="currentColor" ry=".04" transform="translate(62.793 20.007)"/>
    <use xlink:href="#a" transform="matrix(.004 0 0 -.004 64.847 11.507)"/>
    <rect width=".13" height="3.587" x="-.065" y="-3.273" fill="currentColor" ry=".04" transform="translate(66.086 11.007)"/>
    <use xlink:href="#a" transform="matrix(.004 0 0 -.004 66.965 11.007)"/>
    <use xlink:href="#a" transform="matrix(.004 0 0 -.004 66.965 18.507)"/>
    <rect width=".13" height="3.351" x="-.065" y="-3.537" fill="currentColor" ry=".04" transform="translate(68.204 11.007)"/>
    <rect width=".13" height="3.504" x="-.065" y="-1.314" fill="currentColor" ry=".04" transform="translate(67.03 20.007)"/>
    <use xlink:href="#a" transform="matrix(.004 0 0 -.004 69.083 10.507)"/>
    <rect width=".13" height="3.116" x="-.065" y="-3.802" fill="currentColor" ry=".04" transform="translate(70.323 11.007)"/>
    <use xlink:href="#a" transform="matrix(.004 0 0 -.004 72.375 11.007)"/>
    <use xlink:href="#a" transform="matrix(.004 0 0 -.004 72.375 19.507)"/>
    <rect width=".16" height="13.1" y="-6.55" fill="currentColor" ry=".05" transform="translate(5.63 15.507)"/>
    <rect width=".13" height="3.147" x="-.065" y=".186" fill="currentColor" ry=".04" transform="translate(72.44 11.007)"/>
    <rect width=".13" height="2.504" x="-.065" y="-.314" fill="currentColor" ry=".04" transform="translate(72.44 20.007)"/>
    <path fill="currentColor" d="M5.007 16.971c0-1.02-.528-1.452-.528-1.464 0-.072.528-.384.528-1.464 0-1.044-.432-1.956-.432-3.12 0-.756.18-1.464.708-2.004.06-.06.156.036.096.096-.396.396-.516.9-.516 1.44 0 1.02.408 1.92.408 3.06 0 .744-.18 1.452-.696 1.992.516.54.696 1.248.696 1.992 0 1.14-.408 2.04-.408 3.06 0 .54.12 1.044.516 1.44.06.06-.036.156-.096.096-.528-.54-.708-1.248-.708-2.004 0-1.164.432-2.076.432-3.12z"/>
    <use xlink:href="#a" transform="matrix(.004 0 0 -.004 75.557 18.507)"/>
    <rect width=".13" height="3.504" x="-.065" y="-1.314" fill="currentColor" ry=".04" transform="translate(75.622 20.007)"/>
    <use xlink:href="#a" transform="matrix(.004 0 0 -.004 78.24 11.007)"/>
    <use xlink:href="#a" transform="matrix(.004 0 0 -.004 78.24 19.507)"/>
    <rect width=".13" height="3.147" x="-.065" y=".186" fill="currentColor" ry=".04" transform="translate(78.305 11.007)"/>
    <rect width=".13" height="2.504" x="-.065" y="-.314" fill="currentColor" ry=".04" transform="translate(78.305 20.007)"/>
    <use xlink:href="#a" transform="matrix(.004 0 0 -.004 81.423 18.507)"/>
    <rect width=".13" height="3.504" x="-.065" y="-1.314" fill="currentColor" ry=".04" transform="translate(81.488 20.007)"/>
    <use xlink:href="#a" transform="matrix(.004 0 0 -.004 84.105 11.007)"/>
    <use xlink:href="#a" transform="matrix(.004 0 0 -.004 84.105 19.507)"/>
    <rect width=".13" height="3.305" x="-.065" y=".186" fill="currentColor" ry=".04" transform="translate(84.17 11.007)"/>
    <rect width=".13" height="2.504" x="-.065" y="-.314" fill="currentColor" ry=".04" transform="translate(84.17 20.007)"/>
    <use xlink:href="#a" transform="matrix(.004 0 0 -.004 86.224 10.507)"/>
    <use xlink:href="#d" transform="matrix(.004 0 0 -.004 87.978 10.507)"/>
    <rect width=".13" height="3.513" x="-.065" y="-.314" fill="currentColor" ry=".04" transform="translate(86.289 11.007)"/>
    <use xlink:href="#a" transform="matrix(.004 0 0 -.004 87.638 18.507)"/>
    <rect width=".13" height="3.504" x="-.065" y="-1.314" fill="currentColor" ry=".04" transform="translate(87.703 20.007)"/>
    <use xlink:href="#a" transform="matrix(.004 0 0 -.004 90.32 10.007)"/>
    <use xlink:href="#a" transform="matrix(.004 0 0 -.004 90.32 19.507)"/>
    <rect width=".13" height="2.808" x="-.065" y="-.814" fill="currentColor" ry=".04" transform="translate(90.386 11.007)"/>
    <rect width=".13" height="2.504" x="-.065" y="-.314" fill="currentColor" ry=".04" transform="translate(90.386 20.007)"/>
    <use xlink:href="#a" transform="matrix(.004 0 0 -.004 92.44 9.507)"/>
    <use xlink:href="#d" transform="matrix(.004 0 0 -.004 94.193 9.507)"/>
    <rect width=".13" height="3.129" x="-.065" y="-1.314" fill="currentColor" ry=".04" transform="translate(92.504 11.007)"/>
    <use xlink:href="#a" transform="matrix(.004 0 0 -.004 93.853 18.507)"/>
    <rect width=".13" height="3.504" x="-.065" y="-1.314" fill="currentColor" ry=".04" transform="translate(93.918 20.007)"/>
</svg>
