<svg xmlns="http://www.w3.org/2000/svg" xmlns:xlink="http://www.w3.org/1999/xlink" width="680.315" height="60mm" version="1.2" viewBox="0 0 102.43 34.143">
    <defs>
        <path id="a" fill="currentColor" d="M125 205c79 0 45-98 90-98 15 0 50 49 57 63 6 12 23 12 28 0L121-500c-8-7-17-10-27-10s-20 3-28 10l101 327c-34-12-70-23-106-23-47 0-87 34-87 79 0 40 32 72 72 72 79 0 46-98 91-98 16 0 55 51 60 68l46 151c-34-12-68-22-104-22-47 0-87 34-87 79 0 40 33 72 73 72z"/>
        <path id="b" fill="currentColor" d="M0 119c0 8 5 15 13 18l46 17v158c0 10 8 19 18 19s19-9 19-19V167l83 31v158c0 10 9 19 19 19s18-9 18-19V211l32 12c2 1 5 1 7 1 11 0 20-9 20-20v-60c0-8-5-16-13-19l-46-16V-51l32 11c2 1 5 1 7 1 11 0 20-9 20-20v-60c0-8-5-15-13-18l-46-17v-158c0-10-8-19-18-19s-19 9-19 19v145l-83-31v-158c0-10-9-19-19-19s-18 9-18 19v145l-32-12c-2-1-5-1-7-1-11 0-20 9-20 20v60c0 8 5 16 13 19l46 16V51L27 40c-2-1-5-1-7-1C9 39 0 48 0 59v60zm179-24L96 65V-95l83 30V95z"/>
        <path id="c" fill="currentColor" d="M250 262c116 0 176-106 176-163 0-40-30-72-67-72-31 0-75 25-75 75 0 38 27 77 72 77 4 0 9 0 14-1-28 37-72 59-120 59-106 0-113-73-113-186V-51c0-113 7-187 113-187 80 0 139 70 158 151 2 7 7 10 12 10 6 0 13-4 13-12 0-22-50-174-183-174C191-263 0-244 0 0c0 62 18 262 250 262z"/>
        <path id="d" fill="currentColor" d="M218 136c66 0 108-36 108-89 0-89-113-183-218-183C42-136 0-100 0-47c0 89 113 183 218 183z"/>
    </defs>
    <text fill="currentColor" font-family="serif" font-size="2.47" font-weight="bold" transform="translate(5.69 5.519)">
<tspan style="white-space:pre">Allegro assai</tspan>
</text>
    <rect width="1.956" height=".2" x="87.869" y="-.1" fill="currentColor" ry=".1" transform="translate(5.69 13.552)"/>
    <rect width="1.956" height=".2" x="39.151" y="-.1" fill="currentColor" ry=".1" transform="translate(5.69 13.552)"/>
    <rect width="1.956" height=".2" x="29.704" y="-.1" fill="currentColor" ry=".1" transform="translate(5.69 13.552)"/>
    <rect width="1.956" height=".2" x="24.98" y="-.1" fill="currentColor" ry=".1" transform="translate(5.69 13.552)"/>
    <rect width="1.956" height=".2" x="24.98" y="-.1" fill="currentColor" ry=".1" transform="translate(5.69 14.552)"/>
    <rect width="1.956" height=".2" x="20.257" y="-.1" fill="currentColor" ry=".1" transform="translate(5.69 13.552)"/>
    <path stroke="currentColor" stroke-linecap="round" stroke-linejoin="round" stroke-width=".1" d="M5.74 12.552h90.95m-90.95-1h90.95m-90.95-1h90.95m-90.95-1h90.95m-90.95-1h90.95"/>
    <rect width=".19" height="4.95" y="6.05" fill="currentColor" ry="0" transform="translate(96.55 6.552)"/>
    <path stroke="currentColor" stroke-linecap="round" stroke-linejoin="round" stroke-width=".1" d="M5.74 21.552h90.95m-90.95-1h90.95m-90.95-1h90.95m-90.95-1h90.95m-90.95-1h90.95"/>
    <rect width=".19" height="4.05" y="-2.05" fill="currentColor" ry="0" transform="translate(96.55 19.552)"/>
    <rect width=".19" height="4.05" y="-2" fill="currentColor" ry="0" transform="translate(96.55 10.552)"/>
    <rect width=".19" height="4.95" y="6.05" fill="currentColor" ry="0" transform="translate(57.265 6.552)"/>
    <rect width=".19" height="4.05" y="-2.05" fill="currentColor" ry="0" transform="translate(57.265 19.552)"/>
    <rect width=".19" height="4.05" y="-2" fill="currentColor" ry="0" transform="translate(57.265 10.552)"/>
    <path fill="currentColor" stroke="currentColor" stroke-linecap="round" stroke-linejoin="round" stroke-width=".08" d="M95.15 9.352v.4l-14.22-1.81v-.4zm0 .81v.4l-14.22-1.81v-.4z"/>
    <use xlink:href="#a" transform="matrix(.004 0 0 -.004 19.24 10.552)"/>
    <path fill="currentColor" d="M7.555 14.092H7.53a.783.783 0 0 1-.78-.788c0-.232.212-.412.448-.412.216 0 .38.188.38.412 0 .208-.172.38-.38.38a.326.326 0 0 1-.124-.024c.104.156.272.26.468.26h.016zm.78-1.728a.69.69 0 0 0 .452-.656.764.764 0 0 0-.692-.76c.076.356.192.968.24 1.416zm-1.548-.924c0 .58.564.988 1.056.988.004 0 .188 0 .328-.024a17.343 17.343 0 0 0-.252-1.456c-.316.032-.496.244-.496.476 0 .176.1.364.324.492.02.02.028.04.028.06 0 .044-.04.088-.088.088-.06 0-.504-.248-.504-.748 0-.352.232-.696.64-.788a15.048 15.048 0 0 0-.184-.7c-.428.484-.852.972-.852 1.612zm.704-2.1c-.116-.384-.208-.68-.208-1.384 0-.46.22-.896.596-1.168a.06.06 0 0 1 .08 0c.272.32.532.98.532 1.432 0 .572-.344 1.02-.72 1.456.084.272.156.552.224.828.008 0 .028-.004.052-.004.62 0 1.024.512 1.024 1.044 0 .452-.296.848-.72.984.012.14.02.28.02.42 0 .076-.004.156-.008.232-.028.476-.352.9-.808.912l.004-.172c.372-.008.612-.368.636-.764a3.775 3.775 0 0 0-.008-.588c-.02.004-.176.032-.356.032-.772 0-1.332-.72-1.332-1.496 0-.708.524-1.224.992-1.764zm.712-1.452c0-.136.004-.264-.08-.516a1.153 1.153 0 0 0-.648 1.036c0 .208.048.46.144.776.32-.388.584-.792.584-1.296z"/>
    <use xlink:href="#b" transform="matrix(.004 0 0 -.004 9.99 8.552)"/>
    <use xlink:href="#b" transform="matrix(.004 0 0 -.004 11.09 10.052)"/>
    <use xlink:href="#b" transform="matrix(.004 0 0 -.004 12.19 8.052)"/>
    <use xlink:href="#b" transform="matrix(.004 0 0 -.004 13.29 9.552)"/>
    <use xlink:href="#c" transform="matrix(.004 0 0 -.004 15.54 10.552)"/>
    <use xlink:href="#d" transform="matrix(.004 0 0 -.004 19.24 19.052)"/>
    <path fill="currentColor" d="M8.719 19.052c0-.112.092-.204.204-.204s.204.092.204.204-.092.204-.204.204-.204-.092-.204-.204zm0-1c0-.112.092-.204.204-.204s.204.092.204.204-.092.204-.204.204-.204-.092-.204-.204zm-1.3-.552c.688 0 1.172.352 1.172 1.004 0 1.052-1.052 1.656-2.064 2.084a.049.049 0 0 1-.036.016.053.053 0 0 1-.052-.052c0-.012.004-.024.016-.036.808-.472 1.648-1.06 1.648-1.972 0-.48-.252-.94-.684-.94-.296 0-.516.216-.616.504a.323.323 0 0 1 .136-.032c.22 0 .4.18.4.4 0 .232-.176.424-.4.424-.24 0-.448-.188-.448-.424 0-.532.408-.976.928-.976z"/>
    <use xlink:href="#b" transform="matrix(.004 0 0 -.004 9.99 18.552)"/>
    <use xlink:href="#b" transform="matrix(.004 0 0 -.004 11.09 20.052)"/>
    <use xlink:href="#b" transform="matrix(.004 0 0 -.004 12.19 18.052)"/>
    <use xlink:href="#b" transform="matrix(.004 0 0 -.004 13.29 19.552)"/>
    <use xlink:href="#c" transform="matrix(.004 0 0 -.004 15.54 19.552)"/>
    <rect width=".13" height="2.119" x="-.065" y="-2.805" fill="currentColor" ry=".04" transform="translate(20.48 19.552)"/>
    <path fill="currentColor" stroke="currentColor" stroke-linecap="round" stroke-linejoin="round" stroke-width=".08" d="M72.772 21.162v.4l-14.22.38v-.4z"/>
    <use xlink:href="#d" transform="matrix(.004 0 0 -.004 21.55 12.552)"/>
    <rect width=".13" height="2.62" x="-.065" y="-.806" fill="currentColor" ry=".04" transform="translate(22.79 10.552)"/>
    <path fill="currentColor" stroke="currentColor" stroke-linecap="round" stroke-linejoin="round" stroke-width=".08" d="M76.256 7.542v.4l-14.22.81v-.4zm0 .81v.4l-14.22.81v-.4z"/>
    <use xlink:href="#a" transform="matrix(.004 0 0 -.004 23.964 12.552)"/>
    <use xlink:href="#d" transform="matrix(.004 0 0 -.004 23.964 20.552)"/>
    <rect width=".13" height="3.289" x="-.065" y="-2.475" fill="currentColor" ry=".04" transform="translate(25.203 19.552)"/>
    <path fill="currentColor" stroke="currentColor" stroke-linecap="round" stroke-linejoin="round" stroke-width=".08" d="M52.395 22.542v.4l-14.22.31v-.4z"/>
    <use xlink:href="#d" transform="matrix(.004 0 0 -.004 26.274 14.052)"/>
    <rect width=".13" height="3.853" x="-.065" y="-.539" fill="currentColor" ry=".04" transform="translate(27.513 10.552)"/>
    <path fill="currentColor" stroke="currentColor" stroke-linecap="round" stroke-linejoin="round" stroke-width=".08" d="M55.879 8.852v.4l-14.22.5v-.4zm0 .81v.4l-14.22.5v-.4z"/>
    <use xlink:href="#a" transform="matrix(.004 0 0 -.004 28.688 12.552)"/>
    <use xlink:href="#d" transform="matrix(.004 0 0 -.004 28.688 21.552)"/>
    <rect width=".13" height="3.959" x="-.065" y="-2.145" fill="currentColor" ry=".04" transform="translate(29.927 19.552)"/>
    <path fill="currentColor" stroke="currentColor" stroke-linecap="round" stroke-linejoin="round" stroke-width=".08" d="M34.675 17.542v.4l-14.22-1v-.4z"/>
    <use xlink:href="#d" transform="matrix(.004 0 0 -.004 30.997 15.052)"/>
    <rect width=".13" height="4.585" x="-.065" y="-.271" fill="currentColor" ry=".04" transform="translate(32.236 10.552)"/>
    <path fill="currentColor" stroke="currentColor" stroke-linecap="round" stroke-linejoin="round" stroke-width=".08" d="M36.985 10.352v.4l-14.22-.81v-.4zm0 .81v.4l-14.22-.81v-.4z"/>
    <use xlink:href="#a" transform="matrix(.004 0 0 -.004 33.41 12.552)"/>
    <use xlink:href="#d" transform="matrix(.004 0 0 -.004 33.41 20.552)"/>
    <rect width=".13" height="2.628" x="-.065" y="-1.815" fill="currentColor" ry=".04" transform="translate(34.65 19.552)"/>
    <use xlink:href="#d" transform="matrix(.004 0 0 -.004 35.72 14.052)"/>
    <rect width=".13" height="3.318" x="-.065" y="-.004" fill="currentColor" ry=".04" transform="translate(36.96 10.552)"/>
    <use xlink:href="#a" transform="matrix(.004 0 0 -.004 38.134 10.552)"/>
    <use xlink:href="#d" transform="matrix(.004 0 0 -.004 38.134 19.052)"/>
    <rect width=".13" height="3.813" x="-.065" y="-.314" fill="currentColor" ry=".04" transform="translate(38.2 19.552)"/>
    <use xlink:href="#d" transform="matrix(.004 0 0 -.004 40.444 12.552)"/>
    <rect width=".13" height="2.816" x="-.065" y="-1.002" fill="currentColor" ry=".04" transform="translate(41.683 10.552)"/>
    <use xlink:href="#a" transform="matrix(.004 0 0 -.004 42.858 12.552)"/>
    <use xlink:href="#d" transform="matrix(.004 0 0 -.004 42.858 20.552)"/>
    <rect width=".13" height="2.21" x="-.065" y="1.186" fill="currentColor" ry=".04" transform="translate(42.923 19.552)"/>
    <use xlink:href="#d" transform="matrix(.004 0 0 -.004 45.167 14.052)"/>
    <rect width=".13" height="4.481" x="-.065" y="-1.167" fill="currentColor" ry=".04" transform="translate(46.407 10.552)"/>
    <use xlink:href="#a" transform="matrix(.004 0 0 -.004 47.581 11.552)"/>
    <use xlink:href="#d" transform="matrix(.004 0 0 -.004 47.581 19.052)"/>
    <rect width=".13" height="3.608" x="-.065" y="-.314" fill="currentColor" ry=".04" transform="translate(47.646 19.552)"/>
    <use xlink:href="#d" transform="matrix(.004 0 0 -.004 49.89 12.552)"/>
    <rect width=".13" height="3.147" x="-.065" y="-1.333" fill="currentColor" ry=".04" transform="translate(51.13 10.552)"/>
    <use xlink:href="#a" transform="matrix(.004 0 0 -.004 52.305 11.552)"/>
    <use xlink:href="#d" transform="matrix(.004 0 0 -.004 52.305 18.552)"/>
    <rect width=".13" height="4.005" x="-.065" y="-.814" fill="currentColor" ry=".04" transform="translate(52.37 19.552)"/>
    <use xlink:href="#d" transform="matrix(.004 0 0 -.004 54.614 12.052)"/>
    <rect width=".13" height="2.812" x="-.065" y="-1.498" fill="currentColor" ry=".04" transform="translate(55.854 10.552)"/>
    <use xlink:href="#a" transform="matrix(.004 0 0 -.004 58.512 10.552)"/>
    <use xlink:href="#d" transform="matrix(.004 0 0 -.004 58.512 18.052)"/>
    <rect width=".16" height="13.1" y="-6.55" fill="currentColor" ry=".05" transform="translate(5.63 15.052)"/>
    <path fill="currentColor" stroke="currentColor" stroke-linecap="round" stroke-linejoin="round" stroke-width=".08" d="M91.666 23.162v.4l-14.22-1.81v-.4z"/>
    <rect width=".13" height="3.502" x="-.065" y="-1.314" fill="currentColor" ry=".04" transform="translate(58.577 19.552)"/>
    <path fill="currentColor" d="M5.007 16.516c0-1.02-.528-1.452-.528-1.464 0-.072.528-.384.528-1.464 0-1.044-.432-1.956-.432-3.12 0-.756.18-1.464.708-2.004.06-.06.156.036.096.096-.396.396-.516.9-.516 1.44 0 1.02.408 1.92.408 3.06 0 .744-.18 1.452-.696 1.992.516.54.696 1.248.696 1.992 0 1.14-.408 2.04-.408 3.06 0 .54.12 1.044.516 1.44.06.06-.036.156-.096.096-.528-.54-.708-1.248-.708-2.004 0-1.164.432-2.076.432-3.12z"/>
    <use xlink:href="#d" transform="matrix(.004 0 0 -.004 60.821 11.552)"/>
    <rect width=".13" height="2.818" x="-.065" y="-2.004" fill="currentColor" ry=".04" transform="translate(62.06 10.552)"/>
    <use xlink:href="#a" transform="matrix(.004 0 0 -.004 63.235 11.552)"/>
    <use xlink:href="#d" transform="matrix(.004 0 0 -.004 63.235 19.052)"/>
    <rect width=".13" height="2.377" x="-.065" y="-.314" fill="currentColor" ry=".04" transform="translate(63.3 19.552)"/>
    <use xlink:href="#d" transform="matrix(.004 0 0 -.004 65.545 12.552)"/>
    <rect width=".13" height="4.085" x="-.065" y="-2.271" fill="currentColor" ry=".04" transform="translate(66.784 10.552)"/>
    <use xlink:href="#a" transform="matrix(.004 0 0 -.004 67.959 10.552)"/>
    <use xlink:href="#d" transform="matrix(.004 0 0 -.004 67.959 18.052)"/>
    <rect width=".13" height="3.251" x="-.065" y="-1.314" fill="currentColor" ry=".04" transform="translate(68.024 19.552)"/>
    <use xlink:href="#d" transform="matrix(.004 0 0 -.004 70.268 11.552)"/>
    <rect width=".13" height="3.353" x="-.065" y="-2.539" fill="currentColor" ry=".04" transform="translate(71.507 10.552)"/>
    <use xlink:href="#a" transform="matrix(.004 0 0 -.004 72.682 10.552)"/>
    <use xlink:href="#d" transform="matrix(.004 0 0 -.004 72.682 17.052)"/>
    <rect width=".13" height="4.126" x="-.065" y="-2.314" fill="currentColor" ry=".04" transform="translate(72.747 19.552)"/>
    <use xlink:href="#d" transform="matrix(.004 0 0 -.004 74.992 10.552)"/>
    <rect width=".13" height="2.62" x="-.065" y="-2.806" fill="currentColor" ry=".04" transform="translate(76.231 10.552)"/>
    <use xlink:href="#a" transform="matrix(.004 0 0 -.004 77.406 10.552)"/>
    <use xlink:href="#d" transform="matrix(.004 0 0 -.004 77.406 17.552)"/>
    <rect width=".13" height="3.822" x="-.065" y="-1.814" fill="currentColor" ry=".04" transform="translate(77.47 19.552)"/>
    <use xlink:href="#d" transform="matrix(.004 0 0 -.004 79.715 11.052)"/>
    <rect width=".13" height="3.116" x="-.065" y="-2.802" fill="currentColor" ry=".04" transform="translate(80.954 10.552)"/>
    <rect width=".13" height="4.322" x="-.065" y="-1.008" fill="currentColor" ry=".04" transform="translate(95.125 10.552)"/>
    <use xlink:href="#a" transform="matrix(.004 0 0 -.004 82.129 10.552)"/>
    <use xlink:href="#d" transform="matrix(.004 0 0 -.004 82.129 18.552)"/>
    <rect width=".13" height="3.42" x="-.065" y="-.814" fill="currentColor" ry=".04" transform="translate(82.194 19.552)"/>
    <use xlink:href="#d" transform="matrix(.004 0 0 -.004 93.885 14.052)"/>
    <use xlink:href="#d" transform="matrix(.004 0 0 -.004 84.439 12.052)"/>
    <rect width=".13" height="3.518" x="-.065" y="-2.204" fill="currentColor" ry=".04" transform="translate(85.678 10.552)"/>
    <use xlink:href="#a" transform="matrix(.004 0 0 -.004 86.853 11.552)"/>
    <use xlink:href="#d" transform="matrix(.004 0 0 -.004 86.853 19.552)"/>
    <rect width=".13" height="3.018" x="-.065" y=".186" fill="currentColor" ry=".04" transform="translate(86.918 19.552)"/>
    <use xlink:href="#d" transform="matrix(.004 0 0 -.004 89.162 13.052)"/>
    <rect width=".13" height="3.92" x="-.065" y="-1.606" fill="currentColor" ry=".04" transform="translate(90.401 10.552)"/>
    <use xlink:href="#a" transform="matrix(.004 0 0 -.004 91.576 11.552)"/>
    <use xlink:href="#d" transform="matrix(.004 0 0 -.004 91.576 20.552)"/>
    <rect width=".13" height="2.616" x="-.065" y="1.186" fill="currentColor" ry=".04" transform="translate(91.64 19.552)"/>
</svg>
