<svg xmlns="http://www.w3.org/2000/svg" xmlns:xlink="http://www.w3.org/1999/xlink" width="621.543" height="52.67mm" version="1.2" viewBox="0 0 93.581 29.971">
    <defs>
        <path id="reuse-0" fill="currentColor" d="M0 119c0 8 5 15 13 18l46 17v158c0 10 8 19 18 19s19-9 19-19V167l83 31v158c0 10 9 19 19 19s18-9 18-19V211l32 12c2 1 5 1 7 1 11 0 20-9 20-20v-60c0-8-5-16-13-19l-46-16V-51l32 11c2 1 5 1 7 1 11 0 20-9 20-20v-60c0-8-5-15-13-18l-46-17v-158c0-10-8-19-18-19s-19 9-19 19v145l-83-31v-158c0-10-9-19-19-19s-18 9-18 19v145l-32-12c-2-1-5-1-7-1-11 0-20 9-20 20v60c0 8 5 16 13 19l46 16V51L27 40c-2-1-5-1-7-1C9 39 0 48 0 59v60zm179-24L96 65V-95l83 30V95z"/>
        <path id="reuse-1" fill="currentColor" d="M229 0c-88 0-90 66-144 66-30 0-59-20-62-55-1-7-6-11-11-11C6 0 0 4 0 11c0 154 232 170 232 344 0 59-16 122-67 122-25 0-49-14-49-37 0-27 35-41 35-68 0-38-31-69-69-69s-69 31-69 69c0 76 72 128 152 128 95 0 183-57 183-145 0-151-150-159-246-220 9 2 18 3 27 3 83 0 111-59 171-59 48 0 38 38 55 38 6 0 12-5 12-12C367 83 323 0 229 0z"/>
        <path id="reuse-2" fill="currentColor" d="M196 117h117c0-48 27-94 72-94 8 0 12-5 12-11s-4-12-12-12c-44 0-87 13-131 13S167 0 123 0c-8 0-12 6-12 12s4 11 12 11c45 0 73 46 73 94zM-2 148c0 12 140 143 140 336 0 10 7 19 16 16 23-7 47-13 71-13s48 6 71 13c14 4 23-9 17-16L29 154h167v131c0 34 34 27 68 72 22 30 23 56 36 56 6 0 13-5 13-14V154h72c10 0 15-7 15-14s-5-15-15-15h-72v-8H196v8H29c-23 0-31 14-31 23z"/>
        <path id="reuse-3" fill="currentColor" d="M70 205c79 0 46-98 91-98 16 0 54 48 61 63 6 12 23 12 28 0L127-250c-8-7-17-10-27-10s-20 3-28 10L189 76c-34-12-69-22-105-22-47 0-87 34-87 79 0 40 33 72 73 72z"/>
        <path id="reuse-4" fill="currentColor" d="M218 136c66 0 108-36 108-89 0-89-113-183-218-183C42-136 0-100 0-47c0 89 113 183 218 183z"/>
        <path id="reuse-5" fill="currentColor" d="M0 0c0 31 25 56 56 56s56-25 56-56-25-56-56-56S0-31 0 0z"/>
        <path id="reuse-6" fill="currentColor" d="M161 32c78 0 97 176 97 178 0 18-7 33-25 33-61 0-102-124-102-173 0-22 8-38 30-38zM-53 141c0 2 51 151 134 151 35 0 59-21 66-52 29 31 67 52 103 52 69 0 107-49 107-114C357 60 252-8 198-8c-53 0-70 20-84 20-7 0-14-3-16-9L69-83c-1-2-1-5-1-7 0-37 57-18 57-42 0-7-4-14-13-14-3 0-50 5-116 5s-112-5-115-5c-9 0-14 7-14 14 0 31 87-1 102 41L71 209c2 7 4 14 4 20 0 8-2 14-11 14-33 0-63-60-79-97-5-12-15-17-24-17-8 0-14 4-14 12z"/>
        <path id="reuse-7" fill="currentColor" d="M-297 227c0-15 8-30 39-30 10 0 46 2 103 28l5 24c-23 17-50 29-81 29-51 0-66-31-66-51zm271-123c0-61-47-115-98-115-39 0-56 44-56 91 0 14 1 28 4 41l15 76c-20-8-63-25-101-25-19 0-60 6-60 51 0 38 32 80 96 80 31 0 58-10 82-25l46 232c6-3 13-5 20-5 22 0 48 16 68 35l-53-266 64 36c26 14 51 20 74 20 29 0 53-10 64-28 18 20 44 30 69 30 36 0 69-22 69-69 0-49-31-90-65-90-25 0-38 22-38 48 0 50 37 64 60 64h3c-8 14-23 20-38 20-24 0-50-16-55-43L90-8C79-1 66 3 52 3S23-1 9-8l54 270v7c0 16-12 26-29 26-7 0-16-3-24-7l-79-44-7-31c27-31 50-67 50-109zm-60-65c23 0 35 34 35 61 0 30-14 55-32 78l-5-27c-4-18-13-56-13-83 0-17 4-29 15-29z"/>
        <path id="reuse-8" fill="currentColor" d="M253 245 203 82C173-17 82-173-15-173c-45 0-87 27-87 69 0 39 17 77 52 77 24 0 44-20 44-44 0-30-38-24-38-54 0-10 11-11 23-11h6c48 0 61 58 73 108l68 273H77c-11 0-19 8-19 19s8 19 19 19h60c32 96 118 191 213 191 45 0 87-27 87-69 0-39-17-77-52-77-24 0-44 19-44 43 0 30 38 25 38 55 0 10-10 11-22 11h-7c-62 0-70-88-86-154h55c11 0 19-8 19-19s-8-19-19-19h-66z"/>
        <path id="reuse-9" fill="currentColor" d="M0 0h-16v250H0V0zm0 0v250c97 59 224 148 224 259 0 57-15 112-40 163-3 16 10 27 23 27 7 0 15-3 20-11 25-56 40-117 40-179C267 306 0 203 0 0z"/>
        <path id="reuse-10" fill="currentColor" d="M-7 375c8 4 17 7 25 7s16-3 24-7l-2-183 106 20h3c10 0 18-7 18-17l7-570c-8-4-17-7-25-7s-16 3-24 7l2 183-106-20h-3c-10 0-18 7-18 17zm138-263L39 95l-3-207 92 17z"/>
    </defs>
    <style>
        tspan{white-space:pre}
    </style>
    <rect width="1.956" height=".2" x="48.477" y="-.1" fill="currentColor" ry=".1" transform="translate(5.69 9.513)"/>
    <rect width="1.956" height=".2" x="12.583" y="-.1" fill="currentColor" ry=".1" transform="translate(5.69 9.513)"/>
    <path stroke="currentColor" stroke-linecap="round" stroke-linejoin="round" stroke-width=".1" d="M5.74 14.513h80.907m-80.907-1h80.907m-80.907-1h80.907m-80.907-1h80.907m-80.907-1h80.907"/>
    <rect width=".19" height="5.672" y="10.718" fill="currentColor" ry="0" transform="translate(86.507 3.845)"/>
    <rect width="1.956" height=".2" x="77.063" y="-.1" fill="currentColor" ry=".1" transform="translate(5.69 19.235)"/>
    <rect width="1.956" height=".2" x="59.24" y="-.1" fill="currentColor" ry=".1" transform="translate(5.69 19.235)"/>
    <rect width="1.805" height=".2" x="40.611" y="-.1" fill="currentColor" ry=".1" transform="translate(5.69 19.235)"/>
    <path stroke="currentColor" stroke-linecap="round" stroke-linejoin="round" stroke-width=".1" d="M5.74 24.235h80.907m-80.907-1h80.907m-80.907-1h80.907m-80.907-1h80.907m-80.907-1h80.907"/>
    <rect width=".19" height="4.05" y="-2.05" fill="currentColor" ry="0" transform="translate(86.507 22.235)"/>
    <rect width=".19" height="4.05" y="-2" fill="currentColor" ry="0" transform="translate(86.507 12.513)"/>
    <rect width=".19" height="5.672" y="10.718" fill="currentColor" ry="0" transform="translate(70.06 3.845)"/>
    <rect width=".19" height="4.05" y="-2.05" fill="currentColor" ry="0" transform="translate(70.06 22.235)"/>
    <rect width=".19" height="4.05" y="-2" fill="currentColor" ry="0" transform="translate(70.06 12.513)"/>
    <rect width=".19" height="5.672" y="10.718" fill="currentColor" ry="0" transform="translate(49.904 3.845)"/>
    <rect width=".19" height="4.05" y="-2.05" fill="currentColor" ry="0" transform="translate(49.904 22.235)"/>
    <rect width=".19" height="4.05" y="-2" fill="currentColor" ry="0" transform="translate(49.904 12.513)"/>
    <rect width=".19" height="5.672" y="10.718" fill="currentColor" ry="0" transform="translate(34.166 3.845)"/>
    <rect width=".19" height="4.05" y="-2.05" fill="currentColor" ry="0" transform="translate(34.166 22.235)"/>
    <rect width=".19" height="4.05" y="-2" fill="currentColor" ry="0" transform="translate(34.166 12.513)"/>
    <use xlink:href="#reuse-0" transform="matrix(.004 0 0 -.004 9.99 10.513)"/>
    <use xlink:href="#reuse-1" transform="matrix(.004 0 0 -.004 12.309 12.513)"/>
    <use xlink:href="#reuse-2" transform="matrix(.004 0 0 -.004 12.24 14.529)"/>
    <use xlink:href="#reuse-3" transform="matrix(.004 0 0 -.004 15.845 22.235)"/>
    <path fill="currentColor" d="M8.719 21.735c0-.112.092-.204.204-.204s.204.092.204.204-.092.204-.204.204-.204-.092-.204-.204zm0-1c0-.112.092-.204.204-.204s.204.092.204.204-.092.204-.204.204-.204-.092-.204-.204zm-1.3-.552c.688 0 1.172.352 1.172 1.004 0 1.052-1.052 1.656-2.064 2.084a.049.049 0 0 1-.036.016.053.053 0 0 1-.052-.052c0-.012.004-.024.016-.036.808-.472 1.648-1.06 1.648-1.972 0-.48-.252-.94-.684-.94-.296 0-.516.216-.616.504a.323.323 0 0 1 .136-.032c.22 0 .4.18.4.4 0 .232-.176.424-.4.424-.24 0-.448-.188-.448-.424 0-.532.408-.976.928-.976z"/>
    <use xlink:href="#reuse-0" transform="matrix(.004 0 0 -.004 9.99 21.235)"/>
    <use xlink:href="#reuse-1" transform="matrix(.004 0 0 -.004 12.309 22.235)"/>
    <use xlink:href="#reuse-2" transform="matrix(.004 0 0 -.004 12.24 24.25)"/>
    <rect width=".13" height="2.78" x="-.065" y=".686" fill="currentColor" ry=".04" transform="translate(15.91 12.513)"/>
    <path fill="currentColor" stroke="currentColor" stroke-linecap="round" stroke-linejoin="round" stroke-width=".08" d="M83.17 22.035v.4l-7.834 1v-.4z"/>
    <use xlink:href="#reuse-4" transform="matrix(.004 0 0 -.004 18.6 9.513)"/>
    <use xlink:href="#reuse-5" transform="matrix(.004 0 0 -.004 20.354 9.013)"/>
    <rect width=".13" height="4.848" x="-.065" y="-2.814" fill="currentColor" ry=".04" transform="translate(18.665 12.513)"/>
    <path fill="currentColor" stroke="currentColor" stroke-linecap="round" stroke-linejoin="round" stroke-width=".08" d="M67.85 13.313v.4l-7.562-.81v-.4zm0 .81v.4l-7.562-.81v-.4z"/>
    <use xlink:href="#reuse-4" transform="matrix(.004 0 0 -.004 20.4 22.235)"/>
    <text fill="currentColor" class="scale-degree" font-family="serif" font-size="2.2" transform="translate(20.4 27.523)">
<tspan>➀</tspan>
</text>
    <rect width=".13" height="2.805" x="-.065" y=".186" fill="currentColor" ry=".04" transform="translate(20.465 22.235)"/>
    <path fill="currentColor" stroke="currentColor" stroke-linecap="round" stroke-linejoin="round" stroke-width=".08" d="M72.57 10.957c1.55-1.259 5.926-1.05 7.354.35h0c-1.433-1.28-5.81-1.489-7.355-.35z"/>
    <use xlink:href="#reuse-4" transform="matrix(.004 0 0 -.004 24.354 10.013)"/>
    <use xlink:href="#reuse-6" transform="matrix(.004 0 0 -.004 24.272 16.33)"/>
    <use xlink:href="#reuse-7" transform="matrix(.004 0 0 -.004 25.006 9.224)"/>
    <use xlink:href="#reuse-4" transform="matrix(.004 0 0 -.004 24.354 21.235)"/>
    <rect width=".13" height="3.321" x="-.065" y="-2.314" fill="currentColor" ry=".04" transform="translate(24.419 12.513)"/>
    <rect width=".13" height="3.288" x="-.065" y="-.814" fill="currentColor" ry=".04" transform="translate(24.419 22.235)"/>
    <use xlink:href="#reuse-4" transform="matrix(.004 0 0 -.004 26.858 10.513)"/>
    <rect width=".13" height="3.086" x="-.065" y="-1.814" fill="currentColor" ry=".04" transform="translate(26.923 12.513)"/>
    <path fill="currentColor" stroke="currentColor" stroke-linecap="round" stroke-linejoin="round" stroke-width=".08" d="M52.865 13.022v.4l-1.085.48v-.4zm1.719.101v.4l-2.804 1.19v-.4z"/>
    <use xlink:href="#reuse-4" transform="matrix(.004 0 0 -.004 29.362 11.013)"/>
    <use xlink:href="#reuse-7" transform="matrix(.004 0 0 -.004 30.014 10.213)"/>
    <use xlink:href="#reuse-4" transform="matrix(.004 0 0 -.004 29.362 20.235)"/>
    <rect width=".13" height="2.852" x="-.065" y="-1.314" fill="currentColor" ry=".04" transform="translate(29.427 12.513)"/>
    <rect width=".13" height="3.632" x="-.065" y="-1.814" fill="currentColor" ry=".04" transform="translate(29.427 22.235)"/>
    <path fill="currentColor" stroke="currentColor" stroke-linecap="round" stroke-linejoin="round" stroke-width=".08" d="M56.836 20.04c1.294-1.808 6.948-3.29 8.962-2.35h0c-1.984-.824-7.637.658-8.962 2.35z"/>
    <use xlink:href="#reuse-4" transform="matrix(.004 0 0 -.004 31.866 11.513)"/>
    <rect width=".13" height="2.617" x="-.065" y="-.814" fill="currentColor" ry=".04" transform="translate(31.931 12.513)"/>
    <path fill="currentColor" stroke="currentColor" stroke-linecap="round" stroke-linejoin="round" stroke-width=".08" d="M65.347 22.845v.4l-9.013 1.19v-.4z"/>
    <use xlink:href="#reuse-4" transform="matrix(.004 0 0 -.004 35.418 11.513)"/>
    <text fill="currentColor" class="scale-degree" font-family="serif" font-size="2.2" transform="translate(35.418 8.947)">
<tspan>➊</tspan>
</text>
    <path fill="currentColor" d="M7.555 16.053H7.53a.783.783 0 0 1-.78-.788c0-.232.212-.412.448-.412.216 0 .38.188.38.412 0 .208-.172.38-.38.38a.326.326 0 0 1-.124-.024c.104.156.272.26.468.26h.016zm.78-1.728a.69.69 0 0 0 .452-.656.764.764 0 0 0-.692-.76c.076.356.192.968.24 1.416zM6.787 13.4c0 .58.564.988 1.056.988.004 0 .188 0 .328-.024a17.343 17.343 0 0 0-.252-1.456c-.316.032-.496.244-.496.476 0 .176.1.364.324.492.02.02.028.04.028.06 0 .044-.04.088-.088.088-.06 0-.504-.248-.504-.748 0-.352.232-.696.64-.788a15.048 15.048 0 0 0-.184-.7c-.428.484-.852.972-.852 1.612zm.704-2.1c-.116-.384-.208-.68-.208-1.384 0-.46.22-.896.596-1.168a.06.06 0 0 1 .08 0c.272.32.532.98.532 1.432 0 .572-.344 1.02-.72 1.456.084.272.156.552.224.828.008 0 .028-.004.052-.004.62 0 1.024.512 1.024 1.044 0 .452-.296.848-.72.984.012.14.02.28.02.42 0 .076-.004.156-.008.232-.028.476-.352.9-.808.912l.004-.172c.372-.008.612-.368.636-.764a3.775 3.775 0 0 0-.008-.588c-.02.004-.176.032-.356.032-.772 0-1.332-.72-1.332-1.496 0-.708.524-1.224.992-1.764zm.712-1.452c0-.136.004-.264-.08-.516a1.153 1.153 0 0 0-.648 1.036c0 .208.048.46.144.776.32-.388.584-.792.584-1.296z"/>
    <use xlink:href="#reuse-3" transform="matrix(.004 0 0 -.004 35.418 22.235)"/>
    <use xlink:href="#reuse-8" transform="matrix(.004 0 0 -.004 15.866 17.943)"/>
    <rect width=".13" height="3.314" x="-.065" y="-.814" fill="currentColor" ry=".04" transform="translate(35.483 12.513)"/>
    <use xlink:href="#reuse-4" transform="matrix(.004 0 0 -.004 15.845 13.013)"/>
    <use xlink:href="#reuse-4" transform="matrix(.004 0 0 -.004 38.818 21.735)"/>
    <text fill="currentColor" class="scale-degree" font-family="serif" font-size="2.2" transform="translate(38.818 26.713)">
<tspan>➁</tspan>
</text>
    <rect width=".13" height="2.492" x="-.065" y="-.314" fill="currentColor" ry=".04" transform="translate(38.883 22.235)"/>
    <path stroke="currentColor" stroke-linecap="round" stroke-linejoin="round" stroke-width=".1" d="m83.58 3.925.5 1m-31.84-1-.5 1m.5-1h31.34" class="schema"/>
    <use xlink:href="#reuse-4" transform="matrix(.004 0 0 -.004 42.772 12.013)"/>
    <text fill="currentColor" class="scale-degree" font-family="serif" font-size="2.2" transform="translate(42.772 7.286)">
<tspan>➐</tspan>
</text>
    <use xlink:href="#reuse-7" transform="matrix(.004 0 0 -.004 43.425 10.184)"/>
    <use xlink:href="#reuse-4" transform="matrix(.004 0 0 -.004 42.772 20.735)"/>
    <rect width=".13" height="3.314" x="-.065" y="-.314" fill="currentColor" ry=".04" transform="translate(42.837 12.513)"/>
    <use xlink:href="#reuse-9" transform="matrix(.004 0 0 -.004 42.902 15.473)"/>
    <use xlink:href="#reuse-0" transform="matrix(.004 0 0 -.004 41.322 12.013)"/>
    <rect width=".13" height="2.792" x="-.065" y="-1.314" fill="currentColor" ry=".04" transform="translate(42.837 22.235)"/>
    <path fill="currentColor" stroke="currentColor" stroke-linecap="round" stroke-linejoin="round" stroke-width=".08" d="M39.335 20.69c1.081-1.765 5.745-3.287 7.659-2.5h0c-1.877-.673-6.54.85-7.659 2.5z"/>
    <use xlink:href="#reuse-3" transform="matrix(.004 0 0 -.004 46.477 12.513)"/>
    <use xlink:href="#reuse-4" transform="matrix(.004 0 0 -.004 46.477 19.235)"/>
    <rect width=".13" height="3.635" x="-.065" y="-2.814" fill="currentColor" ry=".04" transform="translate(46.542 22.235)"/>
    <use xlink:href="#reuse-0" transform="matrix(.004 0 0 -.004 45.027 19.235)"/>
    <path fill="currentColor" stroke="currentColor" stroke-linecap="round" stroke-linejoin="round" stroke-width=".08" d="M46.567 22.845v.4l-7.709 1.38v-.4zm-14.611-9.532v.4l-7.562-.81v-.4zm0 .81v.4l-7.562-.81v-.4z"/>
    <use xlink:href="#reuse-4" transform="matrix(.004 0 0 -.004 51.74 12.013)"/>
    <use xlink:href="#reuse-8" transform="matrix(.004 0 0 -.004 51.76 17.059)"/>
    <path fill="currentColor" stroke="currentColor" stroke-linecap="round" stroke-linejoin="round" stroke-width=".08" d="M36.109 10.318c1.6-1.155 5.98-.768 7.354.65h0c-1.384-1.298-5.764-1.685-7.354-.65z"/>
    <use xlink:href="#reuse-3" transform="matrix(.004 0 0 -.004 51.74 22.235)"/>
    <rect width=".13" height="2.287" x="-.065" y="-.314" fill="currentColor" ry=".04" transform="translate(51.805 12.513)"/>
    <use xlink:href="#reuse-10" transform="matrix(.004 0 0 -.004 50.694 12.013)"/>
    <path fill="currentColor" stroke="currentColor" stroke-linecap="round" stroke-linejoin="round" stroke-width=".08" d="M16.97 14.397v.4l-1.085.606v-.4zm1.72-.084v.4l-2.805 1.5v-.4z"/>
    <use xlink:href="#reuse-4" transform="matrix(.004 0 0 -.004 54.494 9.513)"/>
    <use xlink:href="#reuse-5" transform="matrix(.004 0 0 -.004 56.248 9.013)"/>
    <rect width=".13" height="3.651" x="-.065" y="-2.814" fill="currentColor" ry=".04" transform="translate(54.559 12.513)"/>
    <path fill="currentColor" stroke="currentColor" stroke-linecap="round" stroke-linejoin="round" stroke-width=".08" d="M20.964 21.04c1.378-1.728 7.013-2.891 8.962-1.85h0c-1.925-.924-7.56.24-8.962 1.85z"/>
    <use xlink:href="#reuse-4" transform="matrix(.004 0 0 -.004 56.294 21.235)"/>
    <text fill="currentColor" class="scale-degree" font-family="serif" font-size="2.2" transform="translate(56.294 26.523)">
<tspan>➆</tspan>
</text>
    <rect width=".13" height="2.805" x="-.065" y="-.814" fill="currentColor" ry=".04" transform="translate(56.359 22.235)"/>
    <path fill="currentColor" stroke="currentColor" stroke-linecap="round" stroke-linejoin="round" stroke-width=".08" d="M29.452 23.845v.4l-9.013 1.19v-.4z"/>
    <use xlink:href="#reuse-4" transform="matrix(.004 0 0 -.004 60.248 10.013)"/>
    <use xlink:href="#reuse-6" transform="matrix(.004 0 0 -.004 60.166 16.33)"/>
    <use xlink:href="#reuse-7" transform="matrix(.004 0 0 -.004 60.9 9.224)"/>
    <use xlink:href="#reuse-4" transform="matrix(.004 0 0 -.004 60.248 20.235)"/>
    <rect width=".13" height="3.321" x="-.065" y="-2.314" fill="currentColor" ry=".04" transform="translate(60.313 12.513)"/>
    <rect width=".13" height="3.288" x="-.065" y="-1.814" fill="currentColor" ry=".04" transform="translate(60.313 22.235)"/>
    <use xlink:href="#reuse-4" transform="matrix(.004 0 0 -.004 62.752 10.513)"/>
    <rect width=".13" height="3.086" x="-.065" y="-1.814" fill="currentColor" ry=".04" transform="translate(62.817 12.513)"/>
    <use xlink:href="#reuse-4" transform="matrix(.004 0 0 -.004 65.257 11.013)"/>
    <use xlink:href="#reuse-7" transform="matrix(.004 0 0 -.004 65.909 10.213)"/>
    <use xlink:href="#reuse-4" transform="matrix(.004 0 0 -.004 65.257 18.735)"/>
    <rect width=".13" height="2.852" x="-.065" y="-1.314" fill="currentColor" ry=".04" transform="translate(65.322 12.513)"/>
    <rect width=".13" height="4.132" x="-.065" y="-3.314" fill="currentColor" ry=".04" transform="translate(65.322 22.235)"/>
    <path stroke="currentColor" stroke-linecap="round" stroke-linejoin="round" stroke-width=".1" d="m46.976 3.895.5 1m-31.131-1-.5 1m.5-1h30.631" class="schema"/>
    <use xlink:href="#reuse-4" transform="matrix(.004 0 0 -.004 67.76 11.513)"/>
    <rect width=".13" height="2.617" x="-.065" y="-.814" fill="currentColor" ry=".04" transform="translate(67.826 12.513)"/>
    <use xlink:href="#reuse-4" transform="matrix(.004 0 0 -.004 71.897 12.013)"/>
    <text fill="currentColor" class="scale-degree" font-family="serif" font-size="2.2" transform="translate(71.897 9.478)">
<tspan>➍</tspan>
</text>
    <use xlink:href="#reuse-3" transform="matrix(.004 0 0 -.004 71.897 22.235)"/>
    <rect width=".16" height="13.822" y="-6.911" fill="currentColor" ry=".05" transform="translate(5.63 17.374)"/>
    <rect width=".13" height="3.314" x="-.065" y="-.314" fill="currentColor" ry=".04" transform="translate(71.962 12.513)"/>
    <use xlink:href="#reuse-10" transform="matrix(.004 0 0 -.004 70.85 12.013)"/>
    <path fill="currentColor" d="M5.007 18.91c0-1.068-.552-1.524-.552-1.536 0-.072.552-.408.552-1.536 0-1.092-.456-2.064-.456-3.288 0-.78.192-1.524.732-2.088.06-.06.156.024.096.084-.408.42-.54.96-.54 1.524 0 1.08.432 2.016.432 3.216 0 .78-.18 1.524-.708 2.088.528.564.708 1.308.708 2.088 0 1.2-.432 2.136-.432 3.216 0 .564.132 1.104.54 1.524.06.06-.036.144-.096.084-.54-.564-.732-1.308-.732-2.088 0-1.224.456-2.196.456-3.288z"/>
    <use xlink:href="#reuse-4" transform="matrix(.004 0 0 -.004 75.296 20.735)"/>
    <text fill="currentColor" class="scale-degree" font-family="serif" font-size="2.2" transform="translate(75.296 26.333)">
<tspan>➀</tspan>
</text>
    <rect width=".13" height="2.306" x="-.065" y="-1.314" fill="currentColor" ry=".04" transform="translate(75.362 22.235)"/>
    <use xlink:href="#reuse-4" transform="matrix(.004 0 0 -.004 79.25 12.513)"/>
    <text fill="currentColor" class="scale-degree" font-family="serif" font-size="2.2" transform="translate(79.25 7.316)">
<tspan>➌</tspan>
</text>
    <use xlink:href="#reuse-7" transform="matrix(.004 0 0 -.004 79.903 10.213)"/>
    <use xlink:href="#reuse-4" transform="matrix(.004 0 0 -.004 79.25 19.735)"/>
    <rect width=".13" height="3.189" x="-.065" y=".186" fill="currentColor" ry=".04" transform="translate(79.316 12.513)"/>
    <use xlink:href="#reuse-9" transform="matrix(.004 0 0 -.004 79.38 15.848)"/>
    <rect width=".13" height="2.806" x="-.065" y="-2.314" fill="currentColor" ry=".04" transform="translate(79.316 22.235)"/>
    <use xlink:href="#reuse-3" transform="matrix(.004 0 0 -.004 83.08 12.513)"/>
    <use xlink:href="#reuse-4" transform="matrix(.004 0 0 -.004 83.08 18.735)"/>
    <rect width=".13" height="3.322" x="-.065" y="-3.314" fill="currentColor" ry=".04" transform="translate(83.145 22.235)"/>
</svg>
