<svg xmlns="http://www.w3.org/2000/svg" xmlns:xlink="http://www.w3.org/1999/xlink" width="680.315" height="60mm" version="1.2" viewBox="0 0 102.43 34.143">
    <defs>
        <path id="a" fill="currentColor" d="M218 136c66 0 108-36 108-89 0-89-113-183-218-183C42-136 0-100 0-47c0 89 113 183 218 183z"/>
        <path id="b" fill="currentColor" d="M0 119c0 8 5 15 13 18l46 17v158c0 10 8 19 18 19s19-9 19-19V167l83 31v158c0 10 9 19 19 19s18-9 18-19V211l32 12c2 1 5 1 7 1 11 0 20-9 20-20v-60c0-8-5-16-13-19l-46-16V-51l32 11c2 1 5 1 7 1 11 0 20-9 20-20v-60c0-8-5-15-13-18l-46-17v-158c0-10-8-19-18-19s-19 9-19 19v145l-83-31v-158c0-10-9-19-19-19s-18 9-18 19v145l-32-12c-2-1-5-1-7-1-11 0-20 9-20 20v60c0 8 5 16 13 19l46 16V51L27 40c-2-1-5-1-7-1C9 39 0 48 0 59v60zm179-24L96 65V-95l83 30V95z"/>
        <path id="c" fill="currentColor" d="M250 262c116 0 176-106 176-163 0-40-30-72-67-72-31 0-75 25-75 75 0 38 27 77 72 77 4 0 9 0 14-1-28 37-72 59-120 59-106 0-113-73-113-186V-51c0-113 7-187 113-187 80 0 139 70 158 151 2 7 7 10 12 10 6 0 13-4 13-12 0-22-50-174-183-174C191-263 0-244 0 0c0 62 18 262 250 262z"/>
        <path id="d" fill="currentColor" d="M208 139c69 0 117-40 117-99 0-91-107-179-209-179C47-139 0-99 0-40c0 91 106 179 208 179z"/>
        <path id="e" fill="currentColor" d="M-6 78c0 59 124 83 124 182 0 24-8 49-25 69l-35 42c-3 3-4 7-4 10 0 9 9 15 17 15 4 0 8-1 11-5l151-180c7-9 10-17 10-25 0-59-124-83-124-182 0-24 7-49 24-69l84-99c3-3 4-7 4-10 0-9-8-16-16-16s-45 44-109 44c-16 0-53 0-53-67 0-35 11-74 28-94 7-8-5-19-12-11-45 54-92 148-92 202 0 41 27 42 40 42 33 0 78-13 119-31L4 53C-3 62-6 70-6 78z"/>
        <path id="f" fill="currentColor" d="M0 0h-16v250H0V0zm0 0v250c97 59 224 148 224 259 0 57-15 112-40 163-3 16 10 27 23 27 7 0 15-3 20-11 25-56 40-117 40-179C267 306 0 203 0 0z"/>
        <path id="g" fill="currentColor" d="M70 205c79 0 46-98 91-98 16 0 54 48 61 63 6 12 23 12 28 0L127-250c-8-7-17-10-27-10s-20 3-28 10L189 76c-34-12-69-22-105-22-47 0-87 34-87 79 0 40 33 72 73 72z"/>
    </defs>
    <text fill="currentColor" font-family="serif" font-size="2.47" font-weight="bold" transform="translate(5.69 5.519)">
<tspan style="white-space:pre">Allegro di molto</tspan>
</text>
    <rect width="1.351" height=".2" x="51.792" y="-.1" fill="currentColor" ry=".1" transform="translate(5.69 11.244)"/>
    <rect width="1.956" height=".2" x="45.466" y="-.1" fill="currentColor" ry=".1" transform="translate(5.69 11.244)"/>
    <rect width="1.956" height=".2" x="41.068" y="-.1" fill="currentColor" ry=".1" transform="translate(5.69 11.244)"/>
    <rect width="1.956" height=".2" x="36.669" y="-.1" fill="currentColor" ry=".1" transform="translate(5.69 11.244)"/>
    <rect width="1.956" height=".2" x="33.218" y="-.1" fill="currentColor" ry=".1" transform="translate(5.69 11.244)"/>
    <rect width="1.956" height=".2" x="30.883" y="-.1" fill="currentColor" ry=".1" transform="translate(5.69 10.244)"/>
    <rect width="1.956" height=".2" x="30.883" y="-.1" fill="currentColor" ry=".1" transform="translate(5.69 11.244)"/>
    <rect width="1.81" height=".2" x="27.662" y="-.1" fill="currentColor" ry=".1" transform="translate(5.69 10.244)"/>
    <rect width="1.81" height=".2" x="27.662" y="-.1" fill="currentColor" ry=".1" transform="translate(5.69 11.244)"/>
    <rect width="1.277" height=".2" x="26.285" y="-.1" fill="currentColor" ry=".1" transform="translate(5.69 9.244)"/>
    <rect width="1.277" height=".2" x="26.285" y="-.1" fill="currentColor" ry=".1" transform="translate(5.69 10.244)"/>
    <rect width="1.277" height=".2" x="26.285" y="-.1" fill="currentColor" ry=".1" transform="translate(5.69 11.244)"/>
    <rect width="1.277" height=".2" x="24.908" y="-.1" fill="currentColor" ry=".1" transform="translate(5.69 10.244)"/>
    <rect width="1.277" height=".2" x="24.908" y="-.1" fill="currentColor" ry=".1" transform="translate(5.69 11.244)"/>
    <rect width="1.327" height=".2" x="23.482" y="-.1" fill="currentColor" ry=".1" transform="translate(5.69 10.244)"/>
    <rect width="1.327" height=".2" x="23.482" y="-.1" fill="currentColor" ry=".1" transform="translate(5.69 11.244)"/>
    <rect width="1.956" height=".2" x="19.821" y="-.1" fill="currentColor" ry=".1" transform="translate(5.69 10.244)"/>
    <rect width="1.956" height=".2" x="19.821" y="-.1" fill="currentColor" ry=".1" transform="translate(5.69 11.244)"/>
    <rect width="1.956" height=".2" x="15.422" y="-.1" fill="currentColor" ry=".1" transform="translate(5.69 10.244)"/>
    <rect width="1.956" height=".2" x="15.422" y="-.1" fill="currentColor" ry=".1" transform="translate(5.69 11.244)"/>
    <rect width="1.956" height=".2" x="11.024" y="-.1" fill="currentColor" ry=".1" transform="translate(5.69 10.244)"/>
    <rect width="1.956" height=".2" x="11.024" y="-.1" fill="currentColor" ry=".1" transform="translate(5.69 11.244)"/>
    <path stroke="currentColor" stroke-linecap="round" stroke-linejoin="round" stroke-width=".1" d="M5.74 16.244h90.95m-90.95-1h90.95m-90.95-1h90.95m-90.95-1h90.95m-90.95-1h90.95"/>
    <rect width=".19" height="4.95" y="9.742" fill="currentColor" ry="0" transform="translate(96.55 6.552)"/>
    <rect width="1.956" height=".2" x="45.466" y="-.1" fill="currentColor" ry=".1" transform="translate(5.69 20.244)"/>
    <rect width="1.956" height=".2" x="41.068" y="-.1" fill="currentColor" ry=".1" transform="translate(5.69 20.244)"/>
    <rect width="1.956" height=".2" x="36.669" y="-.1" fill="currentColor" ry=".1" transform="translate(5.69 20.244)"/>
    <rect width="1.956" height=".2" x="19.821" y="-.1" fill="currentColor" ry=".1" transform="translate(5.69 20.244)"/>
    <rect width="1.956" height=".2" x="15.422" y="-.1" fill="currentColor" ry=".1" transform="translate(5.69 20.244)"/>
    <rect width="1.956" height=".2" x="11.024" y="-.1" fill="currentColor" ry=".1" transform="translate(5.69 20.244)"/>
    <path stroke="currentColor" stroke-linecap="round" stroke-linejoin="round" stroke-width=".1" d="M5.74 25.244h90.95m-90.95-1h90.95m-90.95-1h90.95m-90.95-1h90.95m-90.95-1h90.95"/>
    <rect width=".19" height="4.05" y="-2.05" fill="currentColor" ry="0" transform="translate(96.55 23.244)"/>
    <rect width=".19" height="4.05" y="-2" fill="currentColor" ry="0" transform="translate(96.55 14.244)"/>
    <rect width=".19" height="4.95" y="9.742" fill="currentColor" ry="0" transform="translate(66.85 6.552)"/>
    <rect width=".19" height="4.05" y="-2.05" fill="currentColor" ry="0" transform="translate(66.85 23.244)"/>
    <rect width=".19" height="4.05" y="-2" fill="currentColor" ry="0" transform="translate(66.85 14.244)"/>
    <rect width=".19" height="4.95" y="9.742" fill="currentColor" ry="0" transform="translate(41.428 6.552)"/>
    <rect width=".19" height="4.05" y="-2.05" fill="currentColor" ry="0" transform="translate(41.428 23.244)"/>
    <rect width=".19" height="4.05" y="-2" fill="currentColor" ry="0" transform="translate(41.428 14.244)"/>
    <use xlink:href="#a" transform="matrix(.004 0 0 -.004 17.04 9.744)"/>
    <use xlink:href="#a" transform="matrix(.004 0 0 -.004 17.04 11.244)"/>
    <use xlink:href="#a" transform="matrix(.004 0 0 -.004 17.04 12.244)"/>
    <use xlink:href="#a" transform="matrix(.004 0 0 -.004 17.04 13.244)"/>
    <path fill="currentColor" d="M7.555 17.784H7.53a.783.783 0 0 1-.78-.788c0-.232.212-.412.448-.412.216 0 .38.188.38.412 0 .208-.172.38-.38.38a.326.326 0 0 1-.124-.024c.104.156.272.26.468.26h.016zm.78-1.728a.69.69 0 0 0 .452-.656.764.764 0 0 0-.692-.76c.076.356.192.968.24 1.416zm-1.548-.924c0 .58.564.988 1.056.988.004 0 .188 0 .328-.024a17.343 17.343 0 0 0-.252-1.456c-.316.032-.496.244-.496.476 0 .176.1.364.324.492.02.02.028.04.028.06 0 .044-.04.088-.088.088-.06 0-.504-.248-.504-.748 0-.352.232-.696.64-.788a15.048 15.048 0 0 0-.184-.7c-.428.484-.852.972-.852 1.612zm.704-2.1c-.116-.384-.208-.68-.208-1.384 0-.46.22-.896.596-1.168a.06.06 0 0 1 .08 0c.272.32.532.98.532 1.432 0 .572-.344 1.02-.72 1.456.084.272.156.552.224.828.008 0 .028-.004.052-.004.62 0 1.024.512 1.024 1.044 0 .452-.296.848-.72.984.012.14.02.28.02.42 0 .076-.004.156-.008.232-.028.476-.352.9-.808.912l.004-.172c.372-.008.612-.368.636-.764a3.775 3.775 0 0 0-.008-.588c-.02.004-.176.032-.356.032-.772 0-1.332-.72-1.332-1.496 0-.708.524-1.224.992-1.764zm.712-1.452c0-.136.004-.264-.08-.516a1.153 1.153 0 0 0-.648 1.036c0 .208.048.46.144.776.32-.388.584-.792.584-1.296z"/>
    <use xlink:href="#b" transform="matrix(.004 0 0 -.004 9.99 12.244)"/>
    <use xlink:href="#b" transform="matrix(.004 0 0 -.004 11.09 13.744)"/>
    <use xlink:href="#c" transform="matrix(.004 0 0 -.004 13.34 14.244)"/>
    <use xlink:href="#a" transform="matrix(.004 0 0 -.004 17.04 19.744)"/>
    <use xlink:href="#a" transform="matrix(.004 0 0 -.004 17.04 21.244)"/>
    <use xlink:href="#a" transform="matrix(.004 0 0 -.004 17.04 22.244)"/>
    <use xlink:href="#a" transform="matrix(.004 0 0 -.004 17.04 23.244)"/>
    <path fill="currentColor" d="M8.719 22.744c0-.112.092-.204.204-.204s.204.092.204.204-.092.204-.204.204-.204-.092-.204-.204zm0-1c0-.112.092-.204.204-.204s.204.092.204.204-.092.204-.204.204-.204-.092-.204-.204zm-1.3-.552c.688 0 1.172.352 1.172 1.004 0 1.052-1.052 1.656-2.064 2.084a.049.049 0 0 1-.036.016.053.053 0 0 1-.052-.052c0-.012.004-.024.016-.036.808-.472 1.648-1.06 1.648-1.972 0-.48-.252-.94-.684-.94-.296 0-.516.216-.616.504a.323.323 0 0 1 .136-.032c.22 0 .4.18.4.4 0 .232-.176.424-.4.424-.24 0-.448-.188-.448-.424 0-.532.408-.976.928-.976z"/>
    <use xlink:href="#b" transform="matrix(.004 0 0 -.004 9.99 22.244)"/>
    <use xlink:href="#b" transform="matrix(.004 0 0 -.004 11.09 23.744)"/>
    <use xlink:href="#c" transform="matrix(.004 0 0 -.004 13.34 23.244)"/>
    <rect width=".13" height="6.814" x="-.065" y="-4.314" fill="currentColor" ry=".04" transform="translate(17.106 14.244)"/>
    <rect width=".13" height="6.647" x="-.065" y="-3.314" fill="currentColor" ry=".04" transform="translate(17.106 23.244)"/>
    <path fill="currentColor" stroke="currentColor" stroke-linecap="round" stroke-linejoin="round" stroke-width=".08" d="M88.237 14.924v.4l-1.87.14v-.4zm0 .81v.4l-1.87.14v-.4zm0 .81v.4l-6.868.5v-.4z"/>
    <use xlink:href="#a" transform="matrix(.004 0 0 -.004 21.44 9.744)"/>
    <use xlink:href="#a" transform="matrix(.004 0 0 -.004 21.44 11.244)"/>
    <use xlink:href="#a" transform="matrix(.004 0 0 -.004 21.44 12.244)"/>
    <use xlink:href="#a" transform="matrix(.004 0 0 -.004 21.44 13.244)"/>
    <use xlink:href="#a" transform="matrix(.004 0 0 -.004 21.44 19.744)"/>
    <use xlink:href="#a" transform="matrix(.004 0 0 -.004 21.44 21.244)"/>
    <use xlink:href="#a" transform="matrix(.004 0 0 -.004 21.44 22.244)"/>
    <use xlink:href="#a" transform="matrix(.004 0 0 -.004 21.44 23.244)"/>
    <rect width=".13" height="6.814" x="-.065" y="-4.314" fill="currentColor" ry=".04" transform="translate(21.504 14.244)"/>
    <rect width=".13" height="6.647" x="-.065" y="-3.314" fill="currentColor" ry=".04" transform="translate(21.504 23.244)"/>
    <path fill="currentColor" stroke="currentColor" stroke-linecap="round" stroke-linejoin="round" stroke-width=".08" d="M78.204 25.044v.4l-10.124.81v-.4z"/>
    <use xlink:href="#a" transform="matrix(.004 0 0 -.004 25.838 9.744)"/>
    <use xlink:href="#a" transform="matrix(.004 0 0 -.004 25.838 11.244)"/>
    <use xlink:href="#a" transform="matrix(.004 0 0 -.004 25.838 12.244)"/>
    <use xlink:href="#a" transform="matrix(.004 0 0 -.004 25.838 13.244)"/>
    <use xlink:href="#a" transform="matrix(.004 0 0 -.004 25.838 19.744)"/>
    <use xlink:href="#a" transform="matrix(.004 0 0 -.004 25.838 21.244)"/>
    <use xlink:href="#a" transform="matrix(.004 0 0 -.004 25.838 22.244)"/>
    <use xlink:href="#a" transform="matrix(.004 0 0 -.004 25.838 23.244)"/>
    <rect width=".13" height="6.814" x="-.065" y="-4.314" fill="currentColor" ry=".04" transform="translate(25.903 14.244)"/>
    <rect width=".13" height="6.647" x="-.065" y="-3.314" fill="currentColor" ry=".04" transform="translate(25.903 23.244)"/>
    <path fill="currentColor" stroke="currentColor" stroke-linecap="round" stroke-linejoin="round" stroke-width=".08" d="M81.918 12.7c1.232-1.445 5.223-2.03 6.818-1h0c-1.577-.911-5.568-.326-6.818 1z"/>
    <use xlink:href="#d" transform="matrix(.0028 0 0 -.0028 29.402 10.244)"/>
    <rect width=".13" height="2.897" x="-.065" y="-7.011" fill="currentColor" ry=".04" transform="translate(30.255 14.244)"/>
    <use xlink:href="#d" transform="matrix(.0028 0 0 -.0028 30.778 9.744)"/>
    <rect width=".13" height="2.636" x="-.065" y="-7.25" fill="currentColor" ry=".04" transform="translate(31.631 14.244)"/>
    <path fill="currentColor" stroke="currentColor" stroke-linecap="round" stroke-linejoin="round" stroke-width=".08" d="M64.842 15.044v.4l-2.386-.262v-.4zm0 .81v.4l-5.753-.62v-.4z"/>
    <use xlink:href="#d" transform="matrix(.0028 0 0 -.0028 32.155 9.244)"/>
    <rect width=".13" height="2.374" x="-.065" y="-7.489" fill="currentColor" ry=".04" transform="translate(33.008 14.244)"/>
    <path fill="currentColor" stroke="currentColor" stroke-linecap="round" stroke-linejoin="round" stroke-width=".08" d="M58.577 8.592v.304l-2.751.5v-.304zm0 .648v.304l-2.751.5V9.74zm0 .648v.304l-2.751.5v-.304z"/>
    <use xlink:href="#a" transform="matrix(.004 0 0 -.004 33.532 9.744)"/>
    <use xlink:href="#e" transform="matrix(.004 0 0 -.004 33.532 23.244)"/>
    <rect width=".13" height="4.314" x="-.065" y="-4.314" fill="currentColor" ry=".04" transform="translate(33.597 14.244)"/>
    <use xlink:href="#a" transform="matrix(.004 0 0 -.004 36.9 10.244)"/>
    <rect width=".13" height="3.814" x="-.065" y="-3.814" fill="currentColor" ry=".04" transform="translate(36.964 14.244)"/>
    <path fill="currentColor" stroke="currentColor" stroke-linecap="round" stroke-linejoin="round" stroke-width=".08" d="M39.325 13.234v.4h-2.386v-.4zm0 .81v.4h-5.753v-.4z"/>
    <use xlink:href="#a" transform="matrix(.004 0 0 -.004 39.235 10.744)"/>
    <rect width=".13" height="3.314" x="-.065" y="-3.314" fill="currentColor" ry=".04" transform="translate(39.3 14.244)"/>
    <path fill="currentColor" stroke="currentColor" stroke-linecap="round" stroke-linejoin="round" stroke-width=".08" d="M33.033 6.592v.304l-2.804.5v-.304zm0 .648v.304l-2.804.5V7.74zm0 .648v.304l-2.804.5v-.304z"/>
    <use xlink:href="#a" transform="matrix(.004 0 0 -.004 42.686 11.244)"/>
    <use xlink:href="#a" transform="matrix(.004 0 0 -.004 42.686 19.744)"/>
    <use xlink:href="#a" transform="matrix(.004 0 0 -.004 42.686 21.244)"/>
    <use xlink:href="#a" transform="matrix(.004 0 0 -.004 42.686 22.244)"/>
    <use xlink:href="#a" transform="matrix(.004 0 0 -.004 42.686 23.244)"/>
    <rect width=".13" height="3.314" x="-.065" y="-2.814" fill="currentColor" ry=".04" transform="translate(42.75 14.244)"/>
    <rect width=".13" height="6.647" x="-.065" y="-3.314" fill="currentColor" ry=".04" transform="translate(42.75 23.244)"/>
    <use xlink:href="#a" transform="matrix(.004 0 0 -.004 47.084 11.244)"/>
    <use xlink:href="#a" transform="matrix(.004 0 0 -.004 47.084 12.244)"/>
    <use xlink:href="#a" transform="matrix(.004 0 0 -.004 47.084 13.244)"/>
    <use xlink:href="#a" transform="matrix(.004 0 0 -.004 47.084 14.744)"/>
    <use xlink:href="#a" transform="matrix(.004 0 0 -.004 47.084 19.744)"/>
    <use xlink:href="#a" transform="matrix(.004 0 0 -.004 47.084 21.244)"/>
    <use xlink:href="#a" transform="matrix(.004 0 0 -.004 47.084 22.244)"/>
    <use xlink:href="#a" transform="matrix(.004 0 0 -.004 47.084 23.244)"/>
    <rect width=".13" height="6.481" x="-.065" y="-2.814" fill="currentColor" ry=".04" transform="translate(47.15 14.244)"/>
    <rect width=".13" height="6.647" x="-.065" y="-3.314" fill="currentColor" ry=".04" transform="translate(47.15 23.244)"/>
    <use xlink:href="#a" transform="matrix(.004 0 0 -.004 51.483 11.244)"/>
    <use xlink:href="#a" transform="matrix(.004 0 0 -.004 51.483 12.244)"/>
    <use xlink:href="#a" transform="matrix(.004 0 0 -.004 51.483 13.244)"/>
    <use xlink:href="#a" transform="matrix(.004 0 0 -.004 51.483 14.744)"/>
    <use xlink:href="#a" transform="matrix(.004 0 0 -.004 51.483 19.744)"/>
    <use xlink:href="#a" transform="matrix(.004 0 0 -.004 51.483 21.244)"/>
    <use xlink:href="#a" transform="matrix(.004 0 0 -.004 51.483 22.244)"/>
    <use xlink:href="#a" transform="matrix(.004 0 0 -.004 51.483 23.244)"/>
    <rect width=".13" height="6.481" x="-.065" y="-2.814" fill="currentColor" ry=".04" transform="translate(51.548 14.244)"/>
    <rect width=".13" height="6.647" x="-.065" y="-3.314" fill="currentColor" ry=".04" transform="translate(51.548 23.244)"/>
    <use xlink:href="#d" transform="matrix(.0028 0 0 -.0028 54.998 12.244)"/>
    <rect width=".13" height="2.897" x="-.065" y="-5.011" fill="currentColor" ry=".04" transform="translate(55.85 14.244)"/>
    <path fill="currentColor" stroke="currentColor" stroke-linecap="round" stroke-linejoin="round" stroke-width=".08" d="M93.55 24.854v.4H81.368v-.4z"/>
    <use xlink:href="#d" transform="matrix(.0028 0 0 -.0028 56.348 11.744)"/>
    <rect width=".13" height="2.636" x="-.065" y="-5.25" fill="currentColor" ry=".04" transform="translate(57.201 14.244)"/>
    <use xlink:href="#d" transform="matrix(.0028 0 0 -.0028 57.699 11.244)"/>
    <rect width=".13" height="2.374" x="-.065" y="-5.489" fill="currentColor" ry=".04" transform="translate(58.551 14.244)"/>
    <use xlink:href="#a" transform="matrix(.004 0 0 -.004 59.05 11.744)"/>
    <use xlink:href="#e" transform="matrix(.004 0 0 -.004 59.05 23.244)"/>
    <rect width=".13" height="3.511" x="-.065" y="-2.314" fill="currentColor" ry=".04" transform="translate(59.114 14.244)"/>
    <use xlink:href="#a" transform="matrix(.004 0 0 -.004 62.416 12.244)"/>
    <rect width=".13" height="3.369" x="-.065" y="-1.814" fill="currentColor" ry=".04" transform="translate(62.481 14.244)"/>
    <use xlink:href="#a" transform="matrix(.004 0 0 -.004 64.752 12.744)"/>
    <rect width=".13" height="3.117" x="-.065" y="-1.314" fill="currentColor" ry=".04" transform="translate(64.817 14.244)"/>
    <use xlink:href="#a" transform="matrix(.004 0 0 -.004 68.04 13.244)"/>
    <use xlink:href="#a" transform="matrix(.004 0 0 -.004 68.04 23.244)"/>
    <rect width=".16" height="13.1" y="-6.55" fill="currentColor" ry=".05" transform="translate(5.63 18.744)"/>
    <rect width=".13" height="3.314" x="-.065" y="-.814" fill="currentColor" ry=".04" transform="translate(68.105 14.244)"/>
    <use xlink:href="#f" transform="matrix(.004 0 0 -.004 68.17 16.704)"/>
    <rect width=".13" height="2.619" x="-.065" y=".186" fill="currentColor" ry=".04" transform="translate(68.105 23.244)"/>
    <path fill="currentColor" d="M5.007 20.208c0-1.02-.528-1.452-.528-1.464 0-.072.528-.384.528-1.464 0-1.044-.432-1.956-.432-3.12 0-.756.18-1.464.708-2.004.06-.06.156.036.096.096-.396.396-.516.9-.516 1.44 0 1.02.408 1.92.408 3.06 0 .744-.18 1.452-.696 1.992.516.54.696 1.248.696 1.992 0 1.14-.408 2.04-.408 3.06 0 .54.12 1.044.516 1.44.06.06-.036.156-.096.096-.528-.54-.708-1.248-.708-2.004 0-1.164.432-2.076.432-3.12z"/>
    <use xlink:href="#g" transform="matrix(.004 0 0 -.004 71.532 14.244)"/>
    <use xlink:href="#a" transform="matrix(.004 0 0 -.004 71.532 21.244)"/>
    <rect width=".13" height="4.341" x="-.065" y="-1.814" fill="currentColor" ry=".04" transform="translate(71.597 23.244)"/>
    <use xlink:href="#a" transform="matrix(.004 0 0 -.004 74.622 13.244)"/>
    <path fill="currentColor" d="M75.184 18.337c.312 0 .388-.704.388-.712 0-.072-.028-.132-.1-.132-.244 0-.408.496-.408.692 0 .088.032.152.12.152zm-.856-.436c0-.008.204-.604.536-.604.14 0 .236.084.264.208.116-.124.268-.208.412-.208.276 0 .428.196.428.456 0 .472-.42.744-.636.744-.212 0-.28-.08-.336-.08-.028 0-.056.012-.064.036l-.116.344c-.004.008-.004.02-.004.028 0 .148.228.072.228.168 0 .028-.016.056-.052.056-.012 0-.2-.02-.464-.02s-.448.02-.46.02a.055.055 0 0 1-.056-.056c0-.124.348.004.408-.164l.408-1.2a.315.315 0 0 0 .016-.08c0-.032-.008-.056-.044-.056-.132 0-.252.24-.316.388a.104.104 0 0 1-.096.068c-.032 0-.056-.016-.056-.048z"/>
    <use xlink:href="#a" transform="matrix(.004 0 0 -.004 74.622 22.244)"/>
    <rect width=".13" height="3.314" x="-.065" y="-.814" fill="currentColor" ry=".04" transform="translate(74.687 14.244)"/>
    <use xlink:href="#f" transform="matrix(.004 0 0 -.004 74.752 16.704)"/>
    <rect width=".13" height="3.096" x="-.065" y="-.814" fill="currentColor" ry=".04" transform="translate(74.687 23.244)"/>
    <use xlink:href="#g" transform="matrix(.004 0 0 -.004 78.114 14.244)"/>
    <use xlink:href="#a" transform="matrix(.004 0 0 -.004 78.114 21.244)"/>
    <rect width=".13" height="3.819" x="-.065" y="-1.814" fill="currentColor" ry=".04" transform="translate(78.179 23.244)"/>
    <use xlink:href="#a" transform="matrix(.004 0 0 -.004 81.329 13.744)"/>
    <use xlink:href="#a" transform="matrix(.004 0 0 -.004 81.329 21.744)"/>
    <path fill="currentColor" d="M83.083 13.744a.224.224 0 1 1 .447 0 .224.224 0 0 1-.447 0z"/>
    <rect width=".13" height="3.309" x="-.065" y="-.314" fill="currentColor" ry=".04" transform="translate(81.394 14.244)"/>
    <rect width=".13" height="3.124" x="-.065" y="-1.314" fill="currentColor" ry=".04" transform="translate(81.394 23.244)"/>
    <use xlink:href="#a" transform="matrix(.004 0 0 -.004 84.696 21.244)"/>
    <rect width=".13" height="3.624" x="-.065" y="-1.814" fill="currentColor" ry=".04" transform="translate(84.761 23.244)"/>
    <use xlink:href="#a" transform="matrix(.004 0 0 -.004 86.327 13.244)"/>
    <rect width=".13" height="3.45" x="-.065" y="-.814" fill="currentColor" ry=".04" transform="translate(86.392 14.244)"/>
    <use xlink:href="#a" transform="matrix(.004 0 0 -.004 88.147 12.744)"/>
    <rect width=".13" height="3.819" x="-.065" y="-1.314" fill="currentColor" ry=".04" transform="translate(88.212 14.244)"/>
    <use xlink:href="#a" transform="matrix(.004 0 0 -.004 89.967 13.244)"/>
    <use xlink:href="#a" transform="matrix(.004 0 0 -.004 89.967 22.244)"/>
    <rect width=".13" height="3.314" x="-.065" y="-.814" fill="currentColor" ry=".04" transform="translate(90.032 14.244)"/>
    <use xlink:href="#f" transform="matrix(.004 0 0 -.004 90.097 16.704)"/>
    <rect width=".13" height="2.624" x="-.065" y="-.814" fill="currentColor" ry=".04" transform="translate(90.032 23.244)"/>
    <use xlink:href="#g" transform="matrix(.004 0 0 -.004 93.46 14.244)"/>
    <use xlink:href="#a" transform="matrix(.004 0 0 -.004 93.46 21.244)"/>
    <rect width=".13" height="3.624" x="-.065" y="-1.814" fill="currentColor" ry=".04" transform="translate(93.524 23.244)"/>
</svg>
