<svg xmlns="http://www.w3.org/2000/svg" xmlns:xlink="http://www.w3.org/1999/xlink" width="680.315" height="60mm" version="1.2" viewBox="0 0 102.43 34.143">
    <defs>
        <path id="a" fill="currentColor" d="M229 0c-88 0-90 66-144 66-30 0-59-20-62-55-1-7-6-11-11-11C6 0 0 4 0 11c0 154 232 170 232 344 0 59-16 122-67 122-25 0-49-14-49-37 0-27 35-41 35-68 0-38-31-69-69-69s-69 31-69 69c0 76 72 128 152 128 95 0 183-57 183-145 0-151-150-159-246-220 9 2 18 3 27 3 83 0 111-59 171-59 48 0 38 38 55 38 6 0 12-5 12-12C367 83 323 0 229 0z"/>
        <path id="b" fill="currentColor" d="M196 117h117c0-48 27-94 72-94 8 0 12-5 12-11s-4-12-12-12c-44 0-87 13-131 13S167 0 123 0c-8 0-12 6-12 12s4 11 12 11c45 0 73 46 73 94zM-2 148c0 12 140 143 140 336 0 10 7 19 16 16 23-7 47-13 71-13s48 6 71 13c14 4 23-9 17-16L29 154h167v131c0 34 34 27 68 72 22 30 23 56 36 56 6 0 13-5 13-14V154h72c10 0 15-7 15-14s-5-15-15-15h-72v-8H196v8H29c-23 0-31 14-31 23z"/>
        <path id="c" fill="currentColor" d="M70 205c79 0 46-98 91-98 16 0 54 48 61 63 6 12 23 12 28 0L127-250c-8-7-17-10-27-10s-20 3-28 10L189 76c-34-12-69-22-105-22-47 0-87 34-87 79 0 40 33 72 73 72z"/>
        <path id="d" fill="currentColor" d="m27 41-1-66v-11c0-22 1-44 4-66 45 38 93 80 93 139 0 33-14 67-43 67-31 0-52-30-53-63zm-42-179-12 595c8 5 18 8 27 8s19-3 27-8l-7-345c25 21 58 34 91 34 52 0 89-48 89-102 0-80-86-117-147-169-15-13-24-38-45-38-13 0-23 11-23 25z"/>
        <path id="e" fill="currentColor" d="M218 136c66 0 108-36 108-89 0-89-113-183-218-183C42-136 0-100 0-47c0 89 113 183 218 183z"/>
        <path id="f" fill="currentColor" d="M125 205c79 0 45-98 90-98 15 0 50 49 57 63 6 12 23 12 28 0L121-500c-8-7-17-10-27-10s-20 3-28 10l101 327c-34-12-70-23-106-23-47 0-87 34-87 79 0 40 32 72 72 72 79 0 46-98 91-98 16 0 55 51 60 68l46 151c-34-12-68-22-104-22-47 0-87 34-87 79 0 40 33 72 73 72z"/>
        <path id="g" fill="currentColor" d="M-297 227c0-15 8-30 39-30 10 0 46 2 103 28l5 24c-23 17-50 29-81 29-51 0-66-31-66-51zm271-123c0-61-47-115-98-115-39 0-56 44-56 91 0 14 1 28 4 41l15 76c-20-8-63-25-101-25-19 0-60 6-60 51 0 38 32 80 96 80 31 0 58-10 82-25l46 232c6-3 13-5 20-5 22 0 48 16 68 35l-53-266 64 36c26 14 51 20 74 20 29 0 53-10 64-28 18 20 44 30 69 30 36 0 69-22 69-69 0-49-31-90-65-90-25 0-38 22-38 48 0 50 37 64 60 64h3c-8 14-23 20-38 20-24 0-50-16-55-43L90-8C79-1 66 3 52 3S23-1 9-8l54 270v7c0 16-12 26-29 26-7 0-16-3-24-7l-79-44-7-31c27-31 50-67 50-109zm-60-65c23 0 35 34 35 61 0 30-14 55-32 78l-5-27c-4-18-13-56-13-83 0-17 4-29 15-29z"/>
    </defs>
    <text fill="currentColor" font-family="serif" font-size="2.47" font-weight="bold" transform="translate(5.69 5.514)">
<tspan style="white-space:pre">Allegretto</tspan>
</text>
    <rect width="1.956" height=".2" x="54.577" y="-.1" fill="currentColor" ry=".1" transform="translate(5.69 8.749)"/>
    <rect width="1.956" height=".2" x="29.893" y="-.1" fill="currentColor" ry=".1" transform="translate(5.69 8.749)"/>
    <path stroke="currentColor" stroke-linecap="round" stroke-linejoin="round" stroke-width=".1" d="M5.74 13.749h90.95m-90.95-1h90.95m-90.95-1h90.95m-90.95-1h90.95m-90.95-1h90.95"/>
    <rect width=".19" height="5.239" y="7.251" fill="currentColor" ry="0" transform="translate(96.55 6.547)"/>
    <rect width="1.956" height=".2" x="51.882" y="-.1" fill="currentColor" ry=".1" transform="translate(5.69 16.038)"/>
    <rect width="1.956" height=".2" x="51.882" y="-.1" fill="currentColor" ry=".1" transform="translate(5.69 17.038)"/>
    <rect width="1.956" height=".2" x="51.882" y="-.1" fill="currentColor" ry=".1" transform="translate(5.69 18.038)"/>
    <rect width="1.956" height=".2" x="48.688" y="-.1" fill="currentColor" ry=".1" transform="translate(5.69 17.038)"/>
    <rect width="1.956" height=".2" x="48.688" y="-.1" fill="currentColor" ry=".1" transform="translate(5.69 18.038)"/>
    <rect width="1.956" height=".2" x="27.199" y="-.1" fill="currentColor" ry=".1" transform="translate(5.69 17.038)"/>
    <rect width="1.956" height=".2" x="27.199" y="-.1" fill="currentColor" ry=".1" transform="translate(5.69 18.038)"/>
    <rect width="1.956" height=".2" x="24.005" y="-.1" fill="currentColor" ry=".1" transform="translate(5.69 18.038)"/>
    <path stroke="currentColor" stroke-linecap="round" stroke-linejoin="round" stroke-width=".1" d="M5.74 23.038h90.95m-90.95-1h90.95m-90.95-1h90.95m-90.95-1h90.95m-90.95-1h90.95"/>
    <rect width=".19" height="4.05" y="-2.05" fill="currentColor" ry="0" transform="translate(96.55 21.038)"/>
    <rect width=".19" height="4.05" y="-2" fill="currentColor" ry="0" transform="translate(96.55 11.749)"/>
    <rect width=".19" height="5.239" y="7.251" fill="currentColor" ry="0" transform="translate(71.87 6.547)"/>
    <rect width=".19" height="4.05" y="-2.05" fill="currentColor" ry="0" transform="translate(71.87 21.038)"/>
    <rect width=".19" height="4.05" y="-2" fill="currentColor" ry="0" transform="translate(71.87 11.749)"/>
    <rect width=".19" height="5.239" y="7.251" fill="currentColor" ry="0" transform="translate(47.186 6.547)"/>
    <rect width=".19" height="4.05" y="-2.05" fill="currentColor" ry="0" transform="translate(47.186 21.038)"/>
    <rect width=".19" height="4.05" y="-2" fill="currentColor" ry="0" transform="translate(47.186 11.749)"/>
    <rect width=".19" height="5.239" y="7.251" fill="currentColor" ry="0" transform="translate(22.513 6.547)"/>
    <rect width=".19" height="4.05" y="-2.05" fill="currentColor" ry="0" transform="translate(22.513 21.038)"/>
    <rect width=".19" height="4.05" y="-2" fill="currentColor" ry="0" transform="translate(22.513 11.749)"/>
    <use xlink:href="#a" transform="matrix(.004 0 0 -.004 13.049 11.749)"/>
    <use xlink:href="#b" transform="matrix(.004 0 0 -.004 12.98 13.765)"/>
    <use xlink:href="#c" transform="matrix(.004 0 0 -.004 16.585 21.038)"/>
    <path fill="currentColor" d="M8.719 20.538c0-.112.092-.204.204-.204s.204.092.204.204-.092.204-.204.204-.204-.092-.204-.204zm0-1c0-.112.092-.204.204-.204s.204.092.204.204-.092.204-.204.204-.204-.092-.204-.204zm-1.3-.552c.688 0 1.172.352 1.172 1.004 0 1.052-1.052 1.656-2.064 2.084a.049.049 0 0 1-.036.016.053.053 0 0 1-.052-.052c0-.012.004-.024.016-.036.808-.472 1.648-1.06 1.648-1.972 0-.48-.252-.94-.684-.94-.296 0-.516.216-.616.504a.323.323 0 0 1 .136-.032c.22 0 .4.18.4.4 0 .232-.176.424-.4.424-.24 0-.448-.188-.448-.424 0-.532.408-.976.928-.976z"/>
    <use xlink:href="#d" transform="matrix(.004 0 0 -.004 10.11 22.038)"/>
    <use xlink:href="#d" transform="matrix(.004 0 0 -.004 11.03 20.538)"/>
    <use xlink:href="#a" transform="matrix(.004 0 0 -.004 13.049 21.038)"/>
    <use xlink:href="#b" transform="matrix(.004 0 0 -.004 12.98 23.054)"/>
    <path fill="currentColor" d="M18.34 10.249a.224.224 0 1 1 .447-.001.224.224 0 0 1-.447 0z"/>
    <rect width=".13" height="3.811" x="-.065" y="-.814" fill="currentColor" ry=".04" transform="translate(16.65 11.749)"/>
    <path fill="currentColor" stroke="currentColor" stroke-linecap="round" stroke-linejoin="round" stroke-width=".08" d="M93.793 14.549v.4l-8.633-1v-.4zm0 .81v.4l-8.633-1v-.4z"/>
    <use xlink:href="#e" transform="matrix(.004 0 0 -.004 20.489 10.249)"/>
    <rect width=".13" height="4.127" x="-.065" y="-1.314" fill="currentColor" ry=".04" transform="translate(20.554 11.749)"/>
    <path fill="currentColor" stroke="currentColor" stroke-linecap="round" stroke-linejoin="round" stroke-width=".08" d="M82.016 13.739v.4l-8.632-1v-.4zm0 .81v.4l-8.632-1v-.4zm8.833 8.479v.4l-11.827.62v-.4z"/>
    <use xlink:href="#e" transform="matrix(.004 0 0 -.004 23.987 9.749)"/>
    <use xlink:href="#e" transform="matrix(.004 0 0 -.004 23.987 10.749)"/>
    <use xlink:href="#d" transform="matrix(.004 0 0 -.004 10.11 11.749)"/>
    <use xlink:href="#d" transform="matrix(.004 0 0 -.004 11.03 10.249)"/>
    <use xlink:href="#f" transform="matrix(.004 0 0 -.004 23.987 21.038)"/>
    <path fill="currentColor" d="M7.555 15.289H7.53a.783.783 0 0 1-.78-.788c0-.232.212-.412.448-.412.216 0 .38.188.38.412 0 .208-.172.38-.38.38a.326.326 0 0 1-.124-.024c.104.156.272.26.468.26h.016zm.78-1.728a.69.69 0 0 0 .452-.656.764.764 0 0 0-.692-.76c.076.356.192.968.24 1.416zm-1.548-.924c0 .58.564.988 1.056.988.004 0 .188 0 .328-.024a17.343 17.343 0 0 0-.252-1.456c-.316.032-.496.244-.496.476 0 .176.1.364.324.492.02.02.028.04.028.06 0 .044-.04.088-.088.088-.06 0-.504-.248-.504-.748 0-.352.232-.696.64-.788a15.048 15.048 0 0 0-.184-.7c-.428.484-.852.972-.852 1.612zm.704-2.1c-.116-.384-.208-.68-.208-1.384 0-.46.22-.896.596-1.168a.06.06 0 0 1 .08 0c.272.32.532.98.532 1.432 0 .572-.344 1.02-.72 1.456.084.272.156.552.224.828.008 0 .028-.004.052-.004.62 0 1.024.512 1.024 1.044 0 .452-.296.848-.72.984.012.14.02.28.02.42 0 .076-.004.156-.008.232-.028.476-.352.9-.808.912l.004-.172c.372-.008.612-.368.636-.764a3.775 3.775 0 0 0-.008-.588c-.02.004-.176.032-.356.032-.772 0-1.332-.72-1.332-1.496 0-.708.524-1.224.992-1.764zm.712-1.452c0-.136.004-.264-.08-.516a1.153 1.153 0 0 0-.648 1.036c0 .208.048.46.144.776.32-.388.584-.792.584-1.296z"/>
    <rect width=".13" height="4.314" x="-.065" y="-1.814" fill="currentColor" ry=".04" transform="translate(24.052 11.749)"/>
    <use xlink:href="#e" transform="matrix(.004 0 0 -.004 16.585 10.749)"/>
    <path fill="currentColor" stroke="currentColor" stroke-linecap="round" stroke-linejoin="round" stroke-width=".08" d="M69.265 11.739v.4l-8.632-.19v-.4zm0 .81v.4l-8.632-.19v-.4z"/>
    <use xlink:href="#e" transform="matrix(.004 0 0 -.004 26.827 18.538)"/>
    <rect width=".13" height="2.809" x="-.065" y="-2.314" fill="currentColor" ry=".04" transform="translate(26.892 21.038)"/>
    <path fill="currentColor" stroke="currentColor" stroke-linecap="round" stroke-linejoin="round" stroke-width=".08" d="M57.989 20.028v.4l-6.438.5v-.4zm0 .81v.4l-6.438.5v-.4z"/>
    <use xlink:href="#e" transform="matrix(.004 0 0 -.004 30.021 17.538)"/>
    <rect width=".13" height="3.564" x="-.065" y="-3.314" fill="currentColor" ry=".04" transform="translate(30.086 21.038)"/>
    <path fill="currentColor" stroke="currentColor" stroke-linecap="round" stroke-linejoin="round" stroke-width=".08" d="M61.295 7.204c1.792-1.183 7.111-.563 8.583 1h0c-1.486-1.444-6.805-2.064-8.583-1z"/>
    <use xlink:href="#e" transform="matrix(.004 0 0 -.004 33.215 16.538)"/>
    <rect width=".13" height="4.319" x="-.065" y="-4.314" fill="currentColor" ry=".04" transform="translate(33.28 21.038)"/>
    <path fill="currentColor" stroke="currentColor" stroke-linecap="round" stroke-linejoin="round" stroke-width=".08" d="M52.005 17.493c.872-1.68 4.607-3.142 6.388-2.5h0c-1.738-.53-5.472.931-6.389 2.5z"/>
    <use xlink:href="#e" transform="matrix(.004 0 0 -.004 35.91 8.249)"/>
    <use xlink:href="#e" transform="matrix(.004 0 0 -.004 35.91 18.538)"/>
    <rect width=".13" height="4.32" x="-.065" y="-3.314" fill="currentColor" ry=".04" transform="translate(35.974 11.749)"/>
    <rect width=".13" height="3.314" x="-.065" y="-2.314" fill="currentColor" ry=".04" transform="translate(35.974 21.038)"/>
    <path fill="currentColor" stroke="currentColor" stroke-linecap="round" stroke-linejoin="round" stroke-width=".08" d="M44.582 12.549v.4l-8.633-.81v-.4zm0 .81v.4l-8.633-.81v-.4z"/>
    <use xlink:href="#e" transform="matrix(.004 0 0 -.004 38.604 9.749)"/>
    <rect width=".13" height="3.07" x="-.065" y="-1.814" fill="currentColor" ry=".04" transform="translate(38.669 11.749)"/>
    <path fill="currentColor" stroke="currentColor" stroke-linecap="round" stroke-linejoin="round" stroke-width=".08" d="M33.305 20.028v.4l-6.438.5v-.4zm0 .81v.4l-6.438.5v-.4z"/>
    <use xlink:href="#e" transform="matrix(.004 0 0 -.004 41.298 10.749)"/>
    <rect width=".13" height="2.321" x="-.065" y="-.814" fill="currentColor" ry=".04" transform="translate(41.363 11.749)"/>
    <path fill="currentColor" stroke="currentColor" stroke-linecap="round" stroke-linejoin="round" stroke-width=".08" d="M36.636 7.204c1.865-1.082 7.195-.15 8.583 1.5h0c-1.408-1.532-6.739-2.464-8.583-1.5z"/>
    <use xlink:href="#e" transform="matrix(.004 0 0 -.004 44.492 9.749)"/>
    <rect width=".13" height="3.618" x="-.065" y="-1.814" fill="currentColor" ry=".04" transform="translate(44.557 11.749)"/>
    <path fill="currentColor" stroke="currentColor" stroke-linecap="round" stroke-linejoin="round" stroke-width=".08" d="M27.35 17.493c.97-1.595 4.681-2.757 6.388-2h0c-1.67-.642-5.383.52-6.389 2zm-6.771-4.754v.4l-1.085.054v-.4zm0 .81v.4l-3.954.19v-.4zm0 .81v.4l-3.954.19v-.4z"/>
    <use xlink:href="#e" transform="matrix(.004 0 0 -.004 48.67 9.249)"/>
    <use xlink:href="#e" transform="matrix(.004 0 0 -.004 48.67 10.249)"/>
    <use xlink:href="#f" transform="matrix(.004 0 0 -.004 48.67 21.038)"/>
    <rect width=".13" height="4.314" x="-.065" y="-2.314" fill="currentColor" ry=".04" transform="translate(48.736 11.749)"/>
    <use xlink:href="#e" transform="matrix(.004 0 0 -.004 51.51 18.538)"/>
    <rect width=".13" height="2.809" x="-.065" y="-2.314" fill="currentColor" ry=".04" transform="translate(51.576 21.038)"/>
    <use xlink:href="#e" transform="matrix(.004 0 0 -.004 54.705 17.038)"/>
    <rect width=".13" height="4.064" x="-.065" y="-3.814" fill="currentColor" ry=".04" transform="translate(54.77 21.038)"/>
    <use xlink:href="#e" transform="matrix(.004 0 0 -.004 57.899 16.038)"/>
    <rect width=".13" height="4.819" x="-.065" y="-4.814" fill="currentColor" ry=".04" transform="translate(57.964 21.038)"/>
    <use xlink:href="#e" transform="matrix(.004 0 0 -.004 60.593 8.249)"/>
    <use xlink:href="#e" transform="matrix(.004 0 0 -.004 60.593 18.538)"/>
    <rect width=".13" height="4.125" x="-.065" y="-3.314" fill="currentColor" ry=".04" transform="translate(60.658 11.749)"/>
    <rect width=".13" height="3.314" x="-.065" y="-2.314" fill="currentColor" ry=".04" transform="translate(60.658 21.038)"/>
    <use xlink:href="#e" transform="matrix(.004 0 0 -.004 63.287 9.249)"/>
    <rect width=".13" height="3.184" x="-.065" y="-2.314" fill="currentColor" ry=".04" transform="translate(63.352 11.749)"/>
    <use xlink:href="#e" transform="matrix(.004 0 0 -.004 65.981 10.249)"/>
    <rect width=".13" height="2.243" x="-.065" y="-1.314" fill="currentColor" ry=".04" transform="translate(66.046 11.749)"/>
    <use xlink:href="#e" transform="matrix(.004 0 0 -.004 69.175 9.249)"/>
    <rect width=".13" height="3.313" x="-.065" y="-2.314" fill="currentColor" ry=".04" transform="translate(69.24 11.749)"/>
    <use xlink:href="#e" transform="matrix(.004 0 0 -.004 73.344 9.749)"/>
    <use xlink:href="#c" transform="matrix(.004 0 0 -.004 73.344 21.038)"/>
    <rect width=".16" height="13.389" y="-6.695" fill="currentColor" ry=".05" transform="translate(5.63 16.393)"/>
    <rect width=".13" height="3.821" x="-.065" y="-1.814" fill="currentColor" ry=".04" transform="translate(73.409 11.749)"/>
    <path fill="currentColor" d="M5.007 17.881c0-1.032-.54-1.476-.54-1.488 0-.072.54-.396.54-1.488 0-1.068-.444-1.992-.444-3.18 0-.768.192-1.5.72-2.04.06-.06.156.024.096.084-.396.408-.528.924-.528 1.476 0 1.044.42 1.956.42 3.12 0 .756-.18 1.476-.696 2.028.516.552.696 1.272.696 2.028 0 1.164-.42 2.076-.42 3.12 0 .552.132 1.068.528 1.476.06.06-.036.144-.096.084-.528-.54-.72-1.272-.72-2.04 0-1.188.444-2.112.444-3.18z"/>
    <use xlink:href="#e" transform="matrix(.004 0 0 -.004 76.038 10.749)"/>
    <rect width=".13" height="3.131" x="-.065" y="-.814" fill="currentColor" ry=".04" transform="translate(76.103 11.749)"/>
    <use xlink:href="#e" transform="matrix(.004 0 0 -.004 78.982 11.249)"/>
    <use xlink:href="#g" transform="matrix(.004 0 0 -.004 79.634 9.449)"/>
    <use xlink:href="#e" transform="matrix(.004 0 0 -.004 78.982 21.038)"/>
    <rect width=".13" height="2.969" x="-.065" y="-.314" fill="currentColor" ry=".04" transform="translate(79.047 11.749)"/>
    <rect width=".13" height="2.62" x="-.065" y=".186" fill="currentColor" ry=".04" transform="translate(79.047 21.038)"/>
    <use xlink:href="#e" transform="matrix(.004 0 0 -.004 81.926 11.749)"/>
    <rect width=".13" height="2.806" x="-.065" y=".186" fill="currentColor" ry=".04" transform="translate(81.991 11.749)"/>
    <use xlink:href="#e" transform="matrix(.004 0 0 -.004 85.12 10.249)"/>
    <use xlink:href="#e" transform="matrix(.004 0 0 -.004 85.12 20.538)"/>
    <rect width=".13" height="4.131" x="-.065" y="-1.314" fill="currentColor" ry=".04" transform="translate(85.185 11.749)"/>
    <rect width=".13" height="2.801" x="-.065" y="-.314" fill="currentColor" ry=".04" transform="translate(85.185 21.038)"/>
    <use xlink:href="#e" transform="matrix(.004 0 0 -.004 87.814 11.249)"/>
    <rect width=".13" height="3.441" x="-.065" y="-.314" fill="currentColor" ry=".04" transform="translate(87.88 11.749)"/>
    <use xlink:href="#e" transform="matrix(.004 0 0 -.004 90.759 11.749)"/>
    <use xlink:href="#g" transform="matrix(.004 0 0 -.004 91.41 9.449)"/>
    <use xlink:href="#e" transform="matrix(.004 0 0 -.004 90.759 20.038)"/>
    <rect width=".13" height="3.279" x="-.065" y=".186" fill="currentColor" ry=".04" transform="translate(90.824 11.749)"/>
    <rect width=".13" height="3.007" x="-.065" y="-.814" fill="currentColor" ry=".04" transform="translate(90.824 21.038)"/>
    <use xlink:href="#e" transform="matrix(.004 0 0 -.004 93.703 12.249)"/>
    <rect width=".13" height="3.116" x="-.065" y=".686" fill="currentColor" ry=".04" transform="translate(93.768 11.749)"/>
</svg>
