<svg xmlns="http://www.w3.org/2000/svg" xmlns:xlink="http://www.w3.org/1999/xlink" width="805.039" height="181.72" version="1.2" viewBox="0 0 121.211 27.361">
    <defs>
        <path id="reuse-0" fill="currentColor" d="m27 41-1-66v-11c0-22 1-44 4-66 45 38 93 80 93 139 0 33-14 67-43 67-31 0-52-30-53-63zm-42-179-12 595c8 5 18 8 27 8s19-3 27-8l-7-345c25 21 58 34 91 34 52 0 89-48 89-102 0-80-86-117-147-169-15-13-24-38-45-38-13 0-23 11-23 25z"/>
        <path id="reuse-1" fill="currentColor" d="M263 265c0-33 70-23 70-125C333 48 254 0 154 0 75 0 0 42 0 113c0 36 30 66 66 66s65-30 65-66c0-25-40-28-40-53 0-27 32-37 63-37 49 0 63 61 63 117v16c0 54-2 94-50 94H87c-10 0-14 8-14 15s4 14 14 14h80c49 0 50 43 50 99v8c0 54-18 91-67 91-28 0-57-9-57-33 0-22 35-25 35-47 0-32-25-58-57-58s-58 26-58 58c0 64 67 103 137 103 91 0 169-33 169-114 0-122-56-80-56-121z"/>
        <path id="reuse-2" fill="currentColor" d="M196 117h117c0-48 27-94 72-94 8 0 12-5 12-11s-4-12-12-12c-44 0-87 13-131 13S167 0 123 0c-8 0-12 6-12 12s4 11 12 11c45 0 73 46 73 94zM-2 148c0 12 140 143 140 336 0 10 7 19 16 16 23-7 47-13 71-13s48 6 71 13c14 4 23-9 17-16L29 154h167v131c0 34 34 27 68 72 22 30 23 56 36 56 6 0 13-5 13-14V154h72c10 0 15-7 15-14s-5-15-15-15h-72v-8H196v8H29c-23 0-31 14-31 23z"/>
        <path id="reuse-3" fill="currentColor" d="M218 136c66 0 108-36 108-89 0-89-113-183-218-183C42-136 0-100 0-47c0 89 113 183 218 183z"/>
        <path id="reuse-4" fill="currentColor" d="M0 0h-16v250H0V0zm0 0v250c97 59 224 148 224 259 0 57-15 112-40 163-3 16 10 27 23 27 7 0 15-3 20-11 25-56 40-117 40-179C267 306 0 203 0 0z"/>
        <path id="reuse-5" fill="currentColor" d="M70 205c79 0 46-98 91-98 16 0 54 48 61 63 6 12 23 12 28 0L127-250c-8-7-17-10-27-10s-20 3-28 10L189 76c-34-12-69-22-105-22-47 0-87 34-87 79 0 40 33 72 73 72z"/>
        <path id="reuse-6" fill="currentColor" d="M253 245 203 82C173-17 82-173-15-173c-45 0-87 27-87 69 0 39 17 77 52 77 24 0 44-20 44-44 0-30-38-24-38-54 0-10 11-11 23-11h6c48 0 61 58 73 108l68 273H77c-11 0-19 8-19 19s8 19 19 19h60c32 96 118 191 213 191 45 0 87-27 87-69 0-39-17-77-52-77-24 0-44 19-44 43 0 30 38 25 38 55 0 10-10 11-22 11h-7c-62 0-70-88-86-154h55c11 0 19-8 19-19s-8-19-19-19h-66z"/>
        <path id="reuse-7" fill="currentColor" d="M161 32c78 0 97 176 97 178 0 18-7 33-25 33-61 0-102-124-102-173 0-22 8-38 30-38zM-53 141c0 2 51 151 134 151 35 0 59-21 66-52 29 31 67 52 103 52 69 0 107-49 107-114C357 60 252-8 198-8c-53 0-70 20-84 20-7 0-14-3-16-9L69-83c-1-2-1-5-1-7 0-37 57-18 57-42 0-7-4-14-13-14-3 0-50 5-116 5s-112-5-115-5c-9 0-14 7-14 14 0 31 87-1 102 41L71 209c2 7 4 14 4 20 0 8-2 14-11 14-33 0-63-60-79-97-5-12-15-17-24-17-8 0-14 4-14 12z"/>
        <path id="reuse-8" fill="currentColor" d="M-6 78c0 59 124 83 124 182 0 24-8 49-25 69l-35 42c-3 3-4 7-4 10 0 9 9 15 17 15 4 0 8-1 11-5l151-180c7-9 10-17 10-25 0-59-124-83-124-182 0-24 7-49 24-69l84-99c3-3 4-7 4-10 0-9-8-16-16-16s-45 44-109 44c-16 0-53 0-53-67 0-35 11-74 28-94 7-8-5-19-12-11-45 54-92 148-92 202 0 41 27 42 40 42 33 0 78-13 119-31L4 53C-3 62-6 70-6 78z"/>
        <path id="reuse-9" fill="currentColor" d="M0 0v-250h-16V0H0zm0 0c0-197 207-336 207-533 0-71-15-141-41-207-5-8-13-12-20-12-13 0-26 11-23 27 26 61 42 126 42 192 0 103-94 208-165 283V0z"/>
    </defs>
    <style>
        tspan{white-space:pre}
    </style>
    <rect width="1.956" height=".2" x="17.825" y="-.1" fill="currentColor" ry=".1" transform="translate(5.69 9.902)"/>
    <rect width="1.956" height=".2" x="10.569" y="-.1" fill="currentColor" ry=".1" transform="translate(5.69 8.902)"/>
    <rect width="1.956" height=".2" x="10.569" y="-.1" fill="currentColor" ry=".1" transform="translate(5.69 9.902)"/>
    <path stroke="currentColor" stroke-linecap="round" stroke-linejoin="round" stroke-width=".1" d="M5.74 14.902h108.558m-108.558-1h108.558m-108.558-1h108.558m-108.558-1h108.558m-108.558-1h108.558"/>
    <rect width=".19" height="4.95" y="11.107" fill="currentColor" ry="0" transform="translate(114.158 3.845)"/>
    <path stroke="currentColor" stroke-linecap="round" stroke-linejoin="round" stroke-width=".1" d="M5.74 23.902h108.558m-108.558-1h108.558m-108.558-1h108.558m-108.558-1h108.558m-108.558-1h108.558"/>
    <rect width=".19" height="4.05" y="-2.05" fill="currentColor" ry="0" transform="translate(114.158 21.902)"/>
    <rect width=".19" height="4.05" y="-2" fill="currentColor" ry="0" transform="translate(114.158 12.902)"/>
    <rect width=".19" height="4.95" y="11.107" fill="currentColor" ry="0" transform="translate(87.923 3.845)"/>
    <rect width=".19" height="4.05" y="-2.05" fill="currentColor" ry="0" transform="translate(87.923 21.902)"/>
    <rect width=".19" height="4.05" y="-2" fill="currentColor" ry="0" transform="translate(87.923 12.902)"/>
    <rect width=".19" height="4.95" y="11.107" fill="currentColor" ry="0" transform="translate(64.908 3.845)"/>
    <rect width=".19" height="4.05" y="-2.05" fill="currentColor" ry="0" transform="translate(64.908 21.902)"/>
    <rect width=".19" height="4.05" y="-2" fill="currentColor" ry="0" transform="translate(64.908 12.902)"/>
    <rect width=".19" height="4.95" y="11.107" fill="currentColor" ry="0" transform="translate(38.51 3.845)"/>
    <rect width=".19" height="4.05" y="-2.05" fill="currentColor" ry="0" transform="translate(38.51 21.902)"/>
    <rect width=".19" height="4.05" y="-2" fill="currentColor" ry="0" transform="translate(38.51 12.902)"/>
    <path fill="currentColor" d="M7.555 16.442H7.53a.783.783 0 0 1-.78-.788c0-.232.212-.412.448-.412.216 0 .38.188.38.412 0 .208-.172.38-.38.38a.326.326 0 0 1-.124-.024c.104.156.272.26.468.26h.016zm.78-1.728a.69.69 0 0 0 .452-.656.764.764 0 0 0-.692-.76c.076.356.192.968.24 1.416zm-1.548-.924c0 .58.564.988 1.056.988.004 0 .188 0 .328-.024a17.343 17.343 0 0 0-.252-1.456c-.316.032-.496.244-.496.476 0 .176.1.364.324.492.02.02.028.04.028.06 0 .044-.04.088-.088.088-.06 0-.504-.248-.504-.748 0-.352.232-.696.64-.788a15.048 15.048 0 0 0-.184-.7c-.428.484-.852.972-.852 1.612zm.704-2.1c-.116-.384-.208-.68-.208-1.384 0-.46.22-.896.596-1.168a.06.06 0 0 1 .08 0c.272.32.532.98.532 1.432 0 .572-.344 1.02-.72 1.456.084.272.156.552.224.828.008 0 .028-.004.052-.004.62 0 1.024.512 1.024 1.044 0 .452-.296.848-.72.984.012.14.02.28.02.42 0 .076-.004.156-.008.232-.028.476-.352.9-.808.912l.004-.172c.372-.008.612-.368.636-.764a3.775 3.775 0 0 0-.008-.588c-.02.004-.176.032-.356.032-.772 0-1.332-.72-1.332-1.496 0-.708.524-1.224.992-1.764zm.712-1.452c0-.136.004-.264-.08-.516a1.153 1.153 0 0 0-.648 1.036c0 .208.048.46.144.776.32-.388.584-.792.584-1.296z"/>
    <use xlink:href="#reuse-0" transform="matrix(.004 0 0 -.004 10.11 12.902)"/>
    <use xlink:href="#reuse-0" transform="matrix(.004 0 0 -.004 11.03 11.402)"/>
    <use xlink:href="#reuse-1" transform="matrix(.004 0 0 -.004 13.117 12.902)"/>
    <use xlink:href="#reuse-2" transform="matrix(.004 0 0 -.004 12.98 14.918)"/>
    <use xlink:href="#reuse-3" transform="matrix(.004 0 0 -.004 16.585 24.402)"/>
    <path fill="currentColor" d="M8.719 21.402c0-.112.092-.204.204-.204s.204.092.204.204-.092.204-.204.204-.204-.092-.204-.204zm0-1c0-.112.092-.204.204-.204s.204.092.204.204-.092.204-.204.204-.204-.092-.204-.204zm-1.3-.552c.688 0 1.172.352 1.172 1.004 0 1.052-1.052 1.656-2.064 2.084a.049.049 0 0 1-.036.016.053.053 0 0 1-.052-.052c0-.012.004-.024.016-.036.808-.472 1.648-1.06 1.648-1.972 0-.48-.252-.94-.684-.94-.296 0-.516.216-.616.504a.323.323 0 0 1 .136-.032c.22 0 .4.18.4.4 0 .232-.176.424-.4.424-.24 0-.448-.188-.448-.424 0-.532.408-.976.928-.976z"/>
    <use xlink:href="#reuse-0" transform="matrix(.004 0 0 -.004 10.11 22.902)"/>
    <use xlink:href="#reuse-0" transform="matrix(.004 0 0 -.004 11.03 21.402)"/>
    <use xlink:href="#reuse-1" transform="matrix(.004 0 0 -.004 13.117 21.902)"/>
    <use xlink:href="#reuse-2" transform="matrix(.004 0 0 -.004 12.98 23.918)"/>
    <rect width=".13" height="4.314" x="-.065" y="-3.814" fill="currentColor" ry=".04" transform="translate(16.65 12.902)"/>
    <use xlink:href="#reuse-4" transform="matrix(.004 0 0 -.004 16.715 13.362)"/>
    <rect width=".13" height="5.814" x="-.065" y="-3.5" fill="currentColor" ry=".04" transform="translate(17.825 21.902)"/>
    <path fill="currentColor" stroke="currentColor" stroke-linecap="round" stroke-linejoin="round" stroke-width=".08" d="M111.656 18.202v.4h-21.43v-.4z"/>
    <use xlink:href="#reuse-5" transform="matrix(.004 0 0 -.004 20.415 12.902)"/>
    <use xlink:href="#reuse-3" transform="matrix(.004 0 0 -.004 20.415 20.902)"/>
    <rect width=".13" height="2.314" x="-.065" y="-3.5" fill="currentColor" ry=".04" transform="translate(21.654 21.902)"/>
    <path fill="currentColor" stroke="currentColor" stroke-linecap="round" stroke-linejoin="round" stroke-width=".08" d="M97.79 10.702v.4l-7.563.19v-.4zm0 .81v.4l-7.563.19v-.4z"/>
    <use xlink:href="#reuse-3" transform="matrix(.004 0 0 -.004 23.842 9.902)"/>
    <use xlink:href="#reuse-3" transform="matrix(.004 0 0 -.004 23.842 11.402)"/>
    <use xlink:href="#reuse-3" transform="matrix(.004 0 0 -.004 23.842 24.402)"/>
    <rect width=".13" height="4.814" x="-.065" y="-2.814" fill="currentColor" ry=".04" transform="translate(23.907 12.902)"/>
    <use xlink:href="#reuse-4" transform="matrix(.004 0 0 -.004 23.972 14.862)"/>
    <rect width=".13" height="5.814" x="-.065" y="-3.5" fill="currentColor" ry=".04" transform="translate(25.08 21.902)"/>
    <path fill="currentColor" stroke="currentColor" stroke-linecap="round" stroke-linejoin="round" stroke-width=".08" d="M85.604 18.202v.4H67.212v-.4z"/>
    <use xlink:href="#reuse-5" transform="matrix(.004 0 0 -.004 27.67 12.902)"/>
    <use xlink:href="#reuse-3" transform="matrix(.004 0 0 -.004 27.67 20.902)"/>
    <rect width=".13" height="2.314" x="-.065" y="-3.5" fill="currentColor" ry=".04" transform="translate(28.91 21.902)"/>
    <use xlink:href="#reuse-3" transform="matrix(.004 0 0 -.004 31.098 11.402)"/>
    <use xlink:href="#reuse-3" transform="matrix(.004 0 0 -.004 31.098 12.402)"/>
    <g class="scale-degree">
        <path fill="currentColor" d="m31.197 9.496-.006.199v.035c0 .07.006.137.016.205.137-.122.285-.256.285-.439 0-.102-.045-.208-.135-.208-.099 0-.157.103-.16.208zm-.195-1.321c.029-.016.064-.026.096-.026s.067.01.096.026l-.026 1.088a.437.437 0 0 1 .301-.122c.16 0 .269.16.269.333 0 .25-.266.374-.451.54-.055.049-.08.141-.157.141-.048 0-.083-.041-.083-.092z"/>
        <text fill="currentColor" font-family="serif" font-size="2.2" transform="translate(31.933 10.115)">
<tspan>➐</tspan>
</text>
    </g>
    <use xlink:href="#reuse-3" transform="matrix(.004 0 0 -.004 31.098 24.402)"/>
    <rect width=".13" height="4.314" x="-.065" y="-1.314" fill="currentColor" ry=".04" transform="translate(31.163 12.902)"/>
    <use xlink:href="#reuse-4" transform="matrix(.004 0 0 -.004 31.228 15.862)"/>
    <rect width=".13" height="5.814" x="-.065" y="-3.5" fill="currentColor" ry=".04" transform="translate(32.337 21.902)"/>
    <path fill="currentColor" stroke="currentColor" stroke-linecap="round" stroke-linejoin="round" stroke-width=".08" d="M62.406 18.202v.4h-21.43v-.4z"/>
    <use xlink:href="#reuse-5" transform="matrix(.004 0 0 -.004 34.927 12.902)"/>
    <use xlink:href="#reuse-3" transform="matrix(.004 0 0 -.004 34.927 20.902)"/>
    <rect width=".13" height="2.314" x="-.065" y="-3.5" fill="currentColor" ry=".04" transform="translate(36.166 21.902)"/>
    <path fill="currentColor" stroke="currentColor" stroke-linecap="round" stroke-linejoin="round" stroke-width=".08" d="M47.365 13.702v.4l-7.563.19v-.4zm0 .81v.4l-7.563.19v-.4z"/>
    <use xlink:href="#reuse-3" transform="matrix(.004 0 0 -.004 39.762 11.902)"/>
    <text fill="currentColor" class="scale-degree" font-family="serif" font-size="2.2" transform="translate(39.762 10.115)">
<tspan>➏</tspan>
</text>
    <use xlink:href="#reuse-6" transform="matrix(.004 0 0 -.004 39.783 17.463)"/>
    <use xlink:href="#reuse-7" transform="matrix(.004 0 0 -.004 16.503 16.72)"/>
    <use xlink:href="#reuse-3" transform="matrix(.004 0 0 -.004 39.762 24.402)"/>
    <use xlink:href="#reuse-3" transform="matrix(.004 0 0 -.004 16.585 9.902)"/>
    <rect width=".13" height="2.812" x="-.065" y="-.814" fill="currentColor" ry=".04" transform="translate(39.827 12.902)"/>
    <rect width=".13" height="5.814" x="-.065" y="-3.5" fill="currentColor" ry=".04" transform="translate(41.002 21.902)"/>
    <use xlink:href="#reuse-3" transform="matrix(.004 0 0 -.004 16.585 8.902)"/>
    <path fill="currentColor" stroke="currentColor" stroke-linecap="round" stroke-linejoin="round" stroke-width=".08" d="M36.191 18.202v.4H17.8v-.4z"/>
    <use xlink:href="#reuse-3" transform="matrix(.004 0 0 -.004 42.267 11.402)"/>
    <rect width=".13" height="3.25" x="-.065" y="-1.314" fill="currentColor" ry=".04" transform="translate(42.332 12.902)"/>
    <use xlink:href="#reuse-3" transform="matrix(.004 0 0 -.004 44.77 10.902)"/>
    <use xlink:href="#reuse-3" transform="matrix(.004 0 0 -.004 44.77 20.902)"/>
    <rect width=".13" height="3.688" x="-.065" y="-1.814" fill="currentColor" ry=".04" transform="translate(44.836 12.902)"/>
    <rect width=".13" height="2.314" x="-.065" y="-3.5" fill="currentColor" ry=".04" transform="translate(46.01 21.902)"/>
    <text fill="currentColor" class="schema" font-family="serif" font-size="1.96" transform="translate(56.235 5.206)">
<tspan>Quiescenza</tspan>
</text>
    <use xlink:href="#reuse-3" transform="matrix(.004 0 0 -.004 47.275 11.402)"/>
    <rect width=".13" height="3.126" x="-.065" y="-1.314" fill="currentColor" ry=".04" transform="translate(47.34 12.902)"/>
    <path stroke="currentColor" stroke-linecap="round" stroke-linejoin="round" stroke-width=".1" d="m89.817 6.14.5 1m-58.719-1-.5 1m.5-1h58.219" class="schema"/>
    <use xlink:href="#reuse-3" transform="matrix(.004 0 0 -.004 49.78 11.902)"/>
    <use xlink:href="#reuse-3" transform="matrix(.004 0 0 -.004 49.78 24.402)"/>
    <rect width=".13" height="3.314" x="-.065" y="-.814" fill="currentColor" ry=".04" transform="translate(49.844 12.902)"/>
    <rect width=".13" height="5.814" x="-.065" y="-3.5" fill="currentColor" ry=".04" transform="translate(51.018 21.902)"/>
    <use xlink:href="#reuse-3" transform="matrix(.004 0 0 -.004 53.733 20.902)"/>
    <rect width=".13" height="2.314" x="-.065" y="-3.5" fill="currentColor" ry=".04" transform="translate(54.973 21.902)"/>
    <use xlink:href="#reuse-8" transform="matrix(.004 0 0 -.004 57.188 12.902)"/>
    <use xlink:href="#reuse-3" transform="matrix(.004 0 0 -.004 57.188 24.402)"/>
    <rect width=".13" height="5.814" x="-.065" y="-3.5" fill="currentColor" ry=".04" transform="translate(58.427 21.902)"/>
    <use xlink:href="#reuse-3" transform="matrix(.004 0 0 -.004 61.142 20.902)"/>
    <rect width=".13" height="2.314" x="-.065" y="-3.5" fill="currentColor" ry=".04" transform="translate(62.381 21.902)"/>
    <use xlink:href="#reuse-3" transform="matrix(.004 0 0 -.004 65.998 12.902)"/>
    <use xlink:href="#reuse-3" transform="matrix(.004 0 0 -.004 65.998 13.902)"/>
    <use xlink:href="#reuse-7" transform="matrix(.004 0 0 -.004 65.916 16.72)"/>
    <use xlink:href="#reuse-3" transform="matrix(.004 0 0 -.004 65.998 24.402)"/>
    <rect width=".13" height="4.189" x="-.065" y="-3.375" fill="currentColor" ry=".04" transform="translate(67.237 12.902)"/>
    <use xlink:href="#reuse-9" transform="matrix(.004 0 0 -.004 67.302 9.567)"/>
    <rect width=".13" height="5.814" x="-.065" y="-3.5" fill="currentColor" ry=".04" transform="translate(67.237 21.902)"/>
    <use xlink:href="#reuse-5" transform="matrix(.004 0 0 -.004 69.827 12.902)"/>
    <use xlink:href="#reuse-3" transform="matrix(.004 0 0 -.004 69.827 20.902)"/>
    <rect width=".13" height="2.314" x="-.065" y="-3.5" fill="currentColor" ry=".04" transform="translate(71.066 21.902)"/>
    <use xlink:href="#reuse-3" transform="matrix(.004 0 0 -.004 73.254 13.402)"/>
    <use xlink:href="#reuse-3" transform="matrix(.004 0 0 -.004 73.254 14.402)"/>
    <use xlink:href="#reuse-3" transform="matrix(.004 0 0 -.004 73.254 24.402)"/>
    <rect width=".13" height="4.314" x="-.065" y="-3" fill="currentColor" ry=".04" transform="translate(74.493 12.902)"/>
    <use xlink:href="#reuse-9" transform="matrix(.004 0 0 -.004 74.558 9.942)"/>
    <rect width=".13" height="5.814" x="-.065" y="-3.5" fill="currentColor" ry=".04" transform="translate(74.493 21.902)"/>
    <use xlink:href="#reuse-5" transform="matrix(.004 0 0 -.004 77.083 12.902)"/>
    <use xlink:href="#reuse-3" transform="matrix(.004 0 0 -.004 77.083 20.902)"/>
    <rect width=".13" height="2.314" x="-.065" y="-3.5" fill="currentColor" ry=".04" transform="translate(78.323 21.902)"/>
    <use xlink:href="#reuse-3" transform="matrix(.004 0 0 -.004 80.51 13.902)"/>
    <use xlink:href="#reuse-3" transform="matrix(.004 0 0 -.004 80.51 14.902)"/>
    <g class="scale-degree">
        <path fill="currentColor" d="M80.488 7.663a.155.155 0 0 1 .163 0l-.006.614.326-.073h.013c.032 0 .06.025.06.057l.023 1.802c-.025.016-.054.022-.083.022s-.058-.006-.083-.022l.01-.615-.327.074h-.013a.06.06 0 0 1-.06-.058zm.435.848-.281.06-.01.644.282-.061z"/>
        <text fill="currentColor" font-family="serif" font-size="2.2" transform="translate(81.24 9.665)">
<tspan>➐</tspan>
</text>
    </g>
    <use xlink:href="#reuse-3" transform="matrix(.004 0 0 -.004 80.51 24.402)"/>
    <rect width=".13" height="4.314" x="-.065" y="-2.5" fill="currentColor" ry=".04" transform="translate(81.75 12.902)"/>
    <use xlink:href="#reuse-9" transform="matrix(.004 0 0 -.004 81.815 10.442)"/>
    <path fill="currentColor" d="M79.448 13.402c.032-.016.068-.028.1-.028s.064.012.096.028l-.008.732.424-.08h.012c.04 0 .072.028.072.068l.028 2.28c-.032.016-.068.028-.1.028s-.064-.012-.096-.028l.008-.732-.424.08h-.012c-.04 0-.072-.028-.072-.068zM80 14.454l-.368.068-.012.828.368-.068z"/>
    <rect width=".13" height="5.814" x="-.065" y="-3.5" fill="currentColor" ry=".04" transform="translate(81.75 21.902)"/>
    <use xlink:href="#reuse-5" transform="matrix(.004 0 0 -.004 84.34 12.902)"/>
    <use xlink:href="#reuse-3" transform="matrix(.004 0 0 -.004 84.34 20.902)"/>
    <rect width=".13" height="2.314" x="-.065" y="-3.5" fill="currentColor" ry=".04" transform="translate(85.579 21.902)"/>
    <use xlink:href="#reuse-3" transform="matrix(.004 0 0 -.004 89.013 14.402)"/>
    <text fill="currentColor" class="scale-degree" font-family="serif" font-size="2.2" transform="translate(89.013 10.085)">
<tspan>➊</tspan>
</text>
    <use xlink:href="#reuse-6" transform="matrix(.004 0 0 -.004 89.033 17.448)"/>
    <use xlink:href="#reuse-3" transform="matrix(.004 0 0 -.004 89.013 24.402)"/>
    <rect width=".16" height="13.1" y="-6.55" fill="currentColor" ry=".05" transform="translate(5.63 17.402)"/>
    <rect width=".13" height="3.126" x="-.065" y="-1.812" fill="currentColor" ry=".04" transform="translate(90.252 12.902)"/>
    <rect width=".13" height="5.814" x="-.065" y="-3.5" fill="currentColor" ry=".04" transform="translate(90.252 21.902)"/>
    <path fill="currentColor" d="M5.007 18.866c0-1.02-.528-1.452-.528-1.464 0-.072.528-.384.528-1.464 0-1.044-.432-1.956-.432-3.12 0-.756.18-1.464.708-2.004.06-.06.156.036.096.096-.396.396-.516.9-.516 1.44 0 1.02.408 1.92.408 3.06 0 .744-.18 1.452-.696 1.992.516.54.696 1.248.696 1.992 0 1.14-.408 2.04-.408 3.06 0 .54.12 1.044.516 1.44.06.06-.036.156-.096.096-.528-.54-.708-1.248-.708-2.004 0-1.164.432-2.076.432-3.12z"/>
    <use xlink:href="#reuse-3" transform="matrix(.004 0 0 -.004 91.517 13.902)"/>
    <rect width=".13" height="2.688" x="-.065" y="-1.874" fill="currentColor" ry=".04" transform="translate(92.756 12.902)"/>
    <use xlink:href="#reuse-3" transform="matrix(.004 0 0 -.004 94.021 13.402)"/>
    <use xlink:href="#reuse-3" transform="matrix(.004 0 0 -.004 94.021 20.902)"/>
    <rect width=".13" height="2.25" x="-.065" y="-1.936" fill="currentColor" ry=".04" transform="translate(95.26 12.902)"/>
    <rect width=".13" height="2.314" x="-.065" y="-3.5" fill="currentColor" ry=".04" transform="translate(95.26 21.902)"/>
    <use xlink:href="#reuse-3" transform="matrix(.004 0 0 -.004 96.525 13.902)"/>
    <rect width=".13" height="2.812" x="-.065" y="-1.998" fill="currentColor" ry=".04" transform="translate(97.764 12.902)"/>
    <use xlink:href="#reuse-3" transform="matrix(.004 0 0 -.004 99.03 14.402)"/>
    <use xlink:href="#reuse-3" transform="matrix(.004 0 0 -.004 99.03 24.402)"/>
    <rect width=".13" height="3.314" x="-.065" y="-2" fill="currentColor" ry=".04" transform="translate(100.269 12.902)"/>
    <rect width=".13" height="5.814" x="-.065" y="-3.5" fill="currentColor" ry=".04" transform="translate(100.269 21.902)"/>
    <use xlink:href="#reuse-3" transform="matrix(.004 0 0 -.004 102.984 20.902)"/>
    <rect width=".13" height="2.314" x="-.065" y="-3.5" fill="currentColor" ry=".04" transform="translate(104.223 21.902)"/>
    <use xlink:href="#reuse-8" transform="matrix(.004 0 0 -.004 106.438 12.902)"/>
    <use xlink:href="#reuse-3" transform="matrix(.004 0 0 -.004 106.438 24.402)"/>
    <rect width=".13" height="5.814" x="-.065" y="-3.5" fill="currentColor" ry=".04" transform="translate(107.677 21.902)"/>
    <use xlink:href="#reuse-3" transform="matrix(.004 0 0 -.004 110.392 20.902)"/>
    <rect width=".13" height="2.314" x="-.065" y="-3.5" fill="currentColor" ry=".04" transform="translate(111.631 21.902)"/>
</svg>
