<svg xmlns="http://www.w3.org/2000/svg" width="680.315" height="60mm" version="1.2" viewBox="0 0 102.43 34.143">
    <text fill="currentColor" font-family="serif" font-size="2.47" font-weight="bold" transform="translate(5.69 5.514)">
<tspan style="white-space:pre">Allegretto</tspan>
</text>
    <rect width="1.956" height=".2" x="54.577" y="-.1" fill="currentColor" ry=".1" transform="translate(5.69 8.749)"/>
    <rect width="1.956" height=".2" x="29.893" y="-.1" fill="currentColor" ry=".1" transform="translate(5.69 8.749)"/>
    <path stroke="currentColor" stroke-linecap="round" stroke-linejoin="round" stroke-width=".1" d="M5.74 13.749h90.95m-90.95-1h90.95m-90.95-1h90.95m-90.95-1h90.95m-90.95-1h90.95"/>
    <rect width=".19" height="5.239" y="7.251" fill="currentColor" ry="0" transform="translate(96.55 6.547)"/>
    <rect width="1.956" height=".2" x="51.882" y="-.1" fill="currentColor" ry=".1" transform="translate(5.69 16.038)"/>
    <rect width="1.956" height=".2" x="51.882" y="-.1" fill="currentColor" ry=".1" transform="translate(5.69 17.038)"/>
    <rect width="1.956" height=".2" x="51.882" y="-.1" fill="currentColor" ry=".1" transform="translate(5.69 18.038)"/>
    <rect width="1.956" height=".2" x="48.688" y="-.1" fill="currentColor" ry=".1" transform="translate(5.69 17.038)"/>
    <rect width="1.956" height=".2" x="48.688" y="-.1" fill="currentColor" ry=".1" transform="translate(5.69 18.038)"/>
    <rect width="1.956" height=".2" x="27.199" y="-.1" fill="currentColor" ry=".1" transform="translate(5.69 17.038)"/>
    <rect width="1.956" height=".2" x="27.199" y="-.1" fill="currentColor" ry=".1" transform="translate(5.69 18.038)"/>
    <rect width="1.956" height=".2" x="24.005" y="-.1" fill="currentColor" ry=".1" transform="translate(5.69 18.038)"/>
    <path stroke="currentColor" stroke-linecap="round" stroke-linejoin="round" stroke-width=".1" d="M5.74 23.038h90.95m-90.95-1h90.95m-90.95-1h90.95m-90.95-1h90.95m-90.95-1h90.95"/>
    <rect width=".19" height="4.05" y="-2.05" fill="currentColor" ry="0" transform="translate(96.55 21.038)"/>
    <rect width=".19" height="4.05" y="-2" fill="currentColor" ry="0" transform="translate(96.55 11.749)"/>
    <rect width=".19" height="5.239" y="7.251" fill="currentColor" ry="0" transform="translate(71.87 6.547)"/>
    <rect width=".19" height="4.05" y="-2.05" fill="currentColor" ry="0" transform="translate(71.87 21.038)"/>
    <rect width=".19" height="4.05" y="-2" fill="currentColor" ry="0" transform="translate(71.87 11.749)"/>
    <rect width=".19" height="5.239" y="7.251" fill="currentColor" ry="0" transform="translate(47.186 6.547)"/>
    <rect width=".19" height="4.05" y="-2.05" fill="currentColor" ry="0" transform="translate(47.186 21.038)"/>
    <rect width=".19" height="4.05" y="-2" fill="currentColor" ry="0" transform="translate(47.186 11.749)"/>
    <rect width=".19" height="5.239" y="7.251" fill="currentColor" ry="0" transform="translate(22.513 6.547)"/>
    <rect width=".19" height="4.05" y="-2.05" fill="currentColor" ry="0" transform="translate(22.513 21.038)"/>
    <rect width=".19" height="4.05" y="-2" fill="currentColor" ry="0" transform="translate(22.513 11.749)"/>
    <path fill="currentColor" d="M13.965 11.749c-.352 0-.36-.264-.576-.264-.12 0-.236.08-.248.22-.004.028-.024.044-.044.044-.024 0-.048-.016-.048-.044 0-.616.928-.68.928-1.376 0-.236-.064-.488-.268-.488-.1 0-.196.056-.196.148 0 .108.14.164.14.272a.277.277 0 0 1-.552 0c0-.304.288-.512.608-.512.38 0 .732.228.732.58 0 .604-.6.636-.984.88a.497.497 0 0 1 .108-.012c.332 0 .444.236.684.236.192 0 .152-.152.22-.152.024 0 .048.02.048.048 0 .088-.176.42-.552.42zm-.2 1.548h.468c0 .192.108.376.288.376.032 0 .048.02.048.044s-.016.048-.048.048c-.176 0-.348-.052-.524-.052s-.348.052-.524.052c-.032 0-.048-.024-.048-.048s.016-.044.048-.044c.18 0 .292-.184.292-.376zm-.792-.124c0-.048.56-.572.56-1.344 0-.04.028-.076.064-.064.092.028.188.052.284.052s.192-.024.284-.052c.056-.016.092.036.068.064l-1.136 1.32h.668v-.524c0-.136.136-.108.272-.288.088-.12.092-.224.144-.224.024 0 .052.02.052.056v.98h.288c.04 0 .06.028.06.056s-.02.06-.06.06h-.288v.032h-.468v-.032h-.668c-.092 0-.124-.056-.124-.092zm3.892 7.045c.316 0 .184.392.364.392.064 0 .216-.192.244-.252.024-.048.092-.048.112 0l-.492 1.68c-.032.028-.068.04-.108.04s-.08-.012-.112-.04l.468-1.304a1.272 1.272 0 0 1-.42.088c-.188 0-.348-.136-.348-.316a.29.29 0 0 1 .292-.288zm-8.146.32c0-.112.092-.204.204-.204s.204.092.204.204-.092.204-.204.204-.204-.092-.204-.204zm0-1c0-.112.092-.204.204-.204s.204.092.204.204-.092.204-.204.204-.204-.092-.204-.204zm-1.3-.552c.688 0 1.172.352 1.172 1.004 0 1.052-1.052 1.656-2.064 2.084a.049.049 0 0 1-.036.016.053.053 0 0 1-.052-.052c0-.012.004-.024.016-.036.808-.472 1.648-1.06 1.648-1.972 0-.48-.252-.94-.684-.94-.296 0-.516.216-.616.504a.323.323 0 0 1 .136-.032c.22 0 .4.18.4.4 0 .232-.176.424-.4.424-.24 0-.448-.188-.448-.424 0-.532.408-.976.928-.976zm2.8 2.888-.004.264v.044c0 .088.004.176.016.264.18-.152.372-.32.372-.556 0-.132-.056-.268-.172-.268-.124 0-.208.12-.212.252zm-.168.716-.048-2.38c.032-.02.072-.032.108-.032s.076.012.108.032l-.028 1.38a.577.577 0 0 1 .364-.136c.208 0 .356.192.356.408 0 .32-.344.468-.588.676-.06.052-.096.152-.18.152-.052 0-.092-.044-.092-.1zm1.088-2.216-.004.264v.044c0 .088.004.176.016.264.18-.152.372-.32.372-.556 0-.132-.056-.268-.172-.268-.124 0-.208.12-.212.252zm-.168.716-.048-2.38c.032-.02.072-.032.108-.032s.076.012.108.032l-.028 1.38a.577.577 0 0 1 .364-.136c.208 0 .356.192.356.408 0 .32-.344.468-.588.676-.06.052-.096.152-.18.152-.052 0-.092-.044-.092-.1zm2.994-.052c-.352 0-.36-.264-.576-.264-.12 0-.236.08-.248.22-.004.028-.024.044-.044.044-.024 0-.048-.016-.048-.044 0-.616.928-.68.928-1.376 0-.236-.064-.488-.268-.488-.1 0-.196.056-.196.148 0 .108.14.164.14.272a.277.277 0 0 1-.552 0c0-.304.288-.512.608-.512.38 0 .732.228.732.58 0 .604-.6.636-.984.88a.497.497 0 0 1 .108-.012c.332 0 .444.236.684.236.192 0 .152-.152.22-.152.024 0 .048.02.048.048 0 .088-.176.42-.552.42zm-.2 1.548h.468c0 .192.108.376.288.376.032 0 .048.02.048.044s-.016.048-.048.048c-.176 0-.348-.052-.524-.052s-.348.052-.524.052c-.032 0-.048-.024-.048-.048s.016-.044.048-.044c.18 0 .292-.184.292-.376zm-.792-.124c0-.048.56-.572.56-1.344 0-.04.028-.076.064-.064.092.028.188.052.284.052s.192-.024.284-.052c.056-.016.092.036.068.064l-1.136 1.32h.668v-.524c0-.136.136-.108.272-.288.088-.12.092-.224.144-.224.024 0 .052.02.052.056v.98h.288c.04 0 .06.028.06.056s-.02.06-.06.06h-.288v.032h-.468v-.032h-.668c-.092 0-.124-.056-.124-.092zm5.367-12.213a.224.224 0 1 1 .447-.001.224.224 0 0 1-.447 0z"/>
    <rect width=".13" height="3.811" x="-.065" y="-.814" fill="currentColor" ry=".04" transform="translate(16.65 11.749)"/>
    <path fill="currentColor" stroke="currentColor" stroke-linecap="round" stroke-linejoin="round" stroke-width=".08" d="M93.793 14.549v.4l-8.633-1v-.4zm0 .81v.4l-8.633-1v-.4z"/>
    <path fill="currentColor" d="M21.36 9.705c.265 0 .433.144.433.356 0 .356-.452.732-.872.732-.264 0-.432-.144-.432-.356 0-.356.452-.732.872-.732z"/>
    <rect width=".13" height="4.127" x="-.065" y="-1.314" fill="currentColor" ry=".04" transform="translate(20.554 11.749)"/>
    <path fill="currentColor" stroke="currentColor" stroke-linecap="round" stroke-linejoin="round" stroke-width=".08" d="M82.016 13.739v.4l-8.632-1v-.4zm0 .81v.4l-8.632-1v-.4zm8.833 8.479v.4l-11.827.62v-.4z"/>
    <path fill="currentColor" d="M24.86 9.205c.263 0 .431.144.431.356 0 .356-.452.732-.872.732-.264 0-.432-.144-.432-.356 0-.356.452-.732.872-.732z"/>
    <path fill="currentColor" d="M24.86 10.205c.263 0 .431.144.431.356 0 .356-.452.732-.872.732-.264 0-.432-.144-.432-.356 0-.356.452-.732.872-.732zm-14.641 1.38-.004.264v.044c0 .088.004.176.016.264.18-.152.372-.32.372-.556 0-.132-.056-.268-.172-.268-.124 0-.208.12-.212.252zm-.168.716-.048-2.38c.032-.02.072-.032.108-.032s.076.012.108.032l-.028 1.38a.577.577 0 0 1 .364-.136c.208 0 .356.192.356.408 0 .32-.344.468-.588.676-.06.052-.096.152-.18.152-.052 0-.092-.044-.092-.1zm1.088-2.216-.004.264v.044c0 .088.004.176.016.264.18-.152.372-.32.372-.556 0-.132-.056-.268-.172-.268-.124 0-.208.12-.212.252zm-.168.716-.048-2.38c.032-.02.072-.032.108-.032s.076.012.108.032L11.11 9.8a.577.577 0 0 1 .364-.136c.208 0 .356.192.356.408 0 .32-.344.468-.588.676-.06.052-.096.152-.18.152-.052 0-.092-.044-.092-.1zm13.516 9.417c.316 0 .18.392.36.392.06 0 .2-.196.228-.252.024-.048.092-.048.112 0l-.716 2.68c-.032.028-.068.04-.108.04s-.08-.012-.112-.04l.404-1.308a1.3 1.3 0 0 1-.424.092c-.188 0-.348-.136-.348-.316 0-.16.128-.288.288-.288.316 0 .184.392.364.392.064 0 .22-.204.24-.272l.184-.604a1.249 1.249 0 0 1-.416.088c-.188 0-.348-.136-.348-.316a.29.29 0 0 1 .292-.288zM7.555 15.289H7.53a.783.783 0 0 1-.78-.788c0-.232.212-.412.448-.412.216 0 .38.188.38.412 0 .208-.172.38-.38.38a.326.326 0 0 1-.124-.024c.104.156.272.26.468.26h.016zm.78-1.728a.69.69 0 0 0 .452-.656.764.764 0 0 0-.692-.76c.076.356.192.968.24 1.416zm-1.548-.924c0 .58.564.988 1.056.988.004 0 .188 0 .328-.024a17.343 17.343 0 0 0-.252-1.456c-.316.032-.496.244-.496.476 0 .176.1.364.324.492.02.02.028.04.028.06 0 .044-.04.088-.088.088-.06 0-.504-.248-.504-.748 0-.352.232-.696.64-.788a15.048 15.048 0 0 0-.184-.7c-.428.484-.852.972-.852 1.612zm.704-2.1c-.116-.384-.208-.68-.208-1.384 0-.46.22-.896.596-1.168a.06.06 0 0 1 .08 0c.272.32.532.98.532 1.432 0 .572-.344 1.02-.72 1.456.084.272.156.552.224.828.008 0 .028-.004.052-.004.62 0 1.024.512 1.024 1.044 0 .452-.296.848-.72.984.012.14.02.28.02.42 0 .076-.004.156-.008.232-.028.476-.352.9-.808.912l.004-.172c.372-.008.612-.368.636-.764a3.775 3.775 0 0 0-.008-.588c-.02.004-.176.032-.356.032-.772 0-1.332-.72-1.332-1.496 0-.708.524-1.224.992-1.764zm.712-1.452c0-.136.004-.264-.08-.516a1.153 1.153 0 0 0-.648 1.036c0 .208.048.46.144.776.32-.388.584-.792.584-1.296z"/>
    <rect width=".13" height="4.314" x="-.065" y="-1.814" fill="currentColor" ry=".04" transform="translate(24.052 11.749)"/>
    <path fill="currentColor" d="M17.457 10.205c.264 0 .432.144.432.356 0 .356-.452.732-.872.732-.264 0-.432-.144-.432-.356 0-.356.452-.732.872-.732z"/>
    <path fill="currentColor" stroke="currentColor" stroke-linecap="round" stroke-linejoin="round" stroke-width=".08" d="M69.265 11.739v.4l-8.632-.19v-.4zm0 .81v.4l-8.632-.19v-.4z"/>
    <path fill="currentColor" d="M27.7 17.994c.263 0 .431.144.431.356 0 .356-.452.732-.872.732-.264 0-.432-.144-.432-.356 0-.356.452-.732.872-.732z"/>
    <rect width=".13" height="2.809" x="-.065" y="-2.314" fill="currentColor" ry=".04" transform="translate(26.892 21.038)"/>
    <path fill="currentColor" stroke="currentColor" stroke-linecap="round" stroke-linejoin="round" stroke-width=".08" d="M57.989 20.028v.4l-6.438.5v-.4zm0 .81v.4l-6.438.5v-.4z"/>
    <path fill="currentColor" d="M30.893 16.994c.264 0 .432.144.432.356 0 .356-.452.732-.872.732-.264 0-.432-.144-.432-.356 0-.356.452-.732.872-.732z"/>
    <rect width=".13" height="3.564" x="-.065" y="-3.314" fill="currentColor" ry=".04" transform="translate(30.086 21.038)"/>
    <path fill="currentColor" stroke="currentColor" stroke-linecap="round" stroke-linejoin="round" stroke-width=".08" d="M61.295 7.204c1.792-1.183 7.111-.563 8.583 1h0c-1.486-1.444-6.805-2.064-8.583-1z"/>
    <path fill="currentColor" d="M34.087 15.994c.264 0 .432.144.432.356 0 .356-.452.732-.872.732-.264 0-.432-.144-.432-.356 0-.356.452-.732.872-.732z"/>
    <rect width=".13" height="4.319" x="-.065" y="-4.314" fill="currentColor" ry=".04" transform="translate(33.28 21.038)"/>
    <path fill="currentColor" stroke="currentColor" stroke-linecap="round" stroke-linejoin="round" stroke-width=".08" d="M52.005 17.493c.872-1.68 4.607-3.142 6.388-2.5h0c-1.738-.53-5.472.931-6.389 2.5z"/>
    <path fill="currentColor" d="M36.781 7.705c.264 0 .432.144.432.356 0 .356-.452.732-.872.732-.264 0-.432-.144-.432-.356 0-.356.452-.732.872-.732zm0 10.289c.264 0 .432.144.432.356 0 .356-.452.732-.872.732-.264 0-.432-.144-.432-.356 0-.356.452-.732.872-.732z"/>
    <rect width=".13" height="4.32" x="-.065" y="-3.314" fill="currentColor" ry=".04" transform="translate(35.974 11.749)"/>
    <rect width=".13" height="3.314" x="-.065" y="-2.314" fill="currentColor" ry=".04" transform="translate(35.974 21.038)"/>
    <path fill="currentColor" stroke="currentColor" stroke-linecap="round" stroke-linejoin="round" stroke-width=".08" d="M44.582 12.549v.4l-8.633-.81v-.4zm0 .81v.4l-8.633-.81v-.4z"/>
    <path fill="currentColor" d="M39.476 9.205c.264 0 .432.144.432.356 0 .356-.452.732-.872.732-.264 0-.432-.144-.432-.356 0-.356.452-.732.872-.732z"/>
    <rect width=".13" height="3.07" x="-.065" y="-1.814" fill="currentColor" ry=".04" transform="translate(38.669 11.749)"/>
    <path fill="currentColor" stroke="currentColor" stroke-linecap="round" stroke-linejoin="round" stroke-width=".08" d="M33.305 20.028v.4l-6.438.5v-.4zm0 .81v.4l-6.438.5v-.4z"/>
    <path fill="currentColor" d="M42.17 10.205c.264 0 .432.144.432.356 0 .356-.452.732-.872.732-.264 0-.432-.144-.432-.356 0-.356.452-.732.872-.732z"/>
    <rect width=".13" height="2.321" x="-.065" y="-.814" fill="currentColor" ry=".04" transform="translate(41.363 11.749)"/>
    <path fill="currentColor" stroke="currentColor" stroke-linecap="round" stroke-linejoin="round" stroke-width=".08" d="M36.636 7.204c1.865-1.082 7.195-.15 8.583 1.5h0c-1.408-1.532-6.739-2.464-8.583-1.5z"/>
    <path fill="currentColor" d="M45.364 9.205c.264 0 .432.144.432.356 0 .356-.452.732-.872.732-.264 0-.432-.144-.432-.356 0-.356.452-.732.872-.732z"/>
    <rect width=".13" height="3.618" x="-.065" y="-1.814" fill="currentColor" ry=".04" transform="translate(44.557 11.749)"/>
    <path fill="currentColor" stroke="currentColor" stroke-linecap="round" stroke-linejoin="round" stroke-width=".08" d="M27.35 17.493c.97-1.595 4.681-2.757 6.388-2h0c-1.67-.642-5.383.52-6.389 2zm-6.771-4.754v.4l-1.085.054v-.4zm0 .81v.4l-3.954.19v-.4zm0 .81v.4l-3.954.19v-.4z"/>
    <path fill="currentColor" d="M49.543 8.705c.264 0 .432.144.432.356 0 .356-.452.732-.872.732-.264 0-.432-.144-.432-.356 0-.356.452-.732.872-.732z"/>
    <path fill="currentColor" d="M49.543 9.705c.264 0 .432.144.432.356 0 .356-.452.732-.872.732-.264 0-.432-.144-.432-.356 0-.356.452-.732.872-.732zm-.373 10.513c.317 0 .18.392.36.392.06 0 .2-.196.229-.252.024-.048.092-.048.112 0l-.716 2.68c-.032.028-.068.04-.108.04s-.08-.012-.112-.04l.404-1.308a1.3 1.3 0 0 1-.424.092c-.188 0-.348-.136-.348-.316 0-.16.128-.288.288-.288.316 0 .184.392.364.392.064 0 .22-.204.24-.272l.184-.604a1.249 1.249 0 0 1-.416.088c-.188 0-.348-.136-.348-.316a.29.29 0 0 1 .292-.288z"/>
    <rect width=".13" height="4.314" x="-.065" y="-2.314" fill="currentColor" ry=".04" transform="translate(48.736 11.749)"/>
    <path fill="currentColor" d="M52.383 17.994c.264 0 .432.144.432.356 0 .356-.452.732-.872.732-.264 0-.432-.144-.432-.356 0-.356.452-.732.872-.732z"/>
    <rect width=".13" height="2.809" x="-.065" y="-2.314" fill="currentColor" ry=".04" transform="translate(51.576 21.038)"/>
    <path fill="currentColor" d="M55.577 16.494c.264 0 .432.144.432.356 0 .356-.452.732-.872.732-.264 0-.432-.144-.432-.356 0-.356.452-.732.872-.732z"/>
    <rect width=".13" height="4.064" x="-.065" y="-3.814" fill="currentColor" ry=".04" transform="translate(54.77 21.038)"/>
    <path fill="currentColor" d="M58.771 15.494c.264 0 .432.144.432.356 0 .356-.452.732-.872.732-.264 0-.432-.144-.432-.356 0-.356.452-.732.872-.732z"/>
    <rect width=".13" height="4.819" x="-.065" y="-4.814" fill="currentColor" ry=".04" transform="translate(57.964 21.038)"/>
    <path fill="currentColor" d="M61.465 7.705c.264 0 .432.144.432.356 0 .356-.452.732-.872.732-.264 0-.432-.144-.432-.356 0-.356.452-.732.872-.732zm0 10.289c.264 0 .432.144.432.356 0 .356-.452.732-.872.732-.264 0-.432-.144-.432-.356 0-.356.452-.732.872-.732z"/>
    <rect width=".13" height="4.125" x="-.065" y="-3.314" fill="currentColor" ry=".04" transform="translate(60.658 11.749)"/>
    <rect width=".13" height="3.314" x="-.065" y="-2.314" fill="currentColor" ry=".04" transform="translate(60.658 21.038)"/>
    <path fill="currentColor" d="M64.16 8.705c.263 0 .431.144.431.356 0 .356-.452.732-.872.732-.264 0-.432-.144-.432-.356 0-.356.452-.732.872-.732z"/>
    <rect width=".13" height="3.184" x="-.065" y="-2.314" fill="currentColor" ry=".04" transform="translate(63.352 11.749)"/>
    <path fill="currentColor" d="M66.853 9.705c.264 0 .432.144.432.356 0 .356-.452.732-.872.732-.264 0-.432-.144-.432-.356 0-.356.452-.732.872-.732z"/>
    <rect width=".13" height="2.243" x="-.065" y="-1.314" fill="currentColor" ry=".04" transform="translate(66.046 11.749)"/>
    <path fill="currentColor" d="M70.047 8.705c.264 0 .432.144.432.356 0 .356-.452.732-.872.732-.264 0-.432-.144-.432-.356 0-.356.452-.732.872-.732z"/>
    <rect width=".13" height="3.313" x="-.065" y="-2.314" fill="currentColor" ry=".04" transform="translate(69.24 11.749)"/>
    <path fill="currentColor" d="M74.216 9.205c.264 0 .432.144.432.356 0 .356-.452.732-.872.732-.264 0-.432-.144-.432-.356 0-.356.452-.732.872-.732zm-.592 11.013c.316 0 .184.392.364.392.064 0 .216-.192.244-.252.024-.048.092-.048.112 0l-.492 1.68c-.032.028-.068.04-.108.04s-.08-.012-.112-.04l.468-1.304a1.272 1.272 0 0 1-.42.088c-.188 0-.348-.136-.348-.316a.29.29 0 0 1 .292-.288z"/>
    <rect width=".16" height="13.389" y="-6.695" fill="currentColor" ry=".05" transform="translate(5.63 16.393)"/>
    <rect width=".13" height="3.821" x="-.065" y="-1.814" fill="currentColor" ry=".04" transform="translate(73.409 11.749)"/>
    <path fill="currentColor" d="M5.007 17.881c0-1.032-.54-1.476-.54-1.488 0-.072.54-.396.54-1.488 0-1.068-.444-1.992-.444-3.18 0-.768.192-1.5.72-2.04.06-.06.156.024.096.084-.396.408-.528.924-.528 1.476 0 1.044.42 1.956.42 3.12 0 .756-.18 1.476-.696 2.028.516.552.696 1.272.696 2.028 0 1.164-.42 2.076-.42 3.12 0 .552.132 1.068.528 1.476.06.06-.036.144-.096.084-.528-.54-.72-1.272-.72-2.04 0-1.188.444-2.112.444-3.18zm71.903-7.676c.264 0 .432.144.432.356 0 .356-.452.732-.872.732-.264 0-.432-.144-.432-.356 0-.356.452-.732.872-.732z"/>
    <rect width=".13" height="3.131" x="-.065" y="-.814" fill="currentColor" ry=".04" transform="translate(76.103 11.749)"/>
    <path fill="currentColor" d="M79.854 10.705c.264 0 .432.144.432.356 0 .356-.452.732-.872.732-.264 0-.432-.144-.432-.356 0-.356.452-.732.872-.732zM78.446 8.54c0 .06.032.12.156.12.04 0 .184-.007.412-.111l.02-.096a.542.542 0 0 0-.324-.116c-.204 0-.264.124-.264.204zm1.084.493c0 .244-.188.46-.392.46-.156 0-.224-.176-.224-.364 0-.056.004-.112.016-.164l.06-.304c-.08.032-.252.1-.404.1-.076 0-.24-.024-.24-.204 0-.152.128-.32.384-.32a.61.61 0 0 1 .328.1l.184-.928c.024.012.052.02.08.02.088 0 .192-.064.272-.14l-.212 1.064.256-.144a.622.622 0 0 1 .296-.08c.116 0 .212.04.256.112a.373.373 0 0 1 .276-.12c.144 0 .276.088.276.276 0 .196-.124.36-.26.36-.1 0-.152-.088-.152-.192 0-.2.148-.256.24-.256h.012c-.032-.056-.092-.08-.152-.08-.096 0-.2.064-.22.172l-.216 1.08c-.044-.028-.096-.044-.152-.044s-.116.016-.172.044l.216-1.08v-.028c0-.064-.048-.104-.116-.104a.236.236 0 0 0-.096.028l-.316.176-.028.124c.108.124.2.268.2.436zm-.24.26c.092 0 .14-.136.14-.244 0-.12-.056-.22-.128-.312l-.02.108c-.016.072-.052.224-.052.332 0 .068.016.116.06.116zm.564 11.201c.264 0 .432.144.432.356 0 .356-.452.732-.872.732-.264 0-.432-.144-.432-.356 0-.356.452-.732.872-.732z"/>
    <rect width=".13" height="2.969" x="-.065" y="-.314" fill="currentColor" ry=".04" transform="translate(79.047 11.749)"/>
    <rect width=".13" height="2.62" x="-.065" y=".186" fill="currentColor" ry=".04" transform="translate(79.047 21.038)"/>
    <path fill="currentColor" d="M82.798 11.205c.264 0 .432.144.432.356 0 .356-.452.732-.872.732-.264 0-.432-.144-.432-.356 0-.356.452-.732.872-.732z"/>
    <rect width=".13" height="2.806" x="-.065" y=".186" fill="currentColor" ry=".04" transform="translate(81.991 11.749)"/>
    <path fill="currentColor" d="M85.992 9.705c.264 0 .432.144.432.356 0 .356-.452.732-.872.732-.264 0-.432-.144-.432-.356 0-.356.452-.732.872-.732zm0 10.289c.264 0 .432.144.432.356 0 .356-.452.732-.872.732-.264 0-.432-.144-.432-.356 0-.356.452-.732.872-.732z"/>
    <rect width=".13" height="4.131" x="-.065" y="-1.314" fill="currentColor" ry=".04" transform="translate(85.185 11.749)"/>
    <rect width=".13" height="2.801" x="-.065" y="-.314" fill="currentColor" ry=".04" transform="translate(85.185 21.038)"/>
    <path fill="currentColor" d="M88.686 10.705c.264 0 .432.144.432.356 0 .356-.452.732-.872.732-.264 0-.432-.144-.432-.356 0-.356.452-.732.872-.732z"/>
    <rect width=".13" height="3.441" x="-.065" y="-.314" fill="currentColor" ry=".04" transform="translate(87.88 11.749)"/>
    <path fill="currentColor" d="M91.63 11.205c.265 0 .433.144.433.356 0 .356-.452.732-.872.732-.264 0-.432-.144-.432-.356 0-.356.452-.732.872-.732zM90.223 8.54c0 .06.032.12.156.12.04 0 .184-.007.412-.111l.02-.096a.542.542 0 0 0-.324-.116c-.204 0-.264.124-.264.204zm1.084.493c0 .244-.188.46-.392.46-.156 0-.224-.176-.224-.364 0-.056.004-.112.016-.164l.06-.304c-.08.032-.252.1-.404.1-.076 0-.24-.024-.24-.204 0-.152.128-.32.384-.32a.61.61 0 0 1 .328.1l.184-.928c.024.012.052.02.08.02.088 0 .192-.064.272-.14l-.212 1.064.256-.144a.622.622 0 0 1 .296-.08c.116 0 .212.04.256.112a.373.373 0 0 1 .276-.12c.144 0 .276.088.276.276 0 .196-.124.36-.26.36-.1 0-.152-.088-.152-.192 0-.2.148-.256.24-.256h.012c-.032-.056-.092-.08-.152-.08-.096 0-.2.064-.22.172l-.216 1.08c-.044-.028-.096-.044-.152-.044s-.116.016-.172.044l.216-1.08v-.028c0-.064-.048-.104-.116-.104a.236.236 0 0 0-.096.028l-.316.176-.028.124c.108.124.2.268.2.436zm-.24.26c.092 0 .14-.136.14-.244 0-.12-.056-.22-.128-.312l-.02.108c-.016.072-.052.224-.052.332 0 .068.016.116.06.116zm.563 10.201c.265 0 .433.144.433.356 0 .356-.452.732-.872.732-.264 0-.432-.144-.432-.356 0-.356.452-.732.872-.732z"/>
    <rect width=".13" height="3.279" x="-.065" y=".186" fill="currentColor" ry=".04" transform="translate(90.824 11.749)"/>
    <rect width=".13" height="3.007" x="-.065" y="-.814" fill="currentColor" ry=".04" transform="translate(90.824 21.038)"/>
    <path fill="currentColor" d="M94.575 11.705c.264 0 .432.144.432.356 0 .356-.452.732-.872.732-.264 0-.432-.144-.432-.356 0-.356.452-.732.872-.732z"/>
    <rect width=".13" height="3.116" x="-.065" y=".686" fill="currentColor" ry=".04" transform="translate(93.768 11.749)"/>
</svg>
