<svg xmlns="http://www.w3.org/2000/svg" xmlns:xlink="http://www.w3.org/1999/xlink" width="680.315" height="60mm" version="1.2" viewBox="0 0 102.43 34.143">
    <defs>
        <path id="a" fill="currentColor" d="M218 136c66 0 108-36 108-89 0-89-113-183-218-183C42-136 0-100 0-47c0 89 113 183 218 183z"/>
        <path id="b" fill="currentColor" d="M0 119c0 8 5 15 13 18l46 17v158c0 10 8 19 18 19s19-9 19-19V167l83 31v158c0 10 9 19 19 19s18-9 18-19V211l32 12c2 1 5 1 7 1 11 0 20-9 20-20v-60c0-8-5-16-13-19l-46-16V-51l32 11c2 1 5 1 7 1 11 0 20-9 20-20v-60c0-8-5-15-13-18l-46-17v-158c0-10-8-19-18-19s-19 9-19 19v145l-83-31v-158c0-10-9-19-19-19s-18 9-18 19v145l-32-12c-2-1-5-1-7-1-11 0-20 9-20 20v60c0 8 5 16 13 19l46 16V51L27 40c-2-1-5-1-7-1C9 39 0 48 0 59v60zm179-24L96 65V-95l83 30V95z"/>
        <path id="c" fill="currentColor" d="M250 262c116 0 176-106 176-163 0-40-30-72-67-72-31 0-75 25-75 75 0 38 27 77 72 77 4 0 9 0 14-1-28 37-72 59-120 59-106 0-113-73-113-186V-51c0-113 7-187 113-187 80 0 139 70 158 151 2 7 7 10 12 10 6 0 13-4 13-12 0-22-50-174-183-174C191-263 0-244 0 0c0 62 18 262 250 262z"/>
        <path id="d" fill="currentColor" d="M208 139c69 0 117-40 117-99 0-91-107-179-209-179C47-139 0-99 0-40c0 91 106 179 208 179z"/>
        <path id="e" fill="currentColor" d="M314 65c0 23-19 41-42 41C233 106 68-4 41-37c-7-8-10-18-10-28 0-23 19-41 42-41 39 0 203 110 230 143 7 8 11 18 11 28zm-52 71c41 0 82-14 82-71 0-26-16-112-74-151-25-17-87-50-187-50-41 0-83 14-83 71C0-39 16 47 74 86c25 17 88 50 188 50z"/>
        <path id="f" fill="currentColor" d="M0-212v-213 213c0-114 85-201 146-295 4 13 6 26 6 40 0 94-87 188-152 255zm115-636c0 11 43 74 43 169S68-491 0-425v-75h-21V0H0c0-177 201-290 201-467 0-33-9-66-23-96 18-36 29-74 29-116 0-63-15-125-41-182-5-10-14-13-23-13-14 0-28 10-28 26z"/>
    </defs>
    <text fill="currentColor" font-family="serif" font-size="2.47" font-weight="bold" transform="translate(5.69 5.514)">
<tspan style="white-space:pre">Allegro</tspan>
</text>
    <path stroke="currentColor" stroke-linecap="round" stroke-linejoin="round" stroke-width=".1" d="M5.74 12.786h90.95m-90.95-1h90.95m-90.95-1h90.95m-90.95-1h90.95m-90.95-1h90.95"/>
    <rect width=".19" height="4.95" y="6.289" fill="currentColor" ry="0" transform="translate(96.55 6.547)"/>
    <path stroke="currentColor" stroke-linecap="round" stroke-linejoin="round" stroke-width=".1" d="M5.74 21.786h90.95m-90.95-1h90.95m-90.95-1h90.95m-90.95-1h90.95m-90.95-1h90.95"/>
    <rect width=".19" height="4.05" y="-2.05" fill="currentColor" ry="0" transform="translate(96.55 19.786)"/>
    <rect width=".19" height="4.05" y="-2" fill="currentColor" ry="0" transform="translate(96.55 10.786)"/>
    <rect width=".19" height="4.95" y="6.289" fill="currentColor" ry="0" transform="translate(61.21 6.547)"/>
    <rect width=".19" height="4.05" y="-2.05" fill="currentColor" ry="0" transform="translate(61.21 19.786)"/>
    <rect width=".19" height="4.05" y="-2" fill="currentColor" ry="0" transform="translate(61.21 10.786)"/>
    <rect width=".19" height="4.95" y="6.289" fill="currentColor" ry="0" transform="translate(24.41 6.547)"/>
    <rect width=".19" height="4.05" y="-2.05" fill="currentColor" ry="0" transform="translate(24.41 19.786)"/>
    <rect width=".19" height="4.05" y="-2" fill="currentColor" ry="0" transform="translate(24.41 10.786)"/>
    <use xlink:href="#a" transform="matrix(.004 0 0 -.004 15.94 8.286)"/>
    <path fill="currentColor" d="M7.555 14.326H7.53a.783.783 0 0 1-.78-.788c0-.232.212-.412.448-.412.216 0 .38.188.38.412 0 .208-.172.38-.38.38a.326.326 0 0 1-.124-.024c.104.156.272.26.468.26h.016zm.78-1.728a.69.69 0 0 0 .452-.656.764.764 0 0 0-.692-.76c.076.356.192.968.24 1.416zm-1.548-.924c0 .58.564.988 1.056.988.004 0 .188 0 .328-.024a17.343 17.343 0 0 0-.252-1.456c-.316.032-.496.244-.496.476 0 .176.1.364.324.492.02.02.028.04.028.06 0 .044-.04.088-.088.088-.06 0-.504-.248-.504-.748 0-.352.232-.696.64-.788a15.048 15.048 0 0 0-.184-.7c-.428.484-.852.972-.852 1.612zm.704-2.1c-.116-.384-.208-.68-.208-1.384 0-.46.22-.896.596-1.168a.06.06 0 0 1 .08 0c.272.32.532.98.532 1.432 0 .572-.344 1.02-.72 1.456.084.272.156.552.224.828.008 0 .028-.004.052-.004.62 0 1.024.512 1.024 1.044 0 .452-.296.848-.72.984.012.14.02.28.02.42 0 .076-.004.156-.008.232-.028.476-.352.9-.808.912l.004-.172c.372-.008.612-.368.636-.764a3.775 3.775 0 0 0-.008-.588c-.02.004-.176.032-.356.032-.772 0-1.332-.72-1.332-1.496 0-.708.524-1.224.992-1.764zm.712-1.452c0-.136.004-.264-.08-.516a1.153 1.153 0 0 0-.648 1.036c0 .208.048.46.144.776.32-.388.584-.792.584-1.296z"/>
    <use xlink:href="#b" transform="matrix(.004 0 0 -.004 9.99 8.786)"/>
    <use xlink:href="#c" transform="matrix(.004 0 0 -.004 12.24 10.786)"/>
    <path fill="currentColor" d="M15.917 19.474c0-.236.496-.332.496-.728a.427.427 0 0 0-.1-.276l-.14-.168a.057.057 0 0 1-.016-.04c0-.036.036-.06.068-.06.016 0 .032.004.044.02l.604.72a.16.16 0 0 1 .04.1c0 .236-.496.332-.496.728 0 .096.028.196.096.276l.336.396a.057.057 0 0 1 .016.04c0 .036-.032.064-.064.064s-.18-.176-.436-.176c-.064 0-.212 0-.212.268 0 .14.044.296.112.376.028.032-.02.076-.048.044-.18-.216-.368-.592-.368-.808 0-.164.108-.168.16-.168.132 0 .312.052.476.124l-.528-.632a.16.16 0 0 1-.04-.1zm-7.198-.188c0-.112.092-.204.204-.204s.204.092.204.204-.092.204-.204.204-.204-.092-.204-.204zm0-1c0-.112.092-.204.204-.204s.204.092.204.204-.092.204-.204.204-.204-.092-.204-.204zm-1.3-.552c.688 0 1.172.352 1.172 1.004 0 1.052-1.052 1.656-2.064 2.084a.049.049 0 0 1-.036.016.053.053 0 0 1-.052-.052c0-.012.004-.024.016-.036.808-.472 1.648-1.06 1.648-1.972 0-.48-.252-.94-.684-.94-.296 0-.516.216-.616.504a.323.323 0 0 1 .136-.032c.22 0 .4.18.4.4 0 .232-.176.424-.4.424-.24 0-.448-.188-.448-.424 0-.532.408-.976.928-.976z"/>
    <use xlink:href="#b" transform="matrix(.004 0 0 -.004 9.99 18.786)"/>
    <use xlink:href="#c" transform="matrix(.004 0 0 -.004 12.24 19.786)"/>
    <rect width=".13" height="3.51" x="-.065" y="-2.314" fill="currentColor" ry=".04" transform="translate(16.006 10.786)"/>
    <path fill="currentColor" stroke="currentColor" stroke-linecap="round" stroke-linejoin="round" stroke-width=".08" d="M91.53 22.396v.4l-13.1 2v-.4z"/>
    <use xlink:href="#a" transform="matrix(.004 0 0 -.004 19.88 8.786)"/>
    <rect width=".13" height="3.375" x="-.065" y="-1.814" fill="currentColor" ry=".04" transform="translate(19.945 10.786)"/>
    <path fill="currentColor" stroke="currentColor" stroke-linecap="round" stroke-linejoin="round" stroke-width=".08" d="M94.15 12.586v.4l-2.67-.26v-.4zm0 .81v.4l-6.485-.62v-.4z"/>
    <use xlink:href="#a" transform="matrix(.004 0 0 -.004 22.501 9.286)"/>
    <rect width=".13" height="3.118" x="-.065" y="-1.314" fill="currentColor" ry=".04" transform="translate(22.566 10.786)"/>
    <path fill="currentColor" stroke="currentColor" stroke-linecap="round" stroke-linejoin="round" stroke-width=".08" d="M74.791 22.396v.4l-12.217 2v-.4z"/>
    <use xlink:href="#d" transform="matrix(.0028 0 0 -.0028 25.317 9.286)"/>
    <path fill="currentColor" stroke="currentColor" stroke-linecap="round" stroke-linejoin="round" stroke-width=".08" d="M68.73 10.586v.4l-1.085.07v-.4zm0 .81v.4l-6.156.38v-.4zm-12.54 11v.4l-13.1 2v-.4z"/>
    <rect width=".13" height="2.286" x="-.065" y="-3.9" fill="currentColor" ry=".04" transform="translate(26.17 10.786)"/>
    <path fill="currentColor" d="M26.556 8.95c0-.033.12-.238.12-.54 0-.283-.251-.574-.441-.784h-.06v-.7h.06c0 .549.58.935.58 1.484 0 .199-.043.392-.116.577-.014.028-.039.036-.064.036-.04 0-.078-.028-.078-.073z"/>
    <path fill="currentColor" stroke="currentColor" stroke-linecap="round" stroke-linejoin="round" stroke-width=".08" d="M58.812 12.586v.4l-2.672-.26v-.4zm0 .81v.4l-6.486-.62v-.4z"/>
    <use xlink:href="#a" transform="matrix(.004 0 0 -.004 27.294 9.786)"/>
    <use xlink:href="#a" transform="matrix(.004 0 0 -.004 27.294 21.786)"/>
    <rect width=".13" height="3.314" x="-.065" y="-.814" fill="currentColor" ry=".04" transform="translate(27.36 10.786)"/>
    <rect width=".13" height="2.613" x="-.065" y="2.186" fill="currentColor" ry=".04" transform="translate(27.36 19.786)"/>
    <path fill="currentColor" stroke="currentColor" stroke-linecap="round" stroke-linejoin="round" stroke-width=".08" d="M63.15 7.741c1.223-1.281 4.692-1.565 6.107-.5h0c-1.405-.946-4.875-.661-6.107.5z"/>
    <use xlink:href="#a" transform="matrix(.004 0 0 -.004 31.483 18.286)"/>
    <rect width=".13" height="5.426" x="-.065" y="-1.314" fill="currentColor" ry=".04" transform="translate(31.549 19.786)"/>
    <use xlink:href="#e" transform="matrix(.004 0 0 -.004 35.673 9.786)"/>
    <use xlink:href="#a" transform="matrix(.004 0 0 -.004 35.673 17.286)"/>
    <rect width=".13" height="3.241" x="-.065" y="-.741" fill="currentColor" ry=".04" transform="translate(35.738 10.786)"/>
    <rect width=".13" height="5.739" x="-.065" y="-2.314" fill="currentColor" ry=".04" transform="translate(35.738 19.786)"/>
    <path fill="currentColor" stroke="currentColor" stroke-linecap="round" stroke-linejoin="round" stroke-width=".08" d="M39.452 22.396v.4l-12.118 2v-.4z"/>
    <use xlink:href="#a" transform="matrix(.004 0 0 -.004 39.362 18.286)"/>
    <rect width=".13" height="4.135" x="-.065" y="-1.314" fill="currentColor" ry=".04" transform="translate(39.427 19.786)"/>
    <path fill="currentColor" stroke="currentColor" stroke-linecap="round" stroke-linejoin="round" stroke-width=".08" d="M22.591 11.586v.4l-2.671-.255v-.4zm0 .81v.4l-6.61-.62v-.4z"/>
    <use xlink:href="#a" transform="matrix(.004 0 0 -.004 43.05 21.786)"/>
    <rect width=".13" height="2.614" x="-.065" y="2.186" fill="currentColor" ry=".04" transform="translate(43.116 19.786)"/>
    <use xlink:href="#a" transform="matrix(.004 0 0 -.004 47.24 18.286)"/>
    <rect width=".13" height="5.478" x="-.065" y="-1.314" fill="currentColor" ry=".04" transform="translate(47.305 19.786)"/>
    <use xlink:href="#d" transform="matrix(.0028 0 0 -.0028 50.308 9.286)"/>
    <rect width=".13" height="2.486" x="-.065" y="-4.1" fill="currentColor" ry=".04" transform="translate(51.16 10.786)"/>
    <use xlink:href="#f" transform="matrix(.0028 0 0 -.0028 51.226 6.726)"/>
    <use xlink:href="#a" transform="matrix(.004 0 0 -.004 52.286 9.786)"/>
    <use xlink:href="#a" transform="matrix(.004 0 0 -.004 52.286 17.286)"/>
    <rect width=".13" height="3.01" x="-.065" y="-.814" fill="currentColor" ry=".04" transform="translate(52.35 10.786)"/>
    <rect width=".13" height="5.713" x="-.065" y="-2.314" fill="currentColor" ry=".04" transform="translate(52.35 19.786)"/>
    <use xlink:href="#a" transform="matrix(.004 0 0 -.004 56.1 10.286)"/>
    <use xlink:href="#a" transform="matrix(.004 0 0 -.004 56.1 18.286)"/>
    <rect width=".13" height="2.87" x="-.065" y="-.314" fill="currentColor" ry=".04" transform="translate(56.165 10.786)"/>
    <rect width=".13" height="4.134" x="-.065" y="-1.314" fill="currentColor" ry=".04" transform="translate(56.165 19.786)"/>
    <use xlink:href="#a" transform="matrix(.004 0 0 -.004 58.722 10.786)"/>
    <rect width=".13" height="2.618" x="-.065" y=".186" fill="currentColor" ry=".04" transform="translate(58.787 10.786)"/>
    <use xlink:href="#a" transform="matrix(.004 0 0 -.004 62.534 8.786)"/>
    <use xlink:href="#a" transform="matrix(.004 0 0 -.004 62.534 21.786)"/>
    <rect width=".16" height="13.1" y="-6.55" fill="currentColor" ry=".05" transform="translate(5.63 15.286)"/>
    <path fill="currentColor" d="M64.288 8.286a.224.224 0 1 1 .447 0 .224.224 0 0 1-.447 0z"/>
    <rect width=".13" height="3" x="-.065" y="-1.814" fill="currentColor" ry=".04" transform="translate(62.599 10.786)"/>
    <rect width=".13" height="2.613" x="-.065" y="2.186" fill="currentColor" ry=".04" transform="translate(62.599 19.786)"/>
    <path fill="currentColor" d="M5.007 16.75c0-1.02-.528-1.452-.528-1.464 0-.072.528-.384.528-1.464 0-1.044-.432-1.956-.432-3.12 0-.756.18-1.464.708-2.004.06-.06.156.036.096.096-.396.396-.516.9-.516 1.44 0 1.02.408 1.92.408 3.06 0 .744-.18 1.452-.696 1.992.516.54.696 1.248.696 1.992 0 1.14-.408 2.04-.408 3.06 0 .54.12 1.044.516 1.44.06.06-.036.156-.096.096-.528-.54-.708-1.248-.708-2.004 0-1.164.432-2.076.432-3.12z"/>
    <use xlink:href="#a" transform="matrix(.004 0 0 -.004 66.723 18.286)"/>
    <rect width=".13" height="5.432" x="-.065" y="-1.314" fill="currentColor" ry=".04" transform="translate(66.788 19.786)"/>
    <use xlink:href="#a" transform="matrix(.004 0 0 -.004 68.64 8.286)"/>
    <rect width=".13" height="3.128" x="-.065" y="-2.314" fill="currentColor" ry=".04" transform="translate(68.705 10.786)"/>
    <use xlink:href="#e" transform="matrix(.004 0 0 -.004 71.012 9.786)"/>
    <use xlink:href="#a" transform="matrix(.004 0 0 -.004 71.012 17.286)"/>
    <rect width=".13" height="3.241" x="-.065" y="-.741" fill="currentColor" ry=".04" transform="translate(71.077 10.786)"/>
    <rect width=".13" height="5.734" x="-.065" y="-2.314" fill="currentColor" ry=".04" transform="translate(71.077 19.786)"/>
    <use xlink:href="#a" transform="matrix(.004 0 0 -.004 74.701 18.286)"/>
    <rect width=".13" height="4.135" x="-.065" y="-1.314" fill="currentColor" ry=".04" transform="translate(74.766 19.786)"/>
    <use xlink:href="#a" transform="matrix(.004 0 0 -.004 78.39 21.786)"/>
    <rect width=".13" height="2.614" x="-.065" y="2.186" fill="currentColor" ry=".04" transform="translate(78.455 19.786)"/>
    <use xlink:href="#a" transform="matrix(.004 0 0 -.004 82.58 18.286)"/>
    <rect width=".13" height="5.478" x="-.065" y="-1.314" fill="currentColor" ry=".04" transform="translate(82.644 19.786)"/>
    <use xlink:href="#d" transform="matrix(.0028 0 0 -.0028 85.647 9.286)"/>
    <rect width=".13" height="2.486" x="-.065" y="-4.1" fill="currentColor" ry=".04" transform="translate(86.5 10.786)"/>
    <use xlink:href="#f" transform="matrix(.0028 0 0 -.0028 86.565 6.726)"/>
    <use xlink:href="#a" transform="matrix(.004 0 0 -.004 87.625 9.786)"/>
    <use xlink:href="#a" transform="matrix(.004 0 0 -.004 87.625 17.286)"/>
    <rect width=".13" height="3.01" x="-.065" y="-.814" fill="currentColor" ry=".04" transform="translate(87.69 10.786)"/>
    <rect width=".13" height="5.713" x="-.065" y="-2.314" fill="currentColor" ry=".04" transform="translate(87.69 19.786)"/>
    <use xlink:href="#a" transform="matrix(.004 0 0 -.004 91.44 10.286)"/>
    <use xlink:href="#a" transform="matrix(.004 0 0 -.004 91.44 18.286)"/>
    <rect width=".13" height="2.87" x="-.065" y="-.314" fill="currentColor" ry=".04" transform="translate(91.504 10.786)"/>
    <rect width=".13" height="4.134" x="-.065" y="-1.314" fill="currentColor" ry=".04" transform="translate(91.504 19.786)"/>
    <use xlink:href="#a" transform="matrix(.004 0 0 -.004 94.06 10.786)"/>
    <rect width=".13" height="2.618" x="-.065" y=".186" fill="currentColor" ry=".04" transform="translate(94.126 10.786)"/>
</svg>
