<svg xmlns="http://www.w3.org/2000/svg" xmlns:xlink="http://www.w3.org/1999/xlink" width="576" height="432" viewBox="0 0 432 324">
    <defs>
        <style>
            *{stroke-linejoin:round;stroke-linecap:butt}
        </style>
    </defs>
    <g id="figure_1">
        <path id="patch_1" d="M0 324h432V0H0z" style="fill:#fff"/>
        <g id="axes_1">
            <path id="patch_2" d="M63.13 306.545c10.81 0 21.18-15.23 28.825-42.336 7.645-27.106 11.94-63.875 11.94-102.209S99.6 86.897 91.955 59.791C84.31 32.685 73.94 17.455 63.129 17.455c-10.81 0-21.18 15.23-28.825 42.336-7.645 27.106-11.94 63.875-11.94 102.209s4.295 75.103 11.94 102.209c7.644 27.106 18.014 42.336 28.825 42.336z" clip-path="url(#p9e21b8fd9e)" style="fill:#e9ecef"/>
            <path id="patch_3" d="M165.043 306.545c10.811 0 21.181-15.23 28.826-42.336 7.644-27.106 11.94-63.875 11.94-102.209s-4.296-75.103-11.94-102.209c-7.645-27.106-18.015-42.336-28.826-42.336s-21.18 15.23-28.825 42.336c-7.645 27.106-11.94 63.875-11.94 102.209s4.295 75.103 11.94 102.209c7.644 27.106 18.014 42.336 28.825 42.336z" clip-path="url(#p9e21b8fd9e)" style="fill:#e9ecef"/>
            <path id="patch_4" d="M266.957 306.545c10.811 0 21.18-15.23 28.825-42.336 7.645-27.106 11.94-63.875 11.94-102.209s-4.295-75.103-11.94-102.209c-7.644-27.106-18.014-42.336-28.825-42.336s-21.181 15.23-28.826 42.336c-7.644 27.106-11.94 63.875-11.94 102.209s4.296 75.103 11.94 102.209c7.645 27.106 18.015 42.336 28.826 42.336z" clip-path="url(#p9e21b8fd9e)" style="fill:#e9ecef"/>
            <path id="patch_5" d="M368.87 306.545c10.812 0 21.182-15.23 28.826-42.336 7.645-27.106 11.94-63.875 11.94-102.209s-4.295-75.103-11.94-102.209c-7.644-27.106-18.014-42.336-28.825-42.336s-21.181 15.23-28.826 42.336c-7.645 27.106-11.94 63.875-11.94 102.209s4.295 75.103 11.94 102.209c7.645 27.106 18.015 42.336 28.826 42.336z" clip-path="url(#p9e21b8fd9e)" style="fill:#e9ecef"/>
            <path id="line2d_1" d="m63.13 122.25 101.913 7.227 101.914-14.454" clip-path="url(#p9e21b8fd9e)" style="fill:none;stroke-dasharray:5.55,2.4;stroke-dashoffset:0;stroke:#ced4da;stroke-width:1.5"/>
            <path id="line2d_2" d="m165.043 129.477 101.914-14.454 101.914-14.455" clip-path="url(#p9e21b8fd9e)" style="fill:none;stroke-dasharray:5.55,2.4;stroke-dashoffset:0;stroke:#ced4da;stroke-width:1.5"/>
            <path id="line2d_3" d="M63.13 252.34h203.827" clip-path="url(#p9e21b8fd9e)" style="fill:none;stroke-dasharray:5.55,2.4;stroke-dashoffset:0;stroke:#ced4da;stroke-width:1.5"/>
            <path id="line2d_4" d="M165.043 252.34h203.828" clip-path="url(#p9e21b8fd9e)" style="fill:none;stroke-dasharray:5.55,2.4;stroke-dashoffset:0;stroke:#ced4da;stroke-width:1.5"/>
            <g id="text_1">
                <g style="fill:#212529" transform="matrix(.12 0 0 -.12 56.482 187.502)">
                    <defs>
                        <path id="DejaVuSans-266d" d="M584 4678h141l16-19V1656h9q531 741 984 741 710-9 772-813Q2416 256 575-19l-9 10v4668l18 19zm157-3356V213q1306 309 1306 1262 3 41 3 78 0 463-466 488-371 0-843-719z" transform="scale(.01563)"/>
                        <path id="DejaVuSans-37" d="M525 4666h3000v-269L1831 0h-659l1594 4134H525v532z" transform="scale(.01563)"/>
                    </defs>
                    <use xlink:href="#DejaVuSans-266d"/>
                    <use xlink:href="#DejaVuSans-37" x="47.168"/>
                </g>
                <g style="fill:#212529" transform="matrix(.12 0 0 -.12 59.312 200.939)">
                    <defs>
                        <path id="DejaVuSans-33" d="M2597 2516q453-97 707-404 255-306 255-756 0-690-475-1069Q2609-91 1734-91q-293 0-604 58T488 141v609q262-153 574-231 313-78 654-78 593 0 904 234t311 681q0 413-289 645-289 233-804 233h-544v519h569q465 0 712 186t247 536q0 359-255 551-254 193-729 193-260 0-557-57-297-56-653-174v562q360 100 674 150t592 50q719 0 1137-327 419-326 419-882 0-388-222-655t-631-370z" transform="scale(.01563)"/>
                    </defs>
                    <use xlink:href="#DejaVuSans-33"/>
                </g>
            </g>
            <g id="text_2">
                <g style="fill:#212529" transform="matrix(.12 0 0 -.12 161.226 187.502)">
                    <defs>
                        <path id="DejaVuSans-36" d="M2113 2584q-425 0-674-291-248-290-248-796 0-503 248-796 249-292 674-292t673 292q248 293 248 796 0 506-248 796-248 291-673 291zm1253 1979v-575q-238 112-480 171-242 60-480 60-625 0-955-422-329-422-376-1275 184 272 462 417 279 145 613 145 703 0 1111-427 408-426 408-1160 0-719-425-1154Q2819-91 2113-91q-810 0-1238 620-428 621-428 1799 0 1106 525 1764t1409 658q238 0 480-47t505-140z" transform="scale(.01563)"/>
                    </defs>
                    <use xlink:href="#DejaVuSans-36"/>
                </g>
                <g style="fill:#212529" transform="matrix(.12 0 0 -.12 161.226 200.939)">
                    <defs>
                        <path id="DejaVuSans-34" d="M2419 4116 825 1625h1594v2491zm-166 550h794V1625h666v-525h-666V0h-628v1100H313v609l1940 2957z" transform="scale(.01563)"/>
                    </defs>
                    <use xlink:href="#DejaVuSans-34"/>
                </g>
            </g>
            <g id="text_3">
                <g style="fill:#212529" transform="matrix(.12 0 0 -.12 260.994 187.502)">
                    <defs>
                        <path id="DejaVuSans-266e" d="M553 4678h128l19-15V3209l1044 504 6-7V16l-12-16h-125l-16 16v1515L544 1031h-6v3632l15 15zm147-1937V1531h6l891 450v1197h-6l-891-437z" transform="scale(.01563)"/>
                    </defs>
                    <use xlink:href="#DejaVuSans-266e"/>
                    <use xlink:href="#DejaVuSans-37" x="35.742"/>
                </g>
                <g style="fill:#212529" transform="matrix(.12 0 0 -.12 263.14 200.939)">
                    <defs>
                        <path id="DejaVuSans-32" d="M1228 531h2203V0H469v531q359 372 979 998 621 627 780 809 303 340 423 576 121 236 121 464 0 372-261 606-261 235-680 235-297 0-627-103-329-103-704-313v638q381 153 712 231 332 78 607 78 725 0 1156-363 431-362 431-968 0-288-108-546-107-257-392-607-78-91-497-524-418-433-1181-1211z" transform="scale(.01563)"/>
                    </defs>
                    <use xlink:href="#DejaVuSans-32"/>
                </g>
            </g>
            <g id="text_4">
                <g style="fill:#212529" transform="matrix(.12 0 0 -.12 365.053 187.502)">
                    <defs>
                        <path id="DejaVuSans-35" d="M691 4666h2478v-532H1269V2991q137 47 274 70 138 23 276 23 781 0 1237-428 457-428 457-1159 0-753-469-1171Q2575-91 1722-91q-294 0-599 50Q819 9 494 109v635q281-153 581-228t634-75q541 0 856 284 316 284 316 772 0 487-316 771-315 285-856 285-253 0-505-56-251-56-513-175v2344z" transform="scale(.01563)"/>
                    </defs>
                    <use xlink:href="#DejaVuSans-35"/>
                </g>
                <use xlink:href="#DejaVuSans-33" style="fill:#212529" transform="matrix(.12 0 0 -.12 365.053 200.939)"/>
            </g>
            <g id="text_5" style="fill:#212529" transform="matrix(.12 0 0 -.12 46.706 74.97)">
                <defs>
                    <path id="DejaVuSans-57" d="M213 4666h637l981-3944 978 3944h710l981-3944 978 3944h641L4947 0h-794l-984 4050L2175 0h-794L213 4666z" transform="scale(.01563)"/>
                    <path id="DejaVuSans-65" d="M3597 1894v-281H953q38-594 358-905t892-311q331 0 642 81t618 244V178Q3153 47 2828-22t-659-69q-838 0-1327 487-489 488-489 1320 0 859 464 1363 464 505 1252 505 706 0 1117-455 411-454 411-1235zm-575 169q-6 471-264 752-258 282-683 282-481 0-770-272t-333-766l2050 4z" transform="scale(.01563)"/>
                    <path id="DejaVuSans-61" d="M2194 1759q-697 0-966-159t-269-544q0-306 202-486 202-179 548-179 479 0 768 339t289 901v128h-572zm1147 238V0h-575v531q-197-318-491-470T1556-91q-537 0-855 302-317 302-317 808 0 590 395 890 396 300 1180 300h807v57q0 397-261 614t-733 217q-300 0-585-72-284-72-546-216v532q315 122 612 182 297 61 578 61 760 0 1135-394 375-393 375-1193z" transform="scale(.01563)"/>
                    <path id="DejaVuSans-6b" d="M581 4863h578V1991l1716 1509h734L1753 1863 3688 0h-750L1159 1709V0H581v4863z" transform="scale(.01563)"/>
                </defs>
                <use xlink:href="#DejaVuSans-57"/>
                <use xlink:href="#DejaVuSans-65" x="93.002"/>
                <use xlink:href="#DejaVuSans-61" x="154.525"/>
                <use xlink:href="#DejaVuSans-6b" x="215.805"/>
            </g>
            <g id="text_6" style="fill:#212529" transform="matrix(.12 0 0 -.12 145.267 74.97)">
                <defs>
                    <path id="DejaVuSans-53" d="M3425 4513v-616q-359 172-678 256-319 85-616 85-515 0-795-200t-280-569q0-310 186-468 186-157 705-254l381-78q706-135 1042-474t336-907q0-679-455-1029Q2797-91 1919-91q-331 0-705 75-373 75-773 222v650q384-215 753-325 369-109 725-109 540 0 834 212 294 213 294 607 0 343-211 537t-692 291l-385 75q-706 140-1022 440-315 300-315 835 0 619 436 975t1201 356q329 0 669-60 341-59 697-177z" transform="scale(.01563)"/>
                    <path id="DejaVuSans-74" d="M1172 4494v-994h1184v-447H1172V1153q0-428 117-550t477-122h590V0h-590q-666 0-919 248-253 249-253 905v1900H172v447h422v994h578z" transform="scale(.01563)"/>
                    <path id="DejaVuSans-72" d="M2631 2963q-97 56-211 82-114 27-251 27-488 0-749-317t-261-911V0H581v3500h578v-544q182 319 472 473 291 155 707 155 59 0 131-8 72-7 159-23l3-590z" transform="scale(.01563)"/>
                    <path id="DejaVuSans-6f" d="M1959 3097q-462 0-731-361t-269-989q0-628 267-989 268-361 733-361 460 0 728 362 269 363 269 988 0 622-269 986-268 364-728 364zm0 487q750 0 1178-488 429-487 429-1349 0-859-429-1349Q2709-91 1959-91q-753 0-1180 489-426 490-426 1349 0 862 426 1349 427 488 1180 488z" transform="scale(.01563)"/>
                    <path id="DejaVuSans-6e" d="M3513 2113V0h-575v2094q0 497-194 743-194 247-581 247-466 0-735-297-269-296-269-809V0H581v3500h578v-544q207 316 486 472 280 156 646 156 603 0 912-373 310-373 310-1098z" transform="scale(.01563)"/>
                    <path id="DejaVuSans-67" d="M2906 1791q0 625-258 968-257 344-723 344-462 0-720-344-258-343-258-968 0-622 258-966t720-344q466 0 723 344 258 344 258 966zm575-1357q0-893-397-1329-396-436-1215-436-303 0-572 45t-522 139v559q253-137 500-202 247-66 503-66 566 0 847 295t281 892v285q-178-310-456-463T1784 0Q1141 0 747 490 353 981 353 1791q0 812 394 1302 394 491 1037 491 388 0 666-153t456-462v531h575V434z" transform="scale(.01563)"/>
                </defs>
                <use xlink:href="#DejaVuSans-53"/>
                <use xlink:href="#DejaVuSans-74" x="63.477"/>
                <use xlink:href="#DejaVuSans-72" x="102.686"/>
                <use xlink:href="#DejaVuSans-6f" x="141.549"/>
                <use xlink:href="#DejaVuSans-6e" x="202.73"/>
                <use xlink:href="#DejaVuSans-67" x="266.109"/>
            </g>
            <g id="text_7" style="fill:#212529" transform="matrix(.12 0 0 -.12 250.534 74.97)">
                <use xlink:href="#DejaVuSans-57"/>
                <use xlink:href="#DejaVuSans-65" x="93.002"/>
                <use xlink:href="#DejaVuSans-61" x="154.525"/>
                <use xlink:href="#DejaVuSans-6b" x="215.805"/>
            </g>
            <g id="text_8" style="fill:#212529" transform="matrix(.12 0 0 -.12 349.095 74.97)">
                <use xlink:href="#DejaVuSans-53"/>
                <use xlink:href="#DejaVuSans-74" x="63.477"/>
                <use xlink:href="#DejaVuSans-72" x="102.686"/>
                <use xlink:href="#DejaVuSans-6f" x="141.549"/>
                <use xlink:href="#DejaVuSans-6e" x="202.73"/>
                <use xlink:href="#DejaVuSans-67" x="266.109"/>
            </g>
            <g id="PathCollection_1">
                <defs>
                    <path id="m1ad768baa6" d="M0 7.071A7.071 7.071 0 1 0 0-7.072 7.071 7.071 0 0 0 0 7.071z" style="stroke:#e9ecef"/>
                </defs>
                <g clip-path="url(#p9e21b8fd9e)">
                    <use xlink:href="#m1ad768baa6" x="63.129" y="122.25" style="fill:#e9ecef;stroke:#e9ecef"/>
                    <use xlink:href="#m1ad768baa6" x="165.043" y="129.477" style="fill:#e9ecef;stroke:#e9ecef"/>
                    <use xlink:href="#m1ad768baa6" x="266.957" y="115.023" style="fill:#e9ecef;stroke:#e9ecef"/>
                    <use xlink:href="#m1ad768baa6" x="368.871" y="100.568" style="fill:#e9ecef;stroke:#e9ecef"/>
                </g>
            </g>
            <g id="PathCollection_2" clip-path="url(#p9e21b8fd9e)">
                <use xlink:href="#m1ad768baa6" x="63.129" y="252.341" style="fill:#e9ecef;stroke:#e9ecef"/>
                <use xlink:href="#m1ad768baa6" x="165.043" y="252.341" style="fill:#e9ecef;stroke:#e9ecef"/>
                <use xlink:href="#m1ad768baa6" x="266.957" y="252.341" style="fill:#e9ecef;stroke:#e9ecef"/>
                <use xlink:href="#m1ad768baa6" x="368.871" y="252.341" style="fill:#e9ecef;stroke:#e9ecef"/>
            </g>
            <g id="text_9" style="fill:#212529" transform="matrix(.144 0 0 -.144 53.7 126.224)">
                <defs>
                    <path id="DejaVuSans-2790" d="M1469 4200v-425h1794L1988 466h525l1356 3518v216H1469zm194 591q475 200 1018 200 544 0 1019-200 469-194 856-585 394-393 586-862t192-1022q0-538-192-1007-192-468-586-862-387-390-856-584-475-200-1019-200-543 0-1018 200-469 194-857 584-393 394-586 862Q28 1784 28 2322q0 553 192 1022 193 469 586 862 388 391 857 585z" transform="scale(.01563)"/>
                </defs>
                <use xlink:href="#DejaVuSans-266d"/>
                <use xlink:href="#DejaVuSans-2790" x="47.168"/>
            </g>
            <g id="text_10" style="fill:#212529" transform="matrix(.144 0 0 -.144 159.01 133.45)">
                <defs>
                    <path id="DejaVuSans-278f" d="M2650 2534q341 0 539-233 199-232 199-638 0-400-199-635-198-234-539-234-337 0-537 234-200 235-200 635 0 406 200 638 200 233 537 233zm1003 1582q-209 75-403 112-194 38-384 38-707 0-1127-527-420-526-420-1411 0-940 342-1437t989-497q566 0 906 347 341 347 341 922 0 587-327 929-326 342-889 342-268 0-490-117t-369-333q37 682 301 1019 265 338 765 338 187 0 381-47t384-138v460zm-1990 675q475 200 1018 200 544 0 1019-200 469-194 856-585 394-393 586-862t192-1022q0-538-192-1007-192-468-586-862-387-390-856-584-475-200-1019-200-543 0-1018 200-469 194-857 584-393 394-586 862Q28 1784 28 2322q0 553 192 1022 193 469 586 862 388 391 857 585z" transform="scale(.01563)"/>
                </defs>
                <use xlink:href="#DejaVuSans-278f"/>
            </g>
            <g id="text_11" style="fill:#212529" transform="matrix(.144 0 0 -.144 258.35 118.996)">
                <use xlink:href="#DejaVuSans-266e"/>
                <use xlink:href="#DejaVuSans-2790" x="35.742"/>
            </g>
            <g id="text_12" style="fill:#212529" transform="matrix(.144 0 0 -.144 362.837 104.542)">
                <defs>
                    <path id="DejaVuSans-278a" d="M1697 891V466h2150v425h-825v3309h-503l-894-181v-460l897 179V891h-825zm-34 3900q475 200 1018 200 544 0 1019-200 469-194 856-585 394-393 586-862t192-1022q0-538-192-1007-192-468-586-862-387-390-856-584-475-200-1019-200-543 0-1018 200-469 194-857 584-393 394-586 862Q28 1784 28 2322q0 553 192 1022 193 469 586 862 388 391 857 585z" transform="scale(.01563)"/>
                </defs>
                <use xlink:href="#DejaVuSans-278a"/>
            </g>
            <g id="text_13" style="fill:#212529" transform="matrix(.144 0 0 -.144 57.096 256.314)">
                <defs>
                    <path id="DejaVuSans-2780" d="M3581 4500q-418 178-900 178-481 0-900-178-412-169-753-516-347-346-517-761-170-414-170-901 0-472 170-886t517-761q341-347 753-516 419-178 900-178 482 0 900 178 413 169 753 516 347 347 517 761 171 414 171 886 0 487-171 901-170 415-517 761-340 347-753 516zM1697 891h825v2847l-897-179v460l894 181h503V891h825V466H1697v425zm-34 3900q475 200 1018 200 544 0 1019-200 469-194 856-585 394-393 586-862t192-1022q0-538-192-1007-192-468-586-862-387-390-856-584-475-200-1019-200-543 0-1018 200-469 194-857 584-393 394-586 862Q28 1784 28 2322q0 553 192 1022 193 469 586 862 388 391 857 585z" transform="scale(.01563)"/>
                </defs>
                <use xlink:href="#DejaVuSans-2780"/>
            </g>
            <use xlink:href="#DejaVuSans-2780" id="text_14" style="fill:#212529" transform="matrix(.144 0 0 -.144 159.01 256.314)"/>
            <use xlink:href="#DejaVuSans-2780" id="text_15" style="fill:#212529" transform="matrix(.144 0 0 -.144 260.924 256.314)"/>
            <use xlink:href="#DejaVuSans-2780" id="text_16" style="fill:#212529" transform="matrix(.144 0 0 -.144 362.837 256.314)"/>
        </g>
    </g>
    <defs>
        <clipPath id="p9e21b8fd9e">
            <path d="M3 3h426v318H3z"/>
        </clipPath>
    </defs>
</svg>
