<svg xmlns="http://www.w3.org/2000/svg" width="805.039" height="181.72" class="d-block mx-auto d-block mx-auto" version="1.2" viewBox="0 0 121.211 27.361"><style>tspan{white-space:pre}</style><rect width="1.956" height=".2" x="17.825" y="-.1" ry=".1" transform="translate(5.69 9.902)"/><rect width="1.956" height=".2" x="10.569" y="-.1" ry=".1" transform="translate(5.69 8.902)"/><rect width="1.956" height=".2" x="10.569" y="-.1" ry=".1" transform="translate(5.69 9.902)"/><path stroke="currentColor" stroke-linecap="round" stroke-linejoin="round" stroke-width=".1" d="M5.74 14.902h108.558m-108.558-1h108.558m-108.558-1h108.558m-108.558-1h108.558m-108.558-1h108.558"/><rect width=".19" height="4.95" y="11.107" ry="0" transform="translate(114.158 3.845)"/><path stroke="currentColor" stroke-linecap="round" stroke-linejoin="round" stroke-width=".1" d="M5.74 23.902h108.558m-108.558-1h108.558m-108.558-1h108.558m-108.558-1h108.558m-108.558-1h108.558"/><rect width=".19" height="4.05" y="-2.05" ry="0" transform="translate(114.158 21.902)"/><rect width=".19" height="4.05" y="-2" ry="0" transform="translate(114.158 12.902)"/><rect width=".19" height="4.95" y="11.107" ry="0" transform="translate(87.923 3.845)"/><rect width=".19" height="4.05" y="-2.05" ry="0" transform="translate(87.923 21.902)"/><rect width=".19" height="4.05" y="-2" ry="0" transform="translate(87.923 12.902)"/><rect width=".19" height="4.95" y="11.107" ry="0" transform="translate(64.908 3.845)"/><rect width=".19" height="4.05" y="-2.05" ry="0" transform="translate(64.908 21.902)"/><rect width=".19" height="4.05" y="-2" ry="0" transform="translate(64.908 12.902)"/><rect width=".19" height="4.95" y="11.107" ry="0" transform="translate(38.51 3.845)"/><rect width=".19" height="4.05" y="-2.05" ry="0" transform="translate(38.51 21.902)"/><rect width=".19" height="4.05" y="-2" ry="0" transform="translate(38.51 12.902)"/><path d="M7.555 16.442H7.53a.783.783 0 0 1-.78-.788c0-.232.212-.412.448-.412.216 0 .38.188.38.412 0 .208-.172.38-.38.38a.326.326 0 0 1-.124-.024c.104.156.272.26.468.26h.016zm.78-1.728a.69.69 0 0 0 .452-.656.764.764 0 0 0-.692-.76c.076.356.192.968.24 1.416zm-1.548-.924c0 .58.564.988 1.056.988.004 0 .188 0 .328-.024a17.343 17.343 0 0 0-.252-1.456c-.316.032-.496.244-.496.476 0 .176.1.364.324.492.02.02.028.04.028.06 0 .044-.04.088-.088.088-.06 0-.504-.248-.504-.748 0-.352.232-.696.64-.788a15.048 15.048 0 0 0-.184-.7c-.428.484-.852.972-.852 1.612zm.704-2.1c-.116-.384-.208-.68-.208-1.384 0-.46.22-.896.596-1.168a.06.06 0 0 1 .08 0c.272.32.532.98.532 1.432 0 .572-.344 1.02-.72 1.456.084.272.156.552.224.828.008 0 .028-.004.052-.004.62 0 1.024.512 1.024 1.044 0 .452-.296.848-.72.984.012.14.02.28.02.42 0 .076-.004.156-.008.232-.028.476-.352.9-.808.912l.004-.172c.372-.008.612-.368.636-.764a3.775 3.775 0 0 0-.008-.588c-.02.004-.176.032-.356.032-.772 0-1.332-.72-1.332-1.496 0-.708.524-1.224.992-1.764zm.712-1.452c0-.136.004-.264-.08-.516a1.153 1.153 0 0 0-.648 1.036c0 .208.048.46.144.776.32-.388.584-.792.584-1.296zm2.016 2.5-.004.264v.044c0 .088.004.176.016.264.18-.152.372-.32.372-.556 0-.132-.056-.268-.172-.268-.124 0-.208.12-.212.252zm-.168.716-.048-2.38c.032-.02.072-.032.108-.032s.076.012.108.032l-.028 1.38a.577.577 0 0 1 .364-.136c.208 0 .356.192.356.408 0 .32-.344.468-.588.676-.06.052-.096.152-.18.152-.052 0-.092-.044-.092-.1zm1.088-2.216-.004.264v.044c0 .088.004.176.016.264.18-.152.372-.32.372-.556 0-.132-.056-.268-.172-.268-.124 0-.208.12-.212.252zm-.168.716-.048-2.38c.032-.02.072-.032.108-.032s.076.012.108.032l-.028 1.38a.577.577 0 0 1 .364-.136c.208 0 .356.192.356.408 0 .32-.344.468-.588.676-.06.052-.096.152-.18.152-.052 0-.092-.044-.092-.1zm3.199-.112c0 .132.28.092.28.5 0 .368-.317.56-.717.56-.316 0-.616-.168-.616-.452 0-.144.12-.264.264-.264s.26.12.26.264c0 .1-.16.112-.16.212 0 .108.128.148.252.148.196 0 .252-.244.252-.468v-.064c0-.216-.008-.376-.2-.376h-.32c-.04 0-.056-.032-.056-.06s.016-.056.056-.056h.32c.196 0 .2-.172.2-.396v-.032c0-.216-.072-.364-.268-.364-.112 0-.228.036-.228.132 0 .088.14.1.14.188 0 .128-.1.232-.228.232s-.232-.104-.232-.232c0-.256.268-.412.548-.412.364 0 .676.132.676.456 0 .488-.224.32-.224.484zm-.405 2.608h.468c0 .192.108.376.288.376.032 0 .048.02.048.044s-.016.048-.048.048c-.176 0-.348-.052-.524-.052s-.348.052-.524.052c-.032 0-.048-.024-.048-.048s.016-.044.048-.044c.18 0 .292-.184.292-.376zm-.792-.124c0-.048.56-.572.56-1.344 0-.04.028-.076.064-.064.092.028.188.052.284.052s.192-.024.284-.052c.056-.016.092.036.068.064l-1.136 1.32h.668v-.524c0-.136.136-.108.272-.288.088-.12.092-.224.144-.224.024 0 .052.02.052.056v.98h.288c.04 0 .06.028.06.056s-.02.06-.06.06h-.288v.032h-.468v-.032h-.668c-.092 0-.124-.056-.124-.092zm4.484 9.532c.264 0 .432.144.432.356 0 .356-.452.732-.872.732-.264 0-.432-.144-.432-.356 0-.356.452-.732.872-.732zm-8.738-2.456c0-.112.092-.204.204-.204s.204.092.204.204-.092.204-.204.204-.204-.092-.204-.204zm0-1c0-.112.092-.204.204-.204s.204.092.204.204-.092.204-.204.204-.204-.092-.204-.204zm-1.3-.552c.688 0 1.172.352 1.172 1.004 0 1.052-1.052 1.656-2.064 2.084a.049.049 0 0 1-.036.016.053.053 0 0 1-.052-.052c0-.012.004-.024.016-.036.808-.472 1.648-1.06 1.648-1.972 0-.48-.252-.94-.684-.94-.296 0-.516.216-.616.504a.323.323 0 0 1 .136-.032c.22 0 .4.18.4.4 0 .232-.176.424-.4.424-.24 0-.448-.188-.448-.424 0-.532.408-.976.928-.976zm2.8 2.888-.004.264v.044c0 .088.004.176.016.264.18-.152.372-.32.372-.556 0-.132-.056-.268-.172-.268-.124 0-.208.12-.212.252zm-.168.716-.048-2.38c.032-.02.072-.032.108-.032s.076.012.108.032l-.028 1.38a.577.577 0 0 1 .364-.136c.208 0 .356.192.356.408 0 .32-.344.468-.588.676-.06.052-.096.152-.18.152-.052 0-.092-.044-.092-.1zm1.088-2.216-.004.264v.044c0 .088.004.176.016.264.18-.152.372-.32.372-.556 0-.132-.056-.268-.172-.268-.124 0-.208.12-.212.252zm-.168.716-.048-2.38c.032-.02.072-.032.108-.032s.076.012.108.032l-.028 1.38a.577.577 0 0 1 .364-.136c.208 0 .356.192.356.408 0 .32-.344.468-.588.676-.06.052-.096.152-.18.152-.052 0-.092-.044-.092-.1zm3.199-1.112c0 .132.28.092.28.5 0 .368-.317.56-.717.56-.316 0-.616-.168-.616-.452 0-.144.12-.264.264-.264s.26.12.26.264c0 .1-.16.112-.16.212 0 .108.128.148.252.148.196 0 .252-.244.252-.468v-.064c0-.216-.008-.376-.2-.376h-.32c-.04 0-.056-.032-.056-.06s.016-.056.056-.056h.32c.196 0 .2-.172.2-.396v-.032c0-.216-.072-.364-.268-.364-.112 0-.228.036-.228.132 0 .088.14.1.14.188 0 .128-.1.232-.228.232s-.232-.104-.232-.232c0-.256.268-.412.548-.412.364 0 .676.132.676.456 0 .488-.224.32-.224.484zm-.405 2.608h.468c0 .192.108.376.288.376.032 0 .048.02.048.044s-.016.048-.048.048c-.176 0-.348-.052-.524-.052s-.348.052-.524.052c-.032 0-.048-.024-.048-.048s.016-.044.048-.044c.18 0 .292-.184.292-.376zm-.792-.124c0-.048.56-.572.56-1.344 0-.04.028-.076.064-.064.092.028.188.052.284.052s.192-.024.284-.052c.056-.016.092.036.068.064l-1.136 1.32h.668v-.524c0-.136.136-.108.272-.288.088-.12.092-.224.144-.224.024 0 .052.02.052.056v.98h.288c.04 0 .06.028.06.056s-.02.06-.06.06h-.288v.032h-.468v-.032h-.668c-.092 0-.124-.056-.124-.092z"/><rect width=".13" height="4.314" x="-.065" y="-3.814" ry=".04" transform="translate(16.65 12.902)"/><path d="M16.715 13.362h-.064v-1h.064v1zm0 0v-1c.388-.236.896-.592.896-1.036 0-.228-.06-.448-.16-.652-.012-.064.04-.108.092-.108.028 0 .06.012.08.044.1.224.16.468.16.716 0 .812-1.068 1.224-1.068 2.036z"/><rect width=".13" height="5.814" x="-.065" y="-3.5" ry=".04" transform="translate(17.825 21.902)"/><path stroke="currentColor" stroke-linecap="round" stroke-linejoin="round" stroke-width=".08" d="M111.656 18.202v.4h-21.43v-.4z"/><path d="M20.695 12.082c.316 0 .184.392.364.392.064 0 .216-.192.244-.252.024-.048.092-.048.112 0l-.492 1.68c-.032.028-.068.04-.108.04s-.08-.012-.113-.04l.468-1.304a1.272 1.272 0 0 1-.42.088c-.188 0-.348-.136-.348-.316a.29.29 0 0 1 .292-.288zm.592 8.276c.264 0 .432.144.432.356 0 .356-.453.732-.873.732-.264 0-.432-.144-.432-.356 0-.356.452-.732.872-.732z"/><rect width=".13" height="2.314" x="-.065" y="-3.5" ry=".04" transform="translate(21.654 21.902)"/><path stroke="currentColor" stroke-linecap="round" stroke-linejoin="round" stroke-width=".08" d="M97.79 10.702v.4l-7.563.19v-.4zm0 .81v.4l-7.563.19v-.4z"/><path d="M24.714 9.358c.264 0 .432.144.432.356 0 .356-.452.732-.872.732-.264 0-.432-.144-.432-.356 0-.356.452-.732.872-.732zm0 1.5c.264 0 .432.144.432.356 0 .356-.452.732-.872.732-.264 0-.432-.144-.432-.356 0-.356.452-.732.872-.732zm0 13c.264 0 .432.144.432.356 0 .356-.452.732-.872.732-.264 0-.432-.144-.432-.356 0-.356.452-.732.872-.732z"/><rect width=".13" height="4.814" x="-.065" y="-2.814" ry=".04" transform="translate(23.907 12.902)"/><path d="M23.972 14.862h-.064v-1h.064v1zm0 0v-1c.388-.236.896-.592.896-1.036 0-.228-.06-.448-.16-.652-.012-.064.04-.108.092-.108.028 0 .06.012.08.044.1.224.16.468.16.716 0 .812-1.068 1.224-1.068 2.036z"/><rect width=".13" height="5.814" x="-.065" y="-3.5" ry=".04" transform="translate(25.08 21.902)"/><path stroke="currentColor" stroke-linecap="round" stroke-linejoin="round" stroke-width=".08" d="M85.604 18.202v.4H67.212v-.4z"/><path d="M27.95 12.082c.317 0 .185.392.365.392.064 0 .216-.192.244-.252.024-.048.092-.048.112 0l-.492 1.68c-.032.028-.068.04-.108.04s-.08-.012-.112-.04l.468-1.304a1.272 1.272 0 0 1-.42.088c-.188 0-.348-.136-.348-.316a.29.29 0 0 1 .292-.288zm.593 8.276c.264 0 .432.144.432.356 0 .356-.452.732-.872.732-.264 0-.432-.144-.432-.356 0-.356.452-.732.872-.732z"/><rect width=".13" height="2.314" x="-.065" y="-3.5" ry=".04" transform="translate(28.91 21.902)"/><path d="M31.97 10.858c.264 0 .432.144.432.356 0 .356-.452.732-.872.732-.264 0-.432-.144-.432-.356 0-.356.452-.732.872-.732z"/><path d="M31.97 11.858c.264 0 .432.144.432.356 0 .356-.452.732-.872.732-.264 0-.432-.144-.432-.356 0-.356.452-.732.872-.732z"/><g class="scale-degree"><path d="m31.197 9.496-.006.199v.035c0 .07.006.137.016.205.137-.122.285-.256.285-.439 0-.102-.045-.208-.135-.208-.099 0-.157.103-.16.208zm-.195-1.321c.029-.016.064-.026.096-.026s.067.01.096.026l-.026 1.088a.437.437 0 0 1 .301-.122c.16 0 .269.16.269.333 0 .25-.266.374-.451.54-.055.049-.08.141-.157.141-.048 0-.083-.041-.083-.092z"/><text font-family="serif" font-size="2.2" transform="translate(31.933 10.115)">
<tspan>➐</tspan>
</text></g><path d="M31.97 23.858c.264 0 .432.144.432.356 0 .356-.452.732-.872.732-.264 0-.432-.144-.432-.356 0-.356.452-.732.872-.732z"/><rect width=".13" height="4.314" x="-.065" y="-1.314" ry=".04" transform="translate(31.163 12.902)"/><path d="M31.228 15.862h-.064v-1h.064v1zm0 0v-1c.388-.236.896-.592.896-1.036 0-.228-.06-.448-.16-.652-.012-.064.04-.108.092-.108.028 0 .06.012.08.044.1.224.16.468.16.716 0 .812-1.068 1.224-1.068 2.036z"/><rect width=".13" height="5.814" x="-.065" y="-3.5" ry=".04" transform="translate(32.337 21.902)"/><path stroke="currentColor" stroke-linecap="round" stroke-linejoin="round" stroke-width=".08" d="M62.406 18.202v.4h-21.43v-.4z"/><path d="M35.207 12.082c.316 0 .184.392.364.392.064 0 .216-.192.244-.252.024-.048.092-.048.112 0l-.492 1.68c-.032.028-.068.04-.108.04s-.08-.012-.112-.04l.468-1.304a1.272 1.272 0 0 1-.42.088c-.188 0-.348-.136-.348-.316a.29.29 0 0 1 .292-.288zm.593 8.276c.263 0 .431.144.431.356 0 .356-.452.732-.872.732-.264 0-.432-.144-.432-.356 0-.356.452-.732.872-.732z"/><rect width=".13" height="2.314" x="-.065" y="-3.5" ry=".04" transform="translate(36.166 21.902)"/><path stroke="currentColor" stroke-linecap="round" stroke-linejoin="round" stroke-width=".08" d="M47.365 13.702v.4l-7.563.19v-.4zm0 .81v.4l-7.563.19v-.4z"/><path d="M40.634 11.358c.264 0 .432.144.432.356 0 .356-.452.732-.872.732-.264 0-.432-.144-.432-.356 0-.356.452-.732.872-.732z"/><text class="scale-degree" font-family="serif" font-size="2.2" transform="translate(39.762 10.115)">
<tspan>➏</tspan>
</text><path d="m40.795 16.483-.2.652c-.12.396-.484 1.02-.872 1.02-.18 0-.348-.108-.348-.276 0-.156.068-.308.208-.308.096 0 .176.08.176.176 0 .12-.152.096-.152.216 0 .04.044.044.092.044h.024c.192 0 .244-.232.292-.432l.272-1.092h-.196c-.044 0-.076-.032-.076-.076s.032-.076.076-.076h.24c.128-.384.472-.764.852-.764.18 0 .348.108.348.276 0 .156-.068.308-.208.308a.174.174 0 0 1-.176-.172c0-.12.152-.1.152-.22 0-.04-.04-.044-.088-.044h-.028c-.248 0-.28.352-.344.616h.22c.044 0 .076.032.076.076s-.032.076-.076.076h-.264zm-23.648.109c.312 0 .388-.704.388-.712 0-.072-.028-.132-.1-.132-.244 0-.408.496-.408.692 0 .088.032.152.12.152zm-.856-.436c0-.008.204-.604.536-.604.14 0 .236.084.264.208.116-.124.268-.208.412-.208.276 0 .428.196.428.456 0 .472-.42.744-.636.744-.212 0-.28-.08-.336-.08-.028 0-.056.012-.064.036l-.116.344c-.004.008-.004.02-.004.028 0 .148.228.072.228.168 0 .028-.016.056-.052.056-.012 0-.2-.02-.464-.02s-.448.02-.46.02a.055.055 0 0 1-.056-.056c0-.124.348.004.408-.164l.408-1.2a.315.315 0 0 0 .016-.08c0-.032-.008-.056-.044-.056-.132 0-.252.24-.316.388a.104.104 0 0 1-.096.068c-.032 0-.056-.016-.056-.048zm24.343 7.702c.264 0 .432.144.432.356 0 .356-.452.732-.872.732-.264 0-.432-.144-.432-.356 0-.356.452-.732.872-.732zm-23.177-14.5c.264 0 .432.144.432.356 0 .356-.452.732-.872.732-.264 0-.432-.144-.432-.356 0-.356.452-.732.872-.732z"/><rect width=".13" height="2.812" x="-.065" y="-.814" ry=".04" transform="translate(39.827 12.902)"/><rect width=".13" height="5.814" x="-.065" y="-3.5" ry=".04" transform="translate(41.002 21.902)"/><path d="M17.457 8.358c.264 0 .432.144.432.356 0 .356-.452.732-.872.732-.264 0-.432-.144-.432-.356 0-.356.452-.732.872-.732z"/><path stroke="currentColor" stroke-linecap="round" stroke-linejoin="round" stroke-width=".08" d="M36.191 18.202v.4H17.8v-.4z"/><path d="M43.139 10.858c.264 0 .432.144.432.356 0 .356-.452.732-.872.732-.264 0-.432-.144-.432-.356 0-.356.452-.732.872-.732z"/><rect width=".13" height="3.25" x="-.065" y="-1.314" ry=".04" transform="translate(42.332 12.902)"/><path d="M45.643 10.358c.264 0 .432.144.432.356 0 .356-.452.732-.872.732-.264 0-.432-.144-.432-.356 0-.356.452-.732.872-.732zm0 10c.264 0 .432.144.432.356 0 .356-.452.732-.872.732-.264 0-.432-.144-.432-.356 0-.356.452-.732.872-.732z"/><rect width=".13" height="3.688" x="-.065" y="-1.814" ry=".04" transform="translate(44.836 12.902)"/><rect width=".13" height="2.314" x="-.065" y="-3.5" ry=".04" transform="translate(46.01 21.902)"/><text class="schema" font-family="serif" font-size="1.96" transform="translate(56.235 5.206)">
<tspan>Quiescenza</tspan>
</text><path d="M48.147 10.858c.264 0 .432.144.432.356 0 .356-.452.732-.872.732-.264 0-.432-.144-.432-.356 0-.356.452-.732.872-.732z"/><rect width=".13" height="3.126" x="-.065" y="-1.314" ry=".04" transform="translate(47.34 12.902)"/><path stroke="currentColor" stroke-linecap="round" stroke-linejoin="round" stroke-width=".1" d="m89.817 6.14.5 1m-58.719-1-.5 1m.5-1h58.219" class="schema"/><path d="M50.651 11.358c.264 0 .432.144.432.356 0 .356-.452.732-.872.732-.264 0-.432-.144-.432-.356 0-.356.452-.732.872-.732zm0 12.5c.264 0 .432.144.432.356 0 .356-.452.732-.872.732-.264 0-.432-.144-.432-.356 0-.356.452-.732.872-.732z"/><rect width=".13" height="3.314" x="-.065" y="-.814" ry=".04" transform="translate(49.844 12.902)"/><rect width=".13" height="5.814" x="-.065" y="-3.5" ry=".04" transform="translate(51.018 21.902)"/><path d="M54.605 20.358c.264 0 .432.144.432.356 0 .356-.452.732-.872.732-.264 0-.432-.144-.432-.356 0-.356.452-.732.872-.732z"/><rect width=".13" height="2.314" x="-.065" y="-3.5" ry=".04" transform="translate(54.973 21.902)"/><path d="M57.164 12.59c0-.236.496-.332.496-.728a.427.427 0 0 0-.1-.276l-.14-.168a.057.057 0 0 1-.016-.04c0-.036.036-.06.068-.06.016 0 .032.004.044.02l.604.72a.16.16 0 0 1 .04.1c0 .236-.496.332-.496.728 0 .096.028.196.096.276l.336.396a.057.057 0 0 1 .016.04c0 .036-.032.064-.064.064s-.18-.176-.436-.176c-.064 0-.212 0-.212.268 0 .14.044.296.112.376.028.032-.02.076-.048.044-.18-.216-.368-.592-.368-.808 0-.164.108-.168.16-.168.132 0 .312.052.476.124l-.528-.632a.16.16 0 0 1-.04-.1zm.896 11.268c.264 0 .432.144.432.356 0 .356-.452.732-.872.732-.264 0-.432-.144-.432-.356 0-.356.452-.732.872-.732z"/><rect width=".13" height="5.814" x="-.065" y="-3.5" ry=".04" transform="translate(58.427 21.902)"/><path d="M62.014 20.358c.264 0 .432.144.432.356 0 .356-.452.732-.872.732-.264 0-.432-.144-.432-.356 0-.356.452-.732.872-.732z"/><rect width=".13" height="2.314" x="-.065" y="-3.5" ry=".04" transform="translate(62.381 21.902)"/><path d="M66.87 12.358c.264 0 .432.144.432.356 0 .356-.452.732-.872.732-.264 0-.432-.144-.432-.356 0-.356.452-.732.872-.732z"/><path d="M66.87 13.358c.264 0 .432.144.432.356 0 .356-.452.732-.872.732-.264 0-.432-.144-.432-.356 0-.356.452-.732.872-.732zm-.31 3.234c.312 0 .388-.704.388-.712 0-.072-.028-.132-.1-.132-.244 0-.408.496-.408.692 0 .088.032.152.12.152zm-.856-.436c0-.008.204-.604.536-.604.14 0 .236.084.264.208.116-.124.268-.208.412-.208.276 0 .428.196.428.456 0 .472-.42.744-.636.744-.212 0-.28-.08-.336-.08-.028 0-.056.012-.064.036l-.116.344c-.004.008-.004.02-.004.028 0 .148.228.072.228.168 0 .028-.016.056-.052.056-.012 0-.2-.02-.464-.02s-.448.02-.46.02a.055.055 0 0 1-.056-.056c0-.124.348.004.408-.164l.408-1.2a.315.315 0 0 0 .016-.08c0-.032-.008-.056-.044-.056-.132 0-.252.24-.316.388a.104.104 0 0 1-.096.068c-.032 0-.056-.016-.056-.048zm1.166 7.702c.264 0 .432.144.432.356 0 .356-.452.732-.872.732-.264 0-.432-.144-.432-.356 0-.356.452-.732.872-.732z"/><rect width=".13" height="4.189" x="-.065" y="-3.375" ry=".04" transform="translate(67.237 12.902)"/><path d="M67.302 9.567v1h-.064v-1h.064zm0 0c0 .788.828 1.344.828 2.132 0 .284-.06.564-.164.828a.097.097 0 0 1-.08.048c-.052 0-.104-.044-.092-.108.104-.244.168-.504.168-.768 0-.412-.376-.832-.66-1.132v-1z"/><rect width=".13" height="5.814" x="-.065" y="-3.5" ry=".04" transform="translate(67.237 21.902)"/><path d="M70.107 12.082c.316 0 .184.392.364.392.064 0 .216-.192.244-.252.024-.048.092-.048.112 0l-.492 1.68c-.032.028-.068.04-.108.04s-.08-.012-.112-.04l.468-1.304a1.272 1.272 0 0 1-.42.088c-.188 0-.348-.136-.348-.316a.29.29 0 0 1 .292-.288zm.592 8.276c.264 0 .432.144.432.356 0 .356-.452.732-.872.732-.264 0-.432-.144-.432-.356 0-.356.452-.732.872-.732z"/><rect width=".13" height="2.314" x="-.065" y="-3.5" ry=".04" transform="translate(71.066 21.902)"/><path d="M74.126 12.858c.264 0 .432.144.432.356 0 .356-.452.732-.872.732-.264 0-.432-.144-.432-.356 0-.356.452-.732.872-.732z"/><path d="M74.126 13.858c.264 0 .432.144.432.356 0 .356-.452.732-.872.732-.264 0-.432-.144-.432-.356 0-.356.452-.732.872-.732zm0 10c.264 0 .432.144.432.356 0 .356-.452.732-.872.732-.264 0-.432-.144-.432-.356 0-.356.452-.732.872-.732z"/><rect width=".13" height="4.314" x="-.065" y="-3" ry=".04" transform="translate(74.493 12.902)"/><path d="M74.558 9.942v1h-.064v-1h.064zm0 0c0 .788.828 1.344.828 2.132 0 .284-.06.564-.164.828a.097.097 0 0 1-.08.048c-.052 0-.104-.044-.092-.108.104-.244.168-.504.168-.768 0-.412-.376-.832-.66-1.132v-1z"/><rect width=".13" height="5.814" x="-.065" y="-3.5" ry=".04" transform="translate(74.493 21.902)"/><path d="M77.363 12.082c.316 0 .184.392.364.392.064 0 .216-.192.244-.252.024-.048.092-.048.112 0l-.492 1.68c-.032.028-.068.04-.108.04s-.08-.012-.112-.04l.468-1.304a1.272 1.272 0 0 1-.42.088c-.188 0-.348-.136-.348-.316a.29.29 0 0 1 .292-.288zm.592 8.276c.264 0 .432.144.432.356 0 .356-.452.732-.872.732-.264 0-.432-.144-.432-.356 0-.356.452-.732.872-.732z"/><rect width=".13" height="2.314" x="-.065" y="-3.5" ry=".04" transform="translate(78.323 21.902)"/><path d="M81.382 13.358c.264 0 .432.144.432.356 0 .356-.452.732-.872.732-.264 0-.432-.144-.432-.356 0-.356.452-.732.872-.732z"/><path d="M81.382 14.358c.264 0 .432.144.432.356 0 .356-.452.732-.872.732-.264 0-.432-.144-.432-.356 0-.356.452-.732.872-.732z"/><g class="scale-degree"><path d="M80.488 7.663a.155.155 0 0 1 .163 0l-.006.614.326-.073h.013c.032 0 .06.025.06.057l.023 1.802c-.025.016-.054.022-.083.022s-.058-.006-.083-.022l.01-.615-.327.074h-.013a.06.06 0 0 1-.06-.058zm.435.848-.281.06-.01.644.282-.061z"/><text font-family="serif" font-size="2.2" transform="translate(81.24 9.665)">
<tspan>➐</tspan>
</text></g><path d="M81.382 23.858c.264 0 .432.144.432.356 0 .356-.452.732-.872.732-.264 0-.432-.144-.432-.356 0-.356.452-.732.872-.732z"/><rect width=".13" height="4.314" x="-.065" y="-2.5" ry=".04" transform="translate(81.75 12.902)"/><path d="M81.815 10.442v1h-.064v-1h.064zm0 0c0 .788.828 1.344.828 2.132 0 .284-.06.564-.164.828a.097.097 0 0 1-.08.048c-.052 0-.104-.044-.092-.108.104-.244.168-.504.168-.768 0-.412-.376-.832-.66-1.132v-1zm-2.367 2.96c.032-.016.068-.028.1-.028s.064.012.096.028l-.008.732.424-.08h.012c.04 0 .072.028.072.068l.028 2.28c-.032.016-.068.028-.1.028s-.064-.012-.096-.028l.008-.732-.424.08h-.012c-.04 0-.072-.028-.072-.068zM80 14.454l-.368.068-.012.828.368-.068z"/><rect width=".13" height="5.814" x="-.065" y="-3.5" ry=".04" transform="translate(81.75 21.902)"/><path d="M84.62 12.082c.316 0 .184.392.364.392.064 0 .216-.192.244-.252.024-.048.092-.048.112 0l-.492 1.68c-.032.028-.068.04-.108.04s-.08-.012-.112-.04l.468-1.304a1.272 1.272 0 0 1-.42.088c-.188 0-.348-.136-.348-.316a.29.29 0 0 1 .292-.288zm.592 8.276c.264 0 .432.144.432.356 0 .356-.452.732-.872.732-.264 0-.432-.144-.432-.356 0-.356.452-.732.872-.732z"/><rect width=".13" height="2.314" x="-.065" y="-3.5" ry=".04" transform="translate(85.579 21.902)"/><path d="M89.885 13.858c.264 0 .432.144.432.356 0 .356-.452.732-.872.732-.264 0-.432-.144-.432-.356 0-.356.452-.732.872-.732z"/><text class="scale-degree" font-family="serif" font-size="2.2" transform="translate(89.013 10.085)">
<tspan>➊</tspan>
</text><path d="m90.045 16.468-.2.652c-.12.396-.484 1.02-.872 1.02-.18 0-.348-.108-.348-.276 0-.156.068-.308.208-.308.096 0 .176.08.176.176 0 .12-.152.096-.152.216 0 .04.044.044.092.044h.024c.192 0 .244-.232.292-.432l.272-1.092h-.196c-.044 0-.076-.032-.076-.076s.032-.076.076-.076h.24c.128-.384.472-.764.852-.764.18 0 .348.108.348.276 0 .156-.068.308-.208.308a.174.174 0 0 1-.176-.172c0-.12.152-.1.152-.22 0-.04-.04-.044-.088-.044h-.028c-.248 0-.28.352-.344.616h.22c.044 0 .076.032.076.076s-.032.076-.076.076h-.264zm-.16 7.39c.264 0 .432.144.432.356 0 .356-.452.732-.872.732-.264 0-.432-.144-.432-.356 0-.356.452-.732.872-.732z"/><rect width=".16" height="13.1" y="-6.55" ry=".05" transform="translate(5.63 17.402)"/><rect width=".13" height="3.126" x="-.065" y="-1.812" ry=".04" transform="translate(90.252 12.902)"/><rect width=".13" height="5.814" x="-.065" y="-3.5" ry=".04" transform="translate(90.252 21.902)"/><path d="M5.007 18.866c0-1.02-.528-1.452-.528-1.464 0-.072.528-.384.528-1.464 0-1.044-.432-1.956-.432-3.12 0-.756.18-1.464.708-2.004.06-.06.156.036.096.096-.396.396-.516.9-.516 1.44 0 1.02.408 1.92.408 3.06 0 .744-.18 1.452-.696 1.992.516.54.696 1.248.696 1.992 0 1.14-.408 2.04-.408 3.06 0 .54.12 1.044.516 1.44.06.06-.036.156-.096.096-.528-.54-.708-1.248-.708-2.004 0-1.164.432-2.076.432-3.12zm87.382-5.508c.264 0 .432.144.432.356 0 .356-.452.732-.872.732-.264 0-.432-.144-.432-.356 0-.356.452-.732.872-.732z"/><rect width=".13" height="2.688" x="-.065" y="-1.874" ry=".04" transform="translate(92.756 12.902)"/><path d="M94.893 12.858c.264 0 .432.144.432.356 0 .356-.452.732-.872.732-.264 0-.432-.144-.432-.356 0-.356.452-.732.872-.732zm0 7.5c.264 0 .432.144.432.356 0 .356-.452.732-.872.732-.264 0-.432-.144-.432-.356 0-.356.452-.732.872-.732z"/><rect width=".13" height="2.25" x="-.065" y="-1.936" ry=".04" transform="translate(95.26 12.902)"/><rect width=".13" height="2.314" x="-.065" y="-3.5" ry=".04" transform="translate(95.26 21.902)"/><path d="M97.397 13.358c.264 0 .432.144.432.356 0 .356-.452.732-.872.732-.264 0-.432-.144-.432-.356 0-.356.452-.732.872-.732z"/><rect width=".13" height="2.812" x="-.065" y="-1.998" ry=".04" transform="translate(97.764 12.902)"/><path d="M99.901 13.858c.264 0 .432.144.432.356 0 .356-.452.732-.872.732-.264 0-.432-.144-.432-.356 0-.356.452-.732.872-.732zm0 10c.264 0 .432.144.432.356 0 .356-.452.732-.872.732-.264 0-.432-.144-.432-.356 0-.356.452-.732.872-.732z"/><rect width=".13" height="3.314" x="-.065" y="-2" ry=".04" transform="translate(100.269 12.902)"/><rect width=".13" height="5.814" x="-.065" y="-3.5" ry=".04" transform="translate(100.269 21.902)"/><path d="M103.856 20.358c.264 0 .432.144.432.356 0 .356-.452.732-.872.732-.264 0-.432-.144-.432-.356 0-.356.452-.732.872-.732z"/><rect width=".13" height="2.314" x="-.065" y="-3.5" ry=".04" transform="translate(104.223 21.902)"/><path d="M106.414 12.59c0-.236.496-.332.496-.728a.427.427 0 0 0-.1-.276l-.14-.168a.057.057 0 0 1-.016-.04c0-.036.036-.06.068-.06.016 0 .032.004.044.02l.604.72a.16.16 0 0 1 .04.1c0 .236-.496.332-.496.728 0 .096.028.196.096.276l.336.396a.057.057 0 0 1 .016.04c0 .036-.032.064-.064.064s-.18-.176-.436-.176c-.064 0-.212 0-.212.268 0 .14.044.296.112.376.028.032-.02.076-.048.044-.18-.216-.368-.592-.368-.808 0-.164.108-.168.16-.168.132 0 .312.052.476.124l-.528-.632a.16.16 0 0 1-.04-.1zm.896 11.268c.264 0 .432.144.432.356 0 .356-.452.732-.872.732-.264 0-.432-.144-.432-.356 0-.356.452-.732.872-.732z"/><rect width=".13" height="5.814" x="-.065" y="-3.5" ry=".04" transform="translate(107.677 21.902)"/><path d="M111.264 20.358c.264 0 .432.144.432.356 0 .356-.452.732-.872.732-.264 0-.432-.144-.432-.356 0-.356.452-.732.872-.732z"/><rect width=".13" height="2.314" x="-.065" y="-3.5" ry=".04" transform="translate(111.631 21.902)"/></svg>
