<svg xmlns="http://www.w3.org/2000/svg" width="803.15" height="48.4mm" class="d-block mx-auto" version="1.2" viewBox="0 0 120.927 27.545">
    <style>
        tspan{white-space:pre}
    </style>
    <rect width="1.956" height=".2" x="74.619" y="-.1" fill="currentColor" ry=".1" transform="translate(5.69 9.585)"/>
    <rect width="1.956" height=".2" x="38.858" y="-.1" fill="currentColor" ry=".1" transform="translate(5.69 9.585)"/>
    <path stroke="currentColor" stroke-linecap="round" stroke-linejoin="round" stroke-width=".1" d="M5.74 14.585h108.274m-108.274-1h108.274m-108.274-1h108.274m-108.274-1h108.274m-108.274-1h108.274"/>
    <rect width=".19" height="4.95" y="10.79" fill="currentColor" ry="0" transform="translate(113.874 3.845)"/>
    <rect width="1.956" height=".2" x="98.403" y="-.1" fill="currentColor" ry=".1" transform="translate(5.69 24.585)"/>
    <rect width="1.956" height=".2" x="88.886" y="-.1" fill="currentColor" ry=".1" transform="translate(5.69 24.585)"/>
    <rect width="1.956" height=".2" x="84.063" y="-.1" fill="currentColor" ry=".1" transform="translate(5.69 24.585)"/>
    <rect width="1.956" height=".2" x="56.748" y="-.1" fill="currentColor" ry=".1" transform="translate(5.69 17.585)"/>
    <rect width="1.956" height=".2" x="56.748" y="-.1" fill="currentColor" ry=".1" transform="translate(5.69 18.585)"/>
    <rect width="1.956" height=".2" x="53.994" y="-.1" fill="currentColor" ry=".1" transform="translate(5.69 18.585)"/>
    <rect width="1.956" height=".2" x="20.987" y="-.1" fill="currentColor" ry=".1" transform="translate(5.69 17.585)"/>
    <rect width="1.956" height=".2" x="20.987" y="-.1" fill="currentColor" ry=".1" transform="translate(5.69 18.585)"/>
    <path stroke="currentColor" stroke-linecap="round" stroke-linejoin="round" stroke-width=".1" d="M5.74 23.585h108.274m-108.274-1h108.274m-108.274-1h108.274m-108.274-1h108.274m-108.274-1h108.274"/>
    <rect width=".19" height="4.05" y="-2.05" fill="currentColor" ry="0" transform="translate(113.874 21.585)"/>
    <rect width=".19" height="4.05" y="-2" fill="currentColor" ry="0" transform="translate(113.874 12.585)"/>
    <rect width=".19" height="4.95" y="10.79" fill="currentColor" ry="0" transform="translate(87.84 3.845)"/>
    <rect width=".19" height="4.05" y="-2.05" fill="currentColor" ry="0" transform="translate(87.84 21.585)"/>
    <rect width=".19" height="4.05" y="-2" fill="currentColor" ry="0" transform="translate(87.84 12.585)"/>
    <rect width=".19" height="4.95" y="10.79" fill="currentColor" ry="0" transform="translate(52.078 3.845)"/>
    <rect width=".19" height="4.05" y="-2.05" fill="currentColor" ry="0" transform="translate(52.078 21.585)"/>
    <rect width=".19" height="4.05" y="-2" fill="currentColor" ry="0" transform="translate(52.078 12.585)"/>
    <path fill="currentColor" d="M18.663 9.541c.264 0 .432.144.432.356 0 .356-.452.732-.872.732-.264 0-.432-.144-.432-.356 0-.356.452-.732.872-.732z"/>
    <path fill="currentColor" d="M18.663 10.541c.264 0 .432.144.432.356 0 .356-.452.732-.872.732-.264 0-.432-.144-.432-.356 0-.356.452-.732.872-.732zm0 1.5c.264 0 .432.144.432.356 0 .356-.452.732-.872.732-.264 0-.432-.144-.432-.356 0-.356.452-.732.872-.732zM7.555 16.125H7.53a.783.783 0 0 1-.78-.788c0-.232.212-.412.448-.412.216 0 .38.188.38.412 0 .208-.172.38-.38.38a.326.326 0 0 1-.124-.024.56.56 0 0 0 .468.26h.016zm.78-1.728a.69.69 0 0 0 .452-.656.764.764 0 0 0-.692-.76c.076.356.192.968.24 1.416zm-1.548-.924c0 .58.564.988 1.056.988.004 0 .188 0 .328-.024a17.343 17.343 0 0 0-.252-1.455c-.316.032-.496.244-.496.476 0 .176.1.364.324.492.02.02.028.04.028.06 0 .044-.04.088-.088.088-.06 0-.504-.249-.504-.749 0-.351.232-.695.64-.787a15.048 15.048 0 0 0-.184-.7c-.428.484-.852.972-.852 1.612zm.704-2.1c-.116-.383-.208-.68-.208-1.383 0-.46.22-.897.596-1.169a.06.06 0 0 1 .08 0c.272.32.532.98.532 1.433 0 .572-.344 1.02-.72 1.456.084.271.156.551.224.827.008 0 .028-.004.052-.004.62 0 1.024.513 1.024 1.045 0 .452-.296.848-.72.984.012.14.02.28.02.42 0 .076-.004.156-.008.232-.028.475-.352.9-.808.911l.004-.172c.372-.008.612-.368.636-.764a3.775 3.775 0 0 0-.008-.588c-.02.004-.176.032-.356.032-.772 0-1.332-.72-1.332-1.496 0-.708.524-1.224.992-1.764zm.712-1.451c0-.137.004-.265-.08-.517a1.153 1.153 0 0 0-.648 1.037c0 .207.048.46.144.775.32-.388.584-.792.584-1.296zm1.787.188c0-.033.02-.06.053-.073l.184-.068v-.631c0-.04.032-.076.072-.076s.076.035.076.075v.58l.332-.123V9.16c0-.04.036-.075.076-.075s.072.035.072.075v.58l.128-.047c.008-.005.02-.005.028-.005a.08.08 0 0 1 .08.08v.24c0 .033-.02.065-.052.077l-.184.064v.64l.128-.044c.008-.004.02-.004.028-.004a.08.08 0 0 1 .08.08v.24c0 .032-.02.06-.052.072l-.184.068v.632c0 .04-.032.076-.072.076s-.076-.036-.076-.076v-.58l-.332.124v.632c0 .04-.036.076-.076.076s-.072-.036-.072-.076v-.58l-.128.048c-.008.004-.02.004-.028.004a.08.08 0 0 1-.08-.08v-.24c0-.033.02-.065.052-.077l.184-.064v-.64l-.128.044c-.008.004-.02.004-.028.004a.08.08 0 0 1-.08-.08v-.24zm.717.095-.332.12v.64l.332-.12v-.64zm.383 1.405c0-.033.02-.06.053-.073l.184-.068v-.631c0-.04.032-.076.072-.076s.076.035.076.075v.58l.332-.123v-.633c0-.04.036-.075.076-.075s.072.035.072.075v.58l.128-.047c.008-.005.02-.005.028-.005a.08.08 0 0 1 .08.08v.24c0 .033-.02.065-.052.077l-.184.064v.64l.128-.044c.008-.004.02-.004.028-.004a.08.08 0 0 1 .08.08v.24c0 .032-.02.06-.052.072l-.184.068v.632c0 .04-.032.076-.072.076s-.076-.036-.076-.076v-.58l-.332.124v.632c0 .04-.036.076-.076.076s-.072-.036-.072-.076v-.58l-.128.048c-.008.004-.02.004-.028.004a.08.08 0 0 1-.08-.08v-.24c0-.033.02-.065.052-.077l.184-.064v-.64l-.128.044c-.008.004-.02.004-.028.004a.08.08 0 0 1-.08-.08v-.24zm.717.095-.332.12v.64l.332-.12v-.64zm2.533-.168c.465 0 .705.424.705.652 0 .16-.12.288-.268.288-.124 0-.3-.1-.3-.3 0-.152.108-.308.288-.308.016 0 .036 0 .056.004a.599.599 0 0 0-.48-.236c-.424 0-.452.292-.452.744v.408c0 .452.028.748.452.748.32 0 .556-.28.632-.604.008-.028.028-.04.048-.04.024 0 .052.016.052.048 0 .088-.2.696-.732.696-.236 0-1-.076-1-1.052 0-.248.072-1.048 1-1.048zm4.323 9.004c.264 0 .432.144.432.356 0 .357-.452.733-.872.733-.264 0-.432-.144-.432-.356 0-.357.452-.733.872-.733zm-9.944.544c0-.112.092-.204.204-.204s.204.092.204.204-.092.204-.204.204-.204-.092-.204-.204zm0-1c0-.112.092-.204.204-.204s.204.092.204.204-.092.204-.204.204-.204-.092-.204-.204zm-1.3-.552c.688 0 1.172.352 1.172 1.004 0 1.053-1.052 1.657-2.064 2.085a.049.049 0 0 1-.036.016.053.053 0 0 1-.052-.053c0-.012.004-.024.016-.036.808-.472 1.648-1.06 1.648-1.972 0-.48-.252-.94-.684-.94-.296 0-.516.216-.616.504a.323.323 0 0 1 .136-.032c.22 0 .4.18.4.4 0 .232-.176.424-.4.424-.24 0-.448-.188-.448-.424 0-.532.408-.976.928-.976zm2.571.577c0-.032.02-.06.053-.072l.184-.068v-.632c0-.04.032-.077.072-.077s.076.036.076.076v.58l.332-.124v-.632c0-.04.036-.076.076-.076s.072.036.072.076v.58l.128-.048c.008-.004.02-.004.028-.004a.08.08 0 0 1 .08.08v.24c0 .032-.02.064-.052.076l-.184.064v.64l.128-.044c.008-.004.02-.004.028-.004a.08.08 0 0 1 .08.08v.24c0 .032-.02.06-.052.072l-.184.068v.632c0 .04-.032.076-.072.076s-.076-.036-.076-.076v-.58l-.332.124v.632c0 .04-.036.076-.076.076s-.072-.036-.072-.076v-.58l-.128.048c-.008.004-.02.004-.028.004a.08.08 0 0 1-.08-.08v-.24c0-.032.02-.064.052-.076l.184-.064v-.64l-.128.044c-.008.004-.02.004-.028.004a.08.08 0 0 1-.08-.08v-.24zm.717.096-.332.12v.64l.332-.12v-.64zm.383 1.404c0-.032.02-.06.053-.072l.184-.068v-.632c0-.04.032-.077.072-.077s.076.036.076.076v.58l.332-.124v-.632c0-.04.036-.076.076-.076s.072.036.072.076v.58l.128-.048c.008-.004.02-.004.028-.004a.08.08 0 0 1 .08.08v.24c0 .032-.02.064-.052.076l-.184.064v.64l.128-.044c.008-.004.02-.004.028-.004a.08.08 0 0 1 .08.08v.24c0 .032-.02.06-.052.072l-.184.068v.632c0 .04-.032.076-.072.076s-.076-.036-.076-.076v-.58l-.332.124v.632c0 .04-.036.076-.076.076s-.072-.036-.072-.076v-.58l-.128.048c-.008.004-.02.004-.028.004a.08.08 0 0 1-.08-.08v-.24c0-.032.02-.064.052-.076l.184-.064v-.64l-.128.044c-.008.004-.02.004-.028.004a.08.08 0 0 1-.08-.08v-.24zm.717.096-.332.12v.64l.332-.12v-.64zm2.533-1.168c.465 0 .705.424.705.652 0 .16-.12.288-.268.288-.124 0-.3-.1-.3-.3 0-.152.108-.308.288-.308.016 0 .036 0 .056.004a.599.599 0 0 0-.48-.236c-.424 0-.452.292-.452.744v.408c0 .452.028.748.452.748.32 0 .556-.28.632-.604.008-.028.028-.04.048-.04.024 0 .052.016.052.048 0 .088-.2.696-.732.696-.236 0-1-.076-1-1.052 0-.248.072-1.048 1-1.048z"/>
    <rect width=".13" height="5.647" x="-.065" y="-2.314" fill="currentColor" ry=".04" transform="translate(17.856 12.585)"/>
    <path fill="currentColor" d="M16.34 9.61c0-.033.02-.06.053-.073l.184-.068v-.631c0-.04.032-.076.072-.076s.076.035.076.075v.58l.332-.123V8.66c0-.04.036-.075.076-.075s.072.035.072.075v.58l.128-.047c.008-.005.02-.005.028-.005a.08.08 0 0 1 .08.08v.24c0 .033-.02.065-.052.077l-.184.064v.64l.128-.044c.008-.004.02-.004.028-.004a.08.08 0 0 1 .08.08v.24c0 .032-.02.06-.052.072l-.184.068v.632c0 .04-.032.076-.072.076s-.076-.036-.076-.076v-.58l-.332.124v.632c0 .04-.036.076-.076.076s-.072-.036-.072-.076v-.58l-.128.048c-.008.004-.02.004-.028.004a.08.08 0 0 1-.08-.08v-.24c0-.033.02-.065.052-.077l.184-.064v-.64l-.128.044c-.008.004-.02.004-.028.004a.08.08 0 0 1-.08-.08v-.24zm.717.095-.332.12v.64l.332-.12v-.64z"/>
    <rect width=".13" height="2.492" x="-.065" y="-.314" fill="currentColor" ry=".04" transform="translate(17.856 21.585)"/>
    <path fill="currentColor" stroke="currentColor" stroke-linecap="round" stroke-linejoin="round" stroke-width=".08" d="M103.43 9.386v.4h-7.313v-.4zm0 .81v.4h-7.313v-.4z"/>
    <path fill="currentColor" d="M22.367 19.541c.264 0 .432.144.432.356 0 .357-.452.733-.872.733-.264 0-.432-.144-.432-.356 0-.357.452-.733.872-.733z"/>
    <rect width=".13" height="2.823" x="-.065" y="-1.314" fill="currentColor" ry=".04" transform="translate(21.56 21.585)"/>
    <path fill="currentColor" d="M20.045 19.61c0-.032.02-.06.052-.072l.184-.068v-.632c0-.04.032-.077.072-.077s.076.036.076.076v.58l.332-.124v-.632c0-.04.036-.076.076-.076s.072.036.072.076v.58l.128-.048c.008-.004.02-.004.028-.004a.08.08 0 0 1 .08.08v.24c0 .032-.02.064-.052.076l-.184.064v.64l.128-.044c.008-.004.02-.004.028-.004a.08.08 0 0 1 .08.08v.24c0 .032-.02.06-.052.072l-.184.068v.632c0 .04-.032.076-.072.076s-.076-.036-.076-.076v-.58l-.332.124v.632c0 .04-.036.076-.076.076s-.072-.036-.072-.076v-.58l-.128.048c-.008.004-.02.004-.028.004a.08.08 0 0 1-.08-.08v-.24c0-.032.02-.064.052-.076l.184-.064v-.64l-.128.044c-.008.004-.02.004-.028.004a.08.08 0 0 1-.08-.08v-.24zm.716.096-.332.12v.64l.332-.12v-.64z"/>
    <path fill="currentColor" stroke="currentColor" stroke-linecap="round" stroke-linejoin="round" stroke-width=".08" d="M84.43 14.386v.4l-3.755-1.19v-.4z"/>
    <path fill="currentColor" d="M25.121 18.541c.264 0 .432.144.432.356 0 .357-.452.733-.872.733-.264 0-.432-.144-.432-.356 0-.357.452-.733.872-.733z"/>
    <rect width=".13" height="3.326" x="-.065" y="-2.314" fill="currentColor" ry=".04" transform="translate(24.314 21.585)"/>
    <path fill="currentColor" stroke="currentColor" stroke-linecap="round" stroke-linejoin="round" stroke-width=".08" d="M77.971 13.386v.4h-2.804v-.4zm0 .81v.4h-6.258v-.4z"/>
    <path fill="currentColor" d="M27.283 11.765c.316 0 .184.392.364.392.064 0 .216-.192.244-.252.024-.048.092-.048.112 0l-.492 1.68c-.032.028-.068.04-.108.04s-.08-.012-.112-.04l.468-1.304a1.272 1.272 0 0 1-.42.088c-.188 0-.348-.136-.348-.316a.29.29 0 0 1 .292-.288zm.592 5.276c.264 0 .432.144.432.356 0 .357-.452.733-.872.733-.264 0-.432-.144-.432-.356 0-.357.452-.733.872-.733z"/>
    <rect width=".13" height="3.814" x="-.065" y="-3.814" fill="currentColor" ry=".04" transform="translate(27.068 21.585)"/>
    <path fill="currentColor" stroke="currentColor" stroke-linecap="round" stroke-linejoin="round" stroke-width=".08" d="M69.009 14.385v.4l-2.805.69v-.4zm0 .81v.4l-2.805.69v-.4z"/>
    <path fill="currentColor" d="M31.275 12.041c.264 0 .432.144.432.356 0 .356-.452.732-.872.732-.264 0-.432-.144-.432-.356 0-.356.452-.732.872-.732z"/>
    <rect width=".13" height="2.606" x="-.065" y=".186" fill="currentColor" ry=".04" transform="translate(30.468 12.585)"/>
    <path fill="currentColor" stroke="currentColor" stroke-linecap="round" stroke-linejoin="round" stroke-width=".08" d="M60.1 21.386v.4l-2.804.581v-.4zm0 .81v.4l-6.758 1.38v-.4z"/>
    <path fill="currentColor" d="M34.03 10.541c.263 0 .431.144.431.356 0 .356-.452.732-.872.732-.264 0-.432-.144-.432-.356 0-.356.452-.732.872-.732z"/>
    <rect width=".13" height="3.332" x="-.065" y="-1.314" fill="currentColor" ry=".04" transform="translate(33.222 12.585)"/>
    <path fill="currentColor" stroke="currentColor" stroke-linecap="round" stroke-linejoin="round" stroke-width=".08" d="M48.668 14.386v.4l-3.754-1.19v-.4z"/>
    <path fill="currentColor" d="M36.784 9.541c.264 0 .432.144.432.356 0 .356-.452.732-.872.732-.264 0-.432-.144-.432-.356 0-.356.452-.732.872-.732zm.588 12.044h-1.42c-.024 0-.04-.016-.04-.04v-.544c0-.024.016-.04.04-.04h1.42c.024 0 .04.017.04.04v.544c0 .024-.016.04-.04.04z"/>
    <rect width=".13" height="3.124" x="-.065" y="-2.314" fill="currentColor" ry=".04" transform="translate(35.977 12.585)"/>
    <text fill="currentColor" class="schema" font-family="serif" font-size="1.96" transform="translate(65.508 5.206)">
<tspan>Quiescenza</tspan>
</text>
    <path fill="currentColor" d="M40.238 10.541c.264 0 .432.144.432.356 0 .356-.452.732-.872.732-.264 0-.432-.144-.432-.356 0-.356.452-.732.872-.732z"/>
    <rect width=".13" height="2.124" x="-.065" y="-1.314" fill="currentColor" ry=".04" transform="translate(39.43 12.585)"/>
    <path stroke="currentColor" stroke-linecap="round" stroke-linejoin="round" stroke-width=".1" d="m90.883 6.14.5 1m-42.305-1-.5 1m.5-1h41.805" class="schema"/>
    <path fill="currentColor" d="M42.992 9.541c.264 0 .432.144.432.356 0 .356-.452.732-.872.732-.264 0-.432-.144-.432-.356 0-.356.452-.732.872-.732z"/>
    <rect width=".13" height="3.124" x="-.065" y="-2.314" fill="currentColor" ry=".04" transform="translate(42.185 12.585)"/>
    <path fill="currentColor" stroke="currentColor" stroke-linecap="round" stroke-linejoin="round" stroke-width=".08" d="M42.21 12.386v.4h-2.804v-.4zm0 .81v.4h-6.258v-.4z"/>
    <path fill="currentColor" d="M45.746 8.541c.264 0 .432.144.432.356 0 .356-.452.732-.872.732-.264 0-.432-.144-.432-.356 0-.356.452-.732.872-.732z"/>
    <rect width=".13" height="4.144" x="-.065" y="-3.314" fill="currentColor" ry=".04" transform="translate(44.94 12.585)"/>
    <path fill="currentColor" stroke="currentColor" stroke-linecap="round" stroke-linejoin="round" stroke-width=".08" d="M33.247 13.575v.4l-2.804.81v-.4zm0 .811v.4l-2.804.81v-.4z"/>
    <path fill="currentColor" d="M49.45 11.041c.264 0 .432.144.432.356 0 .356-.451.732-.871.732-.265 0-.433-.144-.433-.356 0-.356.452-.732.872-.732z"/>
    <g class="scale-degree">
        <path fill="currentColor" d="m48.678 9.18-.007.198v.035c0 .07.007.138.016.205.138-.121.285-.256.285-.438 0-.102-.045-.208-.134-.208-.1 0-.157.102-.16.208zm-.195-1.322c.028-.016.064-.025.096-.025s.067.01.095.025l-.025 1.088a.437.437 0 0 1 .3-.121c.16 0 .27.16.27.332 0 .25-.266.375-.452.541-.054.048-.08.141-.157.141-.047 0-.083-.042-.083-.093z"/>
        <text fill="currentColor" font-family="serif" font-size="2.2" transform="translate(49.413 9.798)">
<tspan>➐</tspan>
</text>
    </g>
    <rect width=".13" height="2.794" x="-.065" y="-.814" fill="currentColor" ry=".04" transform="translate(48.644 12.585)"/>
    <path fill="currentColor" d="M47.505 10.085c.031-.016.067-.028.1-.028s.064.012.096.028l-.009.732.424-.08h.012c.04 0 .072.028.072.068l.028 2.28c-.032.016-.068.028-.1.028s-.064-.011-.096-.027l.009-.733-.424.08h-.012c-.04 0-.072-.027-.072-.067zm.551 1.052-.367.068-.013.828.368-.068z"/>
    <path fill="currentColor" stroke="currentColor" stroke-linecap="round" stroke-linejoin="round" stroke-width=".08" d="M24.339 21.575v.4l-2.804.521v-.4zm0 .811v.4l-6.508 1.19v-.4z"/>
    <path fill="currentColor" d="M54.174 11.541c.264 0 .432.144.432.356 0 .356-.452.732-.872.732-.264 0-.432-.144-.432-.356 0-.356.452-.732.872-.732z"/>
    <path fill="currentColor" d="M54.174 12.541c.264 0 .432.144.432.356 0 .356-.452.732-.872.732-.264 0-.432-.144-.432-.356 0-.356.452-.732.872-.732z"/>
    <text fill="currentColor" class="scale-degree" font-family="serif" font-size="2.2" transform="translate(53.302 9.798)">
<tspan>➏</tspan>
</text>
    <path fill="currentColor" d="M54.174 20.541c.264 0 .432.144.432.356 0 .357-.452.733-.872.733-.264 0-.432-.144-.432-.356 0-.357.452-.733.872-.733z"/>
    <rect width=".13" height="3.981" x="-.065" y="-.314" fill="currentColor" ry=".04" transform="translate(53.367 12.585)"/>
    <rect width=".13" height="2.491" x="-.065" y="-.314" fill="currentColor" ry=".04" transform="translate(53.367 21.585)"/>
    <path fill="currentColor" d="M58.128 19.041c.264 0 .432.144.432.356 0 .357-.452.733-.872.733-.264 0-.432-.144-.432-.356 0-.357.452-.733.872-.733z"/>
    <rect width=".13" height="3.193" x="-.065" y="-1.814" fill="currentColor" ry=".04" transform="translate(57.321 21.585)"/>
    <path fill="currentColor" d="M60.882 18.041c.264 0 .432.144.432.356 0 .357-.452.733-.872.733-.264 0-.432-.144-.432-.356 0-.357.452-.733.872-.733z"/>
    <rect width=".13" height="3.637" x="-.065" y="-2.814" fill="currentColor" ry=".04" transform="translate(60.075 21.585)"/>
    <path fill="currentColor" d="M63.044 11.765c.316 0 .184.392.364.392.064 0 .216-.192.244-.252.024-.048.092-.048.112 0l-.492 1.68c-.032.028-.068.04-.108.04s-.08-.012-.112-.04l.468-1.304a1.272 1.272 0 0 1-.42.088c-.188 0-.348-.136-.348-.316a.29.29 0 0 1 .292-.288zm.592 5.276c.264 0 .432.144.432.356 0 .357-.452.733-.872.733-.264 0-.432-.144-.432-.356 0-.357.452-.733.872-.733z"/>
    <rect width=".13" height="3.814" x="-.065" y="-3.814" fill="currentColor" ry=".04" transform="translate(62.83 21.585)"/>
    <path fill="currentColor" d="M67.036 12.541c.264 0 .432.144.432.356 0 .356-.452.732-.872.732-.264 0-.432-.144-.432-.356 0-.356.452-.732.872-.732z"/>
    <rect width=".13" height="2.798" x="-.065" y=".686" fill="currentColor" ry=".04" transform="translate(66.23 12.585)"/>
    <path fill="currentColor" d="M69.79 11.541c.265 0 .433.144.433.356 0 .356-.452.732-.872.732-.264 0-.432-.144-.432-.356 0-.356.452-.732.872-.732z"/>
    <rect width=".13" height="3.139" x="-.065" y="-.314" fill="currentColor" ry=".04" transform="translate(68.984 12.585)"/>
    <path fill="currentColor" d="M72.545 10.541c.264 0 .432.144.432.356 0 .356-.452.732-.872.732-.264 0-.432-.144-.432-.356 0-.356.452-.732.872-.732zm.588 11.044h-1.42c-.024 0-.04-.016-.04-.04v-.544c0-.024.016-.04.04-.04h1.42c.024 0 .04.017.04.04v.544c0 .024-.016.04-.04.04z"/>
    <rect width=".13" height="3.124" x="-.065" y="-1.314" fill="currentColor" ry=".04" transform="translate(71.738 12.585)"/>
    <path fill="currentColor" d="M75.999 11.541c.264 0 .432.144.432.356 0 .356-.452.732-.872.732-.264 0-.432-.144-.432-.356 0-.356.452-.732.872-.732z"/>
    <rect width=".13" height="2.124" x="-.065" y="-.314" fill="currentColor" ry=".04" transform="translate(75.192 12.585)"/>
    <path fill="currentColor" d="M78.753 10.541c.264 0 .432.144.432.356 0 .356-.452.732-.872.732-.264 0-.432-.144-.432-.356 0-.356.452-.732.872-.732z"/>
    <rect width=".13" height="3.124" x="-.065" y="-1.314" fill="currentColor" ry=".04" transform="translate(77.946 12.585)"/>
    <path fill="currentColor" d="M81.507 9.041c.264 0 .432.144.432.356 0 .356-.451.732-.871.732-.265 0-.433-.144-.433-.356 0-.356.452-.732.872-.732z"/>
    <rect width=".13" height="3.644" x="-.065" y="-2.814" fill="currentColor" ry=".04" transform="translate(80.7 12.585)"/>
    <path fill="currentColor" d="M85.212 11.041c.264 0 .432.144.432.356 0 .356-.452.732-.872.732-.264 0-.432-.144-.432-.356 0-.356.452-.732.872-.732z"/>
    <g class="scale-degree">
        <path fill="currentColor" d="M84.317 7.663a.158.158 0 0 1 .163 0l-.006.614.326-.073h.013c.032 0 .061.025.061.057l.023 1.802c-.026.016-.055.022-.084.022s-.057-.006-.083-.022l.01-.615-.327.074H84.4a.06.06 0 0 1-.06-.058zm.436.848-.282.06-.01.644.282-.061z"/>
        <text fill="currentColor" font-family="serif" font-size="2.2" transform="translate(85.069 9.665)">
<tspan>➐</tspan>
</text>
    </g>
    <rect width=".13" height="2.794" x="-.065" y="-.814" fill="currentColor" ry=".04" transform="translate(84.405 12.585)"/>
    <path fill="currentColor" d="M82.89 11.11c0-.033.02-.06.052-.073l.184-.068v-.631c0-.04.032-.076.072-.076s.076.035.076.075v.58l.332-.123v-.633c0-.04.036-.075.076-.075s.072.035.072.075v.58l.128-.047c.008-.005.02-.005.028-.005a.08.08 0 0 1 .08.08v.24c0 .033-.02.065-.052.077l-.184.064v.64l.128-.044c.008-.004.02-.004.028-.004a.08.08 0 0 1 .08.08v.24c0 .032-.02.06-.052.072l-.184.068v.632c0 .04-.032.076-.072.076s-.076-.036-.076-.076v-.58l-.332.124v.632c0 .04-.036.076-.076.076s-.072-.036-.072-.076v-.58l-.128.048c-.008.004-.02.004-.028.004a.08.08 0 0 1-.08-.08v-.24c0-.033.02-.065.052-.077l.184-.064v-.64l-.128.044c-.008.004-.02.004-.028.004a.08.08 0 0 1-.08-.08v-.24zm.716.095-.332.12v.64l.332-.12v-.64zm7.345-.664c.264 0 .432.144.432.356 0 .356-.452.732-.872.732-.264 0-.432-.144-.432-.356 0-.356.452-.732.872-.732zm0 1.5c.264 0 .432.144.432.356 0 .356-.452.732-.872.732-.264 0-.432-.144-.432-.356 0-.356.452-.732.872-.732z"/>
    <path fill="currentColor" d="M90.951 13.041c.264 0 .432.144.432.356 0 .356-.452.732-.872.732-.264 0-.432-.144-.432-.356 0-.356.452-.732.872-.732z"/>
    <text fill="currentColor" class="scale-degree" font-family="serif" font-size="2.2" transform="translate(90.08 9.798)">
<tspan>➊</tspan>
</text>
    <path fill="currentColor" d="M90.951 20.541c.264 0 .432.144.432.356 0 .357-.452.733-.872.733-.264 0-.432-.144-.432-.356 0-.357.452-.733.872-.733zm0 3.5c.264 0 .432.144.432.356 0 .357-.452.733-.872.733-.264 0-.432-.144-.432-.356 0-.357.452-.733.872-.733z"/>
    <rect width=".16" height="13.1" y="-6.55" fill="currentColor" ry=".05" transform="translate(5.63 17.085)"/>
    <rect width=".13" height="5.314" x="-.065" y="-1.314" fill="currentColor" ry=".04" transform="translate(90.144 12.585)"/>
    <path fill="currentColor" d="M88.63 13.11c0-.033.02-.06.051-.073l.184-.068v-.631c0-.04.032-.076.072-.076s.076.035.076.075v.58l.332-.123v-.633c0-.04.036-.075.076-.075s.072.035.072.075v.58l.128-.047c.008-.005.02-.005.028-.005a.08.08 0 0 1 .08.08v.24c0 .033-.02.065-.052.077l-.184.064v.64l.128-.044c.008-.004.02-.004.028-.004a.08.08 0 0 1 .08.08v.24c0 .032-.02.06-.052.072l-.184.068v.632c0 .04-.032.076-.072.076s-.076-.036-.076-.076v-.58l-.332.124v.632c0 .04-.036.076-.076.076s-.072-.036-.072-.076v-.58l-.128.048c-.008.004-.02.004-.028.004a.08.08 0 0 1-.08-.08v-.24c0-.033.02-.065.052-.077l.184-.064v-.64l-.128.044c-.008.004-.02.004-.028.004a.08.08 0 0 1-.08-.08v-.24zm.715.095-.332.12v.64l.332-.12v-.64z"/>
    <rect width=".13" height="6.481" x="-.065" y="-3.667" fill="currentColor" ry=".04" transform="translate(91.319 21.585)"/>
    <path fill="currentColor" d="M5.007 18.55c0-1.02-.528-1.453-.528-1.465 0-.072.528-.384.528-1.464 0-1.044-.432-1.956-.432-3.12 0-.755.18-1.463.708-2.003.06-.06.156.036.096.096-.396.396-.516.9-.516 1.44 0 1.02.408 1.92.408 3.06 0 .744-.18 1.452-.696 1.992.516.54.696 1.248.696 1.992 0 1.14-.408 2.04-.408 3.06 0 .54.12 1.043.516 1.44.06.06-.036.156-.096.096-.528-.54-.708-1.248-.708-2.004 0-1.165.432-2.077.432-3.12zm90.768-6.509c.264 0 .432.144.432.356 0 .356-.452.732-.872.732-.264 0-.432-.144-.432-.356 0-.356.452-.732.872-.732zm0 8.5c.264 0 .432.144.432.356 0 .357-.452.733-.872.733-.264 0-.432-.144-.432-.356 0-.357.452-.733.872-.733zm0 3.5c.264 0 .432.144.432.356 0 .357-.452.733-.872.733-.264 0-.432-.144-.432-.356 0-.357.452-.733.872-.733z"/>
    <rect width=".13" height="2.814" x="-.065" y="-3" fill="currentColor" ry=".04" transform="translate(96.142 12.585)"/>
    <rect width=".13" height="6.481" x="-.065" y="-3.667" fill="currentColor" ry=".04" transform="translate(96.142 21.585)"/>
    <path fill="currentColor" d="M98.03 13.041c.263 0 .431.144.431.356 0 .356-.452.732-.872.732-.264 0-.432-.144-.432-.356 0-.356.452-.732.872-.732z"/>
    <rect width=".13" height="3.814" x="-.065" y="-3" fill="currentColor" ry=".04" transform="translate(98.396 12.585)"/>
    <path fill="currentColor" d="M100.783 12.041c.264 0 .432.144.432.356 0 .356-.452.732-.872.732-.264 0-.432-.144-.432-.356 0-.356.452-.732.872-.732z"/>
    <rect width=".13" height="2.814" x="-.065" y="-3" fill="currentColor" ry=".04" transform="translate(101.15 12.585)"/>
    <path fill="currentColor" d="M103.038 13.041c.264 0 .432.144.432.356 0 .356-.452.732-.872.732-.264 0-.432-.144-.432-.356 0-.356.452-.732.872-.732z"/>
    <rect width=".13" height="3.814" x="-.065" y="-3" fill="currentColor" ry=".04" transform="translate(103.405 12.585)"/>
    <path fill="currentColor" d="M105.292 14.041c.264 0 .432.144.432.356 0 .356-.452.732-.872.732-.264 0-.432-.144-.432-.356 0-.356.452-.732.872-.732zm0 6.5c.264 0 .432.144.432.356 0 .357-.452.733-.872.733-.264 0-.432-.144-.432-.356 0-.357.452-.733.872-.733zm0 3.5c.264 0 .432.144.432.356 0 .357-.452.733-.872.733-.264 0-.432-.144-.432-.356 0-.357.452-.733.872-.733z"/>
    <rect width=".13" height="3.314" x="-.065" y="-1.5" fill="currentColor" ry=".04" transform="translate(105.659 12.585)"/>
    <rect width=".13" height="6.481" x="-.065" y="-3.667" fill="currentColor" ry=".04" transform="translate(105.659 21.585)"/>
    <path fill="currentColor" d="M109.3 12.274c0-.236.496-.332.496-.728a.427.427 0 0 0-.1-.276l-.14-.168a.057.057 0 0 1-.016-.04c0-.036.036-.06.068-.06.016 0 .032.004.044.02l.604.72a.16.16 0 0 1 .04.1c0 .236-.496.332-.496.728 0 .096.028.196.096.276l.336.396a.057.057 0 0 1 .016.04c0 .036-.032.064-.064.064s-.18-.176-.436-.176c-.064 0-.212 0-.212.268 0 .14.044.296.112.376.028.032-.02.076-.048.044-.18-.216-.368-.592-.368-.808 0-.164.108-.168.16-.168.132 0 .312.052.476.124l-.528-.632a.16.16 0 0 1-.04-.1zm0 8.999c0-.236.496-.332.496-.728a.427.427 0 0 0-.1-.276l-.14-.168a.057.057 0 0 1-.016-.04c0-.036.036-.06.068-.06.016 0 .032.004.044.02l.604.72a.16.16 0 0 1 .04.1c0 .236-.496.332-.496.728 0 .097.028.197.096.277l.336.396a.057.057 0 0 1 .016.04c0 .036-.032.064-.064.064s-.18-.176-.436-.176c-.064 0-.212 0-.212.268 0 .14.044.296.112.376.028.032-.02.076-.048.044-.18-.216-.368-.592-.368-.808 0-.164.108-.168.16-.168.132 0 .312.052.476.124l-.528-.632a.16.16 0 0 1-.04-.1z"/>
</svg>
