<svg xmlns="http://www.w3.org/2000/svg" xmlns:xlink="http://www.w3.org/1999/xlink" width="803.15" height="48.4mm" version="1.2" viewBox="0 0 120.927 27.545">
    <defs>
        <path id="reuse-0" fill="currentColor" d="M218 136c66 0 108-36 108-89 0-89-113-183-218-183C42-136 0-100 0-47c0 89 113 183 218 183z"/>
        <path id="reuse-1" fill="currentColor" d="M0 119c0 8 5 15 13 18l46 17v158c0 10 8 19 18 19s19-9 19-19V167l83 31v158c0 10 9 19 19 19s18-9 18-19V211l32 12c2 1 5 1 7 1 11 0 20-9 20-20v-60c0-8-5-16-13-19l-46-16V-51l32 11c2 1 5 1 7 1 11 0 20-9 20-20v-60c0-8-5-15-13-18l-46-17v-158c0-10-8-19-18-19s-19 9-19 19v145l-83-31v-158c0-10-9-19-19-19s-18 9-18 19v145l-32-12c-2-1-5-1-7-1-11 0-20 9-20 20v60c0 8 5 16 13 19l46 16V51L27 40c-2-1-5-1-7-1C9 39 0 48 0 59v60zm179-24L96 65V-95l83 30V95z"/>
        <path id="reuse-2" fill="currentColor" d="M250 262c116 0 176-106 176-163 0-40-30-72-67-72-31 0-75 25-75 75 0 38 27 77 72 77 4 0 9 0 14-1-28 37-72 59-120 59-106 0-113-73-113-186V-51c0-113 7-187 113-187 80 0 139 70 158 151 2 7 7 10 12 10 6 0 13-4 13-12 0-22-50-174-183-174C191-263 0-244 0 0c0 62 18 262 250 262z"/>
        <path id="reuse-3" fill="currentColor" d="M70 205c79 0 46-98 91-98 16 0 54 48 61 63 6 12 23 12 28 0L127-250c-8-7-17-10-27-10s-20 3-28 10L189 76c-34-12-69-22-105-22-47 0-87 34-87 79 0 40 33 72 73 72z"/>
        <path id="reuse-4" fill="currentColor" d="M365 0H10C4 0 0 4 0 10v136c0 6 4 10 10 10h355c6 0 10-4 10-10V10c0-6-4-10-10-10z"/>
        <path id="reuse-5" fill="currentColor" d="M-6 78c0 59 124 83 124 182 0 24-8 49-25 69l-35 42c-3 3-4 7-4 10 0 9 9 15 17 15 4 0 8-1 11-5l151-180c7-9 10-17 10-25 0-59-124-83-124-182 0-24 7-49 24-69l84-99c3-3 4-7 4-10 0-9-8-16-16-16s-45 44-109 44c-16 0-53 0-53-67 0-35 11-74 28-94 7-8-5-19-12-11-45 54-92 148-92 202 0 41 27 42 40 42 33 0 78-13 119-31L4 53C-3 62-6 70-6 78z"/>
    </defs>
    <style>
        tspan{white-space:pre}
    </style>
    <rect width="1.956" height=".2" x="74.619" y="-.1" fill="currentColor" ry=".1" transform="translate(5.69 9.585)"/>
    <rect width="1.956" height=".2" x="38.858" y="-.1" fill="currentColor" ry=".1" transform="translate(5.69 9.585)"/>
    <path stroke="currentColor" stroke-linecap="round" stroke-linejoin="round" stroke-width=".1" d="M5.74 14.585h108.274m-108.274-1h108.274m-108.274-1h108.274m-108.274-1h108.274m-108.274-1h108.274"/>
    <rect width=".19" height="4.95" y="10.79" fill="currentColor" ry="0" transform="translate(113.874 3.845)"/>
    <rect width="1.956" height=".2" x="98.403" y="-.1" fill="currentColor" ry=".1" transform="translate(5.69 24.585)"/>
    <rect width="1.956" height=".2" x="88.886" y="-.1" fill="currentColor" ry=".1" transform="translate(5.69 24.585)"/>
    <rect width="1.956" height=".2" x="84.063" y="-.1" fill="currentColor" ry=".1" transform="translate(5.69 24.585)"/>
    <rect width="1.956" height=".2" x="56.748" y="-.1" fill="currentColor" ry=".1" transform="translate(5.69 17.585)"/>
    <rect width="1.956" height=".2" x="56.748" y="-.1" fill="currentColor" ry=".1" transform="translate(5.69 18.585)"/>
    <rect width="1.956" height=".2" x="53.994" y="-.1" fill="currentColor" ry=".1" transform="translate(5.69 18.585)"/>
    <rect width="1.956" height=".2" x="20.987" y="-.1" fill="currentColor" ry=".1" transform="translate(5.69 17.585)"/>
    <rect width="1.956" height=".2" x="20.987" y="-.1" fill="currentColor" ry=".1" transform="translate(5.69 18.585)"/>
    <path stroke="currentColor" stroke-linecap="round" stroke-linejoin="round" stroke-width=".1" d="M5.74 23.585h108.274m-108.274-1h108.274m-108.274-1h108.274m-108.274-1h108.274m-108.274-1h108.274"/>
    <rect width=".19" height="4.05" y="-2.05" fill="currentColor" ry="0" transform="translate(113.874 21.585)"/>
    <rect width=".19" height="4.05" y="-2" fill="currentColor" ry="0" transform="translate(113.874 12.585)"/>
    <rect width=".19" height="4.95" y="10.79" fill="currentColor" ry="0" transform="translate(87.84 3.845)"/>
    <rect width=".19" height="4.05" y="-2.05" fill="currentColor" ry="0" transform="translate(87.84 21.585)"/>
    <rect width=".19" height="4.05" y="-2" fill="currentColor" ry="0" transform="translate(87.84 12.585)"/>
    <rect width=".19" height="4.95" y="10.79" fill="currentColor" ry="0" transform="translate(52.078 3.845)"/>
    <rect width=".19" height="4.05" y="-2.05" fill="currentColor" ry="0" transform="translate(52.078 21.585)"/>
    <rect width=".19" height="4.05" y="-2" fill="currentColor" ry="0" transform="translate(52.078 12.585)"/>
    <use xlink:href="#reuse-0" transform="matrix(.004 0 0 -.004 17.79 10.085)"/>
    <use xlink:href="#reuse-0" transform="matrix(.004 0 0 -.004 17.79 11.085)"/>
    <use xlink:href="#reuse-0" transform="matrix(.004 0 0 -.004 17.79 12.585)"/>
    <path fill="currentColor" d="M7.555 16.125H7.53a.783.783 0 0 1-.78-.788c0-.232.212-.412.448-.412.216 0 .38.188.38.412 0 .208-.172.38-.38.38a.326.326 0 0 1-.124-.024.56.56 0 0 0 .468.26h.016zm.78-1.728a.69.69 0 0 0 .452-.656.764.764 0 0 0-.692-.76c.076.356.192.968.24 1.416zm-1.548-.924c0 .58.564.988 1.056.988.004 0 .188 0 .328-.024a17.343 17.343 0 0 0-.252-1.455c-.316.032-.496.244-.496.476 0 .176.1.364.324.492.02.02.028.04.028.06 0 .044-.04.088-.088.088-.06 0-.504-.249-.504-.749 0-.351.232-.695.64-.787a15.048 15.048 0 0 0-.184-.7c-.428.484-.852.972-.852 1.612zm.704-2.1c-.116-.383-.208-.68-.208-1.383 0-.46.22-.897.596-1.169a.06.06 0 0 1 .08 0c.272.32.532.98.532 1.433 0 .572-.344 1.02-.72 1.456.084.271.156.551.224.827.008 0 .028-.004.052-.004.62 0 1.024.513 1.024 1.045 0 .452-.296.848-.72.984.012.14.02.28.02.42 0 .076-.004.156-.008.232-.028.475-.352.9-.808.911l.004-.172c.372-.008.612-.368.636-.764a3.775 3.775 0 0 0-.008-.588c-.02.004-.176.032-.356.032-.772 0-1.332-.72-1.332-1.496 0-.708.524-1.224.992-1.764zm.712-1.451c0-.137.004-.265-.08-.517a1.153 1.153 0 0 0-.648 1.037c0 .207.048.46.144.775.32-.388.584-.792.584-1.296z"/>
    <use xlink:href="#reuse-1" transform="matrix(.004 0 0 -.004 9.99 10.585)"/>
    <use xlink:href="#reuse-1" transform="matrix(.004 0 0 -.004 11.09 12.085)"/>
    <use xlink:href="#reuse-2" transform="matrix(.004 0 0 -.004 13.34 12.585)"/>
    <use xlink:href="#reuse-0" transform="matrix(.004 0 0 -.004 17.79 21.085)"/>
    <path fill="currentColor" d="M8.719 21.085c0-.112.092-.204.204-.204s.204.092.204.204-.092.204-.204.204-.204-.092-.204-.204zm0-1c0-.112.092-.204.204-.204s.204.092.204.204-.092.204-.204.204-.204-.092-.204-.204zm-1.3-.552c.688 0 1.172.352 1.172 1.004 0 1.053-1.052 1.657-2.064 2.085a.049.049 0 0 1-.036.016.053.053 0 0 1-.052-.053c0-.012.004-.024.016-.036.808-.472 1.648-1.06 1.648-1.972 0-.48-.252-.94-.684-.94-.296 0-.516.216-.616.504a.323.323 0 0 1 .136-.032c.22 0 .4.18.4.4 0 .232-.176.424-.4.424-.24 0-.448-.188-.448-.424 0-.532.408-.976.928-.976z"/>
    <use xlink:href="#reuse-1" transform="matrix(.004 0 0 -.004 9.99 20.585)"/>
    <use xlink:href="#reuse-1" transform="matrix(.004 0 0 -.004 11.09 22.085)"/>
    <use xlink:href="#reuse-2" transform="matrix(.004 0 0 -.004 13.34 21.585)"/>
    <rect width=".13" height="5.647" x="-.065" y="-2.314" fill="currentColor" ry=".04" transform="translate(17.856 12.585)"/>
    <use xlink:href="#reuse-1" transform="matrix(.004 0 0 -.004 16.34 10.085)"/>
    <rect width=".13" height="2.492" x="-.065" y="-.314" fill="currentColor" ry=".04" transform="translate(17.856 21.585)"/>
    <path fill="currentColor" stroke="currentColor" stroke-linecap="round" stroke-linejoin="round" stroke-width=".08" d="M103.43 9.386v.4h-7.313v-.4zm0 .81v.4h-7.313v-.4z"/>
    <use xlink:href="#reuse-0" transform="matrix(.004 0 0 -.004 21.495 20.085)"/>
    <rect width=".13" height="2.823" x="-.065" y="-1.314" fill="currentColor" ry=".04" transform="translate(21.56 21.585)"/>
    <use xlink:href="#reuse-1" transform="matrix(.004 0 0 -.004 20.045 20.085)"/>
    <path fill="currentColor" stroke="currentColor" stroke-linecap="round" stroke-linejoin="round" stroke-width=".08" d="M84.43 14.386v.4l-3.755-1.19v-.4z"/>
    <use xlink:href="#reuse-0" transform="matrix(.004 0 0 -.004 24.249 19.085)"/>
    <rect width=".13" height="3.326" x="-.065" y="-2.314" fill="currentColor" ry=".04" transform="translate(24.314 21.585)"/>
    <path fill="currentColor" stroke="currentColor" stroke-linecap="round" stroke-linejoin="round" stroke-width=".08" d="M77.971 13.386v.4h-2.804v-.4zm0 .81v.4h-6.258v-.4z"/>
    <use xlink:href="#reuse-3" transform="matrix(.004 0 0 -.004 27.003 12.585)"/>
    <use xlink:href="#reuse-0" transform="matrix(.004 0 0 -.004 27.003 17.585)"/>
    <rect width=".13" height="3.814" x="-.065" y="-3.814" fill="currentColor" ry=".04" transform="translate(27.068 21.585)"/>
    <path fill="currentColor" stroke="currentColor" stroke-linecap="round" stroke-linejoin="round" stroke-width=".08" d="M69.009 14.385v.4l-2.805.69v-.4zm0 .81v.4l-2.805.69v-.4z"/>
    <use xlink:href="#reuse-0" transform="matrix(.004 0 0 -.004 30.403 12.585)"/>
    <rect width=".13" height="2.606" x="-.065" y=".186" fill="currentColor" ry=".04" transform="translate(30.468 12.585)"/>
    <path fill="currentColor" stroke="currentColor" stroke-linecap="round" stroke-linejoin="round" stroke-width=".08" d="M60.1 21.386v.4l-2.804.581v-.4zm0 .81v.4l-6.758 1.38v-.4z"/>
    <use xlink:href="#reuse-0" transform="matrix(.004 0 0 -.004 33.157 11.085)"/>
    <rect width=".13" height="3.332" x="-.065" y="-1.314" fill="currentColor" ry=".04" transform="translate(33.222 12.585)"/>
    <path fill="currentColor" stroke="currentColor" stroke-linecap="round" stroke-linejoin="round" stroke-width=".08" d="M48.668 14.386v.4l-3.754-1.19v-.4z"/>
    <use xlink:href="#reuse-0" transform="matrix(.004 0 0 -.004 35.912 10.085)"/>
    <use xlink:href="#reuse-4" transform="matrix(.004 0 0 -.004 35.912 21.585)"/>
    <rect width=".13" height="3.124" x="-.065" y="-2.314" fill="currentColor" ry=".04" transform="translate(35.977 12.585)"/>
    <text fill="currentColor" class="schema" font-family="serif" font-size="1.96" transform="translate(65.508 5.206)">
<tspan>Quiescenza</tspan>
</text>
    <use xlink:href="#reuse-0" transform="matrix(.004 0 0 -.004 39.366 11.085)"/>
    <rect width=".13" height="2.124" x="-.065" y="-1.314" fill="currentColor" ry=".04" transform="translate(39.43 12.585)"/>
    <path stroke="currentColor" stroke-linecap="round" stroke-linejoin="round" stroke-width=".1" d="m90.883 6.14.5 1m-42.305-1-.5 1m.5-1h41.805" class="schema"/>
    <use xlink:href="#reuse-0" transform="matrix(.004 0 0 -.004 42.12 10.085)"/>
    <rect width=".13" height="3.124" x="-.065" y="-2.314" fill="currentColor" ry=".04" transform="translate(42.185 12.585)"/>
    <path fill="currentColor" stroke="currentColor" stroke-linecap="round" stroke-linejoin="round" stroke-width=".08" d="M42.21 12.386v.4h-2.804v-.4zm0 .81v.4h-6.258v-.4z"/>
    <use xlink:href="#reuse-0" transform="matrix(.004 0 0 -.004 44.874 9.085)"/>
    <rect width=".13" height="4.144" x="-.065" y="-3.314" fill="currentColor" ry=".04" transform="translate(44.94 12.585)"/>
    <path fill="currentColor" stroke="currentColor" stroke-linecap="round" stroke-linejoin="round" stroke-width=".08" d="M33.247 13.575v.4l-2.804.81v-.4zm0 .811v.4l-2.804.81v-.4z"/>
    <use xlink:href="#reuse-0" transform="matrix(.004 0 0 -.004 48.578 11.585)"/>
    <g class="scale-degree">
        <path fill="currentColor" d="m48.678 9.18-.007.198v.035c0 .07.007.138.016.205.138-.121.285-.256.285-.438 0-.102-.045-.208-.134-.208-.1 0-.157.102-.16.208zm-.195-1.322c.028-.016.064-.025.096-.025s.067.01.095.025l-.025 1.088a.437.437 0 0 1 .3-.121c.16 0 .27.16.27.332 0 .25-.266.375-.452.541-.054.048-.08.141-.157.141-.047 0-.083-.042-.083-.093z"/>
        <text fill="currentColor" font-family="serif" font-size="2.2" transform="translate(49.413 9.798)">
<tspan>➐</tspan>
</text>
    </g>
    <rect width=".13" height="2.794" x="-.065" y="-.814" fill="currentColor" ry=".04" transform="translate(48.644 12.585)"/>
    <path fill="currentColor" d="M47.505 10.085c.031-.016.067-.028.1-.028s.064.012.096.028l-.009.732.424-.08h.012c.04 0 .072.028.072.068l.028 2.28c-.032.016-.068.028-.1.028s-.064-.011-.096-.027l.009-.733-.424.08h-.012c-.04 0-.072-.027-.072-.067zm.551 1.052-.367.068-.013.828.368-.068z"/>
    <path fill="currentColor" stroke="currentColor" stroke-linecap="round" stroke-linejoin="round" stroke-width=".08" d="M24.339 21.575v.4l-2.804.521v-.4zm0 .811v.4l-6.508 1.19v-.4z"/>
    <use xlink:href="#reuse-0" transform="matrix(.004 0 0 -.004 53.302 12.085)"/>
    <use xlink:href="#reuse-0" transform="matrix(.004 0 0 -.004 53.302 13.085)"/>
    <text fill="currentColor" class="scale-degree" font-family="serif" font-size="2.2" transform="translate(53.302 9.798)">
<tspan>➏</tspan>
</text>
    <use xlink:href="#reuse-0" transform="matrix(.004 0 0 -.004 53.302 21.085)"/>
    <rect width=".13" height="3.981" x="-.065" y="-.314" fill="currentColor" ry=".04" transform="translate(53.367 12.585)"/>
    <rect width=".13" height="2.491" x="-.065" y="-.314" fill="currentColor" ry=".04" transform="translate(53.367 21.585)"/>
    <use xlink:href="#reuse-0" transform="matrix(.004 0 0 -.004 57.256 19.585)"/>
    <rect width=".13" height="3.193" x="-.065" y="-1.814" fill="currentColor" ry=".04" transform="translate(57.321 21.585)"/>
    <use xlink:href="#reuse-0" transform="matrix(.004 0 0 -.004 60.01 18.585)"/>
    <rect width=".13" height="3.637" x="-.065" y="-2.814" fill="currentColor" ry=".04" transform="translate(60.075 21.585)"/>
    <use xlink:href="#reuse-3" transform="matrix(.004 0 0 -.004 62.764 12.585)"/>
    <use xlink:href="#reuse-0" transform="matrix(.004 0 0 -.004 62.764 17.585)"/>
    <rect width=".13" height="3.814" x="-.065" y="-3.814" fill="currentColor" ry=".04" transform="translate(62.83 21.585)"/>
    <use xlink:href="#reuse-0" transform="matrix(.004 0 0 -.004 66.164 13.085)"/>
    <rect width=".13" height="2.798" x="-.065" y=".686" fill="currentColor" ry=".04" transform="translate(66.23 12.585)"/>
    <use xlink:href="#reuse-0" transform="matrix(.004 0 0 -.004 68.919 12.085)"/>
    <rect width=".13" height="3.139" x="-.065" y="-.314" fill="currentColor" ry=".04" transform="translate(68.984 12.585)"/>
    <use xlink:href="#reuse-0" transform="matrix(.004 0 0 -.004 71.673 11.085)"/>
    <use xlink:href="#reuse-4" transform="matrix(.004 0 0 -.004 71.673 21.585)"/>
    <rect width=".13" height="3.124" x="-.065" y="-1.314" fill="currentColor" ry=".04" transform="translate(71.738 12.585)"/>
    <use xlink:href="#reuse-0" transform="matrix(.004 0 0 -.004 75.127 12.085)"/>
    <rect width=".13" height="2.124" x="-.065" y="-.314" fill="currentColor" ry=".04" transform="translate(75.192 12.585)"/>
    <use xlink:href="#reuse-0" transform="matrix(.004 0 0 -.004 77.881 11.085)"/>
    <rect width=".13" height="3.124" x="-.065" y="-1.314" fill="currentColor" ry=".04" transform="translate(77.946 12.585)"/>
    <use xlink:href="#reuse-0" transform="matrix(.004 0 0 -.004 80.635 9.585)"/>
    <rect width=".13" height="3.644" x="-.065" y="-2.814" fill="currentColor" ry=".04" transform="translate(80.7 12.585)"/>
    <use xlink:href="#reuse-0" transform="matrix(.004 0 0 -.004 84.34 11.585)"/>
    <g class="scale-degree">
        <path fill="currentColor" d="M84.317 7.663a.158.158 0 0 1 .163 0l-.006.614.326-.073h.013c.032 0 .061.025.061.057l.023 1.802c-.026.016-.055.022-.084.022s-.057-.006-.083-.022l.01-.615-.327.074H84.4a.06.06 0 0 1-.06-.058zm.436.848-.282.06-.01.644.282-.061z"/>
        <text fill="currentColor" font-family="serif" font-size="2.2" transform="translate(85.069 9.665)">
<tspan>➐</tspan>
</text>
    </g>
    <rect width=".13" height="2.794" x="-.065" y="-.814" fill="currentColor" ry=".04" transform="translate(84.405 12.585)"/>
    <use xlink:href="#reuse-1" transform="matrix(.004 0 0 -.004 82.89 11.585)"/>
    <use xlink:href="#reuse-0" transform="matrix(.004 0 0 -.004 90.08 11.085)"/>
    <use xlink:href="#reuse-0" transform="matrix(.004 0 0 -.004 90.08 12.585)"/>
    <use xlink:href="#reuse-0" transform="matrix(.004 0 0 -.004 90.08 13.585)"/>
    <text fill="currentColor" class="scale-degree" font-family="serif" font-size="2.2" transform="translate(90.08 9.798)">
<tspan>➊</tspan>
</text>
    <use xlink:href="#reuse-0" transform="matrix(.004 0 0 -.004 90.08 21.085)"/>
    <use xlink:href="#reuse-0" transform="matrix(.004 0 0 -.004 90.08 24.585)"/>
    <rect width=".16" height="13.1" y="-6.55" fill="currentColor" ry=".05" transform="translate(5.63 17.085)"/>
    <rect width=".13" height="5.314" x="-.065" y="-1.314" fill="currentColor" ry=".04" transform="translate(90.144 12.585)"/>
    <use xlink:href="#reuse-1" transform="matrix(.004 0 0 -.004 88.63 13.585)"/>
    <rect width=".13" height="6.481" x="-.065" y="-3.667" fill="currentColor" ry=".04" transform="translate(91.319 21.585)"/>
    <path fill="currentColor" d="M5.007 18.55c0-1.02-.528-1.453-.528-1.465 0-.072.528-.384.528-1.464 0-1.044-.432-1.956-.432-3.12 0-.755.18-1.463.708-2.003.06-.06.156.036.096.096-.396.396-.516.9-.516 1.44 0 1.02.408 1.92.408 3.06 0 .744-.18 1.452-.696 1.992.516.54.696 1.248.696 1.992 0 1.14-.408 2.04-.408 3.06 0 .54.12 1.043.516 1.44.06.06-.036.156-.096.096-.528-.54-.708-1.248-.708-2.004 0-1.165.432-2.077.432-3.12z"/>
    <use xlink:href="#reuse-0" transform="matrix(.004 0 0 -.004 94.903 12.585)"/>
    <use xlink:href="#reuse-0" transform="matrix(.004 0 0 -.004 94.903 21.085)"/>
    <use xlink:href="#reuse-0" transform="matrix(.004 0 0 -.004 94.903 24.585)"/>
    <rect width=".13" height="2.814" x="-.065" y="-3" fill="currentColor" ry=".04" transform="translate(96.142 12.585)"/>
    <rect width=".13" height="6.481" x="-.065" y="-3.667" fill="currentColor" ry=".04" transform="translate(96.142 21.585)"/>
    <use xlink:href="#reuse-0" transform="matrix(.004 0 0 -.004 97.157 13.585)"/>
    <rect width=".13" height="3.814" x="-.065" y="-3" fill="currentColor" ry=".04" transform="translate(98.396 12.585)"/>
    <use xlink:href="#reuse-0" transform="matrix(.004 0 0 -.004 99.911 12.585)"/>
    <rect width=".13" height="2.814" x="-.065" y="-3" fill="currentColor" ry=".04" transform="translate(101.15 12.585)"/>
    <use xlink:href="#reuse-0" transform="matrix(.004 0 0 -.004 102.166 13.585)"/>
    <rect width=".13" height="3.814" x="-.065" y="-3" fill="currentColor" ry=".04" transform="translate(103.405 12.585)"/>
    <use xlink:href="#reuse-0" transform="matrix(.004 0 0 -.004 104.42 14.585)"/>
    <use xlink:href="#reuse-0" transform="matrix(.004 0 0 -.004 104.42 21.085)"/>
    <use xlink:href="#reuse-0" transform="matrix(.004 0 0 -.004 104.42 24.585)"/>
    <rect width=".13" height="3.314" x="-.065" y="-1.5" fill="currentColor" ry=".04" transform="translate(105.659 12.585)"/>
    <rect width=".13" height="6.481" x="-.065" y="-3.667" fill="currentColor" ry=".04" transform="translate(105.659 21.585)"/>
    <use xlink:href="#reuse-5" transform="matrix(.004 0 0 -.004 109.324 12.585)"/>
    <use xlink:href="#reuse-5" transform="matrix(.004 0 0 -.004 109.324 21.585)"/>
</svg>
