<svg xmlns="http://www.w3.org/2000/svg" xmlns:xlink="http://www.w3.org/1999/xlink" version="1.2" width="212.50mm" height="48.40mm" viewBox="0.0000 -0.0000 120.9270 27.5448">
<style type="text/css">
<![CDATA[
tspan { white-space: pre; }
]]>
</style>
<g transform="translate(5.6906, 9.5855)">
<rect x="74.6189" y="-0.1000" width="1.9563" height="0.2000" ry="0.1000" fill="currentColor"/>
</g>
<g transform="translate(5.6906, 9.5855)">
<rect x="38.8577" y="-0.1000" width="1.9563" height="0.2000" ry="0.1000" fill="currentColor"/>
</g>
<g transform="translate(5.6906, 14.5855)">
<line stroke-linejoin="round" stroke-linecap="round" stroke-width="0.1000" stroke="currentColor" x1="0.0500" y1="0" x2="108.3235" y2="0"/>
</g>
<g transform="translate(5.6906, 13.5855)">
<line stroke-linejoin="round" stroke-linecap="round" stroke-width="0.1000" stroke="currentColor" x1="0.0500" y1="0" x2="108.3235" y2="0"/>
</g>
<g transform="translate(5.6906, 12.5855)">
<line stroke-linejoin="round" stroke-linecap="round" stroke-width="0.1000" stroke="currentColor" x1="0.0500" y1="0" x2="108.3235" y2="0"/>
</g>
<g transform="translate(5.6906, 11.5855)">
<line stroke-linejoin="round" stroke-linecap="round" stroke-width="0.1000" stroke="currentColor" x1="0.0500" y1="0" x2="108.3235" y2="0"/>
</g>
<g transform="translate(5.6906, 10.5855)">
<line stroke-linejoin="round" stroke-linecap="round" stroke-width="0.1000" stroke="currentColor" x1="0.0500" y1="0" x2="108.3235" y2="0"/>
</g>
<g transform="translate(113.8740, 3.8453)">
<rect x="0.0000" y="10.7902" width="0.1900" height="4.9500" ry="0.0000" fill="currentColor"/>
</g>
<g transform="translate(5.6906, 24.5855)">
<rect x="98.4032" y="-0.1000" width="1.9563" height="0.2000" ry="0.1000" fill="currentColor"/>
</g>
<g transform="translate(5.6906, 24.5855)">
<rect x="88.8864" y="-0.1000" width="1.9563" height="0.2000" ry="0.1000" fill="currentColor"/>
</g>
<g transform="translate(5.6906, 24.5855)">
<rect x="84.0627" y="-0.1000" width="1.9563" height="0.2000" ry="0.1000" fill="currentColor"/>
</g>
<g transform="translate(5.6906, 17.5855)">
<rect x="56.7478" y="-0.1000" width="1.9563" height="0.2000" ry="0.1000" fill="currentColor"/>
</g>
<g transform="translate(5.6906, 18.5855)">
<rect x="56.7478" y="-0.1000" width="1.9563" height="0.2000" ry="0.1000" fill="currentColor"/>
</g>
<g transform="translate(5.6906, 18.5855)">
<rect x="53.9936" y="-0.1000" width="1.9563" height="0.2000" ry="0.1000" fill="currentColor"/>
</g>
<g transform="translate(5.6906, 17.5855)">
<rect x="20.9866" y="-0.1000" width="1.9563" height="0.2000" ry="0.1000" fill="currentColor"/>
</g>
<g transform="translate(5.6906, 18.5855)">
<rect x="20.9866" y="-0.1000" width="1.9563" height="0.2000" ry="0.1000" fill="currentColor"/>
</g>
<g transform="translate(5.6906, 23.5855)">
<line stroke-linejoin="round" stroke-linecap="round" stroke-width="0.1000" stroke="currentColor" x1="0.0500" y1="0" x2="108.3235" y2="0"/>
</g>
<g transform="translate(5.6906, 22.5855)">
<line stroke-linejoin="round" stroke-linecap="round" stroke-width="0.1000" stroke="currentColor" x1="0.0500" y1="0" x2="108.3235" y2="0"/>
</g>
<g transform="translate(5.6906, 21.5855)">
<line stroke-linejoin="round" stroke-linecap="round" stroke-width="0.1000" stroke="currentColor" x1="0.0500" y1="0" x2="108.3235" y2="0"/>
</g>
<g transform="translate(5.6906, 20.5855)">
<line stroke-linejoin="round" stroke-linecap="round" stroke-width="0.1000" stroke="currentColor" x1="0.0500" y1="0" x2="108.3235" y2="0"/>
</g>
<g transform="translate(5.6906, 19.5855)">
<line stroke-linejoin="round" stroke-linecap="round" stroke-width="0.1000" stroke="currentColor" x1="0.0500" y1="0" x2="108.3235" y2="0"/>
</g>
<g transform="translate(113.8740, 21.5855)">
<rect x="0.0000" y="-2.0500" width="0.1900" height="4.0500" ry="0.0000" fill="currentColor"/>
</g>
<g transform="translate(113.8740, 12.5855)">
<rect x="0.0000" y="-2.0000" width="0.1900" height="4.0500" ry="0.0000" fill="currentColor"/>
</g>
<g transform="translate(87.8393, 3.8453)">
<rect x="0.0000" y="10.7902" width="0.1900" height="4.9500" ry="0.0000" fill="currentColor"/>
</g>
<g transform="translate(87.8393, 21.5855)">
<rect x="0.0000" y="-2.0500" width="0.1900" height="4.0500" ry="0.0000" fill="currentColor"/>
</g>
<g transform="translate(87.8393, 12.5855)">
<rect x="0.0000" y="-2.0000" width="0.1900" height="4.0500" ry="0.0000" fill="currentColor"/>
</g>
<g transform="translate(52.0781, 3.8453)">
<rect x="0.0000" y="10.7902" width="0.1900" height="4.9500" ry="0.0000" fill="currentColor"/>
</g>
<g transform="translate(52.0781, 21.5855)">
<rect x="0.0000" y="-2.0500" width="0.1900" height="4.0500" ry="0.0000" fill="currentColor"/>
</g>
<g transform="translate(52.0781, 12.5855)">
<rect x="0.0000" y="-2.0000" width="0.1900" height="4.0500" ry="0.0000" fill="currentColor"/>
</g>
<g transform="translate(17.7906, 10.0855)">
<path transform="scale(0.0040, -0.0040)" d="M218 136c66 0 108 -36 108 -89c0 -89 -113 -183 -218 -183c-66 0 -108 36 -108 89c0 89 113 183 218 183z" fill="currentColor"/>
</g>
<g transform="translate(17.7906, 11.0855)">
<path transform="scale(0.0040, -0.0040)" d="M218 136c66 0 108 -36 108 -89c0 -89 -113 -183 -218 -183c-66 0 -108 36 -108 89c0 89 113 183 218 183z" fill="currentColor"/>
</g>
<g transform="translate(17.7906, 12.5855)">
<path transform="scale(0.0040, -0.0040)" d="M218 136c66 0 108 -36 108 -89c0 -89 -113 -183 -218 -183c-66 0 -108 36 -108 89c0 89 113 183 218 183z" fill="currentColor"/>
</g>
<g transform="translate(6.4906, 13.5855)">
<path transform="scale(0.0040, -0.0040)" d="M266 -635h-6c-108 0 -195 88 -195 197c0 58 53 103 112 103c54 0 95 -47 95 -103c0 -52 -43 -95 -95 -95c-11 0 -21 2 -31 6c26 -39 68 -65 117 -65h4zM461 -203c68 24 113 90 113 164c0 90 -66 179 -173 190c19 -89 48 -242 60 -354zM74 28c0 -145 141 -247 264 -247
c1 0 47 0 82 6c-7 64 -29 203 -63 364c-79 -8 -124 -61 -124 -119c0 -44 25 -91 81 -123c5 -5 7 -10 7 -15c0 -11 -10 -22 -22 -22c-15 0 -126 62 -126 187c0 88 58 174 160 197c-14 58 -29 117 -46 175c-107 -121 -213 -243 -213 -403zM250 553c-29 96 -52 170 -52 346
c0 115 55 224 149 292c6 5 14 5 20 0c68 -80 133 -245 133 -358c0 -143 -86 -255 -180 -364c21 -68 39 -138 56 -207c2 0 7 1 13 1c155 0 256 -128 256 -261c0 -113 -74 -212 -180 -246c3 -35 5 -70 5 -105c0 -19 -1 -39 -2 -58c-7 -119 -88 -225 -202 -228l1 43
c93 2 153 92 159 191c1 18 2 37 2 55c0 31 -1 61 -4 92c-5 -1 -44 -8 -89 -8c-193 0 -333 180 -333 374c0 177 131 306 248 441zM428 916c0 34 1 66 -20 129c-99 -48 -162 -149 -162 -259c0 -52 12 -115 36 -194c80 97 146 198 146 324z" fill="currentColor"/>
</g>
<g transform="translate(9.9906, 10.5855)">
<path transform="scale(0.0040, -0.0040)" d="M0 119c0 8 5 15 13 18l46 17v158c0 10 8 19 18 19s19 -9 19 -19v-145l83 31v158c0 10 9 19 19 19s18 -9 18 -19v-145l32 12c2 1 5 1 7 1c11 0 20 -9 20 -20v-60c0 -8 -5 -16 -13 -19l-46 -16v-160l32 11c2 1 5 1 7 1c11 0 20 -9 20 -20v-60c0 -8 -5 -15 -13 -18l-46 -17
v-158c0 -10 -8 -19 -18 -19s-19 9 -19 19v145l-83 -31v-158c0 -10 -9 -19 -19 -19s-18 9 -18 19v145l-32 -12c-2 -1 -5 -1 -7 -1c-11 0 -20 9 -20 20v60c0 8 5 16 13 19l46 16v160l-32 -11c-2 -1 -5 -1 -7 -1c-11 0 -20 9 -20 20v60zM179 95l-83 -30v-160l83 30v160z" fill="currentColor"/>
</g>
<g transform="translate(11.0906, 12.0855)">
<path transform="scale(0.0040, -0.0040)" d="M0 119c0 8 5 15 13 18l46 17v158c0 10 8 19 18 19s19 -9 19 -19v-145l83 31v158c0 10 9 19 19 19s18 -9 18 -19v-145l32 12c2 1 5 1 7 1c11 0 20 -9 20 -20v-60c0 -8 -5 -16 -13 -19l-46 -16v-160l32 11c2 1 5 1 7 1c11 0 20 -9 20 -20v-60c0 -8 -5 -15 -13 -18l-46 -17
v-158c0 -10 -8 -19 -18 -19s-19 9 -19 19v145l-83 -31v-158c0 -10 -9 -19 -19 -19s-18 9 -18 19v145l-32 -12c-2 -1 -5 -1 -7 -1c-11 0 -20 9 -20 20v60c0 8 5 16 13 19l46 16v160l-32 -11c-2 -1 -5 -1 -7 -1c-11 0 -20 9 -20 20v60zM179 95l-83 -30v-160l83 30v160z" fill="currentColor"/>
</g>
<g transform="translate(13.3406, 12.5855)">
<path transform="scale(0.0040, -0.0040)" d="M250 262c116 0 176 -106 176 -163c0 -40 -30 -72 -67 -72c-31 0 -75 25 -75 75c0 38 27 77 72 77c4 0 9 0 14 -1c-28 37 -72 59 -120 59c-106 0 -113 -73 -113 -186v-51v-51c0 -113 7 -187 113 -187c80 0 139 70 158 151c2 7 7 10 12 10c6 0 13 -4 13 -12
c0 -22 -50 -174 -183 -174c-59 0 -250 19 -250 263c0 62 18 262 250 262z" fill="currentColor"/>
</g>
<g transform="translate(17.7906, 21.0855)">
<path transform="scale(0.0040, -0.0040)" d="M218 136c66 0 108 -36 108 -89c0 -89 -113 -183 -218 -183c-66 0 -108 36 -108 89c0 89 113 183 218 183z" fill="currentColor"/>
</g>
<g transform="translate(6.4906, 20.5855)">
<path transform="scale(0.0040, -0.0040)" d="M557 -125c0 28 23 51 51 51s51 -23 51 -51s-23 -51 -51 -51s-51 23 -51 51zM557 125c0 28 23 51 51 51s51 -23 51 -51s-23 -51 -51 -51s-51 23 -51 51zM232 263c172 0 293 -88 293 -251c0 -263 -263 -414 -516 -521c-3 -3 -6 -4 -9 -4c-7 0 -13 6 -13 13c0 3 1 6 4 9
c202 118 412 265 412 493c0 120 -63 235 -171 235c-74 0 -129 -54 -154 -126c11 5 22 8 34 8c55 0 100 -45 100 -100c0 -58 -44 -106 -100 -106c-60 0 -112 47 -112 106c0 133 102 244 232 244z" fill="currentColor"/>
</g>
<g transform="translate(9.9906, 20.5855)">
<path transform="scale(0.0040, -0.0040)" d="M0 119c0 8 5 15 13 18l46 17v158c0 10 8 19 18 19s19 -9 19 -19v-145l83 31v158c0 10 9 19 19 19s18 -9 18 -19v-145l32 12c2 1 5 1 7 1c11 0 20 -9 20 -20v-60c0 -8 -5 -16 -13 -19l-46 -16v-160l32 11c2 1 5 1 7 1c11 0 20 -9 20 -20v-60c0 -8 -5 -15 -13 -18l-46 -17
v-158c0 -10 -8 -19 -18 -19s-19 9 -19 19v145l-83 -31v-158c0 -10 -9 -19 -19 -19s-18 9 -18 19v145l-32 -12c-2 -1 -5 -1 -7 -1c-11 0 -20 9 -20 20v60c0 8 5 16 13 19l46 16v160l-32 -11c-2 -1 -5 -1 -7 -1c-11 0 -20 9 -20 20v60zM179 95l-83 -30v-160l83 30v160z" fill="currentColor"/>
</g>
<g transform="translate(11.0906, 22.0855)">
<path transform="scale(0.0040, -0.0040)" d="M0 119c0 8 5 15 13 18l46 17v158c0 10 8 19 18 19s19 -9 19 -19v-145l83 31v158c0 10 9 19 19 19s18 -9 18 -19v-145l32 12c2 1 5 1 7 1c11 0 20 -9 20 -20v-60c0 -8 -5 -16 -13 -19l-46 -16v-160l32 11c2 1 5 1 7 1c11 0 20 -9 20 -20v-60c0 -8 -5 -15 -13 -18l-46 -17
v-158c0 -10 -8 -19 -18 -19s-19 9 -19 19v145l-83 -31v-158c0 -10 -9 -19 -19 -19s-18 9 -18 19v145l-32 -12c-2 -1 -5 -1 -7 -1c-11 0 -20 9 -20 20v60c0 8 5 16 13 19l46 16v160l-32 -11c-2 -1 -5 -1 -7 -1c-11 0 -20 9 -20 20v60zM179 95l-83 -30v-160l83 30v160z" fill="currentColor"/>
</g>
<g transform="translate(13.3406, 21.5855)">
<path transform="scale(0.0040, -0.0040)" d="M250 262c116 0 176 -106 176 -163c0 -40 -30 -72 -67 -72c-31 0 -75 25 -75 75c0 38 27 77 72 77c4 0 9 0 14 -1c-28 37 -72 59 -120 59c-106 0 -113 -73 -113 -186v-51v-51c0 -113 7 -187 113 -187c80 0 139 70 158 151c2 7 7 10 12 10c6 0 13 -4 13 -12
c0 -22 -50 -174 -183 -174c-59 0 -250 19 -250 263c0 62 18 262 250 262z" fill="currentColor"/>
</g>
<g transform="translate(17.8556, 12.5855)">
<rect x="-0.0650" y="-2.3139" width="0.1300" height="5.6472" ry="0.0400" fill="currentColor"/>
</g>
<g transform="translate(16.3406, 10.0855)">
<path transform="scale(0.0040, -0.0040)" d="M0 119c0 8 5 15 13 18l46 17v158c0 10 8 19 18 19s19 -9 19 -19v-145l83 31v158c0 10 9 19 19 19s18 -9 18 -19v-145l32 12c2 1 5 1 7 1c11 0 20 -9 20 -20v-60c0 -8 -5 -16 -13 -19l-46 -16v-160l32 11c2 1 5 1 7 1c11 0 20 -9 20 -20v-60c0 -8 -5 -15 -13 -18l-46 -17
v-158c0 -10 -8 -19 -18 -19s-19 9 -19 19v145l-83 -31v-158c0 -10 -9 -19 -19 -19s-18 9 -18 19v145l-32 -12c-2 -1 -5 -1 -7 -1c-11 0 -20 9 -20 20v60c0 8 5 16 13 19l46 16v160l-32 -11c-2 -1 -5 -1 -7 -1c-11 0 -20 9 -20 20v60zM179 95l-83 -30v-160l83 30v160z" fill="currentColor"/>
</g>
<g transform="translate(17.8556, 21.5855)">
<rect x="-0.0650" y="-0.3139" width="0.1300" height="2.4922" ry="0.0400" fill="currentColor"/>
</g>
<g transform="translate(96.0772, 9.5855)">
<polygon stroke-linejoin="round" stroke-linecap="round" stroke-width="0.0800" fill="currentColor" stroke="currentColor" points="7.3526 -0.2000 7.3526 0.2000 0.0400 0.2000 0.0400 -0.2000"/>
</g>
<g transform="translate(96.0772, 10.3955)">
<polygon stroke-linejoin="round" stroke-linecap="round" stroke-width="0.0800" fill="currentColor" stroke="currentColor" points="7.3526 -0.2000 7.3526 0.2000 0.0400 0.2000 0.0400 -0.2000"/>
</g>
<g transform="translate(21.4948, 20.0855)">
<path transform="scale(0.0040, -0.0040)" d="M218 136c66 0 108 -36 108 -89c0 -89 -113 -183 -218 -183c-66 0 -108 36 -108 89c0 89 113 183 218 183z" fill="currentColor"/>
</g>
<g transform="translate(21.5598, 21.5855)">
<rect x="-0.0650" y="-1.3139" width="0.1300" height="2.8231" ry="0.0400" fill="currentColor"/>
</g>
<g transform="translate(20.0448, 20.0855)">
<path transform="scale(0.0040, -0.0040)" d="M0 119c0 8 5 15 13 18l46 17v158c0 10 8 19 18 19s19 -9 19 -19v-145l83 31v158c0 10 9 19 19 19s18 -9 18 -19v-145l32 12c2 1 5 1 7 1c11 0 20 -9 20 -20v-60c0 -8 -5 -16 -13 -19l-46 -16v-160l32 11c2 1 5 1 7 1c11 0 20 -9 20 -20v-60c0 -8 -5 -15 -13 -18l-46 -17
v-158c0 -10 -8 -19 -18 -19s-19 9 -19 19v145l-83 -31v-158c0 -10 -9 -19 -19 -19s-18 9 -18 19v145l-32 -12c-2 -1 -5 -1 -7 -1c-11 0 -20 9 -20 20v60c0 8 5 16 13 19l46 16v160l-32 -11c-2 -1 -5 -1 -7 -1c-11 0 -20 9 -20 20v60zM179 95l-83 -30v-160l83 30v160z" fill="currentColor"/>
</g>
<g transform="translate(80.6355, 13.3955)">
<polygon stroke-linejoin="round" stroke-linecap="round" stroke-width="0.0800" fill="currentColor" stroke="currentColor" points="3.7942 0.9900 3.7942 1.3900 0.0400 0.2000 0.0400 -0.2000"/>
</g>
<g transform="translate(24.2490, 19.0855)">
<path transform="scale(0.0040, -0.0040)" d="M218 136c66 0 108 -36 108 -89c0 -89 -113 -183 -218 -183c-66 0 -108 36 -108 89c0 89 113 183 218 183z" fill="currentColor"/>
</g>
<g transform="translate(24.3140, 21.5855)">
<rect x="-0.0650" y="-2.3139" width="0.1300" height="3.3256" ry="0.0400" fill="currentColor"/>
</g>
<g transform="translate(75.1270, 13.5855)">
<polygon stroke-linejoin="round" stroke-linecap="round" stroke-width="0.0800" fill="currentColor" stroke="currentColor" points="2.8442 -0.2000 2.8442 0.2000 0.0400 0.2000 0.0400 -0.2000"/>
</g>
<g transform="translate(71.6728, 14.3955)">
<polygon stroke-linejoin="round" stroke-linecap="round" stroke-width="0.0800" fill="currentColor" stroke="currentColor" points="6.2984 -0.2000 6.2984 0.2000 0.0400 0.2000 0.0400 -0.2000"/>
</g>
<g transform="translate(27.0032, 12.5855)">
<path transform="scale(0.0040, -0.0040)" d="M70 205c79 0 46 -98 91 -98c16 0 54 48 61 63c6 12 23 12 28 0l-123 -420c-8 -7 -17 -10 -27 -10s-20 3 -28 10l117 326c-34 -12 -69 -22 -105 -22c-47 0 -87 34 -87 79c0 40 33 72 73 72z" fill="currentColor"/>
</g>
<g transform="translate(27.0032, 17.5855)">
<path transform="scale(0.0040, -0.0040)" d="M218 136c66 0 108 -36 108 -89c0 -89 -113 -183 -218 -183c-66 0 -108 36 -108 89c0 89 113 183 218 183z" fill="currentColor"/>
</g>
<g transform="translate(27.0682, 21.5855)">
<rect x="-0.0650" y="-3.8139" width="0.1300" height="3.8139" ry="0.0400" fill="currentColor"/>
</g>
<g transform="translate(66.1644, 15.2755)">
<polygon stroke-linejoin="round" stroke-linecap="round" stroke-width="0.0800" fill="currentColor" stroke="currentColor" points="2.8442 -0.8900 2.8442 -0.4900 0.0400 0.2000 0.0400 -0.2000"/>
</g>
<g transform="translate(66.1644, 16.0855)">
<polygon stroke-linejoin="round" stroke-linecap="round" stroke-width="0.0800" fill="currentColor" stroke="currentColor" points="2.8442 -0.8900 2.8442 -0.4900 0.0400 0.2000 0.0400 -0.2000"/>
</g>
<g transform="translate(30.4032, 12.5855)">
<path transform="scale(0.0040, -0.0040)" d="M218 136c66 0 108 -36 108 -89c0 -89 -113 -183 -218 -183c-66 0 -108 36 -108 89c0 89 113 183 218 183z" fill="currentColor"/>
</g>
<g transform="translate(30.4682, 12.5855)">
<rect x="-0.0650" y="0.1861" width="0.1300" height="2.6056" ry="0.0400" fill="currentColor"/>
</g>
<g transform="translate(57.2560, 22.1675)">
<polygon stroke-linejoin="round" stroke-linecap="round" stroke-width="0.0800" fill="currentColor" stroke="currentColor" points="2.8442 -0.7820 2.8442 -0.3820 0.0400 0.2000 0.0400 -0.2000"/>
</g>
<g transform="translate(53.3018, 23.7755)">
<polygon stroke-linejoin="round" stroke-linecap="round" stroke-width="0.0800" fill="currentColor" stroke="currentColor" points="6.7984 -1.5800 6.7984 -1.1800 0.0400 0.2000 0.0400 -0.2000"/>
</g>
<g transform="translate(33.1574, 11.0855)">
<path transform="scale(0.0040, -0.0040)" d="M218 136c66 0 108 -36 108 -89c0 -89 -113 -183 -218 -183c-66 0 -108 36 -108 89c0 89 113 183 218 183z" fill="currentColor"/>
</g>
<g transform="translate(33.2224, 12.5855)">
<rect x="-0.0650" y="-1.3139" width="0.1300" height="3.3321" ry="0.0400" fill="currentColor"/>
</g>
<g transform="translate(44.8743, 13.3955)">
<polygon stroke-linejoin="round" stroke-linecap="round" stroke-width="0.0800" fill="currentColor" stroke="currentColor" points="3.7942 0.9900 3.7942 1.3900 0.0400 0.2000 0.0400 -0.2000"/>
</g>
<g transform="translate(35.9116, 10.0855)">
<path transform="scale(0.0040, -0.0040)" d="M218 136c66 0 108 -36 108 -89c0 -89 -113 -183 -218 -183c-66 0 -108 36 -108 89c0 89 113 183 218 183z" fill="currentColor"/>
</g>
<g transform="translate(35.9116, 21.5855)">
<path transform="scale(0.0040, -0.0040)" d="M365 0h-355c-6 0 -10 4 -10 10v136c0 6 4 10 10 10h355c6 0 10 -4 10 -10v-136c0 -6 -4 -10 -10 -10z" fill="currentColor"/>
</g>
<g transform="translate(35.9766, 12.5855)">
<rect x="-0.0650" y="-2.3139" width="0.1300" height="3.1239" ry="0.0400" fill="currentColor"/>
</g>
<g class="schema">
<g transform="translate(65.5082, 5.2062)">
<text font-family="serif" font-size="1.9600" text-anchor="start" fill="currentColor">
<tspan>Quiescenza</tspan>
</text>
</g>
</g>
<g transform="translate(39.3658, 11.0855)">
<path transform="scale(0.0040, -0.0040)" d="M218 136c66 0 108 -36 108 -89c0 -89 -113 -183 -218 -183c-66 0 -108 36 -108 89c0 89 113 183 218 183z" fill="currentColor"/>
</g>
<g transform="translate(39.4308, 12.5855)">
<rect x="-0.0650" y="-1.3139" width="0.1300" height="2.1239" ry="0.0400" fill="currentColor"/>
</g>
<g class="schema">
<g transform="translate(48.5785, 6.1399)">
<line stroke-linejoin="round" stroke-linecap="round" stroke-width="0.1000" stroke="currentColor" x1="42.3051" y1="-0.0000" x2="42.8051" y2="1.0000"/>
</g>
<g transform="translate(48.5785, 6.1399)">
<line stroke-linejoin="round" stroke-linecap="round" stroke-width="0.1000" stroke="currentColor" x1="0.5000" y1="-0.0000" x2="0.0000" y2="1.0000"/>
</g>
<g transform="translate(48.5785, 6.1399)">
<line stroke-linejoin="round" stroke-linecap="round" stroke-width="0.1000" stroke="currentColor" x1="0.5000" y1="-0.0000" x2="42.3051" y2="-0.0000"/>
</g>
</g>
<g transform="translate(42.1200, 10.0855)">
<path transform="scale(0.0040, -0.0040)" d="M218 136c66 0 108 -36 108 -89c0 -89 -113 -183 -218 -183c-66 0 -108 36 -108 89c0 89 113 183 218 183z" fill="currentColor"/>
</g>
<g transform="translate(42.1850, 12.5855)">
<rect x="-0.0650" y="-2.3139" width="0.1300" height="3.1239" ry="0.0400" fill="currentColor"/>
</g>
<g transform="translate(39.3658, 12.5855)">
<polygon stroke-linejoin="round" stroke-linecap="round" stroke-width="0.0800" fill="currentColor" stroke="currentColor" points="2.8442 -0.2000 2.8442 0.2000 0.0400 0.2000 0.0400 -0.2000"/>
</g>
<g transform="translate(35.9116, 13.3955)">
<polygon stroke-linejoin="round" stroke-linecap="round" stroke-width="0.0800" fill="currentColor" stroke="currentColor" points="6.2984 -0.2000 6.2984 0.2000 0.0400 0.2000 0.0400 -0.2000"/>
</g>
<g transform="translate(44.8743, 9.0855)">
<path transform="scale(0.0040, -0.0040)" d="M218 136c66 0 108 -36 108 -89c0 -89 -113 -183 -218 -183c-66 0 -108 36 -108 89c0 89 113 183 218 183z" fill="currentColor"/>
</g>
<g transform="translate(44.9393, 12.5855)">
<rect x="-0.0650" y="-3.3139" width="0.1300" height="4.1441" ry="0.0400" fill="currentColor"/>
</g>
<g transform="translate(30.4032, 14.5855)">
<polygon stroke-linejoin="round" stroke-linecap="round" stroke-width="0.0800" fill="currentColor" stroke="currentColor" points="2.8442 -1.0100 2.8442 -0.6100 0.0400 0.2000 0.0400 -0.2000"/>
</g>
<g transform="translate(30.4032, 15.3955)">
<polygon stroke-linejoin="round" stroke-linecap="round" stroke-width="0.0800" fill="currentColor" stroke="currentColor" points="2.8442 -1.0100 2.8442 -0.6100 0.0400 0.2000 0.0400 -0.2000"/>
</g>
<g transform="translate(48.5785, 11.5855)">
<path transform="scale(0.0040, -0.0040)" d="M218 136c66 0 108 -36 108 -89c0 -89 -113 -183 -218 -183c-66 0 -108 36 -108 89c0 89 113 183 218 183z" fill="currentColor"/>
</g>
<g class="scale-degree">
<g transform="translate(48.5785, 9.2983)">
<path transform="scale(0.0032, -0.0032)" d="M31 37l-2 -62v-11c0 -22 2 -43 5 -64c43 38 89 80 89 137c0 32 -14 65 -42 65c-31 0 -49 -32 -50 -65zM-30 450c9 5 20 8 30 8s21 -3 30 -8l-8 -340c25 24 59 38 94 38c50 0 84 -50 84 -104c0 -78 -83 -117 -141 -169c-17 -15 -25 -44 -49 -44c-15 0 -26 13 -26 29z" fill="currentColor"/>
</g>
<g transform="translate(49.4134, 9.7983)">
<text font-family="serif" font-size="2.2001" text-anchor="start" fill="currentColor">
<tspan>➐</tspan>
</text>
</g>
</g>
<g transform="translate(48.6435, 12.5855)">
<rect x="-0.0650" y="-0.8139" width="0.1300" height="2.7937" ry="0.0400" fill="currentColor"/>
</g>
<g transform="translate(47.5325, 11.5855)">
<path transform="scale(0.0040, -0.0040)" d="M-7 375c8 4 17 7 25 7s16 -3 24 -7l-2 -183l106 20h3c10 0 18 -7 18 -17l7 -570c-8 -4 -17 -7 -25 -7s-16 3 -24 7l2 183l-106 -20h-3c-10 0 -18 7 -18 17zM131 112l-92 -17l-3 -207l92 17z" fill="currentColor"/>
</g>
<g transform="translate(21.4948, 22.2964)">
<polygon stroke-linejoin="round" stroke-linecap="round" stroke-width="0.0800" fill="currentColor" stroke="currentColor" points="2.8442 -0.7209 2.8442 -0.3209 0.0400 0.2000 0.0400 -0.2000"/>
</g>
<g transform="translate(17.7906, 23.7755)">
<polygon stroke-linejoin="round" stroke-linecap="round" stroke-width="0.0800" fill="currentColor" stroke="currentColor" points="6.5484 -1.3900 6.5484 -0.9900 0.0400 0.2000 0.0400 -0.2000"/>
</g>
<g transform="translate(53.3018, 12.0855)">
<path transform="scale(0.0040, -0.0040)" d="M218 136c66 0 108 -36 108 -89c0 -89 -113 -183 -218 -183c-66 0 -108 36 -108 89c0 89 113 183 218 183z" fill="currentColor"/>
</g>
<g transform="translate(53.3018, 13.0855)">
<path transform="scale(0.0040, -0.0040)" d="M218 136c66 0 108 -36 108 -89c0 -89 -113 -183 -218 -183c-66 0 -108 36 -108 89c0 89 113 183 218 183z" fill="currentColor"/>
</g>
<g class="scale-degree">
<g transform="translate(53.3018, 9.7983)">
<text font-family="serif" font-size="2.2001" text-anchor="start" fill="currentColor">
<tspan>➏</tspan>
</text>
</g>
</g>
<g transform="translate(53.3018, 21.0855)">
<path transform="scale(0.0040, -0.0040)" d="M218 136c66 0 108 -36 108 -89c0 -89 -113 -183 -218 -183c-66 0 -108 36 -108 89c0 89 113 183 218 183z" fill="currentColor"/>
</g>
<g transform="translate(53.3668, 12.5855)">
<rect x="-0.0650" y="-0.3139" width="0.1300" height="3.9806" ry="0.0400" fill="currentColor"/>
</g>
<g transform="translate(53.3668, 21.5855)">
<rect x="-0.0650" y="-0.3139" width="0.1300" height="2.4908" ry="0.0400" fill="currentColor"/>
</g>
<g transform="translate(57.2560, 19.5855)">
<path transform="scale(0.0040, -0.0040)" d="M218 136c66 0 108 -36 108 -89c0 -89 -113 -183 -218 -183c-66 0 -108 36 -108 89c0 89 113 183 218 183z" fill="currentColor"/>
</g>
<g transform="translate(57.3210, 21.5855)">
<rect x="-0.0650" y="-1.8139" width="0.1300" height="3.1928" ry="0.0400" fill="currentColor"/>
</g>
<g transform="translate(60.0102, 18.5855)">
<path transform="scale(0.0040, -0.0040)" d="M218 136c66 0 108 -36 108 -89c0 -89 -113 -183 -218 -183c-66 0 -108 36 -108 89c0 89 113 183 218 183z" fill="currentColor"/>
</g>
<g transform="translate(60.0752, 21.5855)">
<rect x="-0.0650" y="-2.8139" width="0.1300" height="3.6370" ry="0.0400" fill="currentColor"/>
</g>
<g transform="translate(62.7644, 12.5855)">
<path transform="scale(0.0040, -0.0040)" d="M70 205c79 0 46 -98 91 -98c16 0 54 48 61 63c6 12 23 12 28 0l-123 -420c-8 -7 -17 -10 -27 -10s-20 3 -28 10l117 326c-34 -12 -69 -22 -105 -22c-47 0 -87 34 -87 79c0 40 33 72 73 72z" fill="currentColor"/>
</g>
<g transform="translate(62.7644, 17.5855)">
<path transform="scale(0.0040, -0.0040)" d="M218 136c66 0 108 -36 108 -89c0 -89 -113 -183 -218 -183c-66 0 -108 36 -108 89c0 89 113 183 218 183z" fill="currentColor"/>
</g>
<g transform="translate(62.8294, 21.5855)">
<rect x="-0.0650" y="-3.8139" width="0.1300" height="3.8139" ry="0.0400" fill="currentColor"/>
</g>
<g transform="translate(66.1644, 13.0855)">
<path transform="scale(0.0040, -0.0040)" d="M218 136c66 0 108 -36 108 -89c0 -89 -113 -183 -218 -183c-66 0 -108 36 -108 89c0 89 113 183 218 183z" fill="currentColor"/>
</g>
<g transform="translate(66.2294, 12.5855)">
<rect x="-0.0650" y="0.6861" width="0.1300" height="2.7983" ry="0.0400" fill="currentColor"/>
</g>
<g transform="translate(68.9186, 12.0855)">
<path transform="scale(0.0040, -0.0040)" d="M218 136c66 0 108 -36 108 -89c0 -89 -113 -183 -218 -183c-66 0 -108 36 -108 89c0 89 113 183 218 183z" fill="currentColor"/>
</g>
<g transform="translate(68.9836, 12.5855)">
<rect x="-0.0650" y="-0.3139" width="0.1300" height="3.1394" ry="0.0400" fill="currentColor"/>
</g>
<g transform="translate(71.6728, 11.0855)">
<path transform="scale(0.0040, -0.0040)" d="M218 136c66 0 108 -36 108 -89c0 -89 -113 -183 -218 -183c-66 0 -108 36 -108 89c0 89 113 183 218 183z" fill="currentColor"/>
</g>
<g transform="translate(71.6728, 21.5855)">
<path transform="scale(0.0040, -0.0040)" d="M365 0h-355c-6 0 -10 4 -10 10v136c0 6 4 10 10 10h355c6 0 10 -4 10 -10v-136c0 -6 -4 -10 -10 -10z" fill="currentColor"/>
</g>
<g transform="translate(71.7378, 12.5855)">
<rect x="-0.0650" y="-1.3139" width="0.1300" height="3.1239" ry="0.0400" fill="currentColor"/>
</g>
<g transform="translate(75.1270, 12.0855)">
<path transform="scale(0.0040, -0.0040)" d="M218 136c66 0 108 -36 108 -89c0 -89 -113 -183 -218 -183c-66 0 -108 36 -108 89c0 89 113 183 218 183z" fill="currentColor"/>
</g>
<g transform="translate(75.1920, 12.5855)">
<rect x="-0.0650" y="-0.3139" width="0.1300" height="2.1239" ry="0.0400" fill="currentColor"/>
</g>
<g transform="translate(77.8813, 11.0855)">
<path transform="scale(0.0040, -0.0040)" d="M218 136c66 0 108 -36 108 -89c0 -89 -113 -183 -218 -183c-66 0 -108 36 -108 89c0 89 113 183 218 183z" fill="currentColor"/>
</g>
<g transform="translate(77.9463, 12.5855)">
<rect x="-0.0650" y="-1.3139" width="0.1300" height="3.1239" ry="0.0400" fill="currentColor"/>
</g>
<g transform="translate(80.6355, 9.5855)">
<path transform="scale(0.0040, -0.0040)" d="M218 136c66 0 108 -36 108 -89c0 -89 -113 -183 -218 -183c-66 0 -108 36 -108 89c0 89 113 183 218 183z" fill="currentColor"/>
</g>
<g transform="translate(80.7005, 12.5855)">
<rect x="-0.0650" y="-2.8139" width="0.1300" height="3.6441" ry="0.0400" fill="currentColor"/>
</g>
<g transform="translate(84.3397, 11.5855)">
<path transform="scale(0.0040, -0.0040)" d="M218 136c66 0 108 -36 108 -89c0 -89 -113 -183 -218 -183c-66 0 -108 36 -108 89c0 89 113 183 218 183z" fill="currentColor"/>
</g>
<g class="scale-degree">
<g transform="translate(84.3397, 8.8627)">
<path transform="scale(0.0032, -0.0032)" d="M-7 375c8 5 17 7 26 7s17 -2 25 -7l-2 -192l102 23h4c10 0 19 -8 19 -18l7 -563c-8 -5 -17 -7 -26 -7s-18 2 -26 7l3 192l-102 -23h-4c-10 0 -19 8 -19 18zM129 110l-88 -19l-3 -201l88 19z" fill="currentColor"/>
</g>
<g transform="translate(85.0688, 9.6646)">
<text font-family="serif" font-size="2.2001" text-anchor="start" fill="currentColor">
<tspan>➐</tspan>
</text>
</g>
</g>
<g transform="translate(84.4047, 12.5855)">
<rect x="-0.0650" y="-0.8139" width="0.1300" height="2.7937" ry="0.0400" fill="currentColor"/>
</g>
<g transform="translate(82.8897, 11.5855)">
<path transform="scale(0.0040, -0.0040)" d="M0 119c0 8 5 15 13 18l46 17v158c0 10 8 19 18 19s19 -9 19 -19v-145l83 31v158c0 10 9 19 19 19s18 -9 18 -19v-145l32 12c2 1 5 1 7 1c11 0 20 -9 20 -20v-60c0 -8 -5 -16 -13 -19l-46 -16v-160l32 11c2 1 5 1 7 1c11 0 20 -9 20 -20v-60c0 -8 -5 -15 -13 -18l-46 -17
v-158c0 -10 -8 -19 -18 -19s-19 9 -19 19v145l-83 -31v-158c0 -10 -9 -19 -19 -19s-18 9 -18 19v145l-32 -12c-2 -1 -5 -1 -7 -1c-11 0 -20 9 -20 20v60c0 8 5 16 13 19l46 16v160l-32 -11c-2 -1 -5 -1 -7 -1c-11 0 -20 9 -20 20v60zM179 95l-83 -30v-160l83 30v160z" fill="currentColor"/>
</g>
<g transform="translate(90.0793, 11.0855)">
<path transform="scale(0.0040, -0.0040)" d="M218 136c66 0 108 -36 108 -89c0 -89 -113 -183 -218 -183c-66 0 -108 36 -108 89c0 89 113 183 218 183z" fill="currentColor"/>
</g>
<g transform="translate(90.0793, 12.5855)">
<path transform="scale(0.0040, -0.0040)" d="M218 136c66 0 108 -36 108 -89c0 -89 -113 -183 -218 -183c-66 0 -108 36 -108 89c0 89 113 183 218 183z" fill="currentColor"/>
</g>
<g transform="translate(90.0793, 13.5855)">
<path transform="scale(0.0040, -0.0040)" d="M218 136c66 0 108 -36 108 -89c0 -89 -113 -183 -218 -183c-66 0 -108 36 -108 89c0 89 113 183 218 183z" fill="currentColor"/>
</g>
<g class="scale-degree">
<g transform="translate(90.0793, 9.7983)">
<text font-family="serif" font-size="2.2001" text-anchor="start" fill="currentColor">
<tspan>➊</tspan>
</text>
</g>
</g>
<g transform="translate(90.0793, 21.0855)">
<path transform="scale(0.0040, -0.0040)" d="M218 136c66 0 108 -36 108 -89c0 -89 -113 -183 -218 -183c-66 0 -108 36 -108 89c0 89 113 183 218 183z" fill="currentColor"/>
</g>
<g transform="translate(90.0793, 24.5855)">
<path transform="scale(0.0040, -0.0040)" d="M218 136c66 0 108 -36 108 -89c0 -89 -113 -183 -218 -183c-66 0 -108 36 -108 89c0 89 113 183 218 183z" fill="currentColor"/>
</g>
<g transform="translate(5.6306, 17.0855)">
<rect x="0.0000" y="-6.5500" width="0.1600" height="13.1000" ry="0.0500" fill="currentColor"/>
</g>
<g transform="translate(90.1443, 12.5855)">
<rect x="-0.0650" y="-1.3139" width="0.1300" height="5.3139" ry="0.0400" fill="currentColor"/>
</g>
<g transform="translate(88.6293, 13.5855)">
<path transform="scale(0.0040, -0.0040)" d="M0 119c0 8 5 15 13 18l46 17v158c0 10 8 19 18 19s19 -9 19 -19v-145l83 31v158c0 10 9 19 19 19s18 -9 18 -19v-145l32 12c2 1 5 1 7 1c11 0 20 -9 20 -20v-60c0 -8 -5 -16 -13 -19l-46 -16v-160l32 11c2 1 5 1 7 1c11 0 20 -9 20 -20v-60c0 -8 -5 -15 -13 -18l-46 -17
v-158c0 -10 -8 -19 -18 -19s-19 9 -19 19v145l-83 -31v-158c0 -10 -9 -19 -19 -19s-18 9 -18 19v145l-32 -12c-2 -1 -5 -1 -7 -1c-11 0 -20 9 -20 20v60c0 8 5 16 13 19l46 16v160l-32 -11c-2 -1 -5 -1 -7 -1c-11 0 -20 9 -20 20v60zM179 95l-83 -30v-160l83 30v160z" fill="currentColor"/>
</g>
<g transform="translate(91.3185, 21.5855)">
<rect x="-0.0650" y="-3.6667" width="0.1300" height="6.4806" ry="0.0400" fill="currentColor"/>
</g>
<g transform="translate(5.3306, 17.0855)">
<path transform="scale(0.0040, -0.0040)" d="M-81 -366c0 255 -132 363 -132 366c0 18 132 96 132 366c0 261 -108 489 -108 780c0 189 45 366 177 501c15 15 39 -9 24 -24c-99 -99 -129 -225 -129 -360c0 -255 102 -480 102 -765c0 -186 -45 -363 -174 -498c129 -135 174 -312 174 -498c0 -285 -102 -510 -102 -765
c0 -135 30 -261 129 -360c15 -15 -9 -39 -24 -24c-132 135 -177 312 -177 501c0 291 108 519 108 780z" fill="currentColor"/>
</g>
<g transform="translate(94.9030, 12.5855)">
<path transform="scale(0.0040, -0.0040)" d="M218 136c66 0 108 -36 108 -89c0 -89 -113 -183 -218 -183c-66 0 -108 36 -108 89c0 89 113 183 218 183z" fill="currentColor"/>
</g>
<g transform="translate(94.9030, 21.0855)">
<path transform="scale(0.0040, -0.0040)" d="M218 136c66 0 108 -36 108 -89c0 -89 -113 -183 -218 -183c-66 0 -108 36 -108 89c0 89 113 183 218 183z" fill="currentColor"/>
</g>
<g transform="translate(94.9030, 24.5855)">
<path transform="scale(0.0040, -0.0040)" d="M218 136c66 0 108 -36 108 -89c0 -89 -113 -183 -218 -183c-66 0 -108 36 -108 89c0 89 113 183 218 183z" fill="currentColor"/>
</g>
<g transform="translate(96.1422, 12.5855)">
<rect x="-0.0650" y="-3.0000" width="0.1300" height="2.8139" ry="0.0400" fill="currentColor"/>
</g>
<g transform="translate(96.1422, 21.5855)">
<rect x="-0.0650" y="-3.6667" width="0.1300" height="6.4806" ry="0.0400" fill="currentColor"/>
</g>
<g transform="translate(97.1572, 13.5855)">
<path transform="scale(0.0040, -0.0040)" d="M218 136c66 0 108 -36 108 -89c0 -89 -113 -183 -218 -183c-66 0 -108 36 -108 89c0 89 113 183 218 183z" fill="currentColor"/>
</g>
<g transform="translate(98.3964, 12.5855)">
<rect x="-0.0650" y="-3.0000" width="0.1300" height="3.8139" ry="0.0400" fill="currentColor"/>
</g>
<g transform="translate(99.9114, 12.5855)">
<path transform="scale(0.0040, -0.0040)" d="M218 136c66 0 108 -36 108 -89c0 -89 -113 -183 -218 -183c-66 0 -108 36 -108 89c0 89 113 183 218 183z" fill="currentColor"/>
</g>
<g transform="translate(101.1506, 12.5855)">
<rect x="-0.0650" y="-3.0000" width="0.1300" height="2.8139" ry="0.0400" fill="currentColor"/>
</g>
<g transform="translate(102.1656, 13.5855)">
<path transform="scale(0.0040, -0.0040)" d="M218 136c66 0 108 -36 108 -89c0 -89 -113 -183 -218 -183c-66 0 -108 36 -108 89c0 89 113 183 218 183z" fill="currentColor"/>
</g>
<g transform="translate(103.4048, 12.5855)">
<rect x="-0.0650" y="-3.0000" width="0.1300" height="3.8139" ry="0.0400" fill="currentColor"/>
</g>
<g transform="translate(104.4198, 14.5855)">
<path transform="scale(0.0040, -0.0040)" d="M218 136c66 0 108 -36 108 -89c0 -89 -113 -183 -218 -183c-66 0 -108 36 -108 89c0 89 113 183 218 183z" fill="currentColor"/>
</g>
<g transform="translate(104.4198, 21.0855)">
<path transform="scale(0.0040, -0.0040)" d="M218 136c66 0 108 -36 108 -89c0 -89 -113 -183 -218 -183c-66 0 -108 36 -108 89c0 89 113 183 218 183z" fill="currentColor"/>
</g>
<g transform="translate(104.4198, 24.5855)">
<path transform="scale(0.0040, -0.0040)" d="M218 136c66 0 108 -36 108 -89c0 -89 -113 -183 -218 -183c-66 0 -108 36 -108 89c0 89 113 183 218 183z" fill="currentColor"/>
</g>
<g transform="translate(105.6590, 12.5855)">
<rect x="-0.0650" y="-1.5000" width="0.1300" height="3.3139" ry="0.0400" fill="currentColor"/>
</g>
<g transform="translate(105.6590, 21.5855)">
<rect x="-0.0650" y="-3.6667" width="0.1300" height="6.4806" ry="0.0400" fill="currentColor"/>
</g>
<g transform="translate(109.3240, 12.5855)">
<path transform="scale(0.0040, -0.0040)" d="M-6 78c0 59 124 83 124 182c0 24 -8 49 -25 69l-35 42c-3 3 -4 7 -4 10c0 9 9 15 17 15c4 0 8 -1 11 -5l151 -180c7 -9 10 -17 10 -25c0 -59 -124 -83 -124 -182c0 -24 7 -49 24 -69l84 -99c3 -3 4 -7 4 -10c0 -9 -8 -16 -16 -16s-45 44 -109 44c-16 0 -53 0 -53 -67
c0 -35 11 -74 28 -94c7 -8 -5 -19 -12 -11c-45 54 -92 148 -92 202c0 41 27 42 40 42c33 0 78 -13 119 -31l-132 158c-7 9 -10 17 -10 25z" fill="currentColor"/>
</g>
<g transform="translate(109.3240, 21.5855)">
<path transform="scale(0.0040, -0.0040)" d="M-6 78c0 59 124 83 124 182c0 24 -8 49 -25 69l-35 42c-3 3 -4 7 -4 10c0 9 9 15 17 15c4 0 8 -1 11 -5l151 -180c7 -9 10 -17 10 -25c0 -59 -124 -83 -124 -182c0 -24 7 -49 24 -69l84 -99c3 -3 4 -7 4 -10c0 -9 -8 -16 -16 -16s-45 44 -109 44c-16 0 -53 0 -53 -67
c0 -35 11 -74 28 -94c7 -8 -5 -19 -12 -11c-45 54 -92 148 -92 202c0 41 27 42 40 42c33 0 78 -13 119 -31l-132 158c-7 9 -10 17 -10 25z" fill="currentColor"/>
</g>
</svg>
