<svg xmlns="http://www.w3.org/2000/svg" width="1281.233" height="598.602" viewBox="0 0 338.993 158.38">
    <g transform="translate(122.205 6.337) scale(1.75716)">
        <rect width="1.956" height=".2" x="20.841" y="-.1" fill="currentColor" ry=".1" transform="translate(5.69 7.923)"/>
        <path stroke="currentColor" stroke-linecap="round" stroke-linejoin="round" stroke-width=".1" d="M5.74 12.924h43.558m-43.558-1h43.558m-43.558-1h43.558m-43.558-1h43.558m-43.558-1h43.558"/>
        <rect width=".19" height="4.95" y="9.128" fill="currentColor" ry="0" transform="translate(49.157 3.845)"/>
        <path stroke="currentColor" stroke-linecap="round" stroke-linejoin="round" stroke-width=".1" d="M5.74 21.924h43.558m-43.558-1h43.558m-43.558-1h43.558m-43.558-1h43.558m-43.558-1h43.558"/>
        <rect width=".19" height="4.05" y="-2.05" fill="currentColor" ry="0" transform="translate(49.157 19.924)"/>
        <rect width=".19" height="4.05" y="-2" fill="currentColor" ry="0" transform="translate(49.157 10.924)"/>
        <rect width=".19" height="4.95" y="9.128" fill="currentColor" ry="0" transform="translate(31.432 3.845)"/>
        <rect width=".19" height="4.05" y="-2.05" fill="currentColor" ry="0" transform="translate(31.432 19.924)"/>
        <rect width=".19" height="4.05" y="-2" fill="currentColor" ry="0" transform="translate(31.432 10.924)"/>
        <path fill="currentColor" stroke="currentColor" stroke-linecap="round" stroke-linejoin="round" stroke-width=".08" d="M46.744 17.533v.4l-3.629-1.62v-.4zm-7.283-1.31v.4l-4.004 1.31v-.4z"/>
        <path fill="currentColor" d="M16.717 8.88c.264 0 .432.143.432.355 0 .357-.452.733-.872.733-.264 0-.432-.145-.432-.357 0-.356.452-.732.872-.732z"/>
        <text fill="currentColor" font-size="2.2" transform="translate(15.845 5.726)">➏</text>
        <path fill="currentColor" d="M15.31 7.715c0 .06.031.12.155.12.04 0 .184-.008.412-.112l.02-.096a.542.542 0 0 0-.324-.116c-.204 0-.264.124-.264.204zm1.083.492c0 .244-.188.46-.392.46-.156 0-.224-.175-.224-.363a.74.74 0 0 1 .016-.165l.06-.303c-.08.031-.252.1-.404.1-.076 0-.24-.025-.24-.205 0-.152.128-.32.384-.32a.61.61 0 0 1 .328.1l.184-.928c.024.012.052.02.08.02.088 0 .192-.064.272-.14l-.212 1.064.256-.144a.622.622 0 0 1 .296-.08c.116 0 .212.04.256.112a.373.373 0 0 1 .276-.12c.144 0 .276.088.276.276 0 .196-.124.36-.26.36-.1 0-.152-.088-.152-.192 0-.2.148-.256.24-.256h.012c-.032-.056-.092-.08-.152-.08-.096 0-.2.064-.22.172l-.216 1.08a.282.282 0 0 0-.152-.044.392.392 0 0 0-.172.044l.216-1.08v-.028c0-.064-.048-.104-.116-.104a.236.236 0 0 0-.096.028l-.316.176-.028.124c.108.124.2.268.2.436zm-.24.26c.092 0 .14-.136.14-.244 0-.12-.056-.22-.128-.312l-.02.108c-.016.072-.052.224-.052.332 0 .068.016.116.06.116zm-8.598 5.996H7.53a.783.783 0 0 1-.78-.787c0-.233.212-.413.448-.413.216 0 .38.188.38.412 0 .208-.172.38-.38.38a.326.326 0 0 1-.124-.023c.104.156.272.26.468.26h.016zm.78-1.727a.69.69 0 0 0 .452-.657.764.764 0 0 0-.692-.76c.076.356.192.968.24 1.416zm-1.548-.925c0 .58.564.989 1.056.989.004 0 .188 0 .328-.025a17.343 17.343 0 0 0-.252-1.455c-.316.032-.496.244-.496.476 0 .176.1.364.324.492.02.02.028.04.028.06 0 .044-.04.088-.088.088-.06 0-.504-.248-.504-.748 0-.352.232-.696.64-.788a15.048 15.048 0 0 0-.184-.7c-.428.484-.852.972-.852 1.612zm.704-2.1c-.116-.383-.208-.68-.208-1.383 0-.46.22-.896.596-1.168a.06.06 0 0 1 .08 0c.272.32.532.98.532 1.432 0 .571-.344 1.02-.72 1.455.084.272.156.552.224.828.008 0 .028-.004.052-.004.62 0 1.024.512 1.024 1.044 0 .453-.296.849-.72.985.012.14.02.28.02.42 0 .075-.004.155-.008.231-.028.476-.352.9-.808.912l.004-.171c.372-.009.612-.369.636-.765a3.775 3.775 0 0 0-.008-.588c-.02.004-.176.032-.356.032-.772 0-1.332-.72-1.332-1.496 0-.708.524-1.224.992-1.764zm.712-1.451c0-.136.004-.264-.08-.516a1.153 1.153 0 0 0-.648 1.036c0 .208.048.46.144.776.32-.388.584-.792.584-1.296Zm1.787.187c0-.031.02-.06.053-.071l.184-.068v-.632c0-.04.032-.076.072-.076.04 0 .076.036.076.076v.58l.332-.124V7.5c0-.04.036-.076.076-.076s.072.036.072.076v.58l.128-.048c.008-.004.02-.004.028-.004a.08.08 0 0 1 .08.08v.24c0 .032-.02.064-.052.076l-.184.064v.64l.128-.044c.008-.004.02-.004.028-.004a.08.08 0 0 1 .08.08v.24c0 .032-.02.06-.052.072l-.184.068v.632c0 .04-.032.076-.072.076a.079.079 0 0 1-.076-.076v-.58l-.332.124v.632c0 .04-.036.076-.076.076s-.072-.036-.072-.076v-.58l-.128.048c-.008.004-.02.004-.028.004a.08.08 0 0 1-.08-.08V9.5c0-.032.02-.064.052-.076l.184-.064v-.64l-.128.043c-.008.005-.02.005-.028.005a.08.08 0 0 1-.08-.08v-.24zm.717.097-.332.12v.64l.332-.12zm2.518 2.38c-.352 0-.36-.264-.576-.264-.12 0-.236.08-.248.22-.004.028-.024.044-.044.044-.024 0-.048-.016-.048-.044 0-.616.928-.68.928-1.376 0-.236-.064-.488-.268-.488-.1 0-.196.056-.196.148 0 .108.14.164.14.272a.277.277 0 0 1-.552 0c0-.304.288-.512.608-.512.38 0 .732.228.732.58 0 .604-.6.636-.984.88a.497.497 0 0 1 .108-.012c.332 0 .444.236.684.236.192 0 .152-.152.22-.152.024 0 .048.02.048.048 0 .088-.176.42-.552.42zm-.2 1.548h.468c0 .192.108.376.288.376.032 0 .048.02.048.044 0 .024-.016.048-.048.048-.176 0-.348-.052-.524-.052-.176 0-.348.052-.524.052-.032 0-.048-.024-.048-.048s.016-.044.048-.044c.18 0 .292-.184.292-.376zm-.792-.124c0-.048.56-.572.56-1.344 0-.04.028-.076.064-.064a.988.988 0 0 0 .284.052.988.988 0 0 0 .284-.052c.056-.016.092.036.068.064l-1.136 1.32h.668V11.8c0-.136.136-.108.272-.288.088-.12.092-.224.144-.224.024 0 .052.02.052.056v.98h.288c.04 0 .06.028.06.056s-.02.06-.06.06h-.288v.032h-.468v-.032h-.668c-.092 0-.124-.056-.124-.092zm4.484 7.532c.264 0 .432.144.432.356 0 .356-.452.732-.872.732-.264 0-.432-.144-.432-.356 0-.356.452-.732.872-.732z"/>
        <text fill="currentColor" font-size="2.2" transform="translate(15.845 25.712)">➃</text>
        <path fill="currentColor" d="M8.719 19.424c0-.112.092-.204.204-.204.112 0 .204.092.204.204a.205.205 0 0 1-.204.204.205.205 0 0 1-.204-.204Zm0-1c0-.112.092-.204.204-.204.112 0 .204.092.204.204a.205.205 0 0 1-.204.204.205.205 0 0 1-.204-.204Zm-1.3-.552c.688 0 1.172.352 1.172 1.004 0 1.052-1.052 1.656-2.064 2.084a.049.049 0 0 1-.036.016.053.053 0 0 1-.052-.052c0-.012.004-.024.016-.036.808-.473 1.648-1.06 1.648-1.973 0-.48-.252-.94-.684-.94-.296 0-.516.216-.616.504a.323.323 0 0 1 .136-.032c.22 0 .4.18.4.4 0 .232-.176.424-.4.424-.24 0-.448-.188-.448-.424 0-.532.408-.976.928-.976zm2.571.576c0-.032.02-.06.053-.072l.184-.068v-.632c0-.04.032-.076.072-.076.04 0 .076.035.076.075v.58l.332-.124V17.5c0-.04.036-.076.076-.076s.072.036.072.076v.58l.128-.048c.008-.004.02-.004.028-.004a.08.08 0 0 1 .08.08v.24c0 .032-.02.064-.052.076l-.184.064v.64l.128-.044c.008-.004.02-.004.028-.004a.08.08 0 0 1 .08.08v.24c0 .032-.02.06-.052.072l-.184.068v.632c0 .04-.032.076-.072.076a.079.079 0 0 1-.076-.076v-.58l-.332.124v.632c0 .04-.036.076-.076.076s-.072-.036-.072-.076v-.58l-.128.048c-.008.004-.02.004-.028.004a.08.08 0 0 1-.08-.08v-.24c0-.032.02-.064.052-.076l.184-.064v-.64l-.128.044c-.008.004-.02.004-.028.004a.08.08 0 0 1-.08-.08v-.24zm.717.096-.332.12v.64l.332-.12zm2.518 1.38c-.352 0-.36-.264-.576-.264-.12 0-.236.08-.248.22-.004.028-.024.044-.044.044-.024 0-.048-.016-.048-.044 0-.616.928-.68.928-1.376 0-.237-.064-.489-.268-.489-.1 0-.196.056-.196.148 0 .108.14.164.14.272a.277.277 0 0 1-.552 0c0-.304.288-.512.608-.512.38 0 .732.228.732.58 0 .604-.6.636-.984.88a.497.497 0 0 1 .108-.012c.332 0 .444.236.684.236.192 0 .152-.152.22-.152.024 0 .048.02.048.048 0 .088-.176.42-.552.42zm-.2 1.548h.468c0 .192.108.376.288.376.032 0 .048.02.048.044 0 .024-.016.048-.048.048-.176 0-.348-.052-.524-.052-.176 0-.348.052-.524.052-.032 0-.048-.024-.048-.048s.016-.044.048-.044c.18 0 .292-.184.292-.376zm-.792-.124c0-.048.56-.572.56-1.344 0-.04.028-.076.064-.064a.988.988 0 0 0 .284.052.988.988 0 0 0 .284-.052c.056-.016.092.036.068.064l-1.136 1.32h.668V20.8c0-.136.136-.108.272-.288.088-.12.092-.224.144-.224.024 0 .052.02.052.056v.98h.288c.04 0 .06.028.06.056s-.02.06-.06.06h-.288v.032h-.468v-.032h-.668c-.092 0-.124-.056-.124-.092zM17.6 9.424a.224.224 0 1 1 .447-.001.224.224 0 0 1-.448 0z"/>
        <rect width=".13" height="3.312" x="-.065" y="-1.314" fill="currentColor" ry=".04" transform="translate(15.91 10.924)"/>
        <rect width=".13" height="2.814" x="-.065" y=".686" fill="currentColor" ry=".04" transform="translate(15.91 19.924)"/>
        <path fill="currentColor" stroke="currentColor" stroke-linecap="round" stroke-linejoin="round" stroke-width=".08" d="M34.914 9.372c1.587-1.266 6.192-1.055 7.659.35v0c-1.472-1.285-6.077-1.496-7.659-.35Z"/>
        <path fill="currentColor" d="M20.671 17.88c.264 0 .432.144.432.356 0 .356-.452.732-.872.732-.264 0-.432-.144-.432-.356 0-.356.452-.732.872-.732z"/>
        <rect width=".13" height="4.814" x="-.065" y="-1.314" fill="currentColor" ry=".04" transform="translate(19.864 19.924)"/>
        <path fill="currentColor" stroke="currentColor" stroke-linecap="round" stroke-linejoin="round" stroke-width=".08" d="M25.229 10.473v.4l-1.085.25v-.4zm1.719.44v.4l-2.804.62v-.4z"/>
        <path fill="currentColor" d="M22.471 8.38c.264 0 .432.143.432.355 0 .357-.452.733-.872.733-.264 0-.432-.145-.432-.357 0-.356.452-.732.872-.732z"/>
        <rect width=".13" height="3.626" x="-.065" y="-1.814" fill="currentColor" ry=".04" transform="translate(21.665 10.924)"/>
        <path fill="currentColor" d="M24.976 7.88c.264 0 .432.144.432.356 0 .355-.452.731-.872.731-.264 0-.432-.144-.432-.356 0-.356.452-.732.872-.732zm0 12.5c.264 0 .432.144.432.356 0 .356-.452.732-.872.732-.264 0-.432-.144-.432-.356 0-.356.452-.732.872-.732z"/>
        <text fill="currentColor" font-size="2.2" transform="translate(24.104 25.712)">➂</text>
        <rect width=".13" height="3.11" x="-.065" y="-2.314" fill="currentColor" ry=".04" transform="translate(24.169 10.924)"/>
        <rect width=".13" height="2.314" x="-.065" y="1.186" fill="currentColor" ry=".04" transform="translate(24.169 19.924)"/>
        <path fill="currentColor" stroke="currentColor" stroke-linecap="round" stroke-linejoin="round" stroke-width=".08" d="M21.69 11.724v.4l-1.086.037v-.4zm0 .81v.4l-5.805.19v-.4z"/>
        <path fill="currentColor" d="M27.73 6.88c.264 0 .432.144.432.356 0 .356-.452.732-.872.732-.264 0-.432-.144-.432-.356 0-.356.452-.732.872-.732zm.882.543a.224.224 0 1 1 .447 0 .224.224 0 0 1-.447 0z"/>
        <rect width=".13" height="3.518" x="-.065" y="-3.314" fill="currentColor" ry=".04" transform="translate(26.923 10.924)"/>
        <path fill="currentColor" stroke="currentColor" stroke-linecap="round" stroke-linejoin="round" stroke-width=".08" d="M28.748 23.224v.4H15.885v-.4z"/>
        <path fill="currentColor" d="M29.53 17.88c.264 0 .432.144.432.356 0 .356-.452.732-.872.732-.264 0-.432-.144-.432-.356 0-.356.452-.732.872-.732z"/>
        <rect width=".13" height="4.814" x="-.065" y="-1.314" fill="currentColor" ry=".04" transform="translate(28.723 19.924)"/>
        <path fill="currentColor" d="M32.886 9.534c.193 0 .328.112.328.277 0 .255-.3.502-.585.502-.194 0-.325-.112-.325-.277 0-.255.297-.502.582-.502z"/>
        <rect width=".16" height="13.1" y="-6.55" fill="currentColor" ry=".05" transform="translate(5.63 15.424)"/>
        <rect width=".13" height="2.386" x="-.065" y="-3.5" fill="currentColor" ry=".04" transform="translate(33.157 10.924)"/>
        <path fill="currentColor" d="M33.544 9.488c0-.034.12-.238.12-.54 0-.283-.252-.575-.442-.785h-.059v-.7h.059c0 .55.58.936.58 1.484 0 .2-.043.392-.115.577-.014.028-.04.037-.065.037-.039 0-.078-.028-.078-.073zM5.007 16.887c0-1.02-.528-1.452-.528-1.464 0-.072.528-.384.528-1.464 0-1.044-.432-1.956-.432-3.12 0-.756.18-1.464.708-2.004.06-.06.156.036.096.096-.396.396-.516.9-.516 1.44 0 1.02.408 1.92.408 3.06 0 .744-.18 1.452-.696 1.992.516.54.696 1.248.696 1.992 0 1.14-.408 2.04-.408 3.06 0 .54.12 1.044.516 1.44.06.06-.036.156-.096.096-.528-.54-.708-1.248-.708-2.004 0-1.164.432-2.076.432-3.12zM35.114 9.88c.265 0 .433.143.433.355 0 .357-.452.733-.872.733-.264 0-.432-.145-.432-.357 0-.356.451-.732.871-.732z"/>
        <text fill="currentColor" font-size="2.2" transform="translate(34.242 7.903)">➍</text>
        <path fill="currentColor" d="M35.114 20.88c.265 0 .433.144.433.356 0 .356-.452.732-.872.732-.264 0-.432-.144-.432-.356 0-.356.451-.732.871-.732z"/>
        <text fill="currentColor" font-size="2.2" transform="translate(34.242 24.022)">➁</text>
        <rect width=".13" height="3.314" x="-.065" y="-.314" fill="currentColor" ry=".04" transform="translate(34.307 10.924)"/>
        <rect width=".13" height="3.525" x="-.065" y="-2.211" fill="currentColor" ry=".04" transform="translate(35.482 19.924)"/>
        <path fill="currentColor" d="M39.069 18.38c.264 0 .432.144.432.356 0 .356-.452.732-.872.732-.264 0-.432-.144-.432-.356 0-.356.452-.732.872-.732z"/>
        <rect width=".13" height="2.293" x="-.065" y="-3.479" fill="currentColor" ry=".04" transform="translate(39.436 19.924)"/>
        <path fill="currentColor" d="M42.773 10.38c.264 0 .432.143.432.355 0 .357-.452.733-.872.733-.264 0-.432-.145-.432-.357 0-.356.452-.732.872-.732z"/>
        <text fill="currentColor" font-size="2.2" transform="translate(41.901 8.136)">➌</text>
        <path fill="currentColor" d="M42.773 17.88c.264 0 .432.144.432.356 0 .356-.452.732-.872.732-.264 0-.432-.144-.432-.356 0-.356.452-.732.872-.732z"/>
        <text fill="currentColor" font-size="2.2" transform="translate(41.901 24.022)">➀</text>
        <rect width=".13" height="3.189" x="-.065" y=".186" fill="currentColor" ry=".04" transform="translate(41.966 10.924)"/>
        <path fill="currentColor" d="M42.031 14.258h-.064v-1h.064zm0 0v-1c.388-.235.896-.591.896-1.035 0-.229-.06-.449-.16-.653-.012-.063.04-.107.092-.107.028 0 .06.012.08.044.1.224.16.468.16.716 0 .811-1.068 1.223-1.068 2.035z"/>
        <rect width=".13" height="2.095" x="-.065" y="-3.782" fill="currentColor" ry=".04" transform="translate(43.14 19.924)"/>
        <path fill="currentColor" d="M45.76 10.104c.316 0 .184.392.364.392.064 0 .216-.193.244-.253.024-.048.092-.048.112 0l-.492 1.68a.158.158 0 0 1-.108.04.168.168 0 0 1-.112-.04l.468-1.304a1.272 1.272 0 0 1-.42.088c-.188 0-.348-.136-.348-.316a.29.29 0 0 1 .292-.288zm.592 11.276c.264 0 .432.144.432.356 0 .356-.452.732-.872.732-.264 0-.432-.144-.432-.356 0-.356.452-.732.872-.732z"/>
        <rect width=".13" height="4.032" x="-.065" y="-2.218" fill="currentColor" ry=".04" transform="translate(46.72 19.924)"/>
    </g>
    <text x="162.375" y="9.039" fill="currentColor" font-family="sans-serif" font-size="4">Theme</text>
    <g transform="translate(61.606 59.488) scale(1.75711)">
        <rect width="1.956" height=".2" x="37.373" y="-.1" fill="currentColor" ry=".1" transform="translate(5.69 5.992)"/>
        <rect width="1.956" height=".2" x="28.608" y="-.1" fill="currentColor" ry=".1" transform="translate(5.69 5.992)"/>
        <path stroke="currentColor" stroke-linecap="round" stroke-linejoin="round" stroke-width=".1" d="M5.74 10.992h52.766m-52.766-1h52.766m-52.766-1h52.766m-52.766-1h52.766m-52.766-1h52.766"/>
        <rect width=".19" height="4.95" y="7.197" fill="currentColor" ry="0" transform="translate(58.366 3.845)"/>
        <rect width="1.956" height=".2" x="9.829" y="-.1" fill="currentColor" ry=".1" transform="translate(5.69 20.992)"/>
        <rect width="1.956" height=".2" x="9.829" y="-.1" fill="currentColor" ry=".1" transform="translate(5.69 21.992)"/>
        <path stroke="currentColor" stroke-linecap="round" stroke-linejoin="round" stroke-width=".1" d="M5.74 19.992h52.766m-52.766-1h52.766m-52.766-1h52.766m-52.766-1h52.766m-52.766-1h52.766"/>
        <rect width=".19" height="4.05" y="-2.05" fill="currentColor" ry="0" transform="translate(58.366 17.992)"/>
        <rect width=".19" height="4.05" y="-2" fill="currentColor" ry="0" transform="translate(58.366 8.992)"/>
        <rect width=".19" height="4.95" y="7.197" fill="currentColor" ry="0" transform="translate(36.879 3.845)"/>
        <rect width=".19" height="4.05" y="-2.05" fill="currentColor" ry="0" transform="translate(36.879 17.992)"/>
        <rect width=".19" height="4.05" y="-2" fill="currentColor" ry="0" transform="translate(36.879 8.992)"/>
        <rect width=".13" height="3.332" x="-.065" y="-2.018" fill="currentColor" ry=".04" transform="translate(39.37 17.992)"/>
        <path fill="currentColor" stroke="currentColor" stroke-linecap="round" stroke-linejoin="round" stroke-width=".08" d="M56.925 5.792v.4l-7.563-.81v-.4zm0 .81v.4l-7.563-.81v-.4z"/>
        <path fill="currentColor" d="M16.717 10.448c.264 0 .432.144.432.356 0 .356-.452.732-.872.732-.264 0-.432-.144-.432-.356 0-.356.452-.732.872-.732z"/>
        <text fill="currentColor" font-size="2.2" transform="translate(15.845 5.726)">➏</text>
        <path fill="currentColor" d="M7.555 12.532H7.53a.783.783 0 0 1-.78-.788c0-.232.212-.412.448-.412.216 0 .38.188.38.412 0 .208-.172.38-.38.38a.326.326 0 0 1-.124-.024c.104.156.272.26.468.26h.016zm.78-1.728a.69.69 0 0 0 .452-.656.764.764 0 0 0-.692-.76c.076.356.192.968.24 1.416zM6.787 9.88c0 .58.564.988 1.056.988.004 0 .188 0 .328-.024a17.343 17.343 0 0 0-.252-1.456c-.316.032-.496.244-.496.476 0 .176.1.364.324.492.02.02.028.04.028.06 0 .044-.04.088-.088.088-.06 0-.504-.248-.504-.748 0-.352.232-.696.64-.788a15.048 15.048 0 0 0-.184-.7c-.428.484-.852.972-.852 1.612Zm.704-2.1c-.116-.384-.208-.68-.208-1.384 0-.46.22-.896.596-1.168a.06.06 0 0 1 .08 0c.272.32.532.98.532 1.432 0 .572-.344 1.02-.72 1.456.084.272.156.552.224.828.008 0 .028-.004.052-.004.62 0 1.024.512 1.024 1.044 0 .452-.296.848-.72.984.012.14.02.28.02.42 0 .076-.004.156-.008.232-.028.476-.352.9-.808.912l.004-.172c.372-.008.612-.368.636-.764a3.775 3.775 0 0 0-.008-.588c-.02.004-.176.032-.356.032-.772 0-1.332-.72-1.332-1.496 0-.708.524-1.224.992-1.764Zm.712-1.452c0-.136.004-.264-.08-.516a1.153 1.153 0 0 0-.648 1.036c0 .208.048.46.144.776.32-.388.584-.792.584-1.296Zm1.787.188c0-.032.02-.06.053-.072l.184-.068v-.632c0-.04.032-.076.072-.076.04 0 .076.036.076.076v.58l.332-.124v-.632c0-.04.036-.076.076-.076s.072.036.072.076v.58l.128-.048c.008-.004.02-.004.028-.004a.08.08 0 0 1 .08.08v.24c0 .032-.02.064-.052.076l-.184.064v.64l.128-.044c.008-.004.02-.004.028-.004a.08.08 0 0 1 .08.08v.24c0 .032-.02.06-.052.072l-.184.068v.632c0 .04-.032.076-.072.076a.079.079 0 0 1-.076-.076v-.58l-.332.124v.632c0 .04-.036.076-.076.076s-.072-.036-.072-.076v-.58l-.128.048c-.008.004-.02.004-.028.004a.08.08 0 0 1-.08-.08v-.24c0-.032.02-.064.052-.076l.184-.064v-.64l-.128.044c-.008.004-.02.004-.028.004a.08.08 0 0 1-.08-.08v-.24zm.717.096-.332.12v.64l.332-.12zm2.518 2.38c-.352 0-.36-.264-.576-.264-.12 0-.236.08-.248.22-.004.028-.024.044-.044.044-.024 0-.048-.016-.048-.044 0-.616.928-.68.928-1.376 0-.236-.064-.488-.268-.488-.1 0-.196.056-.196.148 0 .108.14.164.14.272a.277.277 0 0 1-.552 0c0-.304.288-.512.608-.512.38 0 .732.228.732.58 0 .604-.6.636-.984.88a.497.497 0 0 1 .108-.012c.332 0 .444.236.684.236.192 0 .152-.152.22-.152.024 0 .048.02.048.048 0 .088-.176.42-.552.42zm-.2 1.548h.468c0 .192.108.376.288.376.032 0 .048.02.048.044 0 .024-.016.048-.048.048-.176 0-.348-.052-.524-.052-.176 0-.348.052-.524.052-.032 0-.048-.024-.048-.048s.016-.044.048-.044c.18 0 .292-.184.292-.376zm-.792-.124c0-.048.56-.572.56-1.344 0-.04.028-.076.064-.064a.988.988 0 0 0 .284.052.988.988 0 0 0 .284-.052c.056-.016.092.036.068.064l-1.136 1.32h.668v-.524c0-.136.136-.108.272-.288.088-.12.092-.224.144-.224.024 0 .052.02.052.056v.98h.288c.04 0 .06.028.06.056s-.02.06-.06.06h-.288v.032h-.468v-.032h-.668c-.092 0-.124-.056-.124-.092zm4.484 7.532c.264 0 .432.144.432.356 0 .356-.452.732-.872.732-.264 0-.432-.144-.432-.356 0-.356.452-.732.872-.732zm0 3.5c.264 0 .432.144.432.356 0 .356-.452.732-.872.732-.264 0-.432-.144-.432-.356 0-.356.452-.732.872-.732z"/>
        <text fill="currentColor" font-size="2.2" transform="translate(15.845 24.586)">➃</text>
        <path fill="currentColor" d="M8.719 17.492c0-.112.092-.204.204-.204.112 0 .204.092.204.204a.205.205 0 0 1-.204.204.205.205 0 0 1-.204-.204Zm0-1c0-.112.092-.204.204-.204.112 0 .204.092.204.204a.205.205 0 0 1-.204.204.205.205 0 0 1-.204-.204Zm-1.3-.552c.688 0 1.172.352 1.172 1.004 0 1.052-1.052 1.656-2.064 2.084a.049.049 0 0 1-.036.016.053.053 0 0 1-.052-.052c0-.012.004-.024.016-.036.808-.472 1.648-1.06 1.648-1.972 0-.48-.252-.94-.684-.94-.296 0-.516.216-.616.504a.323.323 0 0 1 .136-.032c.22 0 .4.18.4.4 0 .232-.176.424-.4.424-.24 0-.448-.188-.448-.424 0-.532.408-.976.928-.976zm2.571.576c0-.032.02-.06.053-.072l.184-.068v-.632c0-.04.032-.076.072-.076.04 0 .076.036.076.076v.58l.332-.124v-.632c0-.04.036-.076.076-.076s.072.036.072.076v.58l.128-.048c.008-.004.02-.004.028-.004a.08.08 0 0 1 .08.08v.24c0 .032-.02.064-.052.076l-.184.064v.64l.128-.044c.008-.004.02-.004.028-.004a.08.08 0 0 1 .08.08v.24c0 .032-.02.06-.052.072l-.184.068v.632c0 .04-.032.076-.072.076a.079.079 0 0 1-.076-.076v-.58l-.332.124v.632c0 .04-.036.076-.076.076s-.072-.036-.072-.076v-.58l-.128.048c-.008.004-.02.004-.028.004a.08.08 0 0 1-.08-.08v-.24c0-.032.02-.064.052-.076l.184-.064v-.64l-.128.044c-.008.004-.02.004-.028.004a.08.08 0 0 1-.08-.08v-.24zm.717.096-.332.12v.64l.332-.12zm2.518 1.38c-.352 0-.36-.264-.576-.264-.12 0-.236.08-.248.22-.004.028-.024.044-.044.044-.024 0-.048-.016-.048-.044 0-.616.928-.68.928-1.376 0-.236-.064-.488-.268-.488-.1 0-.196.056-.196.148 0 .108.14.164.14.272a.277.277 0 0 1-.552 0c0-.304.288-.512.608-.512.38 0 .732.228.732.58 0 .604-.6.636-.984.88a.497.497 0 0 1 .108-.012c.332 0 .444.236.684.236.192 0 .152-.152.22-.152.024 0 .048.02.048.048 0 .088-.176.42-.552.42zm-.2 1.548h.468c0 .192.108.376.288.376.032 0 .048.02.048.044 0 .024-.016.048-.048.048-.176 0-.348-.052-.524-.052-.176 0-.348.052-.524.052-.032 0-.048-.024-.048-.048s.016-.044.048-.044c.18 0 .292-.184.292-.376zm-.792-.124c0-.048.56-.572.56-1.344 0-.04.028-.076.064-.064a.988.988 0 0 0 .284.052.988.988 0 0 0 .284-.052c.056-.016.092.036.068.064l-1.136 1.32h.668v-.524c0-.136.136-.108.272-.288.088-.12.092-.224.144-.224.024 0 .052.02.052.056v.98h.288c.04 0 .06.028.06.056s-.02.06-.06.06h-.288v.032h-.468v-.032h-.668c-.092 0-.124-.056-.124-.092z"/>
        <rect width=".13" height="3.829" x="-.065" y="-2.015" fill="currentColor" ry=".04" transform="translate(17.084 8.992)"/>
        <rect width=".13" height="6.814" x="-.065" y="-3" fill="currentColor" ry=".04" transform="translate(17.084 17.992)"/>
        <path fill="currentColor" stroke="currentColor" stroke-linecap="round" stroke-linejoin="round" stroke-width=".08" d="M44.654 14.292v.4l-5.309 1.5v-.4z"/>
        <path fill="currentColor" d="M19.471 9.448c.264 0 .432.144.432.356 0 .356-.452.732-.872.732-.264 0-.432-.144-.432-.356 0-.356.452-.732.872-.732z"/>
        <rect width=".13" height="3.486" x="-.065" y="-2.672" fill="currentColor" ry=".04" transform="translate(19.839 8.992)"/>
        <path fill="currentColor" stroke="currentColor" stroke-linecap="round" stroke-linejoin="round" stroke-width=".08" d="M45.734 10.792v.4H38.17v-.4zm0 .81v.4H38.17v-.4z"/>
        <path fill="currentColor" d="M22.226 7.948c.264 0 .432.144.432.356 0 .356-.452.732-.872.732-.264 0-.432-.144-.432-.356 0-.356.452-.732.872-.732z"/>
        <rect width=".13" height="2.642" x="-.065" y="-3.328" fill="currentColor" ry=".04" transform="translate(22.593 8.992)"/>
        <path fill="currentColor" stroke="currentColor" stroke-linecap="round" stroke-linejoin="round" stroke-width=".08" d="M34.715 8.792v.4l-8.063 1.19v-.4zm0 .81v.4l-8.063 1.19v-.4z"/>
        <path fill="currentColor" d="M24.98 6.948c.264 0 .432.144.432.356 0 .356-.452.732-.872.732-.264 0-.432-.144-.432-.356 0-.356.452-.732.872-.732z"/>
        <rect width=".13" height="2.298" x="-.065" y="-3.985" fill="currentColor" ry=".04" transform="translate(25.347 8.992)"/>
        <path fill="currentColor" stroke="currentColor" stroke-linecap="round" stroke-linejoin="round" stroke-width=".08" d="M25.372 4.792v.4l-8.313 2v-.4zm0 .81v.4l-8.313 2v-.4z"/>
        <path fill="currentColor" d="M27.484 7.448c.264 0 .432.144.432.356 0 .356-.452.732-.872.732-.264 0-.432-.144-.432-.356 0-.356.452-.732.872-.732z"/>
        <text fill="currentColor" font-size="2.2" transform="translate(26.612 6.205)">➎</text>
        <path fill="currentColor" d="M27.484 18.448c.264 0 .432.144.432.356 0 .356-.452.732-.872.732-.264 0-.432-.144-.432-.356 0-.356.452-.732.872-.732z"/>
        <text fill="currentColor" font-size="2.2" transform="translate(26.612 22.09)">➂</text>
        <rect width=".13" height="2.804" x="-.065" y="-.814" fill="currentColor" ry=".04" transform="translate(26.677 8.992)"/>
        <rect width=".13" height="3.314" x="-.065" y="-2.5" fill="currentColor" ry=".04" transform="translate(27.851 17.992)"/>
        <path fill="currentColor" d="M30.238 6.448c.264 0 .432.144.432.356 0 .356-.452.732-.872.732-.264 0-.432-.144-.432-.356 0-.356.452-.732.872-.732z"/>
        <rect width=".13" height="3.402" x="-.065" y="-1.814" fill="currentColor" ry=".04" transform="translate(29.431 8.992)"/>
        <path fill="currentColor" d="M32.743 5.948c.264 0 .432.144.432.356 0 .356-.452.732-.872.732-.264 0-.432-.144-.432-.356 0-.356.452-.732.872-.732z"/>
        <rect width=".13" height="3.536" x="-.065" y="-2.314" fill="currentColor" ry=".04" transform="translate(31.936 8.992)"/>
        <path fill="currentColor" d="M35.497 4.948c.264 0 .432.144.432.356 0 .356-.452.732-.872.732-.264 0-.432-.144-.432-.356 0-.356.452-.732.872-.732z"/>
        <rect width=".13" height="4.133" x="-.065" y="-3.314" fill="currentColor" ry=".04" transform="translate(34.69 8.992)"/>
        <path fill="currentColor" d="M39.003 7.448c.264 0 .432.144.432.356 0 .356-.452.732-.872.732-.264 0-.432-.144-.432-.356 0-.356.452-.732.872-.732zm0 11.5c.264 0 .432.144.432.356 0 .356-.452.732-.872.732-.264 0-.432-.144-.432-.356 0-.356.452-.732.872-.732z"/>
        <text fill="currentColor" font-size="2.2" transform="translate(38.131 22.09)">➁</text>
        <rect width=".16" height="13.1" y="-6.55" fill="currentColor" ry=".05" transform="translate(5.63 13.492)"/>
        <rect width=".13" height="3.624" x="-.065" y="-.814" fill="currentColor" ry=".04" transform="translate(38.196 8.992)"/>
        <path fill="currentColor" stroke="currentColor" stroke-linecap="round" stroke-linejoin="round" stroke-width=".08" d="M54.42 15.602v.4l-5.058-1.81v-.4z"/>
        <path fill="currentColor" d="M5.007 14.956c0-1.02-.528-1.452-.528-1.464 0-.072.528-.384.528-1.464 0-1.044-.432-1.956-.432-3.12 0-.756.18-1.464.708-2.004.06-.06.156.036.096.096-.396.396-.516.9-.516 1.44 0 1.02.408 1.92.408 3.06 0 .744-.18 1.452-.696 1.992.516.54.696 1.248.696 1.992 0 1.14-.408 2.04-.408 3.06 0 .54.12 1.044.516 1.44.06.06-.036.156-.096.096-.528-.54-.708-1.248-.708-2.004 0-1.164.432-2.076.432-3.12zm36.5-7.008c.264 0 .432.144.432.356 0 .356-.452.732-.872.732-.264 0-.432-.144-.432-.356 0-.356.452-.732.872-.732z"/>
        <rect width=".13" height="3.124" x="-.065" y="-.314" fill="currentColor" ry=".04" transform="translate(40.7 8.992)"/>
        <path fill="currentColor" d="M44.262 5.448c.264 0 .432.144.432.356 0 .356-.452.732-.872.732-.264 0-.432-.144-.432-.356 0-.356.452-.732.872-.732zm0 11c.264 0 .432.144.432.356 0 .356-.452.732-.872.732-.264 0-.432-.144-.432-.356 0-.356.452-.732.872-.732z"/>
        <rect width=".13" height="5.624" x="-.065" y="-2.814" fill="currentColor" ry=".04" transform="translate(43.455 8.992)"/>
        <rect width=".13" height="2.296" x="-.065" y="-3.482" fill="currentColor" ry=".04" transform="translate(44.629 17.992)"/>
        <path fill="currentColor" d="M46.516 7.948c.264 0 .432.144.432.356 0 .356-.452.732-.872.732-.264 0-.432-.144-.432-.356 0-.356.452-.732.872-.732z"/>
        <rect width=".13" height="3.124" x="-.065" y="-.314" fill="currentColor" ry=".04" transform="translate(45.709 8.992)"/>
        <path fill="currentColor" d="M49.02 7.948c.264 0 .432.144.432.356 0 .356-.452.732-.872.732-.264 0-.432-.144-.432-.356 0-.356.452-.732.872-.732zm0 8c.264 0 .432.144.432.356 0 .356-.452.732-.872.732-.264 0-.432-.144-.432-.356 0-.356.452-.732.872-.732z"/>
        <text fill="currentColor" font-size="2.2" transform="translate(48.148 22.09)">➀</text>
        <rect width=".13" height="3.117" x="-.065" y="-3.803" fill="currentColor" ry=".04" transform="translate(49.387 8.992)"/>
        <rect width=".13" height="2.291" x="-.065" y="-3.977" fill="currentColor" ry=".04" transform="translate(49.387 17.992)"/>
        <path fill="currentColor" d="M51.524 8.448c.264 0 .432.144.432.356 0 .356-.452.732-.872.732-.264 0-.432-.144-.432-.356 0-.356.452-.732.872-.732z"/>
        <rect width=".13" height="3.352" x="-.065" y="-3.538" fill="currentColor" ry=".04" transform="translate(51.892 8.992)"/>
        <path fill="currentColor" d="M54.029 8.948c.263 0 .431.144.431.356 0 .356-.451.732-.871.732-.264 0-.432-.144-.432-.356 0-.356.452-.732.872-.732zm0 10.5c.263 0 .431.144.431.356 0 .356-.451.732-.871.732-.264 0-.432-.144-.432-.356 0-.356.452-.732.872-.732z"/>
        <rect width=".13" height="3.586" x="-.065" y="-3.272" fill="currentColor" ry=".04" transform="translate(54.396 8.992)"/>
        <rect width=".13" height="4.027" x="-.065" y="-2.213" fill="currentColor" ry=".04" transform="translate(54.396 17.992)"/>
        <path fill="currentColor" d="M56.533 9.448c.264 0 .432.144.432.356 0 .356-.452.732-.872.732-.264 0-.432-.144-.432-.356 0-.356.452-.732.872-.732z"/>
        <rect width=".13" height="3.821" x="-.065" y="-3.007" fill="currentColor" ry=".04" transform="translate(56.9 8.992)"/>
    </g>
    <text x="111.107" y="58.717" fill="currentColor" font-family="sans-serif" font-size="4">Var. 1</text>
    <g transform="translate(166.625 56.024) scale(1.75735)">
        <rect width="1.956" height=".2" x="41.92" y="-.1" fill="currentColor" ry=".1" transform="translate(5.69 13.963)"/>
        <rect width="1.956" height=".2" x="31.507" y="-.1" fill="currentColor" ry=".1" transform="translate(5.69 13.963)"/>
        <path stroke="currentColor" stroke-linecap="round" stroke-linejoin="round" stroke-width=".1" d="M5.74 12.963h52.776m-52.776-1h52.776m-52.776-1h52.776m-52.776-1h52.776m-52.776-1h52.776"/>
        <rect width=".19" height="4.95" y="9.168" fill="currentColor" ry="0" transform="translate(58.375 3.845)"/>
        <path stroke="currentColor" stroke-linecap="round" stroke-linejoin="round" stroke-width=".1" d="M5.74 21.963h52.776m-52.776-1h52.776m-52.776-1h52.776m-52.776-1h52.776m-52.776-1h52.776"/>
        <rect width=".19" height="4.05" y="-2.05" fill="currentColor" ry="0" transform="translate(58.375 19.963)"/>
        <rect width=".19" height="4.05" y="-2" fill="currentColor" ry="0" transform="translate(58.375 10.963)"/>
        <rect width=".19" height="4.95" y="9.168" fill="currentColor" ry="0" transform="translate(36.434 3.845)"/>
        <rect width=".19" height="4.05" y="-2.05" fill="currentColor" ry="0" transform="translate(36.434 19.963)"/>
        <rect width=".19" height="4.05" y="-2" fill="currentColor" ry="0" transform="translate(36.434 10.963)"/>
        <rect width=".16" height="13.1" y="-6.55" fill="currentColor" ry=".05" transform="translate(5.63 15.463)"/>
        <path fill="currentColor" stroke="currentColor" stroke-linecap="round" stroke-linejoin="round" stroke-width=".08" d="M46.697 16.264v.4l-5.559 1.5v-.4zm0 .809v.4l-5.559 1.5v-.4z"/>
        <path fill="currentColor" d="M16.717 8.92c.264 0 .432.143.432.355 0 .356-.452.732-.872.732-.264 0-.432-.144-.432-.356 0-.356.452-.732.872-.732z"/>
        <path fill="currentColor" d="M16.717 9.92c.264 0 .432.143.432.355 0 .356-.452.732-.872.732-.264 0-.432-.144-.432-.356 0-.356.452-.732.872-.732zm0 1.5c.264 0 .432.143.432.355 0 .356-.452.732-.872.732-.264 0-.432-.144-.432-.356 0-.356.452-.732.872-.732z"/>
        <path fill="currentColor" d="M16.717 12.42c.264 0 .432.143.432.355 0 .356-.452.732-.872.732-.264 0-.432-.144-.432-.356 0-.356.452-.732.872-.732z"/>
        <text fill="currentColor" font-size="2.2" transform="translate(15.845 5.726)">➏</text>
        <path fill="currentColor" d="M7.555 14.503H7.53a.783.783 0 0 1-.78-.788c0-.232.212-.412.448-.412.216 0 .38.188.38.412 0 .208-.172.38-.38.38a.326.326 0 0 1-.124-.024.56.56 0 0 0 .468.26h.016zm.78-1.728a.69.69 0 0 0 .452-.656.764.764 0 0 0-.692-.76c.076.356.192.968.24 1.416zm-1.548-.924c0 .58.564.988 1.056.988.004 0 .188 0 .328-.024a17.343 17.343 0 0 0-.252-1.455c-.316.032-.496.244-.496.476 0 .176.1.364.324.492.02.02.028.04.028.06 0 .044-.04.088-.088.088-.06 0-.504-.249-.504-.749 0-.351.232-.695.64-.787a15.048 15.048 0 0 0-.184-.7c-.428.484-.852.972-.852 1.612zm.704-2.1c-.116-.383-.208-.68-.208-1.383 0-.46.22-.897.596-1.169a.06.06 0 0 1 .08 0c.272.32.532.98.532 1.432 0 .572-.344 1.02-.72 1.456.084.272.156.552.224.828.008 0 .028-.004.052-.004.62 0 1.024.512 1.024 1.044 0 .452-.296.848-.72.984.012.14.02.28.02.42 0 .076-.004.156-.008.232-.028.476-.352.9-.808.912l.004-.172c.372-.008.612-.368.636-.764a3.775 3.775 0 0 0-.008-.588c-.02.004-.176.032-.356.032-.772 0-1.332-.72-1.332-1.496 0-.708.524-1.224.992-1.764zM8.203 8.3c0-.137.004-.265-.08-.517a1.153 1.153 0 0 0-.648 1.036c0 .208.048.46.144.776.32-.388.584-.792.584-1.296Zm1.787.187c0-.032.02-.06.053-.072l.184-.067v-.633c0-.04.032-.075.072-.075.04 0 .076.036.076.076v.58l.332-.124v-.633c0-.04.036-.075.076-.075s.072.036.072.076v.58l.128-.048c.008-.004.02-.004.028-.004a.08.08 0 0 1 .08.08v.24c0 .032-.02.064-.052.076l-.184.064v.64l.128-.044c.008-.004.02-.004.028-.004a.08.08 0 0 1 .08.08v.24c0 .032-.02.06-.052.072l-.184.068v.632c0 .04-.032.076-.072.076a.079.079 0 0 1-.076-.076v-.58l-.332.124v.632c0 .04-.036.076-.076.076s-.072-.036-.072-.076v-.58l-.128.048c-.008.004-.02.004-.028.004a.08.08 0 0 1-.08-.08v-.24c0-.032.02-.064.052-.076l.184-.065v-.64l-.128.044c-.008.004-.02.004-.028.004a.08.08 0 0 1-.08-.08v-.24zm.717.096-.332.12v.64l.332-.12zm2.518 2.38c-.352 0-.36-.263-.576-.263-.12 0-.236.08-.248.22-.004.028-.024.044-.044.044-.024 0-.048-.016-.048-.044 0-.616.928-.68.928-1.376 0-.236-.064-.488-.268-.488-.1 0-.196.056-.196.148 0 .108.14.164.14.272a.277.277 0 0 1-.552 0c0-.304.288-.512.608-.512.38 0 .732.228.732.58 0 .604-.6.636-.984.88a.497.497 0 0 1 .108-.012c.332 0 .444.236.684.236.192 0 .152-.152.22-.152.024 0 .048.02.048.048 0 .088-.176.42-.552.42zm-.2 1.549h.468c0 .192.108.376.288.376.032 0 .048.02.048.044 0 .024-.016.048-.048.048-.176 0-.348-.052-.524-.052-.176 0-.348.052-.524.052-.032 0-.048-.024-.048-.048s.016-.044.048-.044c.18 0 .292-.184.292-.376zm-.792-.124c0-.048.56-.572.56-1.344 0-.04.028-.076.064-.064a.988.988 0 0 0 .284.052.988.988 0 0 0 .284-.052c.056-.016.092.036.068.064l-1.136 1.32h.668v-.524c0-.136.136-.108.272-.288.088-.12.092-.224.144-.224.024 0 .052.02.052.056v.98h.288c.04 0 .06.028.06.056s-.02.06-.06.06h-.288v.032h-.468v-.032h-.668c-.092 0-.124-.056-.124-.092zm4.112 6.755c.316 0 .18.392.36.392.06 0 .2-.196.228-.252.024-.048.092-.048.112 0l-.716 2.68a.158.158 0 0 1-.108.04.168.168 0 0 1-.112-.04l.404-1.308a1.3 1.3 0 0 1-.424.092c-.188 0-.348-.136-.348-.316 0-.16.128-.288.288-.288.316 0 .184.392.364.392.064 0 .22-.204.24-.272l.184-.604a1.249 1.249 0 0 1-.416.089c-.188 0-.348-.136-.348-.316a.29.29 0 0 1 .292-.288zm-7.626.32c0-.112.092-.204.204-.204.112 0 .204.092.204.204a.205.205 0 0 1-.204.204.205.205 0 0 1-.204-.204Zm0-1c0-.112.092-.204.204-.204.112 0 .204.092.204.204a.205.205 0 0 1-.204.204.205.205 0 0 1-.204-.204Zm-1.3-.552c.688 0 1.172.352 1.172 1.004 0 1.053-1.052 1.657-2.064 2.085a.049.049 0 0 1-.036.016.053.053 0 0 1-.052-.052c0-.012.004-.024.016-.036.808-.473 1.648-1.06 1.648-1.973 0-.48-.252-.94-.684-.94-.296 0-.516.216-.616.504a.323.323 0 0 1 .136-.032c.22 0 .4.18.4.4 0 .232-.176.424-.4.424-.24 0-.448-.188-.448-.424 0-.532.408-.976.928-.976zm2.571.577c0-.032.02-.06.053-.072l.184-.068v-.632c0-.04.032-.077.072-.077.04 0 .076.036.076.076v.58l.332-.124v-.632c0-.04.036-.076.076-.076s.072.036.072.076v.58l.128-.048c.008-.004.02-.004.028-.004a.08.08 0 0 1 .08.08v.24c0 .032-.02.064-.052.076l-.184.064v.64l.128-.044c.008-.004.02-.004.028-.004a.08.08 0 0 1 .08.08v.24c0 .032-.02.06-.052.072l-.184.068v.632c0 .04-.032.076-.072.076a.079.079 0 0 1-.076-.076v-.58l-.332.124v.632c0 .04-.036.076-.076.076s-.072-.036-.072-.076v-.58l-.128.048c-.008.004-.02.004-.028.004a.08.08 0 0 1-.08-.08v-.24c0-.032.02-.064.052-.076l.184-.064v-.64l-.128.044c-.008.004-.02.004-.028.004a.08.08 0 0 1-.08-.08v-.24zm.717.096-.332.12v.64l.332-.12zm2.518 1.379c-.352 0-.36-.264-.576-.264-.12 0-.236.08-.248.22-.004.028-.024.044-.044.044-.024 0-.048-.016-.048-.044 0-.616.928-.68.928-1.376 0-.236-.064-.488-.268-.488-.1 0-.196.056-.196.148 0 .108.14.164.14.272a.277.277 0 0 1-.552 0c0-.304.288-.512.608-.512.38 0 .732.228.732.58 0 .604-.6.636-.984.88a.497.497 0 0 1 .108-.012c.332 0 .444.236.684.236.192 0 .152-.152.22-.152.024 0 .048.02.048.048 0 .088-.176.42-.552.42zm-.2 1.549h.468c0 .192.108.376.288.376.032 0 .048.02.048.044 0 .024-.016.048-.048.048-.176 0-.348-.052-.524-.052-.176 0-.348.052-.524.052-.032 0-.048-.024-.048-.048s.016-.044.048-.044c.18 0 .292-.184.292-.376zm-.792-.124c0-.048.56-.572.56-1.344 0-.04.028-.076.064-.064a.988.988 0 0 0 .284.052.988.988 0 0 0 .284-.052c.056-.016.092.036.068.064l-1.136 1.32h.668v-.524c0-.136.136-.108.272-.288.088-.12.092-.224.144-.224.024 0 .052.02.052.056v.98h.288c.04 0 .06.028.06.056s-.02.06-.06.06h-.288v.032h-.468v-.032h-.668c-.092 0-.124-.056-.124-.092z"/>
        <rect width=".13" height="6.314" x="-.065" y="-4.5" fill="currentColor" ry=".04" transform="translate(17.084 10.963)"/>
        <path fill="currentColor" d="M17.15 6.503v1h-.064v-1zm0 0c0 .788.828 1.344.828 2.132 0 .285-.06.565-.165.829a.097.097 0 0 1-.08.047c-.052 0-.104-.043-.092-.107.105-.245.169-.505.169-.769 0-.412-.376-.832-.66-1.132z"/>
        <path fill="currentColor" stroke="currentColor" stroke-linecap="round" stroke-linejoin="round" stroke-width=".08" d="M34.256 21.764v.4l-5.558 1.38v-.4zm0 .81v.4l-5.558 1.38v-.4z"/>
        <path fill="currentColor" d="M19.117 19.92c.264 0 .432.143.432.355 0 .357-.452.733-.872.733-.264 0-.432-.144-.432-.356 0-.357.452-.733.872-.733z"/>
        <text fill="currentColor" font-size="2.2" transform="translate(18.245 25.252)">➃</text>
        <rect width=".13" height="2.3" x="-.065" y=".686" fill="currentColor" ry=".04" transform="translate(18.31 19.963)"/>
        <path fill="currentColor" stroke="currentColor" stroke-linecap="round" stroke-linejoin="round" stroke-width=".08" d="M23.844 20.764v.4l-5.559 1.19v-.4zm0 .809v.4l-5.559 1.19v-.4z"/>
        <path fill="currentColor" d="M21.28 10.143c.316 0 .184.392.364.392.064 0 .216-.192.244-.252.024-.048.092-.048.112 0l-.492 1.68a.158.158 0 0 1-.108.04.168.168 0 0 1-.112-.04l.468-1.304a1.272 1.272 0 0 1-.42.088c-.188 0-.348-.136-.348-.316a.29.29 0 0 1 .292-.288zm.592 8.777c.264 0 .432.143.432.355 0 .357-.452.733-.872.733-.264 0-.432-.144-.432-.356 0-.357.452-.733.872-.733z"/>
        <rect width=".13" height="2.719" x="-.065" y="-.314" fill="currentColor" ry=".04" transform="translate(21.064 19.963)"/>
        <path fill="currentColor" d="M24.626 17.92c.264 0 .432.143.432.355 0 .357-.452.733-.872.733-.264 0-.432-.144-.432-.356 0-.357.452-.733.872-.733z"/>
        <rect width=".13" height="3.138" x="-.065" y="-1.314" fill="currentColor" ry=".04" transform="translate(23.819 19.963)"/>
        <path fill="currentColor" d="M27.13 9.42c.264 0 .432.143.432.355 0 .356-.452.732-.872.732-.264 0-.432-.144-.432-.356 0-.356.452-.732.872-.732z"/>
        <path fill="currentColor" d="M27.13 10.42c.264 0 .432.143.432.355 0 .356-.452.732-.872.732-.264 0-.432-.144-.432-.356 0-.356.452-.732.872-.732z"/>
        <path fill="currentColor" d="M27.13 11.42c.264 0 .432.143.432.355 0 .356-.452.732-.872.732-.264 0-.432-.144-.432-.356 0-.356.452-.732.872-.732zm0 1.5c.264 0 .432.143.432.355 0 .356-.452.732-.872.732-.264 0-.432-.144-.432-.356 0-.356.452-.732.872-.732z"/>
        <text fill="currentColor" font-size="2.2" transform="translate(26.258 6.101)">➎</text>
        <path fill="currentColor" d="M26.758 19.143c.316 0 .18.392.36.392.06 0 .2-.196.228-.252.024-.048.092-.048.112 0l-.716 2.68a.158.158 0 0 1-.108.04.168.168 0 0 1-.112-.04l.404-1.308a1.3 1.3 0 0 1-.424.092c-.188 0-.348-.136-.348-.316 0-.16.128-.288.288-.288.316 0 .184.392.364.392.064 0 .22-.204.24-.272l.184-.604a1.249 1.249 0 0 1-.416.089c-.188 0-.348-.136-.348-.316a.29.29 0 0 1 .292-.288z"/>
        <rect width=".13" height="6.439" x="-.065" y="-4.125" fill="currentColor" ry=".04" transform="translate(27.497 10.963)"/>
        <path fill="currentColor" d="M27.562 6.878v1h-.064v-1zm0 0c0 .788.828 1.344.828 2.132 0 .285-.06.565-.164.829a.097.097 0 0 1-.08.047c-.052 0-.104-.043-.092-.107.104-.245.168-.505.168-.769 0-.412-.376-.832-.66-1.132zM29.53 20.42c.264 0 .432.143.432.355 0 .357-.452.733-.872.733-.264 0-.432-.144-.432-.356 0-.357.452-.733.872-.733z"/>
        <text fill="currentColor" font-size="2.2" transform="translate(28.658 26.442)">➂</text>
        <rect width=".13" height="2.988" x="-.065" y="1.186" fill="currentColor" ry=".04" transform="translate(28.723 19.963)"/>
        <path fill="currentColor" d="M31.692 10.143c.316 0 .184.392.364.392.064 0 .216-.192.244-.252.024-.048.092-.048.112 0l-.492 1.68a.158.158 0 0 1-.108.04.168.168 0 0 1-.112-.04l.468-1.304a1.272 1.272 0 0 1-.42.088c-.188 0-.348-.136-.348-.316a.29.29 0 0 1 .292-.288zm.592 9.277c.264 0 .432.143.432.355 0 .357-.452.733-.872.733-.264 0-.432-.144-.432-.356 0-.357.452-.733.872-.733z"/>
        <rect width=".13" height="3.314" x="-.065" y=".186" fill="currentColor" ry=".04" transform="translate(31.477 19.963)"/>
        <path fill="currentColor" d="M35.038 17.92c.264 0 .432.143.432.355 0 .357-.452.733-.872.733-.264 0-.432-.144-.432-.356 0-.357.452-.733.872-.733z"/>
        <rect width=".13" height="4.14" x="-.065" y="-1.314" fill="currentColor" ry=".04" transform="translate(34.231 19.963)"/>
        <path fill="currentColor" d="M38.396 9.92c.264 0 .432.143.432.355 0 .356-.452.732-.872.732-.264 0-.432-.144-.432-.356 0-.356.452-.732.872-.732z"/>
        <path fill="currentColor" d="M38.396 10.92c.264 0 .432.143.432.355 0 .356-.452.732-.872.732-.264 0-.432-.144-.432-.356 0-.356.452-.732.872-.732z"/>
        <path fill="currentColor" d="M38.396 11.92c.264 0 .432.143.432.355 0 .356-.452.732-.872.732-.264 0-.432-.144-.432-.356 0-.356.452-.732.872-.732zm0 1.5c.264 0 .432.143.432.355 0 .356-.452.732-.872.732-.264 0-.432-.144-.432-.356 0-.356.452-.732.872-.732z"/>
        <text fill="currentColor" font-size="2.2" transform="translate(37.524 6.476)">➍</text>
        <path fill="currentColor" d="M38.024 19.143c.316 0 .18.392.36.392.06 0 .2-.196.228-.252.024-.048.092-.048.112 0l-.716 2.68a.158.158 0 0 1-.108.04.168.168 0 0 1-.112-.04l.404-1.308a1.3 1.3 0 0 1-.424.092c-.188 0-.348-.136-.348-.316 0-.16.128-.288.288-.288.316 0 .184.392.364.392.064 0 .22-.204.24-.272l.184-.604a1.249 1.249 0 0 1-.416.089c-.188 0-.348-.136-.348-.316a.29.29 0 0 1 .292-.288z"/>
        <path fill="currentColor" stroke="currentColor" stroke-linecap="round" stroke-linejoin="round" stroke-width=".08" d="M57.11 15.764v.4l-5.56 2v-.4zm0 .809v.4l-5.56 2v-.4z"/>
        <rect width=".13" height="6.564" x="-.065" y="-3.75" fill="currentColor" ry=".04" transform="translate(38.763 10.963)"/>
        <path fill="currentColor" d="M38.828 7.253v1h-.064v-1zm0 0c0 .788.828 1.344.828 2.132 0 .285-.06.565-.164.829a.097.097 0 0 1-.08.047c-.052 0-.104-.043-.092-.107.104-.245.168-.505.168-.769 0-.412-.376-.832-.66-1.132zM5.007 16.927c0-1.02-.528-1.452-.528-1.464 0-.072.528-.384.528-1.464 0-1.044-.432-1.956-.432-3.12 0-.756.18-1.464.708-2.004.06-.06.156.036.096.096-.396.396-.516.9-.516 1.44 0 1.02.408 1.92.408 3.06 0 .744-.18 1.452-.696 1.992.516.54.696 1.248.696 1.992 0 1.14-.408 2.04-.408 3.06 0 .54.12 1.044.516 1.44.06.06-.036.156-.096.096-.528-.54-.708-1.248-.708-2.004 0-1.164.432-2.076.432-3.12zm35.789 3.993c.264 0 .432.143.432.355 0 .357-.452.733-.872.733-.264 0-.432-.144-.432-.356 0-.357.452-.733.872-.733z"/>
        <text fill="currentColor" font-size="2.2" transform="translate(39.924 24.062)">➁</text>
        <rect width=".13" height="3.331" x="-.065" y="-2.017" fill="currentColor" ry=".04" transform="translate(41.163 19.963)"/>
        <path fill="currentColor" d="M42.958 10.143c.316 0 .184.392.364.392.064 0 .216-.192.244-.252.024-.048.092-.048.112 0l-.492 1.68a.158.158 0 0 1-.108.04.168.168 0 0 1-.112-.04l.468-1.304a1.272 1.272 0 0 1-.42.088c-.188 0-.348-.136-.348-.316a.29.29 0 0 1 .292-.288zm.592 9.777c.264 0 .432.143.432.355 0 .357-.452.733-.872.733-.264 0-.432-.144-.432-.356 0-.357.452-.733.872-.733z"/>
        <rect width=".13" height="3.064" x="-.065" y="-2.75" fill="currentColor" ry=".04" transform="translate(43.917 19.963)"/>
        <path fill="currentColor" d="M46.304 18.42c.264 0 .432.143.432.355 0 .357-.452.733-.872.733-.264 0-.432-.144-.432-.356 0-.357.452-.733.872-.733z"/>
        <rect width=".13" height="2.297" x="-.065" y="-3.483" fill="currentColor" ry=".04" transform="translate(46.672 19.963)"/>
        <path fill="currentColor" d="M48.809 10.42c.264 0 .432.143.432.355 0 .356-.452.732-.872.732-.264 0-.432-.144-.432-.356 0-.356.452-.732.872-.732z"/>
        <path fill="currentColor" d="M48.809 11.42c.264 0 .432.143.432.355 0 .356-.452.732-.872.732-.264 0-.432-.144-.432-.356 0-.356.452-.732.872-.732zm0 1.5c.264 0 .432.143.432.355 0 .356-.452.732-.872.732-.264 0-.432-.144-.432-.356 0-.356.452-.732.872-.732z"/>
        <path fill="currentColor" d="M48.809 13.92c.264 0 .432.143.432.355 0 .356-.452.732-.872.732-.264 0-.432-.144-.432-.356 0-.356.452-.732.872-.732z"/>
        <text fill="currentColor" font-size="2.2" transform="translate(47.937 6.851)">➌</text>
        <path fill="currentColor" d="M48.437 19.143c.316 0 .18.392.36.392.06 0 .2-.196.228-.252.024-.048.092-.048.112 0l-.716 2.68a.158.158 0 0 1-.108.04.168.168 0 0 1-.112-.04l.404-1.308a1.3 1.3 0 0 1-.424.092c-.188 0-.348-.136-.348-.316 0-.16.128-.288.288-.288.316 0 .184.392.364.392.064 0 .22-.204.24-.272l.184-.604a1.249 1.249 0 0 1-.416.089c-.188 0-.348-.136-.348-.316a.29.29 0 0 1 .292-.288z"/>
        <rect width=".13" height="6.689" x="-.065" y="-3.375" fill="currentColor" ry=".04" transform="translate(49.176 10.963)"/>
        <path fill="currentColor" d="M49.24 7.628v1h-.063v-1h.064zm0 0c0 .788.829 1.344.829 2.132 0 .285-.06.565-.164.829a.097.097 0 0 1-.08.047c-.052 0-.104-.043-.092-.107.104-.245.168-.505.168-.769 0-.412-.376-.832-.66-1.132v-1zm1.969 13.792c.263 0 .431.143.431.355 0 .357-.451.733-.871.733-.264 0-.432-.144-.432-.356 0-.357.451-.733.871-.733z"/>
        <text fill="currentColor" font-size="2.2" transform="translate(50.337 24.557)">➀</text>
        <rect width=".13" height="3.837" x="-.065" y="-2.023" fill="currentColor" ry=".04" transform="translate(51.576 19.963)"/>
        <path fill="currentColor" d="M53.37 10.143c.317 0 .185.392.365.392.064 0 .216-.192.244-.252.024-.048.092-.048.112 0l-.492 1.68a.158.158 0 0 1-.108.04.168.168 0 0 1-.112-.04l.468-1.304a1.272 1.272 0 0 1-.42.088c-.188 0-.348-.136-.348-.316a.29.29 0 0 1 .292-.288zm.593 9.277c.264 0 .432.143.432.355 0 .357-.452.733-.872.733-.264 0-.432-.144-.432-.356 0-.357.452-.733.872-.733z"/>
        <rect width=".13" height="2.814" x="-.065" y="-3" fill="currentColor" ry=".04" transform="translate(54.33 19.963)"/>
        <path fill="currentColor" d="M56.717 17.92c.264 0 .432.143.432.355 0 .357-.452.733-.872.733-.264 0-.432-.144-.432-.356 0-.357.452-.733.872-.733z"/>
        <rect width=".13" height="2.291" x="-.065" y="-3.977" fill="currentColor" ry=".04" transform="translate(57.084 19.963)"/>
    </g>
    <text x="216.053" y="58.717" fill="currentColor" font-family="sans-serif" font-size="4">Var. 2</text>
    <g transform="translate(26.185 110.163) scale(1.75728)">
        <rect width="1.956" height=".2" x="50.03" y="-.1" fill="currentColor" ry=".1" transform="translate(5.69 5.513)"/>
        <rect width="1.956" height=".2" x="37.625" y="-.1" fill="currentColor" ry=".1" transform="translate(5.69 5.513)"/>
        <rect width="1.956" height=".2" x="35.121" y="-.1" fill="currentColor" ry=".1" transform="translate(5.69 5.513)"/>
        <path stroke="currentColor" stroke-linecap="round" stroke-linejoin="round" stroke-width=".1" d="M5.74 10.514h72.918m-72.918-1h72.918m-72.918-1h72.918M5.74 7.513h72.918m-72.918-1h72.918"/>
        <rect width=".19" height="4.95" y="6.718" fill="currentColor" ry="0" transform="translate(78.517 3.845)"/>
        <path stroke="currentColor" stroke-linecap="round" stroke-linejoin="round" stroke-width=".1" d="M5.74 19.514h72.918m-72.918-1h72.918m-72.918-1h72.918m-72.918-1h72.918m-72.918-1h72.918"/>
        <rect width=".19" height="4.05" y="-2.05" fill="currentColor" ry="0" transform="translate(78.517 17.514)"/>
        <rect width=".19" height="4.05" y="-2" fill="currentColor" ry="0" transform="translate(78.517 8.514)"/>
        <rect width=".19" height="4.95" y="6.718" fill="currentColor" ry="0" transform="translate(45.474 3.845)"/>
        <rect width=".19" height="4.05" y="-2.05" fill="currentColor" ry="0" transform="translate(45.474 17.514)"/>
        <rect width=".19" height="4.05" y="-2" fill="currentColor" ry="0" transform="translate(45.474 8.514)"/>
        <path fill="currentColor" d="M49.156 18.47c.264 0 .432.144.432.356 0 .356-.452.732-.872.732-.264 0-.432-.144-.432-.356 0-.357.452-.733.872-.733zm-32.439-12c.264 0 .432.144.432.356 0 .356-.452.732-.872.732-.264 0-.432-.144-.432-.356 0-.356.452-.732.872-.732z"/>
        <text fill="currentColor" font-size="2.2" transform="translate(15.845 5.726)">➏</text>
        <path fill="currentColor" d="M7.555 12.053H7.53a.783.783 0 0 1-.78-.788c0-.232.212-.412.448-.412.216 0 .38.188.38.412 0 .208-.172.38-.38.38a.326.326 0 0 1-.124-.023c.104.156.272.26.468.26h.016zm.78-1.728a.69.69 0 0 0 .452-.655.764.764 0 0 0-.692-.76c.076.355.192.967.24 1.415zm-1.548-.923c0 .58.564.988 1.056.988.004 0 .188 0 .328-.025a17.343 17.343 0 0 0-.252-1.455c-.316.032-.496.244-.496.476 0 .176.1.364.324.492.02.02.028.04.028.06 0 .044-.04.088-.088.088-.06 0-.504-.248-.504-.748 0-.352.232-.696.64-.788a15.048 15.048 0 0 0-.184-.7c-.428.484-.852.972-.852 1.612Zm.704-2.1c-.116-.384-.208-.68-.208-1.384 0-.46.22-.896.596-1.168a.06.06 0 0 1 .08 0c.272.32.532.98.532 1.432 0 .571-.344 1.02-.72 1.455.084.272.156.552.224.828.008 0 .028-.004.052-.004.62 0 1.024.512 1.024 1.044 0 .452-.296.848-.72.984.012.14.02.28.02.42 0 .076-.004.156-.008.232-.028.476-.352.9-.808.912l.004-.172c.372-.008.612-.368.636-.764a3.775 3.775 0 0 0-.008-.588c-.02.004-.176.032-.356.032-.772 0-1.332-.72-1.332-1.496 0-.708.524-1.224.992-1.764zm.712-1.452c0-.136.004-.264-.08-.516a1.153 1.153 0 0 0-.648 1.036c0 .208.048.46.144.776.32-.388.584-.792.584-1.296Zm1.787.187c0-.032.02-.06.053-.072l.184-.068v-.632c0-.04.032-.075.072-.075.04 0 .076.036.076.076v.58l.332-.124V5.09c0-.04.036-.076.076-.076s.072.036.072.076v.58l.128-.048c.008-.004.02-.004.028-.004a.08.08 0 0 1 .08.08v.24c0 .032-.02.064-.052.076l-.184.064v.64l.128-.044c.008-.004.02-.004.028-.004a.08.08 0 0 1 .08.08v.24c0 .032-.02.06-.052.072l-.184.068v.632c0 .04-.032.076-.072.076a.079.079 0 0 1-.076-.076v-.58l-.332.124v.632c0 .04-.036.076-.076.076s-.072-.036-.072-.076v-.58l-.128.048c-.008.004-.02.004-.028.004a.08.08 0 0 1-.08-.08v-.24c0-.032.02-.064.052-.076l.184-.064v-.64l-.128.044c-.008.004-.02.004-.028.004a.08.08 0 0 1-.08-.08v-.24zm.717.096-.332.12v.64l.332-.12zm2.518 2.381c-.352 0-.36-.264-.576-.264-.12 0-.236.08-.248.22-.004.028-.024.044-.044.044-.024 0-.048-.016-.048-.044 0-.616.928-.68.928-1.376 0-.236-.064-.488-.268-.488-.1 0-.196.056-.196.148 0 .108.14.164.14.272a.277.277 0 0 1-.552 0c0-.304.288-.512.608-.512.38 0 .732.228.732.58 0 .604-.6.636-.984.88a.497.497 0 0 1 .108-.012c.332 0 .444.236.684.236.192 0 .152-.152.22-.152.024 0 .048.02.048.048 0 .088-.176.42-.552.42zm-.2 1.548h.468c0 .192.108.376.288.376.032 0 .048.02.048.044 0 .024-.016.048-.048.048-.176 0-.348-.052-.524-.052-.176 0-.348.052-.524.052-.032 0-.048-.024-.048-.048s.016-.044.048-.044c.18 0 .292-.184.292-.376zm-.792-.124c0-.048.56-.572.56-1.344 0-.04.028-.076.064-.064a.988.988 0 0 0 .284.052.988.988 0 0 0 .284-.052c.056-.016.092.036.068.064l-1.136 1.32h.668V9.39c0-.136.136-.108.272-.288.088-.12.092-.224.144-.224.024 0 .052.02.052.056v.98h.288c.04 0 .06.028.06.056s-.02.06-.06.06h-.288v.032h-.468v-.032h-.668c-.092 0-.124-.056-.124-.092zm4.484 7.532c.264 0 .432.144.432.356 0 .356-.452.732-.872.732-.264 0-.432-.144-.432-.356 0-.357.452-.733.872-.733z"/>
        <text fill="currentColor" font-size="2.2" transform="translate(15.845 22.802)">➃</text>
        <path fill="currentColor" d="M8.719 17.014c0-.112.092-.204.204-.204.112 0 .204.092.204.204a.205.205 0 0 1-.204.204.205.205 0 0 1-.204-.204Zm0-1a.204.204 0 0 1 .408-.001.204.204 0 0 1-.408.001zm-1.3-.552c.688 0 1.172.352 1.172 1.004 0 1.052-1.052 1.656-2.064 2.084a.049.049 0 0 1-.036.016.053.053 0 0 1-.052-.052c0-.012.004-.024.016-.036.808-.473 1.648-1.06 1.648-1.973 0-.48-.252-.94-.684-.94-.296 0-.516.216-.616.504a.323.323 0 0 1 .136-.032c.22 0 .4.18.4.4 0 .232-.176.424-.4.424-.24 0-.448-.188-.448-.424 0-.532.408-.976.928-.976zm2.571.576c0-.032.02-.06.053-.072l.184-.068v-.632c0-.04.032-.076.072-.076.04 0 .076.036.076.076v.58l.332-.124v-.632c0-.04.036-.076.076-.076s.072.036.072.076v.58l.128-.048c.008-.004.02-.004.028-.004a.08.08 0 0 1 .08.08v.24c0 .032-.02.064-.052.076l-.184.064v.64l.128-.044c.008-.004.02-.004.028-.004a.08.08 0 0 1 .08.08v.24c0 .032-.02.06-.052.072l-.184.067v.632c0 .04-.032.077-.072.077a.079.079 0 0 1-.076-.076v-.58l-.332.124v.632c0 .04-.036.076-.076.076s-.072-.036-.072-.076v-.58l-.128.048c-.008.004-.02.004-.028.004a.08.08 0 0 1-.08-.08v-.24c0-.032.02-.064.052-.076l.184-.064v-.64l-.128.044c-.008.004-.02.004-.028.004a.08.08 0 0 1-.08-.08v-.24zm.717.096-.332.12v.64l.332-.12zm2.518 1.38c-.352 0-.36-.264-.576-.264-.12 0-.236.08-.248.22-.004.028-.024.044-.044.044-.024 0-.048-.016-.048-.044 0-.616.928-.68.928-1.376 0-.237-.064-.489-.268-.489-.1 0-.196.056-.196.148 0 .108.14.164.14.272a.277.277 0 0 1-.552 0c0-.304.288-.512.608-.512.38 0 .732.228.732.58 0 .604-.6.636-.984.88a.497.497 0 0 1 .108-.012c.332 0 .444.236.684.236.192 0 .152-.152.22-.152.024 0 .048.02.048.048 0 .088-.176.42-.552.42zm-.2 1.548h.468c0 .192.108.376.288.376.032 0 .048.02.048.044 0 .024-.016.048-.048.048-.176 0-.348-.052-.524-.052-.176 0-.348.052-.524.052-.032 0-.048-.024-.048-.048s.016-.044.048-.044c.18 0 .292-.184.292-.376zm-.792-.124c0-.048.56-.572.56-1.344 0-.04.028-.076.064-.064a.988.988 0 0 0 .284.052.988.988 0 0 0 .284-.052c.056-.016.092.036.068.064l-1.136 1.32h.668v-.524c0-.136.136-.108.272-.288.088-.12.092-.224.144-.224.024 0 .052.02.052.056v.98h.288c.04 0 .06.028.06.056s-.02.06-.06.06h-.288v.032h-.468v-.032h-.668c-.092 0-.124-.056-.124-.092z"/>
        <rect width=".13" height="4.814" x="-.065" y="-1.314" fill="currentColor" ry=".04" transform="translate(15.91 8.514)"/>
        <rect width=".13" height="2.304" x="-.065" y=".686" fill="currentColor" ry=".04" transform="translate(15.91 17.514)"/>
        <path fill="currentColor" d="M18.971 8.97c.264 0 .432.143.432.355 0 .357-.452.733-.872.733-.264 0-.432-.145-.432-.357 0-.356.452-.732.872-.732z"/>
        <rect width=".13" height="2.314" x="-.065" y="1.186" fill="currentColor" ry=".04" transform="translate(18.165 8.514)"/>
        <path fill="currentColor" stroke="currentColor" stroke-linecap="round" stroke-linejoin="round" stroke-width=".08" d="M77.076 5.503v.4l-5.058-.69v-.4zm0 .811v.4l-5.058-.69v-.4z"/>
        <path fill="currentColor" d="M21.726 7.47c.264 0 .432.144.432.356 0 .356-.452.732-.872.732-.264 0-.432-.145-.432-.357 0-.356.452-.732.872-.732z"/>
        <rect width=".13" height="3.814" x="-.065" y="-.314" fill="currentColor" ry=".04" transform="translate(20.919 8.514)"/>
        <path fill="currentColor" stroke="currentColor" stroke-linecap="round" stroke-linejoin="round" stroke-width=".08" d="M57.311 13.814v.4l-7.813 1.5v-.4z"/>
        <path fill="currentColor" d="M24.48 6.47c.264 0 .432.144.432.356 0 .356-.452.732-.872.732-.264 0-.432-.144-.432-.356 0-.356.452-.732.872-.732zm0 9c.264 0 .432.143.432.355 0 .357-.452.733-.872.733-.264 0-.432-.144-.432-.356 0-.357.452-.733.872-.733z"/>
        <rect width=".13" height="3.324" x="-.065" y="-1.314" fill="currentColor" ry=".04" transform="translate(23.673 8.514)"/>
        <rect width=".13" height="3.134" x="-.065" y="-1.314" fill="currentColor" ry=".04" transform="translate(23.673 17.514)"/>
        <path fill="currentColor" d="M26.984 6.97c.264 0 .432.144.432.356 0 .356-.452.732-.872.732-.264 0-.432-.145-.432-.357 0-.356.452-.732.872-.732z"/>
        <rect width=".13" height="3.219" x="-.065" y="-.814" fill="currentColor" ry=".04" transform="translate(26.177 8.514)"/>
        <path fill="currentColor" d="M29.488 7.47c.264 0 .432.144.432.356 0 .356-.452.732-.872.732-.264 0-.432-.145-.432-.357 0-.356.452-.732.872-.732z"/>
        <rect width=".13" height="3.114" x="-.065" y="-.314" fill="currentColor" ry=".04" transform="translate(28.681 8.514)"/>
        <path fill="currentColor" stroke="currentColor" stroke-linecap="round" stroke-linejoin="round" stroke-width=".08" d="M68.408 10.313v.4l-5.309.19v-.4zm0 .81v.4l-5.309.19v-.4z"/>
        <path fill="currentColor" d="M31.993 6.97c.264 0 .432.144.432.356 0 .356-.452.732-.872.732-.264 0-.432-.145-.432-.357 0-.356.452-.732.872-.732z"/>
        <text fill="currentColor" font-size="2.2" transform="translate(31.12 5.726)">➎</text>
        <path fill="currentColor" d="M31.993 17.97c.264 0 .432.144.432.356 0 .356-.452.732-.872.732-.264 0-.432-.144-.432-.356 0-.357.452-.733.872-.733z"/>
        <text fill="currentColor" font-size="2.2" transform="translate(31.12 23.302)">➂</text>
        <rect width=".13" height="2.614" x="-.065" y="-.814" fill="currentColor" ry=".04" transform="translate(31.186 8.514)"/>
        <rect width=".13" height="2.301" x="-.065" y="1.186" fill="currentColor" ry=".04" transform="translate(31.186 17.514)"/>
        <path fill="currentColor" d="M34.497 6.47c.264 0 .432.144.432.356 0 .356-.452.732-.872.732-.264 0-.432-.144-.432-.356 0-.356.452-.732.872-.732z"/>
        <rect width=".13" height="2.719" x="-.065" y="-1.314" fill="currentColor" ry=".04" transform="translate(33.69 8.514)"/>
        <path fill="currentColor" d="M37.001 5.97c.264 0 .432.144.432.356 0 .356-.452.732-.872.732-.264 0-.432-.144-.432-.356 0-.356.452-.732.872-.732z"/>
        <rect width=".13" height="2.824" x="-.065" y="-1.814" fill="currentColor" ry=".04" transform="translate(36.194 8.514)"/>
        <path fill="currentColor" stroke="currentColor" stroke-linecap="round" stroke-linejoin="round" stroke-width=".08" d="M60.645 9.504v.4l-4.558-1.19v-.4zm0 .809v.4l-4.558-1.19v-.4z"/>
        <path fill="currentColor" d="M39.505 5.47c.264 0 .432.144.432.356 0 .356-.452.732-.872.732-.264 0-.432-.144-.432-.356 0-.356.452-.732.872-.732zm0 10c.264 0 .432.143.432.355 0 .357-.452.733-.872.733-.264 0-.432-.144-.432-.356 0-.357.452-.733.872-.733z"/>
        <rect width=".13" height="2.808" x="-.065" y="-2.314" fill="currentColor" ry=".04" transform="translate(38.698 8.514)"/>
        <rect width=".13" height="3.327" x="-.065" y="-1.314" fill="currentColor" ry=".04" transform="translate(38.698 17.514)"/>
        <path fill="currentColor" d="M42.01 4.97c.263 0 .431.144.431.356 0 .356-.452.732-.872.732-.264 0-.432-.144-.432-.356 0-.356.452-.732.872-.732z"/>
        <rect width=".13" height="3.064" x="-.065" y="-2.814" fill="currentColor" ry=".04" transform="translate(41.202 8.514)"/>
        <path fill="currentColor" d="M44.514 4.47c.264 0 .432.144.432.356 0 .356-.452.732-.872.732-.264 0-.432-.144-.432-.356 0-.356.452-.732.872-.732z"/>
        <rect width=".13" height="3.32" x="-.065" y="-3.314" fill="currentColor" ry=".04" transform="translate(43.707 8.514)"/>
        <path fill="currentColor" stroke="currentColor" stroke-linecap="round" stroke-linejoin="round" stroke-width=".08" d="M53.383 10.314v.4h-5.059v-.4zm0 .809v.4h-5.059v-.4zm-14.66 8.191v.4l-7.562 1.5v-.4z"/>
        <path fill="currentColor" d="M46.928 7.124c.193 0 .328.112.328.278 0 .254-.3.5-.586.5-.193 0-.324-.111-.324-.277 0-.254.296-.5.582-.5z"/>
        <rect width=".16" height="13.1" y="-6.55" fill="currentColor" ry=".05" transform="translate(5.63 13.014)"/>
        <rect width=".13" height="2.486" x="-.065" y="-3.6" fill="currentColor" ry=".04" transform="translate(47.199 8.514)"/>
        <path fill="currentColor" d="M47.264 5.547v.597-.597c0 .32.237.563.408.826a.374.374 0 0 0 .017-.112c0-.263-.243-.526-.425-.714zm.322 1.78c0-.03.12-.206.12-.472s-.252-.527-.443-.712v.21h-.058v-1.4h.059c0 .496.562.812.562 1.308a.643.643 0 0 1-.064.269c.05.1.081.207.081.325 0 .176-.042.35-.115.51-.014.027-.039.036-.064.036-.04 0-.078-.028-.078-.073zM5.007 14.478c0-1.02-.528-1.452-.528-1.464 0-.072.528-.384.528-1.464 0-1.045-.432-1.957-.432-3.12 0-.756.18-1.464.708-2.004.06-.06.156.036.096.096-.396.396-.516.9-.516 1.44 0 1.02.408 1.92.408 3.06 0 .744-.18 1.452-.696 1.992.516.54.696 1.248.696 1.992 0 1.14-.408 2.04-.408 3.06 0 .54.12 1.044.516 1.44.06.06-.036.156-.096.096-.528-.54-.708-1.248-.708-2.004 0-1.164.432-2.076.432-3.12zM49.156 7.47c.264 0 .432.144.432.356 0 .356-.452.732-.872.732-.264 0-.432-.145-.432-.357 0-.356.452-.732.872-.732z"/>
        <text fill="currentColor" font-size="2.2" transform="translate(48.284 5.726)">➍</text>
        <path fill="currentColor" stroke="currentColor" stroke-linecap="round" stroke-linejoin="round" stroke-width=".08" d="M72.068 15.314v.4l-7.794-2v-.4z"/>
        <text fill="currentColor" font-size="2.2" transform="translate(48.284 21.612)">➁</text>
        <rect width=".13" height="3.124" x="-.065" y="-.314" fill="currentColor" ry=".04" transform="translate(48.35 8.514)"/>
        <rect width=".13" height="3.326" x="-.065" y="-2.012" fill="currentColor" ry=".04" transform="translate(49.523 17.514)"/>
        <path fill="currentColor" d="M51.66 7.97c.264 0 .432.144.432.356 0 .355-.452.731-.872.731-.264 0-.432-.144-.432-.356 0-.356.452-.732.872-.732z"/>
        <rect width=".13" height="2.624" x="-.065" y=".186" fill="currentColor" ry=".04" transform="translate(50.853 8.514)"/>
        <path fill="currentColor" d="M54.165 7.47c.264 0 .432.144.432.356 0 .356-.452.732-.872.732-.264 0-.432-.145-.432-.357 0-.356.452-.732.872-.732z"/>
        <rect width=".13" height="3.124" x="-.065" y="-.314" fill="currentColor" ry=".04" transform="translate(53.358 8.514)"/>
        <path fill="currentColor" stroke="currentColor" stroke-linecap="round" stroke-linejoin="round" stroke-width=".08" d="M43.732 7.503v.4l-5.059.5v-.4zm0 .811v.4l-5.059.5v-.4z"/>
        <path fill="currentColor" d="M56.919 4.97c.264 0 .432.144.432.356 0 .356-.452.732-.872.732-.264 0-.432-.144-.432-.356 0-.356.452-.732.872-.732zm0 11c.264 0 .432.143.432.355 0 .357-.452.733-.872.733-.264 0-.432-.144-.432-.356 0-.357.452-.733.872-.733z"/>
        <rect width=".13" height="3.641" x="-.065" y="-2.814" fill="currentColor" ry=".04" transform="translate(56.112 8.514)"/>
        <rect width=".13" height="2.301" x="-.065" y="-3.488" fill="currentColor" ry=".04" transform="translate(57.286 17.514)"/>
        <path fill="currentColor" stroke="currentColor" stroke-linecap="round" stroke-linejoin="round" stroke-width=".08" d="M23.698 19.123v.4l-7.813 1.19v-.4z"/>
        <path fill="currentColor" d="M59.173 5.97c.264 0 .432.144.432.356 0 .356-.452.732-.872.732-.264 0-.432-.144-.432-.356 0-.356.452-.732.872-.732z"/>
        <rect width=".13" height="3.219" x="-.065" y="-1.814" fill="currentColor" ry=".04" transform="translate(58.366 8.514)"/>
        <path fill="currentColor" d="M61.427 7.47c.264 0 .432.144.432.356 0 .356-.452.732-.872.732-.264 0-.432-.145-.432-.357 0-.356.452-.732.872-.732z"/>
        <rect width=".13" height="2.297" x="-.065" y="-.314" fill="currentColor" ry=".04" transform="translate(60.62 8.514)"/>
        <path fill="currentColor" d="M63.931 7.97c.265 0 .433.144.433.356 0 .355-.453.731-.873.731-.263 0-.431-.144-.431-.356 0-.356.451-.732.871-.732z"/>
        <text fill="currentColor" font-size="2.2" transform="translate(63.06 5.726)">➌</text>
        <path fill="currentColor" d="M63.931 15.47c.265 0 .433.143.433.355 0 .357-.453.733-.873.733-.263 0-.431-.144-.431-.356 0-.357.451-.733.871-.733z"/>
        <text fill="currentColor" font-size="2.2" transform="translate(63.06 21.612)">➀</text>
        <rect width=".13" height="2.812" x="-.065" y=".186" fill="currentColor" ry=".04" transform="translate(63.124 8.514)"/>
        <rect width=".13" height="2.297" x="-.065" y="-3.983" fill="currentColor" ry=".04" transform="translate(64.299 17.514)"/>
        <path fill="currentColor" stroke="currentColor" stroke-linecap="round" stroke-linejoin="round" stroke-width=".08" d="M36.219 8.504v.4l-5.058.81v-.4zm0 .809v.4l-5.058.81v-.4z"/>
        <path fill="currentColor" d="M66.686 6.97c.264 0 .432.144.432.356 0 .356-.452.732-.872.732-.264 0-.432-.145-.432-.357 0-.356.452-.732.872-.732z"/>
        <rect width=".13" height="3.715" x="-.065" y="-.814" fill="currentColor" ry=".04" transform="translate(65.879 8.514)"/>
        <path fill="currentColor" d="M69.19 7.47c.264 0 .432.144.432.356 0 .356-.452.732-.872.732-.264 0-.432-.145-.432-.357 0-.356.452-.732.872-.732z"/>
        <rect width=".13" height="3.126" x="-.065" y="-.314" fill="currentColor" ry=".04" transform="translate(68.383 8.514)"/>
        <path fill="currentColor" d="M71.676 7.97c.264 0 .432.144.432.356 0 .355-.452.731-.872.731-.264 0-.432-.144-.432-.356 0-.356.452-.732.872-.732zm0 11c.264 0 .432.144.432.356 0 .356-.452.732-.872.732-.264 0-.432-.144-.432-.356 0-.357.452-.733.872-.733z"/>
        <rect width=".13" height="3.305" x="-.065" y="-3.491" fill="currentColor" ry=".04" transform="translate(72.043 8.514)"/>
        <rect width=".13" height="3.83" x="-.065" y="-2.017" fill="currentColor" ry=".04" transform="translate(72.043 17.514)"/>
        <path fill="currentColor" stroke="currentColor" stroke-linecap="round" stroke-linejoin="round" stroke-width=".08" d="M28.706 10.313v.4l-5.058-.81v-.4zm0 .81v.4l-5.058-.81v-.4z"/>
        <path fill="currentColor" d="M74.18 8.47c.264 0 .432.143.432.355 0 .357-.452.733-.872.733-.264 0-.432-.145-.432-.357 0-.356.452-.732.872-.732z"/>
        <rect width=".13" height="3.469" x="-.065" y="-3.155" fill="currentColor" ry=".04" transform="translate(74.547 8.514)"/>
        <path fill="currentColor" d="M76.684 8.97c.264 0 .432.143.432.355 0 .357-.452.733-.872.733-.264 0-.432-.145-.432-.357 0-.356.452-.732.872-.732z"/>
        <rect width=".13" height="3.633" x="-.065" y="-2.819" fill="currentColor" ry=".04" transform="translate(77.052 8.514)"/>
        <path fill="currentColor" stroke="currentColor" stroke-linecap="round" stroke-linejoin="round" stroke-width=".08" d="M20.944 11.004v.4h-5.059v-.4zm0 .81v.4h-5.059v-.4z"/>
    </g>
    <text x="93.33" y="109.889" fill="currentColor" font-family="sans-serif" font-size="4">Var. 3</text>
    <g transform="translate(-40.504 -9.652)">
        <rect width="3.437" height=".351" x="275.285" y="129.331" fill="currentColor" ry=".176" style="stroke-width:1.75726"/>
        <rect width="3.437" height=".351" x="271.067" y="129.331" fill="currentColor" ry=".176" style="stroke-width:1.75726"/>
        <path stroke="currentColor" stroke-linecap="round" stroke-linejoin="round" stroke-width=".176" d="M217.216 138.293h154.193m-154.193-1.757h154.193m-154.193-1.758h154.193m-154.193-1.757h154.193m-154.193-1.757h154.193"/>
        <rect width=".334" height="8.698" x="371.163" y="138.379" fill="currentColor" ry="0" style="stroke-width:1.75726"/>
        <path stroke="currentColor" stroke-linecap="round" stroke-linejoin="round" stroke-width=".176" d="M217.216 154.106h154.193m-154.193-1.757h154.193m-154.193-1.757h154.193m-154.193-1.757h154.193m-154.193-1.758h154.193"/>
        <rect width=".334" height="7.117" x="371.163" y="146.989" fill="currentColor" ry="0" style="stroke-width:1.75726"/>
        <rect width=".334" height="7.117" x="371.163" y="131.264" fill="currentColor" ry="0" style="stroke-width:1.75726"/>
        <rect width=".334" height="8.698" x="298.56" y="138.379" fill="currentColor" ry="0" style="stroke-width:1.75726"/>
        <rect width=".334" height="7.117" x="298.56" y="146.989" fill="currentColor" ry="0" style="stroke-width:1.75726"/>
        <rect width=".334" height="7.117" x="298.56" y="131.264" fill="currentColor" ry="0" style="stroke-width:1.75726"/>
        <path fill="currentColor" d="M236.505 131.186c.464 0 .76.252.76.624 0 .626-.795 1.287-1.533 1.287-.464 0-.759-.253-.759-.626 0-.626.794-1.286 1.532-1.286z" style="stroke-width:1.75726"/>
        <text x="234.973" y="129.218" fill="currentColor" font-size="3.866" style="stroke-width:1.75726">➏</text>
        <path fill="currentColor" d="M220.405 140.999h-.044a1.376 1.376 0 0 1-1.37-1.385c0-.407.372-.724.787-.724.38 0 .668.329.668.723a.67.67 0 0 1-.668.667.573.573 0 0 1-.218-.04.987.987 0 0 0 .823.457h.028zm1.371-3.038a1.213 1.213 0 0 0 .794-1.153 1.343 1.343 0 0 0-1.216-1.336c.134.626.338 1.701.422 2.489zm-2.72-1.624c0 1.02.99 1.738 1.855 1.738.007 0 .33 0 .577-.044a30.476 30.476 0 0 0-.443-2.557c-.555.056-.872.429-.872.837 0 .309.176.64.57.864.035.035.049.07.049.106a.16.16 0 0 1-.155.154c-.105 0-.885-.436-.885-1.314 0-.619.407-1.223 1.124-1.385a26.443 26.443 0 0 0-.323-1.23c-.752.85-1.497 1.708-1.497 2.833zm1.237-3.69c-.204-.673-.366-1.195-.366-2.43 0-.809.387-1.575 1.048-2.053a.105.105 0 0 1 .14 0c.478.562.935 1.722.935 2.515 0 1.005-.604 1.792-1.265 2.558.148.478.274.97.394 1.455.014 0 .049-.007.09-.007 1.09 0 1.8.9 1.8 1.835 0 .794-.52 1.49-1.265 1.729.021.246.035.492.035.738 0 .134-.007.274-.014.408-.049.836-.618 1.581-1.42 1.602l.007-.302c.654-.014 1.076-.647 1.118-1.343a6.634 6.634 0 0 0-.014-1.033c-.035.007-.31.056-.626.056-1.356 0-2.34-1.265-2.34-2.628 0-1.245.92-2.151 1.743-3.1zm1.251-2.55c0-.239.007-.464-.14-.907a2.026 2.026 0 0 0-1.14 1.82c0 .364.085.81.254 1.363.562-.682 1.026-1.392 1.026-2.278zm3.14.33c0-.056.035-.105.093-.126l.324-.12v-1.11c0-.07.056-.134.126-.134s.134.063.134.134v1.019l.583-.218v-1.11a.14.14 0 0 1 .134-.134c.07 0 .126.063.126.133v1.02l.225-.085c.014-.007.035-.007.05-.007a.14.14 0 0 1 .14.14v.423a.144.144 0 0 1-.091.133l-.324.113v1.124l.225-.077c.014-.007.035-.007.05-.007a.14.14 0 0 1 .14.14v.422a.135.135 0 0 1-.091.127l-.324.12v1.11c0 .07-.056.133-.126.133a.138.138 0 0 1-.134-.133v-1.02l-.583.219v1.11a.14.14 0 0 1-.134.134c-.07 0-.126-.064-.126-.134v-1.02l-.225.085c-.014.007-.035.007-.05.007a.14.14 0 0 1-.14-.14v-.422c0-.056.035-.112.091-.134l.324-.114v-1.123l-.225.08a.207.207 0 0 1-.05.004.14.14 0 0 1-.14-.14v-.422zm1.26.169-.583.21v1.126l.583-.211zm4.425 4.182c-.619 0-.633-.465-1.012-.465-.211 0-.415.14-.436.386-.007.051-.042.08-.077.08-.042 0-.085-.029-.085-.078 0-1.082 1.631-1.195 1.631-2.418 0-.415-.112-.858-.47-.858-.177 0-.345.099-.345.26 0 .19.246.289.246.479a.487.487 0 0 1-.97 0c0-.535.506-.9 1.068-.9.668 0 1.286.4 1.286 1.019 0 1.061-1.054 1.118-1.729 1.546a.873.873 0 0 1 .19-.02c.583 0 .78.414 1.202.414.337 0 .267-.267.387-.267.042 0 .084.035.084.084 0 .155-.31.738-.97.738zm-.351 2.72h.822c0 .338.19.661.506.661.056 0 .084.035.084.078 0 .042-.028.084-.084.084-.31 0-.611-.091-.92-.091-.31 0-.612.091-.922.091-.056 0-.084-.042-.084-.084 0-.043.028-.078.084-.078.317 0 .514-.323.514-.66zm-1.392-.217c0-.085.984-1.006.984-2.362 0-.07.05-.134.112-.113.162.05.33.092.5.092.168 0 .337-.042.498-.092.099-.028.162.064.12.113l-1.996 2.32h1.174v-.921c0-.24.239-.19.478-.506.154-.211.161-.394.253-.394.042 0 .091.035.091.098v1.722h.506c.07 0 .105.05.105.099 0 .05-.035.105-.105.105h-.506v.056h-.822v-.056h-1.174c-.162 0-.218-.098-.218-.161zm7.88 13.235c.463 0 .758.252.758.624 0 .626-.794 1.286-1.532 1.286-.464 0-.759-.253-.759-.625 0-.626.794-1.286 1.532-1.286z" style="stroke-width:1.75726"/>
        <text x="234.973" y="159.886" fill="currentColor" font-size="3.866" style="stroke-width:1.75726">➃</text>
        <path fill="currentColor" d="M222.45 149.713a.36.36 0 0 1 .36-.358.36.36 0 0 1 .358.358.36.36 0 0 1-.359.359.36.36 0 0 1-.358-.359zm0-1.757a.36.36 0 0 1 .36-.359.36.36 0 0 1 .358.359.36.36 0 0 1-.359.358.36.36 0 0 1-.358-.358zm-2.284-.97c1.21 0 2.06.619 2.06 1.764 0 1.849-1.849 2.91-3.627 3.662a.086.086 0 0 1-.063.028.093.093 0 0 1-.092-.09c0-.022.007-.043.028-.064 1.42-.83 2.896-1.863 2.896-3.466 0-.843-.443-1.651-1.202-1.651-.52 0-.906.38-1.082.885a.568.568 0 0 1 .239-.056c.386 0 .703.316.703.703 0 .408-.31.745-.703.745-.422 0-.787-.33-.787-.745 0-.935.717-1.715 1.63-1.715zm4.518 1.012c0-.056.035-.105.093-.126l.324-.12v-1.11c0-.07.056-.134.126-.134s.134.063.134.134v1.019l.583-.218v-1.11c0-.071.064-.134.134-.134s.126.063.126.133v1.02l.225-.085c.014-.007.035-.007.05-.007a.14.14 0 0 1 .14.14v.422a.144.144 0 0 1-.091.134l-.324.112v1.125l.225-.077c.014-.007.035-.007.05-.007a.14.14 0 0 1 .14.14v.422a.135.135 0 0 1-.091.127l-.324.12v1.11c0 .07-.056.133-.126.133a.138.138 0 0 1-.134-.133v-1.02l-.583.218v1.111a.14.14 0 0 1-.134.134c-.07 0-.126-.064-.126-.134v-1.02l-.225.085c-.014.007-.035.007-.05.007a.14.14 0 0 1-.14-.14v-.422c0-.056.035-.113.091-.134l.324-.112v-1.123l-.225.077c-.014.007-.035.007-.05.007a.14.14 0 0 1-.14-.14V148Zm1.26.169-.583.21v1.125l.583-.21zm4.425 2.425c-.619 0-.633-.464-1.012-.464-.211 0-.415.14-.436.387-.007.049-.042.077-.077.077-.042 0-.085-.028-.085-.077 0-1.083 1.631-1.195 1.631-2.418 0-.415-.112-.858-.47-.858-.177 0-.345.098-.345.26 0 .19.246.288.246.478a.487.487 0 0 1-.97 0c0-.534.506-.9 1.068-.9.668 0 1.286.401 1.286 1.02 0 1.06-1.054 1.117-1.729 1.546a.873.873 0 0 1 .19-.021c.583 0 .78.415 1.202.415.337 0 .267-.268.387-.268.042 0 .084.036.084.085 0 .155-.31.738-.97.738zm-.351 2.722h.822c0 .337.19.66.506.66.056 0 .084.036.084.078s-.028.084-.084.084c-.31 0-.611-.091-.92-.091-.31 0-.612.091-.922.091-.056 0-.084-.042-.084-.084s.028-.077.084-.077c.317 0 .514-.324.514-.661zm-1.392-.218c0-.084.984-1.005.984-2.362 0-.07.05-.133.112-.112.162.049.33.091.5.091.168 0 .337-.042.498-.091.099-.028.162.063.12.112l-1.996 2.32h1.174v-.921c0-.239.239-.19.478-.506.154-.211.161-.394.253-.394.042 0 .091.035.091.099v1.722h.506c.07 0 .105.049.105.098 0 .05-.035.106-.105.106h-.506v.056h-.822v-.056h-1.174c-.162 0-.218-.099-.218-.162z" style="stroke-width:1.75726"/>
        <rect width=".228" height="5.47" x="234.973" y="132.469" fill="currentColor" ry=".07" style="stroke-width:1.75726"/>
        <rect width=".228" height="4.045" x="234.973" y="151.797" fill="currentColor" ry=".07" style="stroke-width:1.75726"/>
        <path fill="currentColor" d="M240.906 130.308c.463 0 .759.251.759.624 0 .625-.795 1.286-1.533 1.286-.464 0-.759-.253-.759-.626 0-.625.795-1.286 1.533-1.286z" style="stroke-width:1.75726"/>
        <rect width=".228" height="5.643" x="239.375" y="131.591" fill="currentColor" ry=".07" style="stroke-width:1.75726"/>
        <path fill="currentColor" stroke="currentColor" stroke-linecap="round" stroke-linejoin="round" stroke-width=".141" d="M368.063 143.211v.703l-11.52 3.515v-.703zm0 1.426v.702l-11.52 3.515v-.703z"/>
        <path fill="currentColor" d="M242.311 148.76c.464 0 .76.25.76.623 0 .625-.795 1.286-1.533 1.286-.464 0-.759-.253-.759-.625 0-.626.794-1.287 1.532-1.287z" style="stroke-width:1.75726"/>
        <rect width=".228" height="4.738" x="240.781" y="150.04" fill="currentColor" ry=".07" style="stroke-width:1.75726"/>
        <path fill="currentColor" d="M245.125 129.43c.464 0 .759.25.759.623 0 .626-.794 1.286-1.532 1.286-.464 0-.76-.253-.76-.625 0-.626.795-1.287 1.533-1.287z" style="stroke-width:1.75726"/>
        <rect width=".228" height="5.841" x="243.591" y="130.712" fill="currentColor" ry=".07" style="stroke-width:1.75726"/>
        <path fill="currentColor" d="M247.67 147.002c.463 0 .758.251.758.624 0 .625-.794 1.286-1.532 1.286-.464 0-.76-.253-.76-.626 0-.625.795-1.286 1.533-1.286z" style="stroke-width:1.75726"/>
        <rect width=".228" height="5.511" x="246.139" y="148.283" fill="currentColor" ry=".07" style="stroke-width:1.75726"/>
        <path fill="currentColor" stroke="currentColor" stroke-linecap="round" stroke-linejoin="round" stroke-width=".141" d="M351.796 143.211v.703l-11.252 3.515v-.703zm0 1.426v.702l-11.252 3.515v-.703z"/>
        <path fill="currentColor" d="M251.465 133.336c.557 0 .325.69.641.69.113 0 .38-.339.43-.444.041-.085.16-.085.196 0l-.865 2.952a.277.277 0 0 1-.19.07.295.295 0 0 1-.196-.07l.822-2.292a2.235 2.235 0 0 1-.738.155c-.33 0-.611-.239-.611-.555a.51.51 0 0 1 .513-.506zm1.042 17.18c.464 0 .76.252.76.624 0 .626-.795 1.286-1.533 1.286-.464 0-.76-.253-.76-.625 0-.626.795-1.286 1.533-1.286z" style="stroke-width:1.75726"/>
        <rect width=".228" height="4.045" x="250.975" y="151.797" fill="currentColor" ry=".07" style="stroke-width:1.75726"/>
        <path fill="currentColor" d="M258.222 148.76c.464 0 .759.25.759.623 0 .625-.795 1.286-1.533 1.286-.464 0-.759-.253-.759-.625 0-.626.795-1.287 1.533-1.287z" style="stroke-width:1.75726"/>
        <rect width=".228" height="4.778" x="256.689" y="150.04" fill="currentColor" ry=".07" style="stroke-width:1.75726"/>
        <path fill="currentColor" stroke="currentColor" stroke-linecap="round" stroke-linejoin="round" stroke-width=".141" d="M308.058 137.73v.703h-4.49v-.703zm4.217 1.424v.703h-8.707v-.703zm0 1.423v.703h-8.707v-.703z"/>
        <path fill="currentColor" d="M263.936 147.002c.464 0 .76.251.76.624 0 .625-.795 1.286-1.533 1.286-.464 0-.76-.253-.76-.626 0-.625.795-1.286 1.533-1.286z" style="stroke-width:1.75726"/>
        <rect width=".228" height="5.511" x="262.404" y="148.283" fill="currentColor" ry=".07" style="stroke-width:1.75726"/>
        <path fill="currentColor" d="M268.774 129.43c.464 0 .76.25.76.623 0 .626-.795 1.286-1.533 1.286-.464 0-.76-.253-.76-.625 0-.626.795-1.287 1.533-1.287zm0 21.965c.464 0 .76.251.76.624 0 .625-.795 1.286-1.533 1.286-.464 0-.76-.253-.76-.626 0-.625.795-1.286 1.533-1.286z" style="stroke-width:1.75726"/>
        <text x="267.242" y="161.977" fill="currentColor" font-size="3.866" style="stroke-width:1.75726">➂</text>
        <rect width=".228" height="5.818" x="267.242" y="130.712" fill="currentColor" ry=".07" style="stroke-width:1.75726"/>
        <rect width=".228" height="5.254" x="267.242" y="152.676" fill="currentColor" ry=".07" style="stroke-width:1.75726"/>
        <path fill="currentColor" d="M273.174 128.55c.464 0 .76.252.76.624 0 .626-.795 1.287-1.533 1.287-.464 0-.76-.253-.76-.626 0-.625.795-1.286 1.533-1.286z" style="stroke-width:1.75726"/>
        <rect width=".228" height="6.532" x="271.642" y="129.833" fill="currentColor" ry=".07" style="stroke-width:1.75726"/>
        <path fill="currentColor" stroke="currentColor" stroke-linecap="round" stroke-linejoin="round" stroke-width=".141" d="M333.151 144.09v.703l-11.519 2.636v-.703zm0 1.425v.703l-11.519 2.636v-.703z"/>
        <path fill="currentColor" d="M274.58 149.638c.464 0 .76.251.76.624 0 .625-.795 1.286-1.533 1.286-.464 0-.76-.253-.76-.626 0-.625.795-1.286 1.533-1.286z" style="stroke-width:1.75726"/>
        <rect width=".228" height="5.776" x="273.048" y="150.919" fill="currentColor" ry=".07" style="stroke-width:1.75726"/>
        <path fill="currentColor" d="M277.392 127.672c.463 0 .759.251.759.624 0 .625-.795 1.286-1.533 1.286-.464 0-.759-.253-.759-.626 0-.625.795-1.286 1.533-1.286z" style="stroke-width:1.75726"/>
        <rect width=".228" height="7.25" x="275.859" y="128.955" fill="currentColor" ry=".07" style="stroke-width:1.75726"/>
        <path fill="currentColor" d="M279.938 147.002c.464 0 .759.251.759.624 0 .625-.794 1.286-1.532 1.286-.464 0-.76-.253-.76-.626 0-.625.795-1.286 1.533-1.286z" style="stroke-width:1.75726"/>
        <rect width=".228" height="7.272" x="278.405" y="148.283" fill="currentColor" ry=".07" style="stroke-width:1.75726"/>
        <path fill="currentColor" stroke="currentColor" stroke-linecap="round" stroke-linejoin="round" stroke-width=".141" d="M316.884 144.09v.703l-11.251 2.636v-.703zm0 1.425v.703l-11.251 2.636v-.703z"/>
        <path fill="currentColor" d="M283.734 133.336c.555 0 .323.69.64.69.112 0 .379-.339.428-.444.042-.085.162-.085.197 0l-.865 2.952a.277.277 0 0 1-.19.07.295.295 0 0 1-.196-.07l.824-2.29a2.235 2.235 0 0 1-.738.155c-.33 0-.612-.24-.612-.556a.51.51 0 0 1 .513-.506zm1.04 18.059c.464 0 .759.251.759.624 0 .625-.794 1.286-1.532 1.286-.464 0-.76-.253-.76-.626 0-.625.795-1.286 1.533-1.286z" style="stroke-width:1.75726"/>
        <rect width=".228" height="5.254" x="283.241" y="152.676" fill="currentColor" ry=".07" style="stroke-width:1.75726"/>
        <path fill="currentColor" d="M290.488 149.638c.464 0 .76.251.76.624 0 .625-.795 1.286-1.533 1.286-.464 0-.759-.253-.759-.626 0-.625.794-1.286 1.532-1.286z" style="stroke-width:1.75726"/>
        <rect width=".228" height="5.824" x="288.956" y="150.919" fill="currentColor" ry=".07" style="stroke-width:1.75726"/>
        <path fill="currentColor" stroke="currentColor" stroke-linecap="round" stroke-linejoin="round" stroke-width=".141" d="M271.8 133.162v.703l-4.488.175v-.703zm4.217 1.263v.703l-8.705.334v-.703zm0 1.423v.703l-8.705.334v-.703z"/>
        <path fill="currentColor" d="M296.205 147.002c.464 0 .759.251.759.624 0 .625-.794 1.286-1.532 1.286-.464 0-.76-.253-.76-.626 0-.625.795-1.286 1.533-1.286z" style="stroke-width:1.75726"/>
        <rect width=".228" height="7.27" x="294.672" y="148.283" fill="currentColor" ry=".07" style="stroke-width:1.75726"/>
        <path fill="currentColor" d="M301.115 132.336c.34 0 .576.196.576.486 0 .449-.527.883-1.028.883-.34 0-.571-.197-.571-.487 0-.448.522-.882 1.023-.882z" style="stroke-width:1.75726"/>
        <rect width=".281" height="23.02" x="217.023" y="131.176" fill="currentColor" ry=".088" style="stroke-width:1.75726"/>
        <rect width=".228" height="4.369" x="301.477" y="128.452" fill="currentColor" ry=".07" style="stroke-width:1.75726"/>
        <path fill="currentColor" d="M301.705 129.564v1.05-1.05c0 .563.418.99.719 1.452a.657.657 0 0 0 .028-.197c0-.462-.427-.924-.747-1.255zm.566 3.128c0-.052.21-.362.21-.829 0-.467-.442-.926-.776-1.25v.37h-.104v-2.46h.104c0 .87.99 1.426.99 2.296a1.13 1.13 0 0 1-.115.473c.088.176.144.364.144.571 0 .31-.074.615-.202.896-.024.048-.07.063-.114.063-.069 0-.137-.049-.137-.128zm-86.343 12.567c0-1.793-.928-2.552-.928-2.573 0-.128.928-.677.928-2.574 0-1.835-.76-3.438-.76-5.483 0-1.329.317-2.573 1.245-3.522.105-.105.274.064.169.17-.696.695-.907 1.58-.907 2.53 0 1.792.717 3.373.717 5.377 0 1.307-.317 2.551-1.223 3.5.906.95 1.223 2.193 1.223 3.5 0 2.004-.717 3.585-.717 5.378 0 .949.21 1.834.907 2.53.105.106-.064.274-.17.169-.927-.949-1.243-2.193-1.243-3.522 0-2.045.759-3.648.759-5.482z" style="stroke-width:1.75726"/>
        <path fill="currentColor" stroke="currentColor" stroke-linecap="round" stroke-linejoin="round" stroke-width=".141" d="M294.83 153.757v.703l-11.518 2.425v-.703zm0 1.421v.703l-11.518 2.425v-.703z"/>
        <path fill="currentColor" d="M305.032 132.944c.463 0 .759.251.759.624 0 .625-.795 1.286-1.533 1.286-.464 0-.759-.253-.759-.626 0-.625.794-1.286 1.533-1.286z" style="stroke-width:1.75726"/>
        <text x="303.497" y="129.879" fill="currentColor" font-size="3.866" style="stroke-width:1.75726">➍</text>
        <path fill="currentColor" d="M305.032 152.274c.463 0 .759.25.759.623 0 .626-.795 1.287-1.533 1.287-.464 0-.759-.253-.759-.626 0-.625.794-1.286 1.533-1.286z" style="stroke-width:1.75726"/>
        <text x="303.497" y="157.795" fill="currentColor" font-size="3.866" style="stroke-width:1.75726">➁</text>
        <rect width=".228" height="6.702" x="303.499" y="134.226" fill="currentColor" ry=".07" style="stroke-width:1.75726"/>
        <path fill="currentColor" stroke="currentColor" stroke-linecap="round" stroke-linejoin="round" stroke-width=".141" d="M349.25 128.275v.703h-8.706v-.703zm0 1.423v.703h-8.706v-.703zm-4.218 1.423v.703h-4.488v-.703z"/>
        <rect width=".228" height="5.85" x="305.562" y="147.051" fill="currentColor" ry=".07" style="stroke-width:1.75726"/>
        <path fill="currentColor" d="M309.432 133.822c.464 0 .759.252.759.624 0 .626-.794 1.286-1.532 1.286-.464 0-.76-.253-.76-.625 0-.626.795-1.286 1.533-1.286z" style="stroke-width:1.75726"/>
        <rect width=".228" height="5.824" x="307.899" y="135.105" fill="currentColor" ry=".07" style="stroke-width:1.75726"/>
        <path fill="currentColor" d="M310.838 150.516c.463 0 .759.252.759.624 0 .626-.795 1.286-1.533 1.286-.464 0-.759-.253-.759-.625 0-.626.794-1.286 1.533-1.286z" style="stroke-width:1.75726"/>
        <rect width=".228" height="5.435" x="311.368" y="145.707" fill="currentColor" ry=".07" style="stroke-width:1.75726"/>
        <path fill="currentColor" stroke="currentColor" stroke-linecap="round" stroke-linejoin="round" stroke-width=".141" d="M278.562 153.757v.703l-11.25 2.425v-.703zm0 1.421v.703l-11.25 2.425v-.703z"/>
        <path fill="currentColor" d="M313.65 132.944c.463 0 .758.251.758.624 0 .625-.794 1.286-1.532 1.286-.464 0-.76-.253-.76-.626 0-.625.795-1.286 1.533-1.286z" style="stroke-width:1.75726"/>
        <rect width=".228" height="6.702" x="312.117" y="134.226" fill="currentColor" ry=".07" style="stroke-width:1.75726"/>
        <path fill="currentColor" stroke="currentColor" stroke-linecap="round" stroke-linejoin="round" stroke-width=".141" d="M239.533 134.016v.703l-4.49.743v-.703zm4.218.745v.703l-8.708 1.423v-.703zm0 1.423v.703l-8.708 1.423v-.703z"/>
        <path fill="currentColor" d="M316.195 147.88c.464 0 .76.252.76.624 0 .626-.795 1.287-1.533 1.287-.464 0-.759-.253-.759-.626 0-.626.794-1.286 1.532-1.286z" style="stroke-width:1.75726"/>
        <rect width=".228" height="4.04" x="316.726" y="144.468" fill="currentColor" ry=".07" style="stroke-width:1.75726"/>
        <path fill="currentColor" d="M319.991 133.336c.555 0 .323.69.64.69.112 0 .38-.339.428-.444.043-.085.162-.085.197 0l-.864 2.952a.277.277 0 0 1-.19.07.295.295 0 0 1-.197-.07l.823-2.292a2.235 2.235 0 0 1-.739.155c-.33 0-.611-.239-.611-.555a.51.51 0 0 1 .513-.506zm1.04 18.938c.464 0 .76.25.76.623 0 .626-.795 1.287-1.533 1.287-.464 0-.759-.253-.759-.626 0-.625.794-1.286 1.532-1.286z" style="stroke-width:1.75726"/>
        <rect width=".228" height="5.85" x="321.562" y="147.051" fill="currentColor" ry=".07" style="stroke-width:1.75726"/>
        <path fill="currentColor" d="M326.746 150.516c.464 0 .76.252.76.624 0 .626-.795 1.286-1.533 1.286-.464 0-.76-.253-.76-.625 0-.626.795-1.286 1.533-1.286z" style="stroke-width:1.75726"/>
        <rect width=".228" height="5.384" x="327.278" y="145.759" fill="currentColor" ry=".07" style="stroke-width:1.75726"/>
        <path fill="currentColor" stroke="currentColor" stroke-linecap="round" stroke-linejoin="round" stroke-width=".141" d="M262.562 151.998v.703l-11.517 2.09v-.702zm0 1.423v.703l-11.517 2.091v-.703z"/>
        <path fill="currentColor" d="M332.462 147.88c.464 0 .76.252.76.624 0 .626-.795 1.287-1.533 1.287-.464 0-.759-.253-.759-.626 0-.626.794-1.286 1.532-1.286z" style="stroke-width:1.75726"/>
        <rect width=".228" height="4.04" x="332.993" y="144.468" fill="currentColor" ry=".07" style="stroke-width:1.75726"/>
        <path fill="currentColor" d="M336.028 133.214c.339 0 .574.197.574.487 0 .448-.527.882-1.028.882-.339 0-.57-.197-.57-.487 0-.448.521-.882 1.024-.882z" style="stroke-width:1.75726"/>
        <rect width=".228" height="4.369" x="336.388" y="129.331" fill="currentColor" ry=".07" style="stroke-width:1.75726"/>
        <path fill="currentColor" d="M336.617 130.443v1.05-1.05c0 .562.418.99.718 1.452a.657.657 0 0 0 .028-.197c0-.462-.427-.925-.746-1.255zm.565 3.128c0-.053.211-.362.211-.83 0-.467-.443-.925-.776-1.249v.37h-.104v-2.46h.104c0 .869.989 1.426.989 2.296a1.13 1.13 0 0 1-.114.473c.088.175.142.363.142.57 0 .31-.074.616-.2.897-.025.047-.07.063-.115.063-.068 0-.137-.05-.137-.128zm2.761.251c.464 0 .76.252.76.624 0 .626-.795 1.286-1.533 1.286-.464 0-.76-.253-.76-.625 0-.626.795-1.286 1.533-1.286z" style="stroke-width:1.75726"/>
        <text x="338.411" y="126.909" fill="currentColor" font-size="3.866" style="stroke-width:1.75726">➌</text>
        <path fill="currentColor" d="M339.943 153.152c.464 0 .76.251.76.624 0 .626-.795 1.286-1.533 1.286-.464 0-.76-.253-.76-.625 0-.626.795-1.287 1.533-1.287z" style="stroke-width:1.75726"/>
        <text x="338.411" y="158.665" fill="currentColor" font-size="3.866" style="stroke-width:1.75726">➀</text>
        <rect width=".228" height="5.824" x="340.474" y="128.628" fill="currentColor" ry=".07" style="stroke-width:1.75726"/>
        <rect width=".228" height="6.737" x="340.474" y="147.042" fill="currentColor" ry=".07" style="stroke-width:1.75726"/>
        <path fill="currentColor" stroke="currentColor" stroke-linecap="round" stroke-linejoin="round" stroke-width=".141" d="M246.295 151.998v.703l-11.252 2.09v-.702zm0 1.423v.703l-11.252 2.091v-.703z"/>
        <path fill="currentColor" d="M344.343 134.701c.464 0 .76.251.76.624 0 .625-.795 1.286-1.533 1.286-.464 0-.76-.253-.76-.625 0-.626.795-1.287 1.533-1.287z" style="stroke-width:1.75726"/>
        <rect width=".228" height="6.702" x="344.874" y="128.628" fill="currentColor" ry=".07" style="stroke-width:1.75726"/>
        <path fill="currentColor" d="M345.749 149.638c.464 0 .76.251.76.624 0 .625-.795 1.286-1.533 1.286-.464 0-.76-.253-.76-.626 0-.625.795-1.286 1.533-1.286z" style="stroke-width:1.75726"/>
        <rect width=".228" height="5.013" x="346.28" y="145.252" fill="currentColor" ry=".07" style="stroke-width:1.75726"/>
        <path fill="currentColor" d="M348.56 133.822c.465 0 .76.252.76.624 0 .626-.795 1.286-1.533 1.286-.463 0-.759-.253-.759-.625 0-.626.795-1.286 1.533-1.286z" style="stroke-width:1.75726"/>
        <rect width=".228" height="5.824" x="349.091" y="128.628" fill="currentColor" ry=".07" style="stroke-width:1.75726"/>
        <path fill="currentColor" d="M351.107 147.002c.464 0 .759.251.759.624 0 .625-.794 1.286-1.532 1.286-.464 0-.76-.253-.76-.626 0-.625.795-1.286 1.533-1.286z" style="stroke-width:1.75726"/>
        <rect width=".228" height="4.031" x="351.638" y="143.598" fill="currentColor" ry=".07" style="stroke-width:1.75726"/>
        <path fill="currentColor" d="M354.903 133.336c.555 0 .323.69.64.69.112 0 .379-.339.428-.444.042-.085.162-.085.197 0l-.865 2.952a.277.277 0 0 1-.19.07.295.295 0 0 1-.196-.07l.824-2.29a2.235 2.235 0 0 1-.738.155c-.33 0-.612-.24-.612-.556a.51.51 0 0 1 .513-.506zm1.04 19.816c.464 0 .759.251.759.624 0 .626-.794 1.286-1.532 1.286-.464 0-.76-.253-.76-.625 0-.626.795-1.287 1.533-1.287z" style="stroke-width:1.75726"/>
        <rect width=".228" height="6.736" x="356.474" y="147.042" fill="currentColor" ry=".07" style="stroke-width:1.75726"/>
        <path fill="currentColor" d="M361.658 149.638c.463 0 .759.251.759.624 0 .625-.795 1.286-1.533 1.286-.464 0-.759-.253-.759-.626 0-.625.794-1.286 1.533-1.286z" style="stroke-width:1.75726"/>
        <rect width=".228" height="4.945" x="362.19" y="145.32" fill="currentColor" ry=".07" style="stroke-width:1.75726"/>
        <path fill="currentColor" d="M367.374 147.002c.464 0 .759.251.759.624 0 .625-.794 1.286-1.532 1.286-.464 0-.76-.253-.76-.626 0-.625.795-1.286 1.533-1.286z" style="stroke-width:1.75726"/>
        <rect width=".228" height="4.031" x="367.905" y="143.598" fill="currentColor" ry=".07" style="stroke-width:1.75726"/>
    </g>
    <text x="246.741" y="109.889" fill="currentColor" font-family="sans-serif" font-size="4">Var. 4</text>
</svg>
