<svg xmlns="http://www.w3.org/2000/svg" xmlns:xlink="http://www.w3.org/1999/xlink" width="722.343" height="56.83mm" version="1.2" viewBox="0 0 108.759 32.337">
    <defs>
        <path id="reuse-0" fill="currentColor" d="M0 119c0 8 5 15 13 18l46 17v158c0 10 8 19 18 19s19-9 19-19V167l83 31v158c0 10 9 19 19 19s18-9 18-19V211l32 12c2 1 5 1 7 1 11 0 20-9 20-20v-60c0-8-5-16-13-19l-46-16V-51l32 11c2 1 5 1 7 1 11 0 20-9 20-20v-60c0-8-5-15-13-18l-46-17v-158c0-10-8-19-18-19s-19 9-19 19v145l-83-31v-158c0-10-9-19-19-19s-18 9-18 19v145l-32-12c-2-1-5-1-7-1-11 0-20 9-20 20v60c0 8 5 16 13 19l46 16V51L27 40c-2-1-5-1-7-1C9 39 0 48 0 59v60zm179-24L96 65V-95l83 30V95z"/>
        <path id="reuse-1" fill="currentColor" d="M229 0c-88 0-90 66-144 66-30 0-59-20-62-55-1-7-6-11-11-11C6 0 0 4 0 11c0 154 232 170 232 344 0 59-16 122-67 122-25 0-49-14-49-37 0-27 35-41 35-68 0-38-31-69-69-69s-69 31-69 69c0 76 72 128 152 128 95 0 183-57 183-145 0-151-150-159-246-220 9 2 18 3 27 3 83 0 111-59 171-59 48 0 38 38 55 38 6 0 12-5 12-12C367 83 323 0 229 0z"/>
        <path id="reuse-2" fill="currentColor" d="M196 117h117c0-48 27-94 72-94 8 0 12-5 12-11s-4-12-12-12c-44 0-87 13-131 13S167 0 123 0c-8 0-12 6-12 12s4 11 12 11c45 0 73 46 73 94zM-2 148c0 12 140 143 140 336 0 10 7 19 16 16 23-7 47-13 71-13s48 6 71 13c14 4 23-9 17-16L29 154h167v131c0 34 34 27 68 72 22 30 23 56 36 56 6 0 13-5 13-14V154h72c10 0 15-7 15-14s-5-15-15-15h-72v-8H196v8H29c-23 0-31 14-31 23z"/>
        <path id="reuse-3" fill="currentColor" d="M125 205c79 0 45-98 90-98 15 0 50 49 57 63 6 12 23 12 28 0L121-500c-8-7-17-10-27-10s-20 3-28 10l101 327c-34-12-70-23-106-23-47 0-87 34-87 79 0 40 32 72 72 72 79 0 46-98 91-98 16 0 55 51 60 68l46 151c-34-12-68-22-104-22-47 0-87 34-87 79 0 40 33 72 73 72z"/>
        <path id="reuse-4" fill="currentColor" d="M0 0v-250h-16V0H0zm0 0c0-197 207-336 207-533 0-71-15-141-41-207-5-8-13-12-20-12-13 0-26 11-23 27 26 61 42 126 42 192 0 103-94 208-165 283V0z"/>
        <path id="reuse-5" fill="currentColor" d="M218 136c66 0 108-36 108-89 0-89-113-183-218-183C42-136 0-100 0-47c0 89 113 183 218 183z"/>
        <path id="reuse-6" fill="currentColor" d="M70 205c79 0 46-98 91-98 16 0 54 48 61 63 6 12 23 12 28 0L127-250c-8-7-17-10-27-10s-20 3-28 10L189 76c-34-12-69-22-105-22-47 0-87 34-87 79 0 40 33 72 73 72z"/>
    </defs>
    <style>
        tspan{white-space:pre}
    </style>
    <rect width="1.956" height=".2" x="85.25" y="-.1" fill="currentColor" ry=".1" transform="translate(5.69 17.411)"/>
    <rect width="1.956" height=".2" x="74.838" y="-.1" fill="currentColor" ry=".1" transform="translate(5.69 17.411)"/>
    <path stroke="currentColor" stroke-linecap="round" stroke-linejoin="round" stroke-width=".1" d="M5.74 16.411h96.106m-96.106-1h96.106m-96.106-1h96.106m-96.106-1h96.106m-96.106-1h96.106"/>
    <rect width=".19" height="4.95" y="12.616" fill="currentColor" ry="0" transform="translate(101.706 3.845)"/>
    <rect width="1.956" height=".2" x="39.402" y="-.1" fill="currentColor" ry=".1" transform="translate(5.69 20.411)"/>
    <rect width="1.956" height=".2" x="28.15" y="-.1" fill="currentColor" ry=".1" transform="translate(5.69 20.411)"/>
    <rect width="1.956" height=".2" x="17.737" y="-.1" fill="currentColor" ry=".1" transform="translate(5.69 20.411)"/>
    <path stroke="currentColor" stroke-linecap="round" stroke-linejoin="round" stroke-width=".1" d="M5.74 25.411h96.106m-96.106-1h96.106m-96.106-1h96.106m-96.106-1h96.106m-96.106-1h96.106"/>
    <rect width=".19" height="4.05" y="-2.05" fill="currentColor" ry="0" transform="translate(101.706 23.411)"/>
    <rect width=".19" height="4.05" y="-2" fill="currentColor" ry="0" transform="translate(101.706 14.411)"/>
    <rect width=".19" height="4.95" y="12.616" fill="currentColor" ry="0" transform="translate(79.764 3.845)"/>
    <rect width=".19" height="4.05" y="-2.05" fill="currentColor" ry="0" transform="translate(79.764 23.411)"/>
    <rect width=".19" height="4.05" y="-2" fill="currentColor" ry="0" transform="translate(79.764 14.411)"/>
    <rect width=".19" height="4.95" y="12.616" fill="currentColor" ry="0" transform="translate(58.086 3.845)"/>
    <rect width=".19" height="4.05" y="-2.05" fill="currentColor" ry="0" transform="translate(58.086 23.411)"/>
    <rect width=".19" height="4.05" y="-2" fill="currentColor" ry="0" transform="translate(58.086 14.411)"/>
    <rect width=".19" height="4.95" y="12.616" fill="currentColor" ry="0" transform="translate(36.42 3.845)"/>
    <rect width=".19" height="4.05" y="-2.05" fill="currentColor" ry="0" transform="translate(36.42 23.411)"/>
    <rect width=".19" height="4.05" y="-2" fill="currentColor" ry="0" transform="translate(36.42 14.411)"/>
    <path fill="currentColor" d="M7.555 17.951H7.53a.783.783 0 0 1-.78-.788c0-.232.212-.412.448-.412.216 0 .38.188.38.412 0 .208-.172.38-.38.38a.326.326 0 0 1-.124-.024c.104.156.272.26.468.26h.016zm.78-1.728a.69.69 0 0 0 .452-.656.764.764 0 0 0-.692-.76c.076.356.192.968.24 1.416zM6.787 15.3c0 .58.564.988 1.056.988.004 0 .188 0 .328-.024a17.343 17.343 0 0 0-.252-1.456c-.316.032-.496.244-.496.476 0 .176.1.364.324.492.02.02.028.04.028.06 0 .044-.04.088-.088.088-.06 0-.504-.248-.504-.748 0-.352.232-.696.64-.788a15.048 15.048 0 0 0-.184-.7c-.428.484-.852.972-.852 1.612zm.704-2.1c-.116-.384-.208-.68-.208-1.384 0-.46.22-.896.596-1.168a.06.06 0 0 1 .08 0c.272.32.532.98.532 1.432 0 .572-.344 1.02-.72 1.456.084.272.156.552.224.828.008 0 .028-.004.052-.004.62 0 1.024.512 1.024 1.044 0 .452-.296.848-.72.984.012.14.02.28.02.42 0 .076-.004.156-.008.232-.028.476-.352.9-.808.912l.004-.172c.372-.008.612-.368.636-.764a3.775 3.775 0 0 0-.008-.588c-.02.004-.176.032-.356.032-.772 0-1.332-.72-1.332-1.496 0-.708.524-1.224.992-1.764zm.712-1.452c0-.136.004-.264-.08-.516a1.153 1.153 0 0 0-.648 1.036c0 .208.048.46.144.776.32-.388.584-.792.584-1.296z"/>
    <use xlink:href="#reuse-0" transform="matrix(.004 0 0 -.004 9.99 12.411)"/>
    <use xlink:href="#reuse-1" transform="matrix(.004 0 0 -.004 12.309 14.411)"/>
    <use xlink:href="#reuse-2" transform="matrix(.004 0 0 -.004 12.24 16.427)"/>
    <use xlink:href="#reuse-3" transform="matrix(.004 0 0 -.004 15.845 23.411)"/>
    <path fill="currentColor" d="M8.719 22.911c0-.112.092-.204.204-.204s.204.092.204.204-.092.204-.204.204-.204-.092-.204-.204zm0-1c0-.112.092-.204.204-.204s.204.092.204.204-.092.204-.204.204-.204-.092-.204-.204zm-1.3-.552c.688 0 1.172.352 1.172 1.004 0 1.052-1.052 1.656-2.064 2.084a.049.049 0 0 1-.036.016.053.053 0 0 1-.052-.052c0-.012.004-.024.016-.036.808-.472 1.648-1.06 1.648-1.972 0-.48-.252-.94-.684-.94-.296 0-.516.216-.616.504a.323.323 0 0 1 .136-.032c.22 0 .4.18.4.4 0 .232-.176.424-.4.424-.24 0-.448-.188-.448-.424 0-.532.408-.976.928-.976z"/>
    <use xlink:href="#reuse-0" transform="matrix(.004 0 0 -.004 9.99 22.411)"/>
    <use xlink:href="#reuse-1" transform="matrix(.004 0 0 -.004 12.309 23.411)"/>
    <use xlink:href="#reuse-2" transform="matrix(.004 0 0 -.004 12.24 25.427)"/>
    <rect width=".13" height="5.689" x="-.065" y="-3.375" fill="currentColor" ry=".04" transform="translate(17.084 14.411)"/>
    <use xlink:href="#reuse-4" transform="matrix(.004 0 0 -.004 17.15 11.076)"/>
    <path fill="currentColor" stroke="currentColor" stroke-linecap="round" stroke-linejoin="round" stroke-width=".08" d="M100.44 19.211v.4l-5.559 2v-.4zm0 .81v.4l-5.559 2v-.4z"/>
    <use xlink:href="#reuse-5" transform="matrix(.004 0 0 -.004 18.245 21.911)"/>
    <text fill="currentColor" class="scale-degree" font-family="serif" font-size="2.2" transform="translate(18.245 27.51)">
<tspan>➀</tspan>
</text>
    <rect width=".13" height="3.112" x="-.065" y="-1.314" fill="currentColor" ry=".04" transform="translate(18.31 23.411)"/>
    <path fill="currentColor" stroke="currentColor" stroke-linecap="round" stroke-linejoin="round" stroke-width=".08" d="M90.027 19.711v.4l-5.558 1.5v-.4zm0 .81v.4l-5.558 1.5v-.4z"/>
    <use xlink:href="#reuse-6" transform="matrix(.004 0 0 -.004 21 14.411)"/>
    <use xlink:href="#reuse-5" transform="matrix(.004 0 0 -.004 21 20.911)"/>
    <rect width=".13" height="3.624" x="-.065" y="-2.314" fill="currentColor" ry=".04" transform="translate(21.064 23.411)"/>
    <path fill="currentColor" stroke="currentColor" stroke-linecap="round" stroke-linejoin="round" stroke-width=".08" d="M77.587 25.211v.4l-5.558 1.38v-.4zm0 .81v.4l-5.558 1.38v-.4z"/>
    <use xlink:href="#reuse-5" transform="matrix(.004 0 0 -.004 23.754 19.911)"/>
    <rect width=".13" height="4.135" x="-.065" y="-3.314" fill="currentColor" ry=".04" transform="translate(23.819 23.411)"/>
    <path fill="currentColor" stroke="currentColor" stroke-linecap="round" stroke-linejoin="round" stroke-width=".08" d="M67.174 24.211v.4l-5.558 1.19v-.4zm0 .81v.4l-5.558 1.19v-.4z"/>
    <use xlink:href="#reuse-5" transform="matrix(.004 0 0 -.004 26.258 14.911)"/>
    <use xlink:href="#reuse-5" transform="matrix(.004 0 0 -.004 26.258 16.911)"/>
    <text fill="currentColor" class="scale-degree" font-family="serif" font-size="2.2" transform="translate(26.258 10.674)">
<tspan>➋</tspan>
</text>
    <use xlink:href="#reuse-3" transform="matrix(.004 0 0 -.004 26.258 23.411)"/>
    <rect width=".13" height="5.314" x="-.065" y="-3" fill="currentColor" ry=".04" transform="translate(27.497 14.411)"/>
    <use xlink:href="#reuse-4" transform="matrix(.004 0 0 -.004 27.562 11.451)"/>
    <path fill="currentColor" stroke="currentColor" stroke-linecap="round" stroke-linejoin="round" stroke-width=".08" d="M55.922 24.401v.4l-5.559 1.5v-.4zm0 .81v.4l-5.559 1.5v-.4z"/>
    <use xlink:href="#reuse-5" transform="matrix(.004 0 0 -.004 28.658 22.411)"/>
    <text fill="currentColor" class="scale-degree" font-family="serif" font-size="2.2" transform="translate(28.658 27.7)">
<tspan>➆</tspan>
</text>
    <rect width=".13" height="2.8" x="-.065" y="-.814" fill="currentColor" ry=".04" transform="translate(28.723 23.411)"/>
    <text fill="currentColor" class="schema" font-family="serif" font-size="1.96" transform="translate(75.413 5.206)">
<tspan>Prinner</tspan>
</text>
    <use xlink:href="#reuse-6" transform="matrix(.004 0 0 -.004 31.412 14.411)"/>
    <use xlink:href="#reuse-5" transform="matrix(.004 0 0 -.004 31.412 21.411)"/>
    <rect width=".13" height="3.219" x="-.065" y="-1.814" fill="currentColor" ry=".04" transform="translate(31.477 23.411)"/>
    <path stroke="currentColor" stroke-linecap="round" stroke-linejoin="round" stroke-width=".1" d="m96.92 5.783.5 1m-37.744-1-.5 1m.5-1H96.92" class="schema"/>
    <use xlink:href="#reuse-5" transform="matrix(.004 0 0 -.004 34.166 19.911)"/>
    <rect width=".13" height="4.138" x="-.065" y="-3.314" fill="currentColor" ry=".04" transform="translate(34.231 23.411)"/>
    <path fill="currentColor" stroke="currentColor" stroke-linecap="round" stroke-linejoin="round" stroke-width=".08" d="M45.509 23.211v.4l-5.558 1.19v-.4zm0 .81v.4l-5.558 1.19v-.4zm-11.253-.81v.4l-5.558 1.19v-.4zm0 .81v.4l-5.558 1.19v-.4z"/>
    <use xlink:href="#reuse-5" transform="matrix(.004 0 0 -.004 37.51 13.911)"/>
    <use xlink:href="#reuse-5" transform="matrix(.004 0 0 -.004 37.51 15.411)"/>
    <text fill="currentColor" class="scale-degree" font-family="serif" font-size="2.2" transform="translate(37.51 9.924)">
<tspan>➍</tspan>
</text>
    <text fill="currentColor" class="scale-degree" font-family="serif" font-size="2.2" transform="translate(15.845 10.299)">
<tspan>➌</tspan>
</text>
    <use xlink:href="#reuse-3" transform="matrix(.004 0 0 -.004 37.51 23.411)"/>
    <use xlink:href="#reuse-5" transform="matrix(.004 0 0 -.004 15.845 16.911)"/>
    <rect width=".13" height="4.564" x="-.065" y="-3.75" fill="currentColor" ry=".04" transform="translate(38.75 14.411)"/>
    <use xlink:href="#reuse-4" transform="matrix(.004 0 0 -.004 38.815 10.701)"/>
    <use xlink:href="#reuse-5" transform="matrix(.004 0 0 -.004 15.845 14.411)"/>
    <path fill="currentColor" stroke="currentColor" stroke-linecap="round" stroke-linejoin="round" stroke-width=".08" d="M23.844 23.211v.4l-5.559 1v-.4zm0 .81v.4l-5.559 1v-.4z"/>
    <use xlink:href="#reuse-5" transform="matrix(.004 0 0 -.004 39.91 22.911)"/>
    <text fill="currentColor" class="scale-degree" font-family="serif" font-size="2.2" transform="translate(39.91 27.7)">
<tspan>➅</tspan>
</text>
    <rect width=".13" height="2.3" x="-.065" y="-.314" fill="currentColor" ry=".04" transform="translate(39.976 23.411)"/>
    <text fill="currentColor" class="schema" font-family="serif" font-size="1.96" transform="translate(30.471 5.956)">
<tspan>Romanesca</tspan>
</text>
    <use xlink:href="#reuse-6" transform="matrix(.004 0 0 -.004 42.665 14.411)"/>
    <use xlink:href="#reuse-5" transform="matrix(.004 0 0 -.004 42.665 21.911)"/>
    <rect width=".13" height="2.719" x="-.065" y="-1.314" fill="currentColor" ry=".04" transform="translate(42.73 23.411)"/>
    <path stroke="currentColor" stroke-linecap="round" stroke-linejoin="round" stroke-width=".1" d="m53.577 6.533.5 1m-37.732-1-.5 1m.5-1h37.232" class="schema"/>
    <use xlink:href="#reuse-5" transform="matrix(.004 0 0 -.004 45.419 20.411)"/>
    <rect width=".13" height="3.638" x="-.065" y="-2.814" fill="currentColor" ry=".04" transform="translate(45.484 23.411)"/>
    <use xlink:href="#reuse-5" transform="matrix(.004 0 0 -.004 47.923 14.411)"/>
    <use xlink:href="#reuse-5" transform="matrix(.004 0 0 -.004 47.923 15.411)"/>
    <text fill="currentColor" class="scale-degree" font-family="serif" font-size="2.2" transform="translate(47.923 10.299)">
<tspan>➌</tspan>
</text>
    <use xlink:href="#reuse-3" transform="matrix(.004 0 0 -.004 47.923 23.411)"/>
    <rect width=".13" height="4.189" x="-.065" y="-3.375" fill="currentColor" ry=".04" transform="translate(49.162 14.411)"/>
    <use xlink:href="#reuse-4" transform="matrix(.004 0 0 -.004 49.227 11.076)"/>
    <use xlink:href="#reuse-5" transform="matrix(.004 0 0 -.004 50.323 23.411)"/>
    <text fill="currentColor" class="scale-degree" font-family="serif" font-size="2.2" transform="translate(50.323 29.2)">
<tspan>➄</tspan>
</text>
    <rect width=".13" height="3.297" x="-.065" y=".186" fill="currentColor" ry=".04" transform="translate(50.388 23.411)"/>
    <use xlink:href="#reuse-6" transform="matrix(.004 0 0 -.004 53.077 14.411)"/>
    <use xlink:href="#reuse-5" transform="matrix(.004 0 0 -.004 53.077 21.911)"/>
    <rect width=".13" height="4.064" x="-.065" y="-1.314" fill="currentColor" ry=".04" transform="translate(53.142 23.411)"/>
    <use xlink:href="#reuse-5" transform="matrix(.004 0 0 -.004 55.832 20.911)"/>
    <rect width=".13" height="4.331" x="-.065" y="-2.314" fill="currentColor" ry=".04" transform="translate(55.897 23.411)"/>
    <use xlink:href="#reuse-5" transform="matrix(.004 0 0 -.004 59.176 12.911)"/>
    <use xlink:href="#reuse-5" transform="matrix(.004 0 0 -.004 59.176 13.911)"/>
    <use xlink:href="#reuse-5" transform="matrix(.004 0 0 -.004 59.176 15.411)"/>
    <use xlink:href="#reuse-5" transform="matrix(.004 0 0 -.004 59.176 16.411)"/>
    <text fill="currentColor" class="scale-degree" font-family="serif" font-size="2.2" transform="translate(59.176 9.174)">
<tspan>➏</tspan>
</text>
    <use xlink:href="#reuse-3" transform="matrix(.004 0 0 -.004 59.176 23.411)"/>
    <rect width=".13" height="6.314" x="-.065" y="-4.5" fill="currentColor" ry=".04" transform="translate(60.415 14.411)"/>
    <use xlink:href="#reuse-4" transform="matrix(.004 0 0 -.004 60.48 9.951)"/>
    <use xlink:href="#reuse-5" transform="matrix(.004 0 0 -.004 61.576 23.911)"/>
    <text fill="currentColor" class="scale-degree" font-family="serif" font-size="2.2" transform="translate(61.576 28.7)">
<tspan>➃</tspan>
</text>
    <rect width=".13" height="2.3" x="-.065" y=".686" fill="currentColor" ry=".04" transform="translate(61.64 23.411)"/>
    <use xlink:href="#reuse-6" transform="matrix(.004 0 0 -.004 64.33 14.411)"/>
    <use xlink:href="#reuse-5" transform="matrix(.004 0 0 -.004 64.33 22.911)"/>
    <rect width=".13" height="2.719" x="-.065" y="-.314" fill="currentColor" ry=".04" transform="translate(64.395 23.411)"/>
    <use xlink:href="#reuse-5" transform="matrix(.004 0 0 -.004 67.084 21.911)"/>
    <rect width=".13" height="3.138" x="-.065" y="-1.314" fill="currentColor" ry=".04" transform="translate(67.15 23.411)"/>
    <use xlink:href="#reuse-5" transform="matrix(.004 0 0 -.004 69.588 13.411)"/>
    <use xlink:href="#reuse-5" transform="matrix(.004 0 0 -.004 69.588 14.411)"/>
    <use xlink:href="#reuse-5" transform="matrix(.004 0 0 -.004 69.588 15.411)"/>
    <use xlink:href="#reuse-5" transform="matrix(.004 0 0 -.004 69.588 16.911)"/>
    <text fill="currentColor" class="scale-degree" font-family="serif" font-size="2.2" transform="translate(69.588 9.549)">
<tspan>➎</tspan>
</text>
    <use xlink:href="#reuse-3" transform="matrix(.004 0 0 -.004 69.588 23.411)"/>
    <rect width=".13" height="6.439" x="-.065" y="-4.125" fill="currentColor" ry=".04" transform="translate(70.828 14.411)"/>
    <use xlink:href="#reuse-4" transform="matrix(.004 0 0 -.004 70.893 10.326)"/>
    <use xlink:href="#reuse-5" transform="matrix(.004 0 0 -.004 71.989 24.411)"/>
    <text fill="currentColor" class="scale-degree" font-family="serif" font-size="2.2" transform="translate(71.989 29.89)">
<tspan>➂</tspan>
</text>
    <rect width=".13" height="2.988" x="-.065" y="1.186" fill="currentColor" ry=".04" transform="translate(72.053 23.411)"/>
    <use xlink:href="#reuse-6" transform="matrix(.004 0 0 -.004 74.743 14.411)"/>
    <use xlink:href="#reuse-5" transform="matrix(.004 0 0 -.004 74.743 23.411)"/>
    <rect width=".13" height="3.314" x="-.065" y=".186" fill="currentColor" ry=".04" transform="translate(74.808 23.411)"/>
    <use xlink:href="#reuse-5" transform="matrix(.004 0 0 -.004 77.497 21.911)"/>
    <rect width=".13" height="4.14" x="-.065" y="-1.314" fill="currentColor" ry=".04" transform="translate(77.562 23.411)"/>
    <use xlink:href="#reuse-5" transform="matrix(.004 0 0 -.004 80.854 13.911)"/>
    <use xlink:href="#reuse-5" transform="matrix(.004 0 0 -.004 80.854 14.911)"/>
    <use xlink:href="#reuse-5" transform="matrix(.004 0 0 -.004 80.854 15.911)"/>
    <use xlink:href="#reuse-5" transform="matrix(.004 0 0 -.004 80.854 17.411)"/>
    <text fill="currentColor" class="scale-degree" font-family="serif" font-size="2.2" transform="translate(80.854 9.924)">
<tspan>➍</tspan>
</text>
    <use xlink:href="#reuse-3" transform="matrix(.004 0 0 -.004 80.854 23.411)"/>
    <rect width=".16" height="13.1" y="-6.55" fill="currentColor" ry=".05" transform="translate(5.63 18.911)"/>
    <rect width=".13" height="6.564" x="-.065" y="-3.75" fill="currentColor" ry=".04" transform="translate(82.094 14.411)"/>
    <use xlink:href="#reuse-4" transform="matrix(.004 0 0 -.004 82.159 10.701)"/>
    <path fill="currentColor" d="M5.007 20.375c0-1.02-.528-1.452-.528-1.464 0-.072.528-.384.528-1.464 0-1.044-.432-1.956-.432-3.12 0-.756.18-1.464.708-2.004.06-.06.156.036.096.096-.396.396-.516.9-.516 1.44 0 1.02.408 1.92.408 3.06 0 .744-.18 1.452-.696 1.992.516.54.696 1.248.696 1.992 0 1.14-.408 2.04-.408 3.06 0 .54.12 1.044.516 1.44.06.06-.036.156-.096.096-.528-.54-.708-1.248-.708-2.004 0-1.164.432-2.076.432-3.12z"/>
    <use xlink:href="#reuse-5" transform="matrix(.004 0 0 -.004 83.254 24.911)"/>
    <text fill="currentColor" class="scale-degree" font-family="serif" font-size="2.2" transform="translate(83.254 27.51)">
<tspan>➁</tspan>
</text>
    <rect width=".13" height="3.331" x="-.065" y="-2.017" fill="currentColor" ry=".04" transform="translate(84.494 23.411)"/>
    <use xlink:href="#reuse-6" transform="matrix(.004 0 0 -.004 86.009 14.411)"/>
    <use xlink:href="#reuse-5" transform="matrix(.004 0 0 -.004 86.009 23.911)"/>
    <rect width=".13" height="3.064" x="-.065" y="-2.75" fill="currentColor" ry=".04" transform="translate(87.248 23.411)"/>
    <use xlink:href="#reuse-5" transform="matrix(.004 0 0 -.004 88.763 22.411)"/>
    <rect width=".13" height="2.297" x="-.065" y="-3.483" fill="currentColor" ry=".04" transform="translate(90.002 23.411)"/>
    <rect width=".13" height="2.291" x="-.065" y="-3.977" fill="currentColor" ry=".04" transform="translate(100.415 23.411)"/>
    <use xlink:href="#reuse-5" transform="matrix(.004 0 0 -.004 91.267 14.411)"/>
    <use xlink:href="#reuse-5" transform="matrix(.004 0 0 -.004 91.267 15.411)"/>
    <use xlink:href="#reuse-5" transform="matrix(.004 0 0 -.004 91.267 16.911)"/>
    <use xlink:href="#reuse-5" transform="matrix(.004 0 0 -.004 91.267 17.911)"/>
    <text fill="currentColor" class="scale-degree" font-family="serif" font-size="2.2" transform="translate(91.267 10.299)">
<tspan>➌</tspan>
</text>
    <use xlink:href="#reuse-3" transform="matrix(.004 0 0 -.004 91.267 23.411)"/>
    <rect width=".13" height="6.689" x="-.065" y="-3.375" fill="currentColor" ry=".04" transform="translate(92.506 14.411)"/>
    <use xlink:href="#reuse-4" transform="matrix(.004 0 0 -.004 92.571 11.076)"/>
    <use xlink:href="#reuse-5" transform="matrix(.004 0 0 -.004 99.175 21.911)"/>
    <use xlink:href="#reuse-5" transform="matrix(.004 0 0 -.004 93.667 25.411)"/>
    <text fill="currentColor" class="scale-degree" font-family="serif" font-size="2.2" transform="translate(93.667 28.005)">
<tspan>➀</tspan>
</text>
    <rect width=".13" height="3.837" x="-.065" y="-2.023" fill="currentColor" ry=".04" transform="translate(94.906 23.411)"/>
    <use xlink:href="#reuse-6" transform="matrix(.004 0 0 -.004 96.421 14.411)"/>
    <use xlink:href="#reuse-5" transform="matrix(.004 0 0 -.004 96.421 23.411)"/>
    <rect width=".13" height="2.814" x="-.065" y="-3" fill="currentColor" ry=".04" transform="translate(97.66 23.411)"/>
</svg>
