<svg xmlns="http://www.w3.org/2000/svg" xmlns:xlink="http://www.w3.org/1999/xlink" version="1.2" width="239.82mm" height="62.17mm" viewBox="0.0000 -0.0000 136.4710 35.3761">
<style type="text/css">
<![CDATA[
tspan { white-space: pre; }
]]>
</style>
<g transform="translate(5.6906, 14.2781)">
<rect x="78.7306" y="-0.1000" width="1.9563" height="0.2000" ry="0.1000" fill="currentColor"/>
</g>
<g transform="translate(5.6906, 14.2781)">
<rect x="73.7222" y="-0.1000" width="1.9563" height="0.2000" ry="0.1000" fill="currentColor"/>
</g>
<g transform="translate(5.6906, 14.2781)">
<rect x="71.2180" y="-0.1000" width="1.9563" height="0.2000" ry="0.1000" fill="currentColor"/>
</g>
<g transform="translate(5.6906, 20.2781)">
<rect x="65.0366" y="-0.1000" width="1.9563" height="0.2000" ry="0.1000" fill="currentColor"/>
</g>
<g transform="translate(5.6906, 14.2781)">
<rect x="55.6240" y="-0.1000" width="1.9563" height="0.2000" ry="0.1000" fill="currentColor"/>
</g>
<g transform="translate(5.6906, 14.2781)">
<rect x="46.2693" y="-0.1000" width="1.3768" height="0.2000" ry="0.1000" fill="currentColor"/>
</g>
<g transform="translate(5.6906, 14.2781)">
<rect x="43.2974" y="-0.1000" width="1.9563" height="0.2000" ry="0.1000" fill="currentColor"/>
</g>
<g transform="translate(5.6906, 13.2781)">
<rect x="41.0432" y="-0.1000" width="1.9563" height="0.2000" ry="0.1000" fill="currentColor"/>
</g>
<g transform="translate(5.6906, 14.2781)">
<rect x="41.0432" y="-0.1000" width="1.9563" height="0.2000" ry="0.1000" fill="currentColor"/>
</g>
<g transform="translate(5.6906, 14.2781)">
<rect x="38.2890" y="-0.1000" width="1.9563" height="0.2000" ry="0.1000" fill="currentColor"/>
</g>
<g transform="translate(5.6906, 13.2781)">
<rect x="36.0348" y="-0.1000" width="1.9563" height="0.2000" ry="0.1000" fill="currentColor"/>
</g>
<g transform="translate(5.6906, 14.2781)">
<rect x="36.0348" y="-0.1000" width="1.9563" height="0.2000" ry="0.1000" fill="currentColor"/>
</g>
<g transform="translate(5.6906, 13.2781)">
<rect x="33.5305" y="-0.1000" width="1.9563" height="0.2000" ry="0.1000" fill="currentColor"/>
</g>
<g transform="translate(5.6906, 14.2781)">
<rect x="33.5305" y="-0.1000" width="1.9563" height="0.2000" ry="0.1000" fill="currentColor"/>
</g>
<g transform="translate(5.6906, 14.2781)">
<rect x="31.0263" y="-0.1000" width="1.9563" height="0.2000" ry="0.1000" fill="currentColor"/>
</g>
<g transform="translate(5.6906, 14.2781)">
<rect x="17.4366" y="-0.1000" width="1.9563" height="0.2000" ry="0.1000" fill="currentColor"/>
</g>
<g transform="translate(5.6906, 14.2781)">
<rect x="12.4282" y="-0.1000" width="1.9563" height="0.2000" ry="0.1000" fill="currentColor"/>
</g>
<g transform="translate(5.6906, 14.2781)">
<rect x="9.9240" y="-0.1000" width="1.9563" height="0.2000" ry="0.1000" fill="currentColor"/>
</g>
<g transform="translate(5.6906, 19.2781)">
<line stroke-linejoin="round" stroke-linecap="round" stroke-width="0.1000" stroke="currentColor" x1="0.0500" y1="0" x2="123.8015" y2="0"/>
</g>
<g transform="translate(5.6906, 18.2781)">
<line stroke-linejoin="round" stroke-linecap="round" stroke-width="0.1000" stroke="currentColor" x1="0.0500" y1="0" x2="123.8015" y2="0"/>
</g>
<g transform="translate(5.6906, 17.2781)">
<line stroke-linejoin="round" stroke-linecap="round" stroke-width="0.1000" stroke="currentColor" x1="0.0500" y1="0" x2="123.8015" y2="0"/>
</g>
<g transform="translate(5.6906, 16.2781)">
<line stroke-linejoin="round" stroke-linecap="round" stroke-width="0.1000" stroke="currentColor" x1="0.0500" y1="0" x2="123.8015" y2="0"/>
</g>
<g transform="translate(5.6906, 15.2781)">
<line stroke-linejoin="round" stroke-linecap="round" stroke-width="0.1000" stroke="currentColor" x1="0.0500" y1="0" x2="123.8015" y2="0"/>
</g>
<g transform="translate(129.3521, 3.8453)">
<rect x="0.0000" y="15.4828" width="0.1900" height="7.0919" ry="0.0000" fill="currentColor"/>
</g>
<g transform="translate(5.6906, 25.4200)">
<rect x="84.7984" y="-0.1000" width="1.9563" height="0.2000" ry="0.1000" fill="currentColor"/>
</g>
<g transform="translate(5.6906, 30.4200)">
<line stroke-linejoin="round" stroke-linecap="round" stroke-width="0.1000" stroke="currentColor" x1="0.0500" y1="0" x2="123.8015" y2="0"/>
</g>
<g transform="translate(5.6906, 29.4200)">
<line stroke-linejoin="round" stroke-linecap="round" stroke-width="0.1000" stroke="currentColor" x1="0.0500" y1="0" x2="123.8015" y2="0"/>
</g>
<g transform="translate(5.6906, 28.4200)">
<line stroke-linejoin="round" stroke-linecap="round" stroke-width="0.1000" stroke="currentColor" x1="0.0500" y1="0" x2="123.8015" y2="0"/>
</g>
<g transform="translate(5.6906, 27.4200)">
<line stroke-linejoin="round" stroke-linecap="round" stroke-width="0.1000" stroke="currentColor" x1="0.0500" y1="0" x2="123.8015" y2="0"/>
</g>
<g transform="translate(5.6906, 26.4200)">
<line stroke-linejoin="round" stroke-linecap="round" stroke-width="0.1000" stroke="currentColor" x1="0.0500" y1="0" x2="123.8015" y2="0"/>
</g>
<g transform="translate(129.3521, 28.4200)">
<rect x="0.0000" y="-2.0500" width="0.1900" height="4.0500" ry="0.0000" fill="currentColor"/>
</g>
<g transform="translate(129.3521, 17.2781)">
<rect x="0.0000" y="-2.0000" width="0.1900" height="4.0500" ry="0.0000" fill="currentColor"/>
</g>
<g transform="translate(89.5056, 3.8453)">
<rect x="0.0000" y="15.4828" width="0.1900" height="7.0919" ry="0.0000" fill="currentColor"/>
</g>
<g transform="translate(89.5056, 28.4200)">
<rect x="0.0000" y="-2.0500" width="0.1900" height="4.0500" ry="0.0000" fill="currentColor"/>
</g>
<g transform="translate(89.5056, 17.2781)">
<rect x="0.0000" y="-2.0000" width="0.1900" height="4.0500" ry="0.0000" fill="currentColor"/>
</g>
<g transform="translate(51.3174, 3.8453)">
<rect x="0.0000" y="15.4828" width="0.1900" height="7.0919" ry="0.0000" fill="currentColor"/>
</g>
<g transform="translate(51.3174, 28.4200)">
<rect x="0.0000" y="-2.0500" width="0.1900" height="4.0500" ry="0.0000" fill="currentColor"/>
</g>
<g transform="translate(51.3174, 17.2781)">
<rect x="0.0000" y="-2.0000" width="0.1900" height="4.0500" ry="0.0000" fill="currentColor"/>
</g>
<g transform="translate(15.9406, 13.7781)">
<path transform="scale(0.0040, -0.0040)" d="M218 136c66 0 108 -36 108 -89c0 -89 -113 -183 -218 -183c-66 0 -108 36 -108 89c0 89 113 183 218 183z" fill="currentColor"/>
</g>
<g transform="translate(15.8586, 22.6461)">
<path transform="scale(0.0040, -0.0040)" d="M161 32c78 0 97 176 97 178c0 18 -7 33 -25 33c-61 0 -102 -124 -102 -173c0 -22 8 -38 30 -38zM-53 141c0 2 51 151 134 151c35 0 59 -21 66 -52c29 31 67 52 103 52c69 0 107 -49 107 -114c0 -118 -105 -186 -159 -186c-53 0 -70 20 -84 20c-7 0 -14 -3 -16 -9l-29 -86
c-1 -2 -1 -5 -1 -7c0 -37 57 -18 57 -42c0 -7 -4 -14 -13 -14c-3 0 -50 5 -116 5s-112 -5 -115 -5c-9 0 -14 7 -14 14c0 31 87 -1 102 41l102 300c2 7 4 14 4 20c0 8 -2 14 -11 14c-33 0 -63 -60 -79 -97c-5 -12 -15 -17 -24 -17c-8 0 -14 4 -14 12z" fill="currentColor"/>
</g>
<g transform="translate(15.9406, 18.2781)">
<path transform="scale(0.0040, -0.0040)" d="M218 136c66 0 108 -36 108 -89c0 -89 -113 -183 -218 -183c-66 0 -108 36 -108 89c0 89 113 183 218 183z" fill="currentColor"/>
</g>
<g class="scale-degree">
<g transform="translate(15.9406, 25.2412)">
<text font-family="serif" font-size="2.2001" text-anchor="start" fill="currentColor">
<tspan>➀</tspan>
</text>
</g>
</g>
<g transform="translate(6.4906, 18.2781)">
<path transform="scale(0.0040, -0.0040)" d="M266 -635h-6c-108 0 -195 88 -195 197c0 58 53 103 112 103c54 0 95 -47 95 -103c0 -52 -43 -95 -95 -95c-11 0 -21 2 -31 6c26 -39 68 -65 117 -65h4zM461 -203c68 24 113 90 113 164c0 90 -66 179 -173 190c19 -89 48 -242 60 -354zM74 28c0 -145 141 -247 264 -247
c1 0 47 0 82 6c-7 64 -29 203 -63 364c-79 -8 -124 -61 -124 -119c0 -44 25 -91 81 -123c5 -5 7 -10 7 -15c0 -11 -10 -22 -22 -22c-15 0 -126 62 -126 187c0 88 58 174 160 197c-14 58 -29 117 -46 175c-107 -121 -213 -243 -213 -403zM250 553c-29 96 -52 170 -52 346
c0 115 55 224 149 292c6 5 14 5 20 0c68 -80 133 -245 133 -358c0 -143 -86 -255 -180 -364c21 -68 39 -138 56 -207c2 0 7 1 13 1c155 0 256 -128 256 -261c0 -113 -74 -212 -180 -246c3 -35 5 -70 5 -105c0 -19 -1 -39 -2 -58c-7 -119 -88 -225 -202 -228l1 43
c93 2 153 92 159 191c1 18 2 37 2 55c0 31 -1 61 -4 92c-5 -1 -44 -8 -89 -8c-193 0 -333 180 -333 374c0 177 131 306 248 441zM428 916c0 34 1 66 -20 129c-99 -48 -162 -149 -162 -259c0 -52 12 -115 36 -194c80 97 146 198 146 324z" fill="currentColor"/>
</g>
<g transform="translate(9.9906, 15.2781)">
<path transform="scale(0.0040, -0.0040)" d="M0 119c0 8 5 15 13 18l46 17v158c0 10 8 19 18 19s19 -9 19 -19v-145l83 31v158c0 10 9 19 19 19s18 -9 18 -19v-145l32 12c2 1 5 1 7 1c11 0 20 -9 20 -20v-60c0 -8 -5 -16 -13 -19l-46 -16v-160l32 11c2 1 5 1 7 1c11 0 20 -9 20 -20v-60c0 -8 -5 -15 -13 -18l-46 -17
v-158c0 -10 -8 -19 -18 -19s-19 9 -19 19v145l-83 -31v-158c0 -10 -9 -19 -19 -19s-18 9 -18 19v145l-32 -12c-2 -1 -5 -1 -7 -1c-11 0 -20 9 -20 20v60c0 8 5 16 13 19l46 16v160l-32 -11c-2 -1 -5 -1 -7 -1c-11 0 -20 9 -20 20v60zM179 95l-83 -30v-160l83 30v160z" fill="currentColor"/>
</g>
<g transform="translate(12.2406, 17.2781)">
<path transform="scale(0.0040, -0.0040)" d="M250 262c116 0 176 -106 176 -163c0 -40 -30 -72 -67 -72c-31 0 -75 25 -75 75c0 38 27 77 72 77c4 0 9 0 14 -1c-28 37 -72 59 -120 59c-106 0 -113 -73 -113 -186v-51v-51c0 -113 7 -187 113 -187c80 0 139 70 158 151c2 7 7 10 12 10c6 0 13 -4 13 -12
c0 -22 -50 -174 -183 -174c-59 0 -250 19 -250 263c0 62 18 262 250 262z" fill="currentColor"/>
</g>
<g transform="translate(6.4906, 27.4200)">
<path transform="scale(0.0040, -0.0040)" d="M557 -125c0 28 23 51 51 51s51 -23 51 -51s-23 -51 -51 -51s-51 23 -51 51zM557 125c0 28 23 51 51 51s51 -23 51 -51s-23 -51 -51 -51s-51 23 -51 51zM232 263c172 0 293 -88 293 -251c0 -263 -263 -414 -516 -521c-3 -3 -6 -4 -9 -4c-7 0 -13 6 -13 13c0 3 1 6 4 9
c202 118 412 265 412 493c0 120 -63 235 -171 235c-74 0 -129 -54 -154 -126c11 5 22 8 34 8c55 0 100 -45 100 -100c0 -58 -44 -106 -100 -106c-60 0 -112 47 -112 106c0 133 102 244 232 244z" fill="currentColor"/>
</g>
<g transform="translate(9.9906, 27.4200)">
<path transform="scale(0.0040, -0.0040)" d="M0 119c0 8 5 15 13 18l46 17v158c0 10 8 19 18 19s19 -9 19 -19v-145l83 31v158c0 10 9 19 19 19s18 -9 18 -19v-145l32 12c2 1 5 1 7 1c11 0 20 -9 20 -20v-60c0 -8 -5 -16 -13 -19l-46 -16v-160l32 11c2 1 5 1 7 1c11 0 20 -9 20 -20v-60c0 -8 -5 -15 -13 -18l-46 -17
v-158c0 -10 -8 -19 -18 -19s-19 9 -19 19v145l-83 -31v-158c0 -10 -9 -19 -19 -19s-18 9 -18 19v145l-32 -12c-2 -1 -5 -1 -7 -1c-11 0 -20 9 -20 20v60c0 8 5 16 13 19l46 16v160l-32 -11c-2 -1 -5 -1 -7 -1c-11 0 -20 9 -20 20v60zM179 95l-83 -30v-160l83 30v160z" fill="currentColor"/>
</g>
<g transform="translate(12.2406, 28.4200)">
<path transform="scale(0.0040, -0.0040)" d="M250 262c116 0 176 -106 176 -163c0 -40 -30 -72 -67 -72c-31 0 -75 25 -75 75c0 38 27 77 72 77c4 0 9 0 14 -1c-28 37 -72 59 -120 59c-106 0 -113 -73 -113 -186v-51v-51c0 -113 7 -187 113 -187c80 0 139 70 158 151c2 7 7 10 12 10c6 0 13 -4 13 -12
c0 -22 -50 -174 -183 -174c-59 0 -250 19 -250 263c0 62 18 262 250 262z" fill="currentColor"/>
</g>
<g transform="translate(17.1798, 17.2781)">
<rect x="-0.0650" y="-6.1868" width="0.1300" height="2.5007" ry="0.0400" fill="currentColor"/>
</g>
<g transform="translate(16.0056, 17.2781)">
<rect x="-0.0650" y="1.1861" width="0.1300" height="2.3139" ry="0.0400" fill="currentColor"/>
</g>
<g transform="translate(121.6126, 13.7781)">
<polygon stroke-linejoin="round" stroke-linecap="round" stroke-width="0.0800" fill="currentColor" stroke="currentColor" points="6.2984 0.4900 6.2984 0.8900 0.0400 0.2000 0.0400 -0.2000"/>
</g>
<g transform="translate(125.3169, 14.9913)">
<polygon stroke-linejoin="round" stroke-linecap="round" stroke-width="0.0800" fill="currentColor" stroke="currentColor" points="2.5942 0.0868 2.5942 0.4868 0.0400 0.2000 0.0400 -0.2000"/>
</g>
<g transform="translate(18.4448, 14.2781)">
<path transform="scale(0.0040, -0.0040)" d="M218 136c66 0 108 -36 108 -89c0 -89 -113 -183 -218 -183c-66 0 -108 36 -108 89c0 89 113 183 218 183z" fill="currentColor"/>
</g>
<g transform="translate(19.6840, 17.2781)">
<rect x="-0.0650" y="-6.0623" width="0.1300" height="2.8762" ry="0.0400" fill="currentColor"/>
</g>
<g transform="translate(113.9922, 19.6813)">
<polygon stroke-linejoin="round" stroke-linecap="round" stroke-width="0.0800" fill="currentColor" stroke="currentColor" points="2.5942 0.0868 2.5942 0.4868 0.0400 0.2000 0.0400 -0.2000"/>
</g>
<g transform="translate(110.2880, 20.0881)">
<polygon stroke-linejoin="round" stroke-linecap="round" stroke-width="0.0800" fill="currentColor" stroke="currentColor" points="6.2984 0.4900 6.2984 0.8900 0.0400 0.2000 0.0400 -0.2000"/>
</g>
<g transform="translate(20.9490, 14.7781)">
<path transform="scale(0.0040, -0.0040)" d="M218 136c66 0 108 -36 108 -89c0 -89 -113 -183 -218 -183c-66 0 -108 36 -108 89c0 89 113 183 218 183z" fill="currentColor"/>
</g>
<g transform="translate(20.9490, 17.2781)">
<path transform="scale(0.0040, -0.0040)" d="M218 136c66 0 108 -36 108 -89c0 -89 -113 -183 -218 -183c-66 0 -108 36 -108 89c0 89 113 183 218 183z" fill="currentColor"/>
</g>
<g transform="translate(22.1882, 17.2781)">
<rect x="-0.0650" y="-5.9377" width="0.1300" height="3.2516" ry="0.0400" fill="currentColor"/>
</g>
<g transform="translate(21.0140, 17.2781)">
<rect x="-0.0650" y="0.1861" width="0.1300" height="3.3139" ry="0.0400" fill="currentColor"/>
</g>
<g transform="translate(23.4532, 14.2781)">
<path transform="scale(0.0040, -0.0040)" d="M218 136c66 0 108 -36 108 -89c0 -89 -113 -183 -218 -183c-66 0 -108 36 -108 89c0 89 113 183 218 183z" fill="currentColor"/>
</g>
<g transform="translate(24.6924, 17.2781)">
<rect x="-0.0650" y="-5.8132" width="0.1300" height="2.6271" ry="0.0400" fill="currentColor"/>
</g>
<g transform="translate(101.9318, 18.4681)">
<polygon stroke-linejoin="round" stroke-linecap="round" stroke-width="0.0800" fill="currentColor" stroke="currentColor" points="3.5442 0.6100 3.5442 1.0100 0.0400 0.2000 0.0400 -0.2000"/>
</g>
<g transform="translate(25.9574, 14.7781)">
<path transform="scale(0.0040, -0.0040)" d="M218 136c66 0 108 -36 108 -89c0 -89 -113 -183 -218 -183c-66 0 -108 36 -108 89c0 89 113 183 218 183z" fill="currentColor"/>
</g>
<g class="scale-degree">
<g transform="translate(25.9574, 11.5409)">
<text font-family="serif" font-size="2.2001" text-anchor="start" fill="currentColor">
<tspan>➊</tspan>
</text>
</g>
</g>
<g transform="translate(25.9574, 18.2781)">
<path transform="scale(0.0040, -0.0040)" d="M218 136c66 0 108 -36 108 -89c0 -89 -113 -183 -218 -183c-66 0 -108 36 -108 89c0 89 113 183 218 183z" fill="currentColor"/>
</g>
<g transform="translate(27.1966, 17.2781)">
<rect x="-0.0650" y="-5.0000" width="0.1300" height="2.3139" ry="0.0400" fill="currentColor"/>
</g>
<g transform="translate(26.0224, 17.2781)">
<rect x="-0.0650" y="1.1861" width="0.1300" height="2.3139" ry="0.0400" fill="currentColor"/>
</g>
<g transform="translate(29.9116, 17.2781)">
<path transform="scale(0.0040, -0.0040)" d="M218 136c66 0 108 -36 108 -89c0 -89 -113 -183 -218 -183c-66 0 -108 36 -108 89c0 89 113 183 218 183z" fill="currentColor"/>
</g>
<g transform="translate(29.9766, 17.2781)">
<rect x="-0.0650" y="0.1861" width="0.1300" height="3.3139" ry="0.0400" fill="currentColor"/>
</g>
<g transform="translate(90.8150, 18.2781)">
<polygon stroke-linejoin="round" stroke-linecap="round" stroke-width="0.0800" fill="currentColor" stroke="currentColor" points="8.4526 -0.0100 8.4526 0.3900 0.0400 0.2000 0.0400 -0.2000"/>
</g>
<g transform="translate(90.8150, 19.0881)">
<polygon stroke-linejoin="round" stroke-linecap="round" stroke-width="0.0800" fill="currentColor" stroke="currentColor" points="8.4526 -0.0100 8.4526 0.3900 0.0400 0.2000 0.0400 -0.2000"/>
</g>
<g transform="translate(33.3658, 15.2781)">
<path transform="scale(0.0040, -0.0040)" d="M70 205c79 0 46 -98 91 -98c16 0 54 48 61 63c6 12 23 12 28 0l-123 -420c-8 -7 -17 -10 -27 -10s-20 3 -28 10l117 326c-34 -12 -69 -22 -105 -22c-47 0 -87 34 -87 79c0 40 33 72 73 72z" fill="currentColor"/>
</g>
<g transform="translate(33.3658, 18.7781)">
<path transform="scale(0.0040, -0.0040)" d="M218 136c66 0 108 -36 108 -89c0 -89 -113 -183 -218 -183c-66 0 -108 36 -108 89c0 89 113 183 218 183z" fill="currentColor"/>
</g>
<g class="scale-degree">
<g transform="translate(33.3658, 23.5291)">
<text font-family="serif" font-size="2.2001" text-anchor="start" fill="currentColor">
<tspan>➆</tspan>
</text>
</g>
</g>
<g transform="translate(33.4308, 17.2781)">
<rect x="-0.0650" y="1.6861" width="0.1300" height="2.3139" ry="0.0400" fill="currentColor"/>
</g>
<g transform="translate(71.0532, 23.0881)">
<polygon stroke-linejoin="round" stroke-linecap="round" stroke-width="0.0800" fill="currentColor" stroke="currentColor" points="13.7840 -1.0100 13.7840 -0.6100 0.0400 0.2000 0.0400 -0.2000"/>
</g>
<g transform="translate(37.0429, 13.7781)">
<path transform="scale(0.0040, -0.0040)" d="M218 136c66 0 108 -36 108 -89c0 -89 -113 -183 -218 -183c-66 0 -108 36 -108 89c0 89 113 183 218 183z" fill="currentColor"/>
</g>
<g transform="translate(37.0429, 17.2781)">
<path transform="scale(0.0040, -0.0040)" d="M218 136c66 0 108 -36 108 -89c0 -89 -113 -183 -218 -183c-66 0 -108 36 -108 89c0 89 113 183 218 183z" fill="currentColor"/>
</g>
<g transform="translate(38.2821, 17.2781)">
<rect x="-0.0650" y="-6.5076" width="0.1300" height="2.8215" ry="0.0400" fill="currentColor"/>
</g>
<g transform="translate(37.1079, 17.2781)">
<rect x="-0.0650" y="0.1861" width="0.1300" height="3.8139" ry="0.0400" fill="currentColor"/>
</g>
<g transform="translate(80.9130, 11.0881)">
<polygon stroke-linejoin="round" stroke-linecap="round" stroke-width="0.0800" fill="currentColor" stroke="currentColor" points="7.3526 -0.2000 7.3526 0.2000 0.0400 0.2000 0.0400 -0.2000"/>
</g>
<g transform="translate(80.9130, 11.8981)">
<polygon stroke-linejoin="round" stroke-linecap="round" stroke-width="0.0800" fill="currentColor" stroke="currentColor" points="7.3526 -0.2000 7.3526 0.2000 0.0400 0.2000 0.0400 -0.2000"/>
</g>
<g transform="translate(39.5471, 13.2781)">
<path transform="scale(0.0040, -0.0040)" d="M218 136c66 0 108 -36 108 -89c0 -89 -113 -183 -218 -183c-66 0 -108 36 -108 89c0 89 113 183 218 183z" fill="currentColor"/>
</g>
<g transform="translate(40.7864, 17.2781)">
<rect x="-0.0650" y="-6.8024" width="0.1300" height="2.6162" ry="0.0400" fill="currentColor"/>
</g>
<g class="schema">
<g transform="translate(106.4979, 8.8330)">
<text font-family="serif" font-size="1.9600" text-anchor="start" fill="currentColor">
<tspan>Prinner</tspan>
</text>
</g>
</g>
<g transform="translate(42.0514, 12.7781)">
<path transform="scale(0.0040, -0.0040)" d="M218 136c66 0 108 -36 108 -89c0 -89 -113 -183 -218 -183c-66 0 -108 36 -108 89c0 89 113 183 218 183z" fill="currentColor"/>
</g>
<g class="scale-degree">
<g transform="translate(42.0514, 9.1109)">
<text font-family="serif" font-size="2.2001" text-anchor="start" fill="currentColor">
<tspan>➎</tspan>
</text>
</g>
</g>
<g transform="translate(42.0514, 18.7781)">
<path transform="scale(0.0040, -0.0040)" d="M218 136c66 0 108 -36 108 -89c0 -89 -113 -183 -218 -183c-66 0 -108 36 -108 89c0 89 113 183 218 183z" fill="currentColor"/>
</g>
<g transform="translate(43.2906, 17.2781)">
<rect x="-0.0650" y="-7.1900" width="0.1300" height="2.5039" ry="0.0400" fill="currentColor"/>
</g>
<g transform="translate(42.1164, 17.2781)">
<rect x="-0.0650" y="1.6861" width="0.1300" height="2.3139" ry="0.0400" fill="currentColor"/>
</g>
<g class="schema">
<g transform="translate(90.8150, 9.4098)">
<line stroke-linejoin="round" stroke-linecap="round" stroke-width="0.1000" stroke="currentColor" x1="36.6361" y1="-0.0000" x2="37.1361" y2="1.0000"/>
</g>
<g transform="translate(90.8150, 9.4098)">
<line stroke-linejoin="round" stroke-linecap="round" stroke-width="0.1000" stroke="currentColor" x1="0.5000" y1="-0.0000" x2="0.0000" y2="1.0000"/>
</g>
<g transform="translate(90.8150, 9.4098)">
<line stroke-linejoin="round" stroke-linecap="round" stroke-width="0.1000" stroke="currentColor" x1="0.5000" y1="-0.0000" x2="36.6361" y2="-0.0000"/>
</g>
</g>
<g transform="translate(44.3056, 13.7781)">
<path transform="scale(0.0040, -0.0040)" d="M218 136c66 0 108 -36 108 -89c0 -89 -113 -183 -218 -183c-66 0 -108 36 -108 89c0 89 113 183 218 183z" fill="currentColor"/>
</g>
<g transform="translate(45.5448, 17.2781)">
<rect x="-0.0650" y="-7.1900" width="0.1300" height="3.5039" ry="0.0400" fill="currentColor"/>
</g>
<g transform="translate(75.9046, 11.7781)">
<polygon stroke-linejoin="round" stroke-linecap="round" stroke-width="0.0800" fill="currentColor" stroke="currentColor" points="2.5942 -0.5100 2.5942 -0.1100 0.0400 0.2000 0.0400 -0.2000"/>
</g>
<g transform="translate(75.9046, 12.5881)">
<polygon stroke-linejoin="round" stroke-linecap="round" stroke-width="0.0800" fill="currentColor" stroke="currentColor" points="2.5942 -0.5100 2.5942 -0.1100 0.0400 0.2000 0.0400 -0.2000"/>
</g>
<g transform="translate(47.0598, 12.7781)">
<path transform="scale(0.0040, -0.0040)" d="M218 136c66 0 108 -36 108 -89c0 -89 -113 -183 -218 -183c-66 0 -108 36 -108 89c0 89 113 183 218 183z" fill="currentColor"/>
</g>
<g transform="translate(47.0598, 17.2781)">
<path transform="scale(0.0040, -0.0040)" d="M218 136c66 0 108 -36 108 -89c0 -89 -113 -183 -218 -183c-66 0 -108 36 -108 89c0 89 113 183 218 183z" fill="currentColor"/>
</g>
<g transform="translate(48.2990, 17.2781)">
<rect x="-0.0650" y="-7.1900" width="0.1300" height="2.5039" ry="0.0400" fill="currentColor"/>
</g>
<g transform="translate(47.1248, 17.2781)">
<rect x="-0.0650" y="0.1861" width="0.1300" height="3.8139" ry="0.0400" fill="currentColor"/>
</g>
<g transform="translate(54.1280, 21.7781)">
<polygon stroke-linejoin="round" stroke-linecap="round" stroke-width="0.0800" fill="currentColor" stroke="currentColor" points="13.5611 -0.8900 13.5611 -0.4900 0.0400 0.2000 0.0400 -0.2000"/>
</g>
<g transform="translate(49.3140, 13.7781)">
<path transform="scale(0.0040, -0.0040)" d="M218 136c66 0 108 -36 108 -89c0 -89 -113 -183 -218 -183c-66 0 -108 36 -108 89c0 89 113 183 218 183z" fill="currentColor"/>
</g>
<g transform="translate(50.5532, 17.2781)">
<rect x="-0.0650" y="-7.1900" width="0.1300" height="3.5039" ry="0.0400" fill="currentColor"/>
</g>
<g transform="translate(55.3022, 12.0881)">
<polygon stroke-linejoin="round" stroke-linecap="round" stroke-width="0.0800" fill="currentColor" stroke="currentColor" points="7.6026 -0.5100 7.6026 -0.1100 0.0400 0.2000 0.0400 -0.2000"/>
</g>
<g transform="translate(55.3022, 12.8981)">
<polygon stroke-linejoin="round" stroke-linecap="round" stroke-width="0.0800" fill="currentColor" stroke="currentColor" points="7.6026 -0.5100 7.6026 -0.1100 0.0400 0.2000 0.0400 -0.2000"/>
</g>
<g transform="translate(33.3658, 21.2781)">
<polygon stroke-linejoin="round" stroke-linecap="round" stroke-width="0.0800" fill="currentColor" stroke="currentColor" points="13.7840 -0.2000 13.7840 0.2000 0.0400 0.2000 0.0400 -0.2000"/>
</g>
<g transform="translate(52.1894, 14.2781)">
<path transform="scale(0.0028, -0.0028)" d="M208 139c69 0 117 -40 117 -99c0 -91 -107 -179 -209 -179c-69 0 -116 40 -116 99c0 91 106 179 208 179z" fill="currentColor"/>
</g>
<g transform="translate(43.2256, 10.0881)">
<polygon stroke-linejoin="round" stroke-linecap="round" stroke-width="0.0800" fill="currentColor" stroke="currentColor" points="7.3526 -0.2000 7.3526 0.2000 0.0400 0.2000 0.0400 -0.2000"/>
</g>
<g transform="translate(43.2256, 10.8981)">
<polygon stroke-linejoin="round" stroke-linecap="round" stroke-width="0.0800" fill="currentColor" stroke="currentColor" points="7.3526 -0.2000 7.3526 0.2000 0.0400 0.2000 0.0400 -0.2000"/>
</g>
<g transform="translate(53.0423, 17.2781)">
<rect x="-0.0650" y="-5.6000" width="0.1300" height="2.4856" ry="0.0400" fill="currentColor"/>
</g>
<g transform="translate(53.1073, 11.7181)">
<path transform="scale(0.0028, -0.0028)" d="M0 -212v-213v213c0 -114 85 -201 146 -295c4 13 6 26 6 40c0 94 -87 188 -152 255zM115 -848c0 11 43 74 43 169s-90 188 -158 254v-75h-21v500h21c0 -177 201 -290 201 -467c0 -33 -9 -66 -23 -96c18 -36 29 -74 29 -116c0 -63 -15 -125 -41 -182
c-5 -10 -14 -13 -23 -13c-14 0 -28 10 -28 26z" fill="currentColor"/>
</g>
<g transform="translate(38.2171, 10.7781)">
<polygon stroke-linejoin="round" stroke-linecap="round" stroke-width="0.0800" fill="currentColor" stroke="currentColor" points="2.5942 -0.5100 2.5942 -0.1100 0.0400 0.2000 0.0400 -0.2000"/>
</g>
<g transform="translate(38.2171, 11.5881)">
<polygon stroke-linejoin="round" stroke-linecap="round" stroke-width="0.0800" fill="currentColor" stroke="currentColor" points="2.5942 -0.5100 2.5942 -0.1100 0.0400 0.2000 0.0400 -0.2000"/>
</g>
<g transform="translate(54.1280, 14.7781)">
<path transform="scale(0.0040, -0.0040)" d="M218 136c66 0 108 -36 108 -89c0 -89 -113 -183 -218 -183c-66 0 -108 36 -108 89c0 89 113 183 218 183z" fill="currentColor"/>
</g>
<g class="scale-degree">
<g transform="translate(54.1280, 11.0618)">
<text font-family="serif" font-size="2.2001" text-anchor="start" fill="currentColor">
<tspan>➊</tspan>
</text>
</g>
</g>
<g transform="translate(54.1280, 19.2781)">
<path transform="scale(0.0040, -0.0040)" d="M218 136c66 0 108 -36 108 -89c0 -89 -113 -183 -218 -183c-66 0 -108 36 -108 89c0 89 113 183 218 183z" fill="currentColor"/>
</g>
<g class="scale-degree">
<g transform="translate(54.1280, 24.0291)">
<text font-family="serif" font-size="2.2001" text-anchor="start" fill="currentColor">
<tspan>➅</tspan>
</text>
</g>
</g>
<g transform="translate(55.3672, 17.2781)">
<rect x="-0.0650" y="-5.1926" width="0.1300" height="2.5065" ry="0.0400" fill="currentColor"/>
</g>
<g transform="translate(54.1930, 17.2781)">
<rect x="-0.0650" y="2.1861" width="0.1300" height="2.3106" ry="0.0400" fill="currentColor"/>
</g>
<g transform="translate(15.9406, 20.7781)">
<polygon stroke-linejoin="round" stroke-linecap="round" stroke-width="0.0800" fill="currentColor" stroke="currentColor" points="14.0611 -0.2000 14.0611 0.2000 0.0400 0.2000 0.0400 -0.2000"/>
</g>
<g transform="translate(56.6322, 15.2781)">
<path transform="scale(0.0040, -0.0040)" d="M218 136c66 0 108 -36 108 -89c0 -89 -113 -183 -218 -183c-66 0 -108 36 -108 89c0 89 113 183 218 183z" fill="currentColor"/>
</g>
<g transform="translate(57.8714, 17.2781)">
<rect x="-0.0650" y="-5.2942" width="0.1300" height="3.1081" ry="0.0400" fill="currentColor"/>
</g>
<g transform="translate(17.1148, 11.0881)">
<polygon stroke-linejoin="round" stroke-linecap="round" stroke-width="0.0800" fill="currentColor" stroke="currentColor" points="7.6026 0.1800 7.6026 0.5800 0.0400 0.2000 0.0400 -0.2000"/>
</g>
<g transform="translate(17.1148, 11.8981)">
<polygon stroke-linejoin="round" stroke-linecap="round" stroke-width="0.0800" fill="currentColor" stroke="currentColor" points="7.6026 0.1800 7.6026 0.5800 0.0400 0.2000 0.0400 -0.2000"/>
</g>
<g transform="translate(59.1364, 14.7781)">
<path transform="scale(0.0040, -0.0040)" d="M218 136c66 0 108 -36 108 -89c0 -89 -113 -183 -218 -183c-66 0 -108 36 -108 89c0 89 113 183 218 183z" fill="currentColor"/>
</g>
<g transform="translate(59.1364, 18.2781)">
<path transform="scale(0.0040, -0.0040)" d="M218 136c66 0 108 -36 108 -89c0 -89 -113 -183 -218 -183c-66 0 -108 36 -108 89c0 89 113 183 218 183z" fill="currentColor"/>
</g>
<g transform="translate(60.3756, 17.2781)">
<rect x="-0.0650" y="-5.3958" width="0.1300" height="2.7097" ry="0.0400" fill="currentColor"/>
</g>
<g transform="translate(59.2014, 17.2781)">
<rect x="-0.0650" y="1.1861" width="0.1300" height="3.0565" ry="0.0400" fill="currentColor"/>
</g>
<g transform="translate(61.6406, 14.2781)">
<path transform="scale(0.0040, -0.0040)" d="M218 136c66 0 108 -36 108 -89c0 -89 -113 -183 -218 -183c-66 0 -108 36 -108 89c0 89 113 183 218 183z" fill="currentColor"/>
</g>
<g transform="translate(62.8798, 17.2781)">
<rect x="-0.0650" y="-5.4974" width="0.1300" height="2.3113" ry="0.0400" fill="currentColor"/>
</g>
<g class="schema">
<g transform="translate(47.6332, 5.1430)">
<text font-family="serif" font-size="1.9600" text-anchor="start" fill="currentColor">
<tspan>Romanesca</tspan>
</text>
</g>
</g>
<g transform="translate(64.1448, 14.7781)">
<path transform="scale(0.0040, -0.0040)" d="M218 136c66 0 108 -36 108 -89c0 -89 -113 -183 -218 -183c-66 0 -108 36 -108 89c0 89 113 183 218 183z" fill="currentColor"/>
</g>
<g transform="translate(64.1448, 17.2781)">
<path transform="scale(0.0040, -0.0040)" d="M218 136c66 0 108 -36 108 -89c0 -89 -113 -183 -218 -183c-66 0 -108 36 -108 89c0 89 113 183 218 183z" fill="currentColor"/>
</g>
<g transform="translate(65.3840, 17.2781)">
<rect x="-0.0650" y="-5.0000" width="0.1300" height="2.3139" ry="0.0400" fill="currentColor"/>
</g>
<g transform="translate(64.2098, 17.2781)">
<rect x="-0.0650" y="0.1861" width="0.1300" height="3.8024" ry="0.0400" fill="currentColor"/>
</g>
<g class="schema">
<g transform="translate(15.9406, 5.7198)">
<line stroke-linejoin="round" stroke-linecap="round" stroke-width="0.1000" stroke="currentColor" x1="71.8651" y1="-0.0000" x2="72.3651" y2="1.0000"/>
</g>
<g transform="translate(15.9406, 5.7198)">
<line stroke-linejoin="round" stroke-linecap="round" stroke-width="0.1000" stroke="currentColor" x1="0.5000" y1="-0.0000" x2="0.0000" y2="1.0000"/>
</g>
<g transform="translate(15.9406, 5.7198)">
<line stroke-linejoin="round" stroke-linecap="round" stroke-width="0.1000" stroke="currentColor" x1="0.5000" y1="-0.0000" x2="71.8651" y2="-0.0000"/>
</g>
</g>
<g transform="translate(67.5990, 18.2781)">
<path transform="scale(0.0040, -0.0040)" d="M218 136c66 0 108 -36 108 -89c0 -89 -113 -183 -218 -183c-66 0 -108 36 -108 89c0 89 113 183 218 183z" fill="currentColor"/>
</g>
<g transform="translate(67.6640, 17.2781)">
<rect x="-0.0650" y="1.1861" width="0.1300" height="2.6272" ry="0.0400" fill="currentColor"/>
</g>
<g transform="translate(71.0532, 15.2781)">
<path transform="scale(0.0040, -0.0040)" d="M70 205c79 0 46 -98 91 -98c16 0 54 48 61 63c6 12 23 12 28 0l-123 -420c-8 -7 -17 -10 -27 -10s-20 3 -28 10l117 326c-34 -12 -69 -22 -105 -22c-47 0 -87 34 -87 79c0 40 33 72 73 72z" fill="currentColor"/>
</g>
<g transform="translate(71.0532, 20.7781)">
<path transform="scale(0.0040, -0.0040)" d="M218 136c66 0 108 -36 108 -89c0 -89 -113 -183 -218 -183c-66 0 -108 36 -108 89c0 89 113 183 218 183z" fill="currentColor"/>
</g>
<g class="scale-degree">
<g transform="translate(71.0532, 25.3391)">
<text font-family="serif" font-size="2.2001" text-anchor="start" fill="currentColor">
<tspan>➂</tspan>
</text>
</g>
</g>
<g transform="translate(71.1182, 17.2781)">
<rect x="-0.0650" y="3.6861" width="0.1300" height="2.1201" ry="0.0400" fill="currentColor"/>
</g>
<g transform="translate(74.7303, 14.7781)">
<path transform="scale(0.0040, -0.0040)" d="M218 136c66 0 108 -36 108 -89c0 -89 -113 -183 -218 -183c-66 0 -108 36 -108 89c0 89 113 183 218 183z" fill="currentColor"/>
</g>
<g transform="translate(74.7303, 19.7781)">
<path transform="scale(0.0040, -0.0040)" d="M218 136c66 0 108 -36 108 -89c0 -89 -113 -183 -218 -183c-66 0 -108 36 -108 89c0 89 113 183 218 183z" fill="currentColor"/>
</g>
<g transform="translate(75.9696, 17.2781)">
<rect x="-0.0650" y="-5.5076" width="0.1300" height="2.8215" ry="0.0400" fill="currentColor"/>
</g>
<g transform="translate(74.7953, 17.2781)">
<rect x="-0.0650" y="2.6861" width="0.1300" height="2.9046" ry="0.0400" fill="currentColor"/>
</g>
<g transform="translate(77.2346, 14.2781)">
<path transform="scale(0.0040, -0.0040)" d="M218 136c66 0 108 -36 108 -89c0 -89 -113 -183 -218 -183c-66 0 -108 36 -108 89c0 89 113 183 218 183z" fill="currentColor"/>
</g>
<g transform="translate(78.4738, 17.2781)">
<rect x="-0.0650" y="-5.8024" width="0.1300" height="2.6162" ry="0.0400" fill="currentColor"/>
</g>
<g transform="translate(79.7388, 13.7781)">
<path transform="scale(0.0040, -0.0040)" d="M218 136c66 0 108 -36 108 -89c0 -89 -113 -183 -218 -183c-66 0 -108 36 -108 89c0 89 113 183 218 183z" fill="currentColor"/>
</g>
<g transform="translate(79.7388, 18.2781)">
<path transform="scale(0.0040, -0.0040)" d="M218 136c66 0 108 -36 108 -89c0 -89 -113 -183 -218 -183c-66 0 -108 36 -108 89c0 89 113 183 218 183z" fill="currentColor"/>
</g>
<g transform="translate(80.9780, 17.2781)">
<rect x="-0.0650" y="-6.1900" width="0.1300" height="2.5039" ry="0.0400" fill="currentColor"/>
</g>
<g transform="translate(79.8038, 17.2781)">
<rect x="-0.0650" y="1.1861" width="0.1300" height="4.1112" ry="0.0400" fill="currentColor"/>
</g>
<g transform="translate(81.9930, 14.7781)">
<path transform="scale(0.0040, -0.0040)" d="M218 136c66 0 108 -36 108 -89c0 -89 -113 -183 -218 -183c-66 0 -108 36 -108 89c0 89 113 183 218 183z" fill="currentColor"/>
</g>
<g transform="translate(83.2322, 17.2781)">
<rect x="-0.0650" y="-6.1900" width="0.1300" height="3.5039" ry="0.0400" fill="currentColor"/>
</g>
<g transform="translate(84.7472, 13.7781)">
<path transform="scale(0.0040, -0.0040)" d="M218 136c66 0 108 -36 108 -89c0 -89 -113 -183 -218 -183c-66 0 -108 36 -108 89c0 89 113 183 218 183z" fill="currentColor"/>
</g>
<g transform="translate(84.7472, 19.7781)">
<path transform="scale(0.0040, -0.0040)" d="M218 136c66 0 108 -36 108 -89c0 -89 -113 -183 -218 -183c-66 0 -108 36 -108 89c0 89 113 183 218 183z" fill="currentColor"/>
</g>
<g transform="translate(85.9864, 17.2781)">
<rect x="-0.0650" y="-6.1900" width="0.1300" height="2.5039" ry="0.0400" fill="currentColor"/>
</g>
<g transform="translate(84.8122, 17.2781)">
<rect x="-0.0650" y="2.6861" width="0.1300" height="2.3177" ry="0.0400" fill="currentColor"/>
</g>
<g transform="translate(87.0014, 14.7781)">
<path transform="scale(0.0040, -0.0040)" d="M218 136c66 0 108 -36 108 -89c0 -89 -113 -183 -218 -183c-66 0 -108 36 -108 89c0 89 113 183 218 183z" fill="currentColor"/>
</g>
<g transform="translate(88.2406, 17.2781)">
<rect x="-0.0650" y="-6.1900" width="0.1300" height="3.5039" ry="0.0400" fill="currentColor"/>
</g>
<g transform="translate(90.8150, 15.2781)">
<path transform="scale(0.0040, -0.0040)" d="M218 136c66 0 108 -36 108 -89c0 -89 -113 -183 -218 -183c-66 0 -108 36 -108 89c0 89 113 183 218 183z" fill="currentColor"/>
</g>
<g transform="translate(90.8150, 25.4200)">
<path transform="scale(0.0040, -0.0040)" d="M218 136c66 0 108 -36 108 -89c0 -89 -113 -183 -218 -183c-66 0 -108 36 -108 89c0 89 113 183 218 183z" fill="currentColor"/>
</g>
<g class="scale-degree">
<g transform="translate(90.8150, 32.4810)">
<text font-family="serif" font-size="2.2001" text-anchor="start" fill="currentColor">
<tspan>➃</tspan>
</text>
</g>
</g>
<g transform="translate(5.6306, 22.8490)">
<rect x="0.0000" y="-7.6209" width="0.1600" height="15.2419" ry="0.0500" fill="currentColor"/>
</g>
<g transform="translate(90.8800, 17.2781)">
<rect x="-0.0650" y="-1.8139" width="0.1300" height="3.6253" ry="0.0400" fill="currentColor"/>
</g>
<g transform="translate(90.8800, 28.4200)">
<rect x="-0.0650" y="-2.8139" width="0.1300" height="3.3139" ry="0.0400" fill="currentColor"/>
</g>
<g transform="translate(5.3306, 22.8490)">
<path transform="scale(0.0040, -0.0040)" d="M-84 -424c0 292 -148 420 -148 424c0 20 148 116 148 424c0 304 -124 572 -124 912c0 212 52 420 196 576c16 16 40 -8 24 -24c-108 -120 -144 -264 -144 -420c0 -296 116 -564 116 -896c0 -212 -48 -416 -188 -572c140 -156 188 -360 188 -572
c0 -332 -116 -600 -116 -896c0 -156 36 -300 144 -420c16 -16 -8 -40 -24 -24c-144 156 -196 364 -196 576c0 340 124 608 124 912z" fill="currentColor"/>
</g>
<g transform="translate(93.3192, 15.7781)">
<path transform="scale(0.0040, -0.0040)" d="M218 136c66 0 108 -36 108 -89c0 -89 -113 -183 -218 -183c-66 0 -108 36 -108 89c0 89 113 183 218 183z" fill="currentColor"/>
</g>
<g class="scale-degree">
<g transform="translate(93.3192, 14.2169)">
<text font-family="serif" font-size="2.2001" text-anchor="start" fill="currentColor">
<tspan>➏</tspan>
</text>
</g>
</g>
<g transform="translate(93.3842, 17.2781)">
<rect x="-0.0650" y="-1.3139" width="0.1300" height="3.1814" ry="0.0400" fill="currentColor"/>
</g>
<g transform="translate(96.6734, 16.2781)">
<path transform="scale(0.0040, -0.0040)" d="M218 136c66 0 108 -36 108 -89c0 -89 -113 -183 -218 -183c-66 0 -108 36 -108 89c0 89 113 183 218 183z" fill="currentColor"/>
</g>
<g transform="translate(96.7384, 17.2781)">
<rect x="-0.0650" y="-0.8139" width="0.1300" height="2.7564" ry="0.0400" fill="currentColor"/>
</g>
<g transform="translate(95.2234, 16.2781)">
<path transform="scale(0.0040, -0.0040)" d="M0 119c0 8 5 15 13 18l46 17v158c0 10 8 19 18 19s19 -9 19 -19v-145l83 31v158c0 10 9 19 19 19s18 -9 18 -19v-145l32 12c2 1 5 1 7 1c11 0 20 -9 20 -20v-60c0 -8 -5 -16 -13 -19l-46 -16v-160l32 11c2 1 5 1 7 1c11 0 20 -9 20 -20v-60c0 -8 -5 -15 -13 -18l-46 -17
v-158c0 -10 -8 -19 -18 -19s-19 9 -19 19v145l-83 -31v-158c0 -10 -9 -19 -19 -19s-18 9 -18 19v145l-32 -12c-2 -1 -5 -1 -7 -1c-11 0 -20 9 -20 20v60c0 8 5 16 13 19l46 16v160l-32 -11c-2 -1 -5 -1 -7 -1c-11 0 -20 9 -20 20v60zM179 95l-83 -30v-160l83 30v160z" fill="currentColor"/>
</g>
<g transform="translate(99.1776, 15.7781)">
<path transform="scale(0.0040, -0.0040)" d="M218 136c66 0 108 -36 108 -89c0 -89 -113 -183 -218 -183c-66 0 -108 36 -108 89c0 89 113 183 218 183z" fill="currentColor"/>
</g>
<g transform="translate(99.2426, 17.2781)">
<rect x="-0.0650" y="-1.3139" width="0.1300" height="3.3124" ry="0.0400" fill="currentColor"/>
</g>
<g transform="translate(101.9318, 14.7781)">
<path transform="scale(0.0040, -0.0040)" d="M218 136c66 0 108 -36 108 -89c0 -89 -113 -183 -218 -183c-66 0 -108 36 -108 89c0 89 113 183 218 183z" fill="currentColor"/>
</g>
<g transform="translate(101.9318, 25.9200)">
<path transform="scale(0.0040, -0.0040)" d="M218 136c66 0 108 -36 108 -89c0 -89 -113 -183 -218 -183c-66 0 -108 36 -108 89c0 89 113 183 218 183z" fill="currentColor"/>
</g>
<g class="scale-degree">
<g transform="translate(101.9318, 32.4810)">
<text font-family="serif" font-size="2.2001" text-anchor="start" fill="currentColor">
<tspan>➂</tspan>
</text>
</g>
</g>
<g transform="translate(101.9968, 17.2781)">
<rect x="-0.0650" y="-2.3139" width="0.1300" height="3.5186" ry="0.0400" fill="currentColor"/>
</g>
<g transform="translate(101.9968, 28.4200)">
<rect x="-0.0650" y="-2.3139" width="0.1300" height="3.3139" ry="0.0400" fill="currentColor"/>
</g>
<g transform="translate(105.3860, 16.2781)">
<path transform="scale(0.0040, -0.0040)" d="M218 136c66 0 108 -36 108 -89c0 -89 -113 -183 -218 -183c-66 0 -108 36 -108 89c0 89 113 183 218 183z" fill="currentColor"/>
</g>
<g class="scale-degree">
<g transform="translate(105.3860, 14.4909)">
<text font-family="serif" font-size="2.2001" text-anchor="start" fill="currentColor">
<tspan>➎</tspan>
</text>
</g>
</g>
<g transform="translate(105.4510, 17.2781)">
<rect x="-0.0650" y="-0.8139" width="0.1300" height="2.7992" ry="0.0400" fill="currentColor"/>
</g>
<g transform="translate(108.3494, 16.2781)">
<path transform="scale(0.0028, -0.0028)" d="M208 139c69 0 117 -40 117 -99c0 -91 -107 -179 -209 -179c-69 0 -116 40 -116 99c0 91 106 179 208 179z" fill="currentColor"/>
</g>
<g transform="translate(109.2023, 17.2781)">
<rect x="-0.0650" y="-3.6000" width="0.1300" height="2.4856" ry="0.0400" fill="currentColor"/>
</g>
<g transform="translate(109.2673, 13.7181)">
<path transform="scale(0.0028, -0.0028)" d="M0 -212v-213v213c0 -114 85 -201 146 -295c4 13 6 26 6 40c0 94 -87 188 -152 255zM115 -848c0 11 43 74 43 169s-90 188 -158 254v-75h-21v500h21c0 -177 201 -290 201 -467c0 -33 -9 -66 -23 -96c18 -36 29 -74 29 -116c0 -63 -15 -125 -41 -182
c-5 -10 -14 -13 -23 -13c-14 0 -28 10 -28 26z" fill="currentColor"/>
</g>
<g transform="translate(110.2880, 16.7781)">
<path transform="scale(0.0040, -0.0040)" d="M218 136c66 0 108 -36 108 -89c0 -89 -113 -183 -218 -183c-66 0 -108 36 -108 89c0 89 113 183 218 183z" fill="currentColor"/>
</g>
<g class="scale-degree">
<g transform="translate(110.2880, 14.4909)">
<text font-family="serif" font-size="2.2001" text-anchor="start" fill="currentColor">
<tspan>➍</tspan>
</text>
</g>
</g>
<g transform="translate(110.2880, 27.4200)">
<path transform="scale(0.0040, -0.0040)" d="M218 136c66 0 108 -36 108 -89c0 -89 -113 -183 -218 -183c-66 0 -108 36 -108 89c0 89 113 183 218 183z" fill="currentColor"/>
</g>
<g class="scale-degree">
<g transform="translate(110.2880, 32.9310)">
<text font-family="serif" font-size="2.2001" text-anchor="start" fill="currentColor">
<tspan>➆</tspan>
</text>
</g>
</g>
<g transform="translate(110.3530, 17.2781)">
<rect x="-0.0650" y="-0.3139" width="0.1300" height="3.1310" ry="0.0400" fill="currentColor"/>
</g>
<g transform="translate(110.3530, 28.4200)">
<rect x="-0.0650" y="-0.8139" width="0.1300" height="3.3139" ry="0.0400" fill="currentColor"/>
</g>
<g transform="translate(113.9922, 17.2781)">
<path transform="scale(0.0040, -0.0040)" d="M218 136c66 0 108 -36 108 -89c0 -89 -113 -183 -218 -183c-66 0 -108 36 -108 89c0 89 113 183 218 183z" fill="currentColor"/>
</g>
<g transform="translate(114.0572, 17.2781)">
<rect x="-0.0650" y="0.1861" width="0.1300" height="3.0342" ry="0.0400" fill="currentColor"/>
</g>
<g transform="translate(116.4964, 17.7781)">
<path transform="scale(0.0040, -0.0040)" d="M218 136c66 0 108 -36 108 -89c0 -89 -113 -183 -218 -183c-66 0 -108 36 -108 89c0 89 113 183 218 183z" fill="currentColor"/>
</g>
<g transform="translate(116.5614, 17.2781)">
<rect x="-0.0650" y="0.6861" width="0.1300" height="2.8068" ry="0.0400" fill="currentColor"/>
</g>
<g transform="translate(118.4998, 16.7781)">
<path transform="scale(0.0028, -0.0028)" d="M208 139c69 0 117 -40 117 -99c0 -91 -107 -179 -209 -179c-69 0 -116 40 -116 99c0 91 106 179 208 179z" fill="currentColor"/>
</g>
<g transform="translate(119.3527, 17.2781)">
<rect x="-0.0650" y="-3.1000" width="0.1300" height="2.4856" ry="0.0400" fill="currentColor"/>
</g>
<g transform="translate(119.4177, 14.2181)">
<path transform="scale(0.0028, -0.0028)" d="M0 -212v-213v213c0 -114 85 -201 146 -295c4 13 6 26 6 40c0 94 -87 188 -152 255zM115 -848c0 11 43 74 43 169s-90 188 -158 254v-75h-21v500h21c0 -177 201 -290 201 -467c0 -33 -9 -66 -23 -96c18 -36 29 -74 29 -116c0 -63 -15 -125 -41 -182
c-5 -10 -14 -13 -23 -13c-14 0 -28 10 -28 26z" fill="currentColor"/>
</g>
<g transform="translate(120.4384, 17.2781)">
<path transform="scale(0.0040, -0.0040)" d="M218 136c66 0 108 -36 108 -89c0 -89 -113 -183 -218 -183c-66 0 -108 36 -108 89c0 89 113 183 218 183z" fill="currentColor"/>
</g>
<g class="scale-degree">
<g transform="translate(120.4384, 12.8009)">
<text font-family="serif" font-size="2.2001" text-anchor="start" fill="currentColor">
<tspan>➌</tspan>
</text>
</g>
</g>
<g transform="translate(120.4384, 26.9200)">
<path transform="scale(0.0040, -0.0040)" d="M218 136c66 0 108 -36 108 -89c0 -89 -113 -183 -218 -183c-66 0 -108 36 -108 89c0 89 113 183 218 183z" fill="currentColor"/>
</g>
<g class="scale-degree">
<g transform="translate(120.4384, 32.4810)">
<text font-family="serif" font-size="2.2001" text-anchor="start" fill="currentColor">
<tspan>➀</tspan>
</text>
</g>
</g>
<g transform="translate(121.6776, 17.2781)">
<rect x="-0.0650" y="-3.4929" width="0.1300" height="3.3068" ry="0.0400" fill="currentColor"/>
</g>
<g transform="translate(120.5034, 28.4200)">
<rect x="-0.0650" y="-1.3139" width="0.1300" height="3.3139" ry="0.0400" fill="currentColor"/>
</g>
<g transform="translate(127.8861, 17.2781)">
<rect x="-0.0650" y="-2.8171" width="0.1300" height="3.6310" ry="0.0400" fill="currentColor"/>
</g>
<g transform="translate(124.1426, 17.7781)">
<path transform="scale(0.0040, -0.0040)" d="M218 136c66 0 108 -36 108 -89c0 -89 -113 -183 -218 -183c-66 0 -108 36 -108 89c0 89 113 183 218 183z" fill="currentColor"/>
</g>
<g transform="translate(125.3819, 17.2781)">
<rect x="-0.0650" y="-3.0897" width="0.1300" height="3.4036" ry="0.0400" fill="currentColor"/>
</g>
<g transform="translate(126.6469, 18.2781)">
<path transform="scale(0.0040, -0.0040)" d="M218 136c66 0 108 -36 108 -89c0 -89 -113 -183 -218 -183c-66 0 -108 36 -108 89c0 89 113 183 218 183z" fill="currentColor"/>
</g>
</svg>
