<svg xmlns="http://www.w3.org/2000/svg" width="666.822" height="49.43mm" class="d-block mx-auto d-block mx-auto" version="1.2" viewBox="0 0 100.399 28.129">
    <style>
        tspan{white-space:pre}
    </style>
    <rect width="1.956" height=".2" x="33.095" y="-.1" fill="currentColor" ry=".1" transform="translate(5.69 7.204)"/>
    <rect width="1.956" height=".2" x="30.695" y="-.1" fill="currentColor" ry=".1" transform="translate(5.69 7.204)"/>
    <path stroke="currentColor" stroke-linecap="round" stroke-linejoin="round" stroke-width=".1" d="M5.74 12.204h87.746m-87.746-1h87.746m-87.746-1h87.746m-87.746-1h87.746m-87.746-1h87.746"/>
    <rect width=".19" height="4.95" y="8.408" fill="currentColor" ry="0" transform="translate(93.346 3.845)"/>
    <path stroke="currentColor" stroke-linecap="round" stroke-linejoin="round" stroke-width=".1" d="M5.74 21.203h87.746m-87.746-1h87.746m-87.746-1h87.746m-87.746-1h87.746m-87.746-1h87.746"/>
    <rect width=".19" height="4.05" y="-2.05" fill="currentColor" ry="0" transform="translate(93.346 19.203)"/>
    <rect width=".19" height="4.05" y="-2" fill="currentColor" ry="0" transform="translate(93.346 10.204)"/>
    <rect width=".19" height="4.95" y="8.408" fill="currentColor" ry="0" transform="translate(52.03 3.845)"/>
    <rect width=".19" height="4.05" y="-2.05" fill="currentColor" ry="0" transform="translate(52.03 19.203)"/>
    <rect width=".19" height="4.05" y="-2" fill="currentColor" ry="0" transform="translate(52.03 10.204)"/>
    <path fill="currentColor" d="M16.717 8.16c.264 0 .432.143.432.355 0 .356-.452.732-.872.732-.264 0-.432-.144-.432-.356 0-.356.452-.732.872-.732z"/>
    <text fill="currentColor" class="scale-degree" font-family="serif" font-size="2.2" transform="translate(15.845 7.04)">
<tspan>➏</tspan>
</text>
    <path fill="currentColor" d="M7.555 13.744H7.53a.783.783 0 0 1-.78-.788c0-.232.212-.412.448-.412.216 0 .38.187.38.411 0 .209-.172.38-.38.38a.326.326 0 0 1-.124-.023c.104.156.272.26.468.26h.016zm.78-1.729a.69.69 0 0 0 .452-.656.764.764 0 0 0-.692-.76c.076.356.192.968.24 1.416zm-1.548-.924c0 .58.564.989 1.056.989.004 0 .188 0 .328-.025a17.343 17.343 0 0 0-.252-1.455c-.316.032-.496.244-.496.476 0 .176.1.364.324.492.02.02.028.04.028.06 0 .044-.04.088-.088.088-.06 0-.504-.248-.504-.748 0-.352.232-.696.64-.788a15.048 15.048 0 0 0-.184-.7c-.428.484-.852.972-.852 1.612zm.704-2.1c-.116-.383-.208-.68-.208-1.383 0-.46.22-.896.596-1.168a.06.06 0 0 1 .08 0c.272.32.532.98.532 1.431 0 .572-.344 1.02-.72 1.456.084.272.156.552.224.828.008 0 .028-.004.052-.004.62 0 1.024.512 1.024 1.044 0 .452-.296.848-.72.984.012.14.02.28.02.42 0 .076-.004.156-.008.232-.028.476-.352.9-.808.912l.004-.172c.372-.008.612-.368.636-.764a3.775 3.775 0 0 0-.008-.588c-.02.004-.176.032-.356.032-.772 0-1.332-.72-1.332-1.496 0-.708.524-1.224.992-1.764zm.712-1.451c0-.136.004-.264-.08-.516a1.153 1.153 0 0 0-.648 1.036c0 .207.048.46.144.775.32-.388.584-.792.584-1.296zm1.787.188c0-.032.02-.06.053-.072l.184-.068v-.632c0-.04.032-.076.072-.076s.076.036.076.076v.58l.332-.124V6.78c0-.04.036-.076.076-.076s.072.036.072.076v.58l.128-.048c.008-.004.02-.004.028-.004a.08.08 0 0 1 .08.08v.24c0 .032-.02.064-.052.076l-.184.064v.64l.128-.044c.008-.004.02-.004.028-.004a.08.08 0 0 1 .08.08v.24c0 .032-.02.06-.052.072l-.184.068v.632c0 .04-.032.076-.072.076s-.076-.036-.076-.076v-.58l-.332.124v.632c0 .04-.036.076-.076.076s-.072-.036-.072-.076v-.58l-.128.048c-.008.004-.02.004-.028.004a.08.08 0 0 1-.08-.08v-.24c0-.032.02-.064.052-.076l.184-.065V8l-.128.045c-.008.003-.02.003-.028.003a.08.08 0 0 1-.08-.08v-.24zm.717.096-.332.12v.64l.332-.12v-.64zm2.518 2.38c-.352 0-.36-.265-.576-.265-.12 0-.236.08-.248.22-.004.029-.024.045-.044.045-.024 0-.048-.016-.048-.044 0-.616.928-.68.928-1.376 0-.236-.064-.488-.268-.488-.1 0-.196.056-.196.148 0 .108.14.164.14.272a.277.277 0 0 1-.552 0c0-.304.288-.512.608-.512.38 0 .732.228.732.58 0 .604-.6.636-.984.88a.497.497 0 0 1 .108-.012c.332 0 .444.236.684.236.192 0 .152-.152.22-.152.024 0 .048.02.048.048 0 .088-.176.42-.552.42zm-.2 1.548h.468c0 .192.108.376.288.376.032 0 .048.02.048.044s-.016.048-.048.048c-.176 0-.348-.052-.524-.052s-.348.052-.524.052c-.032 0-.048-.024-.048-.048s.016-.044.048-.044c.18 0 .292-.184.292-.376zm-.792-.124c0-.048.56-.572.56-1.344 0-.04.028-.076.064-.064.092.028.188.052.284.052s.192-.024.284-.052c.056-.016.092.036.068.064l-1.136 1.32h.668v-.524c0-.136.136-.108.272-.288.088-.12.092-.224.144-.224.024 0 .052.02.052.056v.98h.288c.04 0 .06.028.06.056s-.02.06-.06.06h-.288v.032h-.468v-.032h-.668c-.092 0-.124-.056-.124-.092zm4.484 7.532c.264 0 .432.143.432.355 0 .356-.452.732-.872.732-.264 0-.432-.144-.432-.356 0-.356.452-.732.872-.732z"/>
    <text fill="currentColor" class="scale-degree" font-family="serif" font-size="2.2" transform="translate(15.845 24.492)">
<tspan>➃</tspan>
</text>
    <path fill="currentColor" d="M8.719 18.703c0-.112.092-.204.204-.204s.204.092.204.204-.092.204-.204.204-.204-.092-.204-.204zm0-1c0-.112.092-.204.204-.204s.204.092.204.204-.092.204-.204.204-.204-.092-.204-.204zm-1.3-.552c.688 0 1.172.352 1.172 1.004 0 1.052-1.052 1.656-2.064 2.084a.049.049 0 0 1-.036.016.053.053 0 0 1-.052-.052c0-.012.004-.024.016-.036.808-.472 1.648-1.06 1.648-1.972 0-.48-.252-.94-.684-.94-.296 0-.516.216-.616.504a.323.323 0 0 1 .136-.032c.22 0 .4.18.4.4 0 .232-.176.424-.4.424-.24 0-.448-.188-.448-.424 0-.532.408-.976.928-.976zm2.571.576c0-.032.02-.06.053-.072l.184-.068v-.632c0-.04.032-.076.072-.076s.076.036.076.076v.58l.332-.124v-.632c0-.04.036-.076.076-.076s.072.036.072.076v.58l.128-.048c.008-.004.02-.004.028-.004a.08.08 0 0 1 .08.08v.24c0 .032-.02.064-.052.076l-.184.064v.64l.128-.044c.008-.004.02-.004.028-.004a.08.08 0 0 1 .08.08v.24c0 .032-.02.06-.052.072l-.184.068v.632c0 .04-.032.076-.072.076s-.076-.036-.076-.076v-.58l-.332.124v.632c0 .04-.036.076-.076.076s-.072-.036-.072-.076v-.58l-.128.048c-.008.004-.02.004-.028.004a.08.08 0 0 1-.08-.08v-.24c0-.032.02-.064.052-.076l.184-.064V18l-.128.044c-.008.004-.02.004-.028.004a.08.08 0 0 1-.08-.08v-.24zm.717.096-.332.12v.64l.332-.12v-.64zm2.518 1.38c-.352 0-.36-.264-.576-.264-.12 0-.236.08-.248.22-.004.028-.024.044-.044.044-.024 0-.048-.016-.048-.044 0-.616.928-.68.928-1.376 0-.236-.064-.488-.268-.488-.1 0-.196.056-.196.148 0 .108.14.164.14.272a.277.277 0 0 1-.552 0c0-.304.288-.512.608-.512.38 0 .732.228.732.58 0 .604-.6.636-.984.88a.497.497 0 0 1 .108-.012c.332 0 .444.236.684.236.192 0 .152-.152.22-.152.024 0 .048.02.048.048 0 .088-.176.42-.552.42zm-.2 1.549h.468c0 .192.108.376.288.376.032 0 .048.02.048.044s-.016.048-.048.048c-.176 0-.348-.052-.524-.052s-.348.052-.524.052c-.032 0-.048-.024-.048-.048s.016-.044.048-.044c.18 0 .292-.184.292-.376zm-.792-.124c0-.048.56-.572.56-1.344 0-.04.028-.076.064-.064.092.028.188.052.284.052s.192-.024.284-.052c.056-.016.092.036.068.064l-1.136 1.32h.668v-.524c0-.136.136-.108.272-.288.088-.12.092-.224.144-.224.024 0 .052.02.052.056v.98h.288c.04 0 .06.028.06.056s-.02.06-.06.06h-.288v.032h-.468v-.032h-.668c-.092 0-.124-.056-.124-.092z"/>
    <rect width=".13" height="3.113" x="-.065" y="-1.314" fill="currentColor" ry=".04" transform="translate(15.91 10.204)"/>
    <rect width=".13" height="2.302" x="-.065" y=".686" fill="currentColor" ry=".04" transform="translate(15.91 19.203)"/>
    <path fill="currentColor" d="M19.221 7.66c.264 0 .432.143.432.355 0 .356-.452.732-.872.732-.264 0-.432-.144-.432-.356 0-.356.452-.732.872-.732z"/>
    <rect width=".13" height="3.211" x="-.065" y="-1.814" fill="currentColor" ry=".04" transform="translate(18.415 10.204)"/>
    <path fill="currentColor" stroke="currentColor" stroke-linecap="round" stroke-linejoin="round" stroke-width=".08" d="M91.582 15.003v.4l-6.555 2v-.4zm0 .811v.4l-6.555 2v-.4z"/>
    <path fill="currentColor" d="M20.021 18.16c.264 0 .432.143.432.355 0 .356-.452.732-.872.732-.264 0-.432-.144-.432-.356 0-.356.452-.732.872-.732z"/>
    <rect width=".13" height="2.696" x="-.065" y="-.314" fill="currentColor" ry=".04" transform="translate(19.215 19.203)"/>
    <path fill="currentColor" d="M21.622 7.16c.264 0 .432.143.432.355 0 .356-.452.732-.872.732-.264 0-.432-.144-.432-.356 0-.356.452-.732.872-.732z"/>
    <rect width=".13" height="3.324" x="-.065" y="-2.314" fill="currentColor" ry=".04" transform="translate(20.814 10.204)"/>
    <path fill="currentColor" d="M23.07 17.16c.264 0 .432.143.432.355 0 .356-.452.732-.872.732-.264 0-.432-.144-.432-.356 0-.356.452-.732.872-.732z"/>
    <rect width=".13" height="3.136" x="-.065" y="-1.314" fill="currentColor" ry=".04" transform="translate(22.264 19.203)"/>
    <path fill="currentColor" stroke="currentColor" stroke-linecap="round" stroke-linejoin="round" stroke-width=".08" d="M82.325 15.003v.4l-6.403 2v-.4zm0 .811v.4l-6.403 2v-.4z"/>
    <path fill="currentColor" d="M25.23 9.383c.317 0 .185.393.365.393.064 0 .216-.193.244-.253.024-.048.092-.048.112 0l-.492 1.68c-.032.028-.068.04-.108.04s-.08-.012-.112-.04l.468-1.304a1.272 1.272 0 0 1-.42.088c-.188 0-.348-.136-.348-.316a.29.29 0 0 1 .292-.288zm.593 9.777c.264 0 .432.143.432.355 0 .356-.452.732-.872.732-.264 0-.432-.144-.432-.356 0-.356.452-.732.872-.732z"/>
    <rect width=".13" height="2.302" x="-.065" y=".686" fill="currentColor" ry=".04" transform="translate(25.016 19.203)"/>
    <path fill="currentColor" d="M29.075 18.16c.264 0 .432.143.432.355 0 .356-.452.732-.872.732-.264 0-.432-.144-.432-.356 0-.356.452-.732.872-.732z"/>
    <rect width=".13" height="2.719" x="-.065" y="-.314" fill="currentColor" ry=".04" transform="translate(28.268 19.203)"/>
    <path fill="currentColor" stroke="currentColor" stroke-linecap="round" stroke-linejoin="round" stroke-width=".08" d="M57.435 11.884v.4H54.88v-.4zm2.4.81v.4H54.88v-.4zm0 .81v.4H54.88v-.4z"/>
    <path fill="currentColor" d="M32.327 17.16c.264 0 .432.143.432.355 0 .356-.452.732-.872.732-.264 0-.432-.144-.432-.356 0-.356.452-.732.872-.732z"/>
    <rect width=".13" height="3.136" x="-.065" y="-1.314" fill="currentColor" ry=".04" transform="translate(31.52 19.203)"/>
    <path fill="currentColor" d="M35.08 7.16c.264 0 .432.143.432.355 0 .356-.452.732-.872.732-.264 0-.432-.144-.432-.356 0-.356.452-.732.872-.732zm0 12.5c.264 0 .432.143.432.355 0 .356-.452.732-.872.732-.264 0-.432-.144-.432-.356 0-.356.452-.732.872-.732z"/>
    <text fill="currentColor" class="scale-degree" font-family="serif" font-size="2.2" transform="translate(34.208 25.682)">
<tspan>➂</tspan>
</text>
    <rect width=".13" height="3.311" x="-.065" y="-2.314" fill="currentColor" ry=".04" transform="translate(34.273 10.204)"/>
    <rect width=".13" height="2.99" x="-.065" y="1.186" fill="currentColor" ry=".04" transform="translate(34.273 19.203)"/>
    <path fill="currentColor" d="M37.584 6.66c.264 0 .432.143.432.355 0 .356-.452.732-.872.732-.264 0-.432-.144-.432-.356 0-.356.452-.732.872-.732z"/>
    <rect width=".13" height="3.717" x="-.065" y="-2.814" fill="currentColor" ry=".04" transform="translate(36.777 10.204)"/>
    <path fill="currentColor" stroke="currentColor" stroke-linecap="round" stroke-linejoin="round" stroke-width=".08" d="M71.715 15.503v.4l-6.555 1.5v-.4zm0 .811v.4l-6.555 1.5v-.4z"/>
    <path fill="currentColor" d="M38.384 18.66c.264 0 .432.143.432.355 0 .356-.452.732-.872.732-.264 0-.432-.144-.432-.356 0-.356.452-.732.872-.732z"/>
    <rect width=".13" height="3.287" x="-.065" y=".186" fill="currentColor" ry=".04" transform="translate(37.577 19.203)"/>
    <path fill="currentColor" d="M39.984 6.16c.264 0 .432.143.432.355 0 .356-.452.732-.872.732-.264 0-.432-.144-.432-.356 0-.356.452-.732.872-.732z"/>
    <rect width=".13" height="4.126" x="-.065" y="-3.314" fill="currentColor" ry=".04" transform="translate(39.177 10.204)"/>
    <path fill="currentColor" d="M41.433 17.16c.264 0 .432.143.432.355 0 .356-.452.732-.872.732-.264 0-.432-.144-.432-.356 0-.356.452-.732.872-.732z"/>
    <rect width=".13" height="4.138" x="-.065" y="-1.314" fill="currentColor" ry=".04" transform="translate(40.626 19.203)"/>
    <path fill="currentColor" stroke="currentColor" stroke-linecap="round" stroke-linejoin="round" stroke-width=".08" d="M62.458 15.503v.4l-6.403 1.5v-.4zm0 .811v.4l-6.403 1.5v-.4z"/>
    <path fill="currentColor" d="M43.593 9.383c.316 0 .184.393.364.393.064 0 .216-.193.244-.253.024-.048.092-.048.112 0l-.492 1.68c-.032.028-.068.04-.108.04s-.08-.012-.112-.04L44.07 9.9a1.272 1.272 0 0 1-.42.088c-.188 0-.348-.136-.348-.316a.29.29 0 0 1 .292-.288zm.592 10.277c.264 0 .432.143.432.355 0 .356-.452.732-.872.732-.264 0-.432-.144-.432-.356 0-.356.452-.732.872-.732z"/>
    <rect width=".13" height="2.99" x="-.065" y="1.186" fill="currentColor" ry=".04" transform="translate(43.378 19.203)"/>
    <path fill="currentColor" d="M47.437 18.66c.264 0 .432.143.432.355 0 .356-.452.732-.872.732-.264 0-.432-.144-.432-.356 0-.356.452-.732.872-.732z"/>
    <rect width=".13" height="3.314" x="-.065" y=".186" fill="currentColor" ry=".04" transform="translate(46.63 19.203)"/>
    <path fill="currentColor" stroke="currentColor" stroke-linecap="round" stroke-linejoin="round" stroke-width=".08" d="M36.802 9.284v.4l-2.554.1v-.4zm2.4.719v.4l-4.954.19v-.4zm0 .81v.4l-4.954.19v-.4z"/>
    <path fill="currentColor" d="M50.69 17.16c.264 0 .432.143.432.355 0 .356-.452.732-.872.732-.264 0-.432-.144-.432-.356 0-.356.452-.732.872-.732z"/>
    <rect width=".13" height="4.137" x="-.065" y="-1.314" fill="currentColor" ry=".04" transform="translate(49.883 19.203)"/>
    <path fill="currentColor" d="M53.484 8.814c.194 0 .328.112.328.277 0 .255-.3.502-.585.502-.193 0-.325-.112-.325-.277 0-.255.297-.502.582-.502z"/>
    <rect width=".16" height="13.1" y="-6.55" fill="currentColor" ry=".05" transform="translate(5.63 14.704)"/>
    <rect width=".13" height="2.486" x="-.065" y="-3.6" fill="currentColor" ry=".04" transform="translate(53.755 10.204)"/>
    <path fill="currentColor" d="M53.82 7.237v.597-.597c0 .32.238.563.409.826a.374.374 0 0 0 .016-.112c0-.263-.243-.526-.425-.714zm.322 1.78c0-.03.12-.206.12-.472s-.252-.527-.442-.711v.21h-.059v-1.4h.059c0 .495.563.812.563 1.307a.643.643 0 0 1-.065.269c.05.1.082.207.082.325 0 .176-.042.35-.115.51-.014.027-.04.036-.065.036-.039 0-.078-.028-.078-.073zM5.007 16.168c0-1.02-.528-1.452-.528-1.464 0-.073.528-.385.528-1.465 0-1.044-.432-1.956-.432-3.12 0-.756.18-1.464.708-2.004.06-.06.156.036.096.096-.396.396-.516.9-.516 1.44 0 1.02.408 1.92.408 3.06 0 .744-.18 1.452-.696 1.992.516.54.696 1.248.696 1.992 0 1.14-.408 2.04-.408 3.06 0 .54.12 1.044.516 1.44.06.06-.036.156-.096.096-.528-.54-.708-1.248-.708-2.004 0-1.164.432-2.076.432-3.12z"/>
    <path fill="currentColor" stroke="currentColor" stroke-linecap="round" stroke-linejoin="round" stroke-width=".08" d="M49.908 21.004v.4l-6.555 1.38v-.4zm0 .809v.4l-6.555 1.38v-.4z"/>
    <path fill="currentColor" d="M55.713 9.16c.264 0 .432.143.432.355 0 .356-.452.732-.872.732-.264 0-.432-.144-.432-.356 0-.356.452-.732.872-.732z"/>
    <text fill="currentColor" class="scale-degree" font-family="serif" font-size="2.2" transform="translate(54.84 7.416)">
<tspan>➍</tspan>
</text>
    <path fill="currentColor" d="M55.713 20.16c.264 0 .432.143.432.355 0 .356-.452.732-.872.732-.264 0-.432-.144-.432-.356 0-.356.452-.732.872-.732z"/>
    <text fill="currentColor" class="scale-degree" font-family="serif" font-size="2.2" transform="translate(54.84 23.302)">
<tspan>➁</tspan>
</text>
    <rect width=".13" height="3.814" x="-.065" y="-.314" fill="currentColor" ry=".04" transform="translate(54.906 10.204)"/>
    <path fill="currentColor" stroke="currentColor" stroke-linecap="round" stroke-linejoin="round" stroke-width=".08" d="M80.876 6.503v.4h-4.954v-.4zm0 .81v.4h-4.954v-.4zm-2.4.81v.4h-2.554v-.4z"/>
    <rect width=".13" height="3.329" x="-.065" y="-2.015" fill="currentColor" ry=".04" transform="translate(56.08 19.203)"/>
    <path fill="currentColor" d="M58.217 9.66c.264 0 .432.143.432.355 0 .356-.452.732-.872.732-.264 0-.432-.144-.432-.356 0-.356.452-.732.872-.732z"/>
    <rect width=".13" height="3.314" x="-.065" y=".186" fill="currentColor" ry=".04" transform="translate(57.41 10.204)"/>
    <path fill="currentColor" d="M59.017 19.16c.264 0 .432.143.432.355 0 .356-.452.732-.872.732-.264 0-.432-.144-.432-.356 0-.356.452-.732.872-.732z"/>
    <rect width=".13" height="3.093" x="-.065" y="-2.78" fill="currentColor" ry=".04" transform="translate(59.384 19.203)"/>
    <path fill="currentColor" stroke="currentColor" stroke-linecap="round" stroke-linejoin="round" stroke-width=".08" d="M40.65 21.004v.4l-6.402 1.38v-.4zm0 .809v.4l-6.402 1.38v-.4z"/>
    <path fill="currentColor" d="M60.617 9.16c.264 0 .432.143.432.355 0 .356-.452.732-.872.732-.264 0-.432-.144-.432-.356 0-.356.452-.732.872-.732z"/>
    <rect width=".13" height="3.814" x="-.065" y="-.314" fill="currentColor" ry=".04" transform="translate(59.81 10.204)"/>
    <path fill="currentColor" stroke="currentColor" stroke-linecap="round" stroke-linejoin="round" stroke-width=".08" d="M18.44 9.77v.4l-2.555.423v-.4zm2.4.424v.4l-4.955.81v-.4zm0 .81v.4l-4.955.81v-.4z"/>
    <path fill="currentColor" d="M62.066 17.66c.264 0 .432.143.432.355 0 .356-.452.732-.872.732-.264 0-.432-.144-.432-.356 0-.356.452-.732.872-.732z"/>
    <rect width=".13" height="2.299" x="-.065" y="-3.485" fill="currentColor" ry=".04" transform="translate(62.433 19.203)"/>
    <path fill="currentColor" d="M64.226 9.383c.316 0 .184.393.364.393.064 0 .216-.193.244-.253.024-.048.092-.048.112 0l-.492 1.68c-.032.028-.068.04-.108.04s-.08-.012-.112-.04l.468-1.304a1.272 1.272 0 0 1-.42.088c-.188 0-.348-.136-.348-.316a.29.29 0 0 1 .292-.288zm.592 10.777c.264 0 .432.143.432.355 0 .356-.452.732-.872.732-.264 0-.432-.144-.432-.356 0-.356.452-.732.872-.732z"/>
    <rect width=".13" height="3.329" x="-.065" y="-2.015" fill="currentColor" ry=".04" transform="translate(65.185 19.203)"/>
    <path fill="currentColor" d="M68.07 19.16c.264 0 .432.143.432.355 0 .356-.452.732-.872.732-.264 0-.432-.144-.432-.356 0-.356.452-.732.872-.732z"/>
    <rect width=".13" height="3.064" x="-.065" y="-2.75" fill="currentColor" ry=".04" transform="translate(68.438 19.203)"/>
    <path fill="currentColor" stroke="currentColor" stroke-linecap="round" stroke-linejoin="round" stroke-width=".08" d="M31.545 20.003v.4l-6.554 1.19v-.4zm0 .81v.4l-6.554 1.19v-.4z"/>
    <path fill="currentColor" d="M71.323 17.66c.264 0 .432.143.432.355 0 .356-.452.732-.872.732-.264 0-.432-.144-.432-.356 0-.356.452-.732.872-.732z"/>
    <rect width=".13" height="2.299" x="-.065" y="-3.485" fill="currentColor" ry=".04" transform="translate(71.69 19.203)"/>
    <path fill="currentColor" d="M73.352 9.314c.193 0 .327.112.327.277 0 .255-.3.502-.585.502-.193 0-.325-.112-.325-.277 0-.255.297-.502.583-.502z"/>
    <rect width=".13" height="2.486" x="-.065" y="-3.1" fill="currentColor" ry=".04" transform="translate(73.622 10.204)"/>
    <path fill="currentColor" d="M73.687 7.737v.597-.597c0 .32.238.563.409.826a.374.374 0 0 0 .016-.112c0-.263-.243-.526-.425-.714zm.322 1.78c0-.03.12-.206.12-.472s-.252-.527-.442-.711v.21h-.059v-1.4h.059c0 .495.563.812.563 1.307a.643.643 0 0 1-.065.269c.05.1.081.207.081.325 0 .176-.042.35-.114.51-.014.027-.04.036-.065.036-.039 0-.078-.028-.078-.073zm1.571.143c.264 0 .432.143.432.355 0 .356-.452.732-.872.732-.264 0-.432-.144-.432-.356 0-.356.452-.732.872-.732z"/>
    <text fill="currentColor" class="scale-degree" font-family="serif" font-size="2.2" transform="translate(74.708 5.726)">
<tspan>➌</tspan>
</text>
    <path fill="currentColor" d="M75.58 20.66c.264 0 .432.143.432.355 0 .356-.452.732-.872.732-.264 0-.432-.144-.432-.356 0-.356.452-.732.872-.732z"/>
    <text fill="currentColor" class="scale-degree" font-family="serif" font-size="2.2" transform="translate(74.708 23.797)">
<tspan>➀</tspan>
</text>
    <rect width=".13" height="3.314" x="-.065" y="-3.5" fill="currentColor" ry=".04" transform="translate(75.947 10.204)"/>
    <rect width=".13" height="3.834" x="-.065" y="-2.02" fill="currentColor" ry=".04" transform="translate(75.947 19.203)"/>
    <path fill="currentColor" stroke="currentColor" stroke-linecap="round" stroke-linejoin="round" stroke-width=".08" d="M22.288 20.003v.4l-6.403 1.19v-.4zm0 .81v.4l-6.403 1.19v-.4z"/>
    <path fill="currentColor" d="M78.084 10.16c.264 0 .432.143.432.355 0 .356-.452.732-.872.732-.264 0-.432-.144-.432-.356 0-.356.452-.732.872-.732z"/>
    <rect width=".13" height="3.814" x="-.065" y="-3.5" fill="currentColor" ry=".04" transform="translate(78.451 10.204)"/>
    <path fill="currentColor" d="M78.884 18.66c.264 0 .432.143.432.355 0 .356-.452.732-.872.732-.264 0-.432-.144-.432-.356 0-.356.452-.732.872-.732z"/>
    <rect width=".13" height="2.853" x="-.065" y="-3.039" fill="currentColor" ry=".04" transform="translate(79.251 19.203)"/>
    <path fill="currentColor" d="M80.484 9.66c.264 0 .432.143.432.355 0 .356-.452.732-.872.732-.264 0-.432-.144-.432-.356 0-.356.452-.732.872-.732z"/>
    <rect width=".13" height="3.314" x="-.065" y="-3.5" fill="currentColor" ry=".04" transform="translate(80.851 10.204)"/>
    <path fill="currentColor" d="M81.933 17.16c.264 0 .432.143.432.355 0 .356-.452.732-.872.732-.264 0-.432-.144-.432-.356 0-.356.452-.732.872-.732z"/>
    <rect width=".13" height="2.294" x="-.065" y="-3.98" fill="currentColor" ry=".04" transform="translate(82.3 19.203)"/>
    <path fill="currentColor" d="M84.093 9.383c.316 0 .184.393.364.393.064 0 .216-.193.244-.253.024-.048.092-.048.112 0l-.492 1.68c-.032.028-.068.04-.108.04s-.08-.012-.112-.04L84.57 9.9a1.272 1.272 0 0 1-.42.088c-.188 0-.348-.136-.348-.316a.29.29 0 0 1 .292-.288zm.592 11.277c.264 0 .432.143.432.355 0 .356-.452.732-.872.732-.264 0-.432-.144-.432-.356 0-.356.452-.732.872-.732z"/>
    <rect width=".13" height="3.833" x="-.065" y="-2.02" fill="currentColor" ry=".04" transform="translate(85.052 19.203)"/>
    <path fill="currentColor" d="M87.937 18.66c.264 0 .432.143.432.355 0 .356-.452.732-.872.732-.264 0-.432-.144-.432-.356 0-.356.452-.732.872-.732z"/>
    <rect width=".13" height="2.814" x="-.065" y="-3" fill="currentColor" ry=".04" transform="translate(88.305 19.203)"/>
    <path fill="currentColor" d="M91.19 17.16c.264 0 .432.143.432.355 0 .356-.452.732-.872.732-.264 0-.432-.144-.432-.356 0-.356.452-.732.872-.732z"/>
    <rect width=".13" height="2.294" x="-.065" y="-3.98" fill="currentColor" ry=".04" transform="translate(91.557 19.203)"/>
</svg>
