<svg xmlns="http://www.w3.org/2000/svg" xmlns:xlink="http://www.w3.org/1999/xlink" width="793.701" height="402.482" version="1.2" viewBox="0 0 119.502 60.599">
    <defs>
        <path id="reuse-0" fill="currentColor" d="M218 136c66 0 108-36 108-89 0-89-113-183-218-183C42-136 0-100 0-47c0 89 113 183 218 183z"/>
        <path id="reuse-1" fill="currentColor" d="M266-635h-6c-108 0-195 88-195 197 0 58 53 103 112 103 54 0 95-47 95-103 0-52-43-95-95-95-11 0-21 2-31 6 26-39 68-65 117-65h4zm195 432c68 24 113 90 113 164 0 90-66 179-173 190 19-89 48-242 60-354zM74 28c0-145 141-247 264-247 1 0 47 0 82 6-7 64-29 203-63 364-79-8-124-61-124-119 0-44 25-91 81-123 5-5 7-10 7-15 0-11-10-22-22-22-15 0-126 62-126 187 0 88 58 174 160 197-14 58-29 117-46 175C180 310 74 188 74 28zm176 525c-29 96-52 170-52 346 0 115 55 224 149 292 6 5 14 5 20 0 68-80 133-245 133-358 0-143-86-255-180-364 21-68 39-138 56-207 2 0 7 1 13 1 155 0 256-128 256-261 0-113-74-212-180-246 3-35 5-70 5-105 0-19-1-39-2-58-7-119-88-225-202-228l1 43c93 2 153 92 159 191 1 18 2 37 2 55 0 31-1 61-4 92-5-1-44-8-89-8C142-262 2-82 2 112c0 177 131 306 248 441zm178 363c0 34 1 66-20 129-99-48-162-149-162-259 0-52 12-115 36-194 80 97 146 198 146 324z"/>
        <path id="reuse-2" fill="currentColor" d="M0 119c0 8 5 15 13 18l46 17v158c0 10 8 19 18 19s19-9 19-19V167l83 31v158c0 10 9 19 19 19s18-9 18-19V211l32 12c2 1 5 1 7 1 11 0 20-9 20-20v-60c0-8-5-16-13-19l-46-16V-51l32 11c2 1 5 1 7 1 11 0 20-9 20-20v-60c0-8-5-15-13-18l-46-17v-158c0-10-8-19-18-19s-19 9-19 19v145l-83-31v-158c0-10-9-19-19-19s-18 9-18 19v145l-32-12c-2-1-5-1-7-1-11 0-20 9-20 20v60c0 8 5 16 13 19l46 16V51L27 40c-2-1-5-1-7-1C9 39 0 48 0 59v60zm179-24L96 65V-95l83 30V95z"/>
        <path id="reuse-3" fill="currentColor" d="M250 262c116 0 176-106 176-163 0-40-30-72-67-72-31 0-75 25-75 75 0 38 27 77 72 77 4 0 9 0 14-1-28 37-72 59-120 59-106 0-113-73-113-186V-51c0-113 7-187 113-187 80 0 139 70 158 151 2 7 7 10 12 10 6 0 13-4 13-12 0-22-50-174-183-174C191-263 0-244 0 0c0 62 18 262 250 262z"/>
        <path id="reuse-4" fill="currentColor" d="M557-125c0 28 23 51 51 51s51-23 51-51-23-51-51-51-51 23-51 51zm0 250c0 28 23 51 51 51s51-23 51-51-23-51-51-51-51 23-51 51zM232 263c172 0 293-88 293-251 0-263-263-414-516-521-3-3-6-4-9-4-7 0-13 6-13 13 0 3 1 6 4 9C193-373 403-226 403 2c0 120-63 235-171 235-74 0-129-54-154-126 11 5 22 8 34 8 55 0 100-45 100-100 0-58-44-106-100-106C52-87 0-40 0 19c0 133 102 244 232 244z"/>
        <path id="reuse-5" fill="currentColor" d="M208 139c69 0 117-40 117-99 0-91-107-179-209-179C47-139 0-99 0-40c0 91 106 179 208 179z"/>
        <path id="reuse-6" fill="currentColor" d="M-6 78c0 59 124 83 124 182 0 24-8 49-25 69l-35 42c-3 3-4 7-4 10 0 9 9 15 17 15 4 0 8-1 11-5l151-180c7-9 10-17 10-25 0-59-124-83-124-182 0-24 7-49 24-69l84-99c3-3 4-7 4-10 0-9-8-16-16-16s-45 44-109 44c-16 0-53 0-53-67 0-35 11-74 28-94 7-8-5-19-12-11-45 54-92 148-92 202 0 41 27 42 40 42 33 0 78-13 119-31L4 53C-3 62-6 70-6 78z"/>
        <path id="reuse-7" fill="currentColor" d="M365-156H10c-6 0-10 4-10 10v136C0-4 4 0 10 0h355c6 0 10-4 10-10v-136c0-6-4-10-10-10z"/>
        <path id="reuse-8" fill="currentColor" d="M0-212v-213 213c0-114 85-201 146-295 4 13 6 26 6 40 0 94-87 188-152 255zm115-636c0 11 43 74 43 169S68-491 0-425v-75h-21V0H0c0-177 201-290 201-467 0-33-9-66-23-96 18-36 29-74 29-116 0-63-15-125-41-182-5-10-14-13-23-13-14 0-28 10-28 26z"/>
        <path id="reuse-9" fill="currentColor" d="m-13 0-37 200c0 2-1 5-1 7 0 24 24 43 51 43s51-19 51-43c0-2-1-5-1-7L13 0C12-7 7-13 0-13S-12-7-13 0z"/>
        <path id="reuse-10" fill="currentColor" d="M-81-366C-81-111-213-3-213 0c0 18 132 96 132 366 0 261-108 489-108 780 0 189 45 366 177 501 15 15 39-9 24-24-99-99-129-225-129-360 0-255 102-480 102-765 0-186-45-363-174-498C-60-135-15-312-15-498c0-285-102-510-102-765 0-135 30-261 129-360 15-15-9-39-24-24-132 135-177 312-177 501 0 291 108 519 108 780z"/>
        <path id="reuse-11" fill="currentColor" d="M207 226c-44 0-46-40-46-92s2-91 46-91c46 0 55 38 55 91s-9 92-55 92zm-46 31c14 8 29 12 46 12 103 0 177-41 177-135S310 0 207 0C93 0 31 124 31 250c0 129 77 250 197 250 75 0 141-52 141-123 0-32-26-58-58-58s-58 26-58 58c0 21 35 23 35 44 0 26-31 36-60 36-61 0-69-60-69-129 0-23 2-48 2-71z"/>
    </defs>
    <style>
        tspan{white-space:pre}
    </style>
    <text fill="currentColor" font-family="serif" font-size="2.47" font-weight="bold" transform="translate(5.69 5.514)">
<tspan>Allegro</tspan>
</text>
    <rect width="1.377" height=".2" x="58.202" y="-.1" fill="currentColor" ry=".1" transform="translate(5.69 9.881)"/>
    <rect width="1.956" height=".2" x="54.321" y="-.1" fill="currentColor" ry=".1" transform="translate(5.69 9.881)"/>
    <rect width="1.956" height=".2" x="49.624" y="-.1" fill="currentColor" ry=".1" transform="translate(5.69 9.881)"/>
    <rect width="1.956" height=".2" x="44.927" y="-.1" fill="currentColor" ry=".1" transform="translate(5.69 9.881)"/>
    <rect width="1.956" height=".2" x="41.454" y="-.1" fill="currentColor" ry=".1" transform="translate(5.69 9.881)"/>
    <rect width="1.956" height=".2" x="39.019" y="-.1" fill="currentColor" ry=".1" transform="translate(5.69 8.881)"/>
    <rect width="1.956" height=".2" x="39.019" y="-.1" fill="currentColor" ry=".1" transform="translate(5.69 9.881)"/>
    <rect width="1.821" height=".2" x="35.588" y="-.1" fill="currentColor" ry=".1" transform="translate(5.69 8.881)"/>
    <rect width="1.821" height=".2" x="35.588" y="-.1" fill="currentColor" ry=".1" transform="translate(5.69 9.881)"/>
    <rect width="1.294" height=".2" x="34.193" y="-.1" fill="currentColor" ry=".1" transform="translate(5.69 8.881)"/>
    <rect width="1.294" height=".2" x="34.193" y="-.1" fill="currentColor" ry=".1" transform="translate(5.69 9.881)"/>
    <rect width="1.334" height=".2" x="32.76" y="-.1" fill="currentColor" ry=".1" transform="translate(5.69 9.881)"/>
    <rect width="1.956" height=".2" x="28.954" y="-.1" fill="currentColor" ry=".1" transform="translate(5.69 8.881)"/>
    <rect width="1.956" height=".2" x="28.954" y="-.1" fill="currentColor" ry=".1" transform="translate(5.69 9.881)"/>
    <rect width="1.956" height=".2" x="24.257" y="-.1" fill="currentColor" ry=".1" transform="translate(5.69 8.881)"/>
    <rect width="1.956" height=".2" x="24.257" y="-.1" fill="currentColor" ry=".1" transform="translate(5.69 9.881)"/>
    <rect width="1.956" height=".2" x="19.56" y="-.1" fill="currentColor" ry=".1" transform="translate(5.69 8.881)"/>
    <rect width="1.956" height=".2" x="19.56" y="-.1" fill="currentColor" ry=".1" transform="translate(5.69 9.881)"/>
    <path stroke="currentColor" stroke-linecap="round" stroke-linejoin="round" stroke-width=".1" d="M14.276 14.881h99.485m-99.485-1h99.485m-99.485-1h99.485m-99.485-1h99.485m-99.485-1h99.485"/>
    <rect width=".19" height="4.95" y="38.384" fill="currentColor" ry="0" transform="translate(113.621 6.547)"/>
    <rect width=".19" height="6.45" y="17.384" fill="currentColor" ry="0" transform="translate(113.621 6.547)"/>
    <rect width=".19" height="4.95" y="8.384" fill="currentColor" ry="0" transform="translate(113.621 6.547)"/>
    <rect width="1.956" height=".2" x="105.419" y="-.1" fill="currentColor" ry=".1" transform="translate(5.69 18.881)"/>
    <rect width="1.956" height=".2" x="100.549" y="-.1" fill="currentColor" ry=".1" transform="translate(5.69 18.881)"/>
    <rect width="1.956" height=".2" x="94.124" y="-.1" fill="currentColor" ry=".1" transform="translate(5.69 18.881)"/>
    <rect width="1.956" height=".2" x="89.254" y="-.1" fill="currentColor" ry=".1" transform="translate(5.69 18.881)"/>
    <rect width="1.956" height=".2" x="84.383" y="-.1" fill="currentColor" ry=".1" transform="translate(5.69 18.881)"/>
    <rect width="1.956" height=".2" x="79.513" y="-.1" fill="currentColor" ry=".1" transform="translate(5.69 18.881)"/>
    <path stroke="currentColor" stroke-linecap="round" stroke-linejoin="round" stroke-width=".1" d="M14.276 23.881h99.485m-99.485-1h99.485m-99.485-1h99.485m-99.485-1h99.485m-99.485-1h99.485"/>
    <rect width=".19" height="4.95" y="8.384" fill="currentColor" ry="0" transform="translate(113.621 6.547)"/>
    <rect width=".19" height="4.05" y="-2.05" fill="currentColor" ry="0" transform="translate(113.621 51.881)"/>
    <rect width=".19" height="4.05" y="-2" fill="currentColor" ry="0" transform="translate(113.621 42.881)"/>
    <rect width=".19" height="4.05" y="-2.05" fill="currentColor" ry="0" transform="translate(113.621 32.381)"/>
    <path stroke="currentColor" stroke-linecap="round" stroke-linejoin="round" stroke-width=".1" d="M14.276 34.381h99.485m-99.485-1h99.485m-99.485-1h99.485m-99.485-1h99.485m-99.485-1h99.485"/>
    <rect width=".19" height="4.1" y="-2.05" fill="currentColor" ry="0" transform="translate(113.621 21.881)"/>
    <rect width=".19" height="4.05" y="-2" fill="currentColor" ry="0" transform="translate(113.621 12.881)"/>
    <rect width=".19" height="4.95" y="38.384" fill="currentColor" ry="0" transform="translate(74.267 6.547)"/>
    <rect width=".19" height="6.45" y="17.384" fill="currentColor" ry="0" transform="translate(74.267 6.547)"/>
    <rect width=".19" height="4.95" y="8.384" fill="currentColor" ry="0" transform="translate(74.267 6.547)"/>
    <rect width=".19" height="4.95" y="8.384" fill="currentColor" ry="0" transform="translate(74.267 6.547)"/>
    <path stroke="currentColor" stroke-linecap="round" stroke-linejoin="round" stroke-width=".1" d="M14.276 44.881h99.485m-99.485-1h99.485m-99.485-1h99.485m-99.485-1h99.485m-99.485-1h99.485"/>
    <rect width=".19" height="4.05" y="-2.05" fill="currentColor" ry="0" transform="translate(74.267 51.881)"/>
    <path stroke="currentColor" stroke-linecap="round" stroke-linejoin="round" stroke-width=".1" d="M14.276 53.881h99.485m-99.485-1h99.485m-99.485-1h99.485m-99.485-1h99.485m-99.485-1h99.485"/>
    <rect width=".19" height="4.05" y="-2" fill="currentColor" ry="0" transform="translate(74.267 42.881)"/>
    <rect width=".19" height="4.05" y="-2.05" fill="currentColor" ry="0" transform="translate(74.267 32.381)"/>
    <rect width=".19" height="4.1" y="-2.05" fill="currentColor" ry="0" transform="translate(74.267 21.881)"/>
    <rect width=".19" height="4.05" y="-2" fill="currentColor" ry="0" transform="translate(74.267 12.881)"/>
    <rect width=".19" height="4.95" y="38.384" fill="currentColor" ry="0" transform="translate(49.763 6.547)"/>
    <rect width=".19" height="6.45" y="17.384" fill="currentColor" ry="0" transform="translate(49.763 6.547)"/>
    <rect width=".19" height="4.95" y="8.384" fill="currentColor" ry="0" transform="translate(49.763 6.547)"/>
    <rect width=".19" height="4.95" y="8.384" fill="currentColor" ry="0" transform="translate(49.763 6.547)"/>
    <rect width=".19" height="4.05" y="-2.05" fill="currentColor" ry="0" transform="translate(49.763 51.881)"/>
    <rect width=".19" height="4.05" y="-2" fill="currentColor" ry="0" transform="translate(49.763 42.881)"/>
    <rect width=".19" height="4.05" y="-2.05" fill="currentColor" ry="0" transform="translate(49.763 32.381)"/>
    <rect width=".19" height="4.1" y="-2.05" fill="currentColor" ry="0" transform="translate(49.763 21.881)"/>
    <rect width=".19" height="4.05" y="-2" fill="currentColor" ry="0" transform="translate(49.763 12.881)"/>
    <use xlink:href="#reuse-0" transform="matrix(.004 0 0 -.004 25.576 10.881)"/>
    <use xlink:href="#reuse-0" transform="matrix(.004 0 0 -.004 25.576 8.381)"/>
    <use xlink:href="#reuse-1" transform="matrix(.004 0 0 -.004 15.026 13.881)"/>
    <use xlink:href="#reuse-2" transform="matrix(.004 0 0 -.004 18.526 10.881)"/>
    <use xlink:href="#reuse-2" transform="matrix(.004 0 0 -.004 19.626 12.381)"/>
    <use xlink:href="#reuse-3" transform="matrix(.004 0 0 -.004 21.876 12.881)"/>
    <use xlink:href="#reuse-0" transform="matrix(.004 0 0 -.004 25.576 24.381)"/>
    <use xlink:href="#reuse-0" transform="matrix(.004 0 0 -.004 25.576 22.381)"/>
    <use xlink:href="#reuse-0" transform="matrix(.004 0 0 -.004 25.576 19.881)"/>
    <use xlink:href="#reuse-1" transform="matrix(.004 0 0 -.004 15.026 22.881)"/>
    <use xlink:href="#reuse-2" transform="matrix(.004 0 0 -.004 18.526 19.881)"/>
    <use xlink:href="#reuse-2" transform="matrix(.004 0 0 -.004 19.626 21.381)"/>
    <use xlink:href="#reuse-3" transform="matrix(.004 0 0 -.004 21.876 21.881)"/>
    <use xlink:href="#reuse-0" transform="matrix(.004 0 0 -.004 25.576 32.381)"/>
    <use xlink:href="#reuse-4" transform="matrix(.004 0 0 -.004 15.026 31.381)"/>
    <use xlink:href="#reuse-2" transform="matrix(.004 0 0 -.004 18.526 31.381)"/>
    <use xlink:href="#reuse-2" transform="matrix(.004 0 0 -.004 19.626 32.881)"/>
    <use xlink:href="#reuse-3" transform="matrix(.004 0 0 -.004 21.876 32.381)"/>
    <use xlink:href="#reuse-1" transform="matrix(.004 0 0 -.004 15.026 43.881)"/>
    <use xlink:href="#reuse-2" transform="matrix(.004 0 0 -.004 18.526 40.881)"/>
    <use xlink:href="#reuse-2" transform="matrix(.004 0 0 -.004 19.626 42.381)"/>
    <use xlink:href="#reuse-3" transform="matrix(.004 0 0 -.004 21.876 42.881)"/>
    <use xlink:href="#reuse-0" transform="matrix(.004 0 0 -.004 25.576 51.881)"/>
    <use xlink:href="#reuse-4" transform="matrix(.004 0 0 -.004 15.026 50.881)"/>
    <use xlink:href="#reuse-2" transform="matrix(.004 0 0 -.004 18.526 50.881)"/>
    <use xlink:href="#reuse-2" transform="matrix(.004 0 0 -.004 19.626 52.381)"/>
    <use xlink:href="#reuse-3" transform="matrix(.004 0 0 -.004 21.876 51.881)"/>
    <rect width=".13" height="9.314" x="-.065" y="-4.314" fill="currentColor" ry=".04" transform="translate(25.641 12.881)"/>
    <rect width=".13" height="6.981" x="-.065" y="-4.667" fill="currentColor" ry=".04" transform="translate(26.816 21.881)"/>
    <rect width=".13" height="3.147" x="-.065" y=".186" fill="currentColor" ry=".04" transform="translate(25.641 32.381)"/>
    <rect width=".13" height="3.147" x="-.065" y=".186" fill="currentColor" ry=".04" transform="translate(25.641 51.881)"/>
    <path fill="currentColor" stroke="currentColor" stroke-linecap="round" stroke-linejoin="round" stroke-width=".08" d="M108.84 53.871v.4l-16.215-.38v-.4z"/>
    <use xlink:href="#reuse-0" transform="matrix(.004 0 0 -.004 30.274 15.381)"/>
    <use xlink:href="#reuse-0" transform="matrix(.004 0 0 -.004 30.274 10.881)"/>
    <use xlink:href="#reuse-0" transform="matrix(.004 0 0 -.004 30.274 8.381)"/>
    <use xlink:href="#reuse-0" transform="matrix(.004 0 0 -.004 30.274 24.381)"/>
    <use xlink:href="#reuse-0" transform="matrix(.004 0 0 -.004 30.274 22.381)"/>
    <use xlink:href="#reuse-0" transform="matrix(.004 0 0 -.004 30.274 19.881)"/>
    <use xlink:href="#reuse-0" transform="matrix(.004 0 0 -.004 30.274 32.381)"/>
    <use xlink:href="#reuse-0" transform="matrix(.004 0 0 -.004 30.274 51.881)"/>
    <rect width=".13" height="9.314" x="-.065" y="-4.314" fill="currentColor" ry=".04" transform="translate(30.339 12.881)"/>
    <rect width=".13" height="6.981" x="-.065" y="-4.667" fill="currentColor" ry=".04" transform="translate(31.513 21.881)"/>
    <rect width=".13" height="3.147" x="-.065" y=".186" fill="currentColor" ry=".04" transform="translate(30.339 32.381)"/>
    <rect width=".13" height="3.147" x="-.065" y=".186" fill="currentColor" ry=".04" transform="translate(30.339 51.881)"/>
    <path fill="currentColor" stroke="currentColor" stroke-linecap="round" stroke-linejoin="round" stroke-width=".08" d="M108.84 34.371v.4l-16.215-.38v-.4z"/>
    <use xlink:href="#reuse-0" transform="matrix(.004 0 0 -.004 34.97 15.381)"/>
    <use xlink:href="#reuse-0" transform="matrix(.004 0 0 -.004 34.97 10.881)"/>
    <use xlink:href="#reuse-0" transform="matrix(.004 0 0 -.004 34.97 8.381)"/>
    <use xlink:href="#reuse-0" transform="matrix(.004 0 0 -.004 34.97 24.381)"/>
    <use xlink:href="#reuse-0" transform="matrix(.004 0 0 -.004 34.97 22.381)"/>
    <use xlink:href="#reuse-0" transform="matrix(.004 0 0 -.004 34.97 19.881)"/>
    <use xlink:href="#reuse-0" transform="matrix(.004 0 0 -.004 34.97 32.381)"/>
    <use xlink:href="#reuse-0" transform="matrix(.004 0 0 -.004 34.97 51.881)"/>
    <rect width=".13" height="9.314" x="-.065" y="-4.314" fill="currentColor" ry=".04" transform="translate(35.036 12.881)"/>
    <rect width=".13" height="6.981" x="-.065" y="-4.667" fill="currentColor" ry=".04" transform="translate(36.21 21.881)"/>
    <rect width=".13" height="3.147" x="-.065" y=".186" fill="currentColor" ry=".04" transform="translate(35.036 32.381)"/>
    <rect width=".13" height="3.147" x="-.065" y=".186" fill="currentColor" ry=".04" transform="translate(35.036 51.881)"/>
    <path fill="currentColor" stroke="currentColor" stroke-linecap="round" stroke-linejoin="round" stroke-width=".08" d="M111.526 24.371v.4h-7.606v-.4zm0 .81v.4h-7.606v-.4z"/>
    <use xlink:href="#reuse-5" transform="matrix(.0028 0 0 -.0028 38.68 9.381)"/>
    <rect width=".13" height="2.256" x="-.065" y="-5.87" fill="currentColor" ry=".04" transform="translate(39.533 12.881)"/>
    <path fill="currentColor" stroke="currentColor" stroke-linecap="round" stroke-linejoin="round" stroke-width=".08" d="M100.23 24.371v.4h-7.605v-.4zm0 .81v.4h-7.605v-.4z"/>
    <use xlink:href="#reuse-5" transform="matrix(.0028 0 0 -.0028 40.07 8.881)"/>
    <rect width=".13" height="2.015" x="-.065" y="-6.13" fill="currentColor" ry=".04" transform="translate(40.923 12.881)"/>
    <path fill="currentColor" stroke="currentColor" stroke-linecap="round" stroke-linejoin="round" stroke-width=".08" d="M102.1 13.561v.4l-1.92.105v-.4zm0 .81v.4l-1.92.105v-.4zm0 .81v.4l-9.475.5v-.4z"/>
    <use xlink:href="#reuse-0" transform="matrix(.004 0 0 -.004 41.469 8.381)"/>
    <use xlink:href="#reuse-6" transform="matrix(.004 0 0 -.004 41.469 21.881)"/>
    <use xlink:href="#reuse-6" transform="matrix(.004 0 0 -.004 41.469 32.381)"/>
    <use xlink:href="#reuse-6" transform="matrix(.004 0 0 -.004 41.469 51.881)"/>
    <rect width=".13" height="4.314" x="-.065" y="-4.314" fill="currentColor" ry=".04" transform="translate(41.534 12.881)"/>
    <use xlink:href="#reuse-0" transform="matrix(.004 0 0 -.004 45.035 8.881)"/>
    <rect width=".13" height="3.814" x="-.065" y="-3.814" fill="currentColor" ry=".04" transform="translate(45.1 12.881)"/>
    <use xlink:href="#reuse-0" transform="matrix(.004 0 0 -.004 47.47 9.381)"/>
    <rect width=".13" height="3.314" x="-.065" y="-3.314" fill="currentColor" ry=".04" transform="translate(47.535 12.881)"/>
    <path fill="currentColor" stroke="currentColor" stroke-linecap="round" stroke-linejoin="round" stroke-width=".08" d="M87.805 53.871v.4l-12.303.62v-.4zm0-19.5v.4l-12.303.62v-.4z"/>
    <use xlink:href="#reuse-0" transform="matrix(.004 0 0 -.004 50.944 9.881)"/>
    <use xlink:href="#reuse-0" transform="matrix(.004 0 0 -.004 25.576 15.381)"/>
    <use xlink:href="#reuse-0" transform="matrix(.004 0 0 -.004 50.944 24.381)"/>
    <use xlink:href="#reuse-0" transform="matrix(.004 0 0 -.004 50.944 22.381)"/>
    <use xlink:href="#reuse-0" transform="matrix(.004 0 0 -.004 50.944 19.881)"/>
    <path fill="currentColor" stroke="currentColor" stroke-linecap="round" stroke-linejoin="round" stroke-width=".08" d="M90.49 24.371v.4h-7.606v-.4zm0 .81v.4h-7.606v-.4z"/>
    <use xlink:href="#reuse-0" transform="matrix(.004 0 0 -.004 50.944 32.381)"/>
    <use xlink:href="#reuse-0" transform="matrix(.004 0 0 -.004 50.944 51.881)"/>
    <use xlink:href="#reuse-7" transform="matrix(.004 0 0 -.004 93.29 41.881)"/>
    <rect width=".13" height="3.314" x="-.065" y="-2.814" fill="currentColor" ry=".04" transform="translate(51.008 12.881)"/>
    <rect width=".13" height="6.981" x="-.065" y="-4.667" fill="currentColor" ry=".04" transform="translate(52.183 21.881)"/>
    <rect width=".13" height="3.147" x="-.065" y=".186" fill="currentColor" ry=".04" transform="translate(51.008 32.381)"/>
    <rect width=".13" height="3.147" x="-.065" y=".186" fill="currentColor" ry=".04" transform="translate(51.008 51.881)"/>
    <rect width=".16" height="43.1" y="-21.55" fill="currentColor" ry=".05" transform="translate(14.166 32.381)"/>
    <use xlink:href="#reuse-0" transform="matrix(.004 0 0 -.004 55.64 13.381)"/>
    <use xlink:href="#reuse-0" transform="matrix(.004 0 0 -.004 55.64 9.881)"/>
    <use xlink:href="#reuse-0" transform="matrix(.004 0 0 -.004 55.64 24.381)"/>
    <use xlink:href="#reuse-0" transform="matrix(.004 0 0 -.004 55.64 22.381)"/>
    <use xlink:href="#reuse-0" transform="matrix(.004 0 0 -.004 55.64 19.881)"/>
    <use xlink:href="#reuse-0" transform="matrix(.004 0 0 -.004 55.64 32.381)"/>
    <use xlink:href="#reuse-0" transform="matrix(.004 0 0 -.004 55.64 51.881)"/>
    <rect width=".13" height="6.481" x="-.065" y="-2.814" fill="currentColor" ry=".04" transform="translate(55.706 12.881)"/>
    <rect width=".13" height="6.981" x="-.065" y="-4.667" fill="currentColor" ry=".04" transform="translate(56.88 21.881)"/>
    <rect width=".13" height="3.147" x="-.065" y=".186" fill="currentColor" ry=".04" transform="translate(55.706 32.381)"/>
    <rect width=".13" height="3.147" x="-.065" y=".186" fill="currentColor" ry=".04" transform="translate(55.706 51.881)"/>
    <path fill="currentColor" stroke="currentColor" stroke-linecap="round" stroke-linejoin="round" stroke-width=".08" d="M93.191 11.336c1.572-1.607 7.551-2.241 9.426-1h0c-1.862-1.122-7.841-.488-9.426 1z"/>
    <use xlink:href="#reuse-0" transform="matrix(.004 0 0 -.004 60.338 13.381)"/>
    <use xlink:href="#reuse-0" transform="matrix(.004 0 0 -.004 60.338 9.881)"/>
    <use xlink:href="#reuse-0" transform="matrix(.004 0 0 -.004 60.338 24.381)"/>
    <use xlink:href="#reuse-0" transform="matrix(.004 0 0 -.004 60.338 22.381)"/>
    <use xlink:href="#reuse-0" transform="matrix(.004 0 0 -.004 60.338 19.881)"/>
    <use xlink:href="#reuse-0" transform="matrix(.004 0 0 -.004 60.338 32.381)"/>
    <use xlink:href="#reuse-0" transform="matrix(.004 0 0 -.004 60.338 51.881)"/>
    <rect width=".13" height="6.481" x="-.065" y="-2.814" fill="currentColor" ry=".04" transform="translate(60.403 12.881)"/>
    <rect width=".13" height="6.981" x="-.065" y="-4.667" fill="currentColor" ry=".04" transform="translate(61.577 21.881)"/>
    <rect width=".13" height="3.147" x="-.065" y=".186" fill="currentColor" ry=".04" transform="translate(60.403 32.381)"/>
    <rect width=".13" height="3.147" x="-.065" y=".186" fill="currentColor" ry=".04" transform="translate(60.403 51.881)"/>
    <use xlink:href="#reuse-5" transform="matrix(.0028 0 0 -.0028 64.122 9.881)"/>
    <use xlink:href="#reuse-5" transform="matrix(.0028 0 0 -.0028 64.122 19.881)"/>
    <rect width=".13" height="2.486" x="-.065" y="-5.6" fill="currentColor" ry=".04" transform="translate(64.975 12.881)"/>
    <use xlink:href="#reuse-8" transform="matrix(.0028 0 0 -.0028 65.04 7.321)"/>
    <rect width=".13" height="2.486" x="-.065" y="-4.6" fill="currentColor" ry=".04" transform="translate(64.975 21.881)"/>
    <use xlink:href="#reuse-8" transform="matrix(.0028 0 0 -.0028 65.04 17.321)"/>
    <use xlink:href="#reuse-0" transform="matrix(.004 0 0 -.004 66.033 10.381)"/>
    <use xlink:href="#reuse-0" transform="matrix(.004 0 0 -.004 66.033 20.381)"/>
    <use xlink:href="#reuse-6" transform="matrix(.004 0 0 -.004 66.033 32.381)"/>
    <use xlink:href="#reuse-6" transform="matrix(.004 0 0 -.004 66.033 51.881)"/>
    <rect width=".13" height="3.51" x="-.065" y="-2.314" fill="currentColor" ry=".04" transform="translate(66.098 12.881)"/>
    <rect width=".13" height="3.51" x="-.065" y="-1.314" fill="currentColor" ry=".04" transform="translate(66.098 21.881)"/>
    <path fill="currentColor" stroke="currentColor" stroke-linecap="round" stroke-linejoin="round" stroke-width=".08" d="M72.125 23.681v.4l-2.485-.26v-.4zm0 .81v.4l-6.052-.62v-.4z"/>
    <use xlink:href="#reuse-0" transform="matrix(.004 0 0 -.004 69.6 10.881)"/>
    <use xlink:href="#reuse-0" transform="matrix(.004 0 0 -.004 69.6 20.881)"/>
    <rect width=".13" height="3.371" x="-.065" y="-1.814" fill="currentColor" ry=".04" transform="translate(69.665 12.881)"/>
    <rect width=".13" height="3.371" x="-.065" y="-.814" fill="currentColor" ry=".04" transform="translate(69.665 21.881)"/>
    <path fill="currentColor" stroke="currentColor" stroke-linecap="round" stroke-linejoin="round" stroke-width=".08" d="M72.125 13.681v.4l-2.485-.26v-.4zm0 .81v.4l-6.052-.62v-.4z"/>
    <use xlink:href="#reuse-0" transform="matrix(.004 0 0 -.004 72.035 11.381)"/>
    <use xlink:href="#reuse-0" transform="matrix(.004 0 0 -.004 72.035 21.381)"/>
    <rect width=".13" height="3.117" x="-.065" y="-1.314" fill="currentColor" ry=".04" transform="translate(72.1 12.881)"/>
    <rect width=".13" height="3.117" x="-.065" y="-.314" fill="currentColor" ry=".04" transform="translate(72.1 21.881)"/>
    <use xlink:href="#reuse-0" transform="matrix(.004 0 0 -.004 75.462 11.881)"/>
    <use xlink:href="#reuse-9" transform="matrix(.004 0 0 -.004 76.114 10.381)"/>
    <use xlink:href="#reuse-10" transform="matrix(.004 0 0 -.004 13.866 47.381)"/>
    <use xlink:href="#reuse-0" transform="matrix(.004 0 0 -.004 75.462 20.881)"/>
    <text fill="currentColor" font-family="serif" font-size="2.2" transform="translate(3.258 48.128)">
<tspan>Cembalo</tspan>
</text>
    <use xlink:href="#reuse-0" transform="matrix(.004 0 0 -.004 75.462 32.381)"/>
    <use xlink:href="#reuse-0" transform="matrix(.004 0 0 -.004 75.462 51.881)"/>
    <rect width=".13" height="3.314" x="-.065" y="-.814" fill="currentColor" ry=".04" transform="translate(75.527 12.881)"/>
    <rect width=".13" height="3.314" x="-.065" y="-.814" fill="currentColor" ry=".04" transform="translate(75.527 21.881)"/>
    <use xlink:href="#reuse-7" transform="matrix(.004 0 0 -.004 35.92 41.881)"/>
    <rect width=".13" height="2.621" x="-.065" y=".186" fill="currentColor" ry=".04" transform="translate(75.527 32.381)"/>
    <path fill="currentColor" d="M12.916 10.83v-.348c0-.056.044-.1.1-.1h.2c.636 0 1.084-.544 1.448-1.08.048-.068.152.004.104.072-.396.576-.86 1.456-1.552 1.456h-.3zm0 23.602h.3c.692 0 1.156.88 1.552 1.456.048.068-.056.14-.104.072-.364-.536-.812-1.08-1.448-1.08h-.2a.099.099 0 0 1-.1-.1v-.348z"/>
    <rect width=".45" height="23.69" y="-11.845" fill="currentColor" ry="0" transform="translate(12.916 22.631)"/>
    <rect width=".13" height="2.621" x="-.065" y=".186" fill="currentColor" ry=".04" transform="translate(75.527 51.881)"/>
    <use xlink:href="#reuse-0" transform="matrix(.004 0 0 -.004 79.028 32.381)"/>
    <use xlink:href="#reuse-0" transform="matrix(.004 0 0 -.004 79.028 51.881)"/>
    <rect width=".13" height="2.442" x="-.065" y=".186" fill="currentColor" ry=".04" transform="translate(79.093 32.381)"/>
    <rect width=".13" height="2.442" x="-.065" y=".186" fill="currentColor" ry=".04" transform="translate(79.093 51.881)"/>
    <path fill="currentColor" stroke="currentColor" stroke-linecap="round" stroke-linejoin="round" stroke-width=".08" d="M47.56 11.871v.4h-2.485v-.4zm0 .81v.4h-6.05v-.4z"/>
    <use xlink:href="#reuse-0" transform="matrix(.004 0 0 -.004 82.844 11.881)"/>
    <use xlink:href="#reuse-9" transform="matrix(.004 0 0 -.004 83.496 10.381)"/>
    <use xlink:href="#reuse-0" transform="matrix(.004 0 0 -.004 82.844 22.381)"/>
    <use xlink:href="#reuse-0" transform="matrix(.004 0 0 -.004 82.844 31.381)"/>
    <use xlink:href="#reuse-0" transform="matrix(.004 0 0 -.004 82.844 50.881)"/>
    <use xlink:href="#reuse-11" transform="matrix(.0022 0 0 -.0022 82.844 56.184)"/>
    <rect width=".13" height="3.314" x="-.065" y="-.814" fill="currentColor" ry=".04" transform="translate(82.91 12.881)"/>
    <rect width=".13" height="2.814" x="-.065" y=".686" fill="currentColor" ry=".04" transform="translate(82.91 21.881)"/>
    <rect width=".13" height="3.251" x="-.065" y="-.814" fill="currentColor" ry=".04" transform="translate(82.91 32.381)"/>
    <rect width=".13" height="3.251" x="-.065" y="-.814" fill="currentColor" ry=".04" transform="translate(82.91 51.881)"/>
    <use xlink:href="#reuse-0" transform="matrix(.004 0 0 -.004 85.53 18.881)"/>
    <rect width=".13" height="6.314" x="-.065" y="-2.814" fill="currentColor" ry=".04" transform="translate(85.594 21.881)"/>
    <use xlink:href="#reuse-7" transform="matrix(.004 0 0 -.004 61.36 41.881)"/>
    <use xlink:href="#reuse-0" transform="matrix(.004 0 0 -.004 87.715 22.381)"/>
    <use xlink:href="#reuse-0" transform="matrix(.004 0 0 -.004 87.715 31.381)"/>
    <use xlink:href="#reuse-0" transform="matrix(.004 0 0 -.004 87.715 50.881)"/>
    <rect width=".13" height="2.814" x="-.065" y=".686" fill="currentColor" ry=".04" transform="translate(87.78 21.881)"/>
    <rect width=".13" height="3.007" x="-.065" y="-.814" fill="currentColor" ry=".04" transform="translate(87.78 32.381)"/>
    <rect width=".13" height="3.007" x="-.065" y="-.814" fill="currentColor" ry=".04" transform="translate(87.78 51.881)"/>
    <path fill="currentColor" stroke="currentColor" stroke-linecap="round" stroke-linejoin="round" stroke-width=".08" d="M40.948 6.587v.304l-1.44.284v-.304zm0 .648v.304l-1.44.284V7.52z"/>
    <use xlink:href="#reuse-0" transform="matrix(.004 0 0 -.004 90.4 18.881)"/>
    <rect width=".13" height="6.314" x="-.065" y="-2.814" fill="currentColor" ry=".04" transform="translate(90.465 21.881)"/>
    <use xlink:href="#reuse-0" transform="matrix(.004 0 0 -.004 92.585 12.381)"/>
    <use xlink:href="#reuse-0" transform="matrix(.004 0 0 -.004 92.585 22.381)"/>
    <use xlink:href="#reuse-0" transform="matrix(.004 0 0 -.004 92.585 30.881)"/>
    <use xlink:href="#reuse-0" transform="matrix(.004 0 0 -.004 92.585 50.381)"/>
    <path fill="currentColor" d="M92.83 56.039c-.133 0-.087.145-.16.145-.023 0-.048-.015-.048-.046 0-.339.51-.356.51-.735 0-.11-.037-.224-.133-.224-.073 0-.143.033-.143.096 0 .053.068.082.068.135a.134.134 0 1 1-.268 0c0-.183.156-.326.343-.326.215 0 .418.121.418.32 0 .307-.289.338-.495.45.187.005.248.134.363.134.099 0 .061-.09.125-.09.024 0 .05.018.05.046 0 .064-.107.24-.318.24-.203 0-.212-.145-.313-.145zm1.51-43.658a.224.224 0 1 1 .446 0 .224.224 0 0 1-.447 0z"/>
    <rect width=".13" height="3.311" x="-.065" y="-.314" fill="currentColor" ry=".04" transform="translate(92.65 12.881)"/>
    <rect width=".13" height="2.814" x="-.065" y=".686" fill="currentColor" ry=".04" transform="translate(92.65 21.881)"/>
    <rect width=".13" height="3.125" x="-.065" y="-1.314" fill="currentColor" ry=".04" transform="translate(92.65 32.381)"/>
    <rect width=".13" height="3.125" x="-.065" y="-1.314" fill="currentColor" ry=".04" transform="translate(92.65 51.881)"/>
    <use xlink:href="#reuse-0" transform="matrix(.004 0 0 -.004 95.27 18.881)"/>
    <rect width=".13" height="6.314" x="-.065" y="-2.814" fill="currentColor" ry=".04" transform="translate(95.335 21.881)"/>
    <use xlink:href="#reuse-0" transform="matrix(.004 0 0 -.004 97.456 22.381)"/>
    <use xlink:href="#reuse-0" transform="matrix(.004 0 0 -.004 97.456 30.881)"/>
    <use xlink:href="#reuse-0" transform="matrix(.004 0 0 -.004 97.456 50.381)"/>
    <rect width=".13" height="2.814" x="-.065" y=".686" fill="currentColor" ry=".04" transform="translate(97.52 21.881)"/>
    <rect width=".13" height="3.239" x="-.065" y="-1.314" fill="currentColor" ry=".04" transform="translate(97.52 32.381)"/>
    <rect width=".13" height="3.239" x="-.065" y="-1.314" fill="currentColor" ry=".04" transform="translate(97.52 51.881)"/>
    <use xlink:href="#reuse-0" transform="matrix(.004 0 0 -.004 100.14 11.881)"/>
    <use xlink:href="#reuse-0" transform="matrix(.004 0 0 -.004 100.14 18.881)"/>
    <rect width=".13" height="3.415" x="-.065" y="-.814" fill="currentColor" ry=".04" transform="translate(100.206 12.881)"/>
    <rect width=".13" height="6.314" x="-.065" y="-2.814" fill="currentColor" ry=".04" transform="translate(100.206 21.881)"/>
    <use xlink:href="#reuse-0" transform="matrix(.004 0 0 -.004 102.01 11.381)"/>
    <rect width=".13" height="3.817" x="-.065" y="-1.314" fill="currentColor" ry=".04" transform="translate(102.075 12.881)"/>
    <use xlink:href="#reuse-0" transform="matrix(.004 0 0 -.004 103.88 11.881)"/>
    <use xlink:href="#reuse-9" transform="matrix(.004 0 0 -.004 104.532 10.381)"/>
    <use xlink:href="#reuse-0" transform="matrix(.004 0 0 -.004 103.88 22.381)"/>
    <use xlink:href="#reuse-0" transform="matrix(.004 0 0 -.004 103.88 31.381)"/>
    <use xlink:href="#reuse-0" transform="matrix(.004 0 0 -.004 103.88 50.881)"/>
    <use xlink:href="#reuse-11" transform="matrix(.0022 0 0 -.0022 103.88 56.184)"/>
    <rect width=".13" height="3.314" x="-.065" y="-.814" fill="currentColor" ry=".04" transform="translate(103.945 12.881)"/>
    <path fill="currentColor" d="M104.01 15.341h-.064v-1h.064v1zm0 0v-1c.388-.236.896-.592.896-1.036 0-.228-.06-.448-.16-.652-.012-.064.04-.108.092-.108.028 0 .06.012.08.044.1.224.16.468.16.716 0 .812-1.068 1.224-1.068 2.036z"/>
    <rect width=".13" height="2.814" x="-.065" y=".686" fill="currentColor" ry=".04" transform="translate(103.945 21.881)"/>
    <rect width=".13" height="2.889" x="-.065" y="-.814" fill="currentColor" ry=".04" transform="translate(103.945 32.381)"/>
    <rect width=".13" height="2.889" x="-.065" y="-.814" fill="currentColor" ry=".04" transform="translate(103.945 51.881)"/>
    <use xlink:href="#reuse-0" transform="matrix(.004 0 0 -.004 106.565 18.881)"/>
    <rect width=".13" height="6.314" x="-.065" y="-2.814" fill="currentColor" ry=".04" transform="translate(106.63 21.881)"/>
    <text fill="currentColor" font-family="serif" font-size="2.2" transform="translate(3.31 13.628)">
<tspan>Violino I</tspan>
</text>
    <path fill="currentColor" d="M109.03 12.061c.317 0 .185.392.365.392.064 0 .216-.192.244-.252.024-.048.092-.048.112 0l-.492 1.68c-.032.028-.068.04-.108.04s-.08-.012-.112-.04l.468-1.304a1.272 1.272 0 0 1-.42.088c-.188 0-.348-.136-.348-.316a.29.29 0 0 1 .292-.288z"/>
    <use xlink:href="#reuse-0" transform="matrix(.004 0 0 -.004 108.75 22.381)"/>
    <use xlink:href="#reuse-0" transform="matrix(.004 0 0 -.004 108.75 31.381)"/>
    <use xlink:href="#reuse-0" transform="matrix(.004 0 0 -.004 108.75 50.881)"/>
    <rect width=".13" height="2.814" x="-.065" y=".686" fill="currentColor" ry=".04" transform="translate(108.816 21.881)"/>
    <rect width=".13" height="3.002" x="-.065" y="-.814" fill="currentColor" ry=".04" transform="translate(108.816 32.381)"/>
    <rect width=".13" height="3.002" x="-.065" y="-.814" fill="currentColor" ry=".04" transform="translate(108.816 51.881)"/>
    <use xlink:href="#reuse-0" transform="matrix(.004 0 0 -.004 111.436 18.881)"/>
    <rect width=".13" height="6.314" x="-.065" y="-2.814" fill="currentColor" ry=".04" transform="translate(111.5 21.881)"/>
    <text fill="currentColor" font-family="serif" font-size="2.2" transform="translate(4.607 33.094)">
<tspan>Basso</tspan>
</text>
    <use xlink:href="#reuse-10" transform="matrix(.004 0 0 -.004 12.616 17.381)"/>
    <text fill="currentColor" font-family="serif" font-size="2.2" transform="translate(2.934 22.628)">
<tspan>Violino II</tspan>
</text>
</svg>
