<svg xmlns="http://www.w3.org/2000/svg" width="680.315" height="60mm" class="d-block mx-auto" version="1.2" viewBox="0 0 102.43 34.143">
    <text fill="currentColor" font-family="serif" font-size="2.47" font-weight="bold" transform="translate(5.69 5.519)">
<tspan style="white-space:pre">Grave</tspan>
</text>
    <rect width="1.956" height=".2" x="24.545" y="-.1" fill="currentColor" ry=".1" transform="translate(5.69 13.108)"/>
    <rect width="1.956" height=".2" x="11.489" y="-.1" fill="currentColor" ry=".1" transform="translate(5.69 13.108)"/>
    <rect width="1.956" height=".2" x="11.489" y="-.1" fill="currentColor" ry=".1" transform="translate(5.69 14.108)"/>
    <path stroke="currentColor" stroke-linecap="round" stroke-linejoin="round" stroke-width=".1" d="M5.74 12.108h90.95m-90.95-1h90.95m-90.95-1h90.95m-90.95-1h90.95m-90.95-1h90.95"/>
    <rect width=".19" height="4.95" y="6.1" fill="currentColor" ry="0" transform="translate(96.55 6.058)"/>
    <rect width="1.956" height=".2" x="78.913" y="-.1" fill="currentColor" ry=".1" transform="translate(5.69 16.108)"/>
    <rect width="1.956" height=".2" x="55.263" y="-.1" fill="currentColor" ry=".1" transform="translate(5.69 22.108)"/>
    <rect width="1.956" height=".2" x="37.99" y="-.1" fill="currentColor" ry=".1" transform="translate(5.69 16.108)"/>
    <rect width="1.956" height=".2" x="17.884" y="-.1" fill="currentColor" ry=".1" transform="translate(5.69 22.108)"/>
    <rect width="1.956" height=".2" x="14.509" y="-.1" fill="currentColor" ry=".1" transform="translate(5.69 22.108)"/>
    <rect width="1.956" height=".2" x="14.509" y="-.1" fill="currentColor" ry=".1" transform="translate(5.69 23.108)"/>
    <path stroke="currentColor" stroke-linecap="round" stroke-linejoin="round" stroke-width=".1" d="M5.74 21.108h90.95m-90.95-1h90.95m-90.95-1h90.95m-90.95-1h90.95m-90.95-1h90.95"/>
    <rect width=".19" height="4.05" y="-2.05" fill="currentColor" ry="0" transform="translate(96.55 19.108)"/>
    <rect width=".19" height="4.05" y="-2" fill="currentColor" ry="0" transform="translate(96.55 10.108)"/>
    <rect width=".19" height="4.95" y="6.1" fill="currentColor" ry="0" transform="translate(55.056 6.058)"/>
    <rect width=".19" height="4.05" y="-2.05" fill="currentColor" ry="0" transform="translate(55.056 19.108)"/>
    <rect width=".19" height="4.05" y="-2" fill="currentColor" ry="0" transform="translate(55.056 10.108)"/>
    <path fill="currentColor" stroke="currentColor" stroke-linecap="round" stroke-linejoin="round" stroke-width=".08" d="M93.644 21.098v.4l-8.674-2v-.4zm0 .81v.4l-8.674-2v-.4zm-11.999-1.81v.4l-10.37 1.5v-.4zm0 .81v.4l-10.37 1.5v-.4z"/>
    <path fill="currentColor" d="M18.377 14.064c.264 0 .432.144.432.356 0 .356-.452.732-.872.732-.264 0-.432-.144-.432-.356 0-.356.452-.732.872-.732zm0-1.5c.264 0 .432.144.432.356 0 .356-.452.732-.872.732-.264 0-.432-.144-.432-.356 0-.356.452-.732.872-.732z"/>
    <path fill="currentColor" d="M18.377 11.564c.264 0 .432.144.432.356 0 .356-.452.732-.872.732-.264 0-.432-.144-.432-.356 0-.356.452-.732.872-.732z"/>
    <path fill="currentColor" d="M18.377 10.564c.264 0 .432.144.432.356 0 .356-.452.732-.872.732-.264 0-.432-.144-.432-.356 0-.356.452-.732.872-.732zM7.555 13.648H7.53a.783.783 0 0 1-.78-.788c0-.232.212-.412.448-.412.216 0 .38.188.38.412 0 .208-.172.38-.38.38a.326.326 0 0 1-.124-.024c.104.156.272.26.468.26h.016zm.78-1.728a.69.69 0 0 0 .452-.656.764.764 0 0 0-.692-.76c.076.356.192.968.24 1.416zm-1.548-.924c0 .58.564.988 1.056.988.004 0 .188 0 .328-.024a17.343 17.343 0 0 0-.252-1.456c-.316.032-.496.244-.496.476 0 .176.1.364.324.492.02.02.028.04.028.06 0 .044-.04.088-.088.088-.06 0-.504-.248-.504-.748 0-.352.232-.696.64-.788a15.048 15.048 0 0 0-.184-.7c-.428.484-.852.972-.852 1.612zm.704-2.1c-.116-.384-.208-.68-.208-1.384 0-.46.22-.896.596-1.168a.06.06 0 0 1 .08 0c.272.32.532.98.532 1.432 0 .572-.344 1.02-.72 1.456.084.272.156.552.224.828.008 0 .028-.004.052-.004.62 0 1.024.512 1.024 1.044 0 .452-.296.848-.72.984.012.14.02.28.02.42 0 .076-.004.156-.008.232-.028.476-.352.9-.808.912l.004-.172c.372-.008.612-.368.636-.764a3.775 3.775 0 0 0-.008-.588c-.02.004-.176.032-.356.032-.772 0-1.332-.72-1.332-1.496 0-.708.524-1.224.992-1.764zm.712-1.452c0-.136.004-.264-.08-.516a1.153 1.153 0 0 0-.648 1.036c0 .208.048.46.144.776.32-.388.584-.792.584-1.296zm2.016 2.5-.004.264v.044c0 .088.004.176.016.264.18-.152.372-.32.372-.556 0-.132-.056-.268-.172-.268-.124 0-.208.12-.212.252zm-.168.716-.048-2.38c.032-.02.072-.032.108-.032s.076.012.108.032l-.028 1.38a.577.577 0 0 1 .364-.136c.208 0 .356.192.356.408 0 .32-.344.468-.588.676-.06.052-.096.152-.18.152-.052 0-.092-.044-.092-.1zm1.088-2.216-.004.264v.044c0 .088.004.176.016.264.18-.152.372-.32.372-.556 0-.132-.056-.268-.172-.268-.124 0-.208.12-.212.252zm-.168.716-.048-2.38c.032-.02.072-.032.108-.032s.076.012.108.032l-.028 1.38a.577.577 0 0 1 .364-.136c.208 0 .356.192.356.408 0 .32-.344.468-.588.676-.06.052-.096.152-.18.152-.052 0-.092-.044-.092-.1zm1.088 1.284-.004.264v.044c0 .088.004.176.016.264.18-.152.372-.32.372-.556 0-.132-.056-.268-.172-.268-.124 0-.208.12-.212.252zm-.168.716-.048-2.38c.032-.02.072-.032.108-.032s.076.012.108.032l-.028 1.38a.577.577 0 0 1 .364-.136c.208 0 .356.192.356.408 0 .32-.344.468-.588.676-.06.052-.096.152-.18.152-.052 0-.092-.044-.092-.1zm3.199-2.112c0 .132.28.092.28.5 0 .368-.317.56-.717.56-.316 0-.616-.168-.616-.452 0-.144.12-.264.264-.264s.26.12.26.264c0 .1-.16.112-.16.212 0 .108.128.148.252.148.196 0 .252-.244.252-.468v-.064c0-.216-.008-.376-.2-.376h-.32c-.04 0-.056-.032-.056-.06s.016-.056.056-.056h.32c.196 0 .2-.172.2-.396v-.032c0-.216-.072-.364-.268-.364-.112 0-.228.036-.228.132 0 .088.14.1.14.188 0 .128-.1.232-.228.232s-.232-.104-.232-.232c0-.256.268-.412.548-.412.364 0 .676.132.676.456 0 .488-.224.32-.224.484zm-.405 2.608h.468c0 .192.108.376.288.376.032 0 .048.02.048.044s-.016.048-.048.048c-.176 0-.348-.052-.524-.052s-.348.052-.524.052c-.032 0-.048-.024-.048-.048s.016-.044.048-.044c.18 0 .292-.184.292-.376zm-.792-.124c0-.048.56-.572.56-1.344 0-.04.028-.076.064-.064.092.028.188.052.284.052s.192-.024.284-.052c.056-.016.092.036.068.064l-1.136 1.32h.668v-.524c0-.136.136-.108.272-.288.088-.12.092-.224.144-.224.024 0 .052.02.052.056v.98h.288c.04 0 .06.028.06.056s-.02.06-.06.06h-.288v.032h-.468v-.032h-.668c-.092 0-.124-.056-.124-.092zm4.112 6.756c.316 0 .18.392.36.392.06 0 .2-.196.228-.252.024-.048.092-.048.112 0l-.716 2.68c-.032.028-.068.04-.108.04s-.08-.012-.112-.04l.404-1.308a1.3 1.3 0 0 1-.424.092c-.188 0-.348-.136-.348-.316 0-.16.128-.288.288-.288.316 0 .184.392.364.392.064 0 .22-.204.24-.272l.184-.604a1.249 1.249 0 0 1-.416.088c-.188 0-.348-.136-.348-.316a.29.29 0 0 1 .292-.288zm-9.286.32c0-.112.092-.204.204-.204s.204.092.204.204-.092.204-.204.204-.204-.092-.204-.204zm0-1c0-.112.092-.204.204-.204s.204.092.204.204-.092.204-.204.204-.204-.092-.204-.204zm-1.3-.552c.688 0 1.172.352 1.172 1.004 0 1.052-1.052 1.656-2.064 2.084a.049.049 0 0 1-.036.016.053.053 0 0 1-.052-.052c0-.012.004-.024.016-.036.808-.472 1.648-1.06 1.648-1.972 0-.48-.252-.94-.684-.94-.296 0-.516.216-.616.504a.323.323 0 0 1 .136-.032c.22 0 .4.18.4.4 0 .232-.176.424-.4.424-.24 0-.448-.188-.448-.424 0-.532.408-.976.928-.976zm2.8 2.888-.004.264v.044c0 .088.004.176.016.264.18-.152.372-.32.372-.556 0-.132-.056-.268-.172-.268-.124 0-.208.12-.212.252zm-.168.716-.048-2.38c.032-.02.072-.032.108-.032s.076.012.108.032l-.028 1.38a.577.577 0 0 1 .364-.136c.208 0 .356.192.356.408 0 .32-.344.468-.588.676-.06.052-.096.152-.18.152-.052 0-.092-.044-.092-.1zm1.088-2.216-.004.264v.044c0 .088.004.176.016.264.18-.152.372-.32.372-.556 0-.132-.056-.268-.172-.268-.124 0-.208.12-.212.252zm-.168.716-.048-2.38c.032-.02.072-.032.108-.032s.076.012.108.032l-.028 1.38a.577.577 0 0 1 .364-.136c.208 0 .356.192.356.408 0 .32-.344.468-.588.676-.06.052-.096.152-.18.152-.052 0-.092-.044-.092-.1zm1.088 1.284-.004.264v.044c0 .088.004.176.016.264.18-.152.372-.32.372-.556 0-.132-.056-.268-.172-.268-.124 0-.208.12-.212.252zm-.168.716-.048-2.38c.032-.02.072-.032.108-.032s.076.012.108.032l-.028 1.38a.577.577 0 0 1 .364-.136c.208 0 .356.192.356.408 0 .32-.344.468-.588.676-.06.052-.096.152-.18.152-.052 0-.092-.044-.092-.1zm3.199-3.112c0 .132.28.092.28.5 0 .368-.317.56-.717.56-.316 0-.616-.168-.616-.452 0-.144.12-.264.264-.264s.26.12.26.264c0 .1-.16.112-.16.212 0 .108.128.148.252.148.196 0 .252-.244.252-.468v-.064c0-.216-.008-.376-.2-.376h-.32c-.04 0-.056-.032-.056-.06s.016-.056.056-.056h.32c.196 0 .2-.172.2-.396v-.032c0-.216-.072-.364-.268-.364-.112 0-.228.036-.228.132 0 .088.14.1.14.188 0 .128-.1.232-.228.232s-.232-.104-.232-.232c0-.256.268-.412.548-.412.364 0 .676.132.676.456 0 .488-.224.32-.224.484zm-.405 2.608h.468c0 .192.108.376.288.376.032 0 .048.02.048.044s-.016.048-.048.048c-.176 0-.348-.052-.524-.052s-.348.052-.524.052c-.032 0-.048-.024-.048-.048s.016-.044.048-.044c.18 0 .292-.184.292-.376zm-.792-.124c0-.048.56-.572.56-1.344 0-.04.028-.076.064-.064.092.028.188.052.284.052s.192-.024.284-.052c.056-.016.092.036.068.064l-1.136 1.32h.668v-.524c0-.136.136-.108.272-.288.088-.12.092-.224.144-.224.024 0 .052.02.052.056v.98h.288c.04 0 .06.028.06.056s-.02.06-.06.06h-.288v.032h-.468v-.032h-.668c-.092 0-.124-.056-.124-.092z"/>
    <rect width=".13" height="6.814" x="-.065" y="-2.5" fill="currentColor" ry=".04" transform="translate(18.744 10.108)"/>
    <path fill="currentColor" stroke="currentColor" stroke-linecap="round" stroke-linejoin="round" stroke-width=".08" d="M69.294 17.098v.4l-6.8 1v-.4zm0 .81v.4l-6.8 1v-.4z"/>
    <path fill="currentColor" d="M21.398 22.564c.264 0 .432.144.432.356 0 .356-.452.732-.872.732-.264 0-.432-.144-.432-.356 0-.356.452-.732.872-.732z"/>
    <rect width=".13" height="3.821" x="-.065" y="-.008" fill="currentColor" ry=".04" transform="translate(21.765 19.108)"/>
    <path fill="currentColor" stroke="currentColor" stroke-linecap="round" stroke-linejoin="round" stroke-width=".08" d="M69.293 6.408v.4l-9.82-.31v-.4zm.001.81v.4l-1.085-.037v-.4z"/>
    <path fill="currentColor" d="M24.773 21.564c.264 0 .432.144.432.356 0 .356-.452.732-.872.732-.264 0-.432-.144-.432-.356 0-.356.452-.732.872-.732z"/>
    <rect width=".13" height="3.219" x="-.065" y="-.405" fill="currentColor" ry=".04" transform="translate(25.14 19.108)"/>
    <path fill="currentColor" stroke="currentColor" stroke-linecap="round" stroke-linejoin="round" stroke-width=".08" d="M52.72 21.098v.4l-8.673-2v-.4zm0 .81v.4l-8.673-2v-.4z"/>
    <path fill="currentColor" d="M28.148 20.564c.264 0 .432.144.432.356 0 .356-.452.732-.872.732-.264 0-.432-.144-.432-.356 0-.356.452-.732.872-.732z"/>
    <rect width=".13" height="2.616" x="-.065" y="-.802" fill="currentColor" ry=".04" transform="translate(28.515 19.108)"/>
    <path fill="currentColor" d="M31.433 12.564c.264 0 .432.144.432.356 0 .356-.452.732-.872.732-.264 0-.432-.144-.432-.356 0-.356.452-.732.872-.732z"/>
    <path fill="currentColor" d="M31.433 11.564c.264 0 .432.144.432.356 0 .356-.452.732-.872.732-.264 0-.432-.144-.432-.356 0-.356.452-.732.872-.732z"/>
    <path fill="currentColor" d="M31.433 10.564c.264 0 .432.144.432.356 0 .356-.452.732-.872.732-.264 0-.432-.144-.432-.356 0-.356.452-.732.872-.732zm-.14-3.236c0 .044-.036.08-.08.08s-.08-.036-.08-.08v-.324l-.131.2a.079.079 0 0 1-.068.036.072.072 0 0 1-.06-.028l-.396-.476c-.149.224-.145.224-.189.224s-.08-.036-.08-.08c0-.024 0-.024.385-.604a.079.079 0 0 1 .068-.036c.024 0 .044.008.06.028l.392.476.02-.028v-.564c0-.044.036-.08.08-.08s.08.036.08.08v.324l.131-.2a.079.079 0 0 1 .068-.036.07.07 0 0 1 .06.028l.396.476.032-.048.132.088-.28.42a.079.079 0 0 1-.067.036.072.072 0 0 1-.06-.028l-.392-.476-.02.028v.564zm.78-.772a.072.072 0 0 1 .065-.036.08.08 0 0 1 .08.08.08.08 0 0 1-.013.044l-.091.14-.132-.088zm-.64 12.508c.264 0 .432.144.432.356 0 .356-.452.732-.872.732-.264 0-.432-.144-.432-.356 0-.356.452-.732.872-.732zm.883-6.456a.224.224 0 1 1 .447-.001.224.224 0 0 1-.447 0z"/>
    <rect width=".13" height="5.314" x="-.065" y="-2.5" fill="currentColor" ry=".04" transform="translate(31.8 10.108)"/>
    <path fill="currentColor" d="M32.316 11.608a.224.224 0 1 1 .447-.001.224.224 0 0 1-.447 0zm0-1a.224.224 0 1 1 .447-.001.224.224 0 0 1-.447 0z"/>
    <rect width=".13" height="2.803" x="-.065" y=".686" fill="currentColor" ry=".04" transform="translate(30.626 19.108)"/>
    <path fill="currentColor" stroke="currentColor" stroke-linecap="round" stroke-linejoin="round" stroke-width=".08" d="M40.972 19.908v.4l-10.37 1.69v-.4zm0 .81v.4l-10.37 1.69v-.4z"/>
    <path fill="currentColor" d="M34.808 18.064c.264 0 .432.144.432.356 0 .356-.452.732-.872.732-.264 0-.432-.144-.432-.356 0-.356.452-.732.872-.732z"/>
    <rect width=".13" height="3.258" x="-.065" y="-.314" fill="currentColor" ry=".04" transform="translate(34.001 19.108)"/>
    <path fill="currentColor" stroke="currentColor" stroke-linecap="round" stroke-linejoin="round" stroke-width=".08" d="M28.54 18.098v.4l-6.8.81v-.4zm0 .81v.4l-6.8.81v-.4z"/>
    <path fill="currentColor" d="M38.183 17.064c.264 0 .432.144.432.356 0 .356-.452.732-.872.732-.264 0-.432-.144-.432-.356 0-.356.452-.732.872-.732z"/>
    <rect width=".13" height="3.712" x="-.065" y="-1.314" fill="currentColor" ry=".04" transform="translate(37.376 19.108)"/>
    <path fill="currentColor" d="M41.754 16.064c.264 0 .432.144.432.356 0 .356-.452.732-.872.732-.264 0-.432-.144-.432-.356 0-.356.452-.732.872-.732z"/>
    <rect width=".13" height="4.134" x="-.065" y="-2.314" fill="currentColor" ry=".04" transform="translate(40.947 19.108)"/>
    <path fill="currentColor" d="M39.808 15.108c.032-.016.068-.028.1-.028s.064.012.096.028l-.008.732.424-.08h.012c.04 0 .072.028.072.068l.028 2.28c-.032.016-.068.028-.1.028s-.064-.012-.096-.028l.008-.732-.424.08h-.012c-.04 0-.072-.028-.072-.068zm.552 1.052-.368.068-.012.828.368-.068zm4.519-.596c.264 0 .432.144.432.356 0 .356-.452.732-.872.732-.264 0-.432-.144-.432-.356 0-.356.452-.732.872-.732z"/>
    <rect width=".13" height="3.829" x="-.065" y="-2.814" fill="currentColor" ry=".04" transform="translate(44.072 19.108)"/>
    <path fill="currentColor" d="M47.753 17.064c.264 0 .432.144.432.356 0 .356-.452.732-.872.732-.264 0-.432-.144-.432-.356 0-.356.452-.732.872-.732z"/>
    <rect width=".13" height="2.986" x="-.065" y="-1.314" fill="currentColor" ry=".04" transform="translate(46.946 19.108)"/>
    <path fill="currentColor" d="M50.628 9.064c.264 0 .432.144.432.356 0 .356-.452.732-.872.732-.264 0-.432-.144-.432-.356 0-.356.452-.732.872-.732zm0 9c.264 0 .432.144.432.356 0 .356-.452.732-.872.732-.264 0-.432-.144-.432-.356 0-.356.452-.732.872-.732z"/>
    <rect width=".13" height="3.314" x="-.065" y="-.314" fill="currentColor" ry=".04" transform="translate(49.821 10.108)"/>
    <path fill="currentColor" d="M49.886 13.068h-.064v-1h.064v1zm0 0v-1c.388-.236.896-.592.896-1.036 0-.228-.06-.448-.16-.652-.012-.064.04-.108.092-.108.028 0 .06.012.08.044.1.224.16.468.16.716 0 .812-1.068 1.224-1.068 2.036z"/>
    <rect width=".13" height="2.642" x="-.065" y="-.314" fill="currentColor" ry=".04" transform="translate(49.821 19.108)"/>
    <path fill="currentColor" d="M53.503 19.064c.264 0 .432.144.432.356 0 .356-.452.732-.872.732-.264 0-.432-.144-.432-.356 0-.356.452-.732.872-.732z"/>
    <rect width=".13" height="2.299" x="-.065" y=".686" fill="currentColor" ry=".04" transform="translate(52.696 19.108)"/>
    <path fill="currentColor" d="M56.696 8.718c.193 0 .328.112.328.278 0 .254-.3.5-.586.5-.193 0-.324-.111-.324-.276 0-.255.296-.502.582-.502z"/>
    <rect width=".16" height="13.1" y="-6.55" fill="currentColor" ry=".05" transform="translate(5.63 14.608)"/>
    <rect width=".13" height="2.386" x="-.065" y="-3.5" fill="currentColor" ry=".04" transform="translate(56.967 10.108)"/>
    <path fill="currentColor" d="M57.354 8.672c0-.034.12-.238.12-.54 0-.283-.252-.574-.442-.784h-.06v-.7h.06c0 .548.58.935.58 1.484 0 .198-.043.392-.116.576-.014.028-.039.037-.064.037-.04 0-.078-.028-.078-.073zm-52.347 7.4c0-1.02-.528-1.452-.528-1.464 0-.072.528-.384.528-1.464 0-1.044-.432-1.956-.432-3.12 0-.756.18-1.464.708-2.004.06-.06.156.036.096.096-.396.396-.516.9-.516 1.44 0 1.02.408 1.92.408 3.06 0 .744-.18 1.452-.696 1.992.516.54.696 1.248.696 1.992 0 1.14-.408 2.04-.408 3.06 0 .54.12 1.044.516 1.44.06.06-.036.156-.096.096-.528-.54-.708-1.248-.708-2.004 0-1.164.432-2.076.432-3.12zm54.124-7.008c.264 0 .432.144.432.356 0 .356-.452.732-.872.732-.264 0-.432-.144-.432-.356 0-.356.452-.732.872-.732zm0 2c.264 0 .432.144.432.356 0 .356-.452.732-.872.732-.264 0-.432-.144-.432-.356 0-.356.452-.732.872-.732z"/>
    <path fill="currentColor" d="M59.131 12.064c.264 0 .432.144.432.356 0 .356-.452.732-.872.732-.264 0-.432-.144-.432-.356 0-.356.452-.732.872-.732zm-.371 6.224c.315 0 .18.392.36.392.06 0 .2-.196.227-.252.024-.048.092-.048.112 0l-.716 2.68c-.032.028-.068.04-.108.04s-.08-.012-.112-.04l.404-1.308a1.3 1.3 0 0 1-.424.092c-.188 0-.348-.136-.348-.316 0-.16.128-.288.288-.288.316 0 .184.392.364.392.064 0 .22-.204.24-.272l.184-.604a1.249 1.249 0 0 1-.416.088c-.188 0-.348-.136-.348-.316a.29.29 0 0 1 .292-.288zm1.253-8.68a.224.224 0 1 1 .448-.001.224.224 0 0 1-.448 0z"/>
    <rect width=".13" height="6.122" x="-.065" y="-3.808" fill="currentColor" ry=".04" transform="translate(59.498 10.108)"/>
    <path fill="currentColor" d="M60.013 11.608a.224.224 0 1 1 .448-.001.224.224 0 0 1-.448 0zm0 1a.224.224 0 1 1 .448-.001.224.224 0 0 1-.448 0zm2.139 9.456c.264 0 .432.144.432.356 0 .356-.452.732-.872.732-.264 0-.432-.144-.432-.356 0-.356.452-.732.872-.732z"/>
    <rect width=".13" height="4.133" x="-.065" y="-.819" fill="currentColor" ry=".04" transform="translate(62.519 19.108)"/>
    <path fill="currentColor" d="M65.527 21.064c.264 0 .432.144.432.356 0 .356-.452.732-.872.732-.264 0-.432-.144-.432-.356 0-.356.452-.732.872-.732z"/>
    <rect width=".13" height="3.624" x="-.065" y="-1.31" fill="currentColor" ry=".04" transform="translate(65.894 19.108)"/>
    <path fill="currentColor" d="M68.901 9.564c.264 0 .432.144.432.356 0 .356-.452.732-.872.732-.264 0-.432-.144-.432-.356 0-.356.452-.732.872-.732zm0 10.5c.264 0 .432.144.432.356 0 .356-.452.732-.872.732-.264 0-.432-.144-.432-.356 0-.356.452-.732.872-.732z"/>
    <rect width=".13" height="3.316" x="-.065" y="-3.502" fill="currentColor" ry=".04" transform="translate(69.269 10.108)"/>
    <path fill="currentColor" d="M66.967 8.608c.032-.016.068-.028.1-.028s.064.012.096.028l-.008.732.424-.08h.012c.04 0 .072.028.072.068l.028 2.28c-.032.016-.068.028-.1.028s-.064-.012-.096-.028l.008-.732-.424.08h-.012c-.04 0-.072-.028-.072-.068zm.552 1.052-.368.068-.012.828.368-.068z"/>
    <rect width=".13" height="3.114" x="-.065" y="-1.801" fill="currentColor" ry=".04" transform="translate(69.269 19.108)"/>
    <path fill="currentColor" d="M72.107 9.564c.264 0 .432.144.432.356 0 .356-.452.732-.872.732-.264 0-.432-.144-.432-.356 0-.356.452-.732.872-.732zm0 1.5c.264 0 .432.144.432.356 0 .356-.452.732-.872.732-.264 0-.432-.144-.432-.356 0-.356.452-.732.872-.732z"/>
    <path fill="currentColor" d="M72.107 12.064c.264 0 .432.144.432.356 0 .356-.452.732-.872.732-.264 0-.432-.144-.432-.356 0-.356.452-.732.872-.732zm0 6.5c.264 0 .432.144.432.356 0 .356-.452.732-.872.732-.264 0-.432-.144-.432-.356 0-.356.452-.732.872-.732z"/>
    <rect width=".13" height="5.647" x="-.065" y="-3.333" fill="currentColor" ry=".04" transform="translate(72.474 10.108)"/>
    <rect width=".13" height="3.305" x="-.065" y=".186" fill="currentColor" ry=".04" transform="translate(71.3 19.108)"/>
    <path fill="currentColor" d="M75.481 17.564c.265 0 .433.144.433.356 0 .356-.453.732-.873.732-.263 0-.431-.144-.431-.356 0-.356.451-.732.871-.732z"/>
    <rect width=".13" height="3.82" x="-.065" y="-.814" fill="currentColor" ry=".04" transform="translate(74.674 19.108)"/>
    <path fill="currentColor" d="M78.856 16.564c.264 0 .432.144.432.356 0 .356-.452.732-.872.732-.264 0-.432-.144-.432-.356 0-.356.452-.732.872-.732z"/>
    <rect width=".13" height="4.336" x="-.065" y="-1.814" fill="currentColor" ry=".04" transform="translate(78.05 19.108)"/>
    <path fill="currentColor" d="M82.427 16.064c.264 0 .432.144.432.356 0 .356-.452.732-.872.732-.264 0-.432-.144-.432-.356 0-.356.452-.732.872-.732z"/>
    <rect width=".13" height="4.323" x="-.065" y="-2.314" fill="currentColor" ry=".04" transform="translate(81.62 19.108)"/>
    <path fill="currentColor" d="M80.481 15.108c.032-.016.068-.028.1-.028s.064.012.096.028l-.008.732.424-.08h.012c.04 0 .072.028.072.068l.028 2.28c-.032.016-.068.028-.1.028s-.064-.012-.096-.028l.008-.732-.424.08h-.012c-.04 0-.072-.028-.072-.068zm.552 1.052-.368.068-.012.828.368-.068zm4.177-6.872c.316 0 .184.392.364.392.064 0 .216-.192.244-.252.024-.048.092-.048.112 0l-.492 1.68c-.032.028-.068.04-.108.04s-.08-.012-.112-.04l.468-1.304a1.272 1.272 0 0 1-.42.088c-.188 0-.348-.136-.348-.316a.29.29 0 0 1 .292-.288zm.592 5.776c.264 0 .432.144.432.356 0 .356-.452.732-.872.732-.264 0-.432-.144-.432-.356 0-.356.452-.732.872-.732z"/>
    <rect width=".13" height="4.329" x="-.065" y="-3.314" fill="currentColor" ry=".04" transform="translate(84.995 19.108)"/>
    <path fill="currentColor" d="M88.677 16.064c.264 0 .432.144.432.356 0 .356-.452.732-.872.732-.264 0-.432-.144-.432-.356 0-.356.452-.732.872-.732z"/>
    <rect width=".13" height="3.986" x="-.065" y="-2.314" fill="currentColor" ry=".04" transform="translate(87.87 19.108)"/>
    <path fill="currentColor" d="M91.551 8.564c.264 0 .432.144.432.356 0 .356-.452.732-.872.732-.264 0-.432-.144-.432-.356 0-.356.452-.732.872-.732zm0 9c.264 0 .432.144.432.356 0 .356-.452.732-.872.732-.264 0-.432-.144-.432-.356 0-.356.452-.732.872-.732z"/>
    <rect width=".13" height="3.314" x="-.065" y="-.814" fill="currentColor" ry=".04" transform="translate(90.744 10.108)"/>
    <path fill="currentColor" d="M90.81 12.568h-.065v-1h.064v1zm0 0v-1c.387-.236.895-.592.895-1.036 0-.228-.06-.448-.16-.652-.012-.064.04-.108.092-.108.028 0 .06.012.08.044.1.224.16.468.16.716 0 .812-1.068 1.224-1.068 2.036z"/>
    <rect width=".13" height="3.142" x="-.065" y="-.814" fill="currentColor" ry=".04" transform="translate(90.744 19.108)"/>
    <path fill="currentColor" d="M94.426 18.564c.264 0 .432.144.432.356 0 .356-.452.732-.872.732-.264 0-.432-.144-.432-.356 0-.356.452-.732.872-.732z"/>
    <rect width=".13" height="2.799" x="-.065" y=".186" fill="currentColor" ry=".04" transform="translate(93.62 19.108)"/>
</svg>
