<svg xmlns="http://www.w3.org/2000/svg" xmlns:xlink="http://www.w3.org/1999/xlink" width="680.315" height="60mm" version="1.2" viewBox="0 0 102.43 34.143">
    <defs>
        <path id="a" fill="currentColor" d="M218 136c66 0 108-36 108-89 0-89-113-183-218-183C42-136 0-100 0-47c0 89 113 183 218 183z"/>
        <path id="b" fill="currentColor" d="m27 41-1-66v-11c0-22 1-44 4-66 45 38 93 80 93 139 0 33-14 67-43 67-31 0-52-30-53-63zm-42-179-12 595c8 5 18 8 27 8s19-3 27-8l-7-345c25 21 58 34 91 34 52 0 89-48 89-102 0-80-86-117-147-169-15-13-24-38-45-38-13 0-23 11-23 25z"/>
        <path id="c" fill="currentColor" d="M263 265c0-33 70-23 70-125C333 48 254 0 154 0 75 0 0 42 0 113c0 36 30 66 66 66s65-30 65-66c0-25-40-28-40-53 0-27 32-37 63-37 49 0 63 61 63 117v16c0 54-2 94-50 94H87c-10 0-14 8-14 15s4 14 14 14h80c49 0 50 43 50 99v8c0 54-18 91-67 91-28 0-57-9-57-33 0-22 35-25 35-47 0-32-25-58-57-58s-58 26-58 58c0 64 67 103 137 103 91 0 169-33 169-114 0-122-56-80-56-121z"/>
        <path id="d" fill="currentColor" d="M196 117h117c0-48 27-94 72-94 8 0 12-5 12-11s-4-12-12-12c-44 0-87 13-131 13S167 0 123 0c-8 0-12 6-12 12s4 11 12 11c45 0 73 46 73 94zM-2 148c0 12 140 143 140 336 0 10 7 19 16 16 23-7 47-13 71-13s48 6 71 13c14 4 23-9 17-16L29 154h167v131c0 34 34 27 68 72 22 30 23 56 36 56 6 0 13-5 13-14V154h72c10 0 15-7 15-14s-5-15-15-15h-72v-8H196v8H29c-23 0-31 14-31 23z"/>
        <path id="e" fill="currentColor" d="M125 205c79 0 45-98 90-98 15 0 50 49 57 63 6 12 23 12 28 0L121-500c-8-7-17-10-27-10s-20 3-28 10l101 327c-34-12-70-23-106-23-47 0-87 34-87 79 0 40 32 72 72 72 79 0 46-98 91-98 16 0 55 51 60 68l46 151c-34-12-68-22-104-22-47 0-87 34-87 79 0 40 33 72 73 72z"/>
        <path id="f" fill="currentColor" d="M0 0c0 31 25 56 56 56s56-25 56-56-25-56-56-56S0-31 0 0z"/>
        <path id="g" fill="currentColor" d="M-7 375c8 4 17 7 25 7s16-3 24-7l-2-183 106 20h3c10 0 18-7 18-17l7-570c-8-4-17-7-25-7s-16 3-24 7l2 183-106-20h-3c-10 0-18 7-18 17zm138-263L39 95l-3-207 92 17z"/>
        <path id="h" fill="currentColor" d="M0 0h-16v250H0V0zm0 0v250c97 59 224 148 224 259 0 57-15 112-40 163-3 16 10 27 23 27 7 0 15-3 20-11 25-56 40-117 40-179C267 306 0 203 0 0z"/>
    </defs>
    <text fill="currentColor" font-family="serif" font-size="2.47" font-weight="bold" transform="translate(5.69 5.519)">
<tspan style="white-space:pre">Grave</tspan>
</text>
    <rect width="1.956" height=".2" x="24.545" y="-.1" fill="currentColor" ry=".1" transform="translate(5.69 13.108)"/>
    <rect width="1.956" height=".2" x="11.489" y="-.1" fill="currentColor" ry=".1" transform="translate(5.69 13.108)"/>
    <rect width="1.956" height=".2" x="11.489" y="-.1" fill="currentColor" ry=".1" transform="translate(5.69 14.108)"/>
    <path stroke="currentColor" stroke-linecap="round" stroke-linejoin="round" stroke-width=".1" d="M5.74 12.108h90.95m-90.95-1h90.95m-90.95-1h90.95m-90.95-1h90.95m-90.95-1h90.95"/>
    <rect width=".19" height="4.95" y="6.1" fill="currentColor" ry="0" transform="translate(96.55 6.058)"/>
    <rect width="1.956" height=".2" x="78.913" y="-.1" fill="currentColor" ry=".1" transform="translate(5.69 16.108)"/>
    <rect width="1.956" height=".2" x="55.263" y="-.1" fill="currentColor" ry=".1" transform="translate(5.69 22.108)"/>
    <rect width="1.956" height=".2" x="37.99" y="-.1" fill="currentColor" ry=".1" transform="translate(5.69 16.108)"/>
    <rect width="1.956" height=".2" x="17.884" y="-.1" fill="currentColor" ry=".1" transform="translate(5.69 22.108)"/>
    <rect width="1.956" height=".2" x="14.509" y="-.1" fill="currentColor" ry=".1" transform="translate(5.69 22.108)"/>
    <rect width="1.956" height=".2" x="14.509" y="-.1" fill="currentColor" ry=".1" transform="translate(5.69 23.108)"/>
    <path stroke="currentColor" stroke-linecap="round" stroke-linejoin="round" stroke-width=".1" d="M5.74 21.108h90.95m-90.95-1h90.95m-90.95-1h90.95m-90.95-1h90.95m-90.95-1h90.95"/>
    <rect width=".19" height="4.05" y="-2.05" fill="currentColor" ry="0" transform="translate(96.55 19.108)"/>
    <rect width=".19" height="4.05" y="-2" fill="currentColor" ry="0" transform="translate(96.55 10.108)"/>
    <rect width=".19" height="4.95" y="6.1" fill="currentColor" ry="0" transform="translate(55.056 6.058)"/>
    <rect width=".19" height="4.05" y="-2.05" fill="currentColor" ry="0" transform="translate(55.056 19.108)"/>
    <rect width=".19" height="4.05" y="-2" fill="currentColor" ry="0" transform="translate(55.056 10.108)"/>
    <path fill="currentColor" stroke="currentColor" stroke-linecap="round" stroke-linejoin="round" stroke-width=".08" d="M93.644 21.098v.4l-8.674-2v-.4zm0 .81v.4l-8.674-2v-.4zm-11.999-1.81v.4l-10.37 1.5v-.4zm0 .81v.4l-10.37 1.5v-.4z"/>
    <use xlink:href="#a" transform="matrix(.004 0 0 -.004 17.505 14.608)"/>
    <use xlink:href="#a" transform="matrix(.004 0 0 -.004 17.505 13.108)"/>
    <use xlink:href="#a" transform="matrix(.004 0 0 -.004 17.505 12.108)"/>
    <use xlink:href="#a" transform="matrix(.004 0 0 -.004 17.505 11.108)"/>
    <path fill="currentColor" d="M7.555 13.648H7.53a.783.783 0 0 1-.78-.788c0-.232.212-.412.448-.412.216 0 .38.188.38.412 0 .208-.172.38-.38.38a.326.326 0 0 1-.124-.024c.104.156.272.26.468.26h.016zm.78-1.728a.69.69 0 0 0 .452-.656.764.764 0 0 0-.692-.76c.076.356.192.968.24 1.416zm-1.548-.924c0 .58.564.988 1.056.988.004 0 .188 0 .328-.024a17.343 17.343 0 0 0-.252-1.456c-.316.032-.496.244-.496.476 0 .176.1.364.324.492.02.02.028.04.028.06 0 .044-.04.088-.088.088-.06 0-.504-.248-.504-.748 0-.352.232-.696.64-.788a15.048 15.048 0 0 0-.184-.7c-.428.484-.852.972-.852 1.612zm.704-2.1c-.116-.384-.208-.68-.208-1.384 0-.46.22-.896.596-1.168a.06.06 0 0 1 .08 0c.272.32.532.98.532 1.432 0 .572-.344 1.02-.72 1.456.084.272.156.552.224.828.008 0 .028-.004.052-.004.62 0 1.024.512 1.024 1.044 0 .452-.296.848-.72.984.012.14.02.28.02.42 0 .076-.004.156-.008.232-.028.476-.352.9-.808.912l.004-.172c.372-.008.612-.368.636-.764a3.775 3.775 0 0 0-.008-.588c-.02.004-.176.032-.356.032-.772 0-1.332-.72-1.332-1.496 0-.708.524-1.224.992-1.764zm.712-1.452c0-.136.004-.264-.08-.516a1.153 1.153 0 0 0-.648 1.036c0 .208.048.46.144.776.32-.388.584-.792.584-1.296z"/>
    <use xlink:href="#b" transform="matrix(.004 0 0 -.004 10.11 10.108)"/>
    <use xlink:href="#b" transform="matrix(.004 0 0 -.004 11.03 8.608)"/>
    <use xlink:href="#b" transform="matrix(.004 0 0 -.004 11.95 10.608)"/>
    <use xlink:href="#c" transform="matrix(.004 0 0 -.004 14.037 10.108)"/>
    <use xlink:href="#d" transform="matrix(.004 0 0 -.004 13.9 12.124)"/>
    <use xlink:href="#e" transform="matrix(.004 0 0 -.004 17.505 19.108)"/>
    <path fill="currentColor" d="M8.719 18.608c0-.112.092-.204.204-.204s.204.092.204.204-.092.204-.204.204-.204-.092-.204-.204zm0-1c0-.112.092-.204.204-.204s.204.092.204.204-.092.204-.204.204-.204-.092-.204-.204zm-1.3-.552c.688 0 1.172.352 1.172 1.004 0 1.052-1.052 1.656-2.064 2.084a.049.049 0 0 1-.036.016.053.053 0 0 1-.052-.052c0-.012.004-.024.016-.036.808-.472 1.648-1.06 1.648-1.972 0-.48-.252-.94-.684-.94-.296 0-.516.216-.616.504a.323.323 0 0 1 .136-.032c.22 0 .4.18.4.4 0 .232-.176.424-.4.424-.24 0-.448-.188-.448-.424 0-.532.408-.976.928-.976z"/>
    <use xlink:href="#b" transform="matrix(.004 0 0 -.004 10.11 20.108)"/>
    <use xlink:href="#b" transform="matrix(.004 0 0 -.004 11.03 18.608)"/>
    <use xlink:href="#b" transform="matrix(.004 0 0 -.004 11.95 20.608)"/>
    <use xlink:href="#c" transform="matrix(.004 0 0 -.004 14.037 19.108)"/>
    <use xlink:href="#d" transform="matrix(.004 0 0 -.004 13.9 21.124)"/>
    <rect width=".13" height="6.814" x="-.065" y="-2.5" fill="currentColor" ry=".04" transform="translate(18.744 10.108)"/>
    <path fill="currentColor" stroke="currentColor" stroke-linecap="round" stroke-linejoin="round" stroke-width=".08" d="M69.294 17.098v.4l-6.8 1v-.4zm0 .81v.4l-6.8 1v-.4z"/>
    <use xlink:href="#a" transform="matrix(.004 0 0 -.004 20.526 23.108)"/>
    <rect width=".13" height="3.821" x="-.065" y="-.008" fill="currentColor" ry=".04" transform="translate(21.765 19.108)"/>
    <path fill="currentColor" stroke="currentColor" stroke-linecap="round" stroke-linejoin="round" stroke-width=".08" d="M69.293 6.408v.4l-9.82-.31v-.4zm.001.81v.4l-1.085-.037v-.4z"/>
    <use xlink:href="#a" transform="matrix(.004 0 0 -.004 23.9 22.108)"/>
    <rect width=".13" height="3.219" x="-.065" y="-.405" fill="currentColor" ry=".04" transform="translate(25.14 19.108)"/>
    <path fill="currentColor" stroke="currentColor" stroke-linecap="round" stroke-linejoin="round" stroke-width=".08" d="M52.72 21.098v.4l-8.673-2v-.4zm0 .81v.4l-8.673-2v-.4z"/>
    <use xlink:href="#a" transform="matrix(.004 0 0 -.004 27.276 21.108)"/>
    <rect width=".13" height="2.616" x="-.065" y="-.802" fill="currentColor" ry=".04" transform="translate(28.515 19.108)"/>
    <use xlink:href="#a" transform="matrix(.004 0 0 -.004 30.561 13.108)"/>
    <use xlink:href="#a" transform="matrix(.004 0 0 -.004 30.561 12.108)"/>
    <use xlink:href="#a" transform="matrix(.004 0 0 -.004 30.561 11.108)"/>
    <path fill="currentColor" d="M31.293 7.328c0 .044-.036.08-.08.08s-.08-.036-.08-.08v-.324l-.131.2a.079.079 0 0 1-.068.036.072.072 0 0 1-.06-.028l-.396-.476c-.149.224-.145.224-.189.224s-.08-.036-.08-.08c0-.024 0-.024.385-.604a.079.079 0 0 1 .068-.036c.024 0 .044.008.06.028l.392.476.02-.028v-.564c0-.044.036-.08.08-.08s.08.036.08.08v.324l.131-.2a.079.079 0 0 1 .068-.036.07.07 0 0 1 .06.028l.396.476.032-.048.132.088-.28.42a.079.079 0 0 1-.067.036.072.072 0 0 1-.06-.028l-.392-.476-.02.028v.564zm.78-.772a.072.072 0 0 1 .065-.036.08.08 0 0 1 .08.08.08.08 0 0 1-.013.044l-.091.14-.132-.088z"/>
    <use xlink:href="#a" transform="matrix(.004 0 0 -.004 30.561 19.608)"/>
    <use xlink:href="#f" transform="matrix(.004 0 0 -.004 32.316 12.608)"/>
    <rect width=".13" height="5.314" x="-.065" y="-2.5" fill="currentColor" ry=".04" transform="translate(31.8 10.108)"/>
    <use xlink:href="#f" transform="matrix(.004 0 0 -.004 32.316 11.608)"/>
    <use xlink:href="#f" transform="matrix(.004 0 0 -.004 32.316 10.608)"/>
    <rect width=".13" height="2.803" x="-.065" y=".686" fill="currentColor" ry=".04" transform="translate(30.626 19.108)"/>
    <path fill="currentColor" stroke="currentColor" stroke-linecap="round" stroke-linejoin="round" stroke-width=".08" d="M40.972 19.908v.4l-10.37 1.69v-.4zm0 .81v.4l-10.37 1.69v-.4z"/>
    <use xlink:href="#a" transform="matrix(.004 0 0 -.004 33.936 18.608)"/>
    <rect width=".13" height="3.258" x="-.065" y="-.314" fill="currentColor" ry=".04" transform="translate(34.001 19.108)"/>
    <path fill="currentColor" stroke="currentColor" stroke-linecap="round" stroke-linejoin="round" stroke-width=".08" d="M28.54 18.098v.4l-6.8.81v-.4zm0 .81v.4l-6.8.81v-.4z"/>
    <use xlink:href="#a" transform="matrix(.004 0 0 -.004 37.31 17.608)"/>
    <rect width=".13" height="3.712" x="-.065" y="-1.314" fill="currentColor" ry=".04" transform="translate(37.376 19.108)"/>
    <use xlink:href="#a" transform="matrix(.004 0 0 -.004 40.882 16.608)"/>
    <rect width=".13" height="4.134" x="-.065" y="-2.314" fill="currentColor" ry=".04" transform="translate(40.947 19.108)"/>
    <use xlink:href="#g" transform="matrix(.004 0 0 -.004 39.836 16.608)"/>
    <use xlink:href="#a" transform="matrix(.004 0 0 -.004 44.007 16.108)"/>
    <rect width=".13" height="3.829" x="-.065" y="-2.814" fill="currentColor" ry=".04" transform="translate(44.072 19.108)"/>
    <use xlink:href="#a" transform="matrix(.004 0 0 -.004 46.881 17.608)"/>
    <rect width=".13" height="2.986" x="-.065" y="-1.314" fill="currentColor" ry=".04" transform="translate(46.946 19.108)"/>
    <use xlink:href="#a" transform="matrix(.004 0 0 -.004 49.756 9.608)"/>
    <use xlink:href="#a" transform="matrix(.004 0 0 -.004 49.756 18.608)"/>
    <rect width=".13" height="3.314" x="-.065" y="-.314" fill="currentColor" ry=".04" transform="translate(49.821 10.108)"/>
    <use xlink:href="#h" transform="matrix(.004 0 0 -.004 49.886 13.068)"/>
    <rect width=".13" height="2.642" x="-.065" y="-.314" fill="currentColor" ry=".04" transform="translate(49.821 19.108)"/>
    <use xlink:href="#a" transform="matrix(.004 0 0 -.004 52.63 19.608)"/>
    <rect width=".13" height="2.299" x="-.065" y=".686" fill="currentColor" ry=".04" transform="translate(52.696 19.108)"/>
    <path fill="currentColor" d="M56.696 8.718c.193 0 .328.112.328.278 0 .254-.3.5-.586.5-.193 0-.324-.111-.324-.276 0-.255.296-.502.582-.502z"/>
    <rect width=".16" height="13.1" y="-6.55" fill="currentColor" ry=".05" transform="translate(5.63 14.608)"/>
    <rect width=".13" height="2.386" x="-.065" y="-3.5" fill="currentColor" ry=".04" transform="translate(56.967 10.108)"/>
    <path fill="currentColor" d="M57.354 8.672c0-.034.12-.238.12-.54 0-.283-.252-.574-.442-.784h-.06v-.7h.06c0 .548.58.935.58 1.484 0 .198-.043.392-.116.576-.014.028-.039.037-.064.037-.04 0-.078-.028-.078-.073zm-52.347 7.4c0-1.02-.528-1.452-.528-1.464 0-.072.528-.384.528-1.464 0-1.044-.432-1.956-.432-3.12 0-.756.18-1.464.708-2.004.06-.06.156.036.096.096-.396.396-.516.9-.516 1.44 0 1.02.408 1.92.408 3.06 0 .744-.18 1.452-.696 1.992.516.54.696 1.248.696 1.992 0 1.14-.408 2.04-.408 3.06 0 .54.12 1.044.516 1.44.06.06-.036.156-.096.096-.528-.54-.708-1.248-.708-2.004 0-1.164.432-2.076.432-3.12z"/>
    <use xlink:href="#a" transform="matrix(.004 0 0 -.004 58.26 9.608)"/>
    <use xlink:href="#a" transform="matrix(.004 0 0 -.004 58.26 11.608)"/>
    <use xlink:href="#a" transform="matrix(.004 0 0 -.004 58.26 12.608)"/>
    <use xlink:href="#e" transform="matrix(.004 0 0 -.004 58.26 19.108)"/>
    <use xlink:href="#f" transform="matrix(.004 0 0 -.004 60.013 9.608)"/>
    <rect width=".13" height="6.122" x="-.065" y="-3.808" fill="currentColor" ry=".04" transform="translate(59.498 10.108)"/>
    <use xlink:href="#f" transform="matrix(.004 0 0 -.004 60.013 11.608)"/>
    <use xlink:href="#f" transform="matrix(.004 0 0 -.004 60.013 12.608)"/>
    <use xlink:href="#a" transform="matrix(.004 0 0 -.004 61.28 22.608)"/>
    <rect width=".13" height="4.133" x="-.065" y="-.819" fill="currentColor" ry=".04" transform="translate(62.519 19.108)"/>
    <use xlink:href="#a" transform="matrix(.004 0 0 -.004 64.655 21.608)"/>
    <rect width=".13" height="3.624" x="-.065" y="-1.31" fill="currentColor" ry=".04" transform="translate(65.894 19.108)"/>
    <use xlink:href="#a" transform="matrix(.004 0 0 -.004 68.03 10.108)"/>
    <use xlink:href="#a" transform="matrix(.004 0 0 -.004 68.03 20.608)"/>
    <rect width=".13" height="3.316" x="-.065" y="-3.502" fill="currentColor" ry=".04" transform="translate(69.269 10.108)"/>
    <use xlink:href="#g" transform="matrix(.004 0 0 -.004 66.995 10.108)"/>
    <rect width=".13" height="3.114" x="-.065" y="-1.801" fill="currentColor" ry=".04" transform="translate(69.269 19.108)"/>
    <use xlink:href="#a" transform="matrix(.004 0 0 -.004 71.235 10.108)"/>
    <use xlink:href="#a" transform="matrix(.004 0 0 -.004 71.235 11.608)"/>
    <use xlink:href="#a" transform="matrix(.004 0 0 -.004 71.235 12.608)"/>
    <use xlink:href="#a" transform="matrix(.004 0 0 -.004 71.235 19.108)"/>
    <rect width=".13" height="5.647" x="-.065" y="-3.333" fill="currentColor" ry=".04" transform="translate(72.474 10.108)"/>
    <rect width=".13" height="3.305" x="-.065" y=".186" fill="currentColor" ry=".04" transform="translate(71.3 19.108)"/>
    <use xlink:href="#a" transform="matrix(.004 0 0 -.004 74.61 18.108)"/>
    <rect width=".13" height="3.82" x="-.065" y="-.814" fill="currentColor" ry=".04" transform="translate(74.674 19.108)"/>
    <use xlink:href="#a" transform="matrix(.004 0 0 -.004 77.984 17.108)"/>
    <rect width=".13" height="4.336" x="-.065" y="-1.814" fill="currentColor" ry=".04" transform="translate(78.05 19.108)"/>
    <use xlink:href="#a" transform="matrix(.004 0 0 -.004 81.555 16.608)"/>
    <rect width=".13" height="4.323" x="-.065" y="-2.314" fill="currentColor" ry=".04" transform="translate(81.62 19.108)"/>
    <use xlink:href="#g" transform="matrix(.004 0 0 -.004 80.509 16.608)"/>
    <path fill="currentColor" d="M85.21 9.288c.316 0 .184.392.364.392.064 0 .216-.192.244-.252.024-.048.092-.048.112 0l-.492 1.68c-.032.028-.068.04-.108.04s-.08-.012-.112-.04l.468-1.304a1.272 1.272 0 0 1-.42.088c-.188 0-.348-.136-.348-.316a.29.29 0 0 1 .292-.288z"/>
    <use xlink:href="#a" transform="matrix(.004 0 0 -.004 84.93 15.608)"/>
    <rect width=".13" height="4.329" x="-.065" y="-3.314" fill="currentColor" ry=".04" transform="translate(84.995 19.108)"/>
    <use xlink:href="#a" transform="matrix(.004 0 0 -.004 87.805 16.608)"/>
    <rect width=".13" height="3.986" x="-.065" y="-2.314" fill="currentColor" ry=".04" transform="translate(87.87 19.108)"/>
    <use xlink:href="#a" transform="matrix(.004 0 0 -.004 90.68 9.108)"/>
    <use xlink:href="#a" transform="matrix(.004 0 0 -.004 90.68 18.108)"/>
    <rect width=".13" height="3.314" x="-.065" y="-.814" fill="currentColor" ry=".04" transform="translate(90.744 10.108)"/>
    <use xlink:href="#h" transform="matrix(.004 0 0 -.004 90.81 12.568)"/>
    <rect width=".13" height="3.142" x="-.065" y="-.814" fill="currentColor" ry=".04" transform="translate(90.744 19.108)"/>
    <use xlink:href="#a" transform="matrix(.004 0 0 -.004 93.554 19.108)"/>
    <rect width=".13" height="2.799" x="-.065" y=".186" fill="currentColor" ry=".04" transform="translate(93.62 19.108)"/>
</svg>
