<svg xmlns="http://www.w3.org/2000/svg" width="793.701" height="416.693" class="d-block mx-auto d-block mx-auto" version="1.2" viewBox="0 0 119.502 62.739"><style>tspan{white-space:pre}</style><text font-family="serif" font-size="2.47" font-weight="bold" transform="translate(5.69 5.514)">
<tspan>Allegro</tspan>
</text><rect width="1.377" height=".2" x="58.202" y="-.1" ry=".1" transform="translate(5.69 9.881)"/><rect width="1.956" height=".2" x="54.321" y="-.1" ry=".1" transform="translate(5.69 9.881)"/><rect width="1.956" height=".2" x="49.624" y="-.1" ry=".1" transform="translate(5.69 9.881)"/><rect width="1.956" height=".2" x="44.927" y="-.1" ry=".1" transform="translate(5.69 9.881)"/><rect width="1.956" height=".2" x="41.454" y="-.1" ry=".1" transform="translate(5.69 9.881)"/><rect width="1.956" height=".2" x="39.019" y="-.1" ry=".1" transform="translate(5.69 8.881)"/><rect width="1.956" height=".2" x="39.019" y="-.1" ry=".1" transform="translate(5.69 9.881)"/><rect width="1.821" height=".2" x="35.588" y="-.1" ry=".1" transform="translate(5.69 8.881)"/><rect width="1.821" height=".2" x="35.588" y="-.1" ry=".1" transform="translate(5.69 9.881)"/><rect width="1.294" height=".2" x="34.193" y="-.1" ry=".1" transform="translate(5.69 8.881)"/><rect width="1.294" height=".2" x="34.193" y="-.1" ry=".1" transform="translate(5.69 9.881)"/><rect width="1.334" height=".2" x="32.76" y="-.1" ry=".1" transform="translate(5.69 9.881)"/><rect width="1.956" height=".2" x="28.954" y="-.1" ry=".1" transform="translate(5.69 8.881)"/><rect width="1.956" height=".2" x="28.954" y="-.1" ry=".1" transform="translate(5.69 9.881)"/><rect width="1.956" height=".2" x="24.257" y="-.1" ry=".1" transform="translate(5.69 8.881)"/><rect width="1.956" height=".2" x="24.257" y="-.1" ry=".1" transform="translate(5.69 9.881)"/><rect width="1.956" height=".2" x="19.56" y="-.1" ry=".1" transform="translate(5.69 8.881)"/><rect width="1.956" height=".2" x="19.56" y="-.1" ry=".1" transform="translate(5.69 9.881)"/><path stroke="currentColor" stroke-linecap="round" stroke-linejoin="round" stroke-width=".1" d="M14.276 14.881h99.485m-99.485-1h99.485m-99.485-1h99.485m-99.485-1h99.485m-99.485-1h99.485"/><rect width=".19" height="4.95" y="39.589" ry="0" transform="translate(113.621 6.547)"/><rect width=".19" height="6.45" y="18.589" ry="0" transform="translate(113.621 6.547)"/><rect width=".19" height="6.155" y="8.384" ry="0" transform="translate(113.621 6.547)"/><rect width="1.956" height=".2" x="105.419" y="-.1" ry=".1" transform="translate(5.69 20.087)"/><rect width="1.956" height=".2" x="100.549" y="-.1" ry=".1" transform="translate(5.69 20.087)"/><rect width="1.956" height=".2" x="94.124" y="-.1" ry=".1" transform="translate(5.69 20.087)"/><rect width="1.956" height=".2" x="89.254" y="-.1" ry=".1" transform="translate(5.69 20.087)"/><rect width="1.956" height=".2" x="84.383" y="-.1" ry=".1" transform="translate(5.69 20.087)"/><rect width="1.956" height=".2" x="79.513" y="-.1" ry=".1" transform="translate(5.69 20.087)"/><path stroke="currentColor" stroke-linecap="round" stroke-linejoin="round" stroke-width=".1" d="M14.276 25.087h99.485m-99.485-1h99.485m-99.485-1h99.485m-99.485-1h99.485m-99.485-1h99.485"/><rect width=".19" height="6.155" y="8.384" ry="0" transform="translate(113.621 6.547)"/><rect width=".19" height="4.05" y="-2.05" ry="0" transform="translate(113.621 53.087)"/><rect width=".19" height="4.05" y="-2" ry="0" transform="translate(113.621 44.087)"/><rect width=".19" height="4.05" y="-2.05" ry="0" transform="translate(113.621 33.587)"/><path stroke="currentColor" stroke-linecap="round" stroke-linejoin="round" stroke-width=".1" d="M14.276 35.587h99.485m-99.485-1h99.485m-99.485-1h99.485m-99.485-1h99.485m-99.485-1h99.485"/><rect width=".19" height="4.1" y="-2.05" ry="0" transform="translate(113.621 23.087)"/><rect width=".19" height="4.05" y="-2" ry="0" transform="translate(113.621 12.881)"/><rect width=".19" height="4.95" y="39.589" ry="0" transform="translate(74.267 6.547)"/><rect width=".19" height="6.45" y="18.589" ry="0" transform="translate(74.267 6.547)"/><rect width=".19" height="6.155" y="8.384" ry="0" transform="translate(74.267 6.547)"/><rect width=".19" height="6.155" y="8.384" ry="0" transform="translate(74.267 6.547)"/><path stroke="currentColor" stroke-linecap="round" stroke-linejoin="round" stroke-width=".1" d="M14.276 46.087h99.485m-99.485-1h99.485m-99.485-1h99.485m-99.485-1h99.485m-99.485-1h99.485"/><rect width=".19" height="4.05" y="-2.05" ry="0" transform="translate(74.267 53.087)"/><path stroke="currentColor" stroke-linecap="round" stroke-linejoin="round" stroke-width=".1" d="M14.276 55.087h99.485m-99.485-1h99.485m-99.485-1h99.485m-99.485-1h99.485m-99.485-1h99.485"/><rect width=".19" height="4.05" y="-2" ry="0" transform="translate(74.267 44.087)"/><rect width=".19" height="4.05" y="-2.05" ry="0" transform="translate(74.267 33.587)"/><rect width=".19" height="4.1" y="-2.05" ry="0" transform="translate(74.267 23.087)"/><rect width=".19" height="4.05" y="-2" ry="0" transform="translate(74.267 12.881)"/><rect width=".19" height="4.95" y="39.589" ry="0" transform="translate(49.763 6.547)"/><rect width=".19" height="6.45" y="18.589" ry="0" transform="translate(49.763 6.547)"/><rect width=".19" height="6.155" y="8.384" ry="0" transform="translate(49.763 6.547)"/><rect width=".19" height="6.155" y="8.384" ry="0" transform="translate(49.763 6.547)"/><rect width=".19" height="4.05" y="-2.05" ry="0" transform="translate(49.763 53.087)"/><rect width=".19" height="4.05" y="-2" ry="0" transform="translate(49.763 44.087)"/><rect width=".19" height="4.05" y="-2.05" ry="0" transform="translate(49.763 33.587)"/><rect width=".19" height="4.1" y="-2.05" ry="0" transform="translate(49.763 23.087)"/><rect width=".19" height="4.05" y="-2" ry="0" transform="translate(49.763 12.881)"/><path d="M26.448 10.337c.264 0 .432.144.432.356 0 .356-.452.732-.872.732-.264 0-.432-.144-.432-.356 0-.356.452-.732.872-.732zm0-2.5c.264 0 .432.144.432.356 0 .356-.452.732-.872.732-.264 0-.432-.144-.432-.356 0-.356.452-.732.872-.732zm.161 9.583-.2.652c-.12.396-.484 1.02-.872 1.02-.18 0-.348-.108-.348-.276 0-.156.068-.308.208-.308.096 0 .176.08.176.176 0 .12-.152.096-.152.216 0 .04.044.044.092.044h.024c.192 0 .244-.232.292-.432l.272-1.092h-.196c-.044 0-.076-.032-.076-.076s.032-.076.076-.076h.24c.128-.384.472-.764.852-.764.18 0 .348.108.348.276 0 .156-.068.308-.208.308a.174.174 0 0 1-.176-.172c0-.12.152-.1.152-.22 0-.04-.04-.044-.088-.044h-.028c-.248 0-.28.352-.344.616h.22c.044 0 .076.032.076.076s-.032.076-.076.076h-.264zm-10.519-.999h-.024a.783.783 0 0 1-.78-.788c0-.232.212-.412.448-.412.216 0 .38.188.38.412 0 .208-.172.38-.38.38a.326.326 0 0 1-.124-.024c.104.156.272.26.468.26h.016zm.78-1.728a.69.69 0 0 0 .452-.656.764.764 0 0 0-.692-.76c.076.356.192.968.24 1.416zm-1.548-.924c0 .58.564.988 1.056.988.004 0 .188 0 .328-.024a17.343 17.343 0 0 0-.252-1.456c-.316.032-.496.244-.496.476 0 .176.1.364.324.492.02.02.028.04.028.06 0 .044-.04.088-.088.088-.06 0-.504-.248-.504-.748 0-.352.232-.696.64-.788a15.048 15.048 0 0 0-.184-.7c-.428.484-.852.972-.852 1.612zm.704-2.1c-.116-.384-.208-.68-.208-1.384 0-.46.22-.896.596-1.168a.06.06 0 0 1 .08 0c.272.32.532.98.532 1.432 0 .572-.344 1.02-.72 1.456.084.272.156.552.224.828.008 0 .028-.004.052-.004.62 0 1.024.512 1.024 1.044 0 .452-.296.848-.72.984.012.14.02.28.02.42 0 .076-.004.156-.008.232-.028.476-.352.9-.808.912l.004-.172c.372-.008.612-.368.636-.764a3.775 3.775 0 0 0-.008-.588c-.02.004-.176.032-.356.032-.772 0-1.332-.72-1.332-1.496 0-.708.524-1.224.992-1.764zm.712-1.452c0-.136.004-.264-.08-.516a1.153 1.153 0 0 0-.648 1.036c0 .208.048.46.144.776.32-.388.584-.792.584-1.296zm1.788.188c0-.032.02-.06.052-.072l.184-.068v-.632c0-.04.032-.076.072-.076s.076.036.076.076v.58l.332-.124v-.632c0-.04.036-.076.076-.076s.072.036.072.076v.58l.128-.048c.008-.004.02-.004.028-.004a.08.08 0 0 1 .08.08v.24c0 .032-.02.064-.052.076l-.184.064v.64l.128-.044c.008-.004.02-.004.028-.004a.08.08 0 0 1 .08.08v.24c0 .032-.02.06-.052.072l-.184.068v.632c0 .04-.032.076-.072.076s-.076-.036-.076-.076v-.58l-.332.124v.632c0 .04-.036.076-.076.076s-.072-.036-.072-.076v-.58l-.128.048c-.008.004-.02.004-.028.004a.08.08 0 0 1-.08-.08v-.24c0-.032.02-.064.052-.076l.184-.064v-.64l-.128.044c-.008.004-.02.004-.028.004a.08.08 0 0 1-.08-.08v-.24zm.716.096-.332.12v.64l.332-.12v-.64zm.384 1.404c0-.032.02-.06.052-.072l.184-.068v-.632c0-.04.032-.076.072-.076s.076.036.076.076v.58l.332-.124v-.632c0-.04.036-.076.076-.076s.072.036.072.076v.58l.128-.048c.008-.004.02-.004.028-.004a.08.08 0 0 1 .08.08v.24c0 .032-.02.064-.052.076l-.184.064v.64l.128-.044c.008-.004.02-.004.028-.004a.08.08 0 0 1 .08.08v.24c0 .032-.02.06-.052.072l-.184.068v.632c0 .04-.032.076-.072.076s-.076-.036-.076-.076v-.58l-.332.124v.632c0 .04-.036.076-.076.076s-.072-.036-.072-.076v-.58l-.128.048c-.008.004-.02.004-.028.004a.08.08 0 0 1-.08-.08v-.24c0-.032.02-.064.052-.076l.184-.064v-.64l-.128.044c-.008.004-.02.004-.028.004a.08.08 0 0 1-.08-.08v-.24zm.716.096-.332.12v.64l.332-.12v-.64zm2.534-.168c.464 0 .704.424.704.652 0 .16-.12.288-.268.288-.124 0-.3-.1-.3-.3 0-.152.108-.308.288-.308.016 0 .036 0 .056.004a.599.599 0 0 0-.48-.236c-.424 0-.452.292-.452.744v.408c0 .452.028.748.452.748.32 0 .556-.28.632-.604.008-.028.028-.04.048-.04.024 0 .052.016.052.048 0 .088-.2.696-.732.696-.236 0-1-.076-1-1.052 0-.248.072-1.048 1-1.048zm3.572 13.21c.264 0 .432.144.432.356 0 .356-.452.732-.872.732-.264 0-.432-.144-.432-.356 0-.356.452-.732.872-.732zm0-2c.264 0 .432.144.432.356 0 .356-.452.732-.872.732-.264 0-.432-.144-.432-.356 0-.356.452-.732.872-.732zm0-2.5c.264 0 .432.144.432.356 0 .356-.452.732-.872.732-.264 0-.432-.144-.432-.356 0-.356.452-.732.872-.732zm.161 7.082-.2.652c-.12.396-.484 1.02-.872 1.02-.18 0-.348-.108-.348-.276 0-.156.068-.308.208-.308.096 0 .176.08.176.176 0 .12-.152.096-.152.216 0 .04.044.044.092.044h.024c.192 0 .244-.232.292-.432l.272-1.092h-.196c-.044 0-.076-.032-.076-.076s.032-.076.076-.076h.24c.128-.384.472-.764.852-.764.18 0 .348.108.348.276 0 .156-.068.308-.208.308a.174.174 0 0 1-.176-.172c0-.12.152-.1.152-.22 0-.04-.04-.044-.088-.044h-.028c-.248 0-.28.352-.344.616h.22c.044 0 .076.032.076.076s-.032.076-.076.076h-.264zm-10.519-.998h-.024a.783.783 0 0 1-.78-.788c0-.232.212-.412.448-.412.216 0 .38.188.38.412 0 .208-.172.38-.38.38a.326.326 0 0 1-.124-.024c.104.156.272.26.468.26h.016zm.78-1.728a.69.69 0 0 0 .452-.656.764.764 0 0 0-.692-.76c.076.356.192.968.24 1.416zm-1.548-.924c0 .58.564.988 1.056.988.004 0 .188 0 .328-.024a17.343 17.343 0 0 0-.252-1.456c-.316.032-.496.244-.496.476 0 .176.1.364.324.492.02.02.028.04.028.06 0 .044-.04.088-.088.088-.06 0-.504-.248-.504-.748 0-.352.232-.696.64-.788a15.048 15.048 0 0 0-.184-.7c-.428.484-.852.972-.852 1.612zm.704-2.1c-.116-.384-.208-.68-.208-1.384 0-.46.22-.896.596-1.168a.06.06 0 0 1 .08 0c.272.32.532.98.532 1.432 0 .572-.344 1.02-.72 1.456.084.272.156.552.224.828.008 0 .028-.004.052-.004.62 0 1.024.512 1.024 1.044 0 .452-.296.848-.72.984.012.14.02.28.02.42 0 .076-.004.156-.008.232-.028.476-.352.9-.808.912l.004-.172c.372-.008.612-.368.636-.764a3.775 3.775 0 0 0-.008-.588c-.02.004-.176.032-.356.032-.772 0-1.332-.72-1.332-1.496 0-.708.524-1.224.992-1.764zm.712-1.452c0-.136.004-.264-.08-.516a1.153 1.153 0 0 0-.648 1.036c0 .208.048.46.144.776.32-.388.584-.792.584-1.296zm1.788.187c0-.031.02-.06.052-.071l.184-.068v-.632c0-.04.032-.076.072-.076s.076.036.076.076v.58l.332-.124v-.632c0-.04.036-.076.076-.076s.072.036.072.076v.58l.128-.048c.008-.004.02-.004.028-.004a.08.08 0 0 1 .08.08v.24c0 .032-.02.064-.052.076l-.184.064v.64l.128-.044c.008-.004.02-.004.028-.004a.08.08 0 0 1 .08.08v.24c0 .032-.02.06-.052.072l-.184.068v.632c0 .04-.032.076-.072.076s-.076-.036-.076-.076v-.58l-.332.124v.632c0 .04-.036.076-.076.076s-.072-.036-.072-.076v-.58l-.128.048c-.008.004-.02.004-.028.004a.08.08 0 0 1-.08-.08v-.24c0-.032.02-.064.052-.076l.184-.064v-.64l-.128.044c-.008.004-.02.004-.028.004a.08.08 0 0 1-.08-.08v-.24zm.716.097-.332.12v.64l.332-.12v-.64zm.384 1.403c0-.031.02-.06.052-.071l.184-.068v-.632c0-.04.032-.076.072-.076s.076.036.076.076v.58l.332-.124v-.632c0-.04.036-.076.076-.076s.072.036.072.076v.58l.128-.048c.008-.004.02-.004.028-.004a.08.08 0 0 1 .08.08v.24c0 .032-.02.064-.052.076l-.184.064v.64l.128-.044c.008-.004.02-.004.028-.004a.08.08 0 0 1 .08.08v.24c0 .032-.02.06-.052.072l-.184.068v.632c0 .04-.032.076-.072.076s-.076-.036-.076-.076v-.58l-.332.124v.632c0 .04-.036.076-.076.076s-.072-.036-.072-.076v-.58l-.128.048c-.008.004-.02.004-.028.004a.08.08 0 0 1-.08-.08v-.24c0-.032.02-.064.052-.076l.184-.064v-.64l-.128.044c-.008.004-.02.004-.028.004a.08.08 0 0 1-.08-.08v-.24zm.716.097-.332.12v.64l.332-.12v-.64zm2.534-.168c.464 0 .704.424.704.652 0 .16-.12.288-.268.288-.124 0-.3-.1-.3-.3 0-.152.108-.308.288-.308.016 0 .036 0 .056.004a.599.599 0 0 0-.48-.236c-.424 0-.452.292-.452.744v.408c0 .452.028.748.452.748.32 0 .556-.28.632-.604.008-.028.028-.04.048-.04.024 0 .052.016.052.048 0 .088-.2.696-.732.696-.236 0-1-.076-1-1.052 0-.248.072-1.048 1-1.048zm3.572 11.004c.264 0 .432.144.432.356 0 .356-.452.732-.872.732-.264 0-.432-.144-.432-.356 0-.356.452-.732.872-.732zm.161 4.11-.2.652c-.12.396-.484 1.02-.872 1.02-.18 0-.348-.108-.348-.276 0-.156.068-.308.208-.308.096 0 .176.08.176.176 0 .12-.152.096-.152.216 0 .04.044.044.092.044h.024c.192 0 .244-.232.292-.432l.272-1.092h-.196c-.044 0-.076-.032-.076-.076s.032-.076.076-.076h.24c.128-.384.472-.764.852-.764.18 0 .348.108.348.276 0 .156-.068.308-.208.308a.174.174 0 0 1-.176-.172c0-.12.152-.1.152-.22 0-.04-.04-.044-.088-.044h-.028c-.248 0-.28.352-.344.616h.22c.044 0 .076.032.076.076s-.032.076-.076.076h-.264zm-9.355-4.066c0-.112.092-.204.204-.204s.204.092.204.204-.092.204-.204.204-.204-.092-.204-.204zm0-1c0-.112.092-.204.204-.204s.204.092.204.204-.092.204-.204.204-.204-.092-.204-.204zm-1.3-.552c.688 0 1.172.352 1.172 1.004 0 1.052-1.052 1.656-2.064 2.084a.049.049 0 0 1-.036.016.053.053 0 0 1-.052-.052c0-.012.004-.024.016-.036.808-.472 1.648-1.06 1.648-1.972 0-.48-.252-.94-.684-.94-.296 0-.516.216-.616.504a.323.323 0 0 1 .136-.032c.22 0 .4.18.4.4 0 .232-.176.424-.4.424-.24 0-.448-.188-.448-.424 0-.532.408-.976.928-.976zm2.572.575c0-.031.02-.06.052-.071l.184-.068v-.632c0-.04.032-.076.072-.076s.076.036.076.076v.58l.332-.124v-.632c0-.04.036-.076.076-.076s.072.036.072.076v.58l.128-.048c.008-.004.02-.004.028-.004a.08.08 0 0 1 .08.08v.24c0 .032-.02.064-.052.076l-.184.064v.64l.128-.044c.008-.004.02-.004.028-.004a.08.08 0 0 1 .08.08v.24c0 .032-.02.06-.052.072l-.184.068v.632c0 .04-.032.076-.072.076s-.076-.036-.076-.076v-.58l-.332.124v.632c0 .04-.036.076-.076.076s-.072-.036-.072-.076v-.58l-.128.048c-.008.004-.02.004-.028.004a.08.08 0 0 1-.08-.08v-.24c0-.032.02-.064.052-.076l.184-.064v-.64l-.128.044c-.008.004-.02.004-.028.004a.08.08 0 0 1-.08-.08v-.24zm.716.097-.332.12v.64l.332-.12v-.64zm.384 1.403c0-.031.02-.06.052-.071l.184-.068v-.632c0-.04.032-.076.072-.076s.076.036.076.076v.58l.332-.124v-.632c0-.04.036-.076.076-.076s.072.036.072.076v.58l.128-.048c.008-.004.02-.004.028-.004a.08.08 0 0 1 .08.08v.24c0 .032-.02.064-.052.076l-.184.064v.64l.128-.044c.008-.004.02-.004.028-.004a.08.08 0 0 1 .08.08v.24c0 .032-.02.06-.052.072l-.184.068v.632c0 .04-.032.076-.072.076s-.076-.036-.076-.076v-.58l-.332.124v.632c0 .04-.036.076-.076.076s-.072-.036-.072-.076v-.58l-.128.048c-.008.004-.02.004-.028.004a.08.08 0 0 1-.08-.08v-.24c0-.032.02-.064.052-.076l.184-.064v-.64l-.128.044c-.008.004-.02.004-.028.004a.08.08 0 0 1-.08-.08v-.24zm.716.097-.332.12v.64l.332-.12v-.64zm2.534-1.168c.464 0 .704.424.704.652 0 .16-.12.288-.268.288-.124 0-.3-.1-.3-.3 0-.152.108-.308.288-.308.016 0 .036 0 .056.004a.599.599 0 0 0-.48-.236c-.424 0-.452.292-.452.744v.408c0 .452.028.748.452.748.32 0 .556-.28.632-.604.008-.028.028-.04.048-.04.024 0 .052.016.052.048 0 .088-.2.696-.732.696-.236 0-1-.076-1-1.052 0-.248.072-1.048 1-1.048zM16.09 47.627h-.024a.783.783 0 0 1-.78-.788c0-.232.212-.412.448-.412.216 0 .38.188.38.412 0 .208-.172.38-.38.38a.326.326 0 0 1-.124-.024c.104.156.272.26.468.26h.016zm.78-1.728a.69.69 0 0 0 .452-.656.764.764 0 0 0-.692-.76c.076.356.192.968.24 1.416zm-1.548-.924c0 .58.564.988 1.056.988.004 0 .188 0 .328-.024a17.343 17.343 0 0 0-.252-1.456c-.316.032-.496.244-.496.476 0 .176.1.364.324.492.02.02.028.04.028.06 0 .044-.04.088-.088.088-.06 0-.504-.248-.504-.748 0-.352.232-.696.64-.788a15.048 15.048 0 0 0-.184-.7c-.428.484-.852.972-.852 1.612zm.704-2.1c-.116-.384-.208-.68-.208-1.384 0-.46.22-.896.596-1.168a.06.06 0 0 1 .08 0c.272.32.532.98.532 1.432 0 .572-.344 1.02-.72 1.456.084.272.156.552.224.828.008 0 .028-.004.052-.004.62 0 1.024.512 1.024 1.044 0 .452-.296.848-.72.984.012.14.02.28.02.42 0 .076-.004.156-.008.232-.028.476-.352.9-.808.912l.004-.172c.372-.008.612-.368.636-.764a3.775 3.775 0 0 0-.008-.588c-.02.004-.176.032-.356.032-.772 0-1.332-.72-1.332-1.496 0-.708.524-1.224.992-1.764zm.712-1.452c0-.136.004-.264-.08-.516a1.153 1.153 0 0 0-.648 1.036c0 .208.048.46.144.776.32-.388.584-.792.584-1.296zm1.788.187c0-.031.02-.06.052-.071l.184-.068v-.632c0-.04.032-.076.072-.076s.076.036.076.076v.58l.332-.124v-.632c0-.04.036-.076.076-.076s.072.036.072.076v.58l.128-.048c.008-.004.02-.004.028-.004a.08.08 0 0 1 .08.08v.24c0 .032-.02.064-.052.076l-.184.064v.64l.128-.044c.008-.004.02-.004.028-.004a.08.08 0 0 1 .08.08v.24c0 .032-.02.06-.052.072l-.184.068v.632c0 .04-.032.076-.072.076s-.076-.036-.076-.076v-.58l-.332.124v.632c0 .04-.036.076-.076.076s-.072-.036-.072-.076v-.58l-.128.048c-.008.004-.02.004-.028.004a.08.08 0 0 1-.08-.08v-.24c0-.032.02-.064.052-.076l.184-.064v-.64l-.128.044c-.008.004-.02.004-.028.004a.08.08 0 0 1-.08-.08v-.24zm.716.097-.332.12v.64l.332-.12v-.64zm.384 1.403c0-.031.02-.06.052-.071l.184-.068v-.632c0-.04.032-.076.072-.076s.076.036.076.076v.58l.332-.124v-.632c0-.04.036-.076.076-.076s.072.036.072.076v.58l.128-.048c.008-.004.02-.004.028-.004a.08.08 0 0 1 .08.08v.24c0 .032-.02.064-.052.076l-.184.064v.64l.128-.044c.008-.004.02-.004.028-.004a.08.08 0 0 1 .08.08v.24c0 .032-.02.06-.052.072l-.184.068v.632c0 .04-.032.076-.072.076s-.076-.036-.076-.076v-.58l-.332.124v.632c0 .04-.036.076-.076.076s-.072-.036-.072-.076v-.58l-.128.048c-.008.004-.02.004-.028.004a.08.08 0 0 1-.08-.08v-.24c0-.032.02-.064.052-.076l.184-.064v-.64l-.128.044c-.008.004-.02.004-.028.004a.08.08 0 0 1-.08-.08v-.24zm.716.097-.332.12v.64l.332-.12v-.64zm2.534-.168c.464 0 .704.424.704.652 0 .16-.12.288-.268.288-.124 0-.3-.1-.3-.3 0-.152.108-.308.288-.308.016 0 .036 0 .056.004a.599.599 0 0 0-.48-.236c-.424 0-.452.292-.452.744v.408c0 .452.028.748.452.748.32 0 .556-.28.632-.604.008-.028.028-.04.048-.04.024 0 .052.016.052.048 0 .088-.2.696-.732.696-.236 0-1-.076-1-1.052 0-.248.072-1.048 1-1.048zm3.572 9.504c.264 0 .432.144.432.356 0 .356-.452.732-.872.732-.264 0-.432-.144-.432-.356 0-.356.452-.732.872-.732zm.161 4.11-.2.652c-.12.396-.484 1.02-.872 1.02-.18 0-.348-.108-.348-.276 0-.156.068-.308.208-.308.096 0 .176.08.176.176 0 .12-.152.096-.152.216 0 .04.044.044.092.044h.024c.192 0 .244-.232.292-.432l.272-1.092h-.196c-.044 0-.076-.032-.076-.076s.032-.076.076-.076h.24c.128-.384.472-.764.852-.764.18 0 .348.108.348.276 0 .156-.068.308-.208.308a.174.174 0 0 1-.176-.172c0-.12.152-.1.152-.22 0-.04-.04-.044-.088-.044h-.028c-.248 0-.28.352-.344.616h.22c.044 0 .076.032.076.076s-.032.076-.076.076h-.264zm-9.355-4.066c0-.112.092-.204.204-.204s.204.092.204.204-.092.204-.204.204-.204-.092-.204-.204zm0-1c0-.112.092-.204.204-.204s.204.092.204.204-.092.204-.204.204-.204-.092-.204-.204zm-1.3-.552c.688 0 1.172.352 1.172 1.004 0 1.052-1.052 1.656-2.064 2.084a.049.049 0 0 1-.036.016.053.053 0 0 1-.052-.052c0-.012.004-.024.016-.036.808-.472 1.648-1.06 1.648-1.972 0-.48-.252-.94-.684-.94-.296 0-.516.216-.616.504a.323.323 0 0 1 .136-.032c.22 0 .4.18.4.4 0 .232-.176.424-.4.424-.24 0-.448-.188-.448-.424 0-.532.408-.976.928-.976zm2.572.575c0-.031.02-.06.052-.071l.184-.068v-.632c0-.04.032-.076.072-.076s.076.036.076.076v.58l.332-.124v-.632c0-.04.036-.076.076-.076s.072.036.072.076v.58l.128-.048c.008-.004.02-.004.028-.004a.08.08 0 0 1 .08.08v.24c0 .032-.02.064-.052.076l-.184.064v.64l.128-.044c.008-.004.02-.004.028-.004a.08.08 0 0 1 .08.08v.24c0 .032-.02.06-.052.072l-.184.068v.632c0 .04-.032.076-.072.076s-.076-.036-.076-.076v-.58l-.332.124v.632c0 .04-.036.076-.076.076s-.072-.036-.072-.076v-.58l-.128.048c-.008.004-.02.004-.028.004a.08.08 0 0 1-.08-.08v-.24c0-.032.02-.064.052-.076l.184-.064v-.64l-.128.044c-.008.004-.02.004-.028.004a.08.08 0 0 1-.08-.08v-.24zm.716.097-.332.12v.64l.332-.12v-.64zm.384 1.403c0-.031.02-.06.052-.071l.184-.068v-.632c0-.04.032-.076.072-.076s.076.036.076.076v.58l.332-.124v-.632c0-.04.036-.076.076-.076s.072.036.072.076v.58l.128-.048c.008-.004.02-.004.028-.004a.08.08 0 0 1 .08.08v.24c0 .032-.02.064-.052.076l-.184.064v.64l.128-.044c.008-.004.02-.004.028-.004a.08.08 0 0 1 .08.08v.24c0 .032-.02.06-.052.072l-.184.068v.632c0 .04-.032.076-.072.076s-.076-.036-.076-.076v-.58l-.332.124v.632c0 .04-.036.076-.076.076s-.072-.036-.072-.076v-.58l-.128.048c-.008.004-.02.004-.028.004a.08.08 0 0 1-.08-.08v-.24c0-.032.02-.064.052-.076l.184-.064v-.64l-.128.044c-.008.004-.02.004-.028.004a.08.08 0 0 1-.08-.08v-.24zm.716.097-.332.12v.64l.332-.12v-.64zm2.534-1.168c.464 0 .704.424.704.652 0 .16-.12.288-.268.288-.124 0-.3-.1-.3-.3 0-.152.108-.308.288-.308.016 0 .036 0 .056.004a.599.599 0 0 0-.48-.236c-.424 0-.452.292-.452.744v.408c0 .452.028.748.452.748.32 0 .556-.28.632-.604.008-.028.028-.04.048-.04.024 0 .052.016.052.048 0 .088-.2.696-.732.696-.236 0-1-.076-1-1.052 0-.248.072-1.048 1-1.048z"/><rect width=".13" height="9.314" x="-.065" y="-4.314" ry=".04" transform="translate(25.641 12.881)"/><rect width=".13" height="6.981" x="-.065" y="-4.667" ry=".04" transform="translate(26.816 23.087)"/><rect width=".13" height="3.147" x="-.065" y=".186" ry=".04" transform="translate(25.641 33.587)"/><rect width=".13" height="3.147" x="-.065" y=".186" ry=".04" transform="translate(25.641 53.087)"/><path stroke="currentColor" stroke-linecap="round" stroke-linejoin="round" stroke-width=".08" d="M108.84 55.077v.4l-16.215-.38v-.4z"/><path d="M31.146 14.837c.264 0 .432.144.432.356 0 .356-.452.732-.872.732-.264 0-.432-.144-.432-.356 0-.356.452-.732.872-.732zm0-4.5c.264 0 .432.144.432.356 0 .356-.452.732-.872.732-.264 0-.432-.144-.432-.356 0-.356.452-.732.872-.732zm0-2.5c.264 0 .432.144.432.356 0 .356-.452.732-.872.732-.264 0-.432-.144-.432-.356 0-.356.452-.732.872-.732zm0 17.206c.264 0 .432.144.432.356 0 .356-.452.732-.872.732-.264 0-.432-.144-.432-.356 0-.356.452-.732.872-.732zm0-2c.264 0 .432.144.432.356 0 .356-.452.732-.872.732-.264 0-.432-.144-.432-.356 0-.356.452-.732.872-.732zm0-2.5c.264 0 .432.144.432.356 0 .356-.452.732-.872.732-.264 0-.432-.144-.432-.356 0-.356.452-.732.872-.732zm0 12.5c.264 0 .432.144.432.356 0 .356-.452.732-.872.732-.264 0-.432-.144-.432-.356 0-.356.452-.732.872-.732zm0 19.5c.264 0 .432.144.432.356 0 .356-.452.732-.872.732-.264 0-.432-.144-.432-.356 0-.356.452-.732.872-.732z"/><rect width=".13" height="9.314" x="-.065" y="-4.314" ry=".04" transform="translate(30.339 12.881)"/><rect width=".13" height="6.981" x="-.065" y="-4.667" ry=".04" transform="translate(31.513 23.087)"/><rect width=".13" height="3.147" x="-.065" y=".186" ry=".04" transform="translate(30.339 33.587)"/><rect width=".13" height="3.147" x="-.065" y=".186" ry=".04" transform="translate(30.339 53.087)"/><path stroke="currentColor" stroke-linecap="round" stroke-linejoin="round" stroke-width=".08" d="M108.84 35.577v.4l-16.215-.38v-.4z"/><path d="M35.843 14.837c.264 0 .432.144.432.356 0 .356-.452.732-.872.732-.264 0-.432-.144-.432-.356 0-.356.452-.732.872-.732zm0-4.5c.264 0 .432.144.432.356 0 .356-.452.732-.872.732-.264 0-.432-.144-.432-.356 0-.356.452-.732.872-.732zm0-2.5c.264 0 .432.144.432.356 0 .356-.452.732-.872.732-.264 0-.432-.144-.432-.356 0-.356.452-.732.872-.732zm0 17.206c.264 0 .432.144.432.356 0 .356-.452.732-.872.732-.264 0-.432-.144-.432-.356 0-.356.452-.732.872-.732zm0-2c.264 0 .432.144.432.356 0 .356-.452.732-.872.732-.264 0-.432-.144-.432-.356 0-.356.452-.732.872-.732zm0-2.5c.264 0 .432.144.432.356 0 .356-.452.732-.872.732-.264 0-.432-.144-.432-.356 0-.356.452-.732.872-.732zm0 12.5c.264 0 .432.144.432.356 0 .356-.452.732-.872.732-.264 0-.432-.144-.432-.356 0-.356.452-.732.872-.732zm0 19.5c.264 0 .432.144.432.356 0 .356-.452.732-.872.732-.264 0-.432-.144-.432-.356 0-.356.452-.732.872-.732z"/><rect width=".13" height="9.314" x="-.065" y="-4.314" ry=".04" transform="translate(35.036 12.881)"/><rect width=".13" height="6.981" x="-.065" y="-4.667" ry=".04" transform="translate(36.21 23.087)"/><rect width=".13" height="3.147" x="-.065" y=".186" ry=".04" transform="translate(35.036 33.587)"/><rect width=".13" height="3.147" x="-.065" y=".186" ry=".04" transform="translate(35.036 53.087)"/><path stroke="currentColor" stroke-linecap="round" stroke-linejoin="round" stroke-width=".08" d="M111.526 25.577v.4h-7.606v-.4zm0 .81v.4h-7.606v-.4z"/><path d="M39.262 8.992c.193 0 .328.112.328.277 0 .255-.3.501-.585.501-.194 0-.325-.112-.325-.277 0-.255.297-.501.582-.501z"/><rect width=".13" height="2.256" x="-.065" y="-5.87" ry=".04" transform="translate(39.533 12.881)"/><path stroke="currentColor" stroke-linecap="round" stroke-linejoin="round" stroke-width=".08" d="M100.23 25.577v.4h-7.605v-.4zm0 .81v.4h-7.605v-.4z"/><path d="M40.652 8.492c.194 0 .328.112.328.277 0 .255-.3.501-.585.501-.193 0-.325-.112-.325-.277 0-.255.297-.501.582-.501z"/><rect width=".13" height="2.015" x="-.065" y="-6.13" ry=".04" transform="translate(40.923 12.881)"/><path stroke="currentColor" stroke-linecap="round" stroke-linejoin="round" stroke-width=".08" d="M102.1 13.561v.4l-1.92.105v-.4zm0 .81v.4l-1.92.105v-.4zm0 .81v.4l-9.475.5v-.4z"/><path d="M42.34 7.837c.265 0 .433.144.433.356 0 .356-.452.732-.872.732-.264 0-.432-.144-.432-.356 0-.356.452-.732.872-.732zm-.895 14.938c0-.236.496-.332.496-.728a.427.427 0 0 0-.1-.276l-.14-.168a.057.057 0 0 1-.016-.04c0-.036.036-.06.068-.06.016 0 .032.004.044.02l.604.72a.16.16 0 0 1 .04.1c0 .236-.496.332-.496.728 0 .096.028.196.096.276l.336.396a.057.057 0 0 1 .016.04c0 .036-.032.064-.064.064s-.18-.176-.436-.176c-.064 0-.212 0-.212.268 0 .14.044.296.112.376.028.032-.02.076-.048.044-.18-.216-.368-.592-.368-.808 0-.164.108-.168.16-.168.132 0 .312.052.476.124l-.528-.632a.16.16 0 0 1-.04-.1zm0 10.5c0-.236.496-.332.496-.728a.427.427 0 0 0-.1-.276l-.14-.168a.057.057 0 0 1-.016-.04c0-.036.036-.06.068-.06.016 0 .032.004.044.02l.604.72a.16.16 0 0 1 .04.1c0 .236-.496.332-.496.728 0 .096.028.196.096.276l.336.396a.057.057 0 0 1 .016.04c0 .036-.032.064-.064.064s-.18-.176-.436-.176c-.064 0-.212 0-.212.268 0 .14.044.296.112.376.028.032-.02.076-.048.044-.18-.216-.368-.592-.368-.808 0-.164.108-.168.16-.168.132 0 .312.052.476.124l-.528-.632a.16.16 0 0 1-.04-.1zm0 19.5c0-.236.496-.332.496-.728a.427.427 0 0 0-.1-.276l-.14-.168a.057.057 0 0 1-.016-.04c0-.036.036-.06.068-.06.016 0 .032.004.044.02l.604.72a.16.16 0 0 1 .04.1c0 .236-.496.332-.496.728 0 .096.028.196.096.276l.336.396a.057.057 0 0 1 .016.04c0 .036-.032.064-.064.064s-.18-.176-.436-.176c-.064 0-.212 0-.212.268 0 .14.044.296.112.376.028.032-.02.076-.048.044-.18-.216-.368-.592-.368-.808 0-.164.108-.168.16-.168.132 0 .312.052.476.124l-.528-.632a.16.16 0 0 1-.04-.1z"/><rect width=".13" height="4.314" x="-.065" y="-4.314" ry=".04" transform="translate(41.534 12.881)"/><path d="M45.907 8.337c.264 0 .432.144.432.356 0 .356-.452.732-.872.732-.264 0-.432-.144-.432-.356 0-.356.452-.732.872-.732z"/><rect width=".13" height="3.814" x="-.065" y="-3.814" ry=".04" transform="translate(45.1 12.881)"/><path d="M48.342 8.837c.264 0 .432.144.432.356 0 .356-.452.732-.872.732-.264 0-.432-.144-.432-.356 0-.356.452-.732.872-.732z"/><rect width=".13" height="3.314" x="-.065" y="-3.314" ry=".04" transform="translate(47.535 12.881)"/><path stroke="currentColor" stroke-linecap="round" stroke-linejoin="round" stroke-width=".08" d="M87.805 55.077v.4l-12.303.62v-.4zm0-19.5v.4l-12.303.62v-.4z"/><path d="M51.816 9.337c.263 0 .431.144.431.356 0 .356-.451.732-.871.732-.264 0-.432-.144-.432-.356 0-.356.451-.732.871-.732zm-25.368 5.5c.264 0 .432.144.432.356 0 .356-.452.732-.872.732-.264 0-.432-.144-.432-.356 0-.356.452-.732.872-.732zm25.368 10.206c.263 0 .431.144.431.356 0 .356-.451.732-.871.732-.264 0-.432-.144-.432-.356 0-.356.451-.732.871-.732zm0-2c.263 0 .431.144.431.356 0 .356-.451.732-.871.732-.264 0-.432-.144-.432-.356 0-.356.451-.732.871-.732zm0-2.5c.263 0 .431.144.431.356 0 .356-.451.732-.871.732-.264 0-.432-.144-.432-.356 0-.356.451-.732.871-.732z"/><path stroke="currentColor" stroke-linecap="round" stroke-linejoin="round" stroke-width=".08" d="M90.49 25.577v.4h-7.606v-.4zm0 .81v.4h-7.606v-.4z"/><path d="M51.816 33.043c.263 0 .431.144.431.356 0 .356-.451.732-.871.732-.264 0-.432-.144-.432-.356 0-.356.451-.732.871-.732zm0 19.5c.263 0 .431.144.431.356 0 .356-.451.732-.871.732-.264 0-.432-.144-.432-.356 0-.356.451-.732.871-.732zM94.75 43.71h-1.42c-.025 0-.04-.015-.04-.04v-.543c0-.024.015-.04.04-.04h1.42c.023 0 .04.016.04.04v.544c0 .024-.017.04-.04.04z"/><rect width=".13" height="3.314" x="-.065" y="-2.814" ry=".04" transform="translate(51.008 12.881)"/><rect width=".13" height="6.981" x="-.065" y="-4.667" ry=".04" transform="translate(52.183 23.087)"/><rect width=".13" height="3.147" x="-.065" y=".186" ry=".04" transform="translate(51.008 33.587)"/><rect width=".13" height="3.147" x="-.065" y=".186" ry=".04" transform="translate(51.008 53.087)"/><rect width=".16" height="44.305" y="-22.153" ry=".05" transform="translate(14.166 32.984)"/><path d="M56.513 12.837c.264 0 .432.144.432.356 0 .356-.452.732-.872.732-.264 0-.432-.144-.432-.356 0-.356.452-.732.872-.732zm0-3.5c.264 0 .432.144.432.356 0 .356-.452.732-.872.732-.264 0-.432-.144-.432-.356 0-.356.452-.732.872-.732zm0 15.706c.264 0 .432.144.432.356 0 .356-.452.732-.872.732-.264 0-.432-.144-.432-.356 0-.356.452-.732.872-.732zm0-2c.264 0 .432.144.432.356 0 .356-.452.732-.872.732-.264 0-.432-.144-.432-.356 0-.356.452-.732.872-.732zm0-2.5c.264 0 .432.144.432.356 0 .356-.452.732-.872.732-.264 0-.432-.144-.432-.356 0-.356.452-.732.872-.732zm0 12.5c.264 0 .432.144.432.356 0 .356-.452.732-.872.732-.264 0-.432-.144-.432-.356 0-.356.452-.732.872-.732zm0 19.5c.264 0 .432.144.432.356 0 .356-.452.732-.872.732-.264 0-.432-.144-.432-.356 0-.356.452-.732.872-.732z"/><rect width=".13" height="6.481" x="-.065" y="-2.814" ry=".04" transform="translate(55.706 12.881)"/><rect width=".13" height="6.981" x="-.065" y="-4.667" ry=".04" transform="translate(56.88 23.087)"/><rect width=".13" height="3.147" x="-.065" y=".186" ry=".04" transform="translate(55.706 33.587)"/><rect width=".13" height="3.147" x="-.065" y=".186" ry=".04" transform="translate(55.706 53.087)"/><path stroke="currentColor" stroke-linecap="round" stroke-linejoin="round" stroke-width=".08" d="M93.191 11.336c1.572-1.607 7.551-2.241 9.426-1h0c-1.862-1.122-7.841-.488-9.426 1z"/><path d="M61.21 12.837c.264 0 .432.144.432.356 0 .356-.452.732-.872.732-.264 0-.432-.144-.432-.356 0-.356.452-.732.872-.732zm0-3.5c.264 0 .432.144.432.356 0 .356-.452.732-.872.732-.264 0-.432-.144-.432-.356 0-.356.452-.732.872-.732zm0 15.706c.264 0 .432.144.432.356 0 .356-.452.732-.872.732-.264 0-.432-.144-.432-.356 0-.356.452-.732.872-.732zm0-2c.264 0 .432.144.432.356 0 .356-.452.732-.872.732-.264 0-.432-.144-.432-.356 0-.356.452-.732.872-.732zm0-2.5c.264 0 .432.144.432.356 0 .356-.452.732-.872.732-.264 0-.432-.144-.432-.356 0-.356.452-.732.872-.732zm0 12.5c.264 0 .432.144.432.356 0 .356-.452.732-.872.732-.264 0-.432-.144-.432-.356 0-.356.452-.732.872-.732zm0 19.5c.264 0 .432.144.432.356 0 .356-.452.732-.872.732-.264 0-.432-.144-.432-.356 0-.356.452-.732.872-.732z"/><rect width=".13" height="6.481" x="-.065" y="-2.814" ry=".04" transform="translate(60.403 12.881)"/><rect width=".13" height="6.981" x="-.065" y="-4.667" ry=".04" transform="translate(61.577 23.087)"/><rect width=".13" height="3.147" x="-.065" y=".186" ry=".04" transform="translate(60.403 33.587)"/><rect width=".13" height="3.147" x="-.065" y=".186" ry=".04" transform="translate(60.403 53.087)"/><path d="M64.705 9.492c.193 0 .327.112.327.277 0 .255-.3.501-.585.501-.193 0-.325-.112-.325-.277 0-.255.297-.501.583-.501zm0 11.205c.193 0 .327.112.327.278 0 .254-.3.5-.585.5-.193 0-.325-.111-.325-.276 0-.255.297-.502.583-.502z"/><rect width=".13" height="2.486" x="-.065" y="-5.6" ry=".04" transform="translate(64.975 12.881)"/><path d="M65.04 7.915v.596-.596c0 .319.238.563.409.826a.374.374 0 0 0 .017-.112c0-.263-.244-.527-.426-.714zm.322 1.78c0-.03.12-.207.12-.473s-.251-.526-.442-.71v.21h-.059v-1.4h.06c0 .495.562.811.562 1.307a.643.643 0 0 1-.065.269c.05.1.082.207.082.324 0 .177-.042.35-.115.51-.014.028-.04.036-.065.036-.039 0-.078-.028-.078-.072z"/><rect width=".13" height="2.486" x="-.065" y="-4.6" ry=".04" transform="translate(64.975 23.087)"/><path d="M65.04 19.12v.597-.597c0 .32.238.563.409.826a.374.374 0 0 0 .017-.112c0-.263-.244-.526-.426-.714zm.322 1.781c0-.03.12-.207.12-.473s-.251-.527-.442-.711v.21h-.059v-1.4h.06c0 .495.562.812.562 1.307a.643.643 0 0 1-.065.269c.05.1.082.207.082.325 0 .176-.042.35-.115.51-.014.027-.04.036-.065.036-.039 0-.078-.028-.078-.073zm1.543-11.064c.264 0 .432.144.432.356 0 .356-.452.732-.872.732-.264 0-.432-.144-.432-.356 0-.356.452-.732.872-.732zm0 11.206c.264 0 .432.144.432.356 0 .356-.452.732-.872.732-.264 0-.432-.144-.432-.356 0-.356.452-.732.872-.732zm-.895 12.232c0-.236.495-.332.495-.728a.427.427 0 0 0-.1-.276l-.14-.168a.057.057 0 0 1-.016-.04c0-.036.036-.06.068-.06.016 0 .032.004.044.02l.604.72a.16.16 0 0 1 .04.1c0 .236-.496.332-.496.728 0 .096.028.196.096.276l.336.396a.057.057 0 0 1 .016.04c0 .036-.032.064-.064.064s-.18-.176-.436-.176c-.064 0-.212 0-.212.268 0 .14.044.296.112.376.028.032-.02.076-.048.044-.18-.216-.368-.592-.368-.808 0-.164.108-.168.16-.168.132 0 .312.052.476.124l-.528-.632a.16.16 0 0 1-.04-.1zm0 19.5c0-.236.495-.332.495-.728a.427.427 0 0 0-.1-.276l-.14-.168a.057.057 0 0 1-.016-.04c0-.036.036-.06.068-.06.016 0 .032.004.044.02l.604.72a.16.16 0 0 1 .04.1c0 .236-.496.332-.496.728 0 .096.028.196.096.276l.336.396a.057.057 0 0 1 .016.04c0 .036-.032.064-.064.064s-.18-.176-.436-.176c-.064 0-.212 0-.212.268 0 .14.044.296.112.376.028.032-.02.076-.048.044-.18-.216-.368-.592-.368-.808 0-.164.108-.168.16-.168.132 0 .312.052.476.124l-.528-.632a.16.16 0 0 1-.04-.1z"/><rect width=".13" height="3.51" x="-.065" y="-2.314" ry=".04" transform="translate(66.098 12.881)"/><rect width=".13" height="3.51" x="-.065" y="-1.314" ry=".04" transform="translate(66.098 23.087)"/><path stroke="currentColor" stroke-linecap="round" stroke-linejoin="round" stroke-width=".08" d="M72.125 24.887v.4l-2.485-.26v-.4zm0 .81v.4l-6.052-.62v-.4z"/><path d="M70.472 10.337c.264 0 .432.144.432.356 0 .356-.452.732-.872.732-.264 0-.432-.144-.432-.356 0-.356.452-.732.872-.732zm0 11.206c.264 0 .432.144.432.356 0 .356-.452.732-.872.732-.264 0-.432-.144-.432-.356 0-.356.452-.732.872-.732z"/><rect width=".13" height="3.371" x="-.065" y="-1.814" ry=".04" transform="translate(69.665 12.881)"/><rect width=".13" height="3.371" x="-.065" y="-.814" ry=".04" transform="translate(69.665 23.087)"/><path stroke="currentColor" stroke-linecap="round" stroke-linejoin="round" stroke-width=".08" d="M72.125 13.681v.4l-2.485-.26v-.4zm0 .81v.4l-6.052-.62v-.4z"/><path d="M72.907 10.837c.264 0 .432.144.432.356 0 .356-.452.732-.872.732-.264 0-.432-.144-.432-.356 0-.356.452-.732.872-.732zm0 11.206c.264 0 .432.144.432.356 0 .356-.452.732-.872.732-.264 0-.432-.144-.432-.356 0-.356.452-.732.872-.732z"/><rect width=".13" height="3.117" x="-.065" y="-1.314" ry=".04" transform="translate(72.1 12.881)"/><rect width=".13" height="3.117" x="-.065" y="-.314" ry=".04" transform="translate(72.1 23.087)"/><path d="M76.334 11.337c.264 0 .432.144.432.356 0 .356-.452.732-.872.732-.264 0-.432-.144-.432-.356 0-.356.452-.732.872-.732zm-.272-.956-.148-.8c0-.008-.004-.02-.004-.028 0-.096.096-.172.204-.172s.204.076.204.172c0 .008-.004.02-.004.028l-.148.8c-.004.028-.024.052-.052.052s-.048-.024-.052-.052zM13.542 50.05c0-1.02-.528-1.451-.528-1.463 0-.072.528-.384.528-1.464 0-1.044-.432-1.956-.432-3.12 0-.756.18-1.464.708-2.004.06-.06.156.036.096.096-.396.396-.516.9-.516 1.44 0 1.02.408 1.92.408 3.06 0 .744-.18 1.452-.696 1.992.516.54.696 1.248.696 1.992 0 1.14-.408 2.04-.408 3.06 0 .54.12 1.044.516 1.44.06.06-.036.156-.096.096-.528-.54-.708-1.248-.708-2.004 0-1.164.432-2.076.432-3.12zm62.792-28.507c.264 0 .432.144.432.356 0 .356-.452.732-.872.732-.264 0-.432-.144-.432-.356 0-.356.452-.732.872-.732z"/><text font-family="serif" font-size="2.2" transform="translate(3.222 49.334)">
<tspan>Cembalo</tspan>
</text><path d="M76.334 33.043c.264 0 .432.144.432.356 0 .356-.452.732-.872.732-.264 0-.432-.144-.432-.356 0-.356.452-.732.872-.732zm0 19.5c.264 0 .432.144.432.356 0 .356-.452.732-.872.732-.264 0-.432-.144-.432-.356 0-.356.452-.732.872-.732z"/><rect width=".13" height="3.314" x="-.065" y="-.814" ry=".04" transform="translate(75.527 12.881)"/><rect width=".13" height="3.314" x="-.065" y="-.814" ry=".04" transform="translate(75.527 23.087)"/><path d="M37.38 43.71h-1.42c-.024 0-.04-.015-.04-.04v-.543c0-.024.016-.04.04-.04h1.42c.024 0 .04.016.04.04v.544c0 .024-.016.04-.04.04z"/><rect width=".13" height="2.621" x="-.065" y=".186" ry=".04" transform="translate(75.527 33.587)"/><path d="M12.916 10.83v-.348c0-.056.044-.1.1-.1h.2c.636 0 1.084-.544 1.448-1.08.048-.068.152.004.104.072-.396.576-.86 1.456-1.552 1.456h-.3zm0 24.808h.3c.692 0 1.156.88 1.552 1.456.048.068-.056.14-.104.072-.364-.536-.812-1.08-1.448-1.08h-.2a.099.099 0 0 1-.1-.1v-.348z"/><rect width=".45" height="24.895" y="-12.448" ry="0" transform="translate(12.916 23.234)"/><rect width=".13" height="2.621" x="-.065" y=".186" ry=".04" transform="translate(75.527 53.087)"/><path d="M79.9 33.043c.264 0 .432.144.432.356 0 .356-.452.732-.872.732-.264 0-.432-.144-.432-.356 0-.356.452-.732.872-.732zm0 19.5c.264 0 .432.144.432.356 0 .356-.452.732-.872.732-.264 0-.432-.144-.432-.356 0-.356.452-.732.872-.732z"/><rect width=".13" height="2.442" x="-.065" y=".186" ry=".04" transform="translate(79.093 33.587)"/><rect width=".13" height="2.442" x="-.065" y=".186" ry=".04" transform="translate(79.093 53.087)"/><path stroke="currentColor" stroke-linecap="round" stroke-linejoin="round" stroke-width=".08" d="M47.56 11.871v.4h-2.485v-.4zm0 .81v.4h-6.05v-.4z"/><path d="M83.716 11.337c.264 0 .432.144.432.356 0 .356-.452.732-.872.732-.264 0-.432-.144-.432-.356 0-.356.452-.732.872-.732zm-.272-.956-.148-.8c0-.008-.004-.02-.004-.028 0-.096.096-.172.204-.172s.204.076.204.172c0 .008-.004.02-.004.028l-.148.8c-.004.028-.024.052-.052.052s-.048-.024-.052-.052zm.272 12.662c.264 0 .432.144.432.356 0 .356-.452.732-.872.732-.264 0-.432-.144-.432-.356 0-.356.452-.732.872-.732zm0 9c.264 0 .432.144.432.356 0 .356-.452.732-.872.732-.264 0-.432-.144-.432-.356 0-.356.452-.732.872-.732zm0 19.5c.264 0 .432.144.432.356 0 .356-.452.732-.872.732-.264 0-.432-.144-.432-.356 0-.356.452-.732.872-.732zm-.416 5.349c-.097 0-.102.088-.102.203s.005.2.102.2c.1 0 .12-.084.12-.2s-.02-.203-.12-.203zm-.102-.068a.198.198 0 0 1 .102-.026c.226 0 .389.09.389.297s-.163.295-.39.295c-.25 0-.387-.273-.387-.55 0-.284.17-.55.434-.55.165 0 .31.114.31.27a.128.128 0 0 1-.255 0c0-.046.077-.05.077-.097 0-.057-.068-.079-.132-.079-.134 0-.152.132-.152.284 0 .05.004.106.004.156z"/><rect width=".13" height="3.314" x="-.065" y="-.814" ry=".04" transform="translate(82.91 12.881)"/><rect width=".13" height="2.814" x="-.065" y=".686" ry=".04" transform="translate(82.91 23.087)"/><rect width=".13" height="3.251" x="-.065" y="-.814" ry=".04" transform="translate(82.91 33.587)"/><rect width=".13" height="3.251" x="-.065" y="-.814" ry=".04" transform="translate(82.91 53.087)"/><path d="M86.401 19.543c.264 0 .432.144.432.356 0 .356-.452.732-.872.732-.264 0-.432-.144-.432-.356 0-.356.452-.732.872-.732z"/><rect width=".13" height="6.314" x="-.065" y="-2.814" ry=".04" transform="translate(85.594 23.087)"/><path d="M62.82 43.71H61.4c-.024 0-.04-.015-.04-.04v-.543c0-.024.016-.04.04-.04h1.42c.024 0 .04.016.04.04v.544c0 .024-.016.04-.04.04zm25.767-20.667c.264 0 .432.144.432.356 0 .356-.452.732-.872.732-.264 0-.432-.144-.432-.356 0-.356.452-.732.872-.732zm0 9c.264 0 .432.144.432.356 0 .356-.452.732-.872.732-.264 0-.432-.144-.432-.356 0-.356.452-.732.872-.732zm0 19.5c.264 0 .432.144.432.356 0 .356-.452.732-.872.732-.264 0-.432-.144-.432-.356 0-.356.452-.732.872-.732z"/><rect width=".13" height="2.814" x="-.065" y=".686" ry=".04" transform="translate(87.78 23.087)"/><rect width=".13" height="3.007" x="-.065" y="-.814" ry=".04" transform="translate(87.78 33.587)"/><rect width=".13" height="3.007" x="-.065" y="-.814" ry=".04" transform="translate(87.78 53.087)"/><path stroke="currentColor" stroke-linecap="round" stroke-linejoin="round" stroke-width=".08" d="M40.948 6.587v.304l-1.44.284v-.304zm0 .648v.304l-1.44.284V7.52z"/><path d="M91.272 19.543c.264 0 .432.144.432.356 0 .356-.452.732-.872.732-.264 0-.432-.144-.432-.356 0-.356.452-.732.872-.732z"/><rect width=".13" height="6.314" x="-.065" y="-2.814" ry=".04" transform="translate(90.465 23.087)"/><path d="M93.457 11.837c.264 0 .432.144.432.356 0 .356-.452.732-.872.732-.264 0-.432-.144-.432-.356 0-.356.452-.732.872-.732zm0 11.206c.264 0 .432.144.432.356 0 .356-.452.732-.872.732-.264 0-.432-.144-.432-.356 0-.356.452-.732.872-.732zm0 8.5c.264 0 .432.144.432.356 0 .356-.452.732-.872.732-.264 0-.432-.144-.432-.356 0-.356.452-.732.872-.732zm0 19.5c.264 0 .432.144.432.356 0 .356-.452.732-.872.732-.264 0-.432-.144-.432-.356 0-.356.452-.732.872-.732zm-.627 6.201c-.133 0-.087.146-.16.146-.023 0-.048-.016-.048-.047 0-.338.51-.356.51-.734 0-.11-.037-.225-.133-.225-.073 0-.143.033-.143.097 0 .053.068.081.068.134a.134.134 0 1 1-.268 0c0-.182.156-.325.343-.325.215 0 .418.12.418.319 0 .308-.289.338-.495.45.187.005.248.135.363.135.099 0 .061-.09.125-.09.024 0 .05.017.05.046 0 .064-.107.24-.318.24-.203 0-.212-.146-.313-.146zm1.51-44.863a.224.224 0 1 1 .446 0 .224.224 0 0 1-.447 0z"/><rect width=".13" height="3.311" x="-.065" y="-.314" ry=".04" transform="translate(92.65 12.881)"/><rect width=".13" height="2.814" x="-.065" y=".686" ry=".04" transform="translate(92.65 23.087)"/><rect width=".13" height="3.125" x="-.065" y="-1.314" ry=".04" transform="translate(92.65 33.587)"/><rect width=".13" height="3.125" x="-.065" y="-1.314" ry=".04" transform="translate(92.65 53.087)"/><path d="M96.142 19.543c.264 0 .432.144.432.356 0 .356-.452.732-.872.732-.264 0-.432-.144-.432-.356 0-.356.452-.732.872-.732z"/><rect width=".13" height="6.314" x="-.065" y="-2.814" ry=".04" transform="translate(95.335 23.087)"/><path d="M98.328 23.043c.263 0 .431.144.431.356 0 .356-.451.732-.871.732-.265 0-.433-.144-.433-.356 0-.356.453-.732.873-.732zm0 8.5c.263 0 .431.144.431.356 0 .356-.451.732-.871.732-.265 0-.433-.144-.433-.356 0-.356.453-.732.873-.732zm0 19.5c.263 0 .431.144.431.356 0 .356-.451.732-.871.732-.265 0-.433-.144-.433-.356 0-.356.453-.732.873-.732z"/><rect width=".13" height="2.814" x="-.065" y=".686" ry=".04" transform="translate(97.52 23.087)"/><rect width=".13" height="3.239" x="-.065" y="-1.314" ry=".04" transform="translate(97.52 33.587)"/><rect width=".13" height="3.239" x="-.065" y="-1.314" ry=".04" transform="translate(97.52 53.087)"/><path d="M101.013 11.337c.264 0 .432.144.432.356 0 .356-.452.732-.872.732-.264 0-.432-.144-.432-.356 0-.356.452-.732.872-.732zm0 8.206c.264 0 .432.144.432.356 0 .356-.452.732-.872.732-.264 0-.432-.144-.432-.356 0-.356.452-.732.872-.732z"/><rect width=".13" height="3.415" x="-.065" y="-.814" ry=".04" transform="translate(100.206 12.881)"/><rect width=".13" height="6.314" x="-.065" y="-2.814" ry=".04" transform="translate(100.206 23.087)"/><path d="M102.882 10.837c.264 0 .432.144.432.356 0 .356-.452.732-.872.732-.264 0-.432-.144-.432-.356 0-.356.452-.732.872-.732z"/><rect width=".13" height="3.817" x="-.065" y="-1.314" ry=".04" transform="translate(102.075 12.881)"/><path d="M104.752 11.337c.264 0 .432.144.432.356 0 .356-.452.732-.872.732-.264 0-.432-.144-.432-.356 0-.356.452-.732.872-.732zm-.272-.956-.148-.8c0-.008-.004-.02-.004-.028 0-.096.096-.172.204-.172s.204.076.204.172c0 .008-.004.02-.004.028l-.148.8c-.004.028-.024.052-.052.052s-.048-.024-.052-.052zm.272 12.662c.264 0 .432.144.432.356 0 .356-.452.732-.872.732-.264 0-.432-.144-.432-.356 0-.356.452-.732.872-.732zm0 9c.264 0 .432.144.432.356 0 .356-.452.732-.872.732-.264 0-.432-.144-.432-.356 0-.356.452-.732.872-.732zm0 19.5c.264 0 .432.144.432.356 0 .356-.452.732-.872.732-.264 0-.432-.144-.432-.356 0-.356.452-.732.872-.732zm-.417 5.349c-.096 0-.1.088-.1.203s.004.2.1.2c.102 0 .122-.084.122-.2s-.02-.203-.122-.203zm-.1-.068a.198.198 0 0 1 .1-.026c.227 0 .39.09.39.297s-.163.295-.39.295c-.25 0-.387-.273-.387-.55 0-.284.17-.55.434-.55.165 0 .31.114.31.27a.128.128 0 0 1-.255 0c0-.046.077-.05.077-.097 0-.057-.068-.079-.132-.079-.135 0-.152.132-.152.284 0 .05.004.106.004.156z"/><rect width=".13" height="3.314" x="-.065" y="-.814" ry=".04" transform="translate(103.945 12.881)"/><path d="M104.01 15.341h-.064v-1h.064v1zm0 0v-1c.388-.236.896-.592.896-1.036 0-.228-.06-.448-.16-.652-.012-.064.04-.108.092-.108.028 0 .06.012.08.044.1.224.16.468.16.716 0 .812-1.068 1.224-1.068 2.036z"/><rect width=".13" height="2.814" x="-.065" y=".686" ry=".04" transform="translate(103.945 23.087)"/><rect width=".13" height="2.889" x="-.065" y="-.814" ry=".04" transform="translate(103.945 33.587)"/><rect width=".13" height="2.889" x="-.065" y="-.814" ry=".04" transform="translate(103.945 53.087)"/><path d="M107.437 19.543c.264 0 .432.144.432.356 0 .356-.452.732-.872.732-.264 0-.432-.144-.432-.356 0-.356.452-.732.872-.732z"/><rect width=".13" height="6.314" x="-.065" y="-2.814" ry=".04" transform="translate(106.63 23.087)"/><path d="M109.03 12.061c.317 0 .185.392.365.392.064 0 .216-.192.244-.252.024-.048.092-.048.112 0l-.492 1.68c-.032.028-.068.04-.108.04s-.08-.012-.112-.04l.468-1.304a1.272 1.272 0 0 1-.42.088c-.188 0-.348-.136-.348-.316a.29.29 0 0 1 .292-.288zm.593 10.982c.264 0 .432.144.432.356 0 .356-.452.732-.872.732-.264 0-.432-.144-.432-.356 0-.356.452-.732.872-.732zm0 9c.264 0 .432.144.432.356 0 .356-.452.732-.872.732-.264 0-.432-.144-.432-.356 0-.356.452-.732.872-.732zm0 19.5c.264 0 .432.144.432.356 0 .356-.452.732-.872.732-.264 0-.432-.144-.432-.356 0-.356.452-.732.872-.732z"/><rect width=".13" height="2.814" x="-.065" y=".686" ry=".04" transform="translate(108.816 23.087)"/><rect width=".13" height="3.002" x="-.065" y="-.814" ry=".04" transform="translate(108.816 33.587)"/><rect width=".13" height="3.002" x="-.065" y="-.814" ry=".04" transform="translate(108.816 53.087)"/><path d="M112.308 19.543c.264 0 .432.144.432.356 0 .356-.452.732-.872.732-.264 0-.432-.144-.432-.356 0-.356.452-.732.872-.732z"/><rect width=".13" height="6.314" x="-.065" y="-2.814" ry=".04" transform="translate(111.5 23.087)"/><text font-family="serif" font-size="2.2" transform="translate(4.57 34.3)">
<tspan>Basso</tspan>
</text><path d="M12.28 19.568c0-1.104-.56-1.568-.56-1.584 0-.08.56-.416.56-1.584 0-1.136-.464-2.16-.464-3.424 0-.8.192-1.568.752-2.16.064-.064.16.032.096.096-.416.432-.544.976-.544 1.568 0 1.12.432 2.096.432 3.344 0 .8-.176 1.568-.72 2.16.544.592.72 1.36.72 2.16 0 1.248-.432 2.224-.432 3.344 0 .592.128 1.136.544 1.568.064.064-.032.16-.096.096-.56-.592-.752-1.36-.752-2.16 0-1.264.464-2.288.464-3.424z"/><text font-family="serif" font-size="2.2" transform="translate(2.898 23.834)">
<tspan>Violino II</tspan>
</text><text font-family="serif" font-size="2.2" transform="translate(3.273 13.628)">
<tspan>Violino I</tspan>
</text></svg>
