<svg xmlns="http://www.w3.org/2000/svg" xmlns:xlink="http://www.w3.org/1999/xlink" width="680.315" height="60mm" version="1.2" viewBox="0 0 102.43 34.143">
    <defs>
        <path id="a" fill="currentColor" d="M218 136c66 0 108-36 108-89 0-89-113-183-218-183C42-136 0-100 0-47c0 89 113 183 218 183z"/>
        <path id="b" fill="currentColor" d="M0 119c0 8 5 15 13 18l46 17v158c0 10 8 19 18 19s19-9 19-19V167l83 31v158c0 10 9 19 19 19s18-9 18-19V211l32 12c2 1 5 1 7 1 11 0 20-9 20-20v-60c0-8-5-16-13-19l-46-16V-51l32 11c2 1 5 1 7 1 11 0 20-9 20-20v-60c0-8-5-15-13-18l-46-17v-158c0-10-8-19-18-19s-19 9-19 19v145l-83-31v-158c0-10-9-19-19-19s-18 9-18 19v145l-32-12c-2-1-5-1-7-1-11 0-20 9-20 20v60c0 8 5 16 13 19l46 16V51L27 40c-2-1-5-1-7-1C9 39 0 48 0 59v60zm179-24L96 65V-95l83 30V95z"/>
        <path id="c" fill="currentColor" d="M250 262c116 0 176-106 176-163 0-40-30-72-67-72-31 0-75 25-75 75 0 38 27 77 72 77 4 0 9 0 14-1-28 37-72 59-120 59-106 0-113-73-113-186V-51c0-113 7-187 113-187 80 0 139 70 158 151 2 7 7 10 12 10 6 0 13-4 13-12 0-22-50-174-183-174C191-263 0-244 0 0c0 62 18 262 250 262z"/>
    </defs>
    <text fill="currentColor" font-family="serif" font-size="2.47" font-weight="bold" transform="translate(5.69 5.514)">
<tspan style="white-space:pre">Allegro</tspan>
</text>
    <path stroke="currentColor" stroke-linecap="round" stroke-linejoin="round" stroke-width=".1" d="M5.74 13.89h90.95m-90.95-1h90.95m-90.95-1h90.95m-90.95-1h90.95m-90.95-1h90.95"/>
    <rect width=".19" height="6.723" y="7.392" fill="currentColor" ry="0" transform="translate(96.55 6.547)"/>
    <rect width="1.956" height=".2" x="86.514" y="-.1" fill="currentColor" ry=".1" transform="translate(5.69 18.662)"/>
    <rect width="1.956" height=".2" x="86.514" y="-.1" fill="currentColor" ry=".1" transform="translate(5.69 19.662)"/>
    <rect width="1.956" height=".2" x="82.397" y="-.1" fill="currentColor" ry=".1" transform="translate(5.69 19.662)"/>
    <rect width="1.956" height=".2" x="78.502" y="-.1" fill="currentColor" ry=".1" transform="translate(5.69 18.662)"/>
    <rect width="1.956" height=".2" x="78.502" y="-.1" fill="currentColor" ry=".1" transform="translate(5.69 19.662)"/>
    <rect width="1.956" height=".2" x="70.214" y="-.1" fill="currentColor" ry=".1" transform="translate(5.69 19.662)"/>
    <rect width="1.956" height=".2" x="66.32" y="-.1" fill="currentColor" ry=".1" transform="translate(5.69 18.662)"/>
    <rect width="1.956" height=".2" x="66.32" y="-.1" fill="currentColor" ry=".1" transform="translate(5.69 19.662)"/>
    <rect width="1.956" height=".2" x="61.926" y="-.1" fill="currentColor" ry=".1" transform="translate(5.69 19.662)"/>
    <rect width="1.956" height=".2" x="50.971" y="-.1" fill="currentColor" ry=".1" transform="translate(5.69 19.662)"/>
    <rect width="1.956" height=".2" x="40.056" y="-.1" fill="currentColor" ry=".1" transform="translate(5.69 19.662)"/>
    <rect width="1.956" height=".2" x="26.819" y="-.1" fill="currentColor" ry=".1" transform="translate(5.69 19.662)"/>
    <path stroke="currentColor" stroke-linecap="round" stroke-linejoin="round" stroke-width=".1" d="M5.74 24.662h90.95m-90.95-1h90.95m-90.95-1h90.95m-90.95-1h90.95m-90.95-1h90.95"/>
    <rect width=".19" height="4.05" y="-2.05" fill="currentColor" ry="0" transform="translate(96.55 22.662)"/>
    <rect width=".19" height="4.05" y="-2" fill="currentColor" ry="0" transform="translate(96.55 11.89)"/>
    <rect width=".19" height="6.723" y="7.392" fill="currentColor" ry="0" transform="translate(62.186 6.547)"/>
    <rect width=".19" height="4.05" y="-2.05" fill="currentColor" ry="0" transform="translate(62.186 22.662)"/>
    <rect width=".19" height="4.05" y="-2" fill="currentColor" ry="0" transform="translate(62.186 11.89)"/>
    <rect width=".19" height="6.723" y="7.392" fill="currentColor" ry="0" transform="translate(20.168 6.547)"/>
    <rect width=".19" height="4.05" y="-2.05" fill="currentColor" ry="0" transform="translate(20.168 22.662)"/>
    <rect width=".19" height="4.05" y="-2" fill="currentColor" ry="0" transform="translate(20.168 11.89)"/>
    <use xlink:href="#a" transform="matrix(.004 0 0 -.004 15.94 10.89)"/>
    <path fill="currentColor" d="M7.555 15.43H7.53a.783.783 0 0 1-.78-.789c0-.232.212-.412.448-.412.216 0 .38.188.38.412 0 .208-.172.38-.38.38a.326.326 0 0 1-.124-.024c.104.156.272.26.468.26h.016zm.78-1.729a.69.69 0 0 0 .452-.656.764.764 0 0 0-.692-.76c.076.356.192.968.24 1.416zm-1.548-.924c0 .58.564.988 1.056.988.004 0 .188 0 .328-.024a17.343 17.343 0 0 0-.252-1.456c-.316.032-.496.244-.496.476 0 .176.1.364.324.492.02.02.028.04.028.06 0 .044-.04.088-.088.088-.06 0-.504-.248-.504-.748 0-.352.232-.696.64-.788a15.048 15.048 0 0 0-.184-.7c-.428.484-.852.972-.852 1.612zm.704-2.1c-.116-.384-.208-.68-.208-1.384 0-.46.22-.896.596-1.168a.06.06 0 0 1 .08 0c.272.32.532.98.532 1.432 0 .572-.344 1.02-.72 1.456.084.272.156.552.224.828.008 0 .028-.004.052-.004.62 0 1.024.512 1.024 1.044 0 .452-.296.848-.72.984.012.14.02.28.02.42 0 .076-.004.156-.008.232-.028.476-.352.9-.808.912l.004-.172c.372-.008.612-.368.636-.764a3.775 3.775 0 0 0-.008-.588c-.02.004-.176.032-.356.032-.772 0-1.332-.72-1.332-1.496 0-.708.524-1.224.992-1.764zm.712-1.452c0-.136.004-.264-.08-.516a1.153 1.153 0 0 0-.648 1.036c0 .208.048.46.144.776.32-.388.584-.792.584-1.296z"/>
    <use xlink:href="#b" transform="matrix(.004 0 0 -.004 9.99 9.89)"/>
    <use xlink:href="#c" transform="matrix(.004 0 0 -.004 12.24 11.89)"/>
    <path fill="currentColor" d="M15.917 22.35c0-.236.496-.332.496-.728a.427.427 0 0 0-.1-.276l-.14-.168a.057.057 0 0 1-.016-.04c0-.036.036-.06.068-.06.016 0 .032.004.044.02l.604.72a.16.16 0 0 1 .04.1c0 .236-.496.332-.496.728 0 .096.028.196.096.276l.336.396a.057.057 0 0 1 .016.04c0 .036-.032.064-.064.064s-.18-.176-.436-.176c-.064 0-.212 0-.212.268 0 .14.044.296.112.376.028.032-.02.076-.048.044-.18-.216-.368-.592-.368-.808 0-.164.108-.168.16-.168.132 0 .312.052.476.124l-.528-.632a.16.16 0 0 1-.04-.1zm-7.198-.188c0-.112.092-.204.204-.204s.204.092.204.204-.092.204-.204.204-.204-.092-.204-.204zm0-1c0-.112.092-.204.204-.204s.204.092.204.204-.092.204-.204.204-.204-.092-.204-.204zm-1.3-.552c.688 0 1.172.352 1.172 1.004 0 1.052-1.052 1.656-2.064 2.084a.049.049 0 0 1-.036.016.053.053 0 0 1-.052-.052c0-.012.004-.024.016-.036.808-.472 1.648-1.06 1.648-1.972 0-.48-.252-.94-.684-.94-.296 0-.516.216-.616.504a.323.323 0 0 1 .136-.032c.22 0 .4.18.4.4 0 .232-.176.424-.4.424-.24 0-.448-.188-.448-.424 0-.532.408-.976.928-.976z"/>
    <use xlink:href="#b" transform="matrix(.004 0 0 -.004 9.99 21.662)"/>
    <use xlink:href="#c" transform="matrix(.004 0 0 -.004 12.24 22.662)"/>
    <rect width=".13" height="3.314" x="-.065" y="-.814" fill="currentColor" ry=".04" transform="translate(16.006 11.89)"/>
    <path fill="currentColor" stroke="currentColor" stroke-linecap="round" stroke-linejoin="round" stroke-width=".08" d="M92.62 22.462v.4l-12.455.81v-.4z"/>
    <path fill="currentColor" d="M21.689 11c.193 0 .327.112.327.277 0 .255-.3.501-.585.501-.193 0-.325-.112-.325-.277 0-.255.297-.501.583-.501z"/>
    <path fill="currentColor" stroke="currentColor" stroke-linecap="round" stroke-linejoin="round" stroke-width=".08" d="M76.32 22.462v.4l-12.732.81v-.4zm-19.242.19v.4l-16.414.62v-.4z"/>
    <rect width=".13" height="2.486" x="-.065" y="-3.1" fill="currentColor" ry=".04" transform="translate(21.96 11.89)"/>
    <path fill="currentColor" d="M22.024 9.423v.596-.596c0 .319.238.563.41.826a.374.374 0 0 0 .016-.112c0-.263-.244-.527-.426-.714zm.322 1.78c0-.03.12-.207.12-.473s-.251-.526-.442-.71v.21h-.059v-1.4h.06c0 .495.562.811.562 1.307a.643.643 0 0 1-.064.269c.05.1.08.207.08.324 0 .177-.041.35-.114.51-.014.028-.04.036-.064.036-.04 0-.079-.028-.079-.072z"/>
    <path fill="currentColor" stroke="currentColor" stroke-linecap="round" stroke-linejoin="round" stroke-width=".08" d="M59.802 11.88v.4l-8.223 1v-.4zm0 .81v.4l-8.223 1v-.4z"/>
    <use xlink:href="#a" transform="matrix(.004 0 0 -.004 23.118 11.89)"/>
    <use xlink:href="#a" transform="matrix(.004 0 0 -.004 23.118 21.162)"/>
    <rect width=".13" height="3.308" x="-.065" y="-3.494" fill="currentColor" ry=".04" transform="translate(24.358 11.89)"/>
    <rect width=".13" height="2.121" x="-.065" y="-1.314" fill="currentColor" ry=".04" transform="translate(23.183 22.662)"/>
    <path fill="currentColor" stroke="currentColor" stroke-linecap="round" stroke-linejoin="round" stroke-width=".08" d="M64.132 20.117c1.764-1.877 10.427-3.243 12.683-2h0c-2.237-1.124-10.9.242-12.683 2z"/>
    <use xlink:href="#a" transform="matrix(.004 0 0 -.004 27.387 12.39)"/>
    <use xlink:href="#a" transform="matrix(.004 0 0 -.004 27.387 20.162)"/>
    <rect width=".13" height="3.394" x="-.065" y="-3.08" fill="currentColor" ry=".04" transform="translate(28.627 11.89)"/>
    <rect width=".13" height="2.928" x="-.065" y="-2.314" fill="currentColor" ry=".04" transform="translate(27.453 22.662)"/>
    <path fill="currentColor" stroke="currentColor" stroke-linecap="round" stroke-linejoin="round" stroke-width=".08" d="M64.25 8.844c2.337-1.61 14.305-1.248 16.54.5h0c-2.238-1.628-14.207-1.99-16.54-.5z"/>
    <use xlink:href="#a" transform="matrix(.004 0 0 -.004 30.112 12.89)"/>
    <rect width=".13" height="3.63" x="-.065" y="-2.816" fill="currentColor" ry=".04" transform="translate(31.35 11.89)"/>
    <path fill="currentColor" stroke="currentColor" stroke-linecap="round" stroke-linejoin="round" stroke-width=".08" d="M50.061 7.88v.4l-8.223.81v-.4zm0 .81v.4l-8.223.81v-.4z"/>
    <use xlink:href="#a" transform="matrix(.004 0 0 -.004 32.836 12.89)"/>
    <use xlink:href="#a" transform="matrix(.004 0 0 -.004 32.836 19.162)"/>
    <rect width=".13" height="3.314" x="-.065" y="-2.5" fill="currentColor" ry=".04" transform="translate(34.075 11.89)"/>
    <rect width=".13" height="3.683" x="-.065" y="-3.314" fill="currentColor" ry=".04" transform="translate(32.9 22.662)"/>
    <path fill="currentColor" stroke="currentColor" stroke-linecap="round" stroke-linejoin="round" stroke-width=".08" d="M36.82 22.652v.4l-13.662.62v-.4z"/>
    <use xlink:href="#a" transform="matrix(.004 0 0 -.004 36.73 20.162)"/>
    <rect width=".13" height="2.507" x="-.065" y="-2.314" fill="currentColor" ry=".04" transform="translate(36.795 22.662)"/>
    <use xlink:href="#a" transform="matrix(.004 0 0 -.004 40.624 12.89)"/>
    <path fill="currentColor" d="M41.186 15.58c.312 0 .388-.705.388-.713 0-.072-.028-.132-.1-.132-.244 0-.408.496-.408.692 0 .088.032.152.12.152zm-.856-.437c0-.008.204-.604.536-.604.14 0 .236.084.264.208.116-.124.268-.208.412-.208.276 0 .428.196.428.456 0 .472-.42.744-.636.744-.212 0-.28-.08-.336-.08-.028 0-.056.012-.064.036l-.116.344c-.004.008-.004.02-.004.028 0 .148.228.072.228.168 0 .028-.016.056-.052.056-.012 0-.2-.02-.464-.02s-.448.02-.46.02a.055.055 0 0 1-.056-.056c0-.124.348.004.408-.164l.408-1.2a.315.315 0 0 0 .016-.08c0-.032-.008-.056-.044-.056-.132 0-.252.24-.316.388a.104.104 0 0 1-.096.068c-.032 0-.056-.016-.056-.048z"/>
    <use xlink:href="#a" transform="matrix(.004 0 0 -.004 40.624 21.162)"/>
    <rect width=".13" height="3.82" x="-.065" y="-3.006" fill="currentColor" ry=".04" transform="translate(41.864 11.89)"/>
    <rect width=".13" height="2.122" x="-.065" y="-1.314" fill="currentColor" ry=".04" transform="translate(40.69 22.662)"/>
    <use xlink:href="#a" transform="matrix(.004 0 0 -.004 43.349 12.39)"/>
    <rect width=".13" height="3.586" x="-.065" y="-3.272" fill="currentColor" ry=".04" transform="translate(44.588 11.89)"/>
    <path fill="currentColor" stroke="currentColor" stroke-linecap="round" stroke-linejoin="round" stroke-width=".08" d="M41.25 19.117c2.17-1.812 13.988-2.534 16.363-1h0c-2.368-1.414-14.185-.692-16.363 1z"/>
    <use xlink:href="#a" transform="matrix(.004 0 0 -.004 46.073 11.89)"/>
    <use xlink:href="#a" transform="matrix(.004 0 0 -.004 46.073 19.162)"/>
    <rect width=".13" height="3.352" x="-.065" y="-3.538" fill="currentColor" ry=".04" transform="translate(47.312 11.89)"/>
    <rect width=".13" height="3.917" x="-.065" y="-3.314" fill="currentColor" ry=".04" transform="translate(46.138 22.662)"/>
    <path fill="currentColor" stroke="currentColor" stroke-linecap="round" stroke-linejoin="round" stroke-width=".08" d="M33.688 13.64c1.087.898 6.3.898 7.388 0h0c-1.087.778-6.3.778-7.388 0z"/>
    <use xlink:href="#a" transform="matrix(.004 0 0 -.004 48.797 11.39)"/>
    <rect width=".13" height="3.118" x="-.065" y="-3.804" fill="currentColor" ry=".04" transform="translate(50.036 11.89)"/>
    <path fill="currentColor" stroke="currentColor" stroke-linecap="round" stroke-linejoin="round" stroke-width=".08" d="M31.376 8.88v.4l-7.044-.69v-.4zm0 .81v.4l-2.774-.277v-.4z"/>
    <use xlink:href="#a" transform="matrix(.004 0 0 -.004 51.54 10.89)"/>
    <use xlink:href="#a" transform="matrix(.004 0 0 -.004 51.54 20.162)"/>
    <rect width=".13" height="2.806" x="-.065" y="-.814" fill="currentColor" ry=".04" transform="translate(51.604 11.89)"/>
    <rect width=".13" height="2.711" x="-.065" y="-2.314" fill="currentColor" ry=".04" transform="translate(51.604 22.662)"/>
    <path fill="currentColor" stroke="currentColor" stroke-linecap="round" stroke-linejoin="round" stroke-width=".08" d="M23.723 20.117c1.91-1.827 11.349-2.867 13.612-1.5h0c-2.25-1.248-11.688-.207-13.612 1.5z"/>
    <use xlink:href="#a" transform="matrix(.004 0 0 -.004 54.264 10.39)"/>
    <rect width=".13" height="2.978" x="-.065" y="-1.314" fill="currentColor" ry=".04" transform="translate(54.328 11.89)"/>
    <use xlink:href="#a" transform="matrix(.004 0 0 -.004 56.988 9.89)"/>
    <use xlink:href="#a" transform="matrix(.004 0 0 -.004 56.988 19.162)"/>
    <rect width=".13" height="3.15" x="-.065" y="-1.814" fill="currentColor" ry=".04" transform="translate(57.053 11.89)"/>
    <rect width=".13" height="3.506" x="-.065" y="-3.314" fill="currentColor" ry=".04" transform="translate(57.053 22.662)"/>
    <use xlink:href="#a" transform="matrix(.004 0 0 -.004 59.712 9.39)"/>
    <rect width=".13" height="3.322" x="-.065" y="-2.314" fill="currentColor" ry=".04" transform="translate(59.777 11.89)"/>
    <path fill="currentColor" d="M64.804 9.63a.166.166 0 0 0-.168-.165c-.156 0-.816.44-.924.572a.168.168 0 0 0-.04.112c0 .092.076.164.168.164.156 0 .812-.44.92-.572a.172.172 0 0 0 .044-.112zm-.208-.285c.164 0 .328.056.328.284 0 .104-.064.448-.296.604-.1.068-.348.2-.748.2-.164 0-.332-.056-.332-.284 0-.104.064-.448.296-.604.1-.068.352-.2.752-.2z"/>
    <use xlink:href="#a" transform="matrix(.004 0 0 -.004 63.548 21.162)"/>
    <rect width=".16" height="14.873" y="-7.437" fill="currentColor" ry=".05" transform="translate(5.63 17.276)"/>
    <rect width=".13" height="3.241" x="-.065" y="-1.741" fill="currentColor" ry=".04" transform="translate(63.613 11.89)"/>
    <rect width=".13" height="2.12" x="-.065" y="-1.314" fill="currentColor" ry=".04" transform="translate(63.613 22.662)"/>
    <path fill="currentColor" d="M4.995 18.94c0-1.152-.576-1.648-.576-1.664 0-.08.576-.464.576-1.664 0-1.184-.48-2.224-.48-3.552 0-.832.192-1.648.768-2.256.064-.064.16.032.096.096-.432.464-.56 1.024-.56 1.632 0 1.168.448 2.208.448 3.504 0 .832-.176 1.632-.736 2.24.56.608.736 1.408.736 2.24 0 1.296-.448 2.336-.448 3.504 0 .608.128 1.168.56 1.632.064.064-.032.16-.096.096-.576-.608-.768-1.424-.768-2.256 0-1.328.48-2.368.48-3.552z"/>
    <use xlink:href="#a" transform="matrix(.004 0 0 -.004 67.942 19.662)"/>
    <rect width=".13" height="3.342" x="-.065" y="-2.814" fill="currentColor" ry=".04" transform="translate(68.007 22.662)"/>
    <use xlink:href="#a" transform="matrix(.004 0 0 -.004 72.336 18.662)"/>
    <rect width=".13" height="4.064" x="-.065" y="-3.814" fill="currentColor" ry=".04" transform="translate(72.401 22.662)"/>
    <use xlink:href="#a" transform="matrix(.004 0 0 -.004 76.23 19.662)"/>
    <rect width=".13" height="2.818" x="-.065" y="-2.814" fill="currentColor" ry=".04" transform="translate(76.296 22.662)"/>
    <use xlink:href="#a" transform="matrix(.004 0 0 -.004 80.125 10.39)"/>
    <path fill="currentColor" d="M79.589 7.8c0 .06.032.12.156.12.04 0 .184-.009.412-.113l.02-.096a.542.542 0 0 0-.324-.116c-.204 0-.264.124-.264.204zm1.084.491c0 .244-.188.46-.392.46-.156 0-.224-.176-.224-.364 0-.056.004-.112.016-.164l.06-.304c-.08.032-.252.1-.404.1-.076 0-.24-.024-.24-.204 0-.152.128-.32.384-.32a.61.61 0 0 1 .328.1l.184-.928c.024.012.052.02.08.02.088 0 .192-.064.272-.14l-.212 1.064.256-.144a.622.622 0 0 1 .296-.08c.116 0 .212.04.256.112a.373.373 0 0 1 .276-.12c.144 0 .276.088.276.276 0 .196-.124.36-.26.36-.1 0-.152-.088-.152-.192 0-.2.148-.256.24-.256h.012c-.032-.056-.092-.08-.152-.08-.096 0-.2.064-.22.172l-.216 1.08c-.044-.028-.096-.044-.152-.044s-.116.016-.172.044l.216-1.08v-.028c0-.064-.048-.104-.116-.104a.236.236 0 0 0-.096.028l-.316.176-.028.124c.108.124.2.268.2.436zm-.24.26c.092 0 .14-.136.14-.244 0-.12-.056-.22-.128-.312l-.02.108c-.016.072-.052.224-.052.332 0 .068.016.116.06.116z"/>
    <use xlink:href="#a" transform="matrix(.004 0 0 -.004 80.125 21.162)"/>
    <rect width=".13" height="3.314" x="-.065" y="-1.314" fill="currentColor" ry=".04" transform="translate(80.19 11.89)"/>
    <rect width=".13" height="2.12" x="-.065" y="-1.314" fill="currentColor" ry=".04" transform="translate(80.19 22.662)"/>
    <use xlink:href="#a" transform="matrix(.004 0 0 -.004 84.519 18.662)"/>
    <rect width=".13" height="4.336" x="-.065" y="-3.814" fill="currentColor" ry=".04" transform="translate(84.584 22.662)"/>
    <path fill="currentColor" d="M88.693 11.07c.316 0 .184.391.364.391.064 0 .216-.192.244-.252.024-.048.092-.048.112 0l-.492 1.68c-.032.028-.068.04-.108.04s-.08-.012-.112-.04l.468-1.304a1.272 1.272 0 0 1-.42.088c-.188 0-.348-.136-.348-.316a.29.29 0 0 1 .292-.288z"/>
    <use xlink:href="#a" transform="matrix(.004 0 0 -.004 88.413 19.662)"/>
    <rect width=".13" height="3.084" x="-.065" y="-2.814" fill="currentColor" ry=".04" transform="translate(88.478 22.662)"/>
    <use xlink:href="#a" transform="matrix(.004 0 0 -.004 92.53 10.39)"/>
    <path fill="currentColor" d="m93.563 15.455-.2.652c-.12.396-.484 1.02-.872 1.02-.18 0-.348-.108-.348-.276 0-.156.068-.308.208-.308.096 0 .176.08.176.176 0 .12-.152.096-.152.216 0 .04.044.044.092.044h.024c.192 0 .244-.232.292-.432l.272-1.092h-.196c-.044 0-.076-.032-.076-.076s.032-.076.076-.076h.24c.128-.384.472-.764.852-.764.18 0 .348.108.348.276 0 .156-.068.308-.208.308a.174.174 0 0 1-.176-.172c0-.12.152-.1.152-.22 0-.04-.04-.044-.088-.044h-.028c-.248 0-.28.352-.344.616h.22c.044 0 .076.032.076.076s-.032.076-.076.076h-.264z"/>
    <use xlink:href="#a" transform="matrix(.004 0 0 -.004 92.53 18.662)"/>
    <rect width=".13" height="3.314" x="-.065" y="-1.314" fill="currentColor" ry=".04" transform="translate(92.595 11.89)"/>
    <path fill="currentColor" d="M92.66 13.85h-.064v-1h.064v1zm0 0v-1c.388-.237.896-.593.896-1.037 0-.228-.06-.448-.16-.652-.012-.064.04-.108.092-.108.028 0 .06.012.08.044.1.224.16.468.16.716 0 .812-1.068 1.224-1.068 2.036z"/>
    <rect width=".13" height="3.818" x="-.065" y="-3.814" fill="currentColor" ry=".04" transform="translate(92.595 22.662)"/>
</svg>
