<svg xmlns="http://www.w3.org/2000/svg" xmlns:xlink="http://www.w3.org/1999/xlink" width="422.438" height="62.6mm" version="1.2" viewBox="0 0 63.606 35.624">
    <defs>
        <path id="reuse-0" fill="currentColor" d="M218 136c66 0 108-36 108-89 0-89-113-183-218-183C42-136 0-100 0-47c0 89 113 183 218 183z"/>
        <path id="reuse-1" fill="currentColor" d="m27 41-1-66v-11c0-22 1-44 4-66 45 38 93 80 93 139 0 33-14 67-43 67-31 0-52-30-53-63zm-42-179-12 595c8 5 18 8 27 8s19-3 27-8l-7-345c25 21 58 34 91 34 52 0 89-48 89-102 0-80-86-117-147-169-15-13-24-38-45-38-13 0-23 11-23 25z"/>
        <path id="reuse-2" fill="currentColor" d="M263 265c0-33 70-23 70-125C333 48 254 0 154 0 75 0 0 42 0 113c0 36 30 66 66 66s65-30 65-66c0-25-40-28-40-53 0-27 32-37 63-37 49 0 63 61 63 117v16c0 54-2 94-50 94H87c-10 0-14 8-14 15s4 14 14 14h80c49 0 50 43 50 99v8c0 54-18 91-67 91-28 0-57-9-57-33 0-22 35-25 35-47 0-32-25-58-57-58s-58 26-58 58c0 64 67 103 137 103 91 0 169-33 169-114 0-122-56-80-56-121z"/>
        <path id="reuse-3" fill="currentColor" d="M196 117h117c0-48 27-94 72-94 8 0 12-5 12-11s-4-12-12-12c-44 0-87 13-131 13S167 0 123 0c-8 0-12 6-12 12s4 11 12 11c45 0 73 46 73 94zM-2 148c0 12 140 143 140 336 0 10 7 19 16 16 23-7 47-13 71-13s48 6 71 13c14 4 23-9 17-16L29 154h167v131c0 34 34 27 68 72 22 30 23 56 36 56 6 0 13-5 13-14V154h72c10 0 15-7 15-14s-5-15-15-15h-72v-8H196v8H29c-23 0-31 14-31 23z"/>
    </defs>
    <style>
        tspan{white-space:pre}
    </style>
    <path stroke="currentColor" stroke-linecap="round" stroke-linejoin="round" stroke-width=".1" d="M5.74 19.46h50.953m-50.953-1h50.953m-50.953-1h50.953m-50.953-1h50.953m-50.953-1h50.953"/>
    <rect width=".19" height="4.95" y="15.665" fill="currentColor" ry="0" transform="translate(56.553 3.845)"/>
    <rect width="1.956" height=".2" x="22.613" y="-.1" fill="currentColor" ry=".1" transform="translate(5.69 23.46)"/>
    <rect width="1.956" height=".2" x="15.1" y="-.1" fill="currentColor" ry=".1" transform="translate(5.69 22.46)"/>
    <rect width="1.956" height=".2" x="15.1" y="-.1" fill="currentColor" ry=".1" transform="translate(5.69 23.46)"/>
    <path stroke="currentColor" stroke-linecap="round" stroke-linejoin="round" stroke-width=".1" d="M5.74 28.46h50.953m-50.953-1h50.953m-50.953-1h50.953m-50.953-1h50.953m-50.953-1h50.953"/>
    <rect width=".19" height="4.05" y="-2.05" fill="currentColor" ry="0" transform="translate(56.553 26.46)"/>
    <rect width=".19" height="4.05" y="-2" fill="currentColor" ry="0" transform="translate(56.553 17.46)"/>
    <rect width=".19" height="4.95" y="15.665" fill="currentColor" ry="0" transform="translate(35.937 3.845)"/>
    <rect width=".19" height="4.05" y="-2.05" fill="currentColor" ry="0" transform="translate(35.937 26.46)"/>
    <rect width=".19" height="4.05" y="-2" fill="currentColor" ry="0" transform="translate(35.937 17.46)"/>
    <path fill="currentColor" stroke="currentColor" stroke-linecap="round" stroke-linejoin="round" stroke-width=".08" d="M46.876 19.07v.4h-5.058v-.4z"/>
    <use xlink:href="#reuse-0" transform="matrix(.004 0 0 -.004 16.585 15.46)"/>
    <use xlink:href="#reuse-0" transform="matrix(.004 0 0 -.004 16.585 16.96)"/>
    <use xlink:href="#reuse-0" transform="matrix(.004 0 0 -.004 16.585 17.96)"/>
    <use xlink:href="#reuse-0" transform="matrix(.004 0 0 -.004 16.585 18.96)"/>
    <path fill="currentColor" d="M7.555 21H7.53a.783.783 0 0 1-.78-.788c0-.232.212-.412.448-.412.216 0 .38.188.38.412 0 .208-.172.38-.38.38a.326.326 0 0 1-.124-.024c.104.156.272.26.468.26h.016zm.78-1.728a.69.69 0 0 0 .452-.656.764.764 0 0 0-.692-.76c.076.356.192.968.24 1.416zm-1.548-.924c0 .58.564.988 1.056.988.004 0 .188 0 .328-.024a17.343 17.343 0 0 0-.252-1.456c-.316.032-.496.244-.496.476 0 .176.1.364.324.492.02.02.028.04.028.06 0 .044-.04.088-.088.088-.06 0-.504-.248-.504-.748 0-.352.232-.696.64-.788a15.048 15.048 0 0 0-.184-.7c-.428.484-.852.972-.852 1.612zm.704-2.1c-.116-.384-.208-.68-.208-1.384 0-.46.22-.896.596-1.168a.06.06 0 0 1 .08 0c.272.32.532.98.532 1.432 0 .572-.344 1.02-.72 1.456.084.272.156.552.224.828.008 0 .028-.004.052-.004.62 0 1.024.512 1.024 1.044 0 .452-.296.848-.72.984.012.14.02.28.02.42 0 .076-.004.156-.008.232-.028.476-.352.9-.808.912l.004-.172c.372-.008.612-.368.636-.764a3.775 3.775 0 0 0-.008-.588c-.02.004-.176.032-.356.032-.772 0-1.332-.72-1.332-1.496 0-.708.524-1.224.992-1.764zm.712-1.452c0-.136.004-.264-.08-.516a1.153 1.153 0 0 0-.648 1.036c0 .208.048.46.144.776.32-.388.584-.792.584-1.296z"/>
    <use xlink:href="#reuse-1" transform="matrix(.004 0 0 -.004 10.11 17.46)"/>
    <use xlink:href="#reuse-1" transform="matrix(.004 0 0 -.004 11.03 15.96)"/>
    <use xlink:href="#reuse-2" transform="matrix(.004 0 0 -.004 13.117 17.46)"/>
    <use xlink:href="#reuse-3" transform="matrix(.004 0 0 -.004 12.98 19.476)"/>
    <use xlink:href="#reuse-0" transform="matrix(.004 0 0 -.004 16.585 25.46)"/>
    <path fill="currentColor" d="M8.719 25.96c0-.112.092-.204.204-.204s.204.092.204.204-.092.204-.204.204-.204-.092-.204-.204zm0-1c0-.112.092-.204.204-.204s.204.092.204.204-.092.204-.204.204-.204-.092-.204-.204zm-1.3-.552c.688 0 1.172.352 1.172 1.004 0 1.052-1.052 1.656-2.064 2.084a.049.049 0 0 1-.036.016.053.053 0 0 1-.052-.052c0-.012.004-.024.016-.036.808-.472 1.648-1.06 1.648-1.972 0-.48-.252-.94-.684-.94-.296 0-.516.216-.616.504a.323.323 0 0 1 .136-.032c.22 0 .4.18.4.4 0 .232-.176.424-.4.424-.24 0-.448-.188-.448-.424 0-.532.408-.976.928-.976z"/>
    <use xlink:href="#reuse-1" transform="matrix(.004 0 0 -.004 10.11 27.46)"/>
    <use xlink:href="#reuse-1" transform="matrix(.004 0 0 -.004 11.03 25.96)"/>
    <use xlink:href="#reuse-2" transform="matrix(.004 0 0 -.004 13.117 26.46)"/>
    <use xlink:href="#reuse-3" transform="matrix(.004 0 0 -.004 12.98 28.476)"/>
    <rect width=".13" height="6.147" x="-.065" y="-1.814" fill="currentColor" ry=".04" transform="translate(16.65 17.46)"/>
    <rect width=".13" height="3.314" x="-.065" y="-.814" fill="currentColor" ry=".04" transform="translate(16.65 26.46)"/>
    <use xlink:href="#reuse-0" transform="matrix(.004 0 0 -.004 21.116 16.96)"/>
    <use xlink:href="#reuse-0" transform="matrix(.004 0 0 -.004 21.116 22.46)"/>
    <text fill="currentColor" class="scale-degree" font-family="serif" font-size="2.2" transform="translate(21.116 30.85)">
<tspan>➍</tspan>
</text>
    <rect width=".13" height="3.124" x="-.065" y="-.314" fill="currentColor" ry=".04" transform="translate(21.181 17.46)"/>
    <rect width=".13" height="3.814" x="-.065" y="-3.814" fill="currentColor" ry=".04" transform="translate(21.181 26.46)"/>
    <use xlink:href="#reuse-0" transform="matrix(.004 0 0 -.004 23.37 17.96)"/>
    <text fill="currentColor" class="scale-degree" font-family="serif" font-size="2.2" transform="translate(23.37 14.91)">
<tspan>➆</tspan>
</text>
    <rect width=".13" height="2.124" x="-.065" y=".686" fill="currentColor" ry=".04" transform="translate(23.436 17.46)"/>
    <text fill="currentColor" class="schema" font-family="serif" font-size="1.96" transform="translate(45.583 8.62)">
<tspan>Comma</tspan>
</text>
    <use xlink:href="#reuse-0" transform="matrix(.004 0 0 -.004 26.125 16.96)"/>
    <rect width=".13" height="3.124" x="-.065" y="-.314" fill="currentColor" ry=".04" transform="translate(26.19 17.46)"/>
    <path stroke="currentColor" stroke-linecap="round" stroke-linejoin="round" stroke-width=".1" d="m55.103 9.2.5 1m-13.325-1-.5 1m.5-1h12.825" class="schema"/>
    <use xlink:href="#reuse-0" transform="matrix(.004 0 0 -.004 28.63 17.46)"/>
    <text fill="currentColor" class="scale-degree" font-family="serif" font-size="2.2" transform="translate(28.63 14.91)">
<tspan>➀</tspan>
</text>
    <use xlink:href="#reuse-0" transform="matrix(.004 0 0 -.004 28.63 22.96)"/>
    <text fill="currentColor" class="scale-degree" font-family="serif" font-size="2.2" transform="translate(28.63 30.85)">
<tspan>➌</tspan>
</text>
    <rect width=".13" height="2.616" x="-.065" y=".186" fill="currentColor" ry=".04" transform="translate(28.694 17.46)"/>
    <rect width=".13" height="3.314" x="-.065" y="-3.314" fill="currentColor" ry=".04" transform="translate(28.694 26.46)"/>
    <use xlink:href="#reuse-0" transform="matrix(.004 0 0 -.004 31.133 16.96)"/>
    <rect width=".13" height="2.814" x="-.065" y="-.314" fill="currentColor" ry=".04" transform="translate(31.198 17.46)"/>
    <use xlink:href="#reuse-0" transform="matrix(.004 0 0 -.004 33.638 16.46)"/>
    <rect width=".13" height="3.012" x="-.065" y="-.814" fill="currentColor" ry=".04" transform="translate(33.703 17.46)"/>
    <path fill="currentColor" stroke="currentColor" stroke-linecap="round" stroke-linejoin="round" stroke-width=".08" d="M33.727 19.45v.4l-5.058.62v-.4zm-7.512.62v.4h-5.059v-.4z"/>
    <use xlink:href="#reuse-0" transform="matrix(.004 0 0 -.004 37.247 15.46)"/>
    <use xlink:href="#reuse-0" transform="matrix(.004 0 0 -.004 37.247 16.96)"/>
    <use xlink:href="#reuse-0" transform="matrix(.004 0 0 -.004 37.247 17.96)"/>
    <use xlink:href="#reuse-0" transform="matrix(.004 0 0 -.004 37.247 18.96)"/>
    <use xlink:href="#reuse-0" transform="matrix(.004 0 0 -.004 37.247 25.46)"/>
    <rect width=".16" height="13.1" y="-6.55" fill="currentColor" ry=".05" transform="translate(5.63 21.96)"/>
    <rect width=".13" height="6.147" x="-.065" y="-1.814" fill="currentColor" ry=".04" transform="translate(37.312 17.46)"/>
    <rect width=".13" height="3.314" x="-.065" y="-.814" fill="currentColor" ry=".04" transform="translate(37.312 26.46)"/>
    <path fill="currentColor" stroke="currentColor" stroke-linecap="round" stroke-linejoin="round" stroke-width=".08" d="M54.389 18.45v.4l-5.059.62v-.4z"/>
    <path fill="currentColor" d="M5.007 23.424c0-1.02-.528-1.452-.528-1.464 0-.072.528-.384.528-1.464 0-1.044-.432-1.956-.432-3.12 0-.756.18-1.464.708-2.004.06-.06.156.036.096.096-.396.396-.516.9-.516 1.44 0 1.02.408 1.92.408 3.06 0 .744-.18 1.452-.696 1.992.516.54.696 1.248.696 1.992 0 1.14-.408 2.04-.408 3.06 0 .54.12 1.044.516 1.44.06.06-.036.156-.096.096-.528-.54-.708-1.248-.708-2.004 0-1.164.432-2.076.432-3.12z"/>
    <use xlink:href="#reuse-0" transform="matrix(.004 0 0 -.004 41.778 15.96)"/>
    <text fill="currentColor" class="scale-degree" font-family="serif" font-size="2.2" transform="translate(41.778 14.673)">
<tspan>➍</tspan>
</text>
    <use xlink:href="#reuse-0" transform="matrix(.004 0 0 -.004 41.778 24.46)"/>
    <text fill="currentColor" class="scale-degree" font-family="serif" font-size="2.2" transform="translate(41.778 30.558)">
<tspan>➆</tspan>
</text>
    <text fill="currentColor" class="scale-degree" font-family="serif" font-size="2.2" transform="translate(41.778 32.932)">
<tspan>➐</tspan>
</text>
    <rect width=".13" height="3.124" x="-.065" y="-1.314" fill="currentColor" ry=".04" transform="translate(41.843 17.46)"/>
    <rect width=".13" height="3.314" x="-.065" y="-1.814" fill="currentColor" ry=".04" transform="translate(41.843 26.46)"/>
    <use xlink:href="#reuse-0" transform="matrix(.004 0 0 -.004 44.032 16.96)"/>
    <text fill="currentColor" class="scale-degree" font-family="serif" font-size="2.2" transform="translate(44.032 12.299)">
<tspan>➁</tspan>
</text>
    <rect width=".13" height="2.124" x="-.065" y="-.314" fill="currentColor" ry=".04" transform="translate(44.097 17.46)"/>
    <use xlink:href="#reuse-0" transform="matrix(.004 0 0 -.004 46.786 15.96)"/>
    <rect width=".13" height="3.124" x="-.065" y="-1.314" fill="currentColor" ry=".04" transform="translate(46.851 17.46)"/>
    <use xlink:href="#reuse-0" transform="matrix(.004 0 0 -.004 49.29 16.46)"/>
    <text fill="currentColor" class="scale-degree" font-family="serif" font-size="2.2" transform="translate(49.29 14.673)">
<tspan>➌</tspan>
</text>
    <text fill="currentColor" class="scale-degree" font-family="serif" font-size="2.2" transform="translate(49.29 12.299)">
<tspan>➂</tspan>
</text>
    <use xlink:href="#reuse-0" transform="matrix(.004 0 0 -.004 49.29 23.96)"/>
    <text fill="currentColor" class="scale-degree" font-family="serif" font-size="2.2" transform="translate(49.29 30.558)">
<tspan>➀</tspan>
</text>
    <text fill="currentColor" class="scale-degree" font-family="serif" font-size="2.2" transform="translate(49.29 32.932)">
<tspan>➊</tspan>
</text>
    <rect width=".13" height="2.616" x="-.065" y="-.814" fill="currentColor" ry=".04" transform="translate(49.355 17.46)"/>
    <rect width=".13" height="3.314" x="-.065" y="-2.314" fill="currentColor" ry=".04" transform="translate(49.355 26.46)"/>
    <text fill="currentColor" class="schema" font-family="serif" font-size="1.96" transform="translate(32.834 5.206)">
<tspan>Fenaroli</tspan>
</text>
    <use xlink:href="#reuse-0" transform="matrix(.004 0 0 -.004 51.795 15.96)"/>
    <rect width=".13" height="2.814" x="-.065" y="-1.314" fill="currentColor" ry=".04" transform="translate(51.86 17.46)"/>
    <path stroke="currentColor" stroke-linecap="round" stroke-linejoin="round" stroke-width=".1" d="m55.103 5.783.5 1m-38.518-1-.5 1m.5-1h38.018" class="schema"/>
    <use xlink:href="#reuse-0" transform="matrix(.004 0 0 -.004 54.299 15.46)"/>
    <rect width=".13" height="3.012" x="-.065" y="-1.814" fill="currentColor" ry=".04" transform="translate(54.364 17.46)"/>
</svg>
