<svg xmlns="http://www.w3.org/2000/svg" width="422.438" height="62.6mm" class="d-block mx-auto d-block mx-auto" version="1.2" viewBox="0 0 63.606 35.624">
    <style>
        tspan{white-space:pre}
    </style>
    <path stroke="currentColor" stroke-linecap="round" stroke-linejoin="round" stroke-width=".1" d="M5.74 19.46h50.953m-50.953-1h50.953m-50.953-1h50.953m-50.953-1h50.953m-50.953-1h50.953"/>
    <rect width=".19" height="4.95" y="15.665" fill="currentColor" ry="0" transform="translate(56.553 3.845)"/>
    <rect width="1.956" height=".2" x="22.613" y="-.1" fill="currentColor" ry=".1" transform="translate(5.69 23.46)"/>
    <rect width="1.956" height=".2" x="15.1" y="-.1" fill="currentColor" ry=".1" transform="translate(5.69 22.46)"/>
    <rect width="1.956" height=".2" x="15.1" y="-.1" fill="currentColor" ry=".1" transform="translate(5.69 23.46)"/>
    <path stroke="currentColor" stroke-linecap="round" stroke-linejoin="round" stroke-width=".1" d="M5.74 28.46h50.953m-50.953-1h50.953m-50.953-1h50.953m-50.953-1h50.953m-50.953-1h50.953"/>
    <rect width=".19" height="4.05" y="-2.05" fill="currentColor" ry="0" transform="translate(56.553 26.46)"/>
    <rect width=".19" height="4.05" y="-2" fill="currentColor" ry="0" transform="translate(56.553 17.46)"/>
    <rect width=".19" height="4.95" y="15.665" fill="currentColor" ry="0" transform="translate(35.937 3.845)"/>
    <rect width=".19" height="4.05" y="-2.05" fill="currentColor" ry="0" transform="translate(35.937 26.46)"/>
    <rect width=".19" height="4.05" y="-2" fill="currentColor" ry="0" transform="translate(35.937 17.46)"/>
    <path fill="currentColor" stroke="currentColor" stroke-linecap="round" stroke-linejoin="round" stroke-width=".08" d="M46.876 19.07v.4h-5.058v-.4z"/>
    <path fill="currentColor" d="M17.457 14.916c.264 0 .432.144.432.356 0 .356-.452.732-.872.732-.264 0-.432-.144-.432-.356 0-.356.452-.732.872-.732zm0 1.5c.264 0 .432.144.432.356 0 .356-.452.732-.872.732-.264 0-.432-.144-.432-.356 0-.356.452-.732.872-.732z"/>
    <path fill="currentColor" d="M17.457 17.416c.264 0 .432.144.432.356 0 .356-.452.732-.872.732-.264 0-.432-.144-.432-.356 0-.356.452-.732.872-.732z"/>
    <path fill="currentColor" d="M17.457 18.416c.264 0 .432.144.432.356 0 .356-.452.732-.872.732-.264 0-.432-.144-.432-.356 0-.356.452-.732.872-.732zM7.555 21H7.53a.783.783 0 0 1-.78-.788c0-.232.212-.412.448-.412.216 0 .38.188.38.412 0 .208-.172.38-.38.38a.326.326 0 0 1-.124-.024c.104.156.272.26.468.26h.016zm.78-1.728a.69.69 0 0 0 .452-.656.764.764 0 0 0-.692-.76c.076.356.192.968.24 1.416zm-1.548-.924c0 .58.564.988 1.056.988.004 0 .188 0 .328-.024a17.343 17.343 0 0 0-.252-1.456c-.316.032-.496.244-.496.476 0 .176.1.364.324.492.02.02.028.04.028.06 0 .044-.04.088-.088.088-.06 0-.504-.248-.504-.748 0-.352.232-.696.64-.788a15.048 15.048 0 0 0-.184-.7c-.428.484-.852.972-.852 1.612zm.704-2.1c-.116-.384-.208-.68-.208-1.384 0-.46.22-.896.596-1.168a.06.06 0 0 1 .08 0c.272.32.532.98.532 1.432 0 .572-.344 1.02-.72 1.456.084.272.156.552.224.828.008 0 .028-.004.052-.004.62 0 1.024.512 1.024 1.044 0 .452-.296.848-.72.984.012.14.02.28.02.42 0 .076-.004.156-.008.232-.028.476-.352.9-.808.912l.004-.172c.372-.008.612-.368.636-.764a3.775 3.775 0 0 0-.008-.588c-.02.004-.176.032-.356.032-.772 0-1.332-.72-1.332-1.496 0-.708.524-1.224.992-1.764zm.712-1.452c0-.136.004-.264-.08-.516a1.153 1.153 0 0 0-.648 1.036c0 .208.048.46.144.776.32-.388.584-.792.584-1.296zm2.016 2.5-.004.264v.044c0 .088.004.176.016.264.18-.152.372-.32.372-.556 0-.132-.056-.268-.172-.268-.124 0-.208.12-.212.252zm-.168.716-.048-2.38c.032-.02.072-.032.108-.032s.076.012.108.032l-.028 1.38a.577.577 0 0 1 .364-.136c.208 0 .356.192.356.408 0 .32-.344.468-.588.676-.06.052-.096.152-.18.152-.052 0-.092-.044-.092-.1zm1.088-2.216-.004.264v.044c0 .088.004.176.016.264.18-.152.372-.32.372-.556 0-.132-.056-.268-.172-.268-.124 0-.208.12-.212.252zm-.168.716-.048-2.38c.032-.02.072-.032.108-.032s.076.012.108.032l-.028 1.38a.577.577 0 0 1 .364-.136c.208 0 .356.192.356.408 0 .32-.344.468-.588.676-.06.052-.096.152-.18.152-.052 0-.092-.044-.092-.1zm3.199-.112c0 .132.28.092.28.5 0 .368-.317.56-.717.56-.316 0-.616-.168-.616-.452 0-.144.12-.264.264-.264s.26.12.26.264c0 .1-.16.112-.16.212 0 .108.128.148.252.148.196 0 .252-.244.252-.468v-.064c0-.216-.008-.376-.2-.376h-.32c-.04 0-.056-.032-.056-.06s.016-.056.056-.056h.32c.196 0 .2-.172.2-.396v-.032c0-.216-.072-.364-.268-.364-.112 0-.228.036-.228.132 0 .088.14.1.14.188 0 .128-.1.232-.228.232s-.232-.104-.232-.232c0-.256.268-.412.548-.412.364 0 .676.132.676.456 0 .488-.224.32-.224.484zm-.405 2.608h.468c0 .192.108.376.288.376.032 0 .048.02.048.044s-.016.048-.048.048c-.176 0-.348-.052-.524-.052s-.348.052-.524.052c-.032 0-.048-.024-.048-.048s.016-.044.048-.044c.18 0 .292-.184.292-.376zm-.792-.124c0-.048.56-.572.56-1.344 0-.04.028-.076.064-.064.092.028.188.052.284.052s.192-.024.284-.052c.056-.016.092.036.068.064l-1.136 1.32h.668v-.524c0-.136.136-.108.272-.288.088-.12.092-.224.144-.224.024 0 .052.02.052.056v.98h.288c.04 0 .06.028.06.056s-.02.06-.06.06h-.288v.032h-.468v-.032h-.668c-.092 0-.124-.056-.124-.092zm4.484 6.032c.264 0 .432.144.432.356 0 .356-.452.732-.872.732-.264 0-.432-.144-.432-.356 0-.356.452-.732.872-.732zM8.719 25.96c0-.112.092-.204.204-.204s.204.092.204.204-.092.204-.204.204-.204-.092-.204-.204zm0-1c0-.112.092-.204.204-.204s.204.092.204.204-.092.204-.204.204-.204-.092-.204-.204zm-1.3-.552c.688 0 1.172.352 1.172 1.004 0 1.052-1.052 1.656-2.064 2.084a.049.049 0 0 1-.036.016.053.053 0 0 1-.052-.052c0-.012.004-.024.016-.036.808-.472 1.648-1.06 1.648-1.972 0-.48-.252-.94-.684-.94-.296 0-.516.216-.616.504a.323.323 0 0 1 .136-.032c.22 0 .4.18.4.4 0 .232-.176.424-.4.424-.24 0-.448-.188-.448-.424 0-.532.408-.976.928-.976zm2.8 2.888-.004.264v.044c0 .088.004.176.016.264.18-.152.372-.32.372-.556 0-.132-.056-.268-.172-.268-.124 0-.208.12-.212.252zm-.168.716-.048-2.38c.032-.02.072-.032.108-.032s.076.012.108.032l-.028 1.38a.577.577 0 0 1 .364-.136c.208 0 .356.192.356.408 0 .32-.344.468-.588.676-.06.052-.096.152-.18.152-.052 0-.092-.044-.092-.1zm1.088-2.216-.004.264v.044c0 .088.004.176.016.264.18-.152.372-.32.372-.556 0-.132-.056-.268-.172-.268-.124 0-.208.12-.212.252zm-.168.716-.048-2.38c.032-.02.072-.032.108-.032s.076.012.108.032l-.028 1.38a.577.577 0 0 1 .364-.136c.208 0 .356.192.356.408 0 .32-.344.468-.588.676-.06.052-.096.152-.18.152-.052 0-.092-.044-.092-.1zM14.17 25.4c0 .132.28.092.28.5 0 .368-.317.56-.717.56-.316 0-.616-.168-.616-.452 0-.144.12-.264.264-.264s.26.12.26.264c0 .1-.16.112-.16.212 0 .108.128.148.252.148.196 0 .252-.244.252-.468v-.064c0-.216-.008-.376-.2-.376h-.32c-.04 0-.056-.032-.056-.06s.016-.056.056-.056h.32c.196 0 .2-.172.2-.396v-.032c0-.216-.072-.364-.268-.364-.112 0-.228.036-.228.132 0 .088.14.1.14.188 0 .128-.1.232-.228.232s-.232-.104-.232-.232c0-.256.268-.412.548-.412.364 0 .676.132.676.456 0 .488-.224.32-.224.484zm-.405 2.608h.468c0 .192.108.376.288.376.032 0 .048.02.048.044s-.016.048-.048.048c-.176 0-.348-.052-.524-.052s-.348.052-.524.052c-.032 0-.048-.024-.048-.048s.016-.044.048-.044c.18 0 .292-.184.292-.376zm-.792-.124c0-.048.56-.572.56-1.344 0-.04.028-.076.064-.064.092.028.188.052.284.052s.192-.024.284-.052c.056-.016.092.036.068.064l-1.136 1.32h.668v-.524c0-.136.136-.108.272-.288.088-.12.092-.224.144-.224.024 0 .052.02.052.056v.98h.288c.04 0 .06.028.06.056s-.02.06-.06.06h-.288v.032h-.468v-.032h-.668c-.092 0-.124-.056-.124-.092z"/>
    <rect width=".13" height="6.147" x="-.065" y="-1.814" fill="currentColor" ry=".04" transform="translate(16.65 17.46)"/>
    <rect width=".13" height="3.314" x="-.065" y="-.814" fill="currentColor" ry=".04" transform="translate(16.65 26.46)"/>
    <path fill="currentColor" d="M21.988 16.416c.264 0 .432.144.432.356 0 .356-.452.732-.872.732-.264 0-.432-.144-.432-.356 0-.356.452-.732.872-.732zm0 5.5c.264 0 .432.144.432.356 0 .356-.452.732-.872.732-.264 0-.432-.144-.432-.356 0-.356.452-.732.872-.732z"/>
    <text fill="currentColor" class="scale-degree" font-family="serif" font-size="2.2" transform="translate(21.116 30.85)">
<tspan>➍</tspan>
</text>
    <rect width=".13" height="3.124" x="-.065" y="-.314" fill="currentColor" ry=".04" transform="translate(21.181 17.46)"/>
    <rect width=".13" height="3.814" x="-.065" y="-3.814" fill="currentColor" ry=".04" transform="translate(21.181 26.46)"/>
    <path fill="currentColor" d="M24.243 17.416c.264 0 .432.144.432.356 0 .356-.452.732-.872.732-.264 0-.432-.144-.432-.356 0-.356.452-.732.872-.732z"/>
    <text fill="currentColor" class="scale-degree" font-family="serif" font-size="2.2" transform="translate(23.37 14.91)">
<tspan>➆</tspan>
</text>
    <rect width=".13" height="2.124" x="-.065" y=".686" fill="currentColor" ry=".04" transform="translate(23.436 17.46)"/>
    <text fill="currentColor" class="schema" font-family="serif" font-size="1.96" transform="translate(45.583 8.62)">
<tspan>Comma</tspan>
</text>
    <path fill="currentColor" d="M26.997 16.416c.264 0 .432.144.432.356 0 .356-.452.732-.872.732-.264 0-.432-.144-.432-.356 0-.356.452-.732.872-.732z"/>
    <rect width=".13" height="3.124" x="-.065" y="-.314" fill="currentColor" ry=".04" transform="translate(26.19 17.46)"/>
    <path stroke="currentColor" stroke-linecap="round" stroke-linejoin="round" stroke-width=".1" d="m55.103 9.2.5 1m-13.325-1-.5 1m.5-1h12.825" class="schema"/>
    <path fill="currentColor" d="M29.501 16.916c.264 0 .432.144.432.356 0 .356-.452.732-.872.732-.264 0-.432-.144-.432-.356 0-.356.452-.732.872-.732z"/>
    <text fill="currentColor" class="scale-degree" font-family="serif" font-size="2.2" transform="translate(28.63 14.91)">
<tspan>➀</tspan>
</text>
    <path fill="currentColor" d="M29.501 22.416c.264 0 .432.144.432.356 0 .356-.452.732-.872.732-.264 0-.432-.144-.432-.356 0-.356.452-.732.872-.732z"/>
    <text fill="currentColor" class="scale-degree" font-family="serif" font-size="2.2" transform="translate(28.63 30.85)">
<tspan>➌</tspan>
</text>
    <rect width=".13" height="2.616" x="-.065" y=".186" fill="currentColor" ry=".04" transform="translate(28.694 17.46)"/>
    <rect width=".13" height="3.314" x="-.065" y="-3.314" fill="currentColor" ry=".04" transform="translate(28.694 26.46)"/>
    <path fill="currentColor" d="M32.005 16.416c.264 0 .432.144.432.356 0 .356-.452.732-.872.732-.264 0-.432-.144-.432-.356 0-.356.452-.732.872-.732z"/>
    <rect width=".13" height="2.814" x="-.065" y="-.314" fill="currentColor" ry=".04" transform="translate(31.198 17.46)"/>
    <path fill="currentColor" d="M34.51 15.916c.264 0 .432.144.432.356 0 .356-.452.732-.872.732-.264 0-.432-.144-.432-.356 0-.356.452-.732.872-.732z"/>
    <rect width=".13" height="3.012" x="-.065" y="-.814" fill="currentColor" ry=".04" transform="translate(33.703 17.46)"/>
    <path fill="currentColor" stroke="currentColor" stroke-linecap="round" stroke-linejoin="round" stroke-width=".08" d="M33.727 19.45v.4l-5.058.62v-.4zm-7.512.62v.4h-5.059v-.4z"/>
    <path fill="currentColor" d="M38.119 14.916c.264 0 .432.144.432.356 0 .356-.452.732-.872.732-.264 0-.432-.144-.432-.356 0-.356.452-.732.872-.732zm0 1.5c.264 0 .432.144.432.356 0 .356-.452.732-.872.732-.264 0-.432-.144-.432-.356 0-.356.452-.732.872-.732z"/>
    <path fill="currentColor" d="M38.119 17.416c.264 0 .432.144.432.356 0 .356-.452.732-.872.732-.264 0-.432-.144-.432-.356 0-.356.452-.732.872-.732z"/>
    <path fill="currentColor" d="M38.119 18.416c.264 0 .432.144.432.356 0 .356-.452.732-.872.732-.264 0-.432-.144-.432-.356 0-.356.452-.732.872-.732zm0 6.5c.264 0 .432.144.432.356 0 .356-.452.732-.872.732-.264 0-.432-.144-.432-.356 0-.356.452-.732.872-.732z"/>
    <rect width=".16" height="13.1" y="-6.55" fill="currentColor" ry=".05" transform="translate(5.63 21.96)"/>
    <rect width=".13" height="6.147" x="-.065" y="-1.814" fill="currentColor" ry=".04" transform="translate(37.312 17.46)"/>
    <rect width=".13" height="3.314" x="-.065" y="-.814" fill="currentColor" ry=".04" transform="translate(37.312 26.46)"/>
    <path fill="currentColor" stroke="currentColor" stroke-linecap="round" stroke-linejoin="round" stroke-width=".08" d="M54.389 18.45v.4l-5.059.62v-.4z"/>
    <path fill="currentColor" d="M5.007 23.424c0-1.02-.528-1.452-.528-1.464 0-.072.528-.384.528-1.464 0-1.044-.432-1.956-.432-3.12 0-.756.18-1.464.708-2.004.06-.06.156.036.096.096-.396.396-.516.9-.516 1.44 0 1.02.408 1.92.408 3.06 0 .744-.18 1.452-.696 1.992.516.54.696 1.248.696 1.992 0 1.14-.408 2.04-.408 3.06 0 .54.12 1.044.516 1.44.06.06-.036.156-.096.096-.528-.54-.708-1.248-.708-2.004 0-1.164.432-2.076.432-3.12zm37.643-8.008c.264 0 .432.144.432.356 0 .356-.452.732-.872.732-.264 0-.432-.144-.432-.356 0-.356.452-.732.872-.732z"/>
    <text fill="currentColor" class="scale-degree" font-family="serif" font-size="2.2" transform="translate(41.778 14.673)">
<tspan>➍</tspan>
</text>
    <path fill="currentColor" d="M42.65 23.916c.264 0 .432.144.432.356 0 .356-.452.732-.872.732-.264 0-.432-.144-.432-.356 0-.356.452-.732.872-.732z"/>
    <text fill="currentColor" class="scale-degree" font-family="serif" font-size="2.2" transform="translate(41.778 30.558)">
<tspan>➆</tspan>
</text>
    <text fill="currentColor" class="scale-degree" font-family="serif" font-size="2.2" transform="translate(41.778 32.932)">
<tspan>➐</tspan>
</text>
    <rect width=".13" height="3.124" x="-.065" y="-1.314" fill="currentColor" ry=".04" transform="translate(41.843 17.46)"/>
    <rect width=".13" height="3.314" x="-.065" y="-1.814" fill="currentColor" ry=".04" transform="translate(41.843 26.46)"/>
    <path fill="currentColor" d="M44.904 16.416c.264 0 .432.144.432.356 0 .356-.452.732-.872.732-.264 0-.432-.144-.432-.356 0-.356.452-.732.872-.732z"/>
    <text fill="currentColor" class="scale-degree" font-family="serif" font-size="2.2" transform="translate(44.032 12.299)">
<tspan>➁</tspan>
</text>
    <rect width=".13" height="2.124" x="-.065" y="-.314" fill="currentColor" ry=".04" transform="translate(44.097 17.46)"/>
    <path fill="currentColor" d="M47.658 15.416c.264 0 .432.144.432.356 0 .356-.452.732-.872.732-.264 0-.432-.144-.432-.356 0-.356.452-.732.872-.732z"/>
    <rect width=".13" height="3.124" x="-.065" y="-1.314" fill="currentColor" ry=".04" transform="translate(46.851 17.46)"/>
    <path fill="currentColor" d="M50.162 15.916c.264 0 .432.144.432.356 0 .356-.452.732-.872.732-.264 0-.432-.144-.432-.356 0-.356.452-.732.872-.732z"/>
    <text fill="currentColor" class="scale-degree" font-family="serif" font-size="2.2" transform="translate(49.29 14.673)">
<tspan>➌</tspan>
</text>
    <text fill="currentColor" class="scale-degree" font-family="serif" font-size="2.2" transform="translate(49.29 12.299)">
<tspan>➂</tspan>
</text>
    <path fill="currentColor" d="M50.162 23.416c.264 0 .432.144.432.356 0 .356-.452.732-.872.732-.264 0-.432-.144-.432-.356 0-.356.452-.732.872-.732z"/>
    <text fill="currentColor" class="scale-degree" font-family="serif" font-size="2.2" transform="translate(49.29 30.558)">
<tspan>➀</tspan>
</text>
    <text fill="currentColor" class="scale-degree" font-family="serif" font-size="2.2" transform="translate(49.29 32.932)">
<tspan>➊</tspan>
</text>
    <rect width=".13" height="2.616" x="-.065" y="-.814" fill="currentColor" ry=".04" transform="translate(49.355 17.46)"/>
    <rect width=".13" height="3.314" x="-.065" y="-2.314" fill="currentColor" ry=".04" transform="translate(49.355 26.46)"/>
    <text fill="currentColor" class="schema" font-family="serif" font-size="1.96" transform="translate(32.834 5.206)">
<tspan>Fenaroli</tspan>
</text>
    <path fill="currentColor" d="M52.667 15.416c.264 0 .432.144.432.356 0 .356-.452.732-.872.732-.264 0-.432-.144-.432-.356 0-.356.452-.732.872-.732z"/>
    <rect width=".13" height="2.814" x="-.065" y="-1.314" fill="currentColor" ry=".04" transform="translate(51.86 17.46)"/>
    <path stroke="currentColor" stroke-linecap="round" stroke-linejoin="round" stroke-width=".1" d="m55.103 5.783.5 1m-38.518-1-.5 1m.5-1h38.018" class="schema"/>
    <path fill="currentColor" d="M55.17 14.916c.265 0 .433.144.433.356 0 .356-.452.732-.872.732-.264 0-.432-.144-.432-.356 0-.356.452-.732.872-.732z"/>
    <rect width=".13" height="3.012" x="-.065" y="-1.814" fill="currentColor" ry=".04" transform="translate(54.364 17.46)"/>
</svg>
