<svg xmlns="http://www.w3.org/2000/svg" width="743.509" height="52.71mm" class="d-block mx-auto d-block mx-auto" version="1.2" viewBox="0 0 111.942 29.995"><style>tspan{white-space:pre}</style><rect width="1.956" height=".2" x="95.311" y="-.1" ry=".1" transform="translate(5.69 8.722)"/><rect width="1.956" height=".2" x="95.311" y="-.1" ry=".1" transform="translate(5.69 9.722)"/><rect width="1.956" height=".2" x="91.607" y="-.1" ry=".1" transform="translate(5.69 9.722)"/><rect width="1.956" height=".2" x="86.578" y="-.1" ry=".1" transform="translate(5.69 8.722)"/><rect width="1.956" height=".2" x="86.578" y="-.1" ry=".1" transform="translate(5.69 9.722)"/><rect width="1.377" height=".2" x="84.736" y="-.1" ry=".1" transform="translate(5.69 8.722)"/><rect width="1.377" height=".2" x="84.736" y="-.1" ry=".1" transform="translate(5.69 9.722)"/><path stroke="currentColor" stroke-linecap="round" stroke-linejoin="round" stroke-width=".1" d="M5.74 14.722h99.29m-99.29-1h99.29m-99.29-1h99.29m-99.29-1h99.29m-99.29-1h99.29"/><rect width=".19" height="4.95" y="10.927" ry="0" transform="translate(104.89 3.845)"/><path stroke="currentColor" stroke-linecap="round" stroke-linejoin="round" stroke-width=".1" d="M5.74 23.722h99.29m-99.29-1h99.29m-99.29-1h99.29m-99.29-1h99.29m-99.29-1h99.29"/><rect width=".19" height="4.05" y="-2.05" ry="0" transform="translate(104.89 21.722)"/><rect width=".19" height="4.05" y="-2" ry="0" transform="translate(104.89 12.722)"/><rect width=".19" height="4.95" y="10.927" ry="0" transform="translate(58.447 3.845)"/><rect width=".19" height="4.05" y="-2.05" ry="0" transform="translate(58.447 21.722)"/><rect width=".19" height="4.05" y="-2" ry="0" transform="translate(58.447 12.722)"/><path stroke="currentColor" stroke-linecap="round" stroke-linejoin="round" stroke-width=".08" d="M101.418 11.712v.4h-3.754v-.4zm0 .81v.4h-8.783v-.4z"/><path d="M17.913 11.178c.264 0 .432.144.432.356 0 .356-.452.732-.872.732-.264 0-.432-.144-.432-.356 0-.356.452-.732.872-.732zM7.555 16.262H7.53a.783.783 0 0 1-.78-.788c0-.232.212-.412.448-.412.216 0 .38.188.38.412 0 .208-.172.38-.38.38a.326.326 0 0 1-.124-.024c.104.156.272.26.468.26h.016zm.78-1.728a.69.69 0 0 0 .452-.656.764.764 0 0 0-.692-.76c.076.356.192.968.24 1.416zm-1.548-.924c0 .58.564.988 1.056.988.004 0 .188 0 .328-.024a17.343 17.343 0 0 0-.252-1.456c-.316.032-.496.244-.496.476 0 .176.1.364.324.492.02.02.028.04.028.06 0 .044-.04.088-.088.088-.06 0-.504-.248-.504-.748 0-.352.232-.696.64-.788a15.048 15.048 0 0 0-.184-.7c-.428.484-.852.972-.852 1.612zm.704-2.1c-.116-.384-.208-.68-.208-1.384 0-.46.22-.896.596-1.168a.06.06 0 0 1 .08 0c.272.32.532.98.532 1.432 0 .572-.344 1.02-.72 1.456.084.272.156.552.224.828.008 0 .028-.004.052-.004.62 0 1.024.512 1.024 1.044 0 .452-.296.848-.72.984.012.14.02.28.02.42 0 .076-.004.156-.008.232-.028.476-.352.9-.808.912l.004-.172c.372-.008.612-.368.636-.764a3.775 3.775 0 0 0-.008-.588c-.02.004-.176.032-.356.032-.772 0-1.332-.72-1.332-1.496 0-.708.524-1.224.992-1.764zm.712-1.452c0-.136.004-.264-.08-.516a1.153 1.153 0 0 0-.648 1.036c0 .208.048.46.144.776.32-.388.584-.792.584-1.296zm1.787.188c0-.032.02-.06.053-.072l.184-.068v-.632c0-.04.032-.076.072-.076s.076.036.076.076v.58l.332-.124v-.632c0-.04.036-.076.076-.076s.072.036.072.076v.58l.128-.048c.008-.004.02-.004.028-.004a.08.08 0 0 1 .08.08v.24c0 .032-.02.064-.052.076l-.184.064v.64l.128-.044c.008-.004.02-.004.028-.004a.08.08 0 0 1 .08.08v.24c0 .032-.02.06-.052.072l-.184.068v.632c0 .04-.032.076-.072.076s-.076-.036-.076-.076v-.58l-.332.124v.632c0 .04-.036.076-.076.076s-.072-.036-.072-.076v-.58l-.128.048c-.008.004-.02.004-.028.004a.08.08 0 0 1-.08-.08v-.24c0-.032.02-.064.052-.076l.184-.064v-.64l-.128.044c-.008.004-.02.004-.028.004a.08.08 0 0 1-.08-.08v-.24zm.717.096-.332.12v.64l.332-.12v-.64zm.383 1.404c0-.032.02-.06.053-.072l.184-.068v-.632c0-.04.032-.076.072-.076s.076.036.076.076v.58l.332-.124v-.632c0-.04.036-.076.076-.076s.072.036.072.076v.58l.128-.048c.008-.004.02-.004.028-.004a.08.08 0 0 1 .08.08v.24c0 .032-.02.064-.052.076l-.184.064v.64l.128-.044c.008-.004.02-.004.028-.004a.08.08 0 0 1 .08.08v.24c0 .032-.02.06-.052.072l-.184.068v.632c0 .04-.032.076-.072.076s-.076-.036-.076-.076v-.58l-.332.124v.632c0 .04-.036.076-.076.076s-.072-.036-.072-.076v-.58l-.128.048c-.008.004-.02.004-.028.004a.08.08 0 0 1-.08-.08v-.24c0-.032.02-.064.052-.076l.184-.064v-.64l-.128.044c-.008.004-.02.004-.028.004a.08.08 0 0 1-.08-.08v-.24zm.717.096-.332.12v.64l.332-.12v-.64zm2.533-.168c.465 0 .705.424.705.652 0 .16-.12.288-.268.288-.124 0-.3-.1-.3-.3 0-.152.108-.308.288-.308.016 0 .036 0 .056.004a.599.599 0 0 0-.48-.236c-.424 0-.452.292-.452.744v.408c0 .452.028.748.452.748.32 0 .556-.28.632-.604.008-.028.028-.04.048-.04.024 0 .052.016.052.048 0 .088-.2.696-.732.696-.236 0-1-.076-1-1.052 0-.248.072-1.048 1-1.048zm3.573 9.504c.264 0 .432.144.432.356 0 .356-.452.732-.872.732-.264 0-.432-.144-.432-.356 0-.356.452-.732.872-.732zm-9.194.044c0-.112.092-.204.204-.204s.204.092.204.204-.092.204-.204.204-.204-.092-.204-.204zm0-1c0-.112.092-.204.204-.204s.204.092.204.204-.092.204-.204.204-.204-.092-.204-.204zm-1.3-.552c.688 0 1.172.352 1.172 1.004 0 1.052-1.052 1.656-2.064 2.084a.049.049 0 0 1-.036.016.053.053 0 0 1-.052-.052c0-.012.004-.024.016-.036.808-.472 1.648-1.06 1.648-1.972 0-.48-.252-.94-.684-.94-.296 0-.516.216-.616.504a.323.323 0 0 1 .136-.032c.22 0 .4.18.4.4 0 .232-.176.424-.4.424-.24 0-.448-.188-.448-.424 0-.532.408-.976.928-.976zm2.571.576c0-.032.02-.06.053-.072l.184-.068v-.632c0-.04.032-.076.072-.076s.076.036.076.076v.58l.332-.124v-.632c0-.04.036-.076.076-.076s.072.036.072.076v.58l.128-.048c.008-.004.02-.004.028-.004a.08.08 0 0 1 .08.08v.24c0 .032-.02.064-.052.076l-.184.064v.64l.128-.044c.008-.004.02-.004.028-.004a.08.08 0 0 1 .08.08v.24c0 .032-.02.06-.052.072l-.184.068v.632c0 .04-.032.076-.072.076s-.076-.036-.076-.076v-.58l-.332.124v.632c0 .04-.036.076-.076.076s-.072-.036-.072-.076v-.58l-.128.048c-.008.004-.02.004-.028.004a.08.08 0 0 1-.08-.08v-.24c0-.032.02-.064.052-.076l.184-.064v-.64l-.128.044c-.008.004-.02.004-.028.004a.08.08 0 0 1-.08-.08v-.24zm.717.096-.332.12v.64l.332-.12v-.64zm.383 1.404c0-.032.02-.06.053-.072l.184-.068v-.632c0-.04.032-.076.072-.076s.076.036.076.076v.58l.332-.124v-.632c0-.04.036-.076.076-.076s.072.036.072.076v.58l.128-.048c.008-.004.02-.004.028-.004a.08.08 0 0 1 .08.08v.24c0 .032-.02.064-.052.076l-.184.064v.64l.128-.044c.008-.004.02-.004.028-.004a.08.08 0 0 1 .08.08v.24c0 .032-.02.06-.052.072l-.184.068v.632c0 .04-.032.076-.072.076s-.076-.036-.076-.076v-.58l-.332.124v.632c0 .04-.036.076-.076.076s-.072-.036-.072-.076v-.58l-.128.048c-.008.004-.02.004-.028.004a.08.08 0 0 1-.08-.08v-.24c0-.032.02-.064.052-.076l.184-.064v-.64l-.128.044c-.008.004-.02.004-.028.004a.08.08 0 0 1-.08-.08v-.24zm.717.096-.332.12v.64l.332-.12v-.64zm2.533-1.168c.465 0 .705.424.705.652 0 .16-.12.288-.268.288-.124 0-.3-.1-.3-.3 0-.152.108-.308.288-.308.016 0 .036 0 .056.004a.599.599 0 0 0-.48-.236c-.424 0-.452.292-.452.744v.408c0 .452.028.748.452.748.32 0 .556-.28.632-.604.008-.028.028-.04.048-.04.024 0 .052.016.052.048 0 .088-.2.696-.732.696-.236 0-1-.076-1-1.052 0-.248.072-1.048 1-1.048z"/><rect width=".13" height="3.314" x="-.065" y="-.814" ry=".04" transform="translate(17.106 12.722)"/><path d="M17.17 15.182h-.063v-1h.064v1zm0 0v-1c.389-.236.897-.592.897-1.036 0-.228-.06-.448-.16-.652-.012-.064.04-.108.092-.108.028 0 .06.012.08.044.1.224.16.468.16.716 0 .812-1.068 1.224-1.068 2.036z"/><rect width=".13" height="2.62" x="-.065" y=".186" ry=".04" transform="translate(17.106 21.722)"/><path d="M22.35 11.902c.316 0 .184.392.364.392.064 0 .216-.192.244-.252.024-.048.092-.048.112 0l-.492 1.68c-.032.028-.068.04-.108.04s-.08-.012-.112-.04l.468-1.304a1.272 1.272 0 0 1-.42.088c-.188 0-.348-.136-.348-.316a.29.29 0 0 1 .292-.288zm.592 7.276c.264 0 .432.144.432.356 0 .356-.452.732-.872.732-.264 0-.432-.144-.432-.356 0-.356.452-.732.872-.732z"/><rect width=".13" height="4.345" x="-.065" y="-1.814" ry=".04" transform="translate(22.135 21.722)"/><path stroke="currentColor" stroke-linecap="round" stroke-linejoin="round" stroke-width=".08" d="M77.41 23.712v.4l-17.642.81v-.4z"/><path d="M27.569 11.178c.264 0 .432.144.432.356 0 .356-.452.732-.872.732-.264 0-.432-.144-.432-.356 0-.356.452-.732.872-.732zm-.31 5.638c.312 0 .388-.704.388-.712 0-.072-.028-.132-.1-.132-.244 0-.408.496-.408.692 0 .088.032.152.12.152zm-.856-.436c0-.008.204-.604.536-.604.14 0 .236.084.264.208.116-.124.268-.208.412-.208.276 0 .428.196.428.456 0 .472-.42.744-.636.744-.212 0-.28-.08-.336-.08-.028 0-.056.012-.064.036l-.116.344c-.004.008-.004.02-.004.028 0 .148.228.072.228.168 0 .028-.016.056-.052.056-.012 0-.2-.02-.464-.02s-.448.02-.46.02a.055.055 0 0 1-.056-.056c0-.124.348.004.408-.164l.408-1.2a.315.315 0 0 0 .016-.08c0-.032-.008-.056-.044-.056-.132 0-.252.24-.316.388a.104.104 0 0 1-.096.068c-.032 0-.056-.016-.056-.048zm1.166 3.798c.264 0 .432.144.432.356 0 .356-.452.732-.872.732-.264 0-.432-.144-.432-.356 0-.356.452-.732.872-.732z"/><rect width=".13" height="3.314" x="-.065" y="-.814" ry=".04" transform="translate(26.762 12.722)"/><path d="M26.827 15.182h-.064v-1h.064v1zm0 0v-1c.388-.236.896-.592.896-1.036 0-.228-.06-.448-.16-.652-.012-.064.04-.108.092-.108.028 0 .06.012.08.044.1.224.16.468.16.716 0 .812-1.068 1.224-1.068 2.036z"/><rect width=".13" height="3.092" x="-.065" y="-.814" ry=".04" transform="translate(26.762 21.722)"/><path stroke="currentColor" stroke-linecap="round" stroke-linejoin="round" stroke-width=".08" d="M69.876 12.402v.4l-2.554.13v-.4zm0 .81v.4l-2.554.13v-.4zm0 .81v.4l-10.108.5v-.4z"/><path d="M32.006 11.902c.316 0 .184.392.364.392.064 0 .216-.192.244-.252.024-.048.092-.048.112 0l-.492 1.68c-.032.028-.068.04-.108.04s-.08-.012-.112-.04l.468-1.304a1.272 1.272 0 0 1-.42.088c-.188 0-.348-.136-.348-.316a.29.29 0 0 1 .292-.288zm.592 7.276c.264 0 .432.144.432.356 0 .356-.452.732-.872.732-.264 0-.432-.144-.432-.356 0-.356.452-.732.872-.732z"/><rect width=".13" height="3.817" x="-.065" y="-1.814" ry=".04" transform="translate(31.791 21.722)"/><path stroke="currentColor" stroke-linecap="round" stroke-linejoin="round" stroke-width=".08" d="M53.91 23.332v.4H36.518v-.4z"/><path d="M37.35 11.678c.264 0 .432.144.432.356 0 .356-.452.732-.872.732-.264 0-.432-.144-.432-.356 0-.356.452-.732.872-.732z"/><text class="scale-degree" font-family="serif" font-size="2.2" transform="translate(36.478 9.837)">
<tspan>➆</tspan>
</text><path d="M37.35 19.678c.264 0 .432.144.432.356 0 .356-.452.732-.872.732-.264 0-.432-.144-.432-.356 0-.356.452-.732.872-.732z"/><text class="scale-degree" font-family="serif" font-size="2.2" transform="translate(36.478 26.113)">
<tspan>➍</tspan>
</text><path d="M38.232 12.222a.224.224 0 1 1 .448 0 .224.224 0 0 1-.448 0z"/><rect width=".13" height="3.311" x="-.065" y="-.314" ry=".04" transform="translate(36.543 12.722)"/><rect width=".13" height="3.124" x="-.065" y="-1.314" ry=".04" transform="translate(36.543 21.722)"/><path stroke="currentColor" stroke-linecap="round" stroke-linejoin="round" stroke-width=".08" d="M60.337 10.177c1.642-1.636 8.126-2.28 10.058-1h0c-1.92-1.161-8.404-.516-10.058 1z"/><path d="M42.254 19.178c.264 0 .432.144.432.356 0 .356-.452.732-.872.732-.264 0-.432-.144-.432-.356 0-.356.452-.732.872-.732z"/><rect width=".13" height="3.624" x="-.065" y="-1.814" ry=".04" transform="translate(41.447 21.722)"/><path stroke="currentColor" stroke-linecap="round" stroke-linejoin="round" stroke-width=".08" d="M46.377 13.402v.4l-2.555.133v-.4zm0 .81v.4l-2.555.133v-.4zm0 .81v.4l-9.859.5v-.4z"/><path d="M44.654 11.178c.264 0 .432.144.432.356 0 .356-.452.732-.872.732-.264 0-.432-.144-.432-.356 0-.356.452-.732.872-.732z"/><rect width=".13" height="3.443" x="-.065" y="-.814" ry=".04" transform="translate(43.847 12.722)"/><path stroke="currentColor" stroke-linecap="round" stroke-linejoin="round" stroke-width=".08" d="M31.816 23.522v.4l-14.735.81v-.4z"/><path d="M47.159 10.678c.264 0 .432.144.432.356 0 .356-.452.732-.872.732-.264 0-.432-.144-.432-.356 0-.356.452-.732.872-.732z"/><rect width=".13" height="3.817" x="-.065" y="-1.314" ry=".04" transform="translate(46.352 12.722)"/><text class="schema" font-family="serif" font-size="1.96" transform="translate(54.138 5.206)">
<tspan>Fenaroli</tspan>
</text><path d="M49.663 11.178c.264 0 .432.144.432.356 0 .356-.452.732-.872.732-.264 0-.432-.144-.432-.356 0-.356.452-.732.872-.732z"/><text class="scale-degree" font-family="serif" font-size="2.2" transform="translate(48.79 10.172)">
<tspan>➀</tspan>
</text><path d="M49.663 20.178c.264 0 .432.144.432.356 0 .356-.452.732-.872.732-.264 0-.432-.144-.432-.356 0-.356.452-.732.872-.732z"/><text class="scale-degree" font-family="serif" font-size="2.2" transform="translate(48.79 26.113)">
<tspan>➌</tspan>
</text><rect width=".13" height="3.314" x="-.065" y="-.814" ry=".04" transform="translate(48.856 12.722)"/><path d="M48.92 15.182h-.063v-1h.064v1zm0 0v-1c.389-.236.897-.592.897-1.036 0-.228-.06-.448-.16-.652-.012-.064.04-.108.092-.108.028 0 .06.012.08.044.1.224.16.468.16.716 0 .812-1.068 1.224-1.068 2.036z"/><rect width=".13" height="2.624" x="-.065" y="-.814" ry=".04" transform="translate(48.856 21.722)"/><path stroke="currentColor" stroke-linecap="round" stroke-linejoin="round" stroke-width=".1" d="m77.82 5.783.5 1m-41.342-1-.5 1m.5-1H77.82" class="schema"/><path d="M54.1 11.902c.316 0 .184.392.364.392.064 0 .216-.192.244-.252.024-.048.092-.048.112 0l-.492 1.68c-.032.028-.068.04-.108.04s-.08-.012-.112-.04l.468-1.304a1.272 1.272 0 0 1-.42.088c-.188 0-.348-.136-.348-.316a.29.29 0 0 1 .292-.288zm.592 7.276c.264 0 .432.144.432.356 0 .356-.452.732-.872.732-.264 0-.432-.144-.432-.356 0-.356.452-.732.872-.732z"/><rect width=".13" height="3.624" x="-.065" y="-1.814" ry=".04" transform="translate(53.885 21.722)"/><path stroke="currentColor" stroke-linecap="round" stroke-linejoin="round" stroke-width=".08" d="M37.086 11.177c1.615-1.625 7.899-2.265 9.809-1h0c-1.898-1.146-8.181-.505-9.809 1z"/><path d="M60.6 10.678c.264 0 .432.144.432.356 0 .356-.452.732-.872.732-.264 0-.432-.144-.432-.356 0-.356.452-.732.872-.732z"/><text class="scale-degree" font-family="serif" font-size="2.2" transform="translate(59.728 8.844)">
<tspan>➁</tspan>
</text><path d="M60.6 21.678c.264 0 .432.144.432.356 0 .356-.452.732-.872.732-.264 0-.432-.144-.432-.356 0-.356.452-.732.872-.732z"/><text class="scale-degree" font-family="serif" font-size="2.2" transform="translate(59.728 27.303)">
<tspan>➐</tspan>
</text><rect width=".16" height="13.1" y="-6.55" ry=".05" transform="translate(5.63 17.222)"/><path d="M61.482 11.222a.224.224 0 1 1 .447 0 .224.224 0 0 1-.447 0z"/><rect width=".13" height="3.311" x="-.065" y="-1.314" ry=".04" transform="translate(59.793 12.722)"/><rect width=".13" height="2.311" x="-.065" y=".686" ry=".04" transform="translate(59.793 21.722)"/><path stroke="currentColor" stroke-linecap="round" stroke-linejoin="round" stroke-width=".08" d="M97.714 25.332v.4H81.987v-.4z"/><path d="M5.007 18.686c0-1.02-.528-1.452-.528-1.464 0-.072.528-.384.528-1.464 0-1.044-.432-1.956-.432-3.12 0-.756.18-1.464.708-2.004.06-.06.156.036.096.096-.396.396-.516.9-.516 1.44 0 1.02.408 1.92.408 3.06 0 .744-.18 1.452-.696 1.992.516.54.696 1.248.696 1.992 0 1.14-.408 2.04-.408 3.06 0 .54.12 1.044.516 1.44.06.06-.036.156-.096.096-.528-.54-.708-1.248-.708-2.004 0-1.164.432-2.076.432-3.12zm60.747.492c.264 0 .432.144.432.356 0 .356-.452.732-.872.732-.264 0-.432-.144-.432-.356 0-.356.452-.732.872-.732z"/><rect width=".13" height="4.575" x="-.065" y="-1.814" ry=".04" transform="translate(64.947 21.722)"/><path d="M68.154 10.178c.264 0 .432.144.432.356 0 .356-.452.732-.872.732-.264 0-.432-.144-.432-.356 0-.356.452-.732.872-.732z"/><rect width=".13" height="3.44" x="-.065" y="-1.814" ry=".04" transform="translate(67.347 12.722)"/><path d="M70.658 9.678c.264 0 .432.144.432.356 0 .356-.452.732-.872.732-.264 0-.432-.144-.432-.356 0-.356.452-.732.872-.732z"/><rect width=".13" height="3.817" x="-.065" y="-2.314" ry=".04" transform="translate(69.851 12.722)"/><path d="M73.163 10.178c.264 0 .432.144.432.356 0 .356-.452.732-.872.732-.264 0-.432-.144-.432-.356 0-.356.452-.732.872-.732z"/><text class="scale-degree" font-family="serif" font-size="2.2" transform="translate(72.29 9.687)">
<tspan>➂</tspan>
</text><path d="M73.163 21.178c.264 0 .432.144.432.356 0 .356-.452.732-.872.732-.264 0-.432-.144-.432-.356 0-.356.452-.732.872-.732z"/><text class="scale-degree" font-family="serif" font-size="2.2" transform="translate(72.29 26.738)">
<tspan>➊</tspan>
</text><rect width=".13" height="3.314" x="-.065" y="-1.814" ry=".04" transform="translate(72.356 12.722)"/><path d="M72.42 14.182h-.063v-1h.064v1zm0 0v-1c.389-.236.897-.592.897-1.036 0-.228-.06-.448-.16-.652-.012-.064.04-.108.092-.108.028 0 .06.012.08.044.1.224.16.468.16.716 0 .812-1.068 1.224-1.068 2.036z"/><rect width=".13" height="2.237" x="-.065" y=".186" ry=".04" transform="translate(72.356 21.722)"/><path d="M77.6 11.902c.316 0 .184.392.364.392.064 0 .216-.192.244-.252.024-.048.092-.048.112 0l-.492 1.68c-.032.028-.068.04-.108.04s-.08-.012-.112-.04l.468-1.304a1.272 1.272 0 0 1-.42.088c-.188 0-.348-.136-.348-.316a.29.29 0 0 1 .292-.288zm.592 7.276c.264 0 .432.144.432.356 0 .356-.452.732-.872.732-.264 0-.432-.144-.432-.356 0-.356.452-.732.872-.732z"/><rect width=".13" height="4.007" x="-.065" y="-1.814" ry=".04" transform="translate(77.385 21.722)"/><path d="M82.819 9.678c.264 0 .432.144.432.356 0 .356-.452.732-.872.732-.264 0-.432-.144-.432-.356 0-.356.452-.732.872-.732zm0 11c.264 0 .432.144.432.356 0 .356-.452.732-.872.732-.264 0-.432-.144-.432-.356 0-.356.452-.732.872-.732z"/><rect width=".13" height="3.314" x="-.065" y="-2.314" ry=".04" transform="translate(82.012 12.722)"/><path d="M82.077 13.682h-.064v-1h.064v1zm0 0v-1c.388-.236.896-.592.896-1.036 0-.228-.06-.448-.16-.652-.012-.064.04-.108.092-.108.028 0 .06.012.08.044.1.224.16.468.16.716 0 .812-1.068 1.224-1.068 2.036z"/><rect width=".13" height="4.124" x="-.065" y="-.314" ry=".04" transform="translate(82.012 21.722)"/><path d="M87.256 11.902c.316 0 .184.392.364.392.064 0 .216-.192.244-.252.024-.048.092-.048.112 0l-.492 1.68c-.032.028-.068.04-.108.04s-.08-.012-.112-.04l.468-1.304a1.272 1.272 0 0 1-.42.088c-.188 0-.348-.136-.348-.316a.29.29 0 0 1 .292-.288zm.592 7.276c.264 0 .432.144.432.356 0 .356-.452.732-.872.732-.264 0-.432-.144-.432-.356 0-.356.452-.732.872-.732z"/><rect width=".13" height="5.624" x="-.065" y="-1.814" ry=".04" transform="translate(87.041 21.722)"/><path d="M91.239 7.833c.193 0 .327.112.327.277 0 .255-.3.502-.585.502-.193 0-.325-.112-.325-.278 0-.254.297-.5.583-.5z"/><rect width=".13" height="2.486" x="-.065" y="-7.1" ry=".04" transform="translate(91.509 12.722)"/><path d="M91.574 6.256v.596-.596c0 .32.238.563.409.826A.374.374 0 0 0 92 6.97c0-.263-.244-.526-.426-.714zm.322 1.78c0-.03.12-.206.12-.472s-.252-.527-.442-.712v.21h-.059v-1.4h.059c0 .496.563.812.563 1.308a.643.643 0 0 1-.065.269c.05.1.082.207.082.325 0 .176-.042.35-.115.51-.014.027-.04.036-.065.036-.039 0-.078-.028-.078-.073zm1.571.142c.264 0 .432.144.432.356 0 .356-.452.732-.872.732-.264 0-.432-.144-.432-.356 0-.356.452-.732.872-.732zm0 14.5c.264 0 .432.144.432.356 0 .356-.452.732-.872.732-.264 0-.432-.144-.432-.356 0-.356.452-.732.872-.732z"/><rect width=".13" height="3.814" x="-.065" y="-3.814" ry=".04" transform="translate(92.66 12.722)"/><rect width=".13" height="2.124" x="-.065" y="1.686" ry=".04" transform="translate(92.66 21.722)"/><path d="M98.496 8.678c.264 0 .432.144.432.356 0 .356-.452.732-.872.732-.264 0-.432-.144-.432-.356 0-.356.452-.732.872-.732zm0 10.5c.264 0 .432.144.432.356 0 .356-.452.732-.872.732-.264 0-.432-.144-.432-.356 0-.356.452-.732.872-.732z"/><rect width=".13" height="3.314" x="-.065" y="-3.314" ry=".04" transform="translate(97.689 12.722)"/><rect width=".13" height="5.624" x="-.065" y="-1.814" ry=".04" transform="translate(97.689 21.722)"/><path d="M102.2 8.178c.264 0 .432.144.432.356 0 .356-.452.732-.872.732-.264 0-.432-.144-.432-.356 0-.356.452-.732.872-.732z"/><rect width=".13" height="3.814" x="-.065" y="-3.814" ry=".04" transform="translate(101.393 12.722)"/></svg>
