<svg xmlns="http://www.w3.org/2000/svg" xmlns:xlink="http://www.w3.org/1999/xlink" width="680.315" height="60mm" version="1.2" viewBox="0 0 102.43 34.143">
    <defs>
        <path id="a" fill="currentColor" d="M218 136c66 0 108-36 108-89 0-89-113-183-218-183C42-136 0-100 0-47c0 89 113 183 218 183z"/>
        <path id="b" fill="currentColor" d="M0 119c0 8 5 15 13 18l46 17v158c0 10 8 19 18 19s19-9 19-19V167l83 31v158c0 10 9 19 19 19s18-9 18-19V211l32 12c2 1 5 1 7 1 11 0 20-9 20-20v-60c0-8-5-16-13-19l-46-16V-51l32 11c2 1 5 1 7 1 11 0 20-9 20-20v-60c0-8-5-15-13-18l-46-17v-158c0-10-8-19-18-19s-19 9-19 19v145l-83-31v-158c0-10-9-19-19-19s-18 9-18 19v145l-32-12c-2-1-5-1-7-1-11 0-20 9-20 20v60c0 8 5 16 13 19l46 16V51L27 40c-2-1-5-1-7-1C9 39 0 48 0 59v60zm179-24L96 65V-95l83 30V95z"/>
        <path id="c" fill="currentColor" d="M250 262c116 0 176-106 176-163 0-40-30-72-67-72-31 0-75 25-75 75 0 38 27 77 72 77 4 0 9 0 14-1-28 37-72 59-120 59-106 0-113-73-113-186V-51c0-113 7-187 113-187 80 0 139 70 158 151 2 7 7 10 12 10 6 0 13-4 13-12 0-22-50-174-183-174C191-263 0-244 0 0c0 62 18 262 250 262z"/>
        <path id="d" fill="currentColor" d="M-6 78c0 59 124 83 124 182 0 24-8 49-25 69l-35 42c-3 3-4 7-4 10 0 9 9 15 17 15 4 0 8-1 11-5l151-180c7-9 10-17 10-25 0-59-124-83-124-182 0-24 7-49 24-69l84-99c3-3 4-7 4-10 0-9-8-16-16-16s-45 44-109 44c-16 0-53 0-53-67 0-35 11-74 28-94 7-8-5-19-12-11-45 54-92 148-92 202 0 41 27 42 40 42 33 0 78-13 119-31L4 53C-3 62-6 70-6 78z"/>
        <path id="e" fill="currentColor" d="M208 139c69 0 117-40 117-99 0-91-107-179-209-179C47-139 0-99 0-40c0 91 106 179 208 179z"/>
        <path id="f" fill="currentColor" d="M0-212v-213 213c0-114 85-201 146-295 4 13 6 26 6 40 0 94-87 188-152 255zm115-636c0 11 43 74 43 169S68-491 0-425v-75h-21V0H0c0-177 201-290 201-467 0-33-9-66-23-96 18-36 29-74 29-116 0-63-15-125-41-182-5-10-14-13-23-13-14 0-28 10-28 26z"/>
    </defs>
    <text fill="currentColor" font-family="serif" font-size="2.47" font-weight="bold" transform="translate(5.69 5.514)">
<tspan style="white-space:pre">Allegro</tspan>
</text>
    <rect width="1.956" height=".2" x="80.281" y="-.1" fill="currentColor" ry=".1" transform="translate(5.69 13.647)"/>
    <rect width="1.956" height=".2" x="70.473" y="-.1" fill="currentColor" ry=".1" transform="translate(5.69 13.647)"/>
    <rect width="1.956" height=".2" x="67.028" y="-.1" fill="currentColor" ry=".1" transform="translate(5.69 13.647)"/>
    <rect width="1.956" height=".2" x="67.028" y="-.1" fill="currentColor" ry=".1" transform="translate(5.69 14.647)"/>
    <rect width="1.956" height=".2" x="63.833" y="-.1" fill="currentColor" ry=".1" transform="translate(5.69 13.647)"/>
    <rect width="1.956" height=".2" x="63.833" y="-.1" fill="currentColor" ry=".1" transform="translate(5.69 14.647)"/>
    <rect width="1.956" height=".2" x="60.396" y="-.1" fill="currentColor" ry=".1" transform="translate(5.69 13.647)"/>
    <rect width="1.956" height=".2" x="60.396" y="-.1" fill="currentColor" ry=".1" transform="translate(5.69 14.647)"/>
    <rect width="1.956" height=".2" x="58.146" y="-.1" fill="currentColor" ry=".1" transform="translate(5.69 13.647)"/>
    <rect width="1.956" height=".2" x="54.951" y="-.1" fill="currentColor" ry=".1" transform="translate(5.69 13.647)"/>
    <rect width="1.956" height=".2" x="51.059" y="-.1" fill="currentColor" ry=".1" transform="translate(5.69 13.647)"/>
    <rect width="1.956" height=".2" x="48.81" y="-.1" fill="currentColor" ry=".1" transform="translate(5.69 13.647)"/>
    <path stroke="currentColor" stroke-linecap="round" stroke-linejoin="round" stroke-width=".1" d="M5.74 12.647h90.95m-90.95-1h90.95m-90.95-1h90.95m-90.95-1h90.95m-90.95-1h90.95"/>
    <rect width=".19" height="4.95" y="6.15" fill="currentColor" ry="0" transform="translate(96.55 6.547)"/>
    <path stroke="currentColor" stroke-linecap="round" stroke-linejoin="round" stroke-width=".1" d="M5.74 21.647h90.95m-90.95-1h90.95m-90.95-1h90.95m-90.95-1h90.95m-90.95-1h90.95"/>
    <rect width=".19" height="4.05" y="-2.05" fill="currentColor" ry="0" transform="translate(96.55 19.647)"/>
    <rect width=".19" height="4.05" y="-2" fill="currentColor" ry="0" transform="translate(96.55 10.647)"/>
    <rect width=".19" height="4.95" y="6.15" fill="currentColor" ry="0" transform="translate(68.844 6.547)"/>
    <rect width=".19" height="4.05" y="-2.05" fill="currentColor" ry="0" transform="translate(68.844 19.647)"/>
    <rect width=".19" height="4.05" y="-2" fill="currentColor" ry="0" transform="translate(68.844 10.647)"/>
    <rect width=".19" height="4.95" y="6.15" fill="currentColor" ry="0" transform="translate(41.582 6.547)"/>
    <rect width=".19" height="4.05" y="-2.05" fill="currentColor" ry="0" transform="translate(41.582 19.647)"/>
    <rect width=".19" height="4.05" y="-2" fill="currentColor" ry="0" transform="translate(41.582 10.647)"/>
    <use xlink:href="#a" transform="matrix(.004 0 0 -.004 15.94 8.147)"/>
    <use xlink:href="#a" transform="matrix(.004 0 0 -.004 15.94 9.647)"/>
    <use xlink:href="#a" transform="matrix(.004 0 0 -.004 15.94 10.647)"/>
    <use xlink:href="#a" transform="matrix(.004 0 0 -.004 15.94 11.647)"/>
    <path fill="currentColor" d="M7.555 14.187H7.53a.783.783 0 0 1-.78-.788c0-.232.212-.412.448-.412.216 0 .38.188.38.412 0 .208-.172.38-.38.38a.326.326 0 0 1-.124-.024c.104.156.272.26.468.26h.016zm.78-1.728a.69.69 0 0 0 .452-.656.764.764 0 0 0-.692-.76c.076.356.192.968.24 1.416zm-1.548-.924c0 .58.564.988 1.056.988.004 0 .188 0 .328-.024a17.343 17.343 0 0 0-.252-1.456c-.316.032-.496.244-.496.476 0 .176.1.364.324.492.02.02.028.04.028.06 0 .044-.04.088-.088.088-.06 0-.504-.248-.504-.748 0-.352.232-.696.64-.788a15.048 15.048 0 0 0-.184-.7c-.428.484-.852.972-.852 1.612zm.704-2.1c-.116-.384-.208-.68-.208-1.384 0-.46.22-.896.596-1.168a.06.06 0 0 1 .08 0c.272.32.532.98.532 1.432 0 .572-.344 1.02-.72 1.456.084.272.156.552.224.828.008 0 .028-.004.052-.004.62 0 1.024.512 1.024 1.044 0 .452-.296.848-.72.984.012.14.02.28.02.42 0 .076-.004.156-.008.232-.028.476-.352.9-.808.912l.004-.172c.372-.008.612-.368.636-.764a3.775 3.775 0 0 0-.008-.588c-.02.004-.176.032-.356.032-.772 0-1.332-.72-1.332-1.496 0-.708.524-1.224.992-1.764zm.712-1.452c0-.136.004-.264-.08-.516a1.153 1.153 0 0 0-.648 1.036c0 .208.048.46.144.776.32-.388.584-.792.584-1.296z"/>
    <use xlink:href="#b" transform="matrix(.004 0 0 -.004 9.99 8.647)"/>
    <use xlink:href="#c" transform="matrix(.004 0 0 -.004 12.24 10.647)"/>
    <use xlink:href="#a" transform="matrix(.004 0 0 -.004 15.94 18.147)"/>
    <path fill="currentColor" d="M8.719 19.147c0-.112.092-.204.204-.204s.204.092.204.204-.092.204-.204.204-.204-.092-.204-.204zm0-1c0-.112.092-.204.204-.204s.204.092.204.204-.092.204-.204.204-.204-.092-.204-.204zm-1.3-.552c.688 0 1.172.352 1.172 1.004 0 1.052-1.052 1.656-2.064 2.084a.049.049 0 0 1-.036.016.053.053 0 0 1-.052-.052c0-.012.004-.024.016-.036.808-.472 1.648-1.06 1.648-1.972 0-.48-.252-.94-.684-.94-.296 0-.516.216-.616.504a.323.323 0 0 1 .136-.032c.22 0 .4.18.4.4 0 .232-.176.424-.4.424-.24 0-.448-.188-.448-.424 0-.532.408-.976.928-.976z"/>
    <use xlink:href="#b" transform="matrix(.004 0 0 -.004 9.99 18.647)"/>
    <use xlink:href="#c" transform="matrix(.004 0 0 -.004 12.24 19.647)"/>
    <rect width=".13" height="6.314" x="-.065" y="-2.314" fill="currentColor" ry=".04" transform="translate(16.006 10.647)"/>
    <rect width=".13" height="3.314" x="-.065" y="-1.314" fill="currentColor" ry=".04" transform="translate(16.006 19.647)"/>
    <path fill="currentColor" stroke="currentColor" stroke-linecap="round" stroke-linejoin="round" stroke-width=".08" d="M94.452 16.447v.4l-6.94 1.19v-.4z"/>
    <use xlink:href="#d" transform="matrix(.004 0 0 -.004 19.858 10.647)"/>
    <use xlink:href="#a" transform="matrix(.004 0 0 -.004 19.858 21.647)"/>
    <rect width=".13" height="3.314" x="-.065" y="-1.5" fill="currentColor" ry=".04" transform="translate(21.097 19.647)"/>
    <path fill="currentColor" stroke="currentColor" stroke-linecap="round" stroke-linejoin="round" stroke-width=".08" d="M94.451 8.447v.4h-9.857v-.4z"/>
    <use xlink:href="#e" transform="matrix(.0028 0 0 -.0028 22.97 9.147)"/>
    <rect width=".13" height="2.486" x="-.065" y="-4.1" fill="currentColor" ry=".04" transform="translate(23.822 10.647)"/>
    <use xlink:href="#f" transform="matrix(.0028 0 0 -.0028 23.887 6.587)"/>
    <path fill="currentColor" stroke="currentColor" stroke-linecap="round" stroke-linejoin="round" stroke-width=".08" d="M81.198 10.257v.4l-10.135.19v-.4z"/>
    <use xlink:href="#a" transform="matrix(.004 0 0 -.004 24.806 9.647)"/>
    <use xlink:href="#d" transform="matrix(.004 0 0 -.004 24.806 19.647)"/>
    <rect width=".13" height="3.011" x="-.065" y="-.814" fill="currentColor" ry=".04" transform="translate(24.871 10.647)"/>
    <path fill="currentColor" stroke="currentColor" stroke-linecap="round" stroke-linejoin="round" stroke-width=".08" d="M67.677 10.447v.4l-5.495-.19v-.4zm0 .81v.4l-2.3-.08v-.4z"/>
    <use xlink:href="#a" transform="matrix(.004 0 0 -.004 28.001 10.147)"/>
    <rect width=".13" height="2.866" x="-.065" y="-.314" fill="currentColor" ry=".04" transform="translate(28.066 10.647)"/>
    <path fill="currentColor" stroke="currentColor" stroke-linecap="round" stroke-linejoin="round" stroke-width=".08" d="M58.34 10.637v.4l-5.495-.38v-.4zm0 .81v.4l-2.3-.162v-.4z"/>
    <use xlink:href="#a" transform="matrix(.004 0 0 -.004 30.25 10.647)"/>
    <rect width=".13" height="2.617" x="-.065" y=".186" fill="currentColor" ry=".04" transform="translate(30.316 10.647)"/>
    <use xlink:href="#e" transform="matrix(.0028 0 0 -.0028 32.148 9.647)"/>
    <rect width=".13" height="2.486" x="-.065" y="-3.6" fill="currentColor" ry=".04" transform="translate(33.001 10.647)"/>
    <use xlink:href="#f" transform="matrix(.0028 0 0 -.0028 33.066 7.087)"/>
    <use xlink:href="#a" transform="matrix(.004 0 0 -.004 33.985 10.147)"/>
    <use xlink:href="#a" transform="matrix(.004 0 0 -.004 33.985 19.647)"/>
    <rect width=".13" height="3.132" x="-.065" y="-.314" fill="currentColor" ry=".04" transform="translate(34.05 10.647)"/>
    <rect width=".13" height="3.147" x="-.065" y=".186" fill="currentColor" ry=".04" transform="translate(34.05 19.647)"/>
    <path fill="currentColor" stroke="currentColor" stroke-linecap="round" stroke-linejoin="round" stroke-width=".08" d="M39.52 13.137v.4l-2.3-.294v-.4zm0 .81v.4l-5.495-.69v-.4z"/>
    <use xlink:href="#a" transform="matrix(.004 0 0 -.004 37.18 10.647)"/>
    <rect width=".13" height="3.027" x="-.065" y=".186" fill="currentColor" ry=".04" transform="translate(37.245 10.647)"/>
    <path fill="currentColor" stroke="currentColor" stroke-linecap="round" stroke-linejoin="round" stroke-width=".08" d="M30.34 12.447v.4l-2.299-.264v-.4zm0 .81v.4l-5.494-.62v-.4z"/>
    <use xlink:href="#a" transform="matrix(.004 0 0 -.004 39.43 11.147)"/>
    <rect width=".13" height="2.806" x="-.065" y=".686" fill="currentColor" ry=".04" transform="translate(39.495 10.647)"/>
    <use xlink:href="#a" transform="matrix(.004 0 0 -.004 42.766 11.647)"/>
    <use xlink:href="#a" transform="matrix(.004 0 0 -.004 42.766 18.147)"/>
    <rect width=".13" height="3.314" x="-.065" y="-2.5" fill="currentColor" ry=".04" transform="translate(44.005 10.647)"/>
    <rect width=".13" height="3.314" x="-.065" y="-1.314" fill="currentColor" ry=".04" transform="translate(42.83 19.647)"/>
    <use xlink:href="#d" transform="matrix(.004 0 0 -.004 46.683 10.647)"/>
    <use xlink:href="#a" transform="matrix(.004 0 0 -.004 46.683 21.647)"/>
    <rect width=".13" height="3.314" x="-.065" y="-1.5" fill="currentColor" ry=".04" transform="translate(47.922 19.647)"/>
    <use xlink:href="#e" transform="matrix(.0028 0 0 -.0028 49.794 12.647)"/>
    <rect width=".13" height="2.686" x="-.065" y="-.8" fill="currentColor" ry=".04" transform="translate(50.647 10.647)"/>
    <use xlink:href="#f" transform="matrix(.0028 0 0 -.0028 50.712 9.887)"/>
    <use xlink:href="#a" transform="matrix(.004 0 0 -.004 51.631 13.147)"/>
    <use xlink:href="#d" transform="matrix(.004 0 0 -.004 51.631 19.647)"/>
    <rect width=".13" height="2.499" x="-.065" y="-.186" fill="currentColor" ry=".04" transform="translate(52.87 10.647)"/>
    <use xlink:href="#a" transform="matrix(.004 0 0 -.004 54.826 13.647)"/>
    <rect width=".13" height="2.782" x="-.065" y=".032" fill="currentColor" ry=".04" transform="translate(56.065 10.647)"/>
    <use xlink:href="#a" transform="matrix(.004 0 0 -.004 57.076 14.147)"/>
    <rect width=".13" height="3.128" x="-.065" y=".186" fill="currentColor" ry=".04" transform="translate(58.315 10.647)"/>
    <use xlink:href="#e" transform="matrix(.0028 0 0 -.0028 59.13 13.147)"/>
    <rect width=".13" height="2.686" x="-.065" y="-.3" fill="currentColor" ry=".04" transform="translate(59.984 10.647)"/>
    <use xlink:href="#f" transform="matrix(.0028 0 0 -.0028 60.049 10.387)"/>
    <use xlink:href="#a" transform="matrix(.004 0 0 -.004 60.968 13.647)"/>
    <use xlink:href="#a" transform="matrix(.004 0 0 -.004 60.968 19.647)"/>
    <rect width=".13" height="3.002" x="-.065" y="-.188" fill="currentColor" ry=".04" transform="translate(62.207 10.647)"/>
    <rect width=".13" height="3.147" x="-.065" y=".186" fill="currentColor" ry=".04" transform="translate(61.033 19.647)"/>
    <use xlink:href="#a" transform="matrix(.004 0 0 -.004 64.163 14.147)"/>
    <rect width=".13" height="3.393" x="-.065" y="-.079" fill="currentColor" ry=".04" transform="translate(65.402 10.647)"/>
    <use xlink:href="#a" transform="matrix(.004 0 0 -.004 66.412 14.647)"/>
    <rect width=".13" height="3.816" x="-.065" y="-.002" fill="currentColor" ry=".04" transform="translate(67.651 10.647)"/>
    <use xlink:href="#a" transform="matrix(.004 0 0 -.004 69.85 15.147)"/>
    <use xlink:href="#a" transform="matrix(.004 0 0 -.004 69.85 21.647)"/>
    <rect width=".16" height="13.1" y="-6.55" fill="currentColor" ry=".05" transform="translate(5.63 15.147)"/>
    <rect width=".13" height="4.315" x="-.065" y="-.001" fill="currentColor" ry=".04" transform="translate(71.088 10.647)"/>
    <rect width=".13" height="3.314" x="-.065" y="-1.5" fill="currentColor" ry=".04" transform="translate(71.088 19.647)"/>
    <path fill="currentColor" d="M5.007 16.611c0-1.02-.528-1.452-.528-1.464 0-.072.528-.384.528-1.464 0-1.044-.432-1.956-.432-3.12 0-.756.18-1.464.708-2.004.06-.06.156.036.096.096-.396.396-.516.9-.516 1.44 0 1.02.408 1.92.408 3.06 0 .744-.18 1.452-.696 1.992.516.54.696 1.248.696 1.992 0 1.14-.408 2.04-.408 3.06 0 .54.12 1.044.516 1.44.06.06-.036.156-.096.096-.528-.54-.708-1.248-.708-2.004 0-1.164.432-2.076.432-3.12z"/>
    <use xlink:href="#a" transform="matrix(.004 0 0 -.004 73.044 15.147)"/>
    <rect width=".13" height="4.375" x="-.065" y="-.061" fill="currentColor" ry=".04" transform="translate(74.283 10.647)"/>
    <use xlink:href="#a" transform="matrix(.004 0 0 -.004 76.49 14.147)"/>
    <use xlink:href="#d" transform="matrix(.004 0 0 -.004 76.49 19.647)"/>
    <rect width=".13" height="3.439" x="-.065" y="-.125" fill="currentColor" ry=".04" transform="translate(77.728 10.647)"/>
    <use xlink:href="#a" transform="matrix(.004 0 0 -.004 79.934 13.147)"/>
    <rect width=".13" height="2.503" x="-.065" y="-.189" fill="currentColor" ry=".04" transform="translate(81.174 10.647)"/>
    <use xlink:href="#a" transform="matrix(.004 0 0 -.004 83.38 11.647)"/>
    <path fill="currentColor" d="M83.66 18.827c.315 0 .183.392.363.392.064 0 .216-.192.244-.252.024-.048.092-.048.112 0l-.492 1.68c-.032.028-.068.04-.108.04s-.08-.012-.112-.04l.468-1.304a1.272 1.272 0 0 1-.42.088c-.188 0-.348-.136-.348-.316a.29.29 0 0 1 .292-.288z"/>
    <rect width=".13" height="2.814" x="-.065" y="-2" fill="currentColor" ry=".04" transform="translate(84.618 10.647)"/>
    <use xlink:href="#a" transform="matrix(.004 0 0 -.004 86.297 14.147)"/>
    <use xlink:href="#a" transform="matrix(.004 0 0 -.004 86.297 21.647)"/>
    <rect width=".13" height="5.314" x="-.065" y="-2" fill="currentColor" ry=".04" transform="translate(87.536 10.647)"/>
    <rect width=".13" height="3.635" x="-.065" y="-1.821" fill="currentColor" ry=".04" transform="translate(87.536 19.647)"/>
    <use xlink:href="#a" transform="matrix(.004 0 0 -.004 89.742 13.147)"/>
    <use xlink:href="#a" transform="matrix(.004 0 0 -.004 89.742 20.647)"/>
    <rect width=".13" height="4.314" x="-.065" y="-2" fill="currentColor" ry=".04" transform="translate(90.981 10.647)"/>
    <rect width=".13" height="3.219" x="-.065" y="-2.405" fill="currentColor" ry=".04" transform="translate(90.981 19.647)"/>
    <use xlink:href="#a" transform="matrix(.004 0 0 -.004 93.187 11.647)"/>
    <use xlink:href="#a" transform="matrix(.004 0 0 -.004 93.187 19.647)"/>
    <rect width=".13" height="2.814" x="-.065" y="-2" fill="currentColor" ry=".04" transform="translate(94.427 10.647)"/>
    <rect width=".13" height="2.803" x="-.065" y="-2.989" fill="currentColor" ry=".04" transform="translate(94.427 19.647)"/>
</svg>
