<?xml version="1.0" encoding="utf-8" standalone="no"?>
<!DOCTYPE svg PUBLIC "-//W3C//DTD SVG 1.1//EN"
  "http://www.w3.org/Graphics/SVG/1.1/DTD/svg11.dtd">
<svg xmlns:xlink="http://www.w3.org/1999/xlink" width="432pt" height="324pt" viewBox="0 0 432 324" xmlns="http://www.w3.org/2000/svg" version="1.1">
 <metadata>
  <rdf:RDF xmlns:dc="http://purl.org/dc/elements/1.1/" xmlns:cc="http://creativecommons.org/ns#" xmlns:rdf="http://www.w3.org/1999/02/22-rdf-syntax-ns#">
   <cc:Work>
    <dc:type rdf:resource="http://purl.org/dc/dcmitype/StillImage"/>
    <dc:date>2022-10-30T13:17:57.441244</dc:date>
    <dc:format>image/svg+xml</dc:format>
    <dc:creator>
     <cc:Agent>
      <dc:title>Matplotlib v3.6.1, https://matplotlib.org/</dc:title>
     </cc:Agent>
    </dc:creator>
   </cc:Work>
  </rdf:RDF>
 </metadata>
 <defs>
  <style type="text/css">*{stroke-linejoin: round; stroke-linecap: butt}</style>
 </defs>
 <g id="figure_1">
  <g id="patch_1">
   <path d="M 0 324 
L 432 324 
L 432 0 
L 0 0 
z
" style="fill: #ffffff"/>
  </g>
  <g id="axes_1">
   <g id="patch_2">
    <path d="M 63.129359 306.545236 
C 73.940497 306.545236 84.310294 291.315038 91.954923 264.208917 
C 99.599552 237.102795 103.894863 200.333845 103.894863 162 
C 103.894863 123.666155 99.599552 86.897205 91.954923 59.791083 
C 84.310294 32.684962 73.940497 17.454764 63.129359 17.454764 
C 52.318221 17.454764 41.948423 32.684962 34.303794 59.791083 
C 26.659165 86.897205 22.363855 123.666155 22.363855 162 
C 22.363855 200.333845 26.659165 237.102795 34.303794 264.208917 
C 41.948423 291.315038 52.318221 306.545236 63.129359 306.545236 
z
" clip-path="url(#p149fc1e3ea)" style="fill: #e9ecef"/>
   </g>
   <g id="patch_3">
    <path d="M 165.04312 306.545236 
C 175.854258 306.545236 186.224055 291.315038 193.868684 264.208917 
C 201.513313 237.102795 205.808624 200.333845 205.808624 162 
C 205.808624 123.666155 201.513313 86.897205 193.868684 59.791083 
C 186.224055 32.684962 175.854258 17.454764 165.04312 17.454764 
C 154.231982 17.454764 143.862184 32.684962 136.217555 59.791083 
C 128.572926 86.897205 124.277615 123.666155 124.277615 162 
C 124.277615 200.333845 128.572926 237.102795 136.217555 264.208917 
C 143.862184 291.315038 154.231982 306.545236 165.04312 306.545236 
z
" clip-path="url(#p149fc1e3ea)" style="fill: #e9ecef"/>
   </g>
   <g id="patch_4">
    <path d="M 266.95688 306.545236 
C 277.768018 306.545236 288.137816 291.315038 295.782445 264.208917 
C 303.427074 237.102795 307.722385 200.333845 307.722385 162 
C 307.722385 123.666155 303.427074 86.897205 295.782445 59.791083 
C 288.137816 32.684962 277.768018 17.454764 266.95688 17.454764 
C 256.145742 17.454764 245.775945 32.684962 238.131316 59.791083 
C 230.486687 86.897205 226.191376 123.666155 226.191376 162 
C 226.191376 200.333845 230.486687 237.102795 238.131316 264.208917 
C 245.775945 291.315038 256.145742 306.545236 266.95688 306.545236 
z
" clip-path="url(#p149fc1e3ea)" style="fill: #e9ecef"/>
   </g>
   <g id="patch_5">
    <path d="M 368.870641 306.545236 
C 379.681779 306.545236 390.051577 291.315038 397.696206 264.208917 
C 405.340835 237.102795 409.636145 200.333845 409.636145 162 
C 409.636145 123.666155 405.340835 86.897205 397.696206 59.791083 
C 390.051577 32.684962 379.681779 17.454764 368.870641 17.454764 
C 358.059503 17.454764 347.689706 32.684962 340.045077 59.791083 
C 332.400448 86.897205 328.105137 123.666155 328.105137 162 
C 328.105137 200.333845 332.400448 237.102795 340.045077 264.208917 
C 347.689706 291.315038 358.059503 306.545236 368.870641 306.545236 
z
" clip-path="url(#p149fc1e3ea)" style="fill: #e9ecef"/>
   </g>
   <g id="line2d_1">
    <path d="M 63.129359 100.568275 
L 165.04312 115.022798 
L 266.95688 129.477322 
" clip-path="url(#p149fc1e3ea)" style="fill: none; stroke-dasharray: 5.55,2.4; stroke-dashoffset: 0; stroke: #ced4da; stroke-width: 1.5"/>
   </g>
   <g id="line2d_2">
    <path d="M 165.04312 115.022798 
L 266.95688 129.477322 
L 368.870641 143.931845 
" clip-path="url(#p149fc1e3ea)" style="fill: none; stroke-dasharray: 5.55,2.4; stroke-dashoffset: 0; stroke: #ced4da; stroke-width: 1.5"/>
   </g>
   <g id="line2d_3">
    <path d="M 63.129359 208.977202 
L 165.04312 223.431725 
L 266.95688 237.886249 
" clip-path="url(#p149fc1e3ea)" style="fill: none; stroke-dasharray: 5.55,2.4; stroke-dashoffset: 0; stroke: #ced4da; stroke-width: 1.5"/>
   </g>
   <g id="line2d_4">
    <path d="M 165.04312 223.431725 
L 266.95688 237.886249 
L 368.870641 252.340773 
" clip-path="url(#p149fc1e3ea)" style="fill: none; stroke-dasharray: 5.55,2.4; stroke-dashoffset: 0; stroke: #ced4da; stroke-width: 1.5"/>
   </g>
   <g id="text_1">
    <!-- 5 -->
    <g style="fill: #212529" transform="translate(59.311859 173.047086) scale(0.12 -0.12)">
     <defs>
      <path id="DejaVuSans-35" d="M 691 4666 
L 3169 4666 
L 3169 4134 
L 1269 4134 
L 1269 2991 
Q 1406 3038 1543 3061 
Q 1681 3084 1819 3084 
Q 2600 3084 3056 2656 
Q 3513 2228 3513 1497 
Q 3513 744 3044 326 
Q 2575 -91 1722 -91 
Q 1428 -91 1123 -41 
Q 819 9 494 109 
L 494 744 
Q 775 591 1075 516 
Q 1375 441 1709 441 
Q 2250 441 2565 725 
Q 2881 1009 2881 1497 
Q 2881 1984 2565 2268 
Q 2250 2553 1709 2553 
Q 1456 2553 1204 2497 
Q 953 2441 691 2322 
L 691 4666 
z
" transform="scale(0.015625)"/>
     </defs>
     <use xlink:href="#DejaVuSans-35"/>
    </g>
    <!-- 3 -->
    <g style="fill: #212529" transform="translate(59.311859 186.484461) scale(0.12 -0.12)">
     <defs>
      <path id="DejaVuSans-33" d="M 2597 2516 
Q 3050 2419 3304 2112 
Q 3559 1806 3559 1356 
Q 3559 666 3084 287 
Q 2609 -91 1734 -91 
Q 1441 -91 1130 -33 
Q 819 25 488 141 
L 488 750 
Q 750 597 1062 519 
Q 1375 441 1716 441 
Q 2309 441 2620 675 
Q 2931 909 2931 1356 
Q 2931 1769 2642 2001 
Q 2353 2234 1838 2234 
L 1294 2234 
L 1294 2753 
L 1863 2753 
Q 2328 2753 2575 2939 
Q 2822 3125 2822 3475 
Q 2822 3834 2567 4026 
Q 2313 4219 1838 4219 
Q 1578 4219 1281 4162 
Q 984 4106 628 3988 
L 628 4550 
Q 988 4650 1302 4700 
Q 1616 4750 1894 4750 
Q 2613 4750 3031 4423 
Q 3450 4097 3450 3541 
Q 3450 3153 3228 2886 
Q 3006 2619 2597 2516 
z
" transform="scale(0.015625)"/>
     </defs>
     <use xlink:href="#DejaVuSans-33"/>
    </g>
   </g>
   <g id="text_2">
    <!-- 6 -->
    <g style="fill: #212529" transform="translate(161.22562 173.047086) scale(0.12 -0.12)">
     <defs>
      <path id="DejaVuSans-36" d="M 2113 2584 
Q 1688 2584 1439 2293 
Q 1191 2003 1191 1497 
Q 1191 994 1439 701 
Q 1688 409 2113 409 
Q 2538 409 2786 701 
Q 3034 994 3034 1497 
Q 3034 2003 2786 2293 
Q 2538 2584 2113 2584 
z
M 3366 4563 
L 3366 3988 
Q 3128 4100 2886 4159 
Q 2644 4219 2406 4219 
Q 1781 4219 1451 3797 
Q 1122 3375 1075 2522 
Q 1259 2794 1537 2939 
Q 1816 3084 2150 3084 
Q 2853 3084 3261 2657 
Q 3669 2231 3669 1497 
Q 3669 778 3244 343 
Q 2819 -91 2113 -91 
Q 1303 -91 875 529 
Q 447 1150 447 2328 
Q 447 3434 972 4092 
Q 1497 4750 2381 4750 
Q 2619 4750 2861 4703 
Q 3103 4656 3366 4563 
z
" transform="scale(0.015625)"/>
     </defs>
     <use xlink:href="#DejaVuSans-36"/>
    </g>
    <!-- 3 -->
    <g style="fill: #212529" transform="translate(161.22562 186.484461) scale(0.12 -0.12)">
     <use xlink:href="#DejaVuSans-33"/>
    </g>
   </g>
   <g id="text_3">
    <!-- 7-6 -->
    <g style="fill: #212529" transform="translate(257.157193 173.047086) scale(0.12 -0.12)">
     <defs>
      <path id="DejaVuSans-37" d="M 525 4666 
L 3525 4666 
L 3525 4397 
L 1831 0 
L 1172 0 
L 2766 4134 
L 525 4134 
L 525 4666 
z
" transform="scale(0.015625)"/>
      <path id="DejaVuSans-2d" d="M 313 2009 
L 1997 2009 
L 1997 1497 
L 313 1497 
L 313 2009 
z
" transform="scale(0.015625)"/>
     </defs>
     <use xlink:href="#DejaVuSans-37"/>
     <use xlink:href="#DejaVuSans-2d" x="63.623047"/>
     <use xlink:href="#DejaVuSans-36" x="99.707031"/>
    </g>
    <!-- 3 -->
    <g style="fill: #212529" transform="translate(263.13938 186.484461) scale(0.12 -0.12)">
     <use xlink:href="#DejaVuSans-33"/>
    </g>
   </g>
   <g id="text_4">
    <!-- 5 -->
    <g style="fill: #212529" transform="translate(365.053141 173.047086) scale(0.12 -0.12)">
     <use xlink:href="#DejaVuSans-35"/>
    </g>
    <!-- 3 -->
    <g style="fill: #212529" transform="translate(365.053141 186.484461) scale(0.12 -0.12)">
     <use xlink:href="#DejaVuSans-33"/>
    </g>
   </g>
   <g id="text_5">
    <!-- Strong -->
    <g style="fill: #212529" transform="translate(43.353734 74.970477) scale(0.12 -0.12)">
     <defs>
      <path id="DejaVuSans-53" d="M 3425 4513 
L 3425 3897 
Q 3066 4069 2747 4153 
Q 2428 4238 2131 4238 
Q 1616 4238 1336 4038 
Q 1056 3838 1056 3469 
Q 1056 3159 1242 3001 
Q 1428 2844 1947 2747 
L 2328 2669 
Q 3034 2534 3370 2195 
Q 3706 1856 3706 1288 
Q 3706 609 3251 259 
Q 2797 -91 1919 -91 
Q 1588 -91 1214 -16 
Q 841 59 441 206 
L 441 856 
Q 825 641 1194 531 
Q 1563 422 1919 422 
Q 2459 422 2753 634 
Q 3047 847 3047 1241 
Q 3047 1584 2836 1778 
Q 2625 1972 2144 2069 
L 1759 2144 
Q 1053 2284 737 2584 
Q 422 2884 422 3419 
Q 422 4038 858 4394 
Q 1294 4750 2059 4750 
Q 2388 4750 2728 4690 
Q 3069 4631 3425 4513 
z
" transform="scale(0.015625)"/>
      <path id="DejaVuSans-74" d="M 1172 4494 
L 1172 3500 
L 2356 3500 
L 2356 3053 
L 1172 3053 
L 1172 1153 
Q 1172 725 1289 603 
Q 1406 481 1766 481 
L 2356 481 
L 2356 0 
L 1766 0 
Q 1100 0 847 248 
Q 594 497 594 1153 
L 594 3053 
L 172 3053 
L 172 3500 
L 594 3500 
L 594 4494 
L 1172 4494 
z
" transform="scale(0.015625)"/>
      <path id="DejaVuSans-72" d="M 2631 2963 
Q 2534 3019 2420 3045 
Q 2306 3072 2169 3072 
Q 1681 3072 1420 2755 
Q 1159 2438 1159 1844 
L 1159 0 
L 581 0 
L 581 3500 
L 1159 3500 
L 1159 2956 
Q 1341 3275 1631 3429 
Q 1922 3584 2338 3584 
Q 2397 3584 2469 3576 
Q 2541 3569 2628 3553 
L 2631 2963 
z
" transform="scale(0.015625)"/>
      <path id="DejaVuSans-6f" d="M 1959 3097 
Q 1497 3097 1228 2736 
Q 959 2375 959 1747 
Q 959 1119 1226 758 
Q 1494 397 1959 397 
Q 2419 397 2687 759 
Q 2956 1122 2956 1747 
Q 2956 2369 2687 2733 
Q 2419 3097 1959 3097 
z
M 1959 3584 
Q 2709 3584 3137 3096 
Q 3566 2609 3566 1747 
Q 3566 888 3137 398 
Q 2709 -91 1959 -91 
Q 1206 -91 779 398 
Q 353 888 353 1747 
Q 353 2609 779 3096 
Q 1206 3584 1959 3584 
z
" transform="scale(0.015625)"/>
      <path id="DejaVuSans-6e" d="M 3513 2113 
L 3513 0 
L 2938 0 
L 2938 2094 
Q 2938 2591 2744 2837 
Q 2550 3084 2163 3084 
Q 1697 3084 1428 2787 
Q 1159 2491 1159 1978 
L 1159 0 
L 581 0 
L 581 3500 
L 1159 3500 
L 1159 2956 
Q 1366 3272 1645 3428 
Q 1925 3584 2291 3584 
Q 2894 3584 3203 3211 
Q 3513 2838 3513 2113 
z
" transform="scale(0.015625)"/>
      <path id="DejaVuSans-67" d="M 2906 1791 
Q 2906 2416 2648 2759 
Q 2391 3103 1925 3103 
Q 1463 3103 1205 2759 
Q 947 2416 947 1791 
Q 947 1169 1205 825 
Q 1463 481 1925 481 
Q 2391 481 2648 825 
Q 2906 1169 2906 1791 
z
M 3481 434 
Q 3481 -459 3084 -895 
Q 2688 -1331 1869 -1331 
Q 1566 -1331 1297 -1286 
Q 1028 -1241 775 -1147 
L 775 -588 
Q 1028 -725 1275 -790 
Q 1522 -856 1778 -856 
Q 2344 -856 2625 -561 
Q 2906 -266 2906 331 
L 2906 616 
Q 2728 306 2450 153 
Q 2172 0 1784 0 
Q 1141 0 747 490 
Q 353 981 353 1791 
Q 353 2603 747 3093 
Q 1141 3584 1784 3584 
Q 2172 3584 2450 3431 
Q 2728 3278 2906 2969 
L 2906 3500 
L 3481 3500 
L 3481 434 
z
" transform="scale(0.015625)"/>
     </defs>
     <use xlink:href="#DejaVuSans-53"/>
     <use xlink:href="#DejaVuSans-74" x="63.476562"/>
     <use xlink:href="#DejaVuSans-72" x="102.685547"/>
     <use xlink:href="#DejaVuSans-6f" x="141.548828"/>
     <use xlink:href="#DejaVuSans-6e" x="202.730469"/>
     <use xlink:href="#DejaVuSans-67" x="266.109375"/>
    </g>
   </g>
   <g id="text_6">
    <!-- Weak -->
    <g style="fill: #212529" transform="translate(148.619995 74.970477) scale(0.12 -0.12)">
     <defs>
      <path id="DejaVuSans-57" d="M 213 4666 
L 850 4666 
L 1831 722 
L 2809 4666 
L 3519 4666 
L 4500 722 
L 5478 4666 
L 6119 4666 
L 4947 0 
L 4153 0 
L 3169 4050 
L 2175 0 
L 1381 0 
L 213 4666 
z
" transform="scale(0.015625)"/>
      <path id="DejaVuSans-65" d="M 3597 1894 
L 3597 1613 
L 953 1613 
Q 991 1019 1311 708 
Q 1631 397 2203 397 
Q 2534 397 2845 478 
Q 3156 559 3463 722 
L 3463 178 
Q 3153 47 2828 -22 
Q 2503 -91 2169 -91 
Q 1331 -91 842 396 
Q 353 884 353 1716 
Q 353 2575 817 3079 
Q 1281 3584 2069 3584 
Q 2775 3584 3186 3129 
Q 3597 2675 3597 1894 
z
M 3022 2063 
Q 3016 2534 2758 2815 
Q 2500 3097 2075 3097 
Q 1594 3097 1305 2825 
Q 1016 2553 972 2059 
L 3022 2063 
z
" transform="scale(0.015625)"/>
      <path id="DejaVuSans-61" d="M 2194 1759 
Q 1497 1759 1228 1600 
Q 959 1441 959 1056 
Q 959 750 1161 570 
Q 1363 391 1709 391 
Q 2188 391 2477 730 
Q 2766 1069 2766 1631 
L 2766 1759 
L 2194 1759 
z
M 3341 1997 
L 3341 0 
L 2766 0 
L 2766 531 
Q 2569 213 2275 61 
Q 1981 -91 1556 -91 
Q 1019 -91 701 211 
Q 384 513 384 1019 
Q 384 1609 779 1909 
Q 1175 2209 1959 2209 
L 2766 2209 
L 2766 2266 
Q 2766 2663 2505 2880 
Q 2244 3097 1772 3097 
Q 1472 3097 1187 3025 
Q 903 2953 641 2809 
L 641 3341 
Q 956 3463 1253 3523 
Q 1550 3584 1831 3584 
Q 2591 3584 2966 3190 
Q 3341 2797 3341 1997 
z
" transform="scale(0.015625)"/>
      <path id="DejaVuSans-6b" d="M 581 4863 
L 1159 4863 
L 1159 1991 
L 2875 3500 
L 3609 3500 
L 1753 1863 
L 3688 0 
L 2938 0 
L 1159 1709 
L 1159 0 
L 581 0 
L 581 4863 
z
" transform="scale(0.015625)"/>
     </defs>
     <use xlink:href="#DejaVuSans-57"/>
     <use xlink:href="#DejaVuSans-65" x="93.001953"/>
     <use xlink:href="#DejaVuSans-61" x="154.525391"/>
     <use xlink:href="#DejaVuSans-6b" x="215.804688"/>
    </g>
   </g>
   <g id="text_7">
    <!-- Strong -->
    <g style="fill: #212529" transform="translate(247.181255 74.970477) scale(0.12 -0.12)">
     <use xlink:href="#DejaVuSans-53"/>
     <use xlink:href="#DejaVuSans-74" x="63.476562"/>
     <use xlink:href="#DejaVuSans-72" x="102.685547"/>
     <use xlink:href="#DejaVuSans-6f" x="141.548828"/>
     <use xlink:href="#DejaVuSans-6e" x="202.730469"/>
     <use xlink:href="#DejaVuSans-67" x="266.109375"/>
    </g>
   </g>
   <g id="text_8">
    <!-- Weak -->
    <g style="fill: #212529" transform="translate(352.447516 74.970477) scale(0.12 -0.12)">
     <use xlink:href="#DejaVuSans-57"/>
     <use xlink:href="#DejaVuSans-65" x="93.001953"/>
     <use xlink:href="#DejaVuSans-61" x="154.525391"/>
     <use xlink:href="#DejaVuSans-6b" x="215.804688"/>
    </g>
   </g>
   <g id="PathCollection_1">
    <defs>
     <path id="m0d1772d8c1" d="M 0 7.071068 
C 1.875269 7.071068 3.673985 6.326016 5 5 
C 6.326016 3.673985 7.071068 1.875269 7.071068 0 
C 7.071068 -1.875269 6.326016 -3.673985 5 -5 
C 3.673985 -6.326016 1.875269 -7.071068 0 -7.071068 
C -1.875269 -7.071068 -3.673985 -6.326016 -5 -5 
C -6.326016 -3.673985 -7.071068 -1.875269 -7.071068 0 
C -7.071068 1.875269 -6.326016 3.673985 -5 5 
C -3.673985 6.326016 -1.875269 7.071068 0 7.071068 
z
" style="stroke: #e9ecef"/>
    </defs>
    <g clip-path="url(#p149fc1e3ea)">
     <use xlink:href="#m0d1772d8c1" x="63.129359" y="100.568275" style="fill: #e9ecef; stroke: #e9ecef"/>
     <use xlink:href="#m0d1772d8c1" x="165.04312" y="115.022798" style="fill: #e9ecef; stroke: #e9ecef"/>
     <use xlink:href="#m0d1772d8c1" x="266.95688" y="129.477322" style="fill: #e9ecef; stroke: #e9ecef"/>
     <use xlink:href="#m0d1772d8c1" x="368.870641" y="143.931845" style="fill: #e9ecef; stroke: #e9ecef"/>
    </g>
   </g>
   <g id="PathCollection_2">
    <g clip-path="url(#p149fc1e3ea)">
     <use xlink:href="#m0d1772d8c1" x="63.129359" y="208.977202" style="fill: #e9ecef; stroke: #e9ecef"/>
     <use xlink:href="#m0d1772d8c1" x="165.04312" y="223.431725" style="fill: #e9ecef; stroke: #e9ecef"/>
     <use xlink:href="#m0d1772d8c1" x="266.95688" y="237.886249" style="fill: #e9ecef; stroke: #e9ecef"/>
     <use xlink:href="#m0d1772d8c1" x="368.870641" y="252.340773" style="fill: #e9ecef; stroke: #e9ecef"/>
    </g>
   </g>
   <g id="text_9">
    <!-- ➏ -->
    <g style="fill: #212529" transform="translate(57.095984 104.541775) scale(0.144 -0.144)">
     <defs>
      <path id="DejaVuSans-278f" d="M 2650 2534 
Q 2991 2534 3189 2301 
Q 3388 2069 3388 1663 
Q 3388 1263 3189 1028 
Q 2991 794 2650 794 
Q 2313 794 2113 1028 
Q 1913 1263 1913 1663 
Q 1913 2069 2113 2301 
Q 2313 2534 2650 2534 
z
M 3653 4116 
Q 3444 4191 3250 4228 
Q 3056 4266 2866 4266 
Q 2159 4266 1739 3739 
Q 1319 3213 1319 2328 
Q 1319 1388 1661 891 
Q 2003 394 2650 394 
Q 3216 394 3556 741 
Q 3897 1088 3897 1663 
Q 3897 2250 3570 2592 
Q 3244 2934 2681 2934 
Q 2413 2934 2191 2817 
Q 1969 2700 1822 2484 
Q 1859 3166 2123 3503 
Q 2388 3841 2888 3841 
Q 3075 3841 3269 3794 
Q 3463 3747 3653 3656 
L 3653 4116 
z
M 1663 4791 
Q 2138 4991 2681 4991 
Q 3225 4991 3700 4791 
Q 4169 4597 4556 4206 
Q 4950 3813 5142 3344 
Q 5334 2875 5334 2322 
Q 5334 1784 5142 1315 
Q 4950 847 4556 453 
Q 4169 63 3700 -131 
Q 3225 -331 2681 -331 
Q 2138 -331 1663 -131 
Q 1194 63 806 453 
Q 413 847 220 1315 
Q 28 1784 28 2322 
Q 28 2875 220 3344 
Q 413 3813 806 4206 
Q 1194 4597 1663 4791 
z
" transform="scale(0.015625)"/>
     </defs>
     <use xlink:href="#DejaVuSans-278f"/>
    </g>
   </g>
   <g id="text_10">
    <!-- ➎ -->
    <g style="fill: #212529" transform="translate(159.009745 118.996298) scale(0.144 -0.144)">
     <defs>
      <path id="DejaVuSans-278e" d="M 1691 4191 
L 1691 2316 
Q 1900 2409 2101 2454 
Q 2303 2500 2506 2500 
Q 2938 2500 3191 2272 
Q 3444 2044 3444 1656 
Q 3444 1266 3191 1037 
Q 2938 809 2506 809 
Q 2238 809 1998 870 
Q 1759 931 1534 1053 
L 1534 544 
Q 1794 466 2037 425 
Q 2281 384 2516 384 
Q 3197 384 3572 718 
Q 3947 1053 3947 1656 
Q 3947 2241 3583 2583 
Q 3219 2925 2594 2925 
Q 2484 2925 2373 2906 
Q 2263 2888 2153 2850 
L 2153 3766 
L 3672 3766 
L 3672 4191 
L 1691 4191 
z
M 1663 4791 
Q 2138 4991 2681 4991 
Q 3225 4991 3700 4791 
Q 4169 4597 4556 4206 
Q 4950 3813 5142 3344 
Q 5334 2875 5334 2322 
Q 5334 1784 5142 1315 
Q 4950 847 4556 453 
Q 4169 63 3700 -131 
Q 3225 -331 2681 -331 
Q 2138 -331 1663 -131 
Q 1194 63 806 453 
Q 413 847 220 1315 
Q 28 1784 28 2322 
Q 28 2875 220 3344 
Q 413 3813 806 4206 
Q 1194 4597 1663 4791 
z
" transform="scale(0.015625)"/>
     </defs>
     <use xlink:href="#DejaVuSans-278e"/>
    </g>
   </g>
   <g id="text_11">
    <!-- ➍ -->
    <g style="fill: #212529" transform="translate(260.923505 133.450822) scale(0.144 -0.144)">
     <defs>
      <path id="DejaVuSans-278d" d="M 2888 3759 
L 2888 1766 
L 1613 1766 
L 2888 3759 
z
M 2756 4200 
L 1203 1834 
L 1203 1347 
L 2888 1347 
L 2888 466 
L 3391 466 
L 3391 1347 
L 3922 1347 
L 3922 1766 
L 3391 1766 
L 3391 4200 
L 2756 4200 
z
M 1663 4791 
Q 2138 4991 2681 4991 
Q 3225 4991 3700 4791 
Q 4169 4597 4556 4206 
Q 4950 3813 5142 3344 
Q 5334 2875 5334 2322 
Q 5334 1784 5142 1315 
Q 4950 847 4556 453 
Q 4169 63 3700 -131 
Q 3225 -331 2681 -331 
Q 2138 -331 1663 -131 
Q 1194 63 806 453 
Q 413 847 220 1315 
Q 28 1784 28 2322 
Q 28 2875 220 3344 
Q 413 3813 806 4206 
Q 1194 4597 1663 4791 
z
" transform="scale(0.015625)"/>
     </defs>
     <use xlink:href="#DejaVuSans-278d"/>
    </g>
   </g>
   <g id="text_12">
    <!-- ➌ -->
    <g style="fill: #212529" transform="translate(362.837266 147.905345) scale(0.144 -0.144)">
     <defs>
      <path id="DejaVuSans-278c" d="M 3219 2478 
Q 3547 2563 3725 2775 
Q 3903 2988 3903 3300 
Q 3903 3744 3567 4005 
Q 3231 4266 2656 4266 
Q 2434 4266 2182 4227 
Q 1931 4188 1644 4106 
L 1644 3656 
Q 1931 3750 2168 3795 
Q 2406 3841 2613 3841 
Q 2994 3841 3197 3687 
Q 3400 3534 3400 3247 
Q 3400 2966 3203 2817 
Q 3006 2669 2631 2669 
L 2178 2669 
L 2178 2253 
L 2613 2253 
Q 3025 2253 3256 2067 
Q 3488 1881 3488 1550 
Q 3488 1194 3239 1006 
Q 2991 819 2516 819 
Q 2244 819 1994 881 
Q 1744 944 1531 1066 
L 1531 578 
Q 1797 488 2045 441 
Q 2294 394 2531 394 
Q 3231 394 3611 697 
Q 3991 1000 3991 1550 
Q 3991 1913 3786 2156 
Q 3581 2400 3219 2478 
z
M 1663 4791 
Q 2138 4991 2681 4991 
Q 3225 4991 3700 4791 
Q 4169 4597 4556 4206 
Q 4950 3813 5142 3344 
Q 5334 2875 5334 2322 
Q 5334 1784 5142 1315 
Q 4950 847 4556 453 
Q 4169 63 3700 -131 
Q 3225 -331 2681 -331 
Q 2138 -331 1663 -131 
Q 1194 63 806 453 
Q 413 847 220 1315 
Q 28 1784 28 2322 
Q 28 2875 220 3344 
Q 413 3813 806 4206 
Q 1194 4597 1663 4791 
z
" transform="scale(0.015625)"/>
     </defs>
     <use xlink:href="#DejaVuSans-278c"/>
    </g>
   </g>
   <g id="text_13">
    <!-- ➃ -->
    <g style="fill: #212529" transform="translate(57.095984 212.950702) scale(0.144 -0.144)">
     <defs>
      <path id="DejaVuSans-2783" d="M 3581 4500 
Q 3163 4678 2681 4678 
Q 2200 4678 1781 4500 
Q 1369 4331 1028 3984 
Q 681 3638 511 3223 
Q 341 2809 341 2322 
Q 341 1850 511 1436 
Q 681 1022 1028 675 
Q 1369 328 1781 159 
Q 2200 -19 2681 -19 
Q 3163 -19 3581 159 
Q 3994 328 4334 675 
Q 4681 1022 4851 1436 
Q 5022 1850 5022 2322 
Q 5022 2809 4851 3223 
Q 4681 3638 4334 3984 
Q 3994 4331 3581 4500 
z
M 2888 3759 
L 1613 1766 
L 2888 1766 
L 2888 3759 
z
M 2756 4200 
L 3391 4200 
L 3391 1766 
L 3922 1766 
L 3922 1347 
L 3391 1347 
L 3391 466 
L 2888 466 
L 2888 1347 
L 1203 1347 
L 1203 1834 
L 2756 4200 
z
M 1663 4791 
Q 2138 4991 2681 4991 
Q 3225 4991 3700 4791 
Q 4169 4597 4556 4206 
Q 4950 3813 5142 3344 
Q 5334 2875 5334 2322 
Q 5334 1784 5142 1315 
Q 4950 847 4556 453 
Q 4169 63 3700 -131 
Q 3225 -331 2681 -331 
Q 2138 -331 1663 -131 
Q 1194 63 806 453 
Q 413 847 220 1315 
Q 28 1784 28 2322 
Q 28 2875 220 3344 
Q 413 3813 806 4206 
Q 1194 4597 1663 4791 
z
" transform="scale(0.015625)"/>
     </defs>
     <use xlink:href="#DejaVuSans-2783"/>
    </g>
   </g>
   <g id="text_14">
    <!-- ➂ -->
    <g style="fill: #212529" transform="translate(159.009745 227.405225) scale(0.144 -0.144)">
     <defs>
      <path id="DejaVuSans-2782" d="M 3581 4500 
Q 3163 4678 2681 4678 
Q 2200 4678 1781 4500 
Q 1369 4331 1028 3984 
Q 681 3638 511 3223 
Q 341 2809 341 2322 
Q 341 1850 511 1436 
Q 681 1022 1028 675 
Q 1369 328 1781 159 
Q 2200 -19 2681 -19 
Q 3163 -19 3581 159 
Q 3994 328 4334 675 
Q 4681 1022 4851 1436 
Q 5022 1850 5022 2322 
Q 5022 2809 4851 3223 
Q 4681 3638 4334 3984 
Q 3994 4331 3581 4500 
z
M 3219 2478 
Q 3581 2400 3786 2156 
Q 3991 1913 3991 1550 
Q 3991 1000 3611 697 
Q 3231 394 2531 394 
Q 2294 394 2045 441 
Q 1797 488 1531 578 
L 1531 1066 
Q 1744 944 1994 881 
Q 2244 819 2516 819 
Q 2991 819 3239 1006 
Q 3488 1194 3488 1550 
Q 3488 1881 3256 2067 
Q 3025 2253 2613 2253 
L 2178 2253 
L 2178 2669 
L 2631 2669 
Q 3006 2669 3203 2817 
Q 3400 2966 3400 3247 
Q 3400 3534 3197 3687 
Q 2994 3841 2613 3841 
Q 2406 3841 2168 3795 
Q 1931 3750 1644 3656 
L 1644 4106 
Q 1900 4178 2167 4222 
Q 2434 4266 2656 4266 
Q 3238 4266 3570 4005 
Q 3903 3744 3903 3300 
Q 3903 2988 3725 2775 
Q 3547 2563 3219 2478 
z
M 1663 4791 
Q 2138 4991 2681 4991 
Q 3225 4991 3700 4791 
Q 4169 4597 4556 4206 
Q 4950 3813 5142 3344 
Q 5334 2875 5334 2322 
Q 5334 1784 5142 1315 
Q 4950 847 4556 453 
Q 4169 63 3700 -131 
Q 3225 -331 2681 -331 
Q 2138 -331 1663 -131 
Q 1194 63 806 453 
Q 413 847 220 1315 
Q 28 1784 28 2322 
Q 28 2875 220 3344 
Q 413 3813 806 4206 
Q 1194 4597 1663 4791 
z
" transform="scale(0.015625)"/>
     </defs>
     <use xlink:href="#DejaVuSans-2782"/>
    </g>
   </g>
   <g id="text_15">
    <!-- ➁ -->
    <g style="fill: #212529" transform="translate(260.923505 241.859749) scale(0.144 -0.144)">
     <defs>
      <path id="DejaVuSans-2781" d="M 3581 4500 
Q 3163 4678 2681 4678 
Q 2200 4678 1781 4500 
Q 1369 4331 1028 3984 
Q 681 3638 511 3223 
Q 341 2809 341 2322 
Q 341 1850 511 1436 
Q 681 1022 1028 675 
Q 1369 328 1781 159 
Q 2200 -19 2681 -19 
Q 3163 -19 3581 159 
Q 3994 328 4334 675 
Q 4681 1022 4851 1436 
Q 5022 1850 5022 2322 
Q 5022 2809 4851 3223 
Q 4681 3638 4334 3984 
Q 3994 4331 3581 4500 
z
M 2109 900 
L 3872 900 
L 3872 475 
L 1503 475 
L 1503 900 
Q 1791 1197 2286 1698 
Q 2781 2200 2909 2344 
Q 3153 2619 3248 2806 
Q 3344 2994 3344 3178 
Q 3344 3475 3136 3662 
Q 2928 3850 2594 3850 
Q 2344 3850 2086 3767 
Q 1828 3684 1528 3519 
L 1528 4028 
Q 1831 4150 2097 4212 
Q 2363 4275 2581 4275 
Q 3163 4275 3508 3984 
Q 3853 3694 3853 3209 
Q 3853 2981 3767 2775 
Q 3681 2569 3453 2288 
Q 3391 2216 3055 1869 
Q 2719 1522 2109 900 
z
M 1663 4791 
Q 2138 4991 2681 4991 
Q 3225 4991 3700 4791 
Q 4169 4597 4556 4206 
Q 4950 3813 5142 3344 
Q 5334 2875 5334 2322 
Q 5334 1784 5142 1315 
Q 4950 847 4556 453 
Q 4169 63 3700 -131 
Q 3225 -331 2681 -331 
Q 2138 -331 1663 -131 
Q 1194 63 806 453 
Q 413 847 220 1315 
Q 28 1784 28 2322 
Q 28 2875 220 3344 
Q 413 3813 806 4206 
Q 1194 4597 1663 4791 
z
" transform="scale(0.015625)"/>
     </defs>
     <use xlink:href="#DejaVuSans-2781"/>
    </g>
   </g>
   <g id="text_16">
    <!-- ➀ -->
    <g style="fill: #212529" transform="translate(362.837266 256.314273) scale(0.144 -0.144)">
     <defs>
      <path id="DejaVuSans-2780" d="M 3581 4500 
Q 3163 4678 2681 4678 
Q 2200 4678 1781 4500 
Q 1369 4331 1028 3984 
Q 681 3638 511 3223 
Q 341 2809 341 2322 
Q 341 1850 511 1436 
Q 681 1022 1028 675 
Q 1369 328 1781 159 
Q 2200 -19 2681 -19 
Q 3163 -19 3581 159 
Q 3994 328 4334 675 
Q 4681 1022 4851 1436 
Q 5022 1850 5022 2322 
Q 5022 2809 4851 3223 
Q 4681 3638 4334 3984 
Q 3994 4331 3581 4500 
z
M 1697 891 
L 2522 891 
L 2522 3738 
L 1625 3559 
L 1625 4019 
L 2519 4200 
L 3022 4200 
L 3022 891 
L 3847 891 
L 3847 466 
L 1697 466 
L 1697 891 
z
M 1663 4791 
Q 2138 4991 2681 4991 
Q 3225 4991 3700 4791 
Q 4169 4597 4556 4206 
Q 4950 3813 5142 3344 
Q 5334 2875 5334 2322 
Q 5334 1784 5142 1315 
Q 4950 847 4556 453 
Q 4169 63 3700 -131 
Q 3225 -331 2681 -331 
Q 2138 -331 1663 -131 
Q 1194 63 806 453 
Q 413 847 220 1315 
Q 28 1784 28 2322 
Q 28 2875 220 3344 
Q 413 3813 806 4206 
Q 1194 4597 1663 4791 
z
" transform="scale(0.015625)"/>
     </defs>
     <use xlink:href="#DejaVuSans-2780"/>
    </g>
   </g>
  </g>
 </g>
 <defs>
  <clipPath id="p149fc1e3ea">
   <rect x="3.00024" y="3.00024" width="425.99952" height="317.99952"/>
  </clipPath>
 </defs>
</svg>
