<svg xmlns="http://www.w3.org/2000/svg" xmlns:xlink="http://www.w3.org/1999/xlink" version="1.2" width="75.47mm" height="47.18mm" viewBox="0.0000 -0.0000 42.9452 26.8467">
<style type="text/css">
<![CDATA[
tspan { white-space: pre; }
]]>
</style>
<g transform="translate(5.6906, 11.6505)">
<line stroke-linejoin="round" stroke-linecap="round" stroke-width="0.1000" stroke="currentColor" x1="0.0500" y1="0" x2="30.3417" y2="0"/>
</g>
<g transform="translate(5.6906, 10.6505)">
<line stroke-linejoin="round" stroke-linecap="round" stroke-width="0.1000" stroke="currentColor" x1="0.0500" y1="0" x2="30.3417" y2="0"/>
</g>
<g transform="translate(5.6906, 9.6505)">
<line stroke-linejoin="round" stroke-linecap="round" stroke-width="0.1000" stroke="currentColor" x1="0.0500" y1="0" x2="30.3417" y2="0"/>
</g>
<g transform="translate(5.6906, 8.6505)">
<line stroke-linejoin="round" stroke-linecap="round" stroke-width="0.1000" stroke="currentColor" x1="0.0500" y1="0" x2="30.3417" y2="0"/>
</g>
<g transform="translate(5.6906, 7.6505)">
<line stroke-linejoin="round" stroke-linecap="round" stroke-width="0.1000" stroke="currentColor" x1="0.0500" y1="0" x2="30.3417" y2="0"/>
</g>
<g transform="translate(35.8923, 3.8453)">
<rect x="0.0000" y="7.8552" width="0.1900" height="4.9500" ry="0.0000" fill="currentColor"/>
</g>
<g transform="translate(5.6906, 20.6505)">
<line stroke-linejoin="round" stroke-linecap="round" stroke-width="0.1000" stroke="currentColor" x1="0.0500" y1="0" x2="30.3417" y2="0"/>
</g>
<g transform="translate(5.6906, 19.6505)">
<line stroke-linejoin="round" stroke-linecap="round" stroke-width="0.1000" stroke="currentColor" x1="0.0500" y1="0" x2="30.3417" y2="0"/>
</g>
<g transform="translate(5.6906, 18.6505)">
<line stroke-linejoin="round" stroke-linecap="round" stroke-width="0.1000" stroke="currentColor" x1="0.0500" y1="0" x2="30.3417" y2="0"/>
</g>
<g transform="translate(5.6906, 17.6505)">
<line stroke-linejoin="round" stroke-linecap="round" stroke-width="0.1000" stroke="currentColor" x1="0.0500" y1="0" x2="30.3417" y2="0"/>
</g>
<g transform="translate(5.6906, 16.6505)">
<line stroke-linejoin="round" stroke-linecap="round" stroke-width="0.1000" stroke="currentColor" x1="0.0500" y1="0" x2="30.3417" y2="0"/>
</g>
<g transform="translate(35.8923, 18.6505)">
<rect x="0.0000" y="-2.0500" width="0.1900" height="4.0500" ry="0.0000" fill="currentColor"/>
</g>
<g transform="translate(35.8923, 9.6505)">
<rect x="0.0000" y="-2.0000" width="0.1900" height="4.0500" ry="0.0000" fill="currentColor"/>
</g>
<g transform="translate(5.3306, 14.1505)">
<path transform="scale(0.0040, -0.0040)" d="M-81 -366c0 255 -132 363 -132 366c0 18 132 96 132 366c0 261 -108 489 -108 780c0 189 45 366 177 501c15 15 39 -9 24 -24c-99 -99 -129 -225 -129 -360c0 -255 102 -480 102 -765c0 -186 -45 -363 -174 -498c129 -135 174 -312 174 -498c0 -285 -102 -510 -102 -765
c0 -135 30 -261 129 -360c15 -15 -9 -39 -24 -24c-132 135 -177 312 -177 501c0 291 108 519 108 780z" fill="currentColor"/>
</g>
<g transform="translate(5.6306, 14.1505)">
<rect x="0.0000" y="-6.5500" width="0.1600" height="13.1000" ry="0.0500" fill="currentColor"/>
</g>
<g transform="translate(25.8621, 21.3405)">
<polygon stroke-linejoin="round" stroke-linecap="round" stroke-width="0.0800" fill="currentColor" stroke="currentColor" points="7.8526 -0.2000 7.8526 0.2000 0.0400 0.2000 0.0400 -0.2000"/>
</g>
<g transform="translate(25.8621, 22.1505)">
<polygon stroke-linejoin="round" stroke-linecap="round" stroke-width="0.0800" fill="currentColor" stroke="currentColor" points="7.8526 -0.2000 7.8526 0.2000 0.0400 0.2000 0.0400 -0.2000"/>
</g>
<g transform="translate(25.8621, 11.4605)">
<polygon stroke-linejoin="round" stroke-linecap="round" stroke-width="0.0800" fill="currentColor" stroke="currentColor" points="5.0984 -0.0100 5.0984 0.3900 0.0400 0.2000 0.0400 -0.2000"/>
</g>
<g transform="translate(15.8453, 9.1505)">
<path transform="scale(0.0040, -0.0040)" d="M218 136c66 0 108 -36 108 -89c0 -89 -113 -183 -218 -183c-66 0 -108 36 -108 89c0 89 113 183 218 183z" fill="currentColor"/>
</g>
<g class="scale-degree">
<g transform="translate(15.8453, 6.5211)">
<text font-family="serif" font-size="2.2001" text-anchor="start" fill="currentColor">
<tspan>➍</tspan>
</text>
</g>
</g>
<g transform="translate(6.4906, 10.6505)">
<path transform="scale(0.0040, -0.0040)" d="M266 -635h-6c-108 0 -195 88 -195 197c0 58 53 103 112 103c54 0 95 -47 95 -103c0 -52 -43 -95 -95 -95c-11 0 -21 2 -31 6c26 -39 68 -65 117 -65h4zM461 -203c68 24 113 90 113 164c0 90 -66 179 -173 190c19 -89 48 -242 60 -354zM74 28c0 -145 141 -247 264 -247
c1 0 47 0 82 6c-7 64 -29 203 -63 364c-79 -8 -124 -61 -124 -119c0 -44 25 -91 81 -123c5 -5 7 -10 7 -15c0 -11 -10 -22 -22 -22c-15 0 -126 62 -126 187c0 88 58 174 160 197c-14 58 -29 117 -46 175c-107 -121 -213 -243 -213 -403zM250 553c-29 96 -52 170 -52 346
c0 115 55 224 149 292c6 5 14 5 20 0c68 -80 133 -245 133 -358c0 -143 -86 -255 -180 -364c21 -68 39 -138 56 -207c2 0 7 1 13 1c155 0 256 -128 256 -261c0 -113 -74 -212 -180 -246c3 -35 5 -70 5 -105c0 -19 -1 -39 -2 -58c-7 -119 -88 -225 -202 -228l1 43
c93 2 153 92 159 191c1 18 2 37 2 55c0 31 -1 61 -4 92c-5 -1 -44 -8 -89 -8c-193 0 -333 180 -333 374c0 177 131 306 248 441zM428 916c0 34 1 66 -20 129c-99 -48 -162 -149 -162 -259c0 -52 12 -115 36 -194c80 97 146 198 146 324z" fill="currentColor"/>
</g>
<g transform="translate(9.9906, 7.6505)">
<path transform="scale(0.0040, -0.0040)" d="M0 119c0 8 5 15 13 18l46 17v158c0 10 8 19 18 19s19 -9 19 -19v-145l83 31v158c0 10 9 19 19 19s18 -9 18 -19v-145l32 12c2 1 5 1 7 1c11 0 20 -9 20 -20v-60c0 -8 -5 -16 -13 -19l-46 -16v-160l32 11c2 1 5 1 7 1c11 0 20 -9 20 -20v-60c0 -8 -5 -15 -13 -18l-46 -17
v-158c0 -10 -8 -19 -18 -19s-19 9 -19 19v145l-83 -31v-158c0 -10 -9 -19 -19 -19s-18 9 -18 19v145l-32 -12c-2 -1 -5 -1 -7 -1c-11 0 -20 9 -20 20v60c0 8 5 16 13 19l46 16v160l-32 -11c-2 -1 -5 -1 -7 -1c-11 0 -20 9 -20 20v60zM179 95l-83 -30v-160l83 30v160z" fill="currentColor"/>
</g>
<g transform="translate(12.3088, 9.6505)">
<path transform="scale(0.0040, -0.0040)" d="M229 0c-88 0 -90 66 -144 66c-30 0 -59 -20 -62 -55c-1 -7 -6 -11 -11 -11c-6 0 -12 4 -12 11c0 154 232 170 232 344c0 59 -16 122 -67 122c-25 0 -49 -14 -49 -37c0 -27 35 -41 35 -68c0 -38 -31 -69 -69 -69s-69 31 -69 69c0 76 72 128 152 128c95 0 183 -57 183 -145
c0 -151 -150 -159 -246 -220c9 2 18 3 27 3c83 0 111 -59 171 -59c48 0 38 38 55 38c6 0 12 -5 12 -12c0 -22 -44 -105 -138 -105z" fill="currentColor"/>
</g>
<g transform="translate(12.2406, 11.6665)">
<path transform="scale(0.0040, -0.0040)" d="M196 117h117c0 -48 27 -94 72 -94c8 0 12 -5 12 -11s-4 -12 -12 -12c-44 0 -87 13 -131 13s-87 -13 -131 -13c-8 0 -12 6 -12 12s4 11 12 11c45 0 73 46 73 94zM-2 148c0 12 140 143 140 336c0 10 7 19 16 16c23 -7 47 -13 71 -13s48 6 71 13c14 4 23 -9 17 -16
l-284 -330h167v131c0 34 34 27 68 72c22 30 23 56 36 56c6 0 13 -5 13 -14v-245h72c10 0 15 -7 15 -14s-5 -15 -15 -15h-72v-8h-117v8h-167c-23 0 -31 14 -31 23z" fill="currentColor"/>
</g>
<g transform="translate(15.8453, 18.1505)">
<path transform="scale(0.0040, -0.0040)" d="M218 136c66 0 108 -36 108 -89c0 -89 -113 -183 -218 -183c-66 0 -108 36 -108 89c0 89 113 183 218 183z" fill="currentColor"/>
</g>
<g class="scale-degree">
<g transform="translate(15.8453, 23.7116)">
<text font-family="serif" font-size="2.2001" text-anchor="start" fill="currentColor">
<tspan>➅</tspan>
</text>
</g>
</g>
<g transform="translate(6.4906, 17.6505)">
<path transform="scale(0.0040, -0.0040)" d="M557 -125c0 28 23 51 51 51s51 -23 51 -51s-23 -51 -51 -51s-51 23 -51 51zM557 125c0 28 23 51 51 51s51 -23 51 -51s-23 -51 -51 -51s-51 23 -51 51zM232 263c172 0 293 -88 293 -251c0 -263 -263 -414 -516 -521c-3 -3 -6 -4 -9 -4c-7 0 -13 6 -13 13c0 3 1 6 4 9
c202 118 412 265 412 493c0 120 -63 235 -171 235c-74 0 -129 -54 -154 -126c11 5 22 8 34 8c55 0 100 -45 100 -100c0 -58 -44 -106 -100 -106c-60 0 -112 47 -112 106c0 133 102 244 232 244z" fill="currentColor"/>
</g>
<g transform="translate(9.9906, 17.6505)">
<path transform="scale(0.0040, -0.0040)" d="M0 119c0 8 5 15 13 18l46 17v158c0 10 8 19 18 19s19 -9 19 -19v-145l83 31v158c0 10 9 19 19 19s18 -9 18 -19v-145l32 12c2 1 5 1 7 1c11 0 20 -9 20 -20v-60c0 -8 -5 -16 -13 -19l-46 -16v-160l32 11c2 1 5 1 7 1c11 0 20 -9 20 -20v-60c0 -8 -5 -15 -13 -18l-46 -17
v-158c0 -10 -8 -19 -18 -19s-19 9 -19 19v145l-83 -31v-158c0 -10 -9 -19 -19 -19s-18 9 -18 19v145l-32 -12c-2 -1 -5 -1 -7 -1c-11 0 -20 9 -20 20v60c0 8 5 16 13 19l46 16v160l-32 -11c-2 -1 -5 -1 -7 -1c-11 0 -20 9 -20 20v60zM179 95l-83 -30v-160l83 30v160z" fill="currentColor"/>
</g>
<g transform="translate(12.3088, 18.6505)">
<path transform="scale(0.0040, -0.0040)" d="M229 0c-88 0 -90 66 -144 66c-30 0 -59 -20 -62 -55c-1 -7 -6 -11 -11 -11c-6 0 -12 4 -12 11c0 154 232 170 232 344c0 59 -16 122 -67 122c-25 0 -49 -14 -49 -37c0 -27 35 -41 35 -68c0 -38 -31 -69 -69 -69s-69 31 -69 69c0 76 72 128 152 128c95 0 183 -57 183 -145
c0 -151 -150 -159 -246 -220c9 2 18 3 27 3c83 0 111 -59 171 -59c48 0 38 38 55 38c6 0 12 -5 12 -12c0 -22 -44 -105 -138 -105z" fill="currentColor"/>
</g>
<g transform="translate(12.2406, 20.6665)">
<path transform="scale(0.0040, -0.0040)" d="M196 117h117c0 -48 27 -94 72 -94c8 0 12 -5 12 -11s-4 -12 -12 -12c-44 0 -87 13 -131 13s-87 -13 -131 -13c-8 0 -12 6 -12 12s4 11 12 11c45 0 73 46 73 94zM-2 148c0 12 140 143 140 336c0 10 7 19 16 16c23 -7 47 -13 71 -13s48 6 71 13c14 4 23 -9 17 -16
l-284 -330h167v131c0 34 34 27 68 72c22 30 23 56 36 56c6 0 13 -5 13 -14v-245h72c10 0 15 -7 15 -14s-5 -15 -15 -15h-72v-8h-117v8h-167c-23 0 -31 14 -31 23z" fill="currentColor"/>
</g>
<g transform="translate(15.9103, 9.6505)">
<rect x="-0.0650" y="-0.3139" width="0.1300" height="3.1263" ry="0.0400" fill="currentColor"/>
</g>
<g transform="translate(15.9103, 18.6505)">
<rect x="-0.0650" y="-0.3139" width="0.1300" height="3.1239" ry="0.0400" fill="currentColor"/>
</g>
<g transform="translate(15.8453, 20.6505)">
<polygon stroke-linejoin="round" stroke-linecap="round" stroke-width="0.0800" fill="currentColor" stroke="currentColor" points="7.8526 -0.2000 7.8526 0.2000 0.0400 0.2000 0.0400 -0.2000"/>
</g>
<g transform="translate(15.8453, 21.4605)">
<polygon stroke-linejoin="round" stroke-linecap="round" stroke-width="0.0800" fill="currentColor" stroke="currentColor" points="7.8526 -0.2000 7.8526 0.2000 0.0400 0.2000 0.0400 -0.2000"/>
</g>
<g transform="translate(18.5995, 17.1505)">
<path transform="scale(0.0040, -0.0040)" d="M218 136c66 0 108 -36 108 -89c0 -89 -113 -183 -218 -183c-66 0 -108 36 -108 89c0 89 113 183 218 183z" fill="currentColor"/>
</g>
<g transform="translate(18.6645, 18.6505)">
<rect x="-0.0650" y="-1.3139" width="0.1300" height="4.1239" ry="0.0400" fill="currentColor"/>
</g>
<g transform="translate(15.8453, 12.4605)">
<polygon stroke-linejoin="round" stroke-linecap="round" stroke-width="0.0800" fill="currentColor" stroke="currentColor" points="5.0984 -0.0100 5.0984 0.3900 0.0400 0.2000 0.0400 -0.2000"/>
</g>
<g transform="translate(20.8537, 9.6505)">
<path transform="scale(0.0040, -0.0040)" d="M218 136c66 0 108 -36 108 -89c0 -89 -113 -183 -218 -183c-66 0 -108 36 -108 89c0 89 113 183 218 183z" fill="currentColor"/>
</g>
<g class="scale-degree">
<g transform="translate(20.8537, 6.8633)">
<text font-family="serif" font-size="2.2001" text-anchor="start" fill="currentColor">
<tspan>➌</tspan>
</text>
</g>
</g>
<g transform="translate(20.8537, 18.6505)">
<path transform="scale(0.0040, -0.0040)" d="M218 136c66 0 108 -36 108 -89c0 -89 -113 -183 -218 -183c-66 0 -108 36 -108 89c0 89 113 183 218 183z" fill="currentColor"/>
</g>
<g class="scale-degree">
<g transform="translate(20.8537, 23.7116)">
<text font-family="serif" font-size="2.2001" text-anchor="start" fill="currentColor">
<tspan>➄</tspan>
</text>
</g>
</g>
<g transform="translate(20.9187, 9.6505)">
<rect x="-0.0650" y="0.1861" width="0.1300" height="2.8115" ry="0.0400" fill="currentColor"/>
</g>
<g transform="translate(20.9187, 18.6505)">
<rect x="-0.0650" y="0.1861" width="0.1300" height="2.6239" ry="0.0400" fill="currentColor"/>
</g>
<g transform="translate(25.8621, 9.6505)">
<path stroke-width="0.0800" stroke-linejoin="round" stroke-linecap="round" stroke="currentColor" fill="currentColor" d="M0.6824 -2.5450C1.9057 -3.5130 4.6141 -3.3237 5.6908 -2.1950L5.6908 -2.1950C4.6057 -3.2040 1.8973 -3.3933 0.6824 -2.5450z"/>
</g>
<g transform="translate(23.6079, 17.1505)">
<path transform="scale(0.0040, -0.0040)" d="M218 136c66 0 108 -36 108 -89c0 -89 -113 -183 -218 -183c-66 0 -108 36 -108 89c0 89 113 183 218 183z" fill="currentColor"/>
</g>
<g transform="translate(23.6729, 18.6505)">
<rect x="-0.0650" y="-1.3139" width="0.1300" height="4.1239" ry="0.0400" fill="currentColor"/>
</g>
<g transform="translate(15.8453, 9.6505)">
<path stroke-width="0.0800" stroke-linejoin="round" stroke-linecap="round" stroke="currentColor" fill="currentColor" d="M0.6824 -1.6028C1.9057 -2.7898 4.6141 -2.6006 5.6908 -1.2528L5.6908 -1.2528C4.6057 -2.4809 1.8973 -2.6701 0.6824 -1.6028z"/>
</g>
<g transform="translate(25.8621, 8.1505)">
<path transform="scale(0.0040, -0.0040)" d="M218 136c66 0 108 -36 108 -89c0 -89 -113 -183 -218 -183c-66 0 -108 36 -108 89c0 89 113 183 218 183z" fill="currentColor"/>
</g>
<g class="scale-degree">
<g transform="translate(25.8621, 5.7263)">
<text font-family="serif" font-size="2.2001" text-anchor="start" fill="currentColor">
<tspan>➏</tspan>
</text>
</g>
</g>
<g transform="translate(25.8621, 19.1505)">
<path transform="scale(0.0040, -0.0040)" d="M218 136c66 0 108 -36 108 -89c0 -89 -113 -183 -218 -183c-66 0 -108 36 -108 89c0 89 113 183 218 183z" fill="currentColor"/>
</g>
<g class="scale-degree">
<g transform="translate(25.8621, 24.4016)">
<text font-family="serif" font-size="2.2001" text-anchor="start" fill="currentColor">
<tspan>➃</tspan>
</text>
</g>
</g>
<g transform="translate(25.9271, 9.6505)">
<rect x="-0.0650" y="-1.3139" width="0.1300" height="3.1263" ry="0.0400" fill="currentColor"/>
</g>
<g transform="translate(25.9271, 18.6505)">
<rect x="-0.0650" y="0.6861" width="0.1300" height="2.8139" ry="0.0400" fill="currentColor"/>
</g>
<g transform="translate(28.6164, 17.1505)">
<path transform="scale(0.0040, -0.0040)" d="M218 136c66 0 108 -36 108 -89c0 -89 -113 -183 -218 -183c-66 0 -108 36 -108 89c0 89 113 183 218 183z" fill="currentColor"/>
</g>
<g transform="translate(28.6814, 18.6505)">
<rect x="-0.0650" y="-1.3139" width="0.1300" height="4.8139" ry="0.0400" fill="currentColor"/>
</g>
<g transform="translate(30.8706, 8.6505)">
<path transform="scale(0.0040, -0.0040)" d="M218 136c66 0 108 -36 108 -89c0 -89 -113 -183 -218 -183c-66 0 -108 36 -108 89c0 89 113 183 218 183z" fill="currentColor"/>
</g>
<g class="scale-degree">
<g transform="translate(30.8706, 6.0795)">
<text font-family="serif" font-size="2.2001" text-anchor="start" fill="currentColor">
<tspan>➎</tspan>
</text>
</g>
</g>
<g transform="translate(30.8706, 19.6505)">
<path transform="scale(0.0040, -0.0040)" d="M218 136c66 0 108 -36 108 -89c0 -89 -113 -183 -218 -183c-66 0 -108 36 -108 89c0 89 113 183 218 183z" fill="currentColor"/>
</g>
<g class="scale-degree">
<g transform="translate(30.8706, 24.4016)">
<text font-family="serif" font-size="2.2001" text-anchor="start" fill="currentColor">
<tspan>➂</tspan>
</text>
</g>
</g>
<g transform="translate(30.9356, 9.6505)">
<rect x="-0.0650" y="-0.8139" width="0.1300" height="2.8115" ry="0.0400" fill="currentColor"/>
</g>
<g transform="translate(30.9356, 18.6505)">
<rect x="-0.0650" y="1.1861" width="0.1300" height="2.3139" ry="0.0400" fill="currentColor"/>
</g>
<g transform="translate(33.6248, 17.1505)">
<path transform="scale(0.0040, -0.0040)" d="M218 136c66 0 108 -36 108 -89c0 -89 -113 -183 -218 -183c-66 0 -108 36 -108 89c0 89 113 183 218 183z" fill="currentColor"/>
</g>
<g transform="translate(33.6898, 18.6505)">
<rect x="-0.0650" y="-1.3139" width="0.1300" height="4.8139" ry="0.0400" fill="currentColor"/>
</g>
</svg>
