<svg xmlns="http://www.w3.org/2000/svg" xmlns:xlink="http://www.w3.org/1999/xlink" width="75.47mm" height="47.25mm" version="1.2" viewBox="0 0 42.945 26.886">
    <defs>
        <path id="reuse-0" fill="currentColor" d="M218 136c66 0 108-36 108-89 0-89-113-183-218-183C42-136 0-100 0-47c0 89 113 183 218 183z"/>
        <path id="reuse-1" fill="currentColor" d="M0 119c0 8 5 15 13 18l46 17v158c0 10 8 19 18 19s19-9 19-19V167l83 31v158c0 10 9 19 19 19s18-9 18-19V211l32 12c2 1 5 1 7 1 11 0 20-9 20-20v-60c0-8-5-16-13-19l-46-16V-51l32 11c2 1 5 1 7 1 11 0 20-9 20-20v-60c0-8-5-15-13-18l-46-17v-158c0-10-8-19-18-19s-19 9-19 19v145l-83-31v-158c0-10-9-19-19-19s-18 9-18 19v145l-32-12c-2-1-5-1-7-1-11 0-20 9-20 20v60c0 8 5 16 13 19l46 16V51L27 40c-2-1-5-1-7-1C9 39 0 48 0 59v60zm179-24L96 65V-95l83 30V95z"/>
        <path id="reuse-2" fill="currentColor" d="M229 0c-88 0-90 66-144 66-30 0-59-20-62-55-1-7-6-11-11-11C6 0 0 4 0 11c0 154 232 170 232 344 0 59-16 122-67 122-25 0-49-14-49-37 0-27 35-41 35-68 0-38-31-69-69-69s-69 31-69 69c0 76 72 128 152 128 95 0 183-57 183-145 0-151-150-159-246-220 9 2 18 3 27 3 83 0 111-59 171-59 48 0 38 38 55 38 6 0 12-5 12-12C367 83 323 0 229 0z"/>
        <path id="reuse-3" fill="currentColor" d="M196 117h117c0-48 27-94 72-94 8 0 12-5 12-11s-4-12-12-12c-44 0-87 13-131 13S167 0 123 0c-8 0-12 6-12 12s4 11 12 11c45 0 73 46 73 94zM-2 148c0 12 140 143 140 336 0 10 7 19 16 16 23-7 47-13 71-13s48 6 71 13c14 4 23-9 17-16L29 154h167v131c0 34 34 27 68 72 22 30 23 56 36 56 6 0 13-5 13-14V154h72c10 0 15-7 15-14s-5-15-15-15h-72v-8H196v8H29c-23 0-31 14-31 23z"/>
    </defs>
    <style>
        tspan{white-space:pre}
    </style>
    <path stroke="currentColor" stroke-linecap="round" stroke-linejoin="round" stroke-width=".1" d="M5.74 11.65h30.293m-30.293-1h30.293m-30.293-1h30.293m-30.293-1h30.293m-30.293-1h30.293"/>
    <rect width=".19" height="4.95" y="7.855" fill="currentColor" ry="0" transform="translate(35.892 3.845)"/>
    <path stroke="currentColor" stroke-linecap="round" stroke-linejoin="round" stroke-width=".1" d="M5.74 20.65h30.293m-30.293-1h30.293m-30.293-1h30.293m-30.293-1h30.293m-30.293-1h30.293"/>
    <rect width=".19" height="4.05" y="-2.05" fill="currentColor" ry="0" transform="translate(35.892 18.65)"/>
    <rect width=".19" height="4.05" y="-2" fill="currentColor" ry="0" transform="translate(35.892 9.65)"/>
    <path fill="currentColor" d="M5.007 15.614c0-1.02-.528-1.452-.528-1.464 0-.072.528-.384.528-1.464 0-1.044-.432-1.956-.432-3.12 0-.756.18-1.464.708-2.004.06-.06.156.036.096.096-.396.396-.516.9-.516 1.44 0 1.02.408 1.92.408 3.06 0 .744-.18 1.452-.696 1.992.516.54.696 1.248.696 1.992 0 1.14-.408 2.04-.408 3.06 0 .54.12 1.044.516 1.44.06.06-.036.156-.096.096-.528-.54-.708-1.248-.708-2.004 0-1.164.432-2.076.432-3.12z"/>
    <rect width=".16" height="13.1" y="-6.55" fill="currentColor" ry=".05" transform="translate(5.63 14.15)"/>
    <path fill="currentColor" stroke="currentColor" stroke-linecap="round" stroke-linejoin="round" stroke-width=".08" d="M33.715 21.14v.4h-7.813v-.4zm0 .81v.4h-7.813v-.4zm-2.755-10.5v.4l-5.058-.19v-.4z"/>
    <use xlink:href="#reuse-0" transform="matrix(.004 0 0 -.004 15.845 9.15)"/>
    <text fill="currentColor" class="scale-degree" font-family="serif" font-size="2.2" transform="translate(15.845 6.521)">
<tspan>➍</tspan>
</text>
    <path fill="currentColor" d="M7.555 13.19H7.53a.783.783 0 0 1-.78-.787c0-.233.212-.413.448-.413.216 0 .38.188.38.412 0 .209-.172.38-.38.38a.326.326 0 0 1-.124-.023c.104.156.272.26.468.26h.016zm.78-1.728a.69.69 0 0 0 .452-.656.764.764 0 0 0-.692-.76c.076.356.192.968.24 1.416zm-1.548-.924c0 .58.564.988 1.056.988.004 0 .188 0 .328-.024a17.343 17.343 0 0 0-.252-1.456c-.316.033-.496.245-.496.477 0 .176.1.364.324.492.02.02.028.04.028.06 0 .044-.04.088-.088.088-.06 0-.504-.248-.504-.748 0-.352.232-.696.64-.788a15.048 15.048 0 0 0-.184-.7c-.428.484-.852.972-.852 1.612zm.704-2.1c-.116-.384-.208-.68-.208-1.384 0-.46.22-.896.596-1.168a.06.06 0 0 1 .08 0c.272.32.532.98.532 1.432 0 .572-.344 1.02-.72 1.456.084.272.156.552.224.828.008 0 .028-.004.052-.004.62 0 1.024.512 1.024 1.044 0 .452-.296.848-.72.984.012.14.02.28.02.42 0 .076-.004.156-.008.232-.028.476-.352.9-.808.912l.004-.172c.372-.008.612-.368.636-.764a3.775 3.775 0 0 0-.008-.588c-.02.004-.176.032-.356.032-.772 0-1.332-.72-1.332-1.496 0-.708.524-1.224.992-1.764zm.712-1.452c0-.136.004-.264-.08-.516a1.153 1.153 0 0 0-.648 1.036c0 .208.048.46.144.776.32-.388.584-.792.584-1.296z"/>
    <use xlink:href="#reuse-1" transform="matrix(.004 0 0 -.004 9.99 7.65)"/>
    <use xlink:href="#reuse-2" transform="matrix(.004 0 0 -.004 12.309 9.65)"/>
    <use xlink:href="#reuse-3" transform="matrix(.004 0 0 -.004 12.24 11.666)"/>
    <use xlink:href="#reuse-0" transform="matrix(.004 0 0 -.004 15.845 18.15)"/>
    <text fill="currentColor" class="scale-degree" font-family="serif" font-size="2.2" transform="translate(15.845 23.749)">
<tspan>➅</tspan>
</text>
    <path fill="currentColor" d="M8.719 18.15c0-.111.092-.203.204-.203s.204.092.204.204-.092.204-.204.204-.204-.092-.204-.204zm0-1c0-.111.092-.203.204-.203s.204.092.204.204-.092.204-.204.204-.204-.092-.204-.204zm-1.3-.551c.688 0 1.172.352 1.172 1.004 0 1.052-1.052 1.656-2.064 2.084a.049.049 0 0 1-.036.016.053.053 0 0 1-.052-.052c0-.012.004-.024.016-.036.808-.472 1.648-1.06 1.648-1.972 0-.48-.252-.94-.684-.94-.296 0-.516.215-.616.503a.323.323 0 0 1 .136-.032c.22 0 .4.18.4.4 0 .232-.176.424-.4.424-.24 0-.448-.188-.448-.424 0-.532.408-.976.928-.976z"/>
    <use xlink:href="#reuse-1" transform="matrix(.004 0 0 -.004 9.99 17.65)"/>
    <use xlink:href="#reuse-2" transform="matrix(.004 0 0 -.004 12.309 18.65)"/>
    <use xlink:href="#reuse-3" transform="matrix(.004 0 0 -.004 12.24 20.666)"/>
    <rect width=".13" height="3.126" x="-.065" y="-.314" fill="currentColor" ry=".04" transform="translate(15.91 9.65)"/>
    <rect width=".13" height="3.124" x="-.065" y="-.314" fill="currentColor" ry=".04" transform="translate(15.91 18.65)"/>
    <path fill="currentColor" stroke="currentColor" stroke-linecap="round" stroke-linejoin="round" stroke-width=".08" d="M23.698 20.45v.4h-7.813v-.4zm0 .81v.4h-7.813v-.4z"/>
    <use xlink:href="#reuse-0" transform="matrix(.004 0 0 -.004 18.6 17.15)"/>
    <rect width=".13" height="4.124" x="-.065" y="-1.314" fill="currentColor" ry=".04" transform="translate(18.665 18.65)"/>
    <path fill="currentColor" stroke="currentColor" stroke-linecap="round" stroke-linejoin="round" stroke-width=".08" d="M20.944 12.45v.4l-5.059-.19v-.4z"/>
    <use xlink:href="#reuse-0" transform="matrix(.004 0 0 -.004 20.854 9.65)"/>
    <text fill="currentColor" class="scale-degree" font-family="serif" font-size="2.2" transform="translate(20.854 6.863)">
<tspan>➌</tspan>
</text>
    <use xlink:href="#reuse-0" transform="matrix(.004 0 0 -.004 20.854 18.65)"/>
    <text fill="currentColor" class="scale-degree" font-family="serif" font-size="2.2" transform="translate(20.854 23.749)">
<tspan>➄</tspan>
</text>
    <rect width=".13" height="2.812" x="-.065" y=".186" fill="currentColor" ry=".04" transform="translate(20.919 9.65)"/>
    <rect width=".13" height="2.624" x="-.065" y=".186" fill="currentColor" ry=".04" transform="translate(20.919 18.65)"/>
    <path fill="currentColor" stroke="currentColor" stroke-linecap="round" stroke-linejoin="round" stroke-width=".08" d="M26.545 7.105c1.223-.968 3.931-.778 5.008.35h0c-1.085-1.009-3.794-1.198-5.008-.35z"/>
    <use xlink:href="#reuse-0" transform="matrix(.004 0 0 -.004 23.608 17.15)"/>
    <rect width=".13" height="4.124" x="-.065" y="-1.314" fill="currentColor" ry=".04" transform="translate(23.673 18.65)"/>
    <path fill="currentColor" stroke="currentColor" stroke-linecap="round" stroke-linejoin="round" stroke-width=".08" d="M16.528 8.048c1.223-1.187 3.931-.998 5.008.35h0c-1.085-1.228-3.793-1.418-5.008-.35z"/>
    <use xlink:href="#reuse-0" transform="matrix(.004 0 0 -.004 25.862 8.15)"/>
    <text fill="currentColor" class="scale-degree" font-family="serif" font-size="2.2" transform="translate(25.862 5.726)">
<tspan>➏</tspan>
</text>
    <use xlink:href="#reuse-0" transform="matrix(.004 0 0 -.004 25.862 19.15)"/>
    <text fill="currentColor" class="scale-degree" font-family="serif" font-size="2.2" transform="translate(25.862 24.439)">
<tspan>➃</tspan>
</text>
    <rect width=".13" height="3.126" x="-.065" y="-1.314" fill="currentColor" ry=".04" transform="translate(25.927 9.65)"/>
    <rect width=".13" height="2.814" x="-.065" y=".686" fill="currentColor" ry=".04" transform="translate(25.927 18.65)"/>
    <use xlink:href="#reuse-0" transform="matrix(.004 0 0 -.004 28.616 17.15)"/>
    <rect width=".13" height="4.814" x="-.065" y="-1.314" fill="currentColor" ry=".04" transform="translate(28.681 18.65)"/>
    <use xlink:href="#reuse-0" transform="matrix(.004 0 0 -.004 30.87 8.65)"/>
    <text fill="currentColor" class="scale-degree" font-family="serif" font-size="2.2" transform="translate(30.87 6.08)">
<tspan>➎</tspan>
</text>
    <use xlink:href="#reuse-0" transform="matrix(.004 0 0 -.004 30.87 19.65)"/>
    <text fill="currentColor" class="scale-degree" font-family="serif" font-size="2.2" transform="translate(30.87 24.439)">
<tspan>➂</tspan>
</text>
    <rect width=".13" height="2.812" x="-.065" y="-.814" fill="currentColor" ry=".04" transform="translate(30.936 9.65)"/>
    <rect width=".13" height="2.314" x="-.065" y="1.186" fill="currentColor" ry=".04" transform="translate(30.936 18.65)"/>
    <use xlink:href="#reuse-0" transform="matrix(.004 0 0 -.004 33.625 17.15)"/>
    <rect width=".13" height="4.814" x="-.065" y="-1.314" fill="currentColor" ry=".04" transform="translate(33.69 18.65)"/>
</svg>
