<svg xmlns="http://www.w3.org/2000/svg" width="75.47mm" height="47.18mm" class="d-block mx-auto d-block mx-auto" version="1.2" viewBox="0 0 42.945 26.847"><style>tspan{white-space:pre}</style><path stroke="currentColor" stroke-linecap="round" stroke-linejoin="round" stroke-width=".1" d="M5.74 11.65h30.293m-30.293-1h30.293m-30.293-1h30.293m-30.293-1h30.293m-30.293-1h30.293"/><rect width=".19" height="4.95" y="7.855" ry="0" transform="translate(35.892 3.845)"/><path stroke="currentColor" stroke-linecap="round" stroke-linejoin="round" stroke-width=".1" d="M5.74 20.65h30.293m-30.293-1h30.293m-30.293-1h30.293m-30.293-1h30.293m-30.293-1h30.293"/><rect width=".19" height="4.05" y="-2.05" ry="0" transform="translate(35.892 18.65)"/><rect width=".19" height="4.05" y="-2" ry="0" transform="translate(35.892 9.65)"/><path d="M5.007 15.614c0-1.02-.528-1.452-.528-1.464 0-.072.528-.384.528-1.464 0-1.044-.432-1.956-.432-3.12 0-.756.18-1.464.708-2.004.06-.06.156.036.096.096-.396.396-.516.9-.516 1.44 0 1.02.408 1.92.408 3.06 0 .744-.18 1.452-.696 1.992.516.54.696 1.248.696 1.992 0 1.14-.408 2.04-.408 3.06 0 .54.12 1.044.516 1.44.06.06-.036.156-.096.096-.528-.54-.708-1.248-.708-2.004 0-1.164.432-2.076.432-3.12z"/><rect width=".16" height="13.1" y="-6.55" ry=".05" transform="translate(5.63 14.15)"/><path stroke="currentColor" stroke-linecap="round" stroke-linejoin="round" stroke-width=".08" d="M33.715 21.14v.4h-7.813v-.4zm0 .81v.4h-7.813v-.4zm-2.755-10.5v.4l-5.058-.19v-.4z"/><path d="M16.717 8.606c.264 0 .432.144.432.356 0 .356-.452.732-.872.732-.264 0-.432-.144-.432-.356 0-.356.452-.732.872-.732z"/><text class="scale-degree" font-family="serif" font-size="2.2" transform="translate(15.845 6.521)">
<tspan>➍</tspan>
</text><path d="M7.555 13.19H7.53a.783.783 0 0 1-.78-.787c0-.233.212-.413.448-.413.216 0 .38.188.38.412 0 .209-.172.38-.38.38a.326.326 0 0 1-.124-.023c.104.156.272.26.468.26h.016zm.78-1.728a.69.69 0 0 0 .452-.656.764.764 0 0 0-.692-.76c.076.356.192.968.24 1.416zm-1.548-.924c0 .58.564.988 1.056.988.004 0 .188 0 .328-.024a17.343 17.343 0 0 0-.252-1.456c-.316.033-.496.245-.496.477 0 .176.1.364.324.492.02.02.028.04.028.06 0 .044-.04.088-.088.088-.06 0-.504-.248-.504-.748 0-.352.232-.696.64-.788a15.048 15.048 0 0 0-.184-.7c-.428.484-.852.972-.852 1.612zm.704-2.1c-.116-.384-.208-.68-.208-1.384 0-.46.22-.896.596-1.168a.06.06 0 0 1 .08 0c.272.32.532.98.532 1.432 0 .572-.344 1.02-.72 1.456.084.272.156.552.224.828.008 0 .028-.004.052-.004.62 0 1.024.512 1.024 1.044 0 .452-.296.848-.72.984.012.14.02.28.02.42 0 .076-.004.156-.008.232-.028.476-.352.9-.808.912l.004-.172c.372-.008.612-.368.636-.764a3.775 3.775 0 0 0-.008-.588c-.02.004-.176.032-.356.032-.772 0-1.332-.72-1.332-1.496 0-.708.524-1.224.992-1.764zm.712-1.452c0-.136.004-.264-.08-.516a1.153 1.153 0 0 0-.648 1.036c0 .208.048.46.144.776.32-.388.584-.792.584-1.296zm1.787.189c0-.032.02-.06.053-.072l.184-.068v-.632c0-.04.032-.076.072-.076s.076.036.076.076v.58l.332-.124v-.632c0-.04.036-.076.076-.076s.072.036.072.076v.58l.128-.048c.008-.004.02-.004.028-.004a.08.08 0 0 1 .08.08v.24c0 .032-.02.064-.052.076l-.184.064v.64l.128-.044c.008-.004.02-.004.028-.004a.08.08 0 0 1 .08.08v.24c0 .032-.02.06-.052.072l-.184.068v.632c0 .04-.032.076-.072.076s-.076-.036-.076-.076v-.58l-.332.123v.633c0 .04-.036.076-.076.076s-.072-.036-.072-.076v-.58l-.128.048c-.008.004-.02.004-.028.004a.08.08 0 0 1-.08-.08v-.24c0-.033.02-.065.052-.077l.184-.064v-.64l-.128.044c-.008.004-.02.004-.028.004a.08.08 0 0 1-.08-.08v-.24zm.717.096-.332.12v.64l.332-.12v-.64zm2.518 2.379c-.352 0-.36-.264-.576-.264-.12 0-.236.08-.248.22-.004.029-.024.045-.044.045-.024 0-.048-.016-.048-.044 0-.616.928-.68.928-1.376 0-.236-.064-.488-.268-.488-.1 0-.196.056-.196.148 0 .108.14.164.14.272a.277.277 0 0 1-.552 0c0-.304.288-.512.608-.512.38 0 .732.228.732.58 0 .604-.6.636-.984.88a.497.497 0 0 1 .108-.012c.332 0 .444.236.684.236.192 0 .152-.152.22-.152.024 0 .048.02.048.048 0 .088-.176.42-.552.42zm-.2 1.548h.468c0 .192.108.376.288.376.032 0 .048.02.048.044s-.016.048-.048.048c-.176 0-.348-.052-.524-.052s-.348.052-.524.052c-.032 0-.048-.024-.048-.048s.016-.044.048-.044c.18 0 .292-.184.292-.376zm-.792-.124c0-.048.56-.572.56-1.344 0-.04.028-.076.064-.064.092.028.188.052.284.052s.192-.024.284-.052c.056-.016.092.036.068.064l-1.136 1.32h.668v-.524c0-.136.136-.108.272-.288.088-.12.092-.224.144-.224.024 0 .052.02.052.056v.98h.288c.04 0 .06.028.06.056s-.02.06-.06.06h-.288v.032h-.468v-.032h-.668c-.092 0-.124-.056-.124-.092zm4.484 6.533c.264 0 .432.144.432.356 0 .356-.452.732-.872.732-.264 0-.432-.144-.432-.356 0-.356.452-.732.872-.732z"/><text class="scale-degree" font-family="serif" font-size="2.2" transform="translate(15.845 23.712)">
<tspan>➅</tspan>
</text><path d="M8.719 18.15c0-.111.092-.203.204-.203s.204.092.204.204-.092.204-.204.204-.204-.092-.204-.204zm0-1c0-.111.092-.203.204-.203s.204.092.204.204-.092.204-.204.204-.204-.092-.204-.204zm-1.3-.551c.688 0 1.172.352 1.172 1.004 0 1.052-1.052 1.656-2.064 2.084a.049.049 0 0 1-.036.016.053.053 0 0 1-.052-.052c0-.012.004-.024.016-.036.808-.472 1.648-1.06 1.648-1.972 0-.48-.252-.94-.684-.94-.296 0-.516.215-.616.503a.323.323 0 0 1 .136-.032c.22 0 .4.18.4.4 0 .232-.176.424-.4.424-.24 0-.448-.188-.448-.424 0-.532.408-.976.928-.976zm2.571.576c0-.032.02-.06.053-.072l.184-.068v-.632c0-.04.032-.076.072-.076s.076.035.076.075v.58l.332-.124v-.632c0-.04.036-.076.076-.076s.072.036.072.076v.58l.128-.048c.008-.004.02-.004.028-.004a.08.08 0 0 1 .08.08v.24c0 .032-.02.064-.052.076l-.184.064v.64l.128-.044c.008-.004.02-.004.028-.004a.08.08 0 0 1 .08.08v.24c0 .032-.02.06-.052.072l-.184.068v.632c0 .04-.032.076-.072.076s-.076-.036-.076-.076v-.58l-.332.124v.632c0 .04-.036.076-.076.076s-.072-.036-.072-.076v-.58l-.128.048c-.008.004-.02.004-.028.004a.08.08 0 0 1-.08-.08v-.24c0-.032.02-.064.052-.076l.184-.064v-.64l-.128.044c-.008.004-.02.004-.028.004a.08.08 0 0 1-.08-.08v-.24zm.717.096-.332.12v.64l.332-.12v-.64zm2.518 1.379c-.352 0-.36-.263-.576-.263-.12 0-.236.08-.248.22-.004.028-.024.044-.044.044-.024 0-.048-.016-.048-.044 0-.616.928-.68.928-1.376 0-.237-.064-.489-.268-.489-.1 0-.196.056-.196.148 0 .108.14.164.14.272a.277.277 0 0 1-.552 0c0-.304.288-.512.608-.512.38 0 .732.228.732.58 0 .604-.6.636-.984.88a.497.497 0 0 1 .108-.012c.332 0 .444.236.684.236.192 0 .152-.152.22-.152.024 0 .048.02.048.048 0 .088-.176.42-.552.42zm-.2 1.548h.468c0 .192.108.376.288.376.032 0 .048.02.048.044s-.016.049-.048.049c-.176 0-.348-.053-.524-.053s-.348.052-.524.052c-.032 0-.048-.024-.048-.048s.016-.043.048-.043c.18 0 .292-.184.292-.376zm-.792-.123c0-.048.56-.572.56-1.344 0-.04.028-.077.064-.065.092.028.188.052.284.052s.192-.024.284-.052c.056-.016.092.036.068.064l-1.136 1.32h.668v-.524c0-.136.136-.108.272-.288.088-.12.092-.224.144-.224.024 0 .052.02.052.056v.98h.288c.04 0 .06.028.06.056s-.02.06-.06.06h-.288v.032h-.468v-.032h-.668c-.092 0-.124-.056-.124-.092z"/><rect width=".13" height="3.126" x="-.065" y="-.314" ry=".04" transform="translate(15.91 9.65)"/><rect width=".13" height="3.124" x="-.065" y="-.314" ry=".04" transform="translate(15.91 18.65)"/><path stroke="currentColor" stroke-linecap="round" stroke-linejoin="round" stroke-width=".08" d="M23.698 20.45v.4h-7.813v-.4zm0 .81v.4h-7.813v-.4z"/><path d="M19.471 16.607c.264 0 .432.144.432.356 0 .356-.452.732-.872.732-.264 0-.432-.144-.432-.356 0-.356.452-.732.872-.732z"/><rect width=".13" height="4.124" x="-.065" y="-1.314" ry=".04" transform="translate(18.665 18.65)"/><path stroke="currentColor" stroke-linecap="round" stroke-linejoin="round" stroke-width=".08" d="M20.944 12.45v.4l-5.059-.19v-.4z"/><path d="M21.726 9.106c.264 0 .432.144.432.356 0 .356-.452.732-.872.732-.264 0-.432-.144-.432-.356 0-.356.452-.732.872-.732z"/><text class="scale-degree" font-family="serif" font-size="2.2" transform="translate(20.854 6.863)">
<tspan>➌</tspan>
</text><path d="M21.726 18.107c.264 0 .432.144.432.356 0 .356-.452.732-.872.732-.264 0-.432-.144-.432-.356 0-.356.452-.732.872-.732z"/><text class="scale-degree" font-family="serif" font-size="2.2" transform="translate(20.854 23.712)">
<tspan>➄</tspan>
</text><rect width=".13" height="2.812" x="-.065" y=".186" ry=".04" transform="translate(20.919 9.65)"/><rect width=".13" height="2.624" x="-.065" y=".186" ry=".04" transform="translate(20.919 18.65)"/><path stroke="currentColor" stroke-linecap="round" stroke-linejoin="round" stroke-width=".08" d="M26.545 7.105c1.223-.968 3.931-.778 5.008.35h0c-1.085-1.009-3.794-1.198-5.008-.35z"/><path d="M24.48 16.607c.264 0 .432.144.432.356 0 .356-.452.732-.872.732-.264 0-.432-.144-.432-.356 0-.356.452-.732.872-.732z"/><rect width=".13" height="4.124" x="-.065" y="-1.314" ry=".04" transform="translate(23.673 18.65)"/><path stroke="currentColor" stroke-linecap="round" stroke-linejoin="round" stroke-width=".08" d="M16.528 8.048c1.223-1.187 3.931-.998 5.008.35h0c-1.085-1.228-3.793-1.418-5.008-.35z"/><path d="M26.734 7.606c.264 0 .432.144.432.356 0 .356-.452.732-.872.732-.264 0-.432-.144-.432-.356 0-.356.452-.732.872-.732z"/><text class="scale-degree" font-family="serif" font-size="2.2" transform="translate(25.862 5.726)">
<tspan>➏</tspan>
</text><path d="M26.734 18.607c.264 0 .432.144.432.356 0 .356-.452.732-.872.732-.264 0-.432-.144-.432-.356 0-.356.452-.732.872-.732z"/><text class="scale-degree" font-family="serif" font-size="2.2" transform="translate(25.862 24.402)">
<tspan>➃</tspan>
</text><rect width=".13" height="3.126" x="-.065" y="-1.314" ry=".04" transform="translate(25.927 9.65)"/><rect width=".13" height="2.814" x="-.065" y=".686" ry=".04" transform="translate(25.927 18.65)"/><path d="M29.488 16.607c.264 0 .432.144.432.356 0 .356-.452.732-.872.732-.264 0-.432-.144-.432-.356 0-.356.452-.732.872-.732z"/><rect width=".13" height="4.814" x="-.065" y="-1.314" ry=".04" transform="translate(28.681 18.65)"/><path d="M31.743 8.106c.264 0 .432.144.432.356 0 .356-.452.732-.872.732-.264 0-.432-.144-.432-.356 0-.356.452-.732.872-.732z"/><text class="scale-degree" font-family="serif" font-size="2.2" transform="translate(30.87 6.08)">
<tspan>➎</tspan>
</text><path d="M31.743 19.107c.264 0 .432.144.432.356 0 .356-.452.732-.872.732-.264 0-.432-.144-.432-.356 0-.356.452-.732.872-.732z"/><text class="scale-degree" font-family="serif" font-size="2.2" transform="translate(30.87 24.402)">
<tspan>➂</tspan>
</text><rect width=".13" height="2.812" x="-.065" y="-.814" ry=".04" transform="translate(30.936 9.65)"/><rect width=".13" height="2.314" x="-.065" y="1.186" ry=".04" transform="translate(30.936 18.65)"/><path d="M34.497 16.607c.264 0 .432.144.432.356 0 .356-.452.732-.872.732-.264 0-.432-.144-.432-.356 0-.356.452-.732.872-.732z"/><rect width=".13" height="4.814" x="-.065" y="-1.314" ry=".04" transform="translate(33.69 18.65)"/></svg>
