<svg xmlns="http://www.w3.org/2000/svg" width="722.343" height="56.83mm" class="d-block mx-auto d-block mx-auto" version="1.2" viewBox="0 0 108.759 32.337">
    <style>
        tspan{white-space:pre}
    </style>
    <rect width="1.956" height=".2" x="85.25" y="-.1" fill="currentColor" ry=".1" transform="translate(5.69 17.411)"/>
    <rect width="1.956" height=".2" x="74.838" y="-.1" fill="currentColor" ry=".1" transform="translate(5.69 17.411)"/>
    <path stroke="currentColor" stroke-linecap="round" stroke-linejoin="round" stroke-width=".1" d="M5.74 16.411h96.106m-96.106-1h96.106m-96.106-1h96.106m-96.106-1h96.106m-96.106-1h96.106"/>
    <rect width=".19" height="4.95" y="12.616" fill="currentColor" ry="0" transform="translate(101.706 3.845)"/>
    <rect width="1.956" height=".2" x="39.402" y="-.1" fill="currentColor" ry=".1" transform="translate(5.69 20.411)"/>
    <rect width="1.956" height=".2" x="28.15" y="-.1" fill="currentColor" ry=".1" transform="translate(5.69 20.411)"/>
    <rect width="1.956" height=".2" x="17.737" y="-.1" fill="currentColor" ry=".1" transform="translate(5.69 20.411)"/>
    <path stroke="currentColor" stroke-linecap="round" stroke-linejoin="round" stroke-width=".1" d="M5.74 25.411h96.106m-96.106-1h96.106m-96.106-1h96.106m-96.106-1h96.106m-96.106-1h96.106"/>
    <rect width=".19" height="4.05" y="-2.05" fill="currentColor" ry="0" transform="translate(101.706 23.411)"/>
    <rect width=".19" height="4.05" y="-2" fill="currentColor" ry="0" transform="translate(101.706 14.411)"/>
    <rect width=".19" height="4.95" y="12.616" fill="currentColor" ry="0" transform="translate(79.764 3.845)"/>
    <rect width=".19" height="4.05" y="-2.05" fill="currentColor" ry="0" transform="translate(79.764 23.411)"/>
    <rect width=".19" height="4.05" y="-2" fill="currentColor" ry="0" transform="translate(79.764 14.411)"/>
    <rect width=".19" height="4.95" y="12.616" fill="currentColor" ry="0" transform="translate(58.086 3.845)"/>
    <rect width=".19" height="4.05" y="-2.05" fill="currentColor" ry="0" transform="translate(58.086 23.411)"/>
    <rect width=".19" height="4.05" y="-2" fill="currentColor" ry="0" transform="translate(58.086 14.411)"/>
    <rect width=".19" height="4.95" y="12.616" fill="currentColor" ry="0" transform="translate(36.42 3.845)"/>
    <rect width=".19" height="4.05" y="-2.05" fill="currentColor" ry="0" transform="translate(36.42 23.411)"/>
    <rect width=".19" height="4.05" y="-2" fill="currentColor" ry="0" transform="translate(36.42 14.411)"/>
    <path fill="currentColor" d="M7.555 17.951H7.53a.783.783 0 0 1-.78-.788c0-.232.212-.412.448-.412.216 0 .38.188.38.412 0 .208-.172.38-.38.38a.326.326 0 0 1-.124-.024c.104.156.272.26.468.26h.016zm.78-1.728a.69.69 0 0 0 .452-.656.764.764 0 0 0-.692-.76c.076.356.192.968.24 1.416zM6.787 15.3c0 .58.564.988 1.056.988.004 0 .188 0 .328-.024a17.343 17.343 0 0 0-.252-1.456c-.316.032-.496.244-.496.476 0 .176.1.364.324.492.02.02.028.04.028.06 0 .044-.04.088-.088.088-.06 0-.504-.248-.504-.748 0-.352.232-.696.64-.788a15.048 15.048 0 0 0-.184-.7c-.428.484-.852.972-.852 1.612zm.704-2.1c-.116-.384-.208-.68-.208-1.384 0-.46.22-.896.596-1.168a.06.06 0 0 1 .08 0c.272.32.532.98.532 1.432 0 .572-.344 1.02-.72 1.456.084.272.156.552.224.828.008 0 .028-.004.052-.004.62 0 1.024.512 1.024 1.044 0 .452-.296.848-.72.984.012.14.02.28.02.42 0 .076-.004.156-.008.232-.028.476-.352.9-.808.912l.004-.172c.372-.008.612-.368.636-.764a3.775 3.775 0 0 0-.008-.588c-.02.004-.176.032-.356.032-.772 0-1.332-.72-1.332-1.496 0-.708.524-1.224.992-1.764zm.712-1.452c0-.136.004-.264-.08-.516a1.153 1.153 0 0 0-.648 1.036c0 .208.048.46.144.776.32-.388.584-.792.584-1.296zm1.787.187c0-.032.02-.06.053-.072l.184-.068v-.632c0-.04.032-.076.072-.076s.076.036.076.076v.58l.332-.124v-.632c0-.04.036-.076.076-.076s.072.036.072.076v.58l.128-.048c.008-.004.02-.004.028-.004a.08.08 0 0 1 .08.08v.24c0 .032-.02.064-.052.076l-.184.064v.64l.128-.044c.008-.004.02-.004.028-.004a.08.08 0 0 1 .08.08v.24c0 .032-.02.06-.052.072l-.184.068v.632c0 .04-.032.076-.072.076s-.076-.036-.076-.076v-.58l-.332.124v.632c0 .04-.036.076-.076.076s-.072-.036-.072-.076v-.58l-.128.048c-.008.004-.02.004-.028.004a.08.08 0 0 1-.08-.08v-.24c0-.032.02-.064.052-.076l.184-.064v-.64l-.128.044c-.008.004-.02.004-.028.004a.08.08 0 0 1-.08-.08v-.24zm.717.096-.332.12v.64l.332-.12v-.64zm2.518 2.38c-.352 0-.36-.264-.576-.264-.12 0-.236.08-.248.22-.004.028-.024.044-.044.044-.024 0-.048-.016-.048-.044 0-.616.928-.68.928-1.376 0-.236-.064-.488-.268-.488-.1 0-.196.056-.196.148 0 .108.14.164.14.272a.277.277 0 0 1-.552 0c0-.304.288-.512.608-.512.38 0 .732.228.732.58 0 .604-.6.636-.984.88a.497.497 0 0 1 .108-.012c.332 0 .444.236.684.236.192 0 .152-.152.22-.152.024 0 .048.02.048.048 0 .088-.176.42-.552.42zm-.2 1.549h.468c0 .191.108.375.288.375.032 0 .048.02.048.044s-.016.048-.048.048c-.176 0-.348-.052-.524-.052s-.348.052-.524.052c-.032 0-.048-.024-.048-.048s.016-.044.048-.044c.18 0 .292-.184.292-.376zm-.792-.125c0-.048.56-.572.56-1.344 0-.04.028-.076.064-.064.092.028.188.052.284.052s.192-.024.284-.052c.056-.016.092.036.068.064l-1.136 1.32h.668v-.524c0-.136.136-.108.272-.288.088-.12.092-.224.144-.224.024 0 .052.02.052.056v.98h.288c.04 0 .06.028.06.056s-.02.06-.06.06h-.288v.032h-.468v-.032h-.668c-.092 0-.124-.056-.124-.092zm4.112 6.756c.316 0 .18.392.36.392.06 0 .2-.196.228-.252.024-.048.092-.048.112 0l-.716 2.68c-.032.028-.068.04-.108.04s-.08-.012-.112-.04l.404-1.308a1.3 1.3 0 0 1-.424.092c-.188 0-.348-.136-.348-.316 0-.16.128-.288.288-.288.316 0 .184.392.364.392.064 0 .22-.204.24-.272l.184-.604a1.249 1.249 0 0 1-.416.088c-.188 0-.348-.136-.348-.316a.29.29 0 0 1 .292-.288zm-7.626.32c0-.112.092-.204.204-.204s.204.092.204.204-.092.204-.204.204-.204-.092-.204-.204zm0-1c0-.112.092-.204.204-.204s.204.092.204.204-.092.204-.204.204-.204-.092-.204-.204zm-1.3-.552c.688 0 1.172.352 1.172 1.004 0 1.052-1.052 1.656-2.064 2.084a.049.049 0 0 1-.036.016.053.053 0 0 1-.052-.052c0-.012.004-.024.016-.036.808-.472 1.648-1.06 1.648-1.972 0-.48-.252-.94-.684-.94-.296 0-.516.216-.616.504a.323.323 0 0 1 .136-.032c.22 0 .4.18.4.4 0 .232-.176.424-.4.424-.24 0-.448-.188-.448-.424 0-.532.408-.976.928-.976zm2.571.576c0-.032.02-.06.053-.072l.184-.068v-.632c0-.04.032-.076.072-.076s.076.036.076.076v.58l.332-.124v-.632c0-.04.036-.076.076-.076s.072.036.072.076v.58l.128-.048c.008-.004.02-.004.028-.004a.08.08 0 0 1 .08.08v.24c0 .032-.02.064-.052.076l-.184.064v.64l.128-.044c.008-.004.02-.004.028-.004a.08.08 0 0 1 .08.08v.24c0 .032-.02.06-.052.072l-.184.068v.632c0 .04-.032.076-.072.076s-.076-.036-.076-.076v-.58l-.332.124v.632c0 .04-.036.076-.076.076s-.072-.036-.072-.076v-.58l-.128.048c-.008.004-.02.004-.028.004a.08.08 0 0 1-.08-.08v-.24c0-.032.02-.064.052-.076l.184-.064v-.64l-.128.044c-.008.004-.02.004-.028.004a.08.08 0 0 1-.08-.08v-.24zm.717.096-.332.12v.64l.332-.12v-.64zm2.518 1.38c-.352 0-.36-.264-.576-.264-.12 0-.236.08-.248.22-.004.028-.024.044-.044.044-.024 0-.048-.016-.048-.044 0-.616.928-.68.928-1.376 0-.236-.064-.488-.268-.488-.1 0-.196.056-.196.148 0 .108.14.164.14.272a.277.277 0 0 1-.552 0c0-.304.288-.512.608-.512.38 0 .732.228.732.58 0 .604-.6.636-.984.88a.497.497 0 0 1 .108-.012c.332 0 .444.236.684.236.192 0 .152-.152.22-.152.024 0 .048.02.048.048 0 .088-.176.42-.552.42zm-.2 1.549h.468c0 .191.108.375.288.375.032 0 .048.02.048.044s-.016.048-.048.048c-.176 0-.348-.052-.524-.052s-.348.052-.524.052c-.032 0-.048-.024-.048-.048s.016-.044.048-.044c.18 0 .292-.184.292-.376zm-.792-.125c0-.048.56-.572.56-1.344 0-.04.028-.076.064-.064.092.028.188.052.284.052s.192-.024.284-.052c.056-.016.092.036.068.064l-1.136 1.32h.668v-.524c0-.136.136-.108.272-.288.088-.12.092-.224.144-.224.024 0 .052.02.052.056v.98h.288c.04 0 .06.028.06.056s-.02.06-.06.06h-.288v.032h-.468v-.032h-.668c-.092 0-.124-.056-.124-.092z"/>
    <rect width=".13" height="5.689" x="-.065" y="-3.375" fill="currentColor" ry=".04" transform="translate(17.084 14.411)"/>
    <path fill="currentColor" d="M17.15 11.076v1h-.064v-1h.064zm0 0c0 .788.828 1.344.828 2.132 0 .284-.06.564-.165.828a.097.097 0 0 1-.08.048c-.052 0-.104-.044-.092-.108a1.95 1.95 0 0 0 .169-.768c0-.412-.376-.832-.66-1.132v-1z"/>
    <path fill="currentColor" stroke="currentColor" stroke-linecap="round" stroke-linejoin="round" stroke-width=".08" d="M100.44 19.211v.4l-5.559 2v-.4zm0 .81v.4l-5.559 2v-.4z"/>
    <path fill="currentColor" d="M19.117 21.367c.264 0 .432.144.432.356 0 .356-.452.732-.872.732-.264 0-.432-.144-.432-.356 0-.356.452-.732.872-.732z"/>
    <text fill="currentColor" class="scale-degree" font-family="serif" font-size="2.2" transform="translate(18.245 27.51)">
<tspan>➀</tspan>
</text>
    <rect width=".13" height="3.112" x="-.065" y="-1.314" fill="currentColor" ry=".04" transform="translate(18.31 23.411)"/>
    <path fill="currentColor" stroke="currentColor" stroke-linecap="round" stroke-linejoin="round" stroke-width=".08" d="M90.027 19.711v.4l-5.558 1.5v-.4zm0 .81v.4l-5.558 1.5v-.4z"/>
    <path fill="currentColor" d="M21.28 13.591c.316 0 .184.392.364.392.064 0 .216-.192.244-.252.024-.048.092-.048.112 0l-.492 1.68c-.032.028-.068.04-.108.04s-.08-.012-.112-.04l.468-1.304a1.272 1.272 0 0 1-.42.088c-.188 0-.348-.136-.348-.316a.29.29 0 0 1 .292-.288zm.592 6.776c.264 0 .432.144.432.356 0 .356-.452.732-.872.732-.264 0-.432-.144-.432-.356 0-.356.452-.732.872-.732z"/>
    <rect width=".13" height="3.624" x="-.065" y="-2.314" fill="currentColor" ry=".04" transform="translate(21.064 23.411)"/>
    <path fill="currentColor" stroke="currentColor" stroke-linecap="round" stroke-linejoin="round" stroke-width=".08" d="M77.587 25.211v.4l-5.558 1.38v-.4zm0 .81v.4l-5.558 1.38v-.4z"/>
    <path fill="currentColor" d="M24.626 19.367c.264 0 .432.144.432.356 0 .356-.452.732-.872.732-.264 0-.432-.144-.432-.356 0-.356.452-.732.872-.732z"/>
    <rect width=".13" height="4.135" x="-.065" y="-3.314" fill="currentColor" ry=".04" transform="translate(23.819 23.411)"/>
    <path fill="currentColor" stroke="currentColor" stroke-linecap="round" stroke-linejoin="round" stroke-width=".08" d="M67.174 24.211v.4l-5.558 1.19v-.4zm0 .81v.4l-5.558 1.19v-.4z"/>
    <path fill="currentColor" d="M27.13 14.367c.264 0 .432.144.432.356 0 .356-.452.732-.872.732-.264 0-.432-.144-.432-.356 0-.356.452-.732.872-.732zm0 2c.264 0 .432.144.432.356 0 .356-.452.732-.872.732-.264 0-.432-.144-.432-.356 0-.356.452-.732.872-.732z"/>
    <text fill="currentColor" class="scale-degree" font-family="serif" font-size="2.2" transform="translate(26.258 10.674)">
<tspan>➋</tspan>
</text>
    <path fill="currentColor" d="M26.758 22.591c.316 0 .18.392.36.392.06 0 .2-.196.228-.252.024-.048.092-.048.112 0l-.716 2.68c-.032.028-.068.04-.108.04s-.08-.012-.112-.04l.404-1.308a1.3 1.3 0 0 1-.424.092c-.188 0-.348-.136-.348-.316 0-.16.128-.288.288-.288.316 0 .184.392.364.392.064 0 .22-.204.24-.272l.184-.604a1.249 1.249 0 0 1-.416.088c-.188 0-.348-.136-.348-.316a.29.29 0 0 1 .292-.288z"/>
    <rect width=".13" height="5.314" x="-.065" y="-3" fill="currentColor" ry=".04" transform="translate(27.497 14.411)"/>
    <path fill="currentColor" d="M27.562 11.451v1h-.064v-1h.064zm0 0c0 .788.828 1.344.828 2.132 0 .284-.06.564-.164.828a.097.097 0 0 1-.08.048c-.052 0-.104-.044-.092-.108.104-.244.168-.504.168-.768 0-.412-.376-.832-.66-1.132v-1z"/>
    <path fill="currentColor" stroke="currentColor" stroke-linecap="round" stroke-linejoin="round" stroke-width=".08" d="M55.922 24.401v.4l-5.559 1.5v-.4zm0 .81v.4l-5.559 1.5v-.4z"/>
    <path fill="currentColor" d="M29.53 21.867c.264 0 .432.144.432.356 0 .356-.452.732-.872.732-.264 0-.432-.144-.432-.356 0-.356.452-.732.872-.732z"/>
    <text fill="currentColor" class="scale-degree" font-family="serif" font-size="2.2" transform="translate(28.658 27.7)">
<tspan>➆</tspan>
</text>
    <rect width=".13" height="2.8" x="-.065" y="-.814" fill="currentColor" ry=".04" transform="translate(28.723 23.411)"/>
    <text fill="currentColor" class="schema" font-family="serif" font-size="1.96" transform="translate(75.413 5.206)">
<tspan>Prinner</tspan>
</text>
    <path fill="currentColor" d="M31.692 13.591c.316 0 .184.392.364.392.064 0 .216-.192.244-.252.024-.048.092-.048.112 0l-.492 1.68c-.032.028-.068.04-.108.04s-.08-.012-.112-.04l.468-1.304a1.272 1.272 0 0 1-.42.088c-.188 0-.348-.136-.348-.316a.29.29 0 0 1 .292-.288zm.592 7.276c.264 0 .432.144.432.356 0 .356-.452.732-.872.732-.264 0-.432-.144-.432-.356 0-.356.452-.732.872-.732z"/>
    <rect width=".13" height="3.219" x="-.065" y="-1.814" fill="currentColor" ry=".04" transform="translate(31.477 23.411)"/>
    <path stroke="currentColor" stroke-linecap="round" stroke-linejoin="round" stroke-width=".1" d="m96.92 5.783.5 1m-37.744-1-.5 1m.5-1H96.92" class="schema"/>
    <path fill="currentColor" d="M35.038 19.367c.264 0 .432.144.432.356 0 .356-.452.732-.872.732-.264 0-.432-.144-.432-.356 0-.356.452-.732.872-.732z"/>
    <rect width=".13" height="4.138" x="-.065" y="-3.314" fill="currentColor" ry=".04" transform="translate(34.231 23.411)"/>
    <path fill="currentColor" stroke="currentColor" stroke-linecap="round" stroke-linejoin="round" stroke-width=".08" d="M45.509 23.211v.4l-5.558 1.19v-.4zm0 .81v.4l-5.558 1.19v-.4zm-11.253-.81v.4l-5.558 1.19v-.4zm0 .81v.4l-5.558 1.19v-.4z"/>
    <path fill="currentColor" d="M38.383 13.367c.264 0 .432.144.432.356 0 .356-.452.732-.872.732-.264 0-.432-.144-.432-.356 0-.356.452-.732.872-.732zm0 1.5c.264 0 .432.144.432.356 0 .356-.452.732-.872.732-.264 0-.432-.144-.432-.356 0-.356.452-.732.872-.732z"/>
    <text fill="currentColor" class="scale-degree" font-family="serif" font-size="2.2" transform="translate(37.51 9.924)">
<tspan>➍</tspan>
</text>
    <text fill="currentColor" class="scale-degree" font-family="serif" font-size="2.2" transform="translate(15.845 10.299)">
<tspan>➌</tspan>
</text>
    <path fill="currentColor" d="M38.01 22.591c.317 0 .18.392.36.392.06 0 .2-.196.229-.252.024-.048.092-.048.112 0l-.716 2.68c-.032.028-.068.04-.108.04s-.08-.012-.112-.04l.404-1.308a1.3 1.3 0 0 1-.424.092c-.188 0-.348-.136-.348-.316 0-.16.128-.288.288-.288.316 0 .184.392.364.392.064 0 .22-.204.24-.272l.184-.604a1.249 1.249 0 0 1-.416.088c-.188 0-.348-.136-.348-.316a.29.29 0 0 1 .292-.288zm-21.293-6.224c.264 0 .432.144.432.356 0 .356-.452.732-.872.732-.264 0-.432-.144-.432-.356 0-.356.452-.732.872-.732z"/>
    <rect width=".13" height="4.564" x="-.065" y="-3.75" fill="currentColor" ry=".04" transform="translate(38.75 14.411)"/>
    <path fill="currentColor" d="M38.815 10.701v1h-.064v-1h.064zm0 0c0 .788.828 1.344.828 2.132 0 .284-.06.564-.164.828a.097.097 0 0 1-.08.048c-.052 0-.104-.044-.092-.108.104-.244.168-.504.168-.768 0-.412-.376-.832-.66-1.132v-1zm-22.098 3.166c.264 0 .432.144.432.356 0 .356-.452.732-.872.732-.264 0-.432-.144-.432-.356 0-.356.452-.732.872-.732z"/>
    <path fill="currentColor" stroke="currentColor" stroke-linecap="round" stroke-linejoin="round" stroke-width=".08" d="M23.844 23.211v.4l-5.559 1v-.4zm0 .81v.4l-5.559 1v-.4z"/>
    <path fill="currentColor" d="M40.783 22.367c.264 0 .432.144.432.356 0 .356-.452.732-.872.732-.264 0-.432-.144-.432-.356 0-.356.452-.732.872-.732z"/>
    <text fill="currentColor" class="scale-degree" font-family="serif" font-size="2.2" transform="translate(39.91 27.7)">
<tspan>➅</tspan>
</text>
    <rect width=".13" height="2.3" x="-.065" y="-.314" fill="currentColor" ry=".04" transform="translate(39.976 23.411)"/>
    <text fill="currentColor" class="schema" font-family="serif" font-size="1.96" transform="translate(30.471 5.956)">
<tspan>Romanesca</tspan>
</text>
    <path fill="currentColor" d="M42.945 13.591c.316 0 .184.392.364.392.064 0 .216-.192.244-.252.024-.048.092-.048.112 0l-.492 1.68c-.032.028-.068.04-.108.04s-.08-.012-.112-.04l.468-1.304a1.272 1.272 0 0 1-.42.088c-.188 0-.348-.136-.348-.316a.29.29 0 0 1 .292-.288zm.592 7.776c.264 0 .432.144.432.356 0 .356-.452.732-.872.732-.264 0-.432-.144-.432-.356 0-.356.452-.732.872-.732z"/>
    <rect width=".13" height="2.719" x="-.065" y="-1.314" fill="currentColor" ry=".04" transform="translate(42.73 23.411)"/>
    <path stroke="currentColor" stroke-linecap="round" stroke-linejoin="round" stroke-width=".1" d="m53.577 6.533.5 1m-37.732-1-.5 1m.5-1h37.232" class="schema"/>
    <path fill="currentColor" d="M46.291 19.867c.264 0 .432.144.432.356 0 .356-.452.732-.872.732-.264 0-.432-.144-.432-.356 0-.356.452-.732.872-.732z"/>
    <rect width=".13" height="3.638" x="-.065" y="-2.814" fill="currentColor" ry=".04" transform="translate(45.484 23.411)"/>
    <path fill="currentColor" d="M48.795 13.867c.264 0 .432.144.432.356 0 .356-.452.732-.872.732-.264 0-.432-.144-.432-.356 0-.356.452-.732.872-.732z"/>
    <path fill="currentColor" d="M48.795 14.867c.264 0 .432.144.432.356 0 .356-.452.732-.872.732-.264 0-.432-.144-.432-.356 0-.356.452-.732.872-.732z"/>
    <text fill="currentColor" class="scale-degree" font-family="serif" font-size="2.2" transform="translate(47.923 10.299)">
<tspan>➌</tspan>
</text>
    <path fill="currentColor" d="M48.423 22.591c.316 0 .18.392.36.392.06 0 .2-.196.228-.252.024-.048.092-.048.112 0l-.716 2.68c-.032.028-.068.04-.108.04s-.08-.012-.112-.04l.404-1.308a1.3 1.3 0 0 1-.424.092c-.188 0-.348-.136-.348-.316 0-.16.128-.288.288-.288.316 0 .184.392.364.392.064 0 .22-.204.24-.272l.184-.604a1.249 1.249 0 0 1-.416.088c-.188 0-.348-.136-.348-.316a.29.29 0 0 1 .292-.288z"/>
    <rect width=".13" height="4.189" x="-.065" y="-3.375" fill="currentColor" ry=".04" transform="translate(49.162 14.411)"/>
    <path fill="currentColor" d="M49.227 11.076v1h-.064v-1h.064zm0 0c0 .788.828 1.344.828 2.132 0 .284-.06.564-.164.828a.097.097 0 0 1-.08.048c-.052 0-.104-.044-.092-.108.104-.244.168-.504.168-.768 0-.412-.376-.832-.66-1.132v-1zm1.968 11.791c.264 0 .432.144.432.356 0 .356-.452.732-.872.732-.264 0-.432-.144-.432-.356 0-.356.452-.732.872-.732z"/>
    <text fill="currentColor" class="scale-degree" font-family="serif" font-size="2.2" transform="translate(50.323 29.2)">
<tspan>➄</tspan>
</text>
    <rect width=".13" height="3.297" x="-.065" y=".186" fill="currentColor" ry=".04" transform="translate(50.388 23.411)"/>
    <path fill="currentColor" d="M53.357 13.591c.316 0 .184.392.364.392.064 0 .216-.192.244-.252.024-.048.092-.048.112 0l-.492 1.68c-.032.028-.068.04-.108.04s-.08-.012-.112-.04l.468-1.304a1.272 1.272 0 0 1-.42.088c-.188 0-.348-.136-.348-.316a.29.29 0 0 1 .292-.288zm.593 7.776c.263 0 .431.144.431.356 0 .356-.452.732-.872.732-.264 0-.432-.144-.432-.356 0-.356.452-.732.872-.732z"/>
    <rect width=".13" height="4.064" x="-.065" y="-1.314" fill="currentColor" ry=".04" transform="translate(53.142 23.411)"/>
    <path fill="currentColor" d="M56.704 20.367c.264 0 .432.144.432.356 0 .356-.452.732-.872.732-.264 0-.432-.144-.432-.356 0-.356.452-.732.872-.732z"/>
    <rect width=".13" height="4.331" x="-.065" y="-2.314" fill="currentColor" ry=".04" transform="translate(55.897 23.411)"/>
    <path fill="currentColor" d="M60.048 12.367c.264 0 .432.144.432.356 0 .356-.452.732-.872.732-.264 0-.432-.144-.432-.356 0-.356.452-.732.872-.732z"/>
    <path fill="currentColor" d="M60.048 13.367c.264 0 .432.144.432.356 0 .356-.452.732-.872.732-.264 0-.432-.144-.432-.356 0-.356.452-.732.872-.732zm0 1.5c.264 0 .432.144.432.356 0 .356-.452.732-.872.732-.264 0-.432-.144-.432-.356 0-.356.452-.732.872-.732z"/>
    <path fill="currentColor" d="M60.048 15.867c.264 0 .432.144.432.356 0 .356-.452.732-.872.732-.264 0-.432-.144-.432-.356 0-.356.452-.732.872-.732z"/>
    <text fill="currentColor" class="scale-degree" font-family="serif" font-size="2.2" transform="translate(59.176 9.174)">
<tspan>➏</tspan>
</text>
    <path fill="currentColor" d="M59.676 22.591c.316 0 .18.392.36.392.06 0 .2-.196.228-.252.024-.048.092-.048.112 0l-.716 2.68c-.032.028-.068.04-.108.04s-.08-.012-.112-.04l.404-1.308a1.3 1.3 0 0 1-.424.092c-.188 0-.348-.136-.348-.316 0-.16.128-.288.288-.288.316 0 .184.392.364.392.064 0 .22-.204.24-.272l.184-.604a1.249 1.249 0 0 1-.416.088c-.188 0-.348-.136-.348-.316a.29.29 0 0 1 .292-.288z"/>
    <rect width=".13" height="6.314" x="-.065" y="-4.5" fill="currentColor" ry=".04" transform="translate(60.415 14.411)"/>
    <path fill="currentColor" d="M60.48 9.951v1h-.064v-1h.064zm0 0c0 .788.828 1.344.828 2.132 0 .284-.06.564-.164.828a.097.097 0 0 1-.08.048c-.052 0-.104-.044-.092-.108.104-.244.168-.504.168-.768 0-.412-.376-.832-.66-1.132v-1zm1.968 13.416c.264 0 .432.144.432.356 0 .356-.452.732-.872.732-.264 0-.432-.144-.432-.356 0-.356.452-.732.872-.732z"/>
    <text fill="currentColor" class="scale-degree" font-family="serif" font-size="2.2" transform="translate(61.576 28.7)">
<tspan>➃</tspan>
</text>
    <rect width=".13" height="2.3" x="-.065" y=".686" fill="currentColor" ry=".04" transform="translate(61.64 23.411)"/>
    <path fill="currentColor" d="M64.61 13.591c.316 0 .184.392.364.392.064 0 .216-.192.244-.252.024-.048.092-.048.112 0l-.492 1.68c-.032.028-.068.04-.108.04s-.08-.012-.112-.04l.468-1.304a1.272 1.272 0 0 1-.42.088c-.188 0-.348-.136-.348-.316a.29.29 0 0 1 .292-.288zm.592 8.776c.264 0 .432.144.432.356 0 .356-.452.732-.872.732-.264 0-.432-.144-.432-.356 0-.356.452-.732.872-.732z"/>
    <rect width=".13" height="2.719" x="-.065" y="-.314" fill="currentColor" ry=".04" transform="translate(64.395 23.411)"/>
    <path fill="currentColor" d="M67.956 21.367c.264 0 .432.144.432.356 0 .356-.452.732-.872.732-.264 0-.432-.144-.432-.356 0-.356.452-.732.872-.732z"/>
    <rect width=".13" height="3.138" x="-.065" y="-1.314" fill="currentColor" ry=".04" transform="translate(67.15 23.411)"/>
    <path fill="currentColor" d="M70.46 12.867c.265 0 .433.144.433.356 0 .356-.453.732-.873.732-.263 0-.431-.144-.431-.356 0-.356.451-.732.871-.732z"/>
    <path fill="currentColor" d="M70.46 13.867c.265 0 .433.144.433.356 0 .356-.453.732-.873.732-.263 0-.431-.144-.431-.356 0-.356.451-.732.871-.732z"/>
    <path fill="currentColor" d="M70.46 14.867c.265 0 .433.144.433.356 0 .356-.453.732-.873.732-.263 0-.431-.144-.431-.356 0-.356.451-.732.871-.732zm0 1.5c.265 0 .433.144.433.356 0 .356-.453.732-.873.732-.263 0-.431-.144-.431-.356 0-.356.451-.732.871-.732z"/>
    <text fill="currentColor" class="scale-degree" font-family="serif" font-size="2.2" transform="translate(69.588 9.549)">
<tspan>➎</tspan>
</text>
    <path fill="currentColor" d="M70.088 22.591c.317 0 .18.392.36.392.06 0 .2-.196.229-.252.023-.048.091-.048.111 0l-.716 2.68c-.032.028-.068.04-.108.04s-.08-.012-.112-.04l.404-1.308a1.3 1.3 0 0 1-.424.092c-.188 0-.348-.136-.348-.316 0-.16.128-.288.288-.288.316 0 .184.392.364.392.064 0 .22-.204.24-.272l.184-.604a1.249 1.249 0 0 1-.416.088c-.188 0-.348-.136-.348-.316a.29.29 0 0 1 .292-.288z"/>
    <rect width=".13" height="6.439" x="-.065" y="-4.125" fill="currentColor" ry=".04" transform="translate(70.828 14.411)"/>
    <path fill="currentColor" d="M70.893 10.326v1h-.064v-1h.064zm0 0c0 .788.828 1.344.828 2.132 0 .284-.06.564-.164.828a.097.097 0 0 1-.08.048c-.052 0-.104-.044-.092-.108.104-.244.168-.504.168-.768 0-.412-.376-.832-.66-1.132v-1zm1.967 13.541c.265 0 .433.144.433.356 0 .356-.453.732-.873.732-.263 0-.431-.144-.431-.356 0-.356.451-.732.871-.732z"/>
    <text fill="currentColor" class="scale-degree" font-family="serif" font-size="2.2" transform="translate(71.989 29.89)">
<tspan>➂</tspan>
</text>
    <rect width=".13" height="2.988" x="-.065" y="1.186" fill="currentColor" ry=".04" transform="translate(72.053 23.411)"/>
    <path fill="currentColor" d="M75.023 13.591c.316 0 .184.392.364.392.064 0 .216-.192.244-.252.024-.048.092-.048.112 0l-.492 1.68c-.032.028-.068.04-.108.04s-.08-.012-.112-.04l.468-1.304a1.272 1.272 0 0 1-.42.088c-.188 0-.348-.136-.348-.316a.29.29 0 0 1 .292-.288zm.592 9.276c.264 0 .432.144.432.356 0 .356-.452.732-.872.732-.264 0-.432-.144-.432-.356 0-.356.452-.732.872-.732z"/>
    <rect width=".13" height="3.314" x="-.065" y=".186" fill="currentColor" ry=".04" transform="translate(74.808 23.411)"/>
    <path fill="currentColor" d="M78.369 21.367c.264 0 .432.144.432.356 0 .356-.452.732-.872.732-.264 0-.432-.144-.432-.356 0-.356.452-.732.872-.732z"/>
    <rect width=".13" height="4.14" x="-.065" y="-1.314" fill="currentColor" ry=".04" transform="translate(77.562 23.411)"/>
    <path fill="currentColor" d="M81.726 13.367c.264 0 .432.144.432.356 0 .356-.452.732-.872.732-.264 0-.432-.144-.432-.356 0-.356.452-.732.872-.732z"/>
    <path fill="currentColor" d="M81.726 14.367c.264 0 .432.144.432.356 0 .356-.452.732-.872.732-.264 0-.432-.144-.432-.356 0-.356.452-.732.872-.732z"/>
    <path fill="currentColor" d="M81.726 15.367c.264 0 .432.144.432.356 0 .356-.452.732-.872.732-.264 0-.432-.144-.432-.356 0-.356.452-.732.872-.732zm0 1.5c.264 0 .432.144.432.356 0 .356-.452.732-.872.732-.264 0-.432-.144-.432-.356 0-.356.452-.732.872-.732z"/>
    <text fill="currentColor" class="scale-degree" font-family="serif" font-size="2.2" transform="translate(80.854 9.924)">
<tspan>➍</tspan>
</text>
    <path fill="currentColor" d="M81.354 22.591c.316 0 .18.392.36.392.06 0 .2-.196.228-.252.024-.048.092-.048.112 0l-.716 2.68c-.032.028-.068.04-.108.04s-.08-.012-.112-.04l.404-1.308a1.3 1.3 0 0 1-.424.092c-.188 0-.348-.136-.348-.316 0-.16.128-.288.288-.288.316 0 .184.392.364.392.064 0 .22-.204.24-.272l.184-.604a1.249 1.249 0 0 1-.416.088c-.188 0-.348-.136-.348-.316a.29.29 0 0 1 .292-.288z"/>
    <rect width=".16" height="13.1" y="-6.55" fill="currentColor" ry=".05" transform="translate(5.63 18.911)"/>
    <rect width=".13" height="6.564" x="-.065" y="-3.75" fill="currentColor" ry=".04" transform="translate(82.094 14.411)"/>
    <path fill="currentColor" d="M82.159 10.701v1h-.064v-1h.064zm0 0c0 .788.828 1.344.828 2.132 0 .284-.06.564-.164.828a.097.097 0 0 1-.08.048c-.052 0-.104-.044-.092-.108.104-.244.168-.504.168-.768 0-.412-.376-.832-.66-1.132v-1zM5.007 20.375c0-1.02-.528-1.452-.528-1.464 0-.072.528-.384.528-1.464 0-1.044-.432-1.956-.432-3.12 0-.756.18-1.464.708-2.004.06-.06.156.036.096.096-.396.396-.516.9-.516 1.44 0 1.02.408 1.92.408 3.06 0 .744-.18 1.452-.696 1.992.516.54.696 1.248.696 1.992 0 1.14-.408 2.04-.408 3.06 0 .54.12 1.044.516 1.44.06.06-.036.156-.096.096-.528-.54-.708-1.248-.708-2.004 0-1.164.432-2.076.432-3.12zm79.119 3.992c.264 0 .432.144.432.356 0 .356-.452.732-.872.732-.264 0-.432-.144-.432-.356 0-.356.452-.732.872-.732z"/>
    <text fill="currentColor" class="scale-degree" font-family="serif" font-size="2.2" transform="translate(83.254 27.51)">
<tspan>➁</tspan>
</text>
    <rect width=".13" height="3.331" x="-.065" y="-2.017" fill="currentColor" ry=".04" transform="translate(84.494 23.411)"/>
    <path fill="currentColor" d="M86.289 13.591c.316 0 .184.392.364.392.064 0 .216-.192.244-.252.024-.048.092-.048.112 0l-.492 1.68c-.032.028-.068.04-.108.04s-.08-.012-.112-.04l.468-1.304a1.272 1.272 0 0 1-.42.088c-.188 0-.348-.136-.348-.316a.29.29 0 0 1 .292-.288zm.591 9.776c.265 0 .433.144.433.356 0 .356-.452.732-.872.732-.264 0-.432-.144-.432-.356 0-.356.452-.732.872-.732z"/>
    <rect width=".13" height="3.064" x="-.065" y="-2.75" fill="currentColor" ry=".04" transform="translate(87.248 23.411)"/>
    <path fill="currentColor" d="M89.635 21.867c.264 0 .432.144.432.356 0 .356-.452.732-.872.732-.264 0-.432-.144-.432-.356 0-.356.452-.732.872-.732z"/>
    <rect width=".13" height="2.297" x="-.065" y="-3.483" fill="currentColor" ry=".04" transform="translate(90.002 23.411)"/>
    <rect width=".13" height="2.291" x="-.065" y="-3.977" fill="currentColor" ry=".04" transform="translate(100.415 23.411)"/>
    <path fill="currentColor" d="M92.139 13.867c.264 0 .432.144.432.356 0 .356-.452.732-.872.732-.264 0-.432-.144-.432-.356 0-.356.452-.732.872-.732z"/>
    <path fill="currentColor" d="M92.139 14.867c.264 0 .432.144.432.356 0 .356-.452.732-.872.732-.264 0-.432-.144-.432-.356 0-.356.452-.732.872-.732zm0 1.5c.264 0 .432.144.432.356 0 .356-.452.732-.872.732-.264 0-.432-.144-.432-.356 0-.356.452-.732.872-.732z"/>
    <path fill="currentColor" d="M92.139 17.367c.264 0 .432.144.432.356 0 .356-.452.732-.872.732-.264 0-.432-.144-.432-.356 0-.356.452-.732.872-.732z"/>
    <text fill="currentColor" class="scale-degree" font-family="serif" font-size="2.2" transform="translate(91.267 10.299)">
<tspan>➌</tspan>
</text>
    <path fill="currentColor" d="M91.767 22.591c.316 0 .18.392.36.392.06 0 .2-.196.228-.252.024-.048.092-.048.112 0l-.716 2.68c-.032.028-.068.04-.108.04s-.08-.012-.112-.04l.404-1.308a1.3 1.3 0 0 1-.424.092c-.188 0-.348-.136-.348-.316 0-.16.128-.288.288-.288.316 0 .184.392.364.392.064 0 .22-.204.24-.272l.184-.604a1.249 1.249 0 0 1-.416.088c-.188 0-.348-.136-.348-.316a.29.29 0 0 1 .292-.288z"/>
    <rect width=".13" height="6.689" x="-.065" y="-3.375" fill="currentColor" ry=".04" transform="translate(92.506 14.411)"/>
    <path fill="currentColor" d="M92.571 11.076v1h-.064v-1h.064zm0 0c0 .788.828 1.344.828 2.132 0 .284-.06.564-.164.828a.097.097 0 0 1-.08.048c-.052 0-.104-.044-.092-.108.104-.244.168-.504.168-.768 0-.412-.376-.832-.66-1.132v-1zm7.476 10.291c.264 0 .432.144.432.356 0 .356-.452.732-.872.732-.264 0-.432-.144-.432-.356 0-.356.452-.732.872-.732zm-5.508 3.5c.264 0 .432.144.432.356 0 .356-.452.732-.872.732-.264 0-.432-.144-.432-.356 0-.356.452-.732.872-.732z"/>
    <text fill="currentColor" class="scale-degree" font-family="serif" font-size="2.2" transform="translate(93.667 28.005)">
<tspan>➀</tspan>
</text>
    <rect width=".13" height="3.837" x="-.065" y="-2.023" fill="currentColor" ry=".04" transform="translate(94.906 23.411)"/>
    <path fill="currentColor" d="M96.701 13.591c.316 0 .184.392.364.392.064 0 .216-.192.244-.252.024-.048.092-.048.112 0l-.492 1.68c-.032.028-.068.04-.108.04s-.08-.012-.112-.04l.468-1.304a1.272 1.272 0 0 1-.42.088c-.188 0-.348-.136-.348-.316a.29.29 0 0 1 .292-.288zm.592 9.276c.264 0 .432.144.432.356 0 .356-.452.732-.872.732-.264 0-.432-.144-.432-.356 0-.356.452-.732.872-.732z"/>
    <rect width=".13" height="2.814" x="-.065" y="-3" fill="currentColor" ry=".04" transform="translate(97.66 23.411)"/>
</svg>
