<svg xmlns="http://www.w3.org/2000/svg" width="98.78mm" height="49.48mm" class="d-block mx-auto d-block mx-auto" version="1.2" viewBox="0 0 56.21 28.159">
    <style>
        tspan{white-space:pre}
    </style>
    <rect width="1.956" height=".2" x="20.841" y="-.1" fill="currentColor" ry=".1" transform="translate(5.69 7.923)"/>
    <path stroke="currentColor" stroke-linecap="round" stroke-linejoin="round" stroke-width=".1" d="M5.74 12.924h43.558m-43.558-1h43.558m-43.558-1h43.558m-43.558-1h43.558m-43.558-1h43.558"/>
    <rect width=".19" height="4.95" y="9.128" fill="currentColor" ry="0" transform="translate(49.157 3.845)"/>
    <path stroke="currentColor" stroke-linecap="round" stroke-linejoin="round" stroke-width=".1" d="M5.74 21.924h43.558m-43.558-1h43.558m-43.558-1h43.558m-43.558-1h43.558m-43.558-1h43.558"/>
    <rect width=".19" height="4.05" y="-2.05" fill="currentColor" ry="0" transform="translate(49.157 19.924)"/>
    <rect width=".19" height="4.05" y="-2" fill="currentColor" ry="0" transform="translate(49.157 10.924)"/>
    <rect width=".19" height="4.95" y="9.128" fill="currentColor" ry="0" transform="translate(31.432 3.845)"/>
    <rect width=".19" height="4.05" y="-2.05" fill="currentColor" ry="0" transform="translate(31.432 19.924)"/>
    <rect width=".19" height="4.05" y="-2" fill="currentColor" ry="0" transform="translate(31.432 10.924)"/>
    <path fill="currentColor" stroke="currentColor" stroke-linecap="round" stroke-linejoin="round" stroke-width=".08" d="M46.744 17.533v.4l-3.629-1.62v-.4zm-7.283-1.31v.4l-4.004 1.31v-.4z"/>
    <path fill="currentColor" d="M16.717 8.88c.264 0 .432.143.432.355 0 .357-.452.733-.872.733-.264 0-.432-.145-.432-.357 0-.356.452-.732.872-.732z"/>
    <text fill="currentColor" class="scale-degree" font-family="serif" font-size="2.2" transform="translate(15.845 5.726)">
<tspan>➏</tspan>
</text>
    <path fill="currentColor" d="M15.31 7.715c0 .06.031.12.155.12.04 0 .184-.008.412-.112l.02-.096a.542.542 0 0 0-.324-.116c-.204 0-.264.124-.264.204zm1.083.492c0 .244-.188.46-.392.46-.156 0-.224-.175-.224-.363a.74.74 0 0 1 .016-.165l.06-.303c-.08.031-.252.1-.404.1-.076 0-.24-.025-.24-.205 0-.152.128-.32.384-.32a.61.61 0 0 1 .328.1l.184-.928c.024.012.052.02.08.02.088 0 .192-.064.272-.14l-.212 1.064.256-.144a.622.622 0 0 1 .296-.08c.116 0 .212.04.256.112a.373.373 0 0 1 .276-.12c.144 0 .276.088.276.276 0 .196-.124.36-.26.36-.1 0-.152-.088-.152-.192 0-.2.148-.256.24-.256h.012c-.032-.056-.092-.08-.152-.08-.096 0-.2.064-.22.172l-.216 1.08c-.044-.028-.096-.044-.152-.044s-.116.016-.172.044l.216-1.08v-.028c0-.064-.048-.104-.116-.104a.236.236 0 0 0-.096.028l-.316.176-.028.124c.108.124.2.268.2.436zm-.24.26c.092 0 .14-.136.14-.244 0-.12-.056-.22-.128-.312l-.02.108c-.016.072-.052.224-.052.332 0 .068.016.116.06.116zm-8.598 5.996H7.53a.783.783 0 0 1-.78-.787c0-.233.212-.413.448-.413.216 0 .38.188.38.412 0 .208-.172.38-.38.38a.326.326 0 0 1-.124-.023c.104.156.272.26.468.26h.016zm.78-1.727a.69.69 0 0 0 .452-.657.764.764 0 0 0-.692-.76c.076.356.192.968.24 1.416zm-1.548-.925c0 .58.564.989 1.056.989.004 0 .188 0 .328-.025a17.343 17.343 0 0 0-.252-1.455c-.316.032-.496.244-.496.476 0 .176.1.364.324.492.02.02.028.04.028.06 0 .044-.04.088-.088.088-.06 0-.504-.248-.504-.748 0-.352.232-.696.64-.788a15.048 15.048 0 0 0-.184-.7c-.428.484-.852.972-.852 1.612zm.704-2.1c-.116-.383-.208-.68-.208-1.383 0-.46.22-.896.596-1.168a.06.06 0 0 1 .08 0c.272.32.532.98.532 1.432 0 .571-.344 1.02-.72 1.455.084.272.156.552.224.828.008 0 .028-.004.052-.004.62 0 1.024.512 1.024 1.044 0 .453-.296.849-.72.985.012.14.02.28.02.42 0 .075-.004.155-.008.231-.028.476-.352.9-.808.912l.004-.171c.372-.009.612-.369.636-.765a3.775 3.775 0 0 0-.008-.588c-.02.004-.176.032-.356.032-.772 0-1.332-.72-1.332-1.496 0-.708.524-1.224.992-1.764zm.712-1.451c0-.136.004-.264-.08-.516a1.153 1.153 0 0 0-.648 1.036c0 .208.048.46.144.776.32-.388.584-.792.584-1.296zm1.787.187c0-.031.02-.06.053-.071l.184-.068v-.632c0-.04.032-.076.072-.076s.076.036.076.076v.58l.332-.124V7.5c0-.04.036-.076.076-.076s.072.036.072.076v.58l.128-.048c.008-.004.02-.004.028-.004a.08.08 0 0 1 .08.08v.24c0 .032-.02.064-.052.076l-.184.064v.64l.128-.044c.008-.004.02-.004.028-.004a.08.08 0 0 1 .08.08v.24c0 .032-.02.06-.052.072l-.184.068v.632c0 .04-.032.076-.072.076s-.076-.036-.076-.076v-.58l-.332.124v.632c0 .04-.036.076-.076.076s-.072-.036-.072-.076v-.58l-.128.048c-.008.004-.02.004-.028.004a.08.08 0 0 1-.08-.08V9.5c0-.032.02-.064.052-.076l.184-.064v-.64l-.128.043c-.008.005-.02.005-.028.005a.08.08 0 0 1-.08-.08v-.24zm.717.097-.332.12v.64l.332-.12v-.64zm2.518 2.38c-.352 0-.36-.264-.576-.264-.12 0-.236.08-.248.22-.004.028-.024.044-.044.044-.024 0-.048-.016-.048-.044 0-.616.928-.68.928-1.376 0-.236-.064-.488-.268-.488-.1 0-.196.056-.196.148 0 .108.14.164.14.272a.277.277 0 0 1-.552 0c0-.304.288-.512.608-.512.38 0 .732.228.732.58 0 .604-.6.636-.984.88a.497.497 0 0 1 .108-.012c.332 0 .444.236.684.236.192 0 .152-.152.22-.152.024 0 .048.02.048.048 0 .088-.176.42-.552.42zm-.2 1.548h.468c0 .192.108.376.288.376.032 0 .048.02.048.044s-.016.048-.048.048c-.176 0-.348-.052-.524-.052s-.348.052-.524.052c-.032 0-.048-.024-.048-.048s.016-.044.048-.044c.18 0 .292-.184.292-.376zm-.792-.124c0-.048.56-.572.56-1.344 0-.04.028-.076.064-.064.092.028.188.052.284.052s.192-.024.284-.052c.056-.016.092.036.068.064l-1.136 1.32h.668V11.8c0-.136.136-.108.272-.288.088-.12.092-.224.144-.224.024 0 .052.02.052.056v.98h.288c.04 0 .06.028.06.056s-.02.06-.06.06h-.288v.032h-.468v-.032h-.668c-.092 0-.124-.056-.124-.092zm4.484 7.532c.264 0 .432.144.432.356 0 .356-.452.732-.872.732-.264 0-.432-.144-.432-.356 0-.356.452-.732.872-.732z"/>
    <text fill="currentColor" class="scale-degree" font-family="serif" font-size="2.2" transform="translate(15.845 25.712)">
<tspan>➃</tspan>
</text>
    <path fill="currentColor" d="M8.719 19.424c0-.112.092-.204.204-.204s.204.092.204.204-.092.204-.204.204-.204-.092-.204-.204zm0-1c0-.112.092-.204.204-.204s.204.092.204.204-.092.204-.204.204-.204-.092-.204-.204zm-1.3-.552c.688 0 1.172.352 1.172 1.004 0 1.052-1.052 1.656-2.064 2.084a.049.049 0 0 1-.036.016.053.053 0 0 1-.052-.052c0-.012.004-.024.016-.036.808-.473 1.648-1.06 1.648-1.973 0-.48-.252-.94-.684-.94-.296 0-.516.216-.616.504a.323.323 0 0 1 .136-.032c.22 0 .4.18.4.4 0 .232-.176.424-.4.424-.24 0-.448-.188-.448-.424 0-.532.408-.976.928-.976zm2.571.576c0-.032.02-.06.053-.072l.184-.068v-.632c0-.04.032-.076.072-.076s.076.035.076.075v.58l.332-.124V17.5c0-.04.036-.076.076-.076s.072.036.072.076v.58l.128-.048c.008-.004.02-.004.028-.004a.08.08 0 0 1 .08.08v.24c0 .032-.02.064-.052.076l-.184.064v.64l.128-.044c.008-.004.02-.004.028-.004a.08.08 0 0 1 .08.08v.24c0 .032-.02.06-.052.072l-.184.068v.632c0 .04-.032.076-.072.076s-.076-.036-.076-.076v-.58l-.332.124v.632c0 .04-.036.076-.076.076s-.072-.036-.072-.076v-.58l-.128.048c-.008.004-.02.004-.028.004a.08.08 0 0 1-.08-.08v-.24c0-.032.02-.064.052-.076l.184-.064v-.64l-.128.044c-.008.004-.02.004-.028.004a.08.08 0 0 1-.08-.08v-.24zm.717.096-.332.12v.64l.332-.12v-.64zm2.518 1.38c-.352 0-.36-.264-.576-.264-.12 0-.236.08-.248.22-.004.028-.024.044-.044.044-.024 0-.048-.016-.048-.044 0-.616.928-.68.928-1.376 0-.237-.064-.489-.268-.489-.1 0-.196.056-.196.148 0 .108.14.164.14.272a.277.277 0 0 1-.552 0c0-.304.288-.512.608-.512.38 0 .732.228.732.58 0 .604-.6.636-.984.88a.497.497 0 0 1 .108-.012c.332 0 .444.236.684.236.192 0 .152-.152.22-.152.024 0 .048.02.048.048 0 .088-.176.42-.552.42zm-.2 1.548h.468c0 .192.108.376.288.376.032 0 .048.02.048.044s-.016.048-.048.048c-.176 0-.348-.052-.524-.052s-.348.052-.524.052c-.032 0-.048-.024-.048-.048s.016-.044.048-.044c.18 0 .292-.184.292-.376zm-.792-.124c0-.048.56-.572.56-1.344 0-.04.028-.076.064-.064.092.028.188.052.284.052s.192-.024.284-.052c.056-.016.092.036.068.064l-1.136 1.32h.668V20.8c0-.136.136-.108.272-.288.088-.12.092-.224.144-.224.024 0 .052.02.052.056v.98h.288c.04 0 .06.028.06.056s-.02.06-.06.06h-.288v.032h-.468v-.032h-.668c-.092 0-.124-.056-.124-.092zM17.6 9.424a.224.224 0 1 1 .447-.001.224.224 0 0 1-.448 0z"/>
    <rect width=".13" height="3.312" x="-.065" y="-1.314" fill="currentColor" ry=".04" transform="translate(15.91 10.924)"/>
    <rect width=".13" height="2.814" x="-.065" y=".686" fill="currentColor" ry=".04" transform="translate(15.91 19.924)"/>
    <path fill="currentColor" stroke="currentColor" stroke-linecap="round" stroke-linejoin="round" stroke-width=".08" d="M34.914 9.372c1.587-1.266 6.192-1.055 7.659.35h0c-1.472-1.285-6.077-1.496-7.659-.35z"/>
    <path fill="currentColor" d="M20.671 17.88c.264 0 .432.144.432.356 0 .356-.452.732-.872.732-.264 0-.432-.144-.432-.356 0-.356.452-.732.872-.732z"/>
    <rect width=".13" height="4.814" x="-.065" y="-1.314" fill="currentColor" ry=".04" transform="translate(19.864 19.924)"/>
    <path fill="currentColor" stroke="currentColor" stroke-linecap="round" stroke-linejoin="round" stroke-width=".08" d="M25.229 10.473v.4l-1.085.25v-.4zm1.719.44v.4l-2.804.62v-.4z"/>
    <path fill="currentColor" d="M22.471 8.38c.264 0 .432.143.432.355 0 .357-.452.733-.872.733-.264 0-.432-.145-.432-.357 0-.356.452-.732.872-.732z"/>
    <rect width=".13" height="3.626" x="-.065" y="-1.814" fill="currentColor" ry=".04" transform="translate(21.665 10.924)"/>
    <path fill="currentColor" d="M24.976 7.88c.264 0 .432.144.432.356 0 .355-.452.731-.872.731-.264 0-.432-.144-.432-.356 0-.356.452-.732.872-.732zm0 12.5c.264 0 .432.144.432.356 0 .356-.452.732-.872.732-.264 0-.432-.144-.432-.356 0-.356.452-.732.872-.732z"/>
    <text fill="currentColor" class="scale-degree" font-family="serif" font-size="2.2" transform="translate(24.104 25.712)">
<tspan>➂</tspan>
</text>
    <rect width=".13" height="3.11" x="-.065" y="-2.314" fill="currentColor" ry=".04" transform="translate(24.169 10.924)"/>
    <rect width=".13" height="2.314" x="-.065" y="1.186" fill="currentColor" ry=".04" transform="translate(24.169 19.924)"/>
    <path fill="currentColor" stroke="currentColor" stroke-linecap="round" stroke-linejoin="round" stroke-width=".08" d="M21.69 11.724v.4l-1.086.037v-.4zm0 .81v.4l-5.805.19v-.4z"/>
    <path fill="currentColor" d="M27.73 6.88c.264 0 .432.144.432.356 0 .356-.452.732-.872.732-.264 0-.432-.144-.432-.356 0-.356.452-.732.872-.732zm.882.543a.224.224 0 1 1 .447 0 .224.224 0 0 1-.447 0z"/>
    <rect width=".13" height="3.518" x="-.065" y="-3.314" fill="currentColor" ry=".04" transform="translate(26.923 10.924)"/>
    <path fill="currentColor" stroke="currentColor" stroke-linecap="round" stroke-linejoin="round" stroke-width=".08" d="M28.748 23.224v.4H15.885v-.4z"/>
    <path fill="currentColor" d="M29.53 17.88c.264 0 .432.144.432.356 0 .356-.452.732-.872.732-.264 0-.432-.144-.432-.356 0-.356.452-.732.872-.732z"/>
    <rect width=".13" height="4.814" x="-.065" y="-1.314" fill="currentColor" ry=".04" transform="translate(28.723 19.924)"/>
    <path fill="currentColor" d="M32.886 9.534c.193 0 .328.112.328.277 0 .255-.3.502-.585.502-.194 0-.325-.112-.325-.277 0-.255.297-.502.582-.502z"/>
    <rect width=".16" height="13.1" y="-6.55" fill="currentColor" ry=".05" transform="translate(5.63 15.424)"/>
    <rect width=".13" height="2.386" x="-.065" y="-3.5" fill="currentColor" ry=".04" transform="translate(33.157 10.924)"/>
    <path fill="currentColor" d="M33.544 9.488c0-.034.12-.238.12-.54 0-.283-.252-.575-.442-.785h-.059v-.7h.059c0 .55.58.936.58 1.484 0 .2-.043.392-.115.577-.014.028-.04.037-.065.037-.039 0-.078-.028-.078-.073zM5.007 16.887c0-1.02-.528-1.452-.528-1.464 0-.072.528-.384.528-1.464 0-1.044-.432-1.956-.432-3.12 0-.756.18-1.464.708-2.004.06-.06.156.036.096.096-.396.396-.516.9-.516 1.44 0 1.02.408 1.92.408 3.06 0 .744-.18 1.452-.696 1.992.516.54.696 1.248.696 1.992 0 1.14-.408 2.04-.408 3.06 0 .54.12 1.044.516 1.44.06.06-.036.156-.096.096-.528-.54-.708-1.248-.708-2.004 0-1.164.432-2.076.432-3.12zM35.114 9.88c.265 0 .433.143.433.355 0 .357-.452.733-.872.733-.264 0-.432-.145-.432-.357 0-.356.451-.732.871-.732z"/>
    <text fill="currentColor" class="scale-degree" font-family="serif" font-size="2.2" transform="translate(34.242 7.903)">
<tspan>➍</tspan>
</text>
    <path fill="currentColor" d="M35.114 20.88c.265 0 .433.144.433.356 0 .356-.452.732-.872.732-.264 0-.432-.144-.432-.356 0-.356.451-.732.871-.732z"/>
    <text fill="currentColor" class="scale-degree" font-family="serif" font-size="2.2" transform="translate(34.242 24.022)">
<tspan>➁</tspan>
</text>
    <rect width=".13" height="3.314" x="-.065" y="-.314" fill="currentColor" ry=".04" transform="translate(34.307 10.924)"/>
    <rect width=".13" height="3.525" x="-.065" y="-2.211" fill="currentColor" ry=".04" transform="translate(35.482 19.924)"/>
    <path fill="currentColor" d="M39.069 18.38c.264 0 .432.144.432.356 0 .356-.452.732-.872.732-.264 0-.432-.144-.432-.356 0-.356.452-.732.872-.732z"/>
    <rect width=".13" height="2.293" x="-.065" y="-3.479" fill="currentColor" ry=".04" transform="translate(39.436 19.924)"/>
    <path fill="currentColor" d="M42.773 10.38c.264 0 .432.143.432.355 0 .357-.452.733-.872.733-.264 0-.432-.145-.432-.357 0-.356.452-.732.872-.732z"/>
    <text fill="currentColor" class="scale-degree" font-family="serif" font-size="2.2" transform="translate(41.901 8.136)">
<tspan>➌</tspan>
</text>
    <path fill="currentColor" d="M42.773 17.88c.264 0 .432.144.432.356 0 .356-.452.732-.872.732-.264 0-.432-.144-.432-.356 0-.356.452-.732.872-.732z"/>
    <text fill="currentColor" class="scale-degree" font-family="serif" font-size="2.2" transform="translate(41.901 24.022)">
<tspan>➀</tspan>
</text>
    <rect width=".13" height="3.189" x="-.065" y=".186" fill="currentColor" ry=".04" transform="translate(41.966 10.924)"/>
    <path fill="currentColor" d="M42.031 14.258h-.064v-1h.064v1zm0 0v-1c.388-.235.896-.591.896-1.035 0-.229-.06-.449-.16-.653-.012-.063.04-.107.092-.107.028 0 .06.012.08.044.1.224.16.468.16.716 0 .811-1.068 1.223-1.068 2.035z"/>
    <rect width=".13" height="2.095" x="-.065" y="-3.782" fill="currentColor" ry=".04" transform="translate(43.14 19.924)"/>
    <path fill="currentColor" d="M45.76 10.104c.316 0 .184.392.364.392.064 0 .216-.193.244-.253.024-.048.092-.048.112 0l-.492 1.68c-.032.028-.068.04-.108.04s-.08-.012-.112-.04l.468-1.304a1.272 1.272 0 0 1-.42.088c-.188 0-.348-.136-.348-.316a.29.29 0 0 1 .292-.288zm.592 11.276c.264 0 .432.144.432.356 0 .356-.452.732-.872.732-.264 0-.432-.144-.432-.356 0-.356.452-.732.872-.732z"/>
    <rect width=".13" height="4.032" x="-.065" y="-2.218" fill="currentColor" ry=".04" transform="translate(46.72 19.924)"/>
</svg>
