<svg xmlns="http://www.w3.org/2000/svg" width="568.328" height="45.25mm" class="d-block mx-auto d-block mx-auto" version="1.2" viewBox="0 0 85.57 25.749">
    <style>
        tspan{white-space:pre}
    </style>
    <rect width="1.956" height=".2" x="50.03" y="-.1" fill="currentColor" ry=".1" transform="translate(5.69 5.513)"/>
    <rect width="1.956" height=".2" x="37.625" y="-.1" fill="currentColor" ry=".1" transform="translate(5.69 5.513)"/>
    <rect width="1.956" height=".2" x="35.121" y="-.1" fill="currentColor" ry=".1" transform="translate(5.69 5.513)"/>
    <path stroke="currentColor" stroke-linecap="round" stroke-linejoin="round" stroke-width=".1" d="M5.74 10.514h72.918m-72.918-1h72.918m-72.918-1h72.918M5.74 7.513h72.918m-72.918-1h72.918"/>
    <rect width=".19" height="4.95" y="6.718" fill="currentColor" ry="0" transform="translate(78.517 3.845)"/>
    <path stroke="currentColor" stroke-linecap="round" stroke-linejoin="round" stroke-width=".1" d="M5.74 19.514h72.918m-72.918-1h72.918m-72.918-1h72.918m-72.918-1h72.918m-72.918-1h72.918"/>
    <rect width=".19" height="4.05" y="-2.05" fill="currentColor" ry="0" transform="translate(78.517 17.514)"/>
    <rect width=".19" height="4.05" y="-2" fill="currentColor" ry="0" transform="translate(78.517 8.514)"/>
    <rect width=".19" height="4.95" y="6.718" fill="currentColor" ry="0" transform="translate(45.474 3.845)"/>
    <rect width=".19" height="4.05" y="-2.05" fill="currentColor" ry="0" transform="translate(45.474 17.514)"/>
    <rect width=".19" height="4.05" y="-2" fill="currentColor" ry="0" transform="translate(45.474 8.514)"/>
    <path fill="currentColor" d="M49.156 18.47c.264 0 .432.144.432.356 0 .356-.452.732-.872.732-.264 0-.432-.144-.432-.356 0-.357.452-.733.872-.733zm-32.439-12c.264 0 .432.144.432.356 0 .356-.452.732-.872.732-.264 0-.432-.144-.432-.356 0-.356.452-.732.872-.732z"/>
    <text fill="currentColor" class="scale-degree" font-family="serif" font-size="2.2" transform="translate(15.845 5.726)">
<tspan>➏</tspan>
</text>
    <path fill="currentColor" d="M7.555 12.053H7.53a.783.783 0 0 1-.78-.788c0-.232.212-.412.448-.412.216 0 .38.188.38.412 0 .208-.172.38-.38.38a.326.326 0 0 1-.124-.023c.104.156.272.26.468.26h.016zm.78-1.728a.69.69 0 0 0 .452-.655.764.764 0 0 0-.692-.76c.076.355.192.967.24 1.415zm-1.548-.923c0 .58.564.988 1.056.988.004 0 .188 0 .328-.025a17.343 17.343 0 0 0-.252-1.455c-.316.032-.496.244-.496.476 0 .176.1.364.324.492.02.02.028.04.028.06 0 .044-.04.088-.088.088-.06 0-.504-.248-.504-.748 0-.352.232-.696.64-.788a15.048 15.048 0 0 0-.184-.7c-.428.484-.852.972-.852 1.612zm.704-2.1c-.116-.384-.208-.68-.208-1.384 0-.46.22-.896.596-1.168a.06.06 0 0 1 .08 0c.272.32.532.98.532 1.432 0 .571-.344 1.02-.72 1.455.084.272.156.552.224.828.008 0 .028-.004.052-.004.62 0 1.024.512 1.024 1.044 0 .452-.296.848-.72.984.012.14.02.28.02.42 0 .076-.004.156-.008.232-.028.476-.352.9-.808.912l.004-.172c.372-.008.612-.368.636-.764a3.775 3.775 0 0 0-.008-.588c-.02.004-.176.032-.356.032-.772 0-1.332-.72-1.332-1.496 0-.708.524-1.224.992-1.764zm.712-1.452c0-.136.004-.264-.08-.516a1.153 1.153 0 0 0-.648 1.036c0 .208.048.46.144.776.32-.388.584-.792.584-1.296zm1.787.187c0-.032.02-.06.053-.072l.184-.068v-.632c0-.04.032-.075.072-.075s.076.036.076.076v.58l.332-.124V5.09c0-.04.036-.076.076-.076s.072.036.072.076v.58l.128-.048c.008-.004.02-.004.028-.004a.08.08 0 0 1 .08.08v.24c0 .032-.02.064-.052.076l-.184.064v.64l.128-.044c.008-.004.02-.004.028-.004a.08.08 0 0 1 .08.08v.24c0 .032-.02.06-.052.072l-.184.068v.632c0 .04-.032.076-.072.076s-.076-.036-.076-.076v-.58l-.332.124v.632c0 .04-.036.076-.076.076s-.072-.036-.072-.076v-.58l-.128.048c-.008.004-.02.004-.028.004a.08.08 0 0 1-.08-.08v-.24c0-.032.02-.064.052-.076l.184-.064v-.64l-.128.044c-.008.004-.02.004-.028.004a.08.08 0 0 1-.08-.08v-.24zm.717.096-.332.12v.64l.332-.12v-.64zm2.518 2.381c-.352 0-.36-.264-.576-.264-.12 0-.236.08-.248.22-.004.028-.024.044-.044.044-.024 0-.048-.016-.048-.044 0-.616.928-.68.928-1.376 0-.236-.064-.488-.268-.488-.1 0-.196.056-.196.148 0 .108.14.164.14.272a.277.277 0 0 1-.552 0c0-.304.288-.512.608-.512.38 0 .732.228.732.58 0 .604-.6.636-.984.88a.497.497 0 0 1 .108-.012c.332 0 .444.236.684.236.192 0 .152-.152.22-.152.024 0 .048.02.048.048 0 .088-.176.42-.552.42zm-.2 1.548h.468c0 .192.108.376.288.376.032 0 .048.02.048.044s-.016.048-.048.048c-.176 0-.348-.052-.524-.052s-.348.052-.524.052c-.032 0-.048-.024-.048-.048s.016-.044.048-.044c.18 0 .292-.184.292-.376zm-.792-.124c0-.048.56-.572.56-1.344 0-.04.028-.076.064-.064.092.028.188.052.284.052s.192-.024.284-.052c.056-.016.092.036.068.064l-1.136 1.32h.668V9.39c0-.136.136-.108.272-.288.088-.12.092-.224.144-.224.024 0 .052.02.052.056v.98h.288c.04 0 .06.028.06.056s-.02.06-.06.06h-.288v.032h-.468v-.032h-.668c-.092 0-.124-.056-.124-.092zm4.484 7.532c.264 0 .432.144.432.356 0 .356-.452.732-.872.732-.264 0-.432-.144-.432-.356 0-.357.452-.733.872-.733z"/>
    <text fill="currentColor" class="scale-degree" font-family="serif" font-size="2.2" transform="translate(15.845 22.802)">
<tspan>➃</tspan>
</text>
    <path fill="currentColor" d="M8.719 17.014c0-.112.092-.204.204-.204s.204.092.204.204-.092.204-.204.204-.204-.092-.204-.204zm0-1a.204.204 0 0 1 .408-.001.204.204 0 0 1-.408.001zm-1.3-.552c.688 0 1.172.352 1.172 1.004 0 1.052-1.052 1.656-2.064 2.084a.049.049 0 0 1-.036.016.053.053 0 0 1-.052-.052c0-.012.004-.024.016-.036.808-.473 1.648-1.06 1.648-1.973 0-.48-.252-.94-.684-.94-.296 0-.516.216-.616.504a.323.323 0 0 1 .136-.032c.22 0 .4.18.4.4 0 .232-.176.424-.4.424-.24 0-.448-.188-.448-.424 0-.532.408-.976.928-.976zm2.571.576c0-.032.02-.06.053-.072l.184-.068v-.632c0-.04.032-.076.072-.076s.076.036.076.076v.58l.332-.124v-.632c0-.04.036-.076.076-.076s.072.036.072.076v.58l.128-.048c.008-.004.02-.004.028-.004a.08.08 0 0 1 .08.08v.24c0 .032-.02.064-.052.076l-.184.064v.64l.128-.044c.008-.004.02-.004.028-.004a.08.08 0 0 1 .08.08v.24c0 .032-.02.06-.052.072l-.184.067v.632c0 .04-.032.077-.072.077s-.076-.036-.076-.076v-.58l-.332.124v.632c0 .04-.036.076-.076.076s-.072-.036-.072-.076v-.58l-.128.048c-.008.004-.02.004-.028.004a.08.08 0 0 1-.08-.08v-.24c0-.032.02-.064.052-.076l.184-.064v-.64l-.128.044c-.008.004-.02.004-.028.004a.08.08 0 0 1-.08-.08v-.24zm.717.096-.332.12v.64l.332-.12v-.64zm2.518 1.38c-.352 0-.36-.264-.576-.264-.12 0-.236.08-.248.22-.004.028-.024.044-.044.044-.024 0-.048-.016-.048-.044 0-.616.928-.68.928-1.376 0-.237-.064-.489-.268-.489-.1 0-.196.056-.196.148 0 .108.14.164.14.272a.277.277 0 0 1-.552 0c0-.304.288-.512.608-.512.38 0 .732.228.732.58 0 .604-.6.636-.984.88a.497.497 0 0 1 .108-.012c.332 0 .444.236.684.236.192 0 .152-.152.22-.152.024 0 .048.02.048.048 0 .088-.176.42-.552.42zm-.2 1.548h.468c0 .192.108.376.288.376.032 0 .048.02.048.044s-.016.048-.048.048c-.176 0-.348-.052-.524-.052s-.348.052-.524.052c-.032 0-.048-.024-.048-.048s.016-.044.048-.044c.18 0 .292-.184.292-.376zm-.792-.124c0-.048.56-.572.56-1.344 0-.04.028-.076.064-.064.092.028.188.052.284.052s.192-.024.284-.052c.056-.016.092.036.068.064l-1.136 1.32h.668v-.524c0-.136.136-.108.272-.288.088-.12.092-.224.144-.224.024 0 .052.02.052.056v.98h.288c.04 0 .06.028.06.056s-.02.06-.06.06h-.288v.032h-.468v-.032h-.668c-.092 0-.124-.056-.124-.092z"/>
    <rect width=".13" height="4.814" x="-.065" y="-1.314" fill="currentColor" ry=".04" transform="translate(15.91 8.514)"/>
    <rect width=".13" height="2.304" x="-.065" y=".686" fill="currentColor" ry=".04" transform="translate(15.91 17.514)"/>
    <path fill="currentColor" d="M18.971 8.97c.264 0 .432.143.432.355 0 .357-.452.733-.872.733-.264 0-.432-.145-.432-.357 0-.356.452-.732.872-.732z"/>
    <rect width=".13" height="2.314" x="-.065" y="1.186" fill="currentColor" ry=".04" transform="translate(18.165 8.514)"/>
    <path fill="currentColor" stroke="currentColor" stroke-linecap="round" stroke-linejoin="round" stroke-width=".08" d="M77.076 5.503v.4l-5.058-.69v-.4zm0 .811v.4l-5.058-.69v-.4z"/>
    <path fill="currentColor" d="M21.726 7.47c.264 0 .432.144.432.356 0 .356-.452.732-.872.732-.264 0-.432-.145-.432-.357 0-.356.452-.732.872-.732z"/>
    <rect width=".13" height="3.814" x="-.065" y="-.314" fill="currentColor" ry=".04" transform="translate(20.919 8.514)"/>
    <path fill="currentColor" stroke="currentColor" stroke-linecap="round" stroke-linejoin="round" stroke-width=".08" d="M57.311 13.814v.4l-7.813 1.5v-.4z"/>
    <path fill="currentColor" d="M24.48 6.47c.264 0 .432.144.432.356 0 .356-.452.732-.872.732-.264 0-.432-.144-.432-.356 0-.356.452-.732.872-.732zm0 9c.264 0 .432.143.432.355 0 .357-.452.733-.872.733-.264 0-.432-.144-.432-.356 0-.357.452-.733.872-.733z"/>
    <rect width=".13" height="3.324" x="-.065" y="-1.314" fill="currentColor" ry=".04" transform="translate(23.673 8.514)"/>
    <rect width=".13" height="3.134" x="-.065" y="-1.314" fill="currentColor" ry=".04" transform="translate(23.673 17.514)"/>
    <path fill="currentColor" d="M26.984 6.97c.264 0 .432.144.432.356 0 .356-.452.732-.872.732-.264 0-.432-.145-.432-.357 0-.356.452-.732.872-.732z"/>
    <rect width=".13" height="3.219" x="-.065" y="-.814" fill="currentColor" ry=".04" transform="translate(26.177 8.514)"/>
    <path fill="currentColor" d="M29.488 7.47c.264 0 .432.144.432.356 0 .356-.452.732-.872.732-.264 0-.432-.145-.432-.357 0-.356.452-.732.872-.732z"/>
    <rect width=".13" height="3.114" x="-.065" y="-.314" fill="currentColor" ry=".04" transform="translate(28.681 8.514)"/>
    <path fill="currentColor" stroke="currentColor" stroke-linecap="round" stroke-linejoin="round" stroke-width=".08" d="M68.408 10.313v.4l-5.309.19v-.4zm0 .81v.4l-5.309.19v-.4z"/>
    <path fill="currentColor" d="M31.993 6.97c.264 0 .432.144.432.356 0 .356-.452.732-.872.732-.264 0-.432-.145-.432-.357 0-.356.452-.732.872-.732z"/>
    <text fill="currentColor" class="scale-degree" font-family="serif" font-size="2.2" transform="translate(31.12 5.726)">
<tspan>➎</tspan>
</text>
    <path fill="currentColor" d="M31.993 17.97c.264 0 .432.144.432.356 0 .356-.452.732-.872.732-.264 0-.432-.144-.432-.356 0-.357.452-.733.872-.733z"/>
    <text fill="currentColor" class="scale-degree" font-family="serif" font-size="2.2" transform="translate(31.12 23.302)">
<tspan>➂</tspan>
</text>
    <rect width=".13" height="2.614" x="-.065" y="-.814" fill="currentColor" ry=".04" transform="translate(31.186 8.514)"/>
    <rect width=".13" height="2.301" x="-.065" y="1.186" fill="currentColor" ry=".04" transform="translate(31.186 17.514)"/>
    <path fill="currentColor" d="M34.497 6.47c.264 0 .432.144.432.356 0 .356-.452.732-.872.732-.264 0-.432-.144-.432-.356 0-.356.452-.732.872-.732z"/>
    <rect width=".13" height="2.719" x="-.065" y="-1.314" fill="currentColor" ry=".04" transform="translate(33.69 8.514)"/>
    <path fill="currentColor" d="M37.001 5.97c.264 0 .432.144.432.356 0 .356-.452.732-.872.732-.264 0-.432-.144-.432-.356 0-.356.452-.732.872-.732z"/>
    <rect width=".13" height="2.824" x="-.065" y="-1.814" fill="currentColor" ry=".04" transform="translate(36.194 8.514)"/>
    <path fill="currentColor" stroke="currentColor" stroke-linecap="round" stroke-linejoin="round" stroke-width=".08" d="M60.645 9.504v.4l-4.558-1.19v-.4zm0 .809v.4l-4.558-1.19v-.4z"/>
    <path fill="currentColor" d="M39.505 5.47c.264 0 .432.144.432.356 0 .356-.452.732-.872.732-.264 0-.432-.144-.432-.356 0-.356.452-.732.872-.732zm0 10c.264 0 .432.143.432.355 0 .357-.452.733-.872.733-.264 0-.432-.144-.432-.356 0-.357.452-.733.872-.733z"/>
    <rect width=".13" height="2.808" x="-.065" y="-2.314" fill="currentColor" ry=".04" transform="translate(38.698 8.514)"/>
    <rect width=".13" height="3.327" x="-.065" y="-1.314" fill="currentColor" ry=".04" transform="translate(38.698 17.514)"/>
    <path fill="currentColor" d="M42.01 4.97c.263 0 .431.144.431.356 0 .356-.452.732-.872.732-.264 0-.432-.144-.432-.356 0-.356.452-.732.872-.732z"/>
    <rect width=".13" height="3.064" x="-.065" y="-2.814" fill="currentColor" ry=".04" transform="translate(41.202 8.514)"/>
    <path fill="currentColor" d="M44.514 4.47c.264 0 .432.144.432.356 0 .356-.452.732-.872.732-.264 0-.432-.144-.432-.356 0-.356.452-.732.872-.732z"/>
    <rect width=".13" height="3.32" x="-.065" y="-3.314" fill="currentColor" ry=".04" transform="translate(43.707 8.514)"/>
    <path fill="currentColor" stroke="currentColor" stroke-linecap="round" stroke-linejoin="round" stroke-width=".08" d="M53.383 10.314v.4h-5.059v-.4zm0 .809v.4h-5.059v-.4zm-14.66 8.191v.4l-7.562 1.5v-.4z"/>
    <path fill="currentColor" d="M46.928 7.124c.193 0 .328.112.328.278 0 .254-.3.5-.586.5-.193 0-.324-.111-.324-.277 0-.254.296-.5.582-.5z"/>
    <rect width=".16" height="13.1" y="-6.55" fill="currentColor" ry=".05" transform="translate(5.63 13.014)"/>
    <rect width=".13" height="2.486" x="-.065" y="-3.6" fill="currentColor" ry=".04" transform="translate(47.199 8.514)"/>
    <path fill="currentColor" d="M47.264 5.547v.597-.597c0 .32.237.563.408.826a.374.374 0 0 0 .017-.112c0-.263-.243-.526-.425-.714zm.322 1.78c0-.03.12-.206.12-.472s-.252-.527-.443-.712v.21h-.058v-1.4h.059c0 .496.562.812.562 1.308a.643.643 0 0 1-.064.269c.05.1.081.207.081.325 0 .176-.042.35-.115.51-.014.027-.039.036-.064.036-.04 0-.078-.028-.078-.073zM5.007 14.478c0-1.02-.528-1.452-.528-1.464 0-.072.528-.384.528-1.464 0-1.045-.432-1.957-.432-3.12 0-.756.18-1.464.708-2.004.06-.06.156.036.096.096-.396.396-.516.9-.516 1.44 0 1.02.408 1.92.408 3.06 0 .744-.18 1.452-.696 1.992.516.54.696 1.248.696 1.992 0 1.14-.408 2.04-.408 3.06 0 .54.12 1.044.516 1.44.06.06-.036.156-.096.096-.528-.54-.708-1.248-.708-2.004 0-1.164.432-2.076.432-3.12zM49.156 7.47c.264 0 .432.144.432.356 0 .356-.452.732-.872.732-.264 0-.432-.145-.432-.357 0-.356.452-.732.872-.732z"/>
    <text fill="currentColor" class="scale-degree" font-family="serif" font-size="2.2" transform="translate(48.284 5.726)">
<tspan>➍</tspan>
</text>
    <path fill="currentColor" stroke="currentColor" stroke-linecap="round" stroke-linejoin="round" stroke-width=".08" d="M72.068 15.314v.4l-7.794-2v-.4z"/>
    <text fill="currentColor" class="scale-degree" font-family="serif" font-size="2.2" transform="translate(48.284 21.612)">
<tspan>➁</tspan>
</text>
    <rect width=".13" height="3.124" x="-.065" y="-.314" fill="currentColor" ry=".04" transform="translate(48.35 8.514)"/>
    <rect width=".13" height="3.326" x="-.065" y="-2.012" fill="currentColor" ry=".04" transform="translate(49.523 17.514)"/>
    <path fill="currentColor" d="M51.66 7.97c.264 0 .432.144.432.356 0 .355-.452.731-.872.731-.264 0-.432-.144-.432-.356 0-.356.452-.732.872-.732z"/>
    <rect width=".13" height="2.624" x="-.065" y=".186" fill="currentColor" ry=".04" transform="translate(50.853 8.514)"/>
    <path fill="currentColor" d="M54.165 7.47c.264 0 .432.144.432.356 0 .356-.452.732-.872.732-.264 0-.432-.145-.432-.357 0-.356.452-.732.872-.732z"/>
    <rect width=".13" height="3.124" x="-.065" y="-.314" fill="currentColor" ry=".04" transform="translate(53.358 8.514)"/>
    <path fill="currentColor" stroke="currentColor" stroke-linecap="round" stroke-linejoin="round" stroke-width=".08" d="M43.732 7.503v.4l-5.059.5v-.4zm0 .811v.4l-5.059.5v-.4z"/>
    <path fill="currentColor" d="M56.919 4.97c.264 0 .432.144.432.356 0 .356-.452.732-.872.732-.264 0-.432-.144-.432-.356 0-.356.452-.732.872-.732zm0 11c.264 0 .432.143.432.355 0 .357-.452.733-.872.733-.264 0-.432-.144-.432-.356 0-.357.452-.733.872-.733z"/>
    <rect width=".13" height="3.641" x="-.065" y="-2.814" fill="currentColor" ry=".04" transform="translate(56.112 8.514)"/>
    <rect width=".13" height="2.301" x="-.065" y="-3.488" fill="currentColor" ry=".04" transform="translate(57.286 17.514)"/>
    <path fill="currentColor" stroke="currentColor" stroke-linecap="round" stroke-linejoin="round" stroke-width=".08" d="M23.698 19.123v.4l-7.813 1.19v-.4z"/>
    <path fill="currentColor" d="M59.173 5.97c.264 0 .432.144.432.356 0 .356-.452.732-.872.732-.264 0-.432-.144-.432-.356 0-.356.452-.732.872-.732z"/>
    <rect width=".13" height="3.219" x="-.065" y="-1.814" fill="currentColor" ry=".04" transform="translate(58.366 8.514)"/>
    <path fill="currentColor" d="M61.427 7.47c.264 0 .432.144.432.356 0 .356-.452.732-.872.732-.264 0-.432-.145-.432-.357 0-.356.452-.732.872-.732z"/>
    <rect width=".13" height="2.297" x="-.065" y="-.314" fill="currentColor" ry=".04" transform="translate(60.62 8.514)"/>
    <path fill="currentColor" d="M63.931 7.97c.265 0 .433.144.433.356 0 .355-.453.731-.873.731-.263 0-.431-.144-.431-.356 0-.356.451-.732.871-.732z"/>
    <text fill="currentColor" class="scale-degree" font-family="serif" font-size="2.2" transform="translate(63.06 5.726)">
<tspan>➌</tspan>
</text>
    <path fill="currentColor" d="M63.931 15.47c.265 0 .433.143.433.355 0 .357-.453.733-.873.733-.263 0-.431-.144-.431-.356 0-.357.451-.733.871-.733z"/>
    <text fill="currentColor" class="scale-degree" font-family="serif" font-size="2.2" transform="translate(63.06 21.612)">
<tspan>➀</tspan>
</text>
    <rect width=".13" height="2.812" x="-.065" y=".186" fill="currentColor" ry=".04" transform="translate(63.124 8.514)"/>
    <rect width=".13" height="2.297" x="-.065" y="-3.983" fill="currentColor" ry=".04" transform="translate(64.299 17.514)"/>
    <path fill="currentColor" stroke="currentColor" stroke-linecap="round" stroke-linejoin="round" stroke-width=".08" d="M36.219 8.504v.4l-5.058.81v-.4zm0 .809v.4l-5.058.81v-.4z"/>
    <path fill="currentColor" d="M66.686 6.97c.264 0 .432.144.432.356 0 .356-.452.732-.872.732-.264 0-.432-.145-.432-.357 0-.356.452-.732.872-.732z"/>
    <rect width=".13" height="3.715" x="-.065" y="-.814" fill="currentColor" ry=".04" transform="translate(65.879 8.514)"/>
    <path fill="currentColor" d="M69.19 7.47c.264 0 .432.144.432.356 0 .356-.452.732-.872.732-.264 0-.432-.145-.432-.357 0-.356.452-.732.872-.732z"/>
    <rect width=".13" height="3.126" x="-.065" y="-.314" fill="currentColor" ry=".04" transform="translate(68.383 8.514)"/>
    <path fill="currentColor" d="M71.676 7.97c.264 0 .432.144.432.356 0 .355-.452.731-.872.731-.264 0-.432-.144-.432-.356 0-.356.452-.732.872-.732zm0 11c.264 0 .432.144.432.356 0 .356-.452.732-.872.732-.264 0-.432-.144-.432-.356 0-.357.452-.733.872-.733z"/>
    <rect width=".13" height="3.305" x="-.065" y="-3.491" fill="currentColor" ry=".04" transform="translate(72.043 8.514)"/>
    <rect width=".13" height="3.83" x="-.065" y="-2.017" fill="currentColor" ry=".04" transform="translate(72.043 17.514)"/>
    <path fill="currentColor" stroke="currentColor" stroke-linecap="round" stroke-linejoin="round" stroke-width=".08" d="M28.706 10.313v.4l-5.058-.81v-.4zm0 .81v.4l-5.058-.81v-.4z"/>
    <path fill="currentColor" d="M74.18 8.47c.264 0 .432.143.432.355 0 .357-.452.733-.872.733-.264 0-.432-.145-.432-.357 0-.356.452-.732.872-.732z"/>
    <rect width=".13" height="3.469" x="-.065" y="-3.155" fill="currentColor" ry=".04" transform="translate(74.547 8.514)"/>
    <path fill="currentColor" d="M76.684 8.97c.264 0 .432.143.432.355 0 .357-.452.733-.872.733-.264 0-.432-.145-.432-.357 0-.356.452-.732.872-.732z"/>
    <rect width=".13" height="3.633" x="-.065" y="-2.819" fill="currentColor" ry=".04" transform="translate(77.052 8.514)"/>
    <path fill="currentColor" stroke="currentColor" stroke-linecap="round" stroke-linejoin="round" stroke-width=".08" d="M20.944 11.004v.4h-5.059v-.4zm0 .81v.4h-5.059v-.4z"/>
</svg>
