<svg xmlns="http://www.w3.org/2000/svg" width="906.406" height="62.31mm" class="d-block mx-auto" version="1.2" viewBox="0 0 136.471 35.455">
    <style>
        tspan{white-space:pre}
    </style>
    <rect width="1.956" height=".2" x="78.731" y="-.1" fill="currentColor" ry=".1" transform="translate(5.69 14.278)"/>
    <rect width="1.956" height=".2" x="73.722" y="-.1" fill="currentColor" ry=".1" transform="translate(5.69 14.278)"/>
    <rect width="1.956" height=".2" x="71.218" y="-.1" fill="currentColor" ry=".1" transform="translate(5.69 14.278)"/>
    <rect width="1.956" height=".2" x="65.037" y="-.1" fill="currentColor" ry=".1" transform="translate(5.69 20.278)"/>
    <rect width="1.956" height=".2" x="55.624" y="-.1" fill="currentColor" ry=".1" transform="translate(5.69 14.278)"/>
    <rect width="1.377" height=".2" x="46.269" y="-.1" fill="currentColor" ry=".1" transform="translate(5.69 14.278)"/>
    <rect width="1.956" height=".2" x="43.297" y="-.1" fill="currentColor" ry=".1" transform="translate(5.69 14.278)"/>
    <rect width="1.956" height=".2" x="41.043" y="-.1" fill="currentColor" ry=".1" transform="translate(5.69 13.278)"/>
    <rect width="1.956" height=".2" x="41.043" y="-.1" fill="currentColor" ry=".1" transform="translate(5.69 14.278)"/>
    <rect width="1.956" height=".2" x="38.289" y="-.1" fill="currentColor" ry=".1" transform="translate(5.69 14.278)"/>
    <rect width="1.956" height=".2" x="36.035" y="-.1" fill="currentColor" ry=".1" transform="translate(5.69 13.278)"/>
    <rect width="1.956" height=".2" x="36.035" y="-.1" fill="currentColor" ry=".1" transform="translate(5.69 14.278)"/>
    <rect width="1.956" height=".2" x="33.531" y="-.1" fill="currentColor" ry=".1" transform="translate(5.69 13.278)"/>
    <rect width="1.956" height=".2" x="33.531" y="-.1" fill="currentColor" ry=".1" transform="translate(5.69 14.278)"/>
    <rect width="1.956" height=".2" x="31.026" y="-.1" fill="currentColor" ry=".1" transform="translate(5.69 14.278)"/>
    <rect width="1.956" height=".2" x="17.437" y="-.1" fill="currentColor" ry=".1" transform="translate(5.69 14.278)"/>
    <rect width="1.956" height=".2" x="12.428" y="-.1" fill="currentColor" ry=".1" transform="translate(5.69 14.278)"/>
    <rect width="1.956" height=".2" x="9.924" y="-.1" fill="currentColor" ry=".1" transform="translate(5.69 14.278)"/>
    <path stroke="currentColor" stroke-linecap="round" stroke-linejoin="round" stroke-width=".1" d="M5.74 19.278h123.753m-123.753-1h123.753m-123.753-1h123.753m-123.753-1h123.753m-123.753-1h123.753"/>
    <rect width=".19" height="7.131" y="15.483" fill="currentColor" ry="0" transform="translate(129.352 3.845)"/>
    <rect width="1.956" height=".2" x="84.798" y="-.1" fill="currentColor" ry=".1" transform="translate(5.69 25.46)"/>
    <path stroke="currentColor" stroke-linecap="round" stroke-linejoin="round" stroke-width=".1" d="M5.74 30.46h123.753m-123.753-1h123.753m-123.753-1h123.753m-123.753-1h123.753m-123.753-1h123.753"/>
    <rect width=".19" height="4.05" y="-2.05" fill="currentColor" ry="0" transform="translate(129.352 28.46)"/>
    <rect width=".19" height="4.05" y="-2" fill="currentColor" ry="0" transform="translate(129.352 17.278)"/>
    <rect width=".19" height="7.131" y="15.483" fill="currentColor" ry="0" transform="translate(89.506 3.845)"/>
    <rect width=".19" height="4.05" y="-2.05" fill="currentColor" ry="0" transform="translate(89.506 28.46)"/>
    <rect width=".19" height="4.05" y="-2" fill="currentColor" ry="0" transform="translate(89.506 17.278)"/>
    <rect width=".19" height="7.131" y="15.483" fill="currentColor" ry="0" transform="translate(51.317 3.845)"/>
    <rect width=".19" height="4.05" y="-2.05" fill="currentColor" ry="0" transform="translate(51.317 28.46)"/>
    <rect width=".19" height="4.05" y="-2" fill="currentColor" ry="0" transform="translate(51.317 17.278)"/>
    <path fill="currentColor" d="M16.813 13.234c.264 0 .432.144.432.356 0 .356-.452.732-.872.732-.264 0-.432-.144-.432-.356 0-.356.452-.732.872-.732zm-.31 9.284c.312 0 .388-.704.388-.712 0-.072-.028-.132-.1-.132-.244 0-.408.496-.408.692 0 .088.032.152.12.152zm-.856-.436c0-.008.204-.604.536-.604.14 0 .236.084.264.208.116-.124.268-.208.412-.208.276 0 .428.196.428.456 0 .472-.42.744-.636.744-.212 0-.28-.08-.336-.08-.028 0-.056.012-.064.036l-.116.344c-.004.008-.004.02-.004.028 0 .148.228.072.228.168 0 .028-.016.056-.052.056-.012 0-.2-.02-.464-.02s-.448.02-.46.02a.055.055 0 0 1-.056-.056c0-.124.348.004.408-.164l.408-1.2a.315.315 0 0 0 .016-.08c0-.032-.008-.056-.044-.056-.132 0-.252.24-.316.388a.104.104 0 0 1-.096.068c-.032 0-.056-.016-.056-.048zm1.166-4.348c.264 0 .432.144.432.356 0 .356-.452.732-.872.732-.264 0-.432-.144-.432-.356 0-.356.452-.732.872-.732z"/>
    <text fill="currentColor" class="scale-degree" font-family="serif" font-size="2.2" transform="translate(15.94 25.279)">
<tspan>➀</tspan>
</text>
    <path fill="currentColor" d="M7.555 20.818H7.53a.783.783 0 0 1-.78-.788c0-.232.212-.412.448-.412.216 0 .38.188.38.412 0 .208-.172.38-.38.38a.326.326 0 0 1-.124-.024c.104.156.272.26.468.26h.016zm.78-1.728a.69.69 0 0 0 .452-.656.764.764 0 0 0-.692-.76c.076.356.192.968.24 1.416zm-1.548-.924c0 .58.564.988 1.056.988.004 0 .188 0 .328-.024a17.343 17.343 0 0 0-.252-1.456c-.316.032-.496.244-.496.476 0 .176.1.364.324.492.02.02.028.04.028.06 0 .044-.04.088-.088.088-.06 0-.504-.248-.504-.748 0-.352.232-.696.64-.788a15.048 15.048 0 0 0-.184-.7c-.428.484-.852.972-.852 1.612zm.704-2.1c-.116-.384-.208-.68-.208-1.384 0-.46.22-.896.596-1.168a.06.06 0 0 1 .08 0c.272.32.532.98.532 1.432 0 .572-.344 1.02-.72 1.456.084.272.156.552.224.828.008 0 .028-.004.052-.004.62 0 1.024.512 1.024 1.044 0 .452-.296.848-.72.984.012.14.02.28.02.42 0 .076-.004.156-.008.232-.028.476-.352.9-.808.912l.004-.172c.372-.008.612-.368.636-.764a3.775 3.775 0 0 0-.008-.588c-.02.004-.176.032-.356.032-.772 0-1.332-.72-1.332-1.496 0-.708.524-1.224.992-1.764zm.712-1.452c0-.136.004-.264-.08-.516a1.153 1.153 0 0 0-.648 1.036c0 .208.048.46.144.776.32-.388.584-.792.584-1.296zm1.787.188c0-.032.02-.06.053-.072l.184-.068v-.632c0-.04.032-.076.072-.076s.076.036.076.076v.58l.332-.124v-.632c0-.04.036-.076.076-.076s.072.036.072.076v.58l.128-.048c.008-.004.02-.004.028-.004a.08.08 0 0 1 .08.08v.24c0 .032-.02.064-.052.076l-.184.064v.64l.128-.044c.008-.004.02-.004.028-.004a.08.08 0 0 1 .08.08v.24c0 .032-.02.06-.052.072l-.184.068v.632c0 .04-.032.076-.072.076s-.076-.036-.076-.076v-.58l-.332.124v.632c0 .04-.036.076-.076.076s-.072-.036-.072-.076v-.58l-.128.048c-.008.004-.02.004-.028.004a.08.08 0 0 1-.08-.08v-.24c0-.032.02-.064.052-.076l.184-.064v-.64l-.128.044c-.008.004-.02.004-.028.004a.08.08 0 0 1-.08-.08v-.24zm.717.096-.332.12v.64l.332-.12v-.64zm2.533 1.332c.465 0 .705.424.705.652 0 .16-.12.288-.268.288-.124 0-.3-.1-.3-.3 0-.152.108-.308.288-.308.016 0 .036 0 .056.004a.599.599 0 0 0-.48-.236c-.424 0-.452.292-.452.744v.408c0 .452.028.748.452.748.32 0 .556-.28.632-.604.008-.028.028-.04.048-.04.024 0 .052.016.052.048 0 .088-.2.696-.732.696-.236 0-1-.076-1-1.052 0-.248.072-1.048 1-1.048zM8.719 27.96c0-.112.092-.204.204-.204s.204.092.204.204-.092.204-.204.204-.204-.092-.204-.204zm0-1c0-.112.092-.204.204-.204s.204.092.204.204-.092.204-.204.204-.204-.092-.204-.204zm-1.3-.552c.688 0 1.172.352 1.172 1.004 0 1.052-1.052 1.656-2.064 2.084a.049.049 0 0 1-.036.016.053.053 0 0 1-.052-.052c0-.012.004-.024.016-.036.808-.472 1.648-1.06 1.648-1.972 0-.48-.252-.94-.684-.94-.296 0-.516.216-.616.504a.323.323 0 0 1 .136-.032c.22 0 .4.18.4.4 0 .232-.176.424-.4.424-.24 0-.448-.188-.448-.424 0-.532.408-.976.928-.976zm2.571.576c0-.032.02-.06.053-.072l.184-.068v-.632c0-.04.032-.076.072-.076s.076.036.076.076v.58l.332-.124v-.632c0-.04.036-.076.076-.076s.072.036.072.076v.58l.128-.048c.008-.004.02-.004.028-.004a.08.08 0 0 1 .08.08v.24c0 .032-.02.064-.052.076l-.184.064v.64l.128-.044c.008-.004.02-.004.028-.004a.08.08 0 0 1 .08.08v.24c0 .032-.02.06-.052.072l-.184.068v.632c0 .04-.032.076-.072.076s-.076-.036-.076-.076v-.58l-.332.124v.632c0 .04-.036.076-.076.076s-.072-.036-.072-.076v-.58l-.128.048c-.008.004-.02.004-.028.004a.08.08 0 0 1-.08-.08v-.24c0-.032.02-.064.052-.076l.184-.064v-.64l-.128.044c-.008.004-.02.004-.028.004a.08.08 0 0 1-.08-.08v-.24zm.717.096-.332.12v.64l.332-.12v-.64zm2.533.332c.465 0 .705.424.705.652 0 .16-.12.288-.268.288-.124 0-.3-.1-.3-.3 0-.152.108-.308.288-.308.016 0 .036 0 .056.004a.599.599 0 0 0-.48-.236c-.424 0-.452.292-.452.744v.408c0 .452.028.748.452.748.32 0 .556-.28.632-.604.008-.028.028-.04.048-.04.024 0 .052.016.052.048 0 .088-.2.696-.732.696-.236 0-1-.076-1-1.052 0-.248.072-1.048 1-1.048z"/>
    <rect width=".13" height="2.501" x="-.065" y="-6.187" fill="currentColor" ry=".04" transform="translate(17.18 17.278)"/>
    <rect width=".13" height="2.314" x="-.065" y="1.186" fill="currentColor" ry=".04" transform="translate(16.006 17.278)"/>
    <path fill="currentColor" stroke="currentColor" stroke-linecap="round" stroke-linejoin="round" stroke-width=".08" d="M127.911 14.268v.4l-6.258-.69v-.4zm0 .81v.4l-2.554-.287v-.4z"/>
    <path fill="currentColor" d="M19.317 13.734c.264 0 .432.144.432.356 0 .356-.452.732-.872.732-.264 0-.432-.144-.432-.356 0-.356.452-.732.872-.732z"/>
    <rect width=".13" height="2.876" x="-.065" y="-6.062" fill="currentColor" ry=".04" transform="translate(19.684 17.278)"/>
    <path fill="currentColor" stroke="currentColor" stroke-linecap="round" stroke-linejoin="round" stroke-width=".08" d="M116.586 19.768v.4l-2.554-.287v-.4zm0 .81v.4l-6.258-.69v-.4z"/>
    <path fill="currentColor" d="M21.821 14.234c.264 0 .432.144.432.356 0 .356-.452.732-.872.732-.264 0-.432-.144-.432-.356 0-.356.452-.732.872-.732zm0 2.5c.264 0 .432.144.432.356 0 .356-.452.732-.872.732-.264 0-.432-.144-.432-.356 0-.356.452-.732.872-.732z"/>
    <rect width=".13" height="3.252" x="-.065" y="-5.938" fill="currentColor" ry=".04" transform="translate(22.188 17.278)"/>
    <rect width=".13" height="3.314" x="-.065" y=".186" fill="currentColor" ry=".04" transform="translate(21.014 17.278)"/>
    <path fill="currentColor" d="M24.325 13.734c.264 0 .432.144.432.356 0 .356-.452.732-.872.732-.264 0-.432-.144-.432-.356 0-.356.452-.732.872-.732z"/>
    <rect width=".13" height="2.627" x="-.065" y="-5.813" fill="currentColor" ry=".04" transform="translate(24.692 17.278)"/>
    <path fill="currentColor" stroke="currentColor" stroke-linecap="round" stroke-linejoin="round" stroke-width=".08" d="M105.476 19.078v.4l-3.504-.81v-.4z"/>
    <path fill="currentColor" d="M26.83 14.234c.263 0 .431.144.431.356 0 .356-.452.732-.872.732-.264 0-.432-.144-.432-.356 0-.356.452-.732.872-.732z"/>
    <text fill="currentColor" class="scale-degree" font-family="serif" font-size="2.2" transform="translate(25.957 11.54)">
<tspan>➊</tspan>
</text>
    <path fill="currentColor" d="M26.83 17.734c.263 0 .431.144.431.356 0 .356-.452.732-.872.732-.264 0-.432-.144-.432-.356 0-.356.452-.732.872-.732z"/>
    <rect width=".13" height="2.314" x="-.065" y="-5" fill="currentColor" ry=".04" transform="translate(27.197 17.278)"/>
    <rect width=".13" height="2.314" x="-.065" y="1.186" fill="currentColor" ry=".04" transform="translate(26.022 17.278)"/>
    <path fill="currentColor" d="M30.784 16.734c.264 0 .432.144.432.356 0 .356-.452.732-.872.732-.264 0-.432-.144-.432-.356 0-.356.452-.732.872-.732z"/>
    <rect width=".13" height="3.314" x="-.065" y=".186" fill="currentColor" ry=".04" transform="translate(29.977 17.278)"/>
    <path fill="currentColor" stroke="currentColor" stroke-linecap="round" stroke-linejoin="round" stroke-width=".08" d="M99.268 18.268v.4l-8.413-.19v-.4zm0 .81v.4l-8.413-.19v-.4z"/>
    <path fill="currentColor" d="M33.646 14.458c.316 0 .184.392.364.392.064 0 .216-.192.244-.252.024-.048.092-.048.112 0l-.492 1.68c-.032.028-.068.04-.108.04s-.08-.012-.112-.04l.468-1.304a1.272 1.272 0 0 1-.42.088c-.188 0-.348-.136-.348-.316a.29.29 0 0 1 .292-.288zm.592 3.776c.264 0 .432.144.432.356 0 .356-.452.732-.872.732-.264 0-.432-.144-.432-.356 0-.356.452-.732.872-.732z"/>
    <text fill="currentColor" class="scale-degree" font-family="serif" font-size="2.2" transform="translate(33.366 23.567)">
<tspan>➆</tspan>
</text>
    <rect width=".13" height="2.314" x="-.065" y="1.686" fill="currentColor" ry=".04" transform="translate(33.43 17.278)"/>
    <path fill="currentColor" stroke="currentColor" stroke-linecap="round" stroke-linejoin="round" stroke-width=".08" d="M84.837 22.078v.4l-13.744.81v-.4z"/>
    <path fill="currentColor" d="M37.915 13.234c.264 0 .432.144.432.356 0 .356-.452.732-.872.732-.264 0-.432-.144-.432-.356 0-.356.452-.732.872-.732zm0 3.5c.264 0 .432.144.432.356 0 .356-.452.732-.872.732-.264 0-.432-.144-.432-.356 0-.356.452-.732.872-.732z"/>
    <rect width=".13" height="2.821" x="-.065" y="-6.508" fill="currentColor" ry=".04" transform="translate(38.282 17.278)"/>
    <rect width=".13" height="3.814" x="-.065" y=".186" fill="currentColor" ry=".04" transform="translate(37.108 17.278)"/>
    <path fill="currentColor" stroke="currentColor" stroke-linecap="round" stroke-linejoin="round" stroke-width=".08" d="M88.266 10.888v.4h-7.313v-.4zm0 .81v.4h-7.313v-.4z"/>
    <path fill="currentColor" d="M40.42 12.734c.263 0 .431.144.431.356 0 .356-.452.732-.872.732-.264 0-.432-.144-.432-.356 0-.356.452-.732.872-.732z"/>
    <rect width=".13" height="2.616" x="-.065" y="-6.802" fill="currentColor" ry=".04" transform="translate(40.786 17.278)"/>
    <text fill="currentColor" class="schema" font-family="serif" font-size="1.96" transform="translate(106.498 8.833)">
<tspan>Prinner</tspan>
</text>
    <path fill="currentColor" d="M42.923 12.234c.264 0 .432.144.432.356 0 .356-.452.732-.872.732-.264 0-.432-.144-.432-.356 0-.356.452-.732.872-.732z"/>
    <text fill="currentColor" class="scale-degree" font-family="serif" font-size="2.2" transform="translate(42.051 9.11)">
<tspan>➎</tspan>
</text>
    <path fill="currentColor" d="M42.923 18.234c.264 0 .432.144.432.356 0 .356-.452.732-.872.732-.264 0-.432-.144-.432-.356 0-.356.452-.732.872-.732z"/>
    <rect width=".13" height="2.504" x="-.065" y="-7.19" fill="currentColor" ry=".04" transform="translate(43.29 17.278)"/>
    <rect width=".13" height="2.314" x="-.065" y="1.686" fill="currentColor" ry=".04" transform="translate(42.116 17.278)"/>
    <path stroke="currentColor" stroke-linecap="round" stroke-linejoin="round" stroke-width=".1" d="m127.451 9.41.5 1m-36.636-1-.5 1m.5-1h36.136" class="schema"/>
    <path fill="currentColor" d="M45.178 13.234c.264 0 .432.144.432.356 0 .356-.452.732-.872.732-.264 0-.432-.144-.432-.356 0-.356.452-.732.872-.732z"/>
    <rect width=".13" height="3.504" x="-.065" y="-7.19" fill="currentColor" ry=".04" transform="translate(45.545 17.278)"/>
    <path fill="currentColor" stroke="currentColor" stroke-linecap="round" stroke-linejoin="round" stroke-width=".08" d="M78.499 11.268v.4l-2.554.31v-.4zm0 .81v.4l-2.554.31v-.4z"/>
    <path fill="currentColor" d="M47.932 12.234c.264 0 .432.144.432.356 0 .356-.452.732-.872.732-.264 0-.432-.144-.432-.356 0-.356.452-.732.872-.732zm0 4.5c.264 0 .432.144.432.356 0 .356-.452.732-.872.732-.264 0-.432-.144-.432-.356 0-.356.452-.732.872-.732z"/>
    <rect width=".13" height="2.504" x="-.065" y="-7.19" fill="currentColor" ry=".04" transform="translate(48.299 17.278)"/>
    <rect width=".13" height="3.814" x="-.065" y=".186" fill="currentColor" ry=".04" transform="translate(47.125 17.278)"/>
    <path fill="currentColor" stroke="currentColor" stroke-linecap="round" stroke-linejoin="round" stroke-width=".08" d="M67.69 20.888v.4l-13.522.69v-.4z"/>
    <path fill="currentColor" d="M50.186 13.234c.264 0 .432.144.432.356 0 .356-.452.732-.872.732-.264 0-.432-.144-.432-.356 0-.356.452-.732.872-.732z"/>
    <rect width=".13" height="3.504" x="-.065" y="-7.19" fill="currentColor" ry=".04" transform="translate(50.553 17.278)"/>
    <path fill="currentColor" stroke="currentColor" stroke-linecap="round" stroke-linejoin="round" stroke-width=".08" d="M62.905 11.578v.4l-7.563.31v-.4zm0 .81v.4l-7.563.31v-.4zm-15.755 8.69v.4H33.406v-.4z"/>
    <path fill="currentColor" d="M52.772 13.889c.193 0 .327.112.327.277 0 .255-.3.501-.585.501-.193 0-.325-.112-.325-.277 0-.255.297-.501.583-.501z"/>
    <path fill="currentColor" stroke="currentColor" stroke-linecap="round" stroke-linejoin="round" stroke-width=".08" d="M50.578 9.888v.4h-7.312v-.4zm0 .81v.4h-7.312v-.4z"/>
    <rect width=".13" height="2.486" x="-.065" y="-5.6" fill="currentColor" ry=".04" transform="translate(53.042 17.278)"/>
    <path fill="currentColor" d="M53.107 12.312v.596-.596c0 .319.238.563.41.826a.374.374 0 0 0 .016-.112c0-.263-.244-.527-.426-.714zm.322 1.78c0-.03.12-.207.12-.473s-.251-.526-.442-.71v.21h-.058v-1.4h.058c0 .495.563.811.563 1.307a.643.643 0 0 1-.064.269c.05.1.08.207.08.324 0 .177-.041.35-.114.51-.014.028-.04.036-.064.036-.04 0-.079-.028-.079-.072z"/>
    <path fill="currentColor" stroke="currentColor" stroke-linecap="round" stroke-linejoin="round" stroke-width=".08" d="M40.811 10.268v.4l-2.554.31v-.4zm0 .81v.4l-2.554.31v-.4z"/>
    <path fill="currentColor" d="M55 14.234c.264 0 .432.144.432.356 0 .356-.452.732-.872.732-.264 0-.432-.144-.432-.356 0-.356.452-.732.872-.732z"/>
    <text fill="currentColor" class="scale-degree" font-family="serif" font-size="2.2" transform="translate(54.128 11.062)">
<tspan>➊</tspan>
</text>
    <path fill="currentColor" d="M55 18.734c.264 0 .432.144.432.356 0 .356-.452.732-.872.732-.264 0-.432-.144-.432-.356 0-.356.452-.732.872-.732z"/>
    <text fill="currentColor" class="scale-degree" font-family="serif" font-size="2.2" transform="translate(54.128 24.067)">
<tspan>➅</tspan>
</text>
    <rect width=".13" height="2.506" x="-.065" y="-5.193" fill="currentColor" ry=".04" transform="translate(55.367 17.278)"/>
    <rect width=".13" height="2.311" x="-.065" y="2.186" fill="currentColor" ry=".04" transform="translate(54.193 17.278)"/>
    <path fill="currentColor" stroke="currentColor" stroke-linecap="round" stroke-linejoin="round" stroke-width=".08" d="M30.002 20.578v.4H15.98v-.4z"/>
    <path fill="currentColor" d="M57.504 14.734c.264 0 .432.144.432.356 0 .356-.452.732-.872.732-.264 0-.432-.144-.432-.356 0-.356.452-.732.872-.732z"/>
    <rect width=".13" height="3.108" x="-.065" y="-5.294" fill="currentColor" ry=".04" transform="translate(57.871 17.278)"/>
    <path fill="currentColor" stroke="currentColor" stroke-linecap="round" stroke-linejoin="round" stroke-width=".08" d="M24.717 11.268v.4l-7.562-.38v-.4zm0 .81v.4l-7.562-.38v-.4z"/>
    <path fill="currentColor" d="M60.008 14.234c.264 0 .432.144.432.356 0 .356-.452.732-.872.732-.264 0-.432-.144-.432-.356 0-.356.452-.732.872-.732zm0 3.5c.264 0 .432.144.432.356 0 .356-.452.732-.872.732-.264 0-.432-.144-.432-.356 0-.356.452-.732.872-.732z"/>
    <rect width=".13" height="2.71" x="-.065" y="-5.396" fill="currentColor" ry=".04" transform="translate(60.376 17.278)"/>
    <rect width=".13" height="3.057" x="-.065" y="1.186" fill="currentColor" ry=".04" transform="translate(59.201 17.278)"/>
    <path fill="currentColor" d="M62.513 13.734c.264 0 .432.144.432.356 0 .356-.452.732-.872.732-.264 0-.432-.144-.432-.356 0-.356.452-.732.872-.732z"/>
    <rect width=".13" height="2.311" x="-.065" y="-5.497" fill="currentColor" ry=".04" transform="translate(62.88 17.278)"/>
    <text fill="currentColor" class="schema" font-family="serif" font-size="1.96" transform="translate(47.633 5.143)">
<tspan>Romanesca</tspan>
</text>
    <path fill="currentColor" d="M65.017 14.234c.264 0 .432.144.432.356 0 .356-.452.732-.872.732-.264 0-.432-.144-.432-.356 0-.356.452-.732.872-.732zm0 2.5c.264 0 .432.144.432.356 0 .356-.452.732-.872.732-.264 0-.432-.144-.432-.356 0-.356.452-.732.872-.732z"/>
    <rect width=".13" height="2.314" x="-.065" y="-5" fill="currentColor" ry=".04" transform="translate(65.384 17.278)"/>
    <rect width=".13" height="3.802" x="-.065" y=".186" fill="currentColor" ry=".04" transform="translate(64.21 17.278)"/>
    <path stroke="currentColor" stroke-linecap="round" stroke-linejoin="round" stroke-width=".1" d="m87.806 5.72.5 1m-71.866-1-.5 1m.5-1h71.366" class="schema"/>
    <path fill="currentColor" d="M68.471 17.734c.264 0 .432.144.432.356 0 .356-.452.732-.872.732-.264 0-.432-.144-.432-.356 0-.356.452-.732.872-.732z"/>
    <rect width=".13" height="2.627" x="-.065" y="1.186" fill="currentColor" ry=".04" transform="translate(67.664 17.278)"/>
    <path fill="currentColor" d="M71.333 14.458c.316 0 .184.392.364.392.064 0 .216-.192.244-.252.024-.048.092-.048.112 0l-.492 1.68c-.032.028-.068.04-.108.04s-.08-.012-.112-.04l.468-1.304a1.272 1.272 0 0 1-.42.088c-.188 0-.348-.136-.348-.316a.29.29 0 0 1 .292-.288zm.592 5.776c.264 0 .432.144.432.356 0 .356-.452.732-.872.732-.264 0-.432-.144-.432-.356 0-.356.452-.732.872-.732z"/>
    <text fill="currentColor" class="scale-degree" font-family="serif" font-size="2.2" transform="translate(71.053 25.377)">
<tspan>➂</tspan>
</text>
    <rect width=".13" height="2.12" x="-.065" y="3.686" fill="currentColor" ry=".04" transform="translate(71.118 17.278)"/>
    <path fill="currentColor" d="M75.602 14.234c.264 0 .432.144.432.356 0 .356-.452.732-.872.732-.264 0-.432-.144-.432-.356 0-.356.452-.732.872-.732zm0 5c.264 0 .432.144.432.356 0 .356-.452.732-.872.732-.264 0-.432-.144-.432-.356 0-.356.452-.732.872-.732z"/>
    <rect width=".13" height="2.821" x="-.065" y="-5.508" fill="currentColor" ry=".04" transform="translate(75.97 17.278)"/>
    <rect width=".13" height="2.905" x="-.065" y="2.686" fill="currentColor" ry=".04" transform="translate(74.795 17.278)"/>
    <path fill="currentColor" d="M78.107 13.734c.264 0 .432.144.432.356 0 .356-.452.732-.872.732-.264 0-.432-.144-.432-.356 0-.356.452-.732.872-.732z"/>
    <rect width=".13" height="2.616" x="-.065" y="-5.802" fill="currentColor" ry=".04" transform="translate(78.474 17.278)"/>
    <path fill="currentColor" d="M80.61 13.234c.265 0 .433.144.433.356 0 .356-.452.732-.872.732-.264 0-.432-.144-.432-.356 0-.356.452-.732.872-.732zm0 4.5c.265 0 .433.144.433.356 0 .356-.452.732-.872.732-.264 0-.432-.144-.432-.356 0-.356.452-.732.872-.732z"/>
    <rect width=".13" height="2.504" x="-.065" y="-6.19" fill="currentColor" ry=".04" transform="translate(80.978 17.278)"/>
    <rect width=".13" height="4.111" x="-.065" y="1.186" fill="currentColor" ry=".04" transform="translate(79.804 17.278)"/>
    <path fill="currentColor" d="M82.865 14.234c.264 0 .432.144.432.356 0 .356-.452.732-.872.732-.264 0-.432-.144-.432-.356 0-.356.452-.732.872-.732z"/>
    <rect width=".13" height="3.504" x="-.065" y="-6.19" fill="currentColor" ry=".04" transform="translate(83.232 17.278)"/>
    <path fill="currentColor" d="M85.62 13.234c.263 0 .431.144.431.356 0 .356-.452.732-.872.732-.264 0-.432-.144-.432-.356 0-.356.452-.732.872-.732zm0 6c.263 0 .431.144.431.356 0 .356-.452.732-.872.732-.264 0-.432-.144-.432-.356 0-.356.452-.732.872-.732z"/>
    <rect width=".13" height="2.504" x="-.065" y="-6.19" fill="currentColor" ry=".04" transform="translate(85.986 17.278)"/>
    <rect width=".13" height="2.318" x="-.065" y="2.686" fill="currentColor" ry=".04" transform="translate(84.812 17.278)"/>
    <path fill="currentColor" d="M87.873 14.234c.264 0 .432.144.432.356 0 .356-.452.732-.872.732-.264 0-.432-.144-.432-.356 0-.356.452-.732.872-.732z"/>
    <rect width=".13" height="3.504" x="-.065" y="-6.19" fill="currentColor" ry=".04" transform="translate(88.24 17.278)"/>
    <path fill="currentColor" d="M91.687 14.734c.264 0 .432.144.432.356 0 .356-.452.732-.872.732-.264 0-.432-.144-.432-.356 0-.356.452-.732.872-.732zm0 10.182c.264 0 .432.144.432.356 0 .356-.452.732-.872.732-.264 0-.432-.144-.432-.356 0-.356.452-.732.872-.732z"/>
    <text fill="currentColor" class="scale-degree" font-family="serif" font-size="2.2" transform="translate(90.815 32.558)">
<tspan>➃</tspan>
</text>
    <rect width=".16" height="15.281" y="-7.641" fill="currentColor" ry=".05" transform="translate(5.63 22.869)"/>
    <rect width=".13" height="3.625" x="-.065" y="-1.814" fill="currentColor" ry=".04" transform="translate(90.88 17.278)"/>
    <rect width=".13" height="3.314" x="-.065" y="-2.814" fill="currentColor" ry=".04" transform="translate(90.88 28.46)"/>
    <path fill="currentColor" d="M4.995 24.565c0-1.168-.592-1.68-.592-1.696 0-.08.592-.464.592-1.696 0-1.216-.496-2.288-.496-3.648 0-.848.208-1.68.784-2.304.064-.064.16.032.096.096-.432.48-.576 1.056-.576 1.68 0 1.184.464 2.256.464 3.584 0 .848-.192 1.664-.752 2.288.56.624.752 1.44.752 2.288 0 1.328-.464 2.4-.464 3.584 0 .624.144 1.2.576 1.68.064.064-.032.16-.096.096-.576-.624-.784-1.456-.784-2.304 0-1.36.496-2.432.496-3.648zm89.196-9.331c.264 0 .432.144.432.356 0 .356-.452.732-.872.732-.264 0-.432-.144-.432-.356 0-.356.452-.732.872-.732z"/>
    <text fill="currentColor" class="scale-degree" font-family="serif" font-size="2.2" transform="translate(93.32 14.217)">
<tspan>➏</tspan>
</text>
    <rect width=".13" height="3.181" x="-.065" y="-1.314" fill="currentColor" ry=".04" transform="translate(93.384 17.278)"/>
    <path fill="currentColor" d="M97.545 15.734c.264 0 .432.144.432.356 0 .356-.452.732-.872.732-.264 0-.432-.144-.432-.356 0-.356.452-.732.872-.732z"/>
    <rect width=".13" height="2.756" x="-.065" y="-.814" fill="currentColor" ry=".04" transform="translate(96.738 17.278)"/>
    <path fill="currentColor" d="M95.223 15.802c0-.032.02-.06.052-.072l.184-.068v-.632c0-.04.032-.076.072-.076s.076.036.076.076v.58l.332-.124v-.632c0-.04.036-.076.076-.076s.072.036.072.076v.58l.128-.048c.008-.004.02-.004.028-.004a.08.08 0 0 1 .08.08v.24c0 .032-.02.064-.052.076l-.184.064v.64l.128-.044c.008-.004.02-.004.028-.004a.08.08 0 0 1 .08.08v.24c0 .032-.02.06-.052.072l-.184.068v.632c0 .04-.032.076-.072.076s-.076-.036-.076-.076v-.58l-.332.124v.632c0 .04-.036.076-.076.076s-.072-.036-.072-.076v-.58l-.128.048c-.008.004-.02.004-.028.004a.08.08 0 0 1-.08-.08v-.24c0-.032.02-.064.052-.076l.184-.064v-.64l-.128.044c-.008.004-.02.004-.028.004a.08.08 0 0 1-.08-.08v-.24zm.716.096-.332.12v.64l.332-.12v-.64zm4.111-.664c.264 0 .432.144.432.356 0 .356-.452.732-.872.732-.264 0-.432-.144-.432-.356 0-.356.452-.732.872-.732z"/>
    <rect width=".13" height="3.312" x="-.065" y="-1.314" fill="currentColor" ry=".04" transform="translate(99.243 17.278)"/>
    <path fill="currentColor" d="M102.804 14.234c.264 0 .432.144.432.356 0 .356-.452.732-.872.732-.264 0-.432-.144-.432-.356 0-.356.452-.732.872-.732zm0 11.182c.264 0 .432.144.432.356 0 .356-.452.732-.872.732-.264 0-.432-.144-.432-.356 0-.356.452-.732.872-.732z"/>
    <text fill="currentColor" class="scale-degree" font-family="serif" font-size="2.2" transform="translate(101.932 32.558)">
<tspan>➂</tspan>
</text>
    <rect width=".13" height="3.519" x="-.065" y="-2.314" fill="currentColor" ry=".04" transform="translate(101.997 17.278)"/>
    <rect width=".13" height="3.314" x="-.065" y="-2.314" fill="currentColor" ry=".04" transform="translate(101.997 28.46)"/>
    <path fill="currentColor" d="M106.258 15.734c.264 0 .432.144.432.356 0 .356-.452.732-.872.732-.264 0-.432-.144-.432-.356 0-.356.452-.732.872-.732z"/>
    <text fill="currentColor" class="scale-degree" font-family="serif" font-size="2.2" transform="translate(105.386 14.49)">
<tspan>➎</tspan>
</text>
    <rect width=".13" height="2.799" x="-.065" y="-.814" fill="currentColor" ry=".04" transform="translate(105.451 17.278)"/>
    <path fill="currentColor" d="M108.932 15.889c.193 0 .327.112.327.277 0 .255-.3.501-.585.501-.193 0-.325-.112-.325-.277 0-.255.297-.501.583-.501z"/>
    <rect width=".13" height="2.486" x="-.065" y="-3.6" fill="currentColor" ry=".04" transform="translate(109.202 17.278)"/>
    <path fill="currentColor" d="M109.267 14.312v.596-.596c0 .319.238.563.41.826a.374.374 0 0 0 .016-.112c0-.263-.244-.527-.426-.714zm.322 1.78c0-.03.12-.207.12-.473s-.251-.526-.442-.71v.21h-.058v-1.4h.058c0 .495.563.811.563 1.307a.643.643 0 0 1-.064.269c.05.1.08.207.08.324 0 .177-.041.35-.114.51-.014.028-.04.036-.064.036-.04 0-.079-.028-.079-.072zm1.571.142c.264 0 .432.144.432.356 0 .356-.452.732-.872.732-.264 0-.432-.144-.432-.356 0-.356.452-.732.872-.732z"/>
    <text fill="currentColor" class="scale-degree" font-family="serif" font-size="2.2" transform="translate(110.288 14.49)">
<tspan>➍</tspan>
</text>
    <path fill="currentColor" d="M111.16 26.916c.264 0 .432.144.432.356 0 .356-.452.732-.872.732-.264 0-.432-.144-.432-.356 0-.356.452-.732.872-.732z"/>
    <text fill="currentColor" class="scale-degree" font-family="serif" font-size="2.2" transform="translate(110.288 33.008)">
<tspan>➆</tspan>
</text>
    <rect width=".13" height="3.131" x="-.065" y="-.314" fill="currentColor" ry=".04" transform="translate(110.353 17.278)"/>
    <rect width=".13" height="3.314" x="-.065" y="-.814" fill="currentColor" ry=".04" transform="translate(110.353 28.46)"/>
    <path fill="currentColor" d="M114.864 16.734c.264 0 .432.144.432.356 0 .356-.452.732-.872.732-.264 0-.432-.144-.432-.356 0-.356.452-.732.872-.732z"/>
    <rect width=".13" height="3.034" x="-.065" y=".186" fill="currentColor" ry=".04" transform="translate(114.057 17.278)"/>
    <path fill="currentColor" d="M117.368 17.234c.264 0 .432.144.432.356 0 .356-.452.732-.872.732-.264 0-.432-.144-.432-.356 0-.356.452-.732.872-.732z"/>
    <rect width=".13" height="2.807" x="-.065" y=".686" fill="currentColor" ry=".04" transform="translate(116.561 17.278)"/>
    <path fill="currentColor" d="M119.082 16.389c.193 0 .328.112.328.277 0 .255-.3.501-.585.501-.194 0-.325-.112-.325-.277 0-.255.297-.501.582-.501z"/>
    <rect width=".13" height="2.486" x="-.065" y="-3.1" fill="currentColor" ry=".04" transform="translate(119.353 17.278)"/>
    <path fill="currentColor" d="M119.418 14.812v.596-.596c0 .319.238.563.408.826a.374.374 0 0 0 .017-.112c0-.263-.243-.527-.425-.714zm.322 1.78c0-.03.12-.207.12-.473s-.252-.526-.442-.71v.21h-.06v-1.4h.06c0 .495.562.811.562 1.307a.643.643 0 0 1-.064.269c.05.1.081.207.081.324 0 .177-.042.35-.115.51-.014.028-.039.036-.064.036-.04 0-.078-.028-.078-.072zm1.57.142c.264 0 .432.144.432.356 0 .356-.452.732-.872.732-.264 0-.432-.144-.432-.356 0-.356.452-.732.872-.732z"/>
    <text fill="currentColor" class="scale-degree" font-family="serif" font-size="2.2" transform="translate(120.438 12.8)">
<tspan>➌</tspan>
</text>
    <path fill="currentColor" d="M121.31 26.416c.264 0 .432.144.432.356 0 .356-.452.732-.872.732-.264 0-.432-.144-.432-.356 0-.356.452-.732.872-.732z"/>
    <text fill="currentColor" class="scale-degree" font-family="serif" font-size="2.2" transform="translate(120.438 32.558)">
<tspan>➀</tspan>
</text>
    <rect width=".13" height="3.307" x="-.065" y="-3.493" fill="currentColor" ry=".04" transform="translate(121.678 17.278)"/>
    <rect width=".13" height="3.314" x="-.065" y="-1.314" fill="currentColor" ry=".04" transform="translate(120.503 28.46)"/>
    <rect width=".13" height="3.631" x="-.065" y="-2.817" fill="currentColor" ry=".04" transform="translate(127.886 17.278)"/>
    <path fill="currentColor" d="M125.015 17.234c.264 0 .432.144.432.356 0 .356-.452.732-.872.732-.264 0-.432-.144-.432-.356 0-.356.452-.732.872-.732z"/>
    <rect width=".13" height="3.404" x="-.065" y="-3.09" fill="currentColor" ry=".04" transform="translate(125.382 17.278)"/>
    <path fill="currentColor" d="M127.519 17.734c.264 0 .432.144.432.356 0 .356-.452.732-.872.732-.264 0-.432-.144-.432-.356 0-.356.452-.732.872-.732z"/>
</svg>
