<svg xmlns="http://www.w3.org/2000/svg" width="434.57" height="50.77mm" class="d-block mx-auto d-block mx-auto" version="1.2" viewBox="0 0 65.428 28.889">
    <style>
        tspan{white-space:pre}
    </style>
    <rect width="1.956" height=".2" x="41.92" y="-.1" fill="currentColor" ry=".1" transform="translate(5.69 13.963)"/>
    <rect width="1.956" height=".2" x="31.507" y="-.1" fill="currentColor" ry=".1" transform="translate(5.69 13.963)"/>
    <path stroke="currentColor" stroke-linecap="round" stroke-linejoin="round" stroke-width=".1" d="M5.74 12.963h52.776m-52.776-1h52.776m-52.776-1h52.776m-52.776-1h52.776m-52.776-1h52.776"/>
    <rect width=".19" height="4.95" y="9.168" fill="currentColor" ry="0" transform="translate(58.375 3.845)"/>
    <path stroke="currentColor" stroke-linecap="round" stroke-linejoin="round" stroke-width=".1" d="M5.74 21.963h52.776m-52.776-1h52.776m-52.776-1h52.776m-52.776-1h52.776m-52.776-1h52.776"/>
    <rect width=".19" height="4.05" y="-2.05" fill="currentColor" ry="0" transform="translate(58.375 19.963)"/>
    <rect width=".19" height="4.05" y="-2" fill="currentColor" ry="0" transform="translate(58.375 10.963)"/>
    <rect width=".19" height="4.95" y="9.168" fill="currentColor" ry="0" transform="translate(36.434 3.845)"/>
    <rect width=".19" height="4.05" y="-2.05" fill="currentColor" ry="0" transform="translate(36.434 19.963)"/>
    <rect width=".19" height="4.05" y="-2" fill="currentColor" ry="0" transform="translate(36.434 10.963)"/>
    <rect width=".16" height="13.1" y="-6.55" fill="currentColor" ry=".05" transform="translate(5.63 15.463)"/>
    <path fill="currentColor" stroke="currentColor" stroke-linecap="round" stroke-linejoin="round" stroke-width=".08" d="M46.697 16.264v.4l-5.559 1.5v-.4zm0 .809v.4l-5.559 1.5v-.4z"/>
    <path fill="currentColor" d="M16.717 8.92c.264 0 .432.143.432.355 0 .356-.452.732-.872.732-.264 0-.432-.144-.432-.356 0-.356.452-.732.872-.732z"/>
    <path fill="currentColor" d="M16.717 9.92c.264 0 .432.143.432.355 0 .356-.452.732-.872.732-.264 0-.432-.144-.432-.356 0-.356.452-.732.872-.732zm0 1.5c.264 0 .432.143.432.355 0 .356-.452.732-.872.732-.264 0-.432-.144-.432-.356 0-.356.452-.732.872-.732z"/>
    <path fill="currentColor" d="M16.717 12.42c.264 0 .432.143.432.355 0 .356-.452.732-.872.732-.264 0-.432-.144-.432-.356 0-.356.452-.732.872-.732z"/>
    <text fill="currentColor" class="scale-degree" font-family="serif" font-size="2.2" transform="translate(15.845 5.726)">
<tspan>➏</tspan>
</text>
    <path fill="currentColor" d="M7.555 14.503H7.53a.783.783 0 0 1-.78-.788c0-.232.212-.412.448-.412.216 0 .38.188.38.412 0 .208-.172.38-.38.38a.326.326 0 0 1-.124-.024.56.56 0 0 0 .468.26h.016zm.78-1.728a.69.69 0 0 0 .452-.656.764.764 0 0 0-.692-.76c.076.356.192.968.24 1.416zm-1.548-.924c0 .58.564.988 1.056.988.004 0 .188 0 .328-.024a17.343 17.343 0 0 0-.252-1.455c-.316.032-.496.244-.496.476 0 .176.1.364.324.492.02.02.028.04.028.06 0 .044-.04.088-.088.088-.06 0-.504-.249-.504-.749 0-.351.232-.695.64-.787a15.048 15.048 0 0 0-.184-.7c-.428.484-.852.972-.852 1.612zm.704-2.1c-.116-.383-.208-.68-.208-1.383 0-.46.22-.897.596-1.169a.06.06 0 0 1 .08 0c.272.32.532.98.532 1.432 0 .572-.344 1.02-.72 1.456.084.272.156.552.224.828.008 0 .028-.004.052-.004.62 0 1.024.512 1.024 1.044 0 .452-.296.848-.72.984.012.14.02.28.02.42 0 .076-.004.156-.008.232-.028.476-.352.9-.808.912l.004-.172c.372-.008.612-.368.636-.764a3.775 3.775 0 0 0-.008-.588c-.02.004-.176.032-.356.032-.772 0-1.332-.72-1.332-1.496 0-.708.524-1.224.992-1.764zM8.203 8.3c0-.137.004-.265-.08-.517a1.153 1.153 0 0 0-.648 1.036c0 .208.048.46.144.776.32-.388.584-.792.584-1.296zm1.787.187c0-.032.02-.06.053-.072l.184-.067v-.633c0-.04.032-.075.072-.075s.076.036.076.076v.58l.332-.124v-.633c0-.04.036-.075.076-.075s.072.036.072.076v.58l.128-.048c.008-.004.02-.004.028-.004a.08.08 0 0 1 .08.08v.24c0 .032-.02.064-.052.076l-.184.064v.64l.128-.044c.008-.004.02-.004.028-.004a.08.08 0 0 1 .08.08v.24c0 .032-.02.06-.052.072l-.184.068v.632c0 .04-.032.076-.072.076s-.076-.036-.076-.076v-.58l-.332.124v.632c0 .04-.036.076-.076.076s-.072-.036-.072-.076v-.58l-.128.048c-.008.004-.02.004-.028.004a.08.08 0 0 1-.08-.08v-.24c0-.032.02-.064.052-.076l.184-.065v-.64l-.128.044c-.008.004-.02.004-.028.004a.08.08 0 0 1-.08-.08v-.24zm.717.096-.332.12v.64l.332-.12v-.64zm2.518 2.38c-.352 0-.36-.263-.576-.263-.12 0-.236.08-.248.22-.004.028-.024.044-.044.044-.024 0-.048-.016-.048-.044 0-.616.928-.68.928-1.376 0-.236-.064-.488-.268-.488-.1 0-.196.056-.196.148 0 .108.14.164.14.272a.277.277 0 0 1-.552 0c0-.304.288-.512.608-.512.38 0 .732.228.732.58 0 .604-.6.636-.984.88a.497.497 0 0 1 .108-.012c.332 0 .444.236.684.236.192 0 .152-.152.22-.152.024 0 .048.02.048.048 0 .088-.176.42-.552.42zm-.2 1.549h.468c0 .192.108.376.288.376.032 0 .048.02.048.044s-.016.048-.048.048c-.176 0-.348-.052-.524-.052s-.348.052-.524.052c-.032 0-.048-.024-.048-.048s.016-.044.048-.044c.18 0 .292-.184.292-.376zm-.792-.124c0-.048.56-.572.56-1.344 0-.04.028-.076.064-.064.092.028.188.052.284.052s.192-.024.284-.052c.056-.016.092.036.068.064l-1.136 1.32h.668v-.524c0-.136.136-.108.272-.288.088-.12.092-.224.144-.224.024 0 .052.02.052.056v.98h.288c.04 0 .06.028.06.056s-.02.06-.06.06h-.288v.032h-.468v-.032h-.668c-.092 0-.124-.056-.124-.092zm4.112 6.755c.316 0 .18.392.36.392.06 0 .2-.196.228-.252.024-.048.092-.048.112 0l-.716 2.68c-.032.028-.068.04-.108.04s-.08-.012-.112-.04l.404-1.308a1.3 1.3 0 0 1-.424.092c-.188 0-.348-.136-.348-.316 0-.16.128-.288.288-.288.316 0 .184.392.364.392.064 0 .22-.204.24-.272l.184-.604a1.249 1.249 0 0 1-.416.089c-.188 0-.348-.136-.348-.316a.29.29 0 0 1 .292-.288zm-7.626.32c0-.112.092-.204.204-.204s.204.092.204.204-.092.204-.204.204-.204-.092-.204-.204zm0-1c0-.112.092-.204.204-.204s.204.092.204.204-.092.204-.204.204-.204-.092-.204-.204zm-1.3-.552c.688 0 1.172.352 1.172 1.004 0 1.053-1.052 1.657-2.064 2.085a.049.049 0 0 1-.036.016.053.053 0 0 1-.052-.052c0-.012.004-.024.016-.036.808-.473 1.648-1.06 1.648-1.973 0-.48-.252-.94-.684-.94-.296 0-.516.216-.616.504a.323.323 0 0 1 .136-.032c.22 0 .4.18.4.4 0 .232-.176.424-.4.424-.24 0-.448-.188-.448-.424 0-.532.408-.976.928-.976zm2.571.577c0-.032.02-.06.053-.072l.184-.068v-.632c0-.04.032-.077.072-.077s.076.036.076.076v.58l.332-.124v-.632c0-.04.036-.076.076-.076s.072.036.072.076v.58l.128-.048c.008-.004.02-.004.028-.004a.08.08 0 0 1 .08.08v.24c0 .032-.02.064-.052.076l-.184.064v.64l.128-.044c.008-.004.02-.004.028-.004a.08.08 0 0 1 .08.08v.24c0 .032-.02.06-.052.072l-.184.068v.632c0 .04-.032.076-.072.076s-.076-.036-.076-.076v-.58l-.332.124v.632c0 .04-.036.076-.076.076s-.072-.036-.072-.076v-.58l-.128.048c-.008.004-.02.004-.028.004a.08.08 0 0 1-.08-.08v-.24c0-.032.02-.064.052-.076l.184-.064v-.64l-.128.044c-.008.004-.02.004-.028.004a.08.08 0 0 1-.08-.08v-.24zm.717.096-.332.12v.64l.332-.12v-.64zm2.518 1.379c-.352 0-.36-.264-.576-.264-.12 0-.236.08-.248.22-.004.028-.024.044-.044.044-.024 0-.048-.016-.048-.044 0-.616.928-.68.928-1.376 0-.236-.064-.488-.268-.488-.1 0-.196.056-.196.148 0 .108.14.164.14.272a.277.277 0 0 1-.552 0c0-.304.288-.512.608-.512.38 0 .732.228.732.58 0 .604-.6.636-.984.88a.497.497 0 0 1 .108-.012c.332 0 .444.236.684.236.192 0 .152-.152.22-.152.024 0 .048.02.048.048 0 .088-.176.42-.552.42zm-.2 1.549h.468c0 .192.108.376.288.376.032 0 .048.02.048.044s-.016.048-.048.048c-.176 0-.348-.052-.524-.052s-.348.052-.524.052c-.032 0-.048-.024-.048-.048s.016-.044.048-.044c.18 0 .292-.184.292-.376zm-.792-.124c0-.048.56-.572.56-1.344 0-.04.028-.076.064-.064.092.028.188.052.284.052s.192-.024.284-.052c.056-.016.092.036.068.064l-1.136 1.32h.668v-.524c0-.136.136-.108.272-.288.088-.12.092-.224.144-.224.024 0 .052.02.052.056v.98h.288c.04 0 .06.028.06.056s-.02.06-.06.06h-.288v.032h-.468v-.032h-.668c-.092 0-.124-.056-.124-.092z"/>
    <rect width=".13" height="6.314" x="-.065" y="-4.5" fill="currentColor" ry=".04" transform="translate(17.084 10.963)"/>
    <path fill="currentColor" d="M17.15 6.503v1h-.064v-1h.064zm0 0c0 .788.828 1.344.828 2.132 0 .285-.06.565-.165.829a.097.097 0 0 1-.08.047c-.052 0-.104-.043-.092-.107.105-.245.169-.505.169-.769 0-.412-.376-.832-.66-1.132v-1z"/>
    <path fill="currentColor" stroke="currentColor" stroke-linecap="round" stroke-linejoin="round" stroke-width=".08" d="M34.256 21.764v.4l-5.558 1.38v-.4zm0 .81v.4l-5.558 1.38v-.4z"/>
    <path fill="currentColor" d="M19.117 19.92c.264 0 .432.143.432.355 0 .357-.452.733-.872.733-.264 0-.432-.144-.432-.356 0-.357.452-.733.872-.733z"/>
    <text fill="currentColor" class="scale-degree" font-family="serif" font-size="2.2" transform="translate(18.245 25.252)">
<tspan>➃</tspan>
</text>
    <rect width=".13" height="2.3" x="-.065" y=".686" fill="currentColor" ry=".04" transform="translate(18.31 19.963)"/>
    <path fill="currentColor" stroke="currentColor" stroke-linecap="round" stroke-linejoin="round" stroke-width=".08" d="M23.844 20.764v.4l-5.559 1.19v-.4zm0 .809v.4l-5.559 1.19v-.4z"/>
    <path fill="currentColor" d="M21.28 10.143c.316 0 .184.392.364.392.064 0 .216-.192.244-.252.024-.048.092-.048.112 0l-.492 1.68c-.032.028-.068.04-.108.04s-.08-.012-.112-.04l.468-1.304a1.272 1.272 0 0 1-.42.088c-.188 0-.348-.136-.348-.316a.29.29 0 0 1 .292-.288zm.592 8.777c.264 0 .432.143.432.355 0 .357-.452.733-.872.733-.264 0-.432-.144-.432-.356 0-.357.452-.733.872-.733z"/>
    <rect width=".13" height="2.719" x="-.065" y="-.314" fill="currentColor" ry=".04" transform="translate(21.064 19.963)"/>
    <path fill="currentColor" d="M24.626 17.92c.264 0 .432.143.432.355 0 .357-.452.733-.872.733-.264 0-.432-.144-.432-.356 0-.357.452-.733.872-.733z"/>
    <rect width=".13" height="3.138" x="-.065" y="-1.314" fill="currentColor" ry=".04" transform="translate(23.819 19.963)"/>
    <path fill="currentColor" d="M27.13 9.42c.264 0 .432.143.432.355 0 .356-.452.732-.872.732-.264 0-.432-.144-.432-.356 0-.356.452-.732.872-.732z"/>
    <path fill="currentColor" d="M27.13 10.42c.264 0 .432.143.432.355 0 .356-.452.732-.872.732-.264 0-.432-.144-.432-.356 0-.356.452-.732.872-.732z"/>
    <path fill="currentColor" d="M27.13 11.42c.264 0 .432.143.432.355 0 .356-.452.732-.872.732-.264 0-.432-.144-.432-.356 0-.356.452-.732.872-.732zm0 1.5c.264 0 .432.143.432.355 0 .356-.452.732-.872.732-.264 0-.432-.144-.432-.356 0-.356.452-.732.872-.732z"/>
    <text fill="currentColor" class="scale-degree" font-family="serif" font-size="2.2" transform="translate(26.258 6.101)">
<tspan>➎</tspan>
</text>
    <path fill="currentColor" d="M26.758 19.143c.316 0 .18.392.36.392.06 0 .2-.196.228-.252.024-.048.092-.048.112 0l-.716 2.68c-.032.028-.068.04-.108.04s-.08-.012-.112-.04l.404-1.308a1.3 1.3 0 0 1-.424.092c-.188 0-.348-.136-.348-.316 0-.16.128-.288.288-.288.316 0 .184.392.364.392.064 0 .22-.204.24-.272l.184-.604a1.249 1.249 0 0 1-.416.089c-.188 0-.348-.136-.348-.316a.29.29 0 0 1 .292-.288z"/>
    <rect width=".13" height="6.439" x="-.065" y="-4.125" fill="currentColor" ry=".04" transform="translate(27.497 10.963)"/>
    <path fill="currentColor" d="M27.562 6.878v1h-.064v-1h.064zm0 0c0 .788.828 1.344.828 2.132 0 .285-.06.565-.164.829a.097.097 0 0 1-.08.047c-.052 0-.104-.043-.092-.107.104-.245.168-.505.168-.769 0-.412-.376-.832-.66-1.132v-1zM29.53 20.42c.264 0 .432.143.432.355 0 .357-.452.733-.872.733-.264 0-.432-.144-.432-.356 0-.357.452-.733.872-.733z"/>
    <text fill="currentColor" class="scale-degree" font-family="serif" font-size="2.2" transform="translate(28.658 26.442)">
<tspan>➂</tspan>
</text>
    <rect width=".13" height="2.988" x="-.065" y="1.186" fill="currentColor" ry=".04" transform="translate(28.723 19.963)"/>
    <path fill="currentColor" d="M31.692 10.143c.316 0 .184.392.364.392.064 0 .216-.192.244-.252.024-.048.092-.048.112 0l-.492 1.68c-.032.028-.068.04-.108.04s-.08-.012-.112-.04l.468-1.304a1.272 1.272 0 0 1-.42.088c-.188 0-.348-.136-.348-.316a.29.29 0 0 1 .292-.288zm.592 9.277c.264 0 .432.143.432.355 0 .357-.452.733-.872.733-.264 0-.432-.144-.432-.356 0-.357.452-.733.872-.733z"/>
    <rect width=".13" height="3.314" x="-.065" y=".186" fill="currentColor" ry=".04" transform="translate(31.477 19.963)"/>
    <path fill="currentColor" d="M35.038 17.92c.264 0 .432.143.432.355 0 .357-.452.733-.872.733-.264 0-.432-.144-.432-.356 0-.357.452-.733.872-.733z"/>
    <rect width=".13" height="4.14" x="-.065" y="-1.314" fill="currentColor" ry=".04" transform="translate(34.231 19.963)"/>
    <path fill="currentColor" d="M38.396 9.92c.264 0 .432.143.432.355 0 .356-.452.732-.872.732-.264 0-.432-.144-.432-.356 0-.356.452-.732.872-.732z"/>
    <path fill="currentColor" d="M38.396 10.92c.264 0 .432.143.432.355 0 .356-.452.732-.872.732-.264 0-.432-.144-.432-.356 0-.356.452-.732.872-.732z"/>
    <path fill="currentColor" d="M38.396 11.92c.264 0 .432.143.432.355 0 .356-.452.732-.872.732-.264 0-.432-.144-.432-.356 0-.356.452-.732.872-.732zm0 1.5c.264 0 .432.143.432.355 0 .356-.452.732-.872.732-.264 0-.432-.144-.432-.356 0-.356.452-.732.872-.732z"/>
    <text fill="currentColor" class="scale-degree" font-family="serif" font-size="2.2" transform="translate(37.524 6.476)">
<tspan>➍</tspan>
</text>
    <path fill="currentColor" d="M38.024 19.143c.316 0 .18.392.36.392.06 0 .2-.196.228-.252.024-.048.092-.048.112 0l-.716 2.68c-.032.028-.068.04-.108.04s-.08-.012-.112-.04l.404-1.308a1.3 1.3 0 0 1-.424.092c-.188 0-.348-.136-.348-.316 0-.16.128-.288.288-.288.316 0 .184.392.364.392.064 0 .22-.204.24-.272l.184-.604a1.249 1.249 0 0 1-.416.089c-.188 0-.348-.136-.348-.316a.29.29 0 0 1 .292-.288z"/>
    <path fill="currentColor" stroke="currentColor" stroke-linecap="round" stroke-linejoin="round" stroke-width=".08" d="M57.11 15.764v.4l-5.56 2v-.4zm0 .809v.4l-5.56 2v-.4z"/>
    <rect width=".13" height="6.564" x="-.065" y="-3.75" fill="currentColor" ry=".04" transform="translate(38.763 10.963)"/>
    <path fill="currentColor" d="M38.828 7.253v1h-.064v-1h.064zm0 0c0 .788.828 1.344.828 2.132 0 .285-.06.565-.164.829a.097.097 0 0 1-.08.047c-.052 0-.104-.043-.092-.107.104-.245.168-.505.168-.769 0-.412-.376-.832-.66-1.132v-1zM5.007 16.927c0-1.02-.528-1.452-.528-1.464 0-.072.528-.384.528-1.464 0-1.044-.432-1.956-.432-3.12 0-.756.18-1.464.708-2.004.06-.06.156.036.096.096-.396.396-.516.9-.516 1.44 0 1.02.408 1.92.408 3.06 0 .744-.18 1.452-.696 1.992.516.54.696 1.248.696 1.992 0 1.14-.408 2.04-.408 3.06 0 .54.12 1.044.516 1.44.06.06-.036.156-.096.096-.528-.54-.708-1.248-.708-2.004 0-1.164.432-2.076.432-3.12zm35.789 3.993c.264 0 .432.143.432.355 0 .357-.452.733-.872.733-.264 0-.432-.144-.432-.356 0-.357.452-.733.872-.733z"/>
    <text fill="currentColor" class="scale-degree" font-family="serif" font-size="2.2" transform="translate(39.924 24.062)">
<tspan>➁</tspan>
</text>
    <rect width=".13" height="3.331" x="-.065" y="-2.017" fill="currentColor" ry=".04" transform="translate(41.163 19.963)"/>
    <path fill="currentColor" d="M42.958 10.143c.316 0 .184.392.364.392.064 0 .216-.192.244-.252.024-.048.092-.048.112 0l-.492 1.68c-.032.028-.068.04-.108.04s-.08-.012-.112-.04l.468-1.304a1.272 1.272 0 0 1-.42.088c-.188 0-.348-.136-.348-.316a.29.29 0 0 1 .292-.288zm.592 9.777c.264 0 .432.143.432.355 0 .357-.452.733-.872.733-.264 0-.432-.144-.432-.356 0-.357.452-.733.872-.733z"/>
    <rect width=".13" height="3.064" x="-.065" y="-2.75" fill="currentColor" ry=".04" transform="translate(43.917 19.963)"/>
    <path fill="currentColor" d="M46.304 18.42c.264 0 .432.143.432.355 0 .357-.452.733-.872.733-.264 0-.432-.144-.432-.356 0-.357.452-.733.872-.733z"/>
    <rect width=".13" height="2.297" x="-.065" y="-3.483" fill="currentColor" ry=".04" transform="translate(46.672 19.963)"/>
    <path fill="currentColor" d="M48.809 10.42c.264 0 .432.143.432.355 0 .356-.452.732-.872.732-.264 0-.432-.144-.432-.356 0-.356.452-.732.872-.732z"/>
    <path fill="currentColor" d="M48.809 11.42c.264 0 .432.143.432.355 0 .356-.452.732-.872.732-.264 0-.432-.144-.432-.356 0-.356.452-.732.872-.732zm0 1.5c.264 0 .432.143.432.355 0 .356-.452.732-.872.732-.264 0-.432-.144-.432-.356 0-.356.452-.732.872-.732z"/>
    <path fill="currentColor" d="M48.809 13.92c.264 0 .432.143.432.355 0 .356-.452.732-.872.732-.264 0-.432-.144-.432-.356 0-.356.452-.732.872-.732z"/>
    <text fill="currentColor" class="scale-degree" font-family="serif" font-size="2.2" transform="translate(47.937 6.851)">
<tspan>➌</tspan>
</text>
    <path fill="currentColor" d="M48.437 19.143c.316 0 .18.392.36.392.06 0 .2-.196.228-.252.024-.048.092-.048.112 0l-.716 2.68c-.032.028-.068.04-.108.04s-.08-.012-.112-.04l.404-1.308a1.3 1.3 0 0 1-.424.092c-.188 0-.348-.136-.348-.316 0-.16.128-.288.288-.288.316 0 .184.392.364.392.064 0 .22-.204.24-.272l.184-.604a1.249 1.249 0 0 1-.416.089c-.188 0-.348-.136-.348-.316a.29.29 0 0 1 .292-.288z"/>
    <rect width=".13" height="6.689" x="-.065" y="-3.375" fill="currentColor" ry=".04" transform="translate(49.176 10.963)"/>
    <path fill="currentColor" d="M49.24 7.628v1h-.063v-1h.064zm0 0c0 .788.829 1.344.829 2.132 0 .285-.06.565-.164.829a.097.097 0 0 1-.08.047c-.052 0-.104-.043-.092-.107.104-.245.168-.505.168-.769 0-.412-.376-.832-.66-1.132v-1zm1.969 13.792c.263 0 .431.143.431.355 0 .357-.451.733-.871.733-.264 0-.432-.144-.432-.356 0-.357.451-.733.871-.733z"/>
    <text fill="currentColor" class="scale-degree" font-family="serif" font-size="2.2" transform="translate(50.337 24.557)">
<tspan>➀</tspan>
</text>
    <rect width=".13" height="3.837" x="-.065" y="-2.023" fill="currentColor" ry=".04" transform="translate(51.576 19.963)"/>
    <path fill="currentColor" d="M53.37 10.143c.317 0 .185.392.365.392.064 0 .216-.192.244-.252.024-.048.092-.048.112 0l-.492 1.68c-.032.028-.068.04-.108.04s-.08-.012-.112-.04l.468-1.304a1.272 1.272 0 0 1-.42.088c-.188 0-.348-.136-.348-.316a.29.29 0 0 1 .292-.288zm.593 9.277c.264 0 .432.143.432.355 0 .357-.452.733-.872.733-.264 0-.432-.144-.432-.356 0-.357.452-.733.872-.733z"/>
    <rect width=".13" height="2.814" x="-.065" y="-3" fill="currentColor" ry=".04" transform="translate(54.33 19.963)"/>
    <path fill="currentColor" d="M56.717 17.92c.264 0 .432.143.432.355 0 .357-.452.733-.872.733-.264 0-.432-.144-.432-.356 0-.357.452-.733.872-.733z"/>
    <rect width=".13" height="2.291" x="-.065" y="-3.977" fill="currentColor" ry=".04" transform="translate(57.084 19.963)"/>
</svg>
