<svg xmlns="http://www.w3.org/2000/svg" xmlns:xlink="http://www.w3.org/1999/xlink" width="332.36mm" height="48.06mm" version="1.2" viewBox="0 0 189.129 27.35">
    <defs>
        <path id="reuse-0" fill="currentColor" d="M0 119c0 8 5 15 13 18l46 17v158c0 10 8 19 18 19s19-9 19-19V167l83 31v158c0 10 9 19 19 19s18-9 18-19V211l32 12c2 1 5 1 7 1 11 0 20-9 20-20v-60c0-8-5-16-13-19l-46-16V-51l32 11c2 1 5 1 7 1 11 0 20-9 20-20v-60c0-8-5-15-13-18l-46-17v-158c0-10-8-19-18-19s-19 9-19 19v145l-83-31v-158c0-10-9-19-19-19s-18 9-18 19v145l-32-12c-2-1-5-1-7-1-11 0-20 9-20 20v60c0 8 5 16 13 19l46 16V51L27 40c-2-1-5-1-7-1C9 39 0 48 0 59v60zm179-24L96 65V-95l83 30V95z"/>
        <path id="reuse-1" fill="currentColor" d="M250 262c116 0 176-106 176-163 0-40-30-72-67-72-31 0-75 25-75 75 0 38 27 77 72 77 4 0 9 0 14-1-28 37-72 59-120 59-106 0-113-73-113-186V-51c0-113 7-187 113-187 80 0 139 70 158 151 2 7 7 10 12 10 6 0 13-4 13-12 0-22-50-174-183-174C191-263 0-244 0 0c0 62 18 262 250 262z"/>
        <path id="reuse-2" fill="currentColor" d="M218 136c66 0 108-36 108-89 0-89-113-183-218-183C42-136 0-100 0-47c0 89 113 183 218 183z"/>
        <path id="reuse-3" fill="currentColor" d="M0 0c0 31 25 56 56 56s56-25 56-56-25-56-56-56S0-31 0 0z"/>
    </defs>
    <style>
        tspan{white-space:pre}
    </style>
    <rect width="1.956" height=".2" x="173.56" y="-.1" fill="currentColor" ry=".1" transform="translate(5.69 7.52)"/>
    <rect width="1.956" height=".2" x="168.551" y="-.1" fill="currentColor" ry=".1" transform="translate(5.69 7.52)"/>
    <rect width="1.956" height=".2" x="163.543" y="-.1" fill="currentColor" ry=".1" transform="translate(5.69 7.52)"/>
    <rect width="1.956" height=".2" x="158.534" y="-.1" fill="currentColor" ry=".1" transform="translate(5.69 7.52)"/>
    <rect width="1.956" height=".2" x="153.446" y="-.1" fill="currentColor" ry=".1" transform="translate(5.69 7.52)"/>
    <rect width="1.956" height=".2" x="148.437" y="-.1" fill="currentColor" ry=".1" transform="translate(5.69 7.52)"/>
    <rect width="1.956" height=".2" x="143.429" y="-.1" fill="currentColor" ry=".1" transform="translate(5.69 7.52)"/>
    <rect width="1.956" height=".2" x="138.421" y="-.1" fill="currentColor" ry=".1" transform="translate(5.69 7.52)"/>
    <rect width="1.956" height=".2" x="132.09" y="-.1" fill="currentColor" ry=".1" transform="translate(5.69 7.52)"/>
    <rect width="1.956" height=".2" x="127.082" y="-.1" fill="currentColor" ry=".1" transform="translate(5.69 7.52)"/>
    <rect width="1.956" height=".2" x="122.073" y="-.1" fill="currentColor" ry=".1" transform="translate(5.69 7.52)"/>
    <rect width="1.956" height=".2" x="117.065" y="-.1" fill="currentColor" ry=".1" transform="translate(5.69 7.52)"/>
    <rect width="1.956" height=".2" x="111.807" y="-.1" fill="currentColor" ry=".1" transform="translate(5.69 6.52)"/>
    <rect width="1.956" height=".2" x="111.807" y="-.1" fill="currentColor" ry=".1" transform="translate(5.69 7.52)"/>
    <rect width="1.956" height=".2" x="106.798" y="-.1" fill="currentColor" ry=".1" transform="translate(5.69 6.52)"/>
    <rect width="1.956" height=".2" x="106.798" y="-.1" fill="currentColor" ry=".1" transform="translate(5.69 7.52)"/>
    <rect width="1.956" height=".2" x="101.79" y="-.1" fill="currentColor" ry=".1" transform="translate(5.69 6.52)"/>
    <rect width="1.956" height=".2" x="101.79" y="-.1" fill="currentColor" ry=".1" transform="translate(5.69 7.52)"/>
    <rect width="1.956" height=".2" x="96.781" y="-.1" fill="currentColor" ry=".1" transform="translate(5.69 6.52)"/>
    <rect width="1.956" height=".2" x="96.781" y="-.1" fill="currentColor" ry=".1" transform="translate(5.69 7.52)"/>
    <rect width="1.956" height=".2" x="90.521" y="-.1" fill="currentColor" ry=".1" transform="translate(5.69 6.52)"/>
    <rect width="1.956" height=".2" x="90.521" y="-.1" fill="currentColor" ry=".1" transform="translate(5.69 7.52)"/>
    <rect width="1.956" height=".2" x="85.512" y="-.1" fill="currentColor" ry=".1" transform="translate(5.69 6.52)"/>
    <rect width="1.956" height=".2" x="85.512" y="-.1" fill="currentColor" ry=".1" transform="translate(5.69 7.52)"/>
    <rect width="1.956" height=".2" x="80.504" y="-.1" fill="currentColor" ry=".1" transform="translate(5.69 6.52)"/>
    <rect width="1.956" height=".2" x="80.504" y="-.1" fill="currentColor" ry=".1" transform="translate(5.69 7.52)"/>
    <rect width="1.956" height=".2" x="75.495" y="-.1" fill="currentColor" ry=".1" transform="translate(5.69 6.52)"/>
    <rect width="1.956" height=".2" x="75.495" y="-.1" fill="currentColor" ry=".1" transform="translate(5.69 7.52)"/>
    <rect width="1.956" height=".2" x="70.407" y="-.1" fill="currentColor" ry=".1" transform="translate(5.69 6.52)"/>
    <rect width="1.956" height=".2" x="70.407" y="-.1" fill="currentColor" ry=".1" transform="translate(5.69 7.52)"/>
    <rect width="1.956" height=".2" x="65.398" y="-.1" fill="currentColor" ry=".1" transform="translate(5.69 6.52)"/>
    <rect width="1.956" height=".2" x="65.398" y="-.1" fill="currentColor" ry=".1" transform="translate(5.69 7.52)"/>
    <rect width="1.956" height=".2" x="60.39" y="-.1" fill="currentColor" ry=".1" transform="translate(5.69 6.52)"/>
    <rect width="1.956" height=".2" x="60.39" y="-.1" fill="currentColor" ry=".1" transform="translate(5.69 7.52)"/>
    <rect width="1.956" height=".2" x="55.382" y="-.1" fill="currentColor" ry=".1" transform="translate(5.69 6.52)"/>
    <rect width="1.956" height=".2" x="55.382" y="-.1" fill="currentColor" ry=".1" transform="translate(5.69 7.52)"/>
    <rect width="1.956" height=".2" x="49.087" y="-.1" fill="currentColor" ry=".1" transform="translate(5.69 6.52)"/>
    <rect width="1.956" height=".2" x="49.087" y="-.1" fill="currentColor" ry=".1" transform="translate(5.69 7.52)"/>
    <rect width="1.956" height=".2" x="44.079" y="-.1" fill="currentColor" ry=".1" transform="translate(5.69 6.52)"/>
    <rect width="1.956" height=".2" x="44.079" y="-.1" fill="currentColor" ry=".1" transform="translate(5.69 7.52)"/>
    <rect width="1.956" height=".2" x="39.07" y="-.1" fill="currentColor" ry=".1" transform="translate(5.69 6.52)"/>
    <rect width="1.956" height=".2" x="39.07" y="-.1" fill="currentColor" ry=".1" transform="translate(5.69 7.52)"/>
    <rect width="1.956" height=".2" x="34.062" y="-.1" fill="currentColor" ry=".1" transform="translate(5.69 6.52)"/>
    <rect width="1.956" height=".2" x="34.062" y="-.1" fill="currentColor" ry=".1" transform="translate(5.69 7.52)"/>
    <rect width="1.956" height=".2" x="28.803" y="-.1" fill="currentColor" ry=".1" transform="translate(5.69 6.52)"/>
    <rect width="1.956" height=".2" x="28.803" y="-.1" fill="currentColor" ry=".1" transform="translate(5.69 7.52)"/>
    <rect width="1.956" height=".2" x="23.795" y="-.1" fill="currentColor" ry=".1" transform="translate(5.69 6.52)"/>
    <rect width="1.956" height=".2" x="23.795" y="-.1" fill="currentColor" ry=".1" transform="translate(5.69 7.52)"/>
    <rect width="1.956" height=".2" x="18.787" y="-.1" fill="currentColor" ry=".1" transform="translate(5.69 6.52)"/>
    <rect width="1.956" height=".2" x="18.787" y="-.1" fill="currentColor" ry=".1" transform="translate(5.69 7.52)"/>
    <rect width="1.956" height=".2" x="13.778" y="-.1" fill="currentColor" ry=".1" transform="translate(5.69 6.52)"/>
    <rect width="1.956" height=".2" x="13.778" y="-.1" fill="currentColor" ry=".1" transform="translate(5.69 7.52)"/>
    <path stroke="currentColor" stroke-linecap="round" stroke-linejoin="round" stroke-width=".1" d="M5.74 12.52h176.476m-176.476-1h176.476m-176.476-1h176.476M5.74 9.52h176.476M5.74 8.52h176.476"/>
    <rect width=".19" height="4.95" y="8.725" fill="currentColor" ry="0" transform="translate(182.076 3.845)"/>
    <rect width="1.956" height=".2" x="31.308" y="-.1" fill="currentColor" ry=".1" transform="translate(5.69 16.52)"/>
    <path stroke="currentColor" stroke-linecap="round" stroke-linejoin="round" stroke-width=".1" d="M5.74 21.52h176.476m-176.476-1h176.476m-176.476-1h176.476m-176.476-1h176.476m-176.476-1h176.476"/>
    <rect width=".19" height="4.05" y="-2.05" fill="currentColor" ry="0" transform="translate(182.076 19.52)"/>
    <rect width=".19" height="4.05" y="-2" fill="currentColor" ry="0" transform="translate(182.076 10.52)"/>
    <rect width=".19" height="4.95" y="8.725" fill="currentColor" ry="0" transform="translate(140.404 3.845)"/>
    <rect width=".19" height="4.05" y="-2.05" fill="currentColor" ry="0" transform="translate(140.404 19.52)"/>
    <rect width=".19" height="4.05" y="-2" fill="currentColor" ry="0" transform="translate(140.404 10.52)"/>
    <rect width=".19" height="4.95" y="8.725" fill="currentColor" ry="0" transform="translate(98.791 3.845)"/>
    <rect width=".19" height="4.05" y="-2.05" fill="currentColor" ry="0" transform="translate(98.791 19.52)"/>
    <rect width=".19" height="4.05" y="-2" fill="currentColor" ry="0" transform="translate(98.791 10.52)"/>
    <rect width=".19" height="4.95" y="8.725" fill="currentColor" ry="0" transform="translate(57.365 3.845)"/>
    <rect width=".19" height="4.05" y="-2.05" fill="currentColor" ry="0" transform="translate(57.365 19.52)"/>
    <rect width=".19" height="4.05" y="-2" fill="currentColor" ry="0" transform="translate(57.365 10.52)"/>
    <path fill="currentColor" d="M7.555 14.06H7.53a.783.783 0 0 1-.78-.787c0-.232.212-.412.448-.412.216 0 .38.188.38.412 0 .208-.172.38-.38.38a.326.326 0 0 1-.124-.024c.104.156.272.26.468.26h.016zm.78-1.727a.69.69 0 0 0 .452-.656.764.764 0 0 0-.692-.76c.076.356.192.968.24 1.416zm-1.548-.924c0 .58.564.988 1.056.988.004 0 .188 0 .328-.024a17.343 17.343 0 0 0-.252-1.456c-.316.032-.496.244-.496.476 0 .176.1.364.324.492.02.02.028.04.028.06 0 .044-.04.088-.088.088-.06 0-.504-.248-.504-.748 0-.352.232-.696.64-.788a15.048 15.048 0 0 0-.184-.7c-.428.484-.852.972-.852 1.612zm.704-2.1c-.116-.384-.208-.68-.208-1.384 0-.46.22-.896.596-1.168a.06.06 0 0 1 .08 0c.272.32.532.98.532 1.432 0 .572-.344 1.02-.72 1.456.084.272.156.552.224.828.008 0 .028-.004.052-.004.62 0 1.024.512 1.024 1.044 0 .452-.296.848-.72.984.012.14.02.28.02.42 0 .076-.004.156-.008.232-.028.476-.352.9-.808.912l.004-.172c.372-.008.612-.368.636-.764a3.775 3.775 0 0 0-.008-.588c-.02.004-.176.032-.356.032-.772 0-1.332-.72-1.332-1.496 0-.708.524-1.224.992-1.764zm.712-1.452c0-.136.004-.264-.08-.516a1.153 1.153 0 0 0-.648 1.036c0 .208.048.46.144.776.32-.388.584-.792.584-1.296z"/>
    <use xlink:href="#reuse-0" transform="matrix(.004 0 0 -.004 9.99 8.52)"/>
    <use xlink:href="#reuse-0" transform="matrix(.004 0 0 -.004 11.09 10.02)"/>
    <use xlink:href="#reuse-1" transform="matrix(.004 0 0 -.004 13.34 10.52)"/>
    <use xlink:href="#reuse-2" transform="matrix(.004 0 0 -.004 17.04 19.52)"/>
    <text fill="currentColor" class="scale-degree" font-family="serif" font-size="2.2" transform="translate(17.04 24.902)">
<tspan>➀</tspan>
</text>
    <path fill="currentColor" d="M8.719 19.02c0-.111.092-.203.204-.203s.204.092.204.204-.092.204-.204.204-.204-.092-.204-.204zm0-1c0-.111.092-.203.204-.203s.204.092.204.204-.092.204-.204.204-.204-.092-.204-.204zm-1.3-.551c.688 0 1.172.352 1.172 1.004 0 1.052-1.052 1.656-2.064 2.084a.049.049 0 0 1-.036.016.053.053 0 0 1-.052-.052c0-.012.004-.024.016-.036.808-.472 1.648-1.06 1.648-1.972 0-.48-.252-.94-.684-.94-.296 0-.516.216-.616.504a.323.323 0 0 1 .136-.032c.22 0 .4.18.4.4 0 .232-.176.424-.4.424-.24 0-.448-.188-.448-.424 0-.532.408-.976.928-.976z"/>
    <use xlink:href="#reuse-0" transform="matrix(.004 0 0 -.004 9.99 18.52)"/>
    <use xlink:href="#reuse-0" transform="matrix(.004 0 0 -.004 11.09 20.02)"/>
    <use xlink:href="#reuse-1" transform="matrix(.004 0 0 -.004 13.34 19.52)"/>
    <rect width=".13" height="2.814" x="-.065" y="-1.814" fill="currentColor" ry=".04" transform="translate(17.106 10.52)"/>
    <rect width=".13" height="3.147" x="-.065" y=".186" fill="currentColor" ry=".04" transform="translate(17.106 19.52)"/>
    <path fill="currentColor" stroke="currentColor" stroke-linecap="round" stroke-linejoin="round" stroke-width=".08" d="M180.84 17.32v.4l-7.812-.81v-.4zm0 .81v.4l-1.085-.119v-.4z"/>
    <use xlink:href="#reuse-2" transform="matrix(.004 0 0 -.004 19.795 6.02)"/>
    <rect width=".13" height="5.314" x="-.065" y="-4.314" fill="currentColor" ry=".04" transform="translate(19.86 10.52)"/>
    <path fill="currentColor" stroke="currentColor" stroke-linecap="round" stroke-linejoin="round" stroke-width=".08" d="M179.666 12.32v.4h-7.812v-.4zm0 .81v.4h-7.812v-.4z"/>
    <use xlink:href="#reuse-2" transform="matrix(.004 0 0 -.004 22.049 8.52)"/>
    <rect width=".13" height="2.814" x="-.065" y="-1.814" fill="currentColor" ry=".04" transform="translate(22.114 10.52)"/>
    <path fill="currentColor" stroke="currentColor" stroke-linecap="round" stroke-linejoin="round" stroke-width=".08" d="M169.65 12.32v.4h-7.813v-.4zm0 .81v.4h-7.813v-.4z"/>
    <use xlink:href="#reuse-2" transform="matrix(.004 0 0 -.004 24.803 6.02)"/>
    <rect width=".13" height="5.314" x="-.065" y="-4.314" fill="currentColor" ry=".04" transform="translate(24.868 10.52)"/>
    <path fill="currentColor" stroke="currentColor" stroke-linecap="round" stroke-linejoin="round" stroke-width=".08" d="M159.552 22.01v.4l-1.085-.101v-.4zm0 .81v.4l-7.812-.69v-.4z"/>
    <use xlink:href="#reuse-2" transform="matrix(.004 0 0 -.004 27.057 8.52)"/>
    <use xlink:href="#reuse-2" transform="matrix(.004 0 0 -.004 27.057 18.52)"/>
    <rect width=".13" height="2.814" x="-.065" y="-1.814" fill="currentColor" ry=".04" transform="translate(27.122 10.52)"/>
    <use xlink:href="#reuse-3" transform="matrix(.004 0 0 -.004 28.812 18.02)"/>
    <rect width=".13" height="3.001" x="-.065" y="-.814" fill="currentColor" ry=".04" transform="translate(27.122 19.52)"/>
    <path fill="currentColor" stroke="currentColor" stroke-linecap="round" stroke-linejoin="round" stroke-width=".08" d="M159.552 12.32v.4h-7.812v-.4zm0 .81v.4h-7.812v-.4z"/>
    <use xlink:href="#reuse-2" transform="matrix(.004 0 0 -.004 29.812 6.02)"/>
    <rect width=".13" height="5.314" x="-.065" y="-4.314" fill="currentColor" ry=".04" transform="translate(29.877 10.52)"/>
    <path fill="currentColor" stroke="currentColor" stroke-linecap="round" stroke-linejoin="round" stroke-width=".08" d="M149.535 12.32v.4h-7.812v-.4zm0 .81v.4h-7.812v-.4z"/>
    <use xlink:href="#reuse-2" transform="matrix(.004 0 0 -.004 32.066 8.52)"/>
    <rect width=".13" height="2.814" x="-.065" y="-1.814" fill="currentColor" ry=".04" transform="translate(32.13 10.52)"/>
    <path fill="currentColor" stroke="currentColor" stroke-linecap="round" stroke-linejoin="round" stroke-width=".08" d="M138.197 21.32v.4l-1.085-.091v-.4zm0 .81v.4l-7.813-.62v-.4z"/>
    <use xlink:href="#reuse-2" transform="matrix(.004 0 0 -.004 34.82 6.02)"/>
    <use xlink:href="#reuse-2" transform="matrix(.004 0 0 -.004 34.82 17.52)"/>
    <rect width=".13" height="5.314" x="-.065" y="-4.314" fill="currentColor" ry=".04" transform="translate(34.885 10.52)"/>
    <rect width=".13" height="3.627" x="-.065" y="-1.814" fill="currentColor" ry=".04" transform="translate(34.885 19.52)"/>
    <path fill="currentColor" stroke="currentColor" stroke-linecap="round" stroke-linejoin="round" stroke-width=".08" d="M138.197 11.51v.4h-7.813v-.4zm0 .81v.4h-7.813v-.4z"/>
    <use xlink:href="#reuse-2" transform="matrix(.004 0 0 -.004 37.324 8.52)"/>
    <use xlink:href="#reuse-2" transform="matrix(.004 0 0 -.004 37.324 16.02)"/>
    <rect width=".13" height="2.814" x="-.065" y="-1.814" fill="currentColor" ry=".04" transform="translate(37.39 10.52)"/>
    <rect width=".13" height="3.314" x="-.065" y="-3.314" fill="currentColor" ry=".04" transform="translate(37.39 19.52)"/>
    <path fill="currentColor" stroke="currentColor" stroke-linecap="round" stroke-linejoin="round" stroke-width=".08" d="M128.18 11.51v.4h-7.813v-.4zm0 .81v.4h-7.813v-.4z"/>
    <use xlink:href="#reuse-2" transform="matrix(.004 0 0 -.004 40.078 6.02)"/>
    <rect width=".13" height="5.314" x="-.065" y="-4.314" fill="currentColor" ry=".04" transform="translate(40.144 10.52)"/>
    <path fill="currentColor" stroke="currentColor" stroke-linecap="round" stroke-linejoin="round" stroke-width=".08" d="M117.913 21.32v.4l-1.085.102v-.4zm0 .81v.4l-7.812.69v-.4z"/>
    <use xlink:href="#reuse-2" transform="matrix(.004 0 0 -.004 42.333 8.52)"/>
    <rect width=".13" height="2.814" x="-.065" y="-1.814" fill="currentColor" ry=".04" transform="translate(42.398 10.52)"/>
    <path fill="currentColor" stroke="currentColor" stroke-linecap="round" stroke-linejoin="round" stroke-width=".08" d="M117.913 11.51v.4h-7.812v-.4zm0 .81v.4h-7.812v-.4z"/>
    <use xlink:href="#reuse-2" transform="matrix(.004 0 0 -.004 45.087 6.02)"/>
    <rect width=".13" height="5.314" x="-.065" y="-4.314" fill="currentColor" ry=".04" transform="translate(45.152 10.52)"/>
    <path fill="currentColor" stroke="currentColor" stroke-linecap="round" stroke-linejoin="round" stroke-width=".08" d="M107.896 11.51v.4h-7.812v-.4zm0 .81v.4h-7.812v-.4z"/>
    <use xlink:href="#reuse-2" transform="matrix(.004 0 0 -.004 47.341 8.52)"/>
    <use xlink:href="#reuse-2" transform="matrix(.004 0 0 -.004 47.341 17.02)"/>
    <rect width=".13" height="2.814" x="-.065" y="-1.814" fill="currentColor" ry=".04" transform="translate(47.406 10.52)"/>
    <use xlink:href="#reuse-3" transform="matrix(.004 0 0 -.004 49.095 17.02)"/>
    <rect width=".13" height="3.509" x="-.065" y="-2.314" fill="currentColor" ry=".04" transform="translate(47.406 19.52)"/>
    <path fill="currentColor" stroke="currentColor" stroke-linecap="round" stroke-linejoin="round" stroke-width=".08" d="M96.627 11.32v.4h-7.812v-.4zm0 .81v.4h-7.812v-.4z"/>
    <use xlink:href="#reuse-2" transform="matrix(.004 0 0 -.004 50.095 6.02)"/>
    <rect width=".13" height="5.314" x="-.065" y="-4.314" fill="currentColor" ry=".04" transform="translate(50.16 10.52)"/>
    <path fill="currentColor" stroke="currentColor" stroke-linecap="round" stroke-linejoin="round" stroke-width=".08" d="M86.61 11.32v.4h-7.812v-.4zm0 .81v.4h-7.812v-.4z"/>
    <use xlink:href="#reuse-2" transform="matrix(.004 0 0 -.004 52.35 8.52)"/>
    <rect width=".13" height="2.814" x="-.065" y="-1.814" fill="currentColor" ry=".04" transform="translate(52.414 10.52)"/>
    <path fill="currentColor" stroke="currentColor" stroke-linecap="round" stroke-linejoin="round" stroke-width=".08" d="M76.513 22.01v.4l-1.085-.101v-.4zm0 .81v.4l-7.812-.69v-.4z"/>
    <use xlink:href="#reuse-2" transform="matrix(.004 0 0 -.004 55.104 6.02)"/>
    <use xlink:href="#reuse-2" transform="matrix(.004 0 0 -.004 55.104 18.02)"/>
    <rect width=".13" height="5.314" x="-.065" y="-4.314" fill="currentColor" ry=".04" transform="translate(55.169 10.52)"/>
    <rect width=".13" height="3.119" x="-.065" y="-1.314" fill="currentColor" ry=".04" transform="translate(55.169 19.52)"/>
    <use xlink:href="#reuse-0" transform="matrix(.004 0 0 -.004 53.654 18.02)"/>
    <path fill="currentColor" stroke="currentColor" stroke-linecap="round" stroke-linejoin="round" stroke-width=".08" d="M76.513 11.32v.4h-7.812v-.4zm0 .81v.4h-7.812v-.4zm-10.016-.81v.4h-7.813v-.4zm0 .81v.4h-7.813v-.4z"/>
    <use xlink:href="#reuse-2" transform="matrix(.004 0 0 -.004 58.644 9.02)"/>
    <text fill="currentColor" class="scale-degree" font-family="serif" font-size="2.2" transform="translate(58.644 5.726)">
<tspan>➋</tspan>
</text>
    <path fill="currentColor" d="m18.073 14.087-.2.652c-.12.396-.484 1.02-.872 1.02-.18 0-.348-.108-.348-.276 0-.156.068-.308.208-.308.096 0 .176.08.176.176 0 .12-.152.096-.152.216 0 .04.044.044.092.044h.024c.192 0 .244-.232.292-.432l.272-1.092h-.196c-.044 0-.076-.032-.076-.076s.032-.076.076-.076h.24c.128-.384.472-.764.852-.764.18 0 .348.108.348.276 0 .156-.068.308-.208.308a.174.174 0 0 1-.176-.172c0-.12.152-.1.152-.22 0-.04-.04-.044-.088-.044h-.028c-.248 0-.28.352-.344.616h.22c.044 0 .076.032.076.076s-.032.076-.076.076h-.264z"/>
    <use xlink:href="#reuse-2" transform="matrix(.004 0 0 -.004 58.644 17.52)"/>
    <text fill="currentColor" class="scale-degree" font-family="serif" font-size="2.2" transform="translate(58.644 23.619)">
<tspan>➄</tspan>
</text>
    <text fill="currentColor" class="scale-degree" font-family="serif" font-size="2.2" transform="translate(17.04 5.726)">
<tspan>➌</tspan>
</text>
    <rect width=".13" height="3.124" x="-.065" y="-1.314" fill="currentColor" ry=".04" transform="translate(58.709 10.52)"/>
    <rect width=".13" height="3.314" x="-.065" y="-1.814" fill="currentColor" ry=".04" transform="translate(58.709 19.52)"/>
    <use xlink:href="#reuse-2" transform="matrix(.004 0 0 -.004 17.04 8.52)"/>
    <path fill="currentColor" stroke="currentColor" stroke-linecap="round" stroke-linejoin="round" stroke-width=".08" d="M55.194 20.32v.4l-1.085-.091v-.4zm0 .81v.4l-7.813-.62v-.4z"/>
    <use xlink:href="#reuse-2" transform="matrix(.004 0 0 -.004 61.398 6.02)"/>
    <rect width=".13" height="6.124" x="-.065" y="-4.314" fill="currentColor" ry=".04" transform="translate(61.463 10.52)"/>
    <path fill="currentColor" stroke="currentColor" stroke-linecap="round" stroke-linejoin="round" stroke-width=".08" d="M55.194 10.51v.4H47.38v-.4zm0 .81v.4H47.38v-.4z"/>
    <use xlink:href="#reuse-2" transform="matrix(.004 0 0 -.004 63.652 9.02)"/>
    <rect width=".13" height="3.124" x="-.065" y="-1.314" fill="currentColor" ry=".04" transform="translate(63.717 10.52)"/>
    <path fill="currentColor" stroke="currentColor" stroke-linecap="round" stroke-linejoin="round" stroke-width=".08" d="M45.177 10.51v.4h-7.813v-.4zm0 .81v.4h-7.813v-.4z"/>
    <use xlink:href="#reuse-2" transform="matrix(.004 0 0 -.004 66.407 6.02)"/>
    <rect width=".13" height="6.124" x="-.065" y="-4.314" fill="currentColor" ry=".04" transform="translate(66.472 10.52)"/>
    <path fill="currentColor" stroke="currentColor" stroke-linecap="round" stroke-linejoin="round" stroke-width=".08" d="M34.91 20.32v.4l-1.085.057v-.4zm0 .81v.4l-7.813.38v-.4z"/>
    <use xlink:href="#reuse-2" transform="matrix(.004 0 0 -.004 68.66 9.02)"/>
    <use xlink:href="#reuse-2" transform="matrix(.004 0 0 -.004 68.66 19.02)"/>
    <rect width=".13" height="3.124" x="-.065" y="-1.314" fill="currentColor" ry=".04" transform="translate(68.726 10.52)"/>
    <use xlink:href="#reuse-3" transform="matrix(.004 0 0 -.004 70.415 19.02)"/>
    <rect width=".13" height="3.13" x="-.065" y="-.314" fill="currentColor" ry=".04" transform="translate(68.726 19.52)"/>
    <path fill="currentColor" stroke="currentColor" stroke-linecap="round" stroke-linejoin="round" stroke-width=".08" d="M34.91 10.51v.4h-7.813v-.4zm0 .81v.4h-7.813v-.4z"/>
    <use xlink:href="#reuse-2" transform="matrix(.004 0 0 -.004 71.415 6.02)"/>
    <rect width=".13" height="6.124" x="-.065" y="-4.314" fill="currentColor" ry=".04" transform="translate(71.48 10.52)"/>
    <path fill="currentColor" stroke="currentColor" stroke-linecap="round" stroke-linejoin="round" stroke-width=".08" d="M24.893 10.51v.4h-7.812v-.4zm0 .81v.4h-7.812v-.4z"/>
    <use xlink:href="#reuse-2" transform="matrix(.004 0 0 -.004 73.67 9.02)"/>
    <rect width=".13" height="3.124" x="-.065" y="-1.314" fill="currentColor" ry=".04" transform="translate(73.734 10.52)"/>
    <use xlink:href="#reuse-2" transform="matrix(.004 0 0 -.004 76.424 6.02)"/>
    <use xlink:href="#reuse-2" transform="matrix(.004 0 0 -.004 76.424 20.02)"/>
    <rect width=".13" height="6.124" x="-.065" y="-4.314" fill="currentColor" ry=".04" transform="translate(76.489 10.52)"/>
    <rect width=".13" height="2.808" x="-.065" y=".686" fill="currentColor" ry=".04" transform="translate(76.489 19.52)"/>
    <use xlink:href="#reuse-2" transform="matrix(.004 0 0 -.004 78.758 9.02)"/>
    <use xlink:href="#reuse-2" transform="matrix(.004 0 0 -.004 78.758 21.02)"/>
    <rect width=".13" height="3.124" x="-.065" y="-1.314" fill="currentColor" ry=".04" transform="translate(78.823 10.52)"/>
    <rect width=".13" height="3.314" x="-.065" y="-2" fill="currentColor" ry=".04" transform="translate(79.997 19.52)"/>
    <use xlink:href="#reuse-2" transform="matrix(.004 0 0 -.004 81.512 6.52)"/>
    <rect width=".13" height="5.624" x="-.065" y="-3.814" fill="currentColor" ry=".04" transform="translate(81.577 10.52)"/>
    <use xlink:href="#reuse-2" transform="matrix(.004 0 0 -.004 83.766 9.02)"/>
    <rect width=".13" height="3.124" x="-.065" y="-1.314" fill="currentColor" ry=".04" transform="translate(83.831 10.52)"/>
    <use xlink:href="#reuse-2" transform="matrix(.004 0 0 -.004 86.52 6.52)"/>
    <rect width=".13" height="5.624" x="-.065" y="-3.814" fill="currentColor" ry=".04" transform="translate(86.585 10.52)"/>
    <use xlink:href="#reuse-2" transform="matrix(.004 0 0 -.004 88.775 9.02)"/>
    <use xlink:href="#reuse-2" transform="matrix(.004 0 0 -.004 88.775 21.02)"/>
    <path fill="currentColor" d="M88.239 16.313c0 .06.032.12.156.12.04 0 .184-.008.412-.112l.02-.096a.542.542 0 0 0-.324-.116c-.204 0-.264.124-.264.204zm1.084.492c0 .244-.188.46-.392.46-.156 0-.224-.176-.224-.364 0-.056.004-.112.016-.164l.06-.304c-.08.032-.252.1-.404.1-.076 0-.24-.024-.24-.204 0-.152.128-.32.384-.32a.61.61 0 0 1 .328.1l.184-.928c.024.012.052.02.08.02.088 0 .192-.064.272-.14l-.212 1.064.256-.144a.622.622 0 0 1 .296-.08c.116 0 .212.04.256.112a.373.373 0 0 1 .276-.12c.144 0 .276.088.276.276 0 .196-.124.36-.26.36-.1 0-.152-.088-.152-.192 0-.2.148-.256.24-.256h.012c-.032-.056-.092-.08-.152-.08-.096 0-.2.064-.22.172l-.216 1.08c-.044-.028-.096-.044-.152-.044s-.116.016-.172.044l.216-1.08v-.028c0-.064-.048-.104-.116-.104a.236.236 0 0 0-.096.028l-.316.176-.028.124c.108.124.2.268.2.436zm-.24.26c.092 0 .14-.136.14-.244 0-.12-.056-.22-.128-.312l-.02.108c-.016.072-.052.224-.052.332 0 .068.016.116.06.116z"/>
    <rect width=".13" height="3.124" x="-.065" y="-1.314" fill="currentColor" ry=".04" transform="translate(88.84 10.52)"/>
    <rect width=".13" height="3.314" x="-.065" y="-2" fill="currentColor" ry=".04" transform="translate(90.014 19.52)"/>
    <use xlink:href="#reuse-0" transform="matrix(.004 0 0 -.004 87.325 21.02)"/>
    <use xlink:href="#reuse-2" transform="matrix(.004 0 0 -.004 91.529 6.52)"/>
    <rect width=".13" height="5.624" x="-.065" y="-3.814" fill="currentColor" ry=".04" transform="translate(91.594 10.52)"/>
    <use xlink:href="#reuse-2" transform="matrix(.004 0 0 -.004 93.783 9.02)"/>
    <rect width=".13" height="3.124" x="-.065" y="-1.314" fill="currentColor" ry=".04" transform="translate(93.848 10.52)"/>
    <use xlink:href="#reuse-2" transform="matrix(.004 0 0 -.004 96.537 6.52)"/>
    <rect width=".13" height="5.624" x="-.065" y="-3.814" fill="currentColor" ry=".04" transform="translate(96.602 10.52)"/>
    <use xlink:href="#reuse-2" transform="matrix(.004 0 0 -.004 100.044 9.52)"/>
    <text fill="currentColor" class="scale-degree" font-family="serif" font-size="2.2" transform="translate(100.044 5.726)">
<tspan>➊</tspan>
</text>
    <use xlink:href="#reuse-2" transform="matrix(.004 0 0 -.004 100.044 20.52)"/>
    <text fill="currentColor" class="scale-degree" font-family="serif" font-size="2.2" transform="translate(100.044 23.619)">
<tspan>➅</tspan>
</text>
    <rect width=".13" height="2.814" x="-.065" y="-.814" fill="currentColor" ry=".04" transform="translate(100.109 10.52)"/>
    <rect width=".13" height="3.314" x="-.065" y="-2.5" fill="currentColor" ry=".04" transform="translate(101.283 19.52)"/>
    <use xlink:href="#reuse-2" transform="matrix(.004 0 0 -.004 102.798 6.52)"/>
    <rect width=".13" height="5.814" x="-.065" y="-3.814" fill="currentColor" ry=".04" transform="translate(102.863 10.52)"/>
    <use xlink:href="#reuse-2" transform="matrix(.004 0 0 -.004 105.052 9.52)"/>
    <rect width=".13" height="2.814" x="-.065" y="-.814" fill="currentColor" ry=".04" transform="translate(105.117 10.52)"/>
    <use xlink:href="#reuse-2" transform="matrix(.004 0 0 -.004 107.806 6.52)"/>
    <rect width=".13" height="5.814" x="-.065" y="-3.814" fill="currentColor" ry=".04" transform="translate(107.871 10.52)"/>
    <use xlink:href="#reuse-2" transform="matrix(.004 0 0 -.004 110.06 9.52)"/>
    <use xlink:href="#reuse-2" transform="matrix(.004 0 0 -.004 110.06 19.52)"/>
    <rect width=".13" height="2.814" x="-.065" y="-.814" fill="currentColor" ry=".04" transform="translate(110.126 10.52)"/>
    <use xlink:href="#reuse-3" transform="matrix(.004 0 0 -.004 111.815 19.02)"/>
    <rect width=".13" height="3.308" x="-.065" y=".186" fill="currentColor" ry=".04" transform="translate(110.126 19.52)"/>
    <use xlink:href="#reuse-2" transform="matrix(.004 0 0 -.004 112.815 6.52)"/>
    <rect width=".13" height="5.814" x="-.065" y="-3.814" fill="currentColor" ry=".04" transform="translate(112.88 10.52)"/>
    <use xlink:href="#reuse-2" transform="matrix(.004 0 0 -.004 115.069 9.52)"/>
    <rect width=".13" height="2.814" x="-.065" y="-.814" fill="currentColor" ry=".04" transform="translate(115.134 10.52)"/>
    <use xlink:href="#reuse-2" transform="matrix(.004 0 0 -.004 117.823 6.52)"/>
    <use xlink:href="#reuse-2" transform="matrix(.004 0 0 -.004 117.823 18.52)"/>
    <rect width=".13" height="5.814" x="-.065" y="-3.814" fill="currentColor" ry=".04" transform="translate(117.888 10.52)"/>
    <rect width=".13" height="3.63" x="-.065" y="-.814" fill="currentColor" ry=".04" transform="translate(117.888 19.52)"/>
    <use xlink:href="#reuse-2" transform="matrix(.004 0 0 -.004 120.327 9.52)"/>
    <use xlink:href="#reuse-2" transform="matrix(.004 0 0 -.004 120.327 17.02)"/>
    <rect width=".13" height="2.814" x="-.065" y="-.814" fill="currentColor" ry=".04" transform="translate(120.392 10.52)"/>
    <rect width=".13" height="3.314" x="-.065" y="-2.314" fill="currentColor" ry=".04" transform="translate(120.392 19.52)"/>
    <rect width=".13" height="3.321" x="-.065" y="-2.007" fill="currentColor" ry=".04" transform="translate(180.815 19.52)"/>
    <use xlink:href="#reuse-2" transform="matrix(.004 0 0 -.004 123.082 7.02)"/>
    <rect width=".13" height="5.314" x="-.065" y="-3.314" fill="currentColor" ry=".04" transform="translate(123.147 10.52)"/>
    <use xlink:href="#reuse-2" transform="matrix(.004 0 0 -.004 125.336 9.52)"/>
    <rect width=".13" height="2.814" x="-.065" y="-.814" fill="currentColor" ry=".04" transform="translate(125.4 10.52)"/>
    <use xlink:href="#reuse-2" transform="matrix(.004 0 0 -.004 128.09 7.02)"/>
    <rect width=".13" height="5.314" x="-.065" y="-3.314" fill="currentColor" ry=".04" transform="translate(128.155 10.52)"/>
    <use xlink:href="#reuse-2" transform="matrix(.004 0 0 -.004 130.344 9.52)"/>
    <use xlink:href="#reuse-2" transform="matrix(.004 0 0 -.004 130.344 18.02)"/>
    <rect width=".13" height="2.814" x="-.065" y="-.814" fill="currentColor" ry=".04" transform="translate(130.41 10.52)"/>
    <use xlink:href="#reuse-3" transform="matrix(.004 0 0 -.004 132.099 18.02)"/>
    <rect width=".13" height="3.509" x="-.065" y="-1.314" fill="currentColor" ry=".04" transform="translate(130.41 19.52)"/>
    <use xlink:href="#reuse-0" transform="matrix(.004 0 0 -.004 128.894 18.02)"/>
    <use xlink:href="#reuse-2" transform="matrix(.004 0 0 -.004 133.099 7.02)"/>
    <rect width=".13" height="5.314" x="-.065" y="-3.314" fill="currentColor" ry=".04" transform="translate(133.163 10.52)"/>
    <rect width=".13" height="5.624" x="-.065" y="-2.814" fill="currentColor" ry=".04" transform="translate(179.641 10.52)"/>
    <use xlink:href="#reuse-2" transform="matrix(.004 0 0 -.004 135.353 9.52)"/>
    <rect width=".13" height="2.814" x="-.065" y="-.814" fill="currentColor" ry=".04" transform="translate(135.418 10.52)"/>
    <use xlink:href="#reuse-2" transform="matrix(.004 0 0 -.004 179.576 21.02)"/>
    <use xlink:href="#reuse-2" transform="matrix(.004 0 0 -.004 138.107 7.02)"/>
    <use xlink:href="#reuse-2" transform="matrix(.004 0 0 -.004 138.107 19.02)"/>
    <rect width=".13" height="5.314" x="-.065" y="-3.314" fill="currentColor" ry=".04" transform="translate(138.172 10.52)"/>
    <rect width=".13" height="3.119" x="-.065" y="-.314" fill="currentColor" ry=".04" transform="translate(138.172 19.52)"/>
    <use xlink:href="#reuse-2" transform="matrix(.004 0 0 -.004 179.576 7.52)"/>
    <use xlink:href="#reuse-2" transform="matrix(.004 0 0 -.004 141.683 10.02)"/>
    <text fill="currentColor" class="scale-degree" font-family="serif" font-size="2.2" transform="translate(141.683 6.726)">
<tspan>➐</tspan>
</text>
    <use xlink:href="#reuse-2" transform="matrix(.004 0 0 -.004 141.683 17.52)"/>
    <text fill="currentColor" class="scale-degree" font-family="serif" font-size="2.2" transform="translate(141.683 23.619)">
<tspan>➄</tspan>
</text>
    <rect width=".16" height="13.1" y="-6.55" fill="currentColor" ry=".05" transform="translate(5.63 15.02)"/>
    <rect width=".13" height="3.124" x="-.065" y="-.314" fill="currentColor" ry=".04" transform="translate(141.748 10.52)"/>
    <rect width=".13" height="3.314" x="-.065" y="-1.814" fill="currentColor" ry=".04" transform="translate(141.748 19.52)"/>
    <path fill="currentColor" d="M5.007 16.485c0-1.02-.528-1.452-.528-1.464 0-.072.528-.384.528-1.464 0-1.044-.432-1.956-.432-3.12 0-.756.18-1.464.708-2.004.06-.06.156.036.096.096-.396.396-.516.9-.516 1.44 0 1.02.408 1.92.408 3.06 0 .744-.18 1.452-.696 1.992.516.54.696 1.248.696 1.992 0 1.14-.408 2.04-.408 3.06 0 .54.12 1.044.516 1.44.06.06-.036.156-.096.096-.528-.54-.708-1.248-.708-2.004 0-1.164.432-2.076.432-3.12z"/>
    <use xlink:href="#reuse-2" transform="matrix(.004 0 0 -.004 144.437 7.02)"/>
    <rect width=".13" height="6.124" x="-.065" y="-3.314" fill="currentColor" ry=".04" transform="translate(144.502 10.52)"/>
    <use xlink:href="#reuse-2" transform="matrix(.004 0 0 -.004 146.691 10.02)"/>
    <rect width=".13" height="3.124" x="-.065" y="-.314" fill="currentColor" ry=".04" transform="translate(146.756 10.52)"/>
    <use xlink:href="#reuse-2" transform="matrix(.004 0 0 -.004 149.446 7.02)"/>
    <rect width=".13" height="6.124" x="-.065" y="-3.314" fill="currentColor" ry=".04" transform="translate(149.51 10.52)"/>
    <rect width=".13" height="3.124" x="-.065" y="-.314" fill="currentColor" ry=".04" transform="translate(176.887 10.52)"/>
    <use xlink:href="#reuse-2" transform="matrix(.004 0 0 -.004 151.7 10.02)"/>
    <use xlink:href="#reuse-2" transform="matrix(.004 0 0 -.004 151.7 19.02)"/>
    <rect width=".13" height="3.124" x="-.065" y="-.314" fill="currentColor" ry=".04" transform="translate(151.765 10.52)"/>
    <use xlink:href="#reuse-3" transform="matrix(.004 0 0 -.004 153.454 19.02)"/>
    <rect width=".13" height="3.13" x="-.065" y="-.314" fill="currentColor" ry=".04" transform="translate(151.765 19.52)"/>
    <use xlink:href="#reuse-2" transform="matrix(.004 0 0 -.004 176.822 10.02)"/>
    <use xlink:href="#reuse-2" transform="matrix(.004 0 0 -.004 154.454 7.02)"/>
    <rect width=".13" height="6.124" x="-.065" y="-3.314" fill="currentColor" ry=".04" transform="translate(154.519 10.52)"/>
    <use xlink:href="#reuse-2" transform="matrix(.004 0 0 -.004 156.708 10.02)"/>
    <rect width=".13" height="3.124" x="-.065" y="-.314" fill="currentColor" ry=".04" transform="translate(156.773 10.52)"/>
    <use xlink:href="#reuse-2" transform="matrix(.004 0 0 -.004 159.462 7.02)"/>
    <use xlink:href="#reuse-2" transform="matrix(.004 0 0 -.004 159.462 20.02)"/>
    <rect width=".13" height="6.124" x="-.065" y="-3.314" fill="currentColor" ry=".04" transform="translate(159.527 10.52)"/>
    <rect width=".13" height="2.808" x="-.065" y=".686" fill="currentColor" ry=".04" transform="translate(159.527 19.52)"/>
    <use xlink:href="#reuse-2" transform="matrix(.004 0 0 -.004 161.797 10.02)"/>
    <use xlink:href="#reuse-2" transform="matrix(.004 0 0 -.004 161.797 21.02)"/>
    <rect width=".13" height="3.124" x="-.065" y="-.314" fill="currentColor" ry=".04" transform="translate(161.862 10.52)"/>
    <rect width=".13" height="3.314" x="-.065" y="-2" fill="currentColor" ry=".04" transform="translate(163.036 19.52)"/>
    <use xlink:href="#reuse-2" transform="matrix(.004 0 0 -.004 164.55 7.52)"/>
    <rect width=".13" height="5.624" x="-.065" y="-2.814" fill="currentColor" ry=".04" transform="translate(164.616 10.52)"/>
    <rect width=".13" height="5.624" x="-.065" y="-2.814" fill="currentColor" ry=".04" transform="translate(174.633 10.52)"/>
    <use xlink:href="#reuse-2" transform="matrix(.004 0 0 -.004 166.805 10.02)"/>
    <rect width=".13" height="3.124" x="-.065" y="-.314" fill="currentColor" ry=".04" transform="translate(166.87 10.52)"/>
    <use xlink:href="#reuse-2" transform="matrix(.004 0 0 -.004 174.568 7.52)"/>
    <use xlink:href="#reuse-2" transform="matrix(.004 0 0 -.004 169.56 7.52)"/>
    <rect width=".13" height="5.624" x="-.065" y="-2.814" fill="currentColor" ry=".04" transform="translate(169.624 10.52)"/>
    <use xlink:href="#reuse-2" transform="matrix(.004 0 0 -.004 171.814 10.02)"/>
    <use xlink:href="#reuse-2" transform="matrix(.004 0 0 -.004 171.814 20.02)"/>
    <rect width=".13" height="3.124" x="-.065" y="-.314" fill="currentColor" ry=".04" transform="translate(171.879 10.52)"/>
    <use xlink:href="#reuse-3" transform="matrix(.004 0 0 -.004 173.568 20.02)"/>
    <rect width=".13" height="3.117" x="-.065" y="-2.803" fill="currentColor" ry=".04" transform="translate(173.053 19.52)"/>
</svg>
