<svg xmlns="http://www.w3.org/2000/svg" width="680.315" height="60mm" class="d-block mx-auto d-block mx-auto" version="1.2" viewBox="0 0 102.43 34.143"><text font-family="serif" font-size="2.47" font-weight="bold" transform="translate(5.69 5.519)">
<tspan style="white-space:pre">Allegro assai</tspan>
</text><rect width="1.956" height=".2" x="87.869" y="-.1" ry=".1" transform="translate(5.69 13.552)"/><rect width="1.956" height=".2" x="39.151" y="-.1" ry=".1" transform="translate(5.69 13.552)"/><rect width="1.956" height=".2" x="29.704" y="-.1" ry=".1" transform="translate(5.69 13.552)"/><rect width="1.956" height=".2" x="24.98" y="-.1" ry=".1" transform="translate(5.69 13.552)"/><rect width="1.956" height=".2" x="24.98" y="-.1" ry=".1" transform="translate(5.69 14.552)"/><rect width="1.956" height=".2" x="20.257" y="-.1" ry=".1" transform="translate(5.69 13.552)"/><path stroke="currentColor" stroke-linecap="round" stroke-linejoin="round" stroke-width=".1" d="M5.74 12.552h90.95m-90.95-1h90.95m-90.95-1h90.95m-90.95-1h90.95m-90.95-1h90.95"/><rect width=".19" height="4.95" y="6.05" ry="0" transform="translate(96.55 6.552)"/><path stroke="currentColor" stroke-linecap="round" stroke-linejoin="round" stroke-width=".1" d="M5.74 21.552h90.95m-90.95-1h90.95m-90.95-1h90.95m-90.95-1h90.95m-90.95-1h90.95"/><rect width=".19" height="4.05" y="-2.05" ry="0" transform="translate(96.55 19.552)"/><rect width=".19" height="4.05" y="-2" ry="0" transform="translate(96.55 10.552)"/><rect width=".19" height="4.95" y="6.05" ry="0" transform="translate(57.265 6.552)"/><rect width=".19" height="4.05" y="-2.05" ry="0" transform="translate(57.265 19.552)"/><rect width=".19" height="4.05" y="-2" ry="0" transform="translate(57.265 10.552)"/><path stroke="currentColor" stroke-linecap="round" stroke-linejoin="round" stroke-width=".08" d="M95.15 9.352v.4l-14.22-1.81v-.4zm0 .81v.4l-14.22-1.81v-.4z"/><path d="M19.74 9.732c.317 0 .18.392.36.392.06 0 .2-.196.229-.252.024-.048.092-.048.112 0l-.716 2.68c-.032.028-.068.04-.108.04s-.08-.012-.112-.04l.404-1.308a1.3 1.3 0 0 1-.424.092c-.188 0-.348-.136-.348-.316 0-.16.128-.288.288-.288.316 0 .184.392.364.392.064 0 .22-.204.24-.272l.184-.604a1.249 1.249 0 0 1-.416.088c-.188 0-.348-.136-.348-.316a.29.29 0 0 1 .292-.288zm-12.185 4.36H7.53a.783.783 0 0 1-.78-.788c0-.232.212-.412.448-.412.216 0 .38.188.38.412 0 .208-.172.38-.38.38a.326.326 0 0 1-.124-.024c.104.156.272.26.468.26h.016zm.78-1.728a.69.69 0 0 0 .452-.656.764.764 0 0 0-.692-.76c.076.356.192.968.24 1.416zm-1.548-.924c0 .58.564.988 1.056.988.004 0 .188 0 .328-.024a17.343 17.343 0 0 0-.252-1.456c-.316.032-.496.244-.496.476 0 .176.1.364.324.492.02.02.028.04.028.06 0 .044-.04.088-.088.088-.06 0-.504-.248-.504-.748 0-.352.232-.696.64-.788a15.048 15.048 0 0 0-.184-.7c-.428.484-.852.972-.852 1.612zm.704-2.1c-.116-.384-.208-.68-.208-1.384 0-.46.22-.896.596-1.168a.06.06 0 0 1 .08 0c.272.32.532.98.532 1.432 0 .572-.344 1.02-.72 1.456.084.272.156.552.224.828.008 0 .028-.004.052-.004.62 0 1.024.512 1.024 1.044 0 .452-.296.848-.72.984.012.14.02.28.02.42 0 .076-.004.156-.008.232-.028.476-.352.9-.808.912l.004-.172c.372-.008.612-.368.636-.764a3.775 3.775 0 0 0-.008-.588c-.02.004-.176.032-.356.032-.772 0-1.332-.72-1.332-1.496 0-.708.524-1.224.992-1.764zm.712-1.452c0-.136.004-.264-.08-.516a1.153 1.153 0 0 0-.648 1.036c0 .208.048.46.144.776.32-.388.584-.792.584-1.296zm1.787.188c0-.032.02-.06.053-.072l.184-.068v-.632c0-.04.032-.076.072-.076s.076.036.076.076v.58l.332-.124v-.632c0-.04.036-.076.076-.076s.072.036.072.076v.58l.128-.048c.008-.004.02-.004.028-.004a.08.08 0 0 1 .08.08v.24c0 .032-.02.064-.052.076l-.184.064v.64l.128-.044c.008-.004.02-.004.028-.004a.08.08 0 0 1 .08.08v.24c0 .032-.02.06-.052.072l-.184.068V9.8c0 .04-.032.076-.072.076s-.076-.036-.076-.076v-.58l-.332.124v.632c0 .04-.036.076-.076.076s-.072-.036-.072-.076v-.58l-.128.048c-.008.004-.02.004-.028.004a.08.08 0 0 1-.08-.08v-.24c0-.032.02-.064.052-.076l.184-.064v-.64l-.128.044c-.008.004-.02.004-.028.004a.08.08 0 0 1-.08-.08v-.24zm.717.096-.332.12v.64l.332-.12v-.64zm.383 1.404c0-.032.02-.06.053-.072l.184-.068v-.632c0-.04.032-.076.072-.076s.076.036.076.076v.58l.332-.124v-.632c0-.04.036-.076.076-.076s.072.036.072.076v.58l.128-.048c.008-.004.02-.004.028-.004a.08.08 0 0 1 .08.08v.24c0 .032-.02.064-.052.076l-.184.064v.64l.128-.044c.008-.004.02-.004.028-.004a.08.08 0 0 1 .08.08v.24c0 .032-.02.06-.052.072l-.184.068v.632c0 .04-.032.076-.072.076s-.076-.036-.076-.076v-.58l-.332.124v.632c0 .04-.036.076-.076.076s-.072-.036-.072-.076v-.58l-.128.048c-.008.004-.02.004-.028.004a.08.08 0 0 1-.08-.08v-.24c0-.032.02-.064.052-.076l.184-.064v-.64l-.128.044c-.008.004-.02.004-.028.004a.08.08 0 0 1-.08-.08v-.24zm.717.096-.332.12v.64l.332-.12v-.64zm.383-2.096c0-.032.02-.06.053-.072l.184-.068v-.632c0-.04.032-.076.072-.076s.076.036.076.076v.58l.332-.124v-.632c0-.04.036-.076.076-.076s.072.036.072.076v.58l.128-.048c.008-.004.02-.004.028-.004a.08.08 0 0 1 .08.08v.24c0 .032-.02.064-.052.076l-.184.064v.64l.128-.044c.008-.004.02-.004.028-.004a.08.08 0 0 1 .08.08v.24c0 .032-.02.06-.052.072l-.184.068V9.3c0 .04-.032.076-.072.076s-.076-.036-.076-.076v-.58l-.332.124v.632c0 .04-.036.076-.076.076s-.072-.036-.072-.076v-.58l-.128.048c-.008.004-.02.004-.028.004a.08.08 0 0 1-.08-.08v-.24c0-.032.02-.064.052-.076l.184-.064v-.64l-.128.044c-.008.004-.02.004-.028.004a.08.08 0 0 1-.08-.08v-.24zm.717.096-.332.12v.64l.332-.12v-.64zm.383 1.404c0-.032.02-.06.053-.072l.184-.068v-.632c0-.04.032-.076.072-.076s.076.036.076.076v.58l.332-.124v-.632c0-.04.036-.076.076-.076s.072.036.072.076v.58l.128-.048c.008-.004.02-.004.028-.004a.08.08 0 0 1 .08.08v.24c0 .032-.02.064-.052.076l-.184.064v.64l.128-.044c.008-.004.02-.004.028-.004a.08.08 0 0 1 .08.08v.24c0 .032-.02.06-.052.072l-.184.068v.632c0 .04-.032.076-.072.076s-.076-.036-.076-.076v-.58l-.332.124v.632c0 .04-.036.076-.076.076s-.072-.036-.072-.076v-.58l-.128.048c-.008.004-.02.004-.028.004a.08.08 0 0 1-.08-.08v-.24c0-.032.02-.064.052-.076l.184-.064v-.64l-.128.044c-.008.004-.02.004-.028.004a.08.08 0 0 1-.08-.08v-.24zm.717.096-.332.12v.64l.332-.12v-.64zm2.533.332c.465 0 .705.424.705.652 0 .16-.12.288-.268.288-.124 0-.3-.1-.3-.3 0-.152.108-.308.288-.308.016 0 .036 0 .056.004a.599.599 0 0 0-.48-.236c-.424 0-.452.292-.452.744v.408c0 .452.028.748.452.748.32 0 .556-.28.632-.604.008-.028.028-.04.048-.04.024 0 .052.016.052.048 0 .088-.2.696-.732.696-.236 0-1-.076-1-1.052 0-.248.072-1.048 1-1.048zm3.573 9.004c.264 0 .432.144.432.356 0 .356-.452.732-.872.732-.264 0-.432-.144-.432-.356 0-.356.452-.732.872-.732zm-11.394.544c0-.112.092-.204.204-.204s.204.092.204.204-.092.204-.204.204-.204-.092-.204-.204zm0-1c0-.112.092-.204.204-.204s.204.092.204.204-.092.204-.204.204-.204-.092-.204-.204zm-1.3-.552c.688 0 1.172.352 1.172 1.004 0 1.052-1.052 1.656-2.064 2.084a.049.049 0 0 1-.036.016.053.053 0 0 1-.052-.052c0-.012.004-.024.016-.036.808-.472 1.648-1.06 1.648-1.972 0-.48-.252-.94-.684-.94-.296 0-.516.216-.616.504a.323.323 0 0 1 .136-.032c.22 0 .4.18.4.4 0 .232-.176.424-.4.424-.24 0-.448-.188-.448-.424 0-.532.408-.976.928-.976zm2.571.576c0-.032.02-.06.053-.072l.184-.068v-.632c0-.04.032-.076.072-.076s.076.036.076.076v.58l.332-.124v-.632c0-.04.036-.076.076-.076s.072.036.072.076v.58l.128-.048c.008-.004.02-.004.028-.004a.08.08 0 0 1 .08.08v.24c0 .032-.02.064-.052.076l-.184.064v.64l.128-.044c.008-.004.02-.004.028-.004a.08.08 0 0 1 .08.08v.24c0 .032-.02.06-.052.072l-.184.068v.632c0 .04-.032.076-.072.076s-.076-.036-.076-.076v-.58l-.332.124v.632c0 .04-.036.076-.076.076s-.072-.036-.072-.076v-.58l-.128.048c-.008.004-.02.004-.028.004a.08.08 0 0 1-.08-.08v-.24c0-.032.02-.064.052-.076l.184-.064v-.64l-.128.044c-.008.004-.02.004-.028.004a.08.08 0 0 1-.08-.08v-.24zm.717.096-.332.12v.64l.332-.12v-.64zm.383 1.404c0-.032.02-.06.053-.072l.184-.068v-.632c0-.04.032-.076.072-.076s.076.036.076.076v.58l.332-.124v-.632c0-.04.036-.076.076-.076s.072.036.072.076v.58l.128-.048c.008-.004.02-.004.028-.004a.08.08 0 0 1 .08.08v.24c0 .032-.02.064-.052.076l-.184.064v.64l.128-.044c.008-.004.02-.004.028-.004a.08.08 0 0 1 .08.08v.24c0 .032-.02.06-.052.072l-.184.068v.632c0 .04-.032.076-.072.076s-.076-.036-.076-.076v-.58l-.332.124v.632c0 .04-.036.076-.076.076s-.072-.036-.072-.076v-.58l-.128.048c-.008.004-.02.004-.028.004a.08.08 0 0 1-.08-.08v-.24c0-.032.02-.064.052-.076l.184-.064v-.64l-.128.044c-.008.004-.02.004-.028.004a.08.08 0 0 1-.08-.08v-.24zm.717.096-.332.12v.64l.332-.12v-.64zm.383-2.096c0-.032.02-.06.053-.072l.184-.068v-.632c0-.04.032-.076.072-.076s.076.036.076.076v.58l.332-.124v-.632c0-.04.036-.076.076-.076s.072.036.072.076v.58l.128-.048c.008-.004.02-.004.028-.004a.08.08 0 0 1 .08.08v.24c0 .032-.02.064-.052.076l-.184.064v.64l.128-.044c.008-.004.02-.004.028-.004a.08.08 0 0 1 .08.08v.24c0 .032-.02.06-.052.072l-.184.068v.632c0 .04-.032.076-.072.076s-.076-.036-.076-.076v-.58l-.332.124v.632c0 .04-.036.076-.076.076s-.072-.036-.072-.076v-.58l-.128.048c-.008.004-.02.004-.028.004a.08.08 0 0 1-.08-.08v-.24c0-.032.02-.064.052-.076l.184-.064v-.64l-.128.044c-.008.004-.02.004-.028.004a.08.08 0 0 1-.08-.08v-.24zm.717.096-.332.12v.64l.332-.12v-.64zm.383 1.404c0-.032.02-.06.053-.072l.184-.068v-.632c0-.04.032-.076.072-.076s.076.036.076.076v.58l.332-.124v-.632c0-.04.036-.076.076-.076s.072.036.072.076v.58l.128-.048c.008-.004.02-.004.028-.004a.08.08 0 0 1 .08.08v.24c0 .032-.02.064-.052.076l-.184.064v.64l.128-.044c.008-.004.02-.004.028-.004a.08.08 0 0 1 .08.08v.24c0 .032-.02.06-.052.072l-.184.068v.632c0 .04-.032.076-.072.076s-.076-.036-.076-.076v-.58l-.332.124v.632c0 .04-.036.076-.076.076s-.072-.036-.072-.076v-.58l-.128.048c-.008.004-.02.004-.028.004a.08.08 0 0 1-.08-.08v-.24c0-.032.02-.064.052-.076l.184-.064v-.64l-.128.044c-.008.004-.02.004-.028.004a.08.08 0 0 1-.08-.08v-.24zm.717.096-.332.12v.64l.332-.12v-.64zm2.533-.668c.465 0 .705.424.705.652 0 .16-.12.288-.268.288-.124 0-.3-.1-.3-.3 0-.152.108-.308.288-.308.016 0 .036 0 .056.004a.599.599 0 0 0-.48-.236c-.424 0-.452.292-.452.744v.408c0 .452.028.748.452.748.32 0 .556-.28.632-.604.008-.028.028-.04.048-.04.024 0 .052.016.052.048 0 .088-.2.696-.732.696-.236 0-1-.076-1-1.052 0-.248.072-1.048 1-1.048z"/><rect width=".13" height="2.119" x="-.065" y="-2.805" ry=".04" transform="translate(20.48 19.552)"/><path stroke="currentColor" stroke-linecap="round" stroke-linejoin="round" stroke-width=".08" d="M72.772 21.162v.4l-14.22.38v-.4z"/><path d="M22.422 12.008c.264 0 .432.144.432.356 0 .356-.452.732-.872.732-.264 0-.432-.144-.432-.356 0-.356.452-.732.872-.732z"/><rect width=".13" height="2.62" x="-.065" y="-.806" ry=".04" transform="translate(22.79 10.552)"/><path stroke="currentColor" stroke-linecap="round" stroke-linejoin="round" stroke-width=".08" d="M76.256 7.542v.4l-14.22.81v-.4zm0 .81v.4l-14.22.81v-.4z"/><path d="M24.464 11.732c.316 0 .18.392.36.392.06 0 .2-.196.228-.252.024-.048.092-.048.112 0l-.716 2.68c-.032.028-.068.04-.108.04s-.08-.012-.112-.04l.404-1.308a1.3 1.3 0 0 1-.424.092c-.188 0-.348-.136-.348-.316 0-.16.128-.288.288-.288.316 0 .184.392.364.392.064 0 .22-.204.24-.272l.184-.604a1.249 1.249 0 0 1-.416.088c-.188 0-.348-.136-.348-.316a.29.29 0 0 1 .292-.288zm.372 8.276c.264 0 .432.144.432.356 0 .356-.452.732-.872.732-.264 0-.432-.144-.432-.356 0-.356.452-.732.872-.732z"/><rect width=".13" height="3.289" x="-.065" y="-2.475" ry=".04" transform="translate(25.203 19.552)"/><path stroke="currentColor" stroke-linecap="round" stroke-linejoin="round" stroke-width=".08" d="M52.395 22.542v.4l-14.22.31v-.4z"/><path d="M27.146 13.508c.264 0 .432.144.432.356 0 .356-.452.732-.872.732-.264 0-.432-.144-.432-.356 0-.356.452-.732.872-.732z"/><rect width=".13" height="3.853" x="-.065" y="-.539" ry=".04" transform="translate(27.513 10.552)"/><path stroke="currentColor" stroke-linecap="round" stroke-linejoin="round" stroke-width=".08" d="M55.879 8.852v.4l-14.22.5v-.4zm0 .81v.4l-14.22.5v-.4z"/><path d="M29.188 11.732c.316 0 .18.392.36.392.06 0 .2-.196.228-.252.024-.048.092-.048.112 0l-.717 2.68c-.032.028-.068.04-.108.04s-.08-.012-.112-.04l.404-1.308a1.3 1.3 0 0 1-.424.092c-.188 0-.348-.136-.348-.316 0-.16.129-.288.289-.288.316 0 .184.392.364.392.064 0 .22-.204.24-.272l.184-.604a1.249 1.249 0 0 1-.416.088c-.188 0-.348-.136-.348-.316a.29.29 0 0 1 .292-.288zm.372 9.276c.264 0 .432.144.432.356 0 .356-.453.732-.873.732-.264 0-.432-.144-.432-.356 0-.356.452-.732.872-.732z"/><rect width=".13" height="3.959" x="-.065" y="-2.145" ry=".04" transform="translate(29.927 19.552)"/><path stroke="currentColor" stroke-linecap="round" stroke-linejoin="round" stroke-width=".08" d="M34.675 17.542v.4l-14.22-1v-.4z"/><path d="M31.87 14.508c.263 0 .431.144.431.356 0 .356-.452.732-.872.732-.264 0-.432-.144-.432-.356 0-.356.452-.732.872-.732z"/><rect width=".13" height="4.585" x="-.065" y="-.271" ry=".04" transform="translate(32.236 10.552)"/><path stroke="currentColor" stroke-linecap="round" stroke-linejoin="round" stroke-width=".08" d="M36.985 10.352v.4l-14.22-.81v-.4zm0 .81v.4l-14.22-.81v-.4z"/><path d="M33.91 11.732c.317 0 .18.392.36.392.06 0 .2-.196.229-.252.024-.048.092-.048.112 0l-.716 2.68c-.032.028-.068.04-.108.04s-.08-.012-.112-.04l.404-1.308a1.3 1.3 0 0 1-.424.092c-.188 0-.348-.136-.348-.316 0-.16.128-.288.288-.288.316 0 .184.392.364.392.064 0 .22-.204.24-.272l.184-.604a1.249 1.249 0 0 1-.416.088c-.188 0-.348-.136-.348-.316a.29.29 0 0 1 .292-.288zm.373 8.276c.264 0 .432.144.432.356 0 .356-.452.732-.872.732-.264 0-.432-.144-.432-.356 0-.356.452-.732.872-.732z"/><rect width=".13" height="2.628" x="-.065" y="-1.815" ry=".04" transform="translate(34.65 19.552)"/><path d="M36.593 13.508c.263 0 .431.144.431.356 0 .356-.451.732-.871.732-.264 0-.432-.144-.432-.356 0-.356.452-.732.872-.732z"/><rect width=".13" height="3.318" x="-.065" y="-.004" ry=".04" transform="translate(36.96 10.552)"/><path d="M38.634 9.732c.316 0 .18.392.36.392.06 0 .2-.196.228-.252.024-.048.092-.048.112 0l-.716 2.68c-.032.028-.068.04-.108.04s-.08-.012-.112-.04l.404-1.308a1.3 1.3 0 0 1-.424.092c-.188 0-.348-.136-.348-.316 0-.16.128-.288.288-.288.316 0 .184.392.364.392.064 0 .22-.204.24-.272l.184-.604a1.249 1.249 0 0 1-.416.088c-.188 0-.348-.136-.348-.316a.29.29 0 0 1 .292-.288zm.372 8.776c.264 0 .432.144.432.356 0 .356-.452.732-.872.732-.264 0-.432-.144-.432-.356 0-.356.452-.732.872-.732z"/><rect width=".13" height="3.813" x="-.065" y="-.314" ry=".04" transform="translate(38.2 19.552)"/><path d="M41.316 12.008c.264 0 .432.144.432.356 0 .356-.452.732-.872.732-.264 0-.432-.144-.432-.356 0-.356.452-.732.872-.732z"/><rect width=".13" height="2.816" x="-.065" y="-1.002" ry=".04" transform="translate(41.683 10.552)"/><path d="M43.358 11.732c.316 0 .18.392.36.392.06 0 .2-.196.228-.252.024-.048.092-.048.112 0l-.716 2.68c-.032.028-.068.04-.108.04s-.08-.012-.112-.04l.404-1.308a1.3 1.3 0 0 1-.424.092c-.188 0-.348-.136-.348-.316 0-.16.128-.288.288-.288.316 0 .184.392.364.392.064 0 .22-.204.24-.272l.184-.604a1.249 1.249 0 0 1-.416.088c-.188 0-.348-.136-.348-.316a.29.29 0 0 1 .292-.288zm.372 8.276c.264 0 .432.144.432.356 0 .356-.452.732-.872.732-.264 0-.432-.144-.432-.356 0-.356.452-.732.872-.732z"/><rect width=".13" height="2.21" x="-.065" y="1.186" ry=".04" transform="translate(42.923 19.552)"/><path d="M46.04 13.508c.263 0 .431.144.431.356 0 .356-.452.732-.872.732-.264 0-.432-.144-.432-.356 0-.356.452-.732.872-.732z"/><rect width=".13" height="4.481" x="-.065" y="-1.167" ry=".04" transform="translate(46.407 10.552)"/><path d="M48.081 10.732c.316 0 .18.392.36.392.06 0 .2-.196.228-.252.024-.048.092-.048.112 0l-.716 2.68c-.032.028-.068.04-.108.04s-.08-.012-.112-.04l.404-1.308a1.3 1.3 0 0 1-.424.092c-.188 0-.348-.136-.348-.316 0-.16.128-.288.288-.288.316 0 .184.392.364.392.064 0 .22-.204.24-.272l.184-.604a1.249 1.249 0 0 1-.416.088c-.188 0-.348-.136-.348-.316a.29.29 0 0 1 .292-.288zm.372 7.776c.264 0 .432.144.432.356 0 .356-.452.732-.872.732-.264 0-.432-.144-.432-.356 0-.356.452-.732.872-.732z"/><rect width=".13" height="3.608" x="-.065" y="-.314" ry=".04" transform="translate(47.646 19.552)"/><path d="M50.763 12.008c.264 0 .432.144.432.356 0 .356-.452.732-.872.732-.264 0-.432-.144-.432-.356 0-.356.452-.732.872-.732z"/><rect width=".13" height="3.147" x="-.065" y="-1.333" ry=".04" transform="translate(51.13 10.552)"/><path d="M52.805 10.732c.316 0 .18.392.36.392.06 0 .2-.196.228-.252.024-.048.092-.048.112 0l-.716 2.68c-.032.028-.068.04-.108.04s-.08-.012-.112-.04l.404-1.308a1.3 1.3 0 0 1-.424.092c-.188 0-.348-.136-.348-.316 0-.16.128-.288.288-.288.316 0 .184.392.364.392.064 0 .22-.204.24-.272l.184-.604a1.249 1.249 0 0 1-.416.088c-.188 0-.348-.136-.348-.316a.29.29 0 0 1 .292-.288zm.372 7.276c.264 0 .432.144.432.356 0 .356-.452.732-.872.732-.264 0-.432-.144-.432-.356 0-.356.452-.732.872-.732z"/><rect width=".13" height="4.005" x="-.065" y="-.814" ry=".04" transform="translate(52.37 19.552)"/><path d="M55.486 11.508c.264 0 .432.144.432.356 0 .356-.452.732-.872.732-.264 0-.432-.144-.432-.356 0-.356.452-.732.872-.732z"/><rect width=".13" height="2.812" x="-.065" y="-1.498" ry=".04" transform="translate(55.854 10.552)"/><path d="M59.012 9.732c.316 0 .18.392.36.392.06 0 .2-.196.228-.252.024-.048.092-.048.112 0l-.716 2.68c-.032.028-.068.04-.108.04s-.08-.012-.112-.04l.404-1.308a1.3 1.3 0 0 1-.424.092c-.188 0-.348-.136-.348-.316 0-.16.128-.288.288-.288.316 0 .184.392.364.392.064 0 .22-.204.24-.272l.184-.604a1.249 1.249 0 0 1-.416.088c-.188 0-.348-.136-.348-.316a.29.29 0 0 1 .292-.288zm.372 7.776c.264 0 .432.144.432.356 0 .356-.452.732-.872.732-.264 0-.432-.144-.432-.356 0-.356.452-.732.872-.732z"/><rect width=".16" height="13.1" y="-6.55" ry=".05" transform="translate(5.63 15.052)"/><path stroke="currentColor" stroke-linecap="round" stroke-linejoin="round" stroke-width=".08" d="M91.666 23.162v.4l-14.22-1.81v-.4z"/><rect width=".13" height="3.502" x="-.065" y="-1.314" ry=".04" transform="translate(58.577 19.552)"/><path d="M5.007 16.516c0-1.02-.528-1.452-.528-1.464 0-.072.528-.384.528-1.464 0-1.044-.432-1.956-.432-3.12 0-.756.18-1.464.708-2.004.06-.06.156.036.096.096-.396.396-.516.9-.516 1.44 0 1.02.408 1.92.408 3.06 0 .744-.18 1.452-.696 1.992.516.54.696 1.248.696 1.992 0 1.14-.408 2.04-.408 3.06 0 .54.12 1.044.516 1.44.06.06-.036.156-.096.096-.528-.54-.708-1.248-.708-2.004 0-1.164.432-2.076.432-3.12zm56.686-5.508c.264 0 .432.144.432.356 0 .356-.452.732-.872.732-.264 0-.432-.144-.432-.356 0-.356.452-.732.872-.732z"/><rect width=".13" height="2.818" x="-.065" y="-2.004" ry=".04" transform="translate(62.06 10.552)"/><path d="M63.735 10.732c.316 0 .18.392.36.392.06 0 .2-.196.228-.252.024-.048.092-.048.112 0l-.716 2.68c-.032.028-.068.04-.108.04s-.08-.012-.112-.04l.404-1.308a1.3 1.3 0 0 1-.424.092c-.188 0-.348-.136-.348-.316 0-.16.128-.288.288-.288.316 0 .184.392.364.392.064 0 .22-.204.24-.272l.184-.604a1.249 1.249 0 0 1-.416.088c-.188 0-.348-.136-.348-.316a.29.29 0 0 1 .292-.288zm.372 7.776c.264 0 .432.144.432.356 0 .356-.452.732-.872.732-.264 0-.432-.144-.432-.356 0-.356.452-.732.872-.732z"/><rect width=".13" height="2.377" x="-.065" y="-.314" ry=".04" transform="translate(63.3 19.552)"/><path d="M66.417 12.008c.264 0 .432.144.432.356 0 .356-.452.732-.872.732-.264 0-.432-.144-.432-.356 0-.356.452-.732.872-.732z"/><rect width=".13" height="4.085" x="-.065" y="-2.271" ry=".04" transform="translate(66.784 10.552)"/><path d="M68.459 9.732c.316 0 .18.392.36.392.06 0 .2-.196.228-.252.024-.048.092-.048.112 0l-.716 2.68c-.032.028-.068.04-.108.04s-.08-.012-.112-.04l.404-1.308a1.3 1.3 0 0 1-.424.092c-.188 0-.348-.136-.348-.316 0-.16.128-.288.288-.288.316 0 .184.392.364.392.064 0 .22-.204.24-.272l.184-.604a1.249 1.249 0 0 1-.416.088c-.188 0-.348-.136-.348-.316a.29.29 0 0 1 .292-.288zm.371 7.776c.265 0 .433.144.433.356 0 .356-.452.732-.872.732-.264 0-.432-.144-.432-.356 0-.356.452-.732.872-.732z"/><rect width=".13" height="3.251" x="-.065" y="-1.314" ry=".04" transform="translate(68.024 19.552)"/><path d="M71.14 11.008c.264 0 .432.144.432.356 0 .356-.452.732-.872.732-.264 0-.432-.144-.432-.356 0-.356.452-.732.872-.732z"/><rect width=".13" height="3.353" x="-.065" y="-2.539" ry=".04" transform="translate(71.507 10.552)"/><path d="M73.182 9.732c.316 0 .18.392.36.392.06 0 .2-.196.228-.252.024-.048.092-.048.112 0l-.716 2.68c-.032.028-.068.04-.108.04s-.08-.012-.112-.04l.404-1.308a1.3 1.3 0 0 1-.424.092c-.188 0-.348-.136-.348-.316 0-.16.128-.288.288-.288.316 0 .184.392.364.392.064 0 .22-.204.24-.272l.184-.604a1.249 1.249 0 0 1-.416.088c-.188 0-.348-.136-.348-.316a.29.29 0 0 1 .292-.288zm.372 6.776c.264 0 .432.144.432.356 0 .356-.452.732-.872.732-.264 0-.432-.144-.432-.356 0-.356.452-.732.872-.732z"/><rect width=".13" height="4.126" x="-.065" y="-2.314" ry=".04" transform="translate(72.747 19.552)"/><path d="M75.864 10.008c.264 0 .432.144.432.356 0 .356-.452.732-.872.732-.264 0-.432-.144-.432-.356 0-.356.452-.732.872-.732z"/><rect width=".13" height="2.62" x="-.065" y="-2.806" ry=".04" transform="translate(76.231 10.552)"/><path d="M77.906 9.732c.316 0 .18.392.36.392.06 0 .2-.196.228-.252.024-.048.092-.048.112 0l-.716 2.68c-.032.028-.068.04-.108.04s-.08-.012-.112-.04l.404-1.308a1.3 1.3 0 0 1-.424.092c-.188 0-.348-.136-.348-.316 0-.16.128-.288.288-.288.316 0 .184.392.364.392.064 0 .22-.204.24-.272l.184-.604a1.249 1.249 0 0 1-.416.088c-.188 0-.348-.136-.348-.316a.29.29 0 0 1 .292-.288zm.372 7.276c.264 0 .432.144.432.356 0 .356-.452.732-.872.732-.264 0-.432-.144-.432-.356 0-.356.452-.732.872-.732z"/><rect width=".13" height="3.822" x="-.065" y="-1.814" ry=".04" transform="translate(77.47 19.552)"/><path d="M80.587 10.508c.264 0 .432.144.432.356 0 .356-.452.732-.872.732-.264 0-.432-.144-.432-.356 0-.356.452-.732.872-.732z"/><rect width=".13" height="3.116" x="-.065" y="-2.802" ry=".04" transform="translate(80.954 10.552)"/><rect width=".13" height="4.322" x="-.065" y="-1.008" ry=".04" transform="translate(95.125 10.552)"/><path d="M82.629 9.732c.316 0 .18.392.36.392.06 0 .2-.196.228-.252.024-.048.092-.048.112 0l-.716 2.68c-.032.028-.068.04-.108.04s-.08-.012-.112-.04l.404-1.308a1.3 1.3 0 0 1-.424.092c-.188 0-.348-.136-.348-.316 0-.16.128-.288.288-.288.316 0 .184.392.364.392.064 0 .22-.204.24-.272l.184-.604a1.249 1.249 0 0 1-.416.088c-.188 0-.348-.136-.348-.316a.29.29 0 0 1 .292-.288zm.372 8.276c.264 0 .432.144.432.356 0 .356-.452.732-.872.732-.264 0-.432-.144-.432-.356 0-.356.452-.732.872-.732z"/><rect width=".13" height="3.42" x="-.065" y="-.814" ry=".04" transform="translate(82.194 19.552)"/><path d="M94.757 13.508c.264 0 .432.144.432.356 0 .356-.451.732-.871.732-.265 0-.433-.144-.433-.356 0-.356.452-.732.872-.732zm-9.447-2c.265 0 .433.144.433.356 0 .356-.452.732-.872.732-.264 0-.432-.144-.432-.356 0-.356.452-.732.872-.732z"/><rect width=".13" height="3.518" x="-.065" y="-2.204" ry=".04" transform="translate(85.678 10.552)"/><path d="M87.353 10.732c.316 0 .18.392.36.392.06 0 .2-.196.228-.252.023-.048.091-.048.111 0l-.716 2.68c-.031.028-.067.04-.107.04s-.08-.012-.113-.04l.405-1.308a1.3 1.3 0 0 1-.425.092c-.188 0-.348-.136-.348-.316 0-.16.128-.288.288-.288.316 0 .184.392.364.392.064 0 .22-.204.24-.272l.184-.604a1.249 1.249 0 0 1-.416.088c-.188 0-.348-.136-.348-.316a.29.29 0 0 1 .292-.288zm.372 8.276c.264 0 .432.144.432.356 0 .356-.452.732-.872.732-.264 0-.432-.144-.432-.356 0-.356.452-.732.872-.732z"/><rect width=".13" height="3.018" x="-.065" y=".186" ry=".04" transform="translate(86.918 19.552)"/><path d="M90.034 12.508c.264 0 .432.144.432.356 0 .356-.452.732-.872.732-.264 0-.432-.144-.432-.356 0-.356.452-.732.872-.732z"/><rect width=".13" height="3.92" x="-.065" y="-1.606" ry=".04" transform="translate(90.401 10.552)"/><path d="M92.076 10.732c.316 0 .18.392.36.392.06 0 .2-.196.228-.252.024-.048.092-.048.112 0l-.716 2.68c-.032.028-.068.04-.108.04s-.08-.012-.112-.04l.404-1.308a1.3 1.3 0 0 1-.424.092c-.188 0-.348-.136-.348-.316 0-.16.128-.288.288-.288.316 0 .184.392.364.392.064 0 .22-.204.24-.272l.184-.604a1.249 1.249 0 0 1-.416.088c-.188 0-.348-.136-.348-.316a.29.29 0 0 1 .292-.288zm.372 9.276c.264 0 .432.144.432.356 0 .356-.452.732-.872.732-.264 0-.432-.144-.432-.356 0-.356.452-.732.872-.732z"/><rect width=".13" height="2.616" x="-.065" y="1.186" ry=".04" transform="translate(91.64 19.552)"/></svg>
