<svg xmlns="http://www.w3.org/2000/svg" xmlns:xlink="http://www.w3.org/1999/xlink" width="576" height="432" viewBox="0 0 432 324">
    <defs>
        <style>
            *{stroke-linejoin:round;stroke-linecap:butt}
        </style>
    </defs>
    <g id="figure_1">
        <path id="patch_1" d="M0 324h432V0H0z" style="fill:#fff"/>
        <g id="axes_1">
            <path id="patch_2" d="M63.13 306.545c10.81 0 21.18-15.23 28.825-42.336 7.645-27.106 11.94-63.875 11.94-102.209S99.6 86.897 91.955 59.791C84.31 32.685 73.94 17.455 63.129 17.455c-10.81 0-21.18 15.23-28.825 42.336-7.645 27.106-11.94 63.875-11.94 102.209s4.295 75.103 11.94 102.209c7.644 27.106 18.014 42.336 28.825 42.336z" clip-path="url(#pd4434ce6ee)" style="fill:#e9ecef"/>
            <path id="patch_3" d="M165.043 306.545c10.811 0 21.181-15.23 28.826-42.336 7.644-27.106 11.94-63.875 11.94-102.209s-4.296-75.103-11.94-102.209c-7.645-27.106-18.015-42.336-28.826-42.336s-21.18 15.23-28.825 42.336c-7.645 27.106-11.94 63.875-11.94 102.209s4.295 75.103 11.94 102.209c7.644 27.106 18.014 42.336 28.825 42.336z" clip-path="url(#pd4434ce6ee)" style="fill:#e9ecef"/>
            <path id="patch_4" d="M266.957 306.545c10.811 0 21.18-15.23 28.825-42.336 7.645-27.106 11.94-63.875 11.94-102.209s-4.295-75.103-11.94-102.209c-7.644-27.106-18.014-42.336-28.825-42.336s-21.181 15.23-28.826 42.336c-7.644 27.106-11.94 63.875-11.94 102.209s4.296 75.103 11.94 102.209c7.645 27.106 18.015 42.336 28.826 42.336z" clip-path="url(#pd4434ce6ee)" style="fill:#e9ecef"/>
            <path id="patch_5" d="M368.87 306.545c10.812 0 21.182-15.23 28.826-42.336 7.645-27.106 11.94-63.875 11.94-102.209s-4.295-75.103-11.94-102.209c-7.644-27.106-18.014-42.336-28.825-42.336s-21.181 15.23-28.826 42.336c-7.645 27.106-11.94 63.875-11.94 102.209s4.295 75.103 11.94 102.209c7.645 27.106 18.015 42.336 28.826 42.336z" clip-path="url(#pd4434ce6ee)" style="fill:#e9ecef"/>
            <path id="line2d_1" d="m63.13 71.66 101.913 14.454 101.914 43.363" clip-path="url(#pd4434ce6ee)" style="fill:none;stroke-dasharray:5.55,2.4;stroke-dashoffset:0;stroke:#ced4da;stroke-width:1.5"/>
            <path id="line2d_2" d="m165.043 86.114 101.914 43.363 101.914-14.454" clip-path="url(#pd4434ce6ee)" style="fill:none;stroke-dasharray:5.55,2.4;stroke-dashoffset:0;stroke:#ced4da;stroke-width:1.5"/>
            <path id="line2d_3" d="m63.13 252.34 101.913-14.454 101.914-14.454" clip-path="url(#pd4434ce6ee)" style="fill:none;stroke-dasharray:5.55,2.4;stroke-dashoffset:0;stroke:#ced4da;stroke-width:1.5"/>
            <path id="line2d_4" d="m165.043 237.886 101.914-14.454 101.914-14.455" clip-path="url(#pd4434ce6ee)" style="fill:none;stroke-dasharray:5.55,2.4;stroke-dashoffset:0;stroke:#ced4da;stroke-width:1.5"/>
            <g id="text_1">
                <g style="fill:#212529" transform="matrix(.12 0 0 -.12 59.312 165.82)">
                    <defs>
                        <path id="DejaVuSans-36" d="M2113 2584q-425 0-674-291-248-290-248-796 0-503 248-796 249-292 674-292t673 292q248 293 248 796 0 506-248 796-248 291-673 291zm1253 1979v-575q-238 112-480 171-242 60-480 60-625 0-955-422-329-422-376-1275 184 272 462 417 279 145 613 145 703 0 1111-427 408-426 408-1160 0-719-425-1154Q2819-91 2113-91q-810 0-1238 620-428 621-428 1799 0 1106 525 1764t1409 658q238 0 480-47t505-140z" transform="scale(.01563)"/>
                    </defs>
                    <use xlink:href="#DejaVuSans-36"/>
                </g>
                <g style="fill:#212529" transform="matrix(.12 0 0 -.12 59.312 179.257)">
                    <defs>
                        <path id="DejaVuSans-35" d="M691 4666h2478v-532H1269V2991q137 47 274 70 138 23 276 23 781 0 1237-428 457-428 457-1159 0-753-469-1171Q2575-91 1722-91q-294 0-599 50Q819 9 494 109v635q281-153 581-228t634-75q541 0 856 284 316 284 316 772 0 487-316 771-315 285-856 285-253 0-505-56-251-56-513-175v2344z" transform="scale(.01563)"/>
                    </defs>
                    <use xlink:href="#DejaVuSans-35"/>
                </g>
            </g>
            <g id="text_2">
                <use xlink:href="#DejaVuSans-35" style="fill:#212529" transform="matrix(.12 0 0 -.12 161.226 165.82)"/>
                <g style="fill:#212529" transform="matrix(.12 0 0 -.12 161.226 179.257)">
                    <defs>
                        <path id="DejaVuSans-33" d="M2597 2516q453-97 707-404 255-306 255-756 0-690-475-1069Q2609-91 1734-91q-293 0-604 58T488 141v609q262-153 574-231 313-78 654-78 593 0 904 234t311 681q0 413-289 645-289 233-804 233h-544v519h569q465 0 712 186t247 536q0 359-255 551-254 193-729 193-260 0-557-57-297-56-653-174v562q360 100 674 150t592 50q719 0 1137-327 419-326 419-882 0-388-222-655t-631-370z" transform="scale(.01563)"/>
                    </defs>
                    <use xlink:href="#DejaVuSans-33"/>
                </g>
            </g>
            <g id="text_3">
                <use xlink:href="#DejaVuSans-36" style="fill:#212529" transform="matrix(.12 0 0 -.12 263.14 165.82)"/>
                <use xlink:href="#DejaVuSans-33" style="fill:#212529" transform="matrix(.12 0 0 -.12 263.14 179.257)"/>
            </g>
            <g id="text_4">
                <use xlink:href="#DejaVuSans-36" style="fill:#212529" transform="matrix(.12 0 0 -.12 365.053 165.82)"/>
                <use xlink:href="#DejaVuSans-33" style="fill:#212529" transform="matrix(.12 0 0 -.12 365.053 179.257)"/>
            </g>
            <g id="PathCollection_1">
                <defs>
                    <path id="ma5861e67e6" d="M0 7.071A7.071 7.071 0 1 0 0-7.072 7.071 7.071 0 0 0 0 7.071z" style="stroke:#e9ecef"/>
                </defs>
                <g clip-path="url(#pd4434ce6ee)">
                    <use xlink:href="#ma5861e67e6" x="63.129" y="71.659" style="fill:#e9ecef;stroke:#e9ecef"/>
                    <use xlink:href="#ma5861e67e6" x="165.043" y="86.114" style="fill:#e9ecef;stroke:#e9ecef"/>
                    <use xlink:href="#ma5861e67e6" x="266.957" y="129.477" style="fill:#e9ecef;stroke:#e9ecef"/>
                    <use xlink:href="#ma5861e67e6" x="368.871" y="115.023" style="fill:#e9ecef;stroke:#e9ecef"/>
                </g>
            </g>
            <g id="PathCollection_2" clip-path="url(#pd4434ce6ee)">
                <use xlink:href="#ma5861e67e6" x="63.129" y="252.341" style="fill:#e9ecef;stroke:#e9ecef"/>
                <use xlink:href="#ma5861e67e6" x="165.043" y="237.886" style="fill:#e9ecef;stroke:#e9ecef"/>
                <use xlink:href="#ma5861e67e6" x="266.957" y="223.432" style="fill:#e9ecef;stroke:#e9ecef"/>
                <use xlink:href="#ma5861e67e6" x="368.871" y="208.977" style="fill:#e9ecef;stroke:#e9ecef"/>
            </g>
            <g id="text_5" style="fill:#212529" transform="matrix(.144 0 0 -.144 57.096 75.633)">
                <defs>
                    <path id="DejaVuSans-278d" d="M2888 3759V1766H1613l1275 1993zm-132 441L1203 1834v-487h1685V466h503v881h531v419h-531v2434h-635zm-1093 591q475 200 1018 200 544 0 1019-200 469-194 856-585 394-393 586-862t192-1022q0-538-192-1007-192-468-586-862-387-390-856-584-475-200-1019-200-543 0-1018 200-469 194-857 584-393 394-586 862Q28 1784 28 2322q0 553 192 1022 193 469 586 862 388 391 857 585z" transform="scale(.01563)"/>
                </defs>
                <use xlink:href="#DejaVuSans-278d"/>
            </g>
            <g id="text_6" style="fill:#212529" transform="matrix(.144 0 0 -.144 159.01 90.087)">
                <defs>
                    <path id="DejaVuSans-278c" d="M3219 2478q328 85 506 297 178 213 178 525 0 444-336 705t-911 261q-222 0-474-39-251-39-538-121v-450q287 94 524 139 238 46 445 46 381 0 584-154 203-153 203-440 0-281-197-430-197-148-572-148h-453v-416h435q412 0 643-186 232-186 232-517 0-356-249-544-248-187-723-187-272 0-522 62-250 63-463 185V578q266-90 514-137 249-47 486-47 700 0 1080 303t380 853q0 363-205 606-205 244-567 322zM1663 4791q475 200 1018 200 544 0 1019-200 469-194 856-585 394-393 586-862t192-1022q0-538-192-1007-192-468-586-862-387-390-856-584-475-200-1019-200-543 0-1018 200-469 194-857 584-393 394-586 862Q28 1784 28 2322q0 553 192 1022 193 469 586 862 388 391 857 585z" transform="scale(.01563)"/>
                </defs>
                <use xlink:href="#DejaVuSans-278c"/>
            </g>
            <g id="text_7" style="fill:#212529" transform="matrix(.144 0 0 -.144 260.924 133.45)">
                <defs>
                    <path id="DejaVuSans-2790" d="M1469 4200v-425h1794L1988 466h525l1356 3518v216H1469zm194 591q475 200 1018 200 544 0 1019-200 469-194 856-585 394-393 586-862t192-1022q0-538-192-1007-192-468-586-862-387-390-856-584-475-200-1019-200-543 0-1018 200-469 194-857 584-393 394-586 862Q28 1784 28 2322q0 553 192 1022 193 469 586 862 388 391 857 585z" transform="scale(.01563)"/>
                </defs>
                <use xlink:href="#DejaVuSans-2790"/>
            </g>
            <g id="text_8" style="fill:#212529" transform="matrix(.144 0 0 -.144 362.837 118.996)">
                <defs>
                    <path id="DejaVuSans-278a" d="M1697 891V466h2150v425h-825v3309h-503l-894-181v-460l897 179V891h-825zm-34 3900q475 200 1018 200 544 0 1019-200 469-194 856-585 394-393 586-862t192-1022q0-538-192-1007-192-468-586-862-387-390-856-584-475-200-1019-200-543 0-1018 200-469 194-857 584-393 394-586 862Q28 1784 28 2322q0 553 192 1022 193 469 586 862 388 391 857 585z" transform="scale(.01563)"/>
                </defs>
                <use xlink:href="#DejaVuSans-278a"/>
            </g>
            <g id="text_9" style="fill:#212529" transform="matrix(.144 0 0 -.144 57.096 256.314)">
                <defs>
                    <path id="DejaVuSans-2786" d="M3581 4500q-418 178-900 178-481 0-900-178-412-169-753-516-347-346-517-761-170-414-170-901 0-472 170-886t517-761q341-347 753-516 419-178 900-178 482 0 900 178 413 169 753 516 347 347 517 761 171 414 171 886 0 487-171 901-170 415-517 761-340 347-753 516zm-2112-300h2400v-216L2513 466h-525l1275 3309H1469v425zm194 591q475 200 1018 200 544 0 1019-200 469-194 856-585 394-393 586-862t192-1022q0-538-192-1007-192-468-586-862-387-390-856-584-475-200-1019-200-543 0-1018 200-469 194-857 584-393 394-586 862Q28 1784 28 2322q0 553 192 1022 193 469 586 862 388 391 857 585z" transform="scale(.01563)"/>
                </defs>
                <use xlink:href="#DejaVuSans-2786"/>
            </g>
            <g id="text_10" style="fill:#212529" transform="matrix(.144 0 0 -.144 159.01 241.86)">
                <defs>
                    <path id="DejaVuSans-2780" d="M3581 4500q-418 178-900 178-481 0-900-178-412-169-753-516-347-346-517-761-170-414-170-901 0-472 170-886t517-761q341-347 753-516 419-178 900-178 482 0 900 178 413 169 753 516 347 347 517 761 171 414 171 886 0 487-171 901-170 415-517 761-340 347-753 516zM1697 891h825v2847l-897-179v460l894 181h503V891h825V466H1697v425zm-34 3900q475 200 1018 200 544 0 1019-200 469-194 856-585 394-393 586-862t192-1022q0-538-192-1007-192-468-586-862-387-390-856-584-475-200-1019-200-543 0-1018 200-469 194-857 584-393 394-586 862Q28 1784 28 2322q0 553 192 1022 193 469 586 862 388 391 857 585z" transform="scale(.01563)"/>
                </defs>
                <use xlink:href="#DejaVuSans-2780"/>
            </g>
            <g id="text_11" style="fill:#212529" transform="matrix(.144 0 0 -.144 260.924 227.405)">
                <defs>
                    <path id="DejaVuSans-2781" d="M3581 4500q-418 178-900 178-481 0-900-178-412-169-753-516-347-346-517-761-170-414-170-901 0-472 170-886t517-761q341-347 753-516 419-178 900-178 482 0 900 178 413 169 753 516 347 347 517 761 171 414 171 886 0 487-171 901-170 415-517 761-340 347-753 516zM2109 900h1763V475H1503v425q288 297 783 798 495 502 623 646 244 275 339 462 96 188 96 372 0 297-208 484-208 188-542 188-250 0-508-83t-558-248v509q303 122 569 184 266 63 484 63 582 0 927-291 345-290 345-775 0-228-86-434t-314-487q-62-72-398-419t-946-969zm-446 3891q475 200 1018 200 544 0 1019-200 469-194 856-585 394-393 586-862t192-1022q0-538-192-1007-192-468-586-862-387-390-856-584-475-200-1019-200-543 0-1018 200-469 194-857 584-393 394-586 862Q28 1784 28 2322q0 553 192 1022 193 469 586 862 388 391 857 585z" transform="scale(.01563)"/>
                </defs>
                <use xlink:href="#DejaVuSans-2781"/>
            </g>
            <g id="text_12" style="fill:#212529" transform="matrix(.144 0 0 -.144 362.837 212.95)">
                <defs>
                    <path id="DejaVuSans-2782" d="M3581 4500q-418 178-900 178-481 0-900-178-412-169-753-516-347-346-517-761-170-414-170-901 0-472 170-886t517-761q341-347 753-516 419-178 900-178 482 0 900 178 413 169 753 516 347 347 517 761 171 414 171 886 0 487-171 901-170 415-517 761-340 347-753 516zm-362-2022q362-78 567-322 205-243 205-606 0-550-380-853T2531 394q-237 0-486 47-248 47-514 137v488q213-122 463-185 250-62 522-62 475 0 723 187 249 188 249 544 0 331-232 517-231 186-643 186h-435v416h453q375 0 572 148 197 149 197 430 0 287-203 440-203 154-584 154-207 0-445-46-237-45-524-139v450q256 72 523 116t489 44q582 0 914-261 333-261 333-705 0-312-178-525-178-212-506-297zM1663 4791q475 200 1018 200 544 0 1019-200 469-194 856-585 394-393 586-862t192-1022q0-538-192-1007-192-468-586-862-387-390-856-584-475-200-1019-200-543 0-1018 200-469 194-857 584-393 394-586 862Q28 1784 28 2322q0 553 192 1022 193 469 586 862 388 391 857 585z" transform="scale(.01563)"/>
                </defs>
                <use xlink:href="#DejaVuSans-2782"/>
            </g>
        </g>
    </g>
    <defs>
        <clipPath id="pd4434ce6ee">
            <path d="M3 3h426v318H3z"/>
        </clipPath>
    </defs>
</svg>
