<svg xmlns="http://www.w3.org/2000/svg" xmlns:xlink="http://www.w3.org/1999/xlink" width="738.671" height="197.48" version="1.2" viewBox="0 0 111.215 29.734">
    <defs>
        <path id="reuse-0" fill="currentColor" d="M229 0c-88 0-90 66-144 66-30 0-59-20-62-55-1-7-6-11-11-11C6 0 0 4 0 11c0 154 232 170 232 344 0 59-16 122-67 122-25 0-49-14-49-37 0-27 35-41 35-68 0-38-31-69-69-69s-69 31-69 69c0 76 72 128 152 128 95 0 183-57 183-145 0-151-150-159-246-220 9 2 18 3 27 3 83 0 111-59 171-59 48 0 38 38 55 38 6 0 12-5 12-12C367 83 323 0 229 0z"/>
        <path id="reuse-1" fill="currentColor" d="M196 117h117c0-48 27-94 72-94 8 0 12-5 12-11s-4-12-12-12c-44 0-87 13-131 13S167 0 123 0c-8 0-12 6-12 12s4 11 12 11c45 0 73 46 73 94zM-2 148c0 12 140 143 140 336 0 10 7 19 16 16 23-7 47-13 71-13s48 6 71 13c14 4 23-9 17-16L29 154h167v131c0 34 34 27 68 72 22 30 23 56 36 56 6 0 13-5 13-14V154h72c10 0 15-7 15-14s-5-15-15-15h-72v-8H196v8H29c-23 0-31 14-31 23z"/>
        <path id="reuse-2" fill="currentColor" d="M218 136c66 0 108-36 108-89 0-89-113-183-218-183C42-136 0-100 0-47c0 89 113 183 218 183z"/>
        <path id="reuse-3" fill="currentColor" d="m27 41-1-66v-11c0-22 1-44 4-66 45 38 93 80 93 139 0 33-14 67-43 67-31 0-52-30-53-63zm-42-179-12 595c8 5 18 8 27 8s19-3 27-8l-7-345c25 21 58 34 91 34 52 0 89-48 89-102 0-80-86-117-147-169-15-13-24-38-45-38-13 0-23 11-23 25z"/>
        <path id="reuse-4" fill="currentColor" d="M208 139c69 0 117-40 117-99 0-91-107-179-209-179C47-139 0-99 0-40c0 91 106 179 208 179z"/>
        <path id="reuse-5" fill="currentColor" d="M0-212v-213 213c0-114 85-201 146-295 4 13 6 26 6 40 0 94-87 188-152 255zm115-636c0 11 43 74 43 169S68-491 0-425v-75h-21V0H0c0-177 201-290 201-467 0-33-9-66-23-96 18-36 29-74 29-116 0-63-15-125-41-182-5-10-14-13-23-13-14 0-28 10-28 26z"/>
        <path id="reuse-6" fill="currentColor" d="M0 116c0 10 6 19 16 23l40 15v154c0 12 9 21 21 21s21-9 21-21V170l79 30v154c0 12 9 21 21 21s21-9 21-21V216l22 8c3 1 6 2 9 2 13 0 25-11 25-25v-54c0-10-6-20-16-24l-40-15V-47l22 9c3 1 6 1 9 1 13 0 25-11 25-25v-54c0-10-6-19-16-23l-40-15v-154c0-12-9-21-21-21s-21 9-21 21v138l-79-30v-154c0-12-9-21-21-21s-21 9-21 21v138l-22-8c-3-1-6-2-9-2-13 0-25 11-25 25v54c0 10 6 20 16 24l40 15V47l-22-9c-3-1-6-1-9-1C12 37 0 48 0 62v54zm177-24L98 62V-92l79 30V92z"/>
        <path id="reuse-7" fill="currentColor" d="M-7 375c8 4 17 7 25 7s16-3 24-7l-2-183 106 20h3c10 0 18-7 18-17l7-570c-8-4-17-7-25-7s-16 3-24 7l2 183-106-20h-3c-10 0-18 7-18 17zm138-263L39 95l-3-207 92 17z"/>
    </defs>
    <style>
        tspan{white-space:pre}
    </style>
    <rect width="1.956" height=".2" x="80.62" y="-.1" fill="currentColor" ry=".1" transform="translate(5.69 9.29)"/>
    <rect width="1.956" height=".2" x="36.209" y="-.1" fill="currentColor" ry=".1" transform="translate(5.69 9.29)"/>
    <path stroke="currentColor" stroke-linecap="round" stroke-linejoin="round" stroke-width=".1" d="M5.74 14.29h98.554m-98.554-1h98.554m-98.554-1h98.554m-98.554-1h98.554m-98.554-1h98.554"/>
    <rect width=".19" height="5.235" y="10.494" fill="currentColor" ry="0" transform="translate(104.154 3.845)"/>
    <rect width="1.956" height=".2" x="63.942" y="-.1" fill="currentColor" ry=".1" transform="translate(5.69 18.574)"/>
    <rect width="1.956" height=".2" x="58.933" y="-.1" fill="currentColor" ry=".1" transform="translate(5.69 17.574)"/>
    <rect width="1.956" height=".2" x="58.933" y="-.1" fill="currentColor" ry=".1" transform="translate(5.69 18.574)"/>
    <rect width="1.956" height=".2" x="19.531" y="-.1" fill="currentColor" ry=".1" transform="translate(5.69 18.574)"/>
    <rect width="1.956" height=".2" x="14.523" y="-.1" fill="currentColor" ry=".1" transform="translate(5.69 17.574)"/>
    <rect width="1.956" height=".2" x="14.523" y="-.1" fill="currentColor" ry=".1" transform="translate(5.69 18.574)"/>
    <path stroke="currentColor" stroke-linecap="round" stroke-linejoin="round" stroke-width=".1" d="M5.74 23.574h98.554m-98.554-1h98.554m-98.554-1h98.554m-98.554-1h98.554m-98.554-1h98.554"/>
    <rect width=".19" height="4.05" y="-2.05" fill="currentColor" ry="0" transform="translate(104.154 21.574)"/>
    <rect width=".19" height="4.05" y="-2" fill="currentColor" ry="0" transform="translate(104.154 12.29)"/>
    <rect width=".19" height="5.235" y="10.494" fill="currentColor" ry="0" transform="translate(80.056 3.845)"/>
    <rect width=".19" height="4.05" y="-2.05" fill="currentColor" ry="0" transform="translate(80.056 21.574)"/>
    <rect width=".19" height="4.05" y="-2" fill="currentColor" ry="0" transform="translate(80.056 12.29)"/>
    <rect width=".19" height="5.235" y="10.494" fill="currentColor" ry="0" transform="translate(59.743 3.845)"/>
    <rect width=".19" height="4.05" y="-2.05" fill="currentColor" ry="0" transform="translate(59.743 21.574)"/>
    <rect width=".19" height="4.05" y="-2" fill="currentColor" ry="0" transform="translate(59.743 12.29)"/>
    <rect width=".19" height="5.235" y="10.494" fill="currentColor" ry="0" transform="translate(35.646 3.845)"/>
    <rect width=".19" height="4.05" y="-2.05" fill="currentColor" ry="0" transform="translate(35.646 21.574)"/>
    <rect width=".19" height="4.05" y="-2" fill="currentColor" ry="0" transform="translate(35.646 12.29)"/>
    <use xlink:href="#reuse-0" transform="matrix(.004 0 0 -.004 13.049 12.29)"/>
    <use xlink:href="#reuse-1" transform="matrix(.004 0 0 -.004 12.98 14.305)"/>
    <use xlink:href="#reuse-2" transform="matrix(.004 0 0 -.004 16.585 20.574)"/>
    <path fill="currentColor" d="M8.719 21.074c0-.112.092-.204.204-.204s.204.092.204.204-.092.204-.204.204-.204-.092-.204-.204zm0-1c0-.112.092-.204.204-.204s.204.092.204.204-.092.204-.204.204-.204-.092-.204-.204zm-1.3-.552c.688 0 1.172.352 1.172 1.004 0 1.052-1.052 1.656-2.064 2.084a.049.049 0 0 1-.036.016.053.053 0 0 1-.052-.052c0-.012.004-.024.016-.036.808-.472 1.648-1.06 1.648-1.972 0-.48-.252-.94-.684-.94-.296 0-.516.216-.616.504a.323.323 0 0 1 .136-.032c.22 0 .4.18.4.4 0 .232-.176.424-.4.424-.24 0-.448-.188-.448-.424 0-.532.408-.976.928-.976z"/>
    <use xlink:href="#reuse-3" transform="matrix(.004 0 0 -.004 10.11 22.574)"/>
    <use xlink:href="#reuse-3" transform="matrix(.004 0 0 -.004 11.03 21.074)"/>
    <use xlink:href="#reuse-0" transform="matrix(.004 0 0 -.004 13.049 21.574)"/>
    <use xlink:href="#reuse-1" transform="matrix(.004 0 0 -.004 12.98 23.59)"/>
    <rect width=".13" height="2.814" x="-.065" y=".686" fill="currentColor" ry=".04" transform="translate(16.65 12.29)"/>
    <rect width=".13" height="2.621" x="-.065" y="-.814" fill="currentColor" ry=".04" transform="translate(16.65 21.574)"/>
    <path fill="currentColor" stroke="currentColor" stroke-linecap="round" stroke-linejoin="round" stroke-width=".08" d="M101.873 14.09v.4l-9-.81v-.4zm0 .81v.4l-9-.81v-.4z"/>
    <use xlink:href="#reuse-2" transform="matrix(.004 0 0 -.004 20.54 10.29)"/>
    <use xlink:href="#reuse-2" transform="matrix(.004 0 0 -.004 20.54 17.574)"/>
    <text fill="currentColor" class="scale-degree" font-family="serif" font-size="2.2" transform="translate(20.54 25.965)">
<tspan>➍</tspan>
</text>
    <rect width=".13" height="5.314" x="-.065" y="-1.814" fill="currentColor" ry=".04" transform="translate(20.605 12.29)"/>
    <rect width=".13" height="5.45" x="-.065" y="-3.814" fill="currentColor" ry=".04" transform="translate(20.605 21.574)"/>
    <use xlink:href="#reuse-2" transform="matrix(.004 0 0 -.004 22.794 12.79)"/>
    <text fill="currentColor" class="scale-degree" font-family="serif" font-size="2.2" transform="translate(22.794 9.74)">
<tspan>➆</tspan>
</text>
    <rect width=".13" height="2.814" x="-.065" y=".686" fill="currentColor" ry=".04" transform="translate(22.859 12.29)"/>
    <path fill="currentColor" stroke="currentColor" stroke-linecap="round" stroke-linejoin="round" stroke-width=".08" d="M88.98 13.09v.4h-7.562v-.4zm0 .81v.4h-7.562v-.4z"/>
    <use xlink:href="#reuse-2" transform="matrix(.004 0 0 -.004 25.548 11.79)"/>
    <use xlink:href="#reuse-2" transform="matrix(.004 0 0 -.004 25.548 18.074)"/>
    <text fill="currentColor" class="scale-degree" font-family="serif" font-size="2.2" transform="translate(25.548 25.965)">
<tspan>➌</tspan>
</text>
    <rect width=".13" height="3.124" x="-.065" y="-.314" fill="currentColor" ry=".04" transform="translate(25.613 12.29)"/>
    <rect width=".13" height="4.734" x="-.065" y="-3.314" fill="currentColor" ry=".04" transform="translate(25.613 21.574)"/>
    <use xlink:href="#reuse-2" transform="matrix(.004 0 0 -.004 28.052 12.29)"/>
    <text fill="currentColor" class="scale-degree" font-family="serif" font-size="2.2" transform="translate(28.052 9.74)">
<tspan>➀</tspan>
</text>
    <rect width=".13" height="2.624" x="-.065" y=".186" fill="currentColor" ry=".04" transform="translate(28.117 12.29)"/>
    <text fill="currentColor" class="schema" font-family="serif" font-size="1.96" transform="translate(88.17 5.206)">
<tspan>Converging H.C.</tspan>
</text>
    <use xlink:href="#reuse-2" transform="matrix(.004 0 0 -.004 30.806 11.29)"/>
    <use xlink:href="#reuse-2" transform="matrix(.004 0 0 -.004 30.806 19.574)"/>
    <text fill="currentColor" class="scale-degree" font-family="serif" font-size="2.2" transform="translate(30.806 25.965)">
<tspan>➐</tspan>
</text>
    <rect width=".13" height="3.624" x="-.065" y="-.814" fill="currentColor" ry=".04" transform="translate(30.871 12.29)"/>
    <rect width=".13" height="3.007" x="-.065" y="-1.814" fill="currentColor" ry=".04" transform="translate(30.871 21.574)"/>
    <path stroke="currentColor" stroke-linecap="round" stroke-linejoin="round" stroke-width=".1" d="m102.587 6.18.5 1m-15.951-1-.5 1m.5-1h15.451" class="schema"/>
    <use xlink:href="#reuse-2" transform="matrix(.004 0 0 -.004 33.31 11.79)"/>
    <text fill="currentColor" class="scale-degree" font-family="serif" font-size="2.2" transform="translate(33.31 9.74)">
<tspan>➁</tspan>
</text>
    <rect width=".13" height="3.124" x="-.065" y="-.314" fill="currentColor" ry=".04" transform="translate(33.376 12.29)"/>
    <path fill="currentColor" stroke="currentColor" stroke-linecap="round" stroke-linejoin="round" stroke-width=".08" d="M77.81 14.09v.4h-7.812v-.4zm0 .81v.4h-7.812v-.4zm21.559 9.284v.4H81.418v-.4z"/>
    <use xlink:href="#reuse-2" transform="matrix(.004 0 0 -.004 36.967 10.79)"/>
    <use xlink:href="#reuse-3" transform="matrix(.004 0 0 -.004 10.11 12.29)"/>
    <use xlink:href="#reuse-3" transform="matrix(.004 0 0 -.004 11.03 10.79)"/>
    <use xlink:href="#reuse-2" transform="matrix(.004 0 0 -.004 36.967 19.074)"/>
    <text fill="currentColor" class="scale-degree" font-family="serif" font-size="2.2" transform="translate(36.967 26.965)">
<tspan>➊</tspan>
</text>
    <path fill="currentColor" d="M7.555 15.83H7.53a.783.783 0 0 1-.78-.789c0-.232.212-.412.448-.412.216 0 .38.188.38.412 0 .208-.172.38-.38.38a.326.326 0 0 1-.124-.024c.104.156.272.26.468.26h.016zm.78-1.729a.69.69 0 0 0 .452-.656.764.764 0 0 0-.692-.76c.076.356.192.968.24 1.416zm-1.548-.924c0 .58.564.988 1.056.988.004 0 .188 0 .328-.024a17.343 17.343 0 0 0-.252-1.456c-.316.032-.496.244-.496.476 0 .176.1.364.324.492.02.02.028.04.028.06 0 .044-.04.088-.088.088-.06 0-.504-.248-.504-.748 0-.352.232-.696.64-.788a15.048 15.048 0 0 0-.184-.7c-.428.484-.852.972-.852 1.612zm.704-2.1c-.116-.384-.208-.68-.208-1.384 0-.46.22-.896.596-1.168a.06.06 0 0 1 .08 0c.272.32.532.98.532 1.432 0 .572-.344 1.02-.72 1.456.084.272.156.552.224.828.008 0 .028-.004.052-.004.62 0 1.024.512 1.024 1.044 0 .452-.296.848-.72.984.012.14.02.28.02.42 0 .076-.004.156-.008.232-.028.476-.352.9-.808.912l.004-.172c.372-.008.612-.368.636-.764a3.775 3.775 0 0 0-.008-.588c-.02.004-.176.032-.356.032-.772 0-1.332-.72-1.332-1.496 0-.708.524-1.224.992-1.764zm.712-1.452c0-.136.004-.264-.08-.516a1.153 1.153 0 0 0-.648 1.036c0 .208.048.46.144.776.32-.388.584-.792.584-1.296z"/>
    <rect width=".13" height="3.124" x="-.065" y="-1.314" fill="currentColor" ry=".04" transform="translate(37.032 12.29)"/>
    <rect width=".13" height="5.124" x="-.065" y="-2.314" fill="currentColor" ry=".04" transform="translate(37.032 21.574)"/>
    <use xlink:href="#reuse-2" transform="matrix(.004 0 0 -.004 16.585 12.79)"/>
    <path fill="currentColor" stroke="currentColor" stroke-linecap="round" stroke-linejoin="round" stroke-width=".08" d="M67.294 14.78v.4H64.99v-.4zm0 .81v.4h-6.258v-.4z"/>
    <use xlink:href="#reuse-2" transform="matrix(.004 0 0 -.004 39.472 11.29)"/>
    <text fill="currentColor" class="scale-degree" font-family="serif" font-size="2.2" transform="translate(39.472 9.74)">
<tspan>➂</tspan>
</text>
    <rect width=".13" height="2.624" x="-.065" y="-.814" fill="currentColor" ry=".04" transform="translate(39.537 12.29)"/>
    <text fill="currentColor" class="schema" font-family="serif" font-size="1.96" transform="translate(71.807 6.064)">
<tspan>Fenaroli</tspan>
</text>
    <use xlink:href="#reuse-2" transform="matrix(.004 0 0 -.004 42.226 8.79)"/>
    <use xlink:href="#reuse-2" transform="matrix(.004 0 0 -.004 42.226 21.574)"/>
    <text fill="currentColor" class="scale-degree" font-family="serif" font-size="2.2" transform="translate(42.226 26.673)">
<tspan>➂</tspan>
</text>
    <rect width=".13" height="5.124" x="-.065" y="-3.314" fill="currentColor" ry=".04" transform="translate(42.29 12.29)"/>
    <rect width=".13" height="2.624" x="-.065" y=".186" fill="currentColor" ry=".04" transform="translate(42.29 21.574)"/>
    <path stroke="currentColor" stroke-linecap="round" stroke-linejoin="round" stroke-width=".1" d="m84.686 6.64.5 1m-19.736-1-.5 1m.5-1h19.236" class="schema"/>
    <use xlink:href="#reuse-2" transform="matrix(.004 0 0 -.004 44.48 10.29)"/>
    <rect width=".13" height="3.624" x="-.065" y="-1.814" fill="currentColor" ry=".04" transform="translate(44.545 12.29)"/>
    <path fill="currentColor" stroke="currentColor" stroke-linecap="round" stroke-linejoin="round" stroke-width=".08" d="M57.462 14.09v.4l-9-.81v-.4zm0 .81v.4l-9-.81v-.4z"/>
    <use xlink:href="#reuse-4" transform="matrix(.0028 0 0 -.0028 46.483 10.29)"/>
    <rect width=".13" height="2.486" x="-.065" y="-4.6" fill="currentColor" ry=".04" transform="translate(47.336 12.29)"/>
    <use xlink:href="#reuse-5" transform="matrix(.0028 0 0 -.0028 47.401 7.73)"/>
    <path fill="currentColor" stroke="currentColor" stroke-linecap="round" stroke-linejoin="round" stroke-width=".08" d="M75.307 22.564v.4l-14.271.62v-.4z"/>
    <use xlink:href="#reuse-2" transform="matrix(.004 0 0 -.004 48.422 10.79)"/>
    <use xlink:href="#reuse-2" transform="matrix(.004 0 0 -.004 48.422 21.074)"/>
    <text fill="currentColor" class="scale-degree" font-family="serif" font-size="2.2" transform="translate(48.422 26.673)">
<tspan>➃</tspan>
</text>
    <rect width=".13" height="3.32" x="-.065" y="-1.314" fill="currentColor" ry=".04" transform="translate(48.487 12.29)"/>
    <rect width=".13" height="3.124" x="-.065" y="-.314" fill="currentColor" ry=".04" transform="translate(48.487 21.574)"/>
    <use xlink:href="#reuse-2" transform="matrix(.004 0 0 -.004 50.926 11.29)"/>
    <rect width=".13" height="3.043" x="-.065" y="-.814" fill="currentColor" ry=".04" transform="translate(50.991 12.29)"/>
    <path fill="currentColor" stroke="currentColor" stroke-linecap="round" stroke-linejoin="round" stroke-width=".08" d="M44.57 13.09v.4h-7.563v-.4zm0 .81v.4h-7.563v-.4z"/>
    <use xlink:href="#reuse-4" transform="matrix(.0028 0 0 -.0028 52.93 11.29)"/>
    <rect width=".13" height="2.486" x="-.065" y="-3.6" fill="currentColor" ry=".04" transform="translate(53.782 12.29)"/>
    <use xlink:href="#reuse-5" transform="matrix(.0028 0 0 -.0028 53.847 8.73)"/>
    <use xlink:href="#reuse-2" transform="matrix(.004 0 0 -.004 54.868 11.79)"/>
    <use xlink:href="#reuse-2" transform="matrix(.004 0 0 -.004 54.868 21.074)"/>
    <g class="scale-degree">
        <use xlink:href="#reuse-6" transform="matrix(.0032 0 0 -.0032 54.868 26.129)"/>
        <text fill="currentColor" font-family="serif" font-size="2.2" transform="translate(55.941 26.729)">
<tspan>➃</tspan>
</text>
    </g>
    <rect width=".13" height="2.895" x="-.065" y="-.314" fill="currentColor" ry=".04" transform="translate(54.933 12.29)"/>
    <rect width=".13" height="3.124" x="-.065" y="-.314" fill="currentColor" ry=".04" transform="translate(54.933 21.574)"/>
    <use xlink:href="#reuse-7" transform="matrix(.004 0 0 -.004 53.822 21.074)"/>
    <text fill="currentColor" class="schema" font-family="serif" font-size="1.96" transform="translate(45.57 5.206)">
<tspan>Converging H.C.</tspan>
</text>
    <use xlink:href="#reuse-2" transform="matrix(.004 0 0 -.004 57.372 12.29)"/>
    <rect width=".13" height="2.618" x="-.065" y=".186" fill="currentColor" ry=".04" transform="translate(57.437 12.29)"/>
    <path stroke="currentColor" stroke-linecap="round" stroke-linejoin="round" stroke-width=".1" d="m61.8 6.18.5 1m-19.574-1-.5 1m.5-1H61.8" class="schema"/>
    <path fill="currentColor" stroke="currentColor" stroke-linecap="round" stroke-linejoin="round" stroke-width=".08" d="M33.4 14.09v.4h-7.812v-.4zm0 .81v.4h-7.812v-.4z"/>
    <use xlink:href="#reuse-2" transform="matrix(.004 0 0 -.004 60.996 12.79)"/>
    <path fill="currentColor" stroke="currentColor" stroke-linecap="round" stroke-linejoin="round" stroke-width=".08" d="M54.958 24.184v.4h-17.95v-.4z"/>
    <use xlink:href="#reuse-2" transform="matrix(.004 0 0 -.004 60.996 20.574)"/>
    <text fill="currentColor" class="scale-degree" font-family="serif" font-size="2.2" transform="translate(60.996 25.673)">
<tspan>➄</tspan>
</text>
    <path fill="currentColor" stroke="currentColor" stroke-linecap="round" stroke-linejoin="round" stroke-width=".08" d="M22.884 14.78v.4h-2.305v-.4zm0 .81v.4h-6.259v-.4z"/>
    <rect width=".13" height="2.814" x="-.065" y=".686" fill="currentColor" ry=".04" transform="translate(61.06 12.29)"/>
    <rect width=".13" height="2.621" x="-.065" y="-.814" fill="currentColor" ry=".04" transform="translate(61.06 21.574)"/>
    <text fill="currentColor" class="schema" font-family="serif" font-size="1.96" transform="translate(27.397 6.064)">
<tspan>Fenaroli</tspan>
</text>
    <use xlink:href="#reuse-2" transform="matrix(.004 0 0 -.004 64.95 10.29)"/>
    <use xlink:href="#reuse-2" transform="matrix(.004 0 0 -.004 64.95 17.574)"/>
    <text fill="currentColor" class="scale-degree" font-family="serif" font-size="2.2" transform="translate(64.95 25.965)">
<tspan>➍</tspan>
</text>
    <rect width=".13" height="5.314" x="-.065" y="-1.814" fill="currentColor" ry=".04" transform="translate(65.015 12.29)"/>
    <rect width=".13" height="5.45" x="-.065" y="-3.814" fill="currentColor" ry=".04" transform="translate(65.015 21.574)"/>
    <path stroke="currentColor" stroke-linecap="round" stroke-linejoin="round" stroke-width=".1" d="m40.276 6.64.5 1m-19.736-1-.5 1m.5-1h19.236" class="schema"/>
    <use xlink:href="#reuse-2" transform="matrix(.004 0 0 -.004 67.204 12.79)"/>
    <text fill="currentColor" class="scale-degree" font-family="serif" font-size="2.2" transform="translate(67.204 9.74)">
<tspan>➆</tspan>
</text>
    <rect width=".13" height="2.814" x="-.065" y=".686" fill="currentColor" ry=".04" transform="translate(67.27 12.29)"/>
    <path fill="currentColor" stroke="currentColor" stroke-linecap="round" stroke-linejoin="round" stroke-width=".08" d="M30.896 22.564v.4l-14.27.62v-.4z"/>
    <use xlink:href="#reuse-2" transform="matrix(.004 0 0 -.004 69.958 11.79)"/>
    <use xlink:href="#reuse-2" transform="matrix(.004 0 0 -.004 69.958 18.074)"/>
    <text fill="currentColor" class="scale-degree" font-family="serif" font-size="2.2" transform="translate(69.958 25.965)">
<tspan>➌</tspan>
</text>
    <rect width=".13" height="3.124" x="-.065" y="-.314" fill="currentColor" ry=".04" transform="translate(70.023 12.29)"/>
    <rect width=".13" height="4.734" x="-.065" y="-3.314" fill="currentColor" ry=".04" transform="translate(70.023 21.574)"/>
    <use xlink:href="#reuse-2" transform="matrix(.004 0 0 -.004 72.463 12.29)"/>
    <text fill="currentColor" class="scale-degree" font-family="serif" font-size="2.2" transform="translate(72.463 9.74)">
<tspan>➀</tspan>
</text>
    <rect width=".13" height="2.624" x="-.065" y=".186" fill="currentColor" ry=".04" transform="translate(72.528 12.29)"/>
    <use xlink:href="#reuse-2" transform="matrix(.004 0 0 -.004 75.217 11.29)"/>
    <use xlink:href="#reuse-2" transform="matrix(.004 0 0 -.004 75.217 19.574)"/>
    <text fill="currentColor" class="scale-degree" font-family="serif" font-size="2.2" transform="translate(75.217 25.965)">
<tspan>➐</tspan>
</text>
    <rect width=".13" height="3.624" x="-.065" y="-.814" fill="currentColor" ry=".04" transform="translate(75.282 12.29)"/>
    <rect width=".13" height="3.007" x="-.065" y="-1.814" fill="currentColor" ry=".04" transform="translate(75.282 21.574)"/>
    <use xlink:href="#reuse-2" transform="matrix(.004 0 0 -.004 77.721 11.79)"/>
    <text fill="currentColor" class="scale-degree" font-family="serif" font-size="2.2" transform="translate(77.721 9.74)">
<tspan>➁</tspan>
</text>
    <rect width=".13" height="3.124" x="-.065" y="-.314" fill="currentColor" ry=".04" transform="translate(77.786 12.29)"/>
    <use xlink:href="#reuse-2" transform="matrix(.004 0 0 -.004 81.378 10.79)"/>
    <use xlink:href="#reuse-2" transform="matrix(.004 0 0 -.004 81.378 19.074)"/>
    <text fill="currentColor" class="scale-degree" font-family="serif" font-size="2.2" transform="translate(81.378 26.965)">
<tspan>➊</tspan>
</text>
    <rect width=".16" height="13.385" y="-6.692" fill="currentColor" ry=".05" transform="translate(5.63 16.932)"/>
    <rect width=".13" height="3.124" x="-.065" y="-1.314" fill="currentColor" ry=".04" transform="translate(81.443 12.29)"/>
    <rect width=".13" height="5.124" x="-.065" y="-2.314" fill="currentColor" ry=".04" transform="translate(81.443 21.574)"/>
    <path fill="currentColor" d="M5.007 18.42c0-1.032-.54-1.476-.54-1.488 0-.072.54-.396.54-1.488 0-1.068-.444-1.992-.444-3.18 0-.768.192-1.5.72-2.04.06-.06.156.024.096.084-.396.408-.528.924-.528 1.476 0 1.044.42 1.956.42 3.12 0 .756-.18 1.476-.696 2.028.516.552.696 1.272.696 2.028 0 1.164-.42 2.076-.42 3.12 0 .552.132 1.068.528 1.476.06.06-.036.144-.096.084-.528-.54-.72-1.272-.72-2.04 0-1.188.444-2.112.444-3.18z"/>
    <use xlink:href="#reuse-2" transform="matrix(.004 0 0 -.004 83.882 11.29)"/>
    <text fill="currentColor" class="scale-degree" font-family="serif" font-size="2.2" transform="translate(83.882 9.74)">
<tspan>➂</tspan>
</text>
    <rect width=".13" height="2.624" x="-.065" y="-.814" fill="currentColor" ry=".04" transform="translate(83.947 12.29)"/>
    <use xlink:href="#reuse-2" transform="matrix(.004 0 0 -.004 86.636 8.79)"/>
    <use xlink:href="#reuse-2" transform="matrix(.004 0 0 -.004 86.636 21.574)"/>
    <text fill="currentColor" class="scale-degree" font-family="serif" font-size="2.2" transform="translate(86.636 26.673)">
<tspan>➂</tspan>
</text>
    <rect width=".13" height="5.124" x="-.065" y="-3.314" fill="currentColor" ry=".04" transform="translate(86.701 12.29)"/>
    <rect width=".13" height="2.624" x="-.065" y=".186" fill="currentColor" ry=".04" transform="translate(86.701 21.574)"/>
    <use xlink:href="#reuse-2" transform="matrix(.004 0 0 -.004 88.89 10.29)"/>
    <rect width=".13" height="3.624" x="-.065" y="-1.814" fill="currentColor" ry=".04" transform="translate(88.955 12.29)"/>
    <use xlink:href="#reuse-4" transform="matrix(.0028 0 0 -.0028 90.894 10.29)"/>
    <rect width=".13" height="2.486" x="-.065" y="-4.6" fill="currentColor" ry=".04" transform="translate(91.747 12.29)"/>
    <use xlink:href="#reuse-5" transform="matrix(.0028 0 0 -.0028 91.812 7.73)"/>
    <use xlink:href="#reuse-2" transform="matrix(.004 0 0 -.004 92.832 10.79)"/>
    <use xlink:href="#reuse-2" transform="matrix(.004 0 0 -.004 92.832 21.074)"/>
    <text fill="currentColor" class="scale-degree" font-family="serif" font-size="2.2" transform="translate(92.832 26.673)">
<tspan>➃</tspan>
</text>
    <rect width=".13" height="3.32" x="-.065" y="-1.314" fill="currentColor" ry=".04" transform="translate(92.897 12.29)"/>
    <rect width=".13" height="3.124" x="-.065" y="-.314" fill="currentColor" ry=".04" transform="translate(92.897 21.574)"/>
    <use xlink:href="#reuse-2" transform="matrix(.004 0 0 -.004 95.337 11.29)"/>
    <rect width=".13" height="3.043" x="-.065" y="-.814" fill="currentColor" ry=".04" transform="translate(95.402 12.29)"/>
    <use xlink:href="#reuse-4" transform="matrix(.0028 0 0 -.0028 97.34 11.29)"/>
    <rect width=".13" height="2.486" x="-.065" y="-3.6" fill="currentColor" ry=".04" transform="translate(98.193 12.29)"/>
    <use xlink:href="#reuse-5" transform="matrix(.0028 0 0 -.0028 98.258 8.73)"/>
    <use xlink:href="#reuse-2" transform="matrix(.004 0 0 -.004 99.279 11.79)"/>
    <use xlink:href="#reuse-2" transform="matrix(.004 0 0 -.004 99.279 21.074)"/>
    <g class="scale-degree">
        <use xlink:href="#reuse-6" transform="matrix(.0032 0 0 -.0032 99.279 26.129)"/>
        <text fill="currentColor" font-family="serif" font-size="2.2" transform="translate(100.352 26.729)">
<tspan>➃</tspan>
</text>
    </g>
    <rect width=".13" height="2.895" x="-.065" y="-.314" fill="currentColor" ry=".04" transform="translate(99.344 12.29)"/>
    <rect width=".13" height="3.124" x="-.065" y="-.314" fill="currentColor" ry=".04" transform="translate(99.344 21.574)"/>
    <use xlink:href="#reuse-7" transform="matrix(.004 0 0 -.004 98.233 21.074)"/>
    <use xlink:href="#reuse-2" transform="matrix(.004 0 0 -.004 101.783 12.29)"/>
    <rect width=".13" height="2.618" x="-.065" y=".186" fill="currentColor" ry=".04" transform="translate(101.848 12.29)"/>
</svg>
