<svg xmlns="http://www.w3.org/2000/svg" xmlns:xlink="http://www.w3.org/1999/xlink" width="743.509" height="52.8mm" version="1.2" viewBox="0 0 111.942 30.044">
    <defs>
        <path id="reuse-0" fill="currentColor" d="M218 136c66 0 108-36 108-89 0-89-113-183-218-183C42-136 0-100 0-47c0 89 113 183 218 183z"/>
        <path id="reuse-1" fill="currentColor" d="M0 119c0 8 5 15 13 18l46 17v158c0 10 8 19 18 19s19-9 19-19V167l83 31v158c0 10 9 19 19 19s18-9 18-19V211l32 12c2 1 5 1 7 1 11 0 20-9 20-20v-60c0-8-5-16-13-19l-46-16V-51l32 11c2 1 5 1 7 1 11 0 20-9 20-20v-60c0-8-5-15-13-18l-46-17v-158c0-10-8-19-18-19s-19 9-19 19v145l-83-31v-158c0-10-9-19-19-19s-18 9-18 19v145l-32-12c-2-1-5-1-7-1-11 0-20 9-20 20v60c0 8 5 16 13 19l46 16V51L27 40c-2-1-5-1-7-1C9 39 0 48 0 59v60zm179-24L96 65V-95l83 30V95z"/>
        <path id="reuse-2" fill="currentColor" d="M250 262c116 0 176-106 176-163 0-40-30-72-67-72-31 0-75 25-75 75 0 38 27 77 72 77 4 0 9 0 14-1-28 37-72 59-120 59-106 0-113-73-113-186V-51c0-113 7-187 113-187 80 0 139 70 158 151 2 7 7 10 12 10 6 0 13-4 13-12 0-22-50-174-183-174C191-263 0-244 0 0c0 62 18 262 250 262z"/>
        <path id="reuse-3" fill="currentColor" d="M0 0h-16v250H0V0zm0 0v250c97 59 224 148 224 259 0 57-15 112-40 163-3 16 10 27 23 27 7 0 15-3 20-11 25-56 40-117 40-179C267 306 0 203 0 0z"/>
        <path id="reuse-4" fill="currentColor" d="M70 205c79 0 46-98 91-98 16 0 54 48 61 63 6 12 23 12 28 0L127-250c-8-7-17-10-27-10s-20 3-28 10L189 76c-34-12-69-22-105-22-47 0-87 34-87 79 0 40 33 72 73 72z"/>
        <path id="reuse-5" fill="currentColor" d="M0 0c0 31 25 56 56 56s56-25 56-56-25-56-56-56S0-31 0 0z"/>
    </defs>
    <style>
        tspan{white-space:pre}
    </style>
    <rect width="1.956" height=".2" x="95.311" y="-.1" fill="currentColor" ry=".1" transform="translate(5.69 8.771)"/>
    <rect width="1.956" height=".2" x="95.311" y="-.1" fill="currentColor" ry=".1" transform="translate(5.69 9.771)"/>
    <rect width="1.956" height=".2" x="91.607" y="-.1" fill="currentColor" ry=".1" transform="translate(5.69 9.771)"/>
    <rect width="1.956" height=".2" x="86.578" y="-.1" fill="currentColor" ry=".1" transform="translate(5.69 8.771)"/>
    <rect width="1.956" height=".2" x="86.578" y="-.1" fill="currentColor" ry=".1" transform="translate(5.69 9.771)"/>
    <rect width="1.377" height=".2" x="84.736" y="-.1" fill="currentColor" ry=".1" transform="translate(5.69 8.771)"/>
    <rect width="1.377" height=".2" x="84.736" y="-.1" fill="currentColor" ry=".1" transform="translate(5.69 9.771)"/>
    <path stroke="currentColor" stroke-linecap="round" stroke-linejoin="round" stroke-width=".1" d="M5.74 14.771h99.29m-99.29-1h99.29m-99.29-1h99.29m-99.29-1h99.29m-99.29-1h99.29"/>
    <rect width=".19" height="4.95" y="10.976" fill="currentColor" ry="0" transform="translate(104.89 3.845)"/>
    <path stroke="currentColor" stroke-linecap="round" stroke-linejoin="round" stroke-width=".1" d="M5.74 23.771h99.29m-99.29-1h99.29m-99.29-1h99.29m-99.29-1h99.29m-99.29-1h99.29"/>
    <rect width=".19" height="4.05" y="-2.05" fill="currentColor" ry="0" transform="translate(104.89 21.771)"/>
    <rect width=".19" height="4.05" y="-2" fill="currentColor" ry="0" transform="translate(104.89 12.771)"/>
    <rect width=".19" height="4.95" y="10.976" fill="currentColor" ry="0" transform="translate(58.447 3.845)"/>
    <rect width=".19" height="4.05" y="-2.05" fill="currentColor" ry="0" transform="translate(58.447 21.771)"/>
    <rect width=".19" height="4.05" y="-2" fill="currentColor" ry="0" transform="translate(58.447 12.771)"/>
    <path fill="currentColor" stroke="currentColor" stroke-linecap="round" stroke-linejoin="round" stroke-width=".08" d="M101.418 11.761v.4h-3.754v-.4zm0 .81v.4h-8.783v-.4z"/>
    <use xlink:href="#reuse-0" transform="matrix(.004 0 0 -.004 17.04 11.771)"/>
    <path fill="currentColor" d="M7.555 16.311H7.53a.783.783 0 0 1-.78-.788c0-.232.212-.412.448-.412.216 0 .38.188.38.412 0 .208-.172.38-.38.38a.326.326 0 0 1-.124-.024c.104.156.272.26.468.26h.016zm.78-1.728a.69.69 0 0 0 .452-.656.764.764 0 0 0-.692-.76c.076.356.192.968.24 1.416zm-1.548-.924c0 .58.564.988 1.056.988.004 0 .188 0 .328-.024a17.343 17.343 0 0 0-.252-1.456c-.316.032-.496.244-.496.476 0 .176.1.364.324.492.02.02.028.04.028.06 0 .044-.04.088-.088.088-.06 0-.504-.248-.504-.748 0-.352.232-.696.64-.788a15.048 15.048 0 0 0-.184-.7c-.428.484-.852.972-.852 1.612zm.704-2.1c-.116-.384-.208-.68-.208-1.384 0-.46.22-.896.596-1.168a.06.06 0 0 1 .08 0c.272.32.532.98.532 1.432 0 .572-.344 1.02-.72 1.456.084.272.156.552.224.828.008 0 .028-.004.052-.004.62 0 1.024.512 1.024 1.044 0 .452-.296.848-.72.984.012.14.02.28.02.42 0 .076-.004.156-.008.232-.028.476-.352.9-.808.912l.004-.172c.372-.008.612-.368.636-.764a3.775 3.775 0 0 0-.008-.588c-.02.004-.176.032-.356.032-.772 0-1.332-.72-1.332-1.496 0-.708.524-1.224.992-1.764zm.712-1.452c0-.136.004-.264-.08-.516a1.153 1.153 0 0 0-.648 1.036c0 .208.048.46.144.776.32-.388.584-.792.584-1.296z"/>
    <use xlink:href="#reuse-1" transform="matrix(.004 0 0 -.004 9.99 10.771)"/>
    <use xlink:href="#reuse-1" transform="matrix(.004 0 0 -.004 11.09 12.271)"/>
    <use xlink:href="#reuse-2" transform="matrix(.004 0 0 -.004 13.34 12.771)"/>
    <use xlink:href="#reuse-0" transform="matrix(.004 0 0 -.004 17.04 21.771)"/>
    <path fill="currentColor" d="M8.719 21.271c0-.112.092-.204.204-.204s.204.092.204.204-.092.204-.204.204-.204-.092-.204-.204zm0-1c0-.112.092-.204.204-.204s.204.092.204.204-.092.204-.204.204-.204-.092-.204-.204zm-1.3-.552c.688 0 1.172.352 1.172 1.004 0 1.052-1.052 1.656-2.064 2.084a.049.049 0 0 1-.036.016.053.053 0 0 1-.052-.052c0-.012.004-.024.016-.036.808-.472 1.648-1.06 1.648-1.972 0-.48-.252-.94-.684-.94-.296 0-.516.216-.616.504a.323.323 0 0 1 .136-.032c.22 0 .4.18.4.4 0 .232-.176.424-.4.424-.24 0-.448-.188-.448-.424 0-.532.408-.976.928-.976z"/>
    <use xlink:href="#reuse-1" transform="matrix(.004 0 0 -.004 9.99 20.771)"/>
    <use xlink:href="#reuse-1" transform="matrix(.004 0 0 -.004 11.09 22.271)"/>
    <use xlink:href="#reuse-2" transform="matrix(.004 0 0 -.004 13.34 21.771)"/>
    <rect width=".13" height="3.314" x="-.065" y="-.814" fill="currentColor" ry=".04" transform="translate(17.106 12.771)"/>
    <use xlink:href="#reuse-3" transform="matrix(.004 0 0 -.004 17.17 15.231)"/>
    <rect width=".13" height="2.62" x="-.065" y=".186" fill="currentColor" ry=".04" transform="translate(17.106 21.771)"/>
    <use xlink:href="#reuse-4" transform="matrix(.004 0 0 -.004 22.07 12.771)"/>
    <use xlink:href="#reuse-0" transform="matrix(.004 0 0 -.004 22.07 19.771)"/>
    <rect width=".13" height="4.345" x="-.065" y="-1.814" fill="currentColor" ry=".04" transform="translate(22.135 21.771)"/>
    <path fill="currentColor" stroke="currentColor" stroke-linecap="round" stroke-linejoin="round" stroke-width=".08" d="M77.41 23.761v.4l-17.642.81v-.4z"/>
    <use xlink:href="#reuse-0" transform="matrix(.004 0 0 -.004 26.697 11.771)"/>
    <path fill="currentColor" d="M27.259 16.864c.312 0 .388-.704.388-.712 0-.072-.028-.132-.1-.132-.244 0-.408.496-.408.692 0 .088.032.152.12.152zm-.856-.436c0-.008.204-.604.536-.604.14 0 .236.084.264.208.116-.124.268-.208.412-.208.276 0 .428.196.428.456 0 .472-.42.744-.636.744-.212 0-.28-.08-.336-.08-.028 0-.056.012-.064.036l-.116.344c-.004.008-.004.02-.004.028 0 .148.228.072.228.168 0 .028-.016.056-.052.056-.012 0-.2-.02-.464-.02s-.448.02-.46.02a.055.055 0 0 1-.056-.056c0-.124.348.004.408-.164l.408-1.2a.315.315 0 0 0 .016-.08c0-.032-.008-.056-.044-.056-.132 0-.252.24-.316.388a.104.104 0 0 1-.096.068c-.032 0-.056-.016-.056-.048z"/>
    <use xlink:href="#reuse-0" transform="matrix(.004 0 0 -.004 26.697 20.771)"/>
    <rect width=".13" height="3.314" x="-.065" y="-.814" fill="currentColor" ry=".04" transform="translate(26.762 12.771)"/>
    <use xlink:href="#reuse-3" transform="matrix(.004 0 0 -.004 26.827 15.231)"/>
    <rect width=".13" height="3.092" x="-.065" y="-.814" fill="currentColor" ry=".04" transform="translate(26.762 21.771)"/>
    <path fill="currentColor" stroke="currentColor" stroke-linecap="round" stroke-linejoin="round" stroke-width=".08" d="M69.876 12.451v.4l-2.554.13v-.4zm0 .81v.4l-2.554.13v-.4zm0 .81v.4l-10.108.5v-.4z"/>
    <use xlink:href="#reuse-4" transform="matrix(.004 0 0 -.004 31.726 12.771)"/>
    <use xlink:href="#reuse-0" transform="matrix(.004 0 0 -.004 31.726 19.771)"/>
    <rect width=".13" height="3.817" x="-.065" y="-1.814" fill="currentColor" ry=".04" transform="translate(31.791 21.771)"/>
    <path fill="currentColor" stroke="currentColor" stroke-linecap="round" stroke-linejoin="round" stroke-width=".08" d="M53.91 23.381v.4H36.518v-.4z"/>
    <use xlink:href="#reuse-0" transform="matrix(.004 0 0 -.004 36.478 12.271)"/>
    <text fill="currentColor" class="scale-degree" font-family="serif" font-size="2.2" transform="translate(36.478 9.874)">
<tspan>➆</tspan>
</text>
    <use xlink:href="#reuse-0" transform="matrix(.004 0 0 -.004 36.478 20.271)"/>
    <text fill="currentColor" class="scale-degree" font-family="serif" font-size="2.2" transform="translate(36.478 26.162)">
<tspan>➍</tspan>
</text>
    <use xlink:href="#reuse-5" transform="matrix(.004 0 0 -.004 38.232 12.271)"/>
    <rect width=".13" height="3.311" x="-.065" y="-.314" fill="currentColor" ry=".04" transform="translate(36.543 12.771)"/>
    <rect width=".13" height="3.124" x="-.065" y="-1.314" fill="currentColor" ry=".04" transform="translate(36.543 21.771)"/>
    <path fill="currentColor" stroke="currentColor" stroke-linecap="round" stroke-linejoin="round" stroke-width=".08" d="M60.337 10.226c1.642-1.636 8.126-2.28 10.058-1h0c-1.92-1.161-8.404-.517-10.058 1z"/>
    <use xlink:href="#reuse-0" transform="matrix(.004 0 0 -.004 41.382 19.771)"/>
    <rect width=".13" height="3.624" x="-.065" y="-1.814" fill="currentColor" ry=".04" transform="translate(41.447 21.771)"/>
    <path fill="currentColor" stroke="currentColor" stroke-linecap="round" stroke-linejoin="round" stroke-width=".08" d="M46.377 13.451v.4l-2.555.132v-.4zm0 .81v.4l-2.555.133v-.4zm0 .81v.4l-9.859.5v-.4z"/>
    <use xlink:href="#reuse-0" transform="matrix(.004 0 0 -.004 43.782 11.771)"/>
    <rect width=".13" height="3.443" x="-.065" y="-.814" fill="currentColor" ry=".04" transform="translate(43.847 12.771)"/>
    <path fill="currentColor" stroke="currentColor" stroke-linecap="round" stroke-linejoin="round" stroke-width=".08" d="M31.816 23.571v.4l-14.735.81v-.4z"/>
    <use xlink:href="#reuse-0" transform="matrix(.004 0 0 -.004 46.287 11.271)"/>
    <rect width=".13" height="3.817" x="-.065" y="-1.314" fill="currentColor" ry=".04" transform="translate(46.352 12.771)"/>
    <text fill="currentColor" class="schema" font-family="serif" font-size="1.96" transform="translate(54.138 5.206)">
<tspan>Fenaroli</tspan>
</text>
    <use xlink:href="#reuse-0" transform="matrix(.004 0 0 -.004 48.79 11.771)"/>
    <text fill="currentColor" class="scale-degree" font-family="serif" font-size="2.2" transform="translate(48.79 10.221)">
<tspan>➀</tspan>
</text>
    <use xlink:href="#reuse-0" transform="matrix(.004 0 0 -.004 48.79 20.771)"/>
    <text fill="currentColor" class="scale-degree" font-family="serif" font-size="2.2" transform="translate(48.79 26.162)">
<tspan>➌</tspan>
</text>
    <rect width=".13" height="3.314" x="-.065" y="-.814" fill="currentColor" ry=".04" transform="translate(48.856 12.771)"/>
    <use xlink:href="#reuse-3" transform="matrix(.004 0 0 -.004 48.92 15.231)"/>
    <rect width=".13" height="2.624" x="-.065" y="-.814" fill="currentColor" ry=".04" transform="translate(48.856 21.771)"/>
    <path stroke="currentColor" stroke-linecap="round" stroke-linejoin="round" stroke-width=".1" d="m77.82 5.783.5 1m-41.342-1-.5 1m.5-1H77.82" class="schema"/>
    <use xlink:href="#reuse-4" transform="matrix(.004 0 0 -.004 53.82 12.771)"/>
    <use xlink:href="#reuse-0" transform="matrix(.004 0 0 -.004 53.82 19.771)"/>
    <rect width=".13" height="3.624" x="-.065" y="-1.814" fill="currentColor" ry=".04" transform="translate(53.885 21.771)"/>
    <path fill="currentColor" stroke="currentColor" stroke-linecap="round" stroke-linejoin="round" stroke-width=".08" d="M37.086 11.226c1.615-1.625 7.899-2.266 9.809-1h0c-1.898-1.146-8.181-.506-9.809 1z"/>
    <use xlink:href="#reuse-0" transform="matrix(.004 0 0 -.004 59.728 11.271)"/>
    <text fill="currentColor" class="scale-degree" font-family="serif" font-size="2.2" transform="translate(59.728 8.881)">
<tspan>➁</tspan>
</text>
    <use xlink:href="#reuse-0" transform="matrix(.004 0 0 -.004 59.728 22.271)"/>
    <text fill="currentColor" class="scale-degree" font-family="serif" font-size="2.2" transform="translate(59.728 27.352)">
<tspan>➐</tspan>
</text>
    <rect width=".16" height="13.1" y="-6.55" fill="currentColor" ry=".05" transform="translate(5.63 17.271)"/>
    <use xlink:href="#reuse-5" transform="matrix(.004 0 0 -.004 61.482 11.271)"/>
    <rect width=".13" height="3.311" x="-.065" y="-1.314" fill="currentColor" ry=".04" transform="translate(59.793 12.771)"/>
    <rect width=".13" height="2.311" x="-.065" y=".686" fill="currentColor" ry=".04" transform="translate(59.793 21.771)"/>
    <path fill="currentColor" stroke="currentColor" stroke-linecap="round" stroke-linejoin="round" stroke-width=".08" d="M97.714 25.381v.4H81.987v-.4z"/>
    <path fill="currentColor" d="M5.007 18.735c0-1.02-.528-1.452-.528-1.464 0-.072.528-.384.528-1.464 0-1.044-.432-1.956-.432-3.12 0-.756.18-1.464.708-2.004.06-.06.156.036.096.096-.396.396-.516.9-.516 1.44 0 1.02.408 1.92.408 3.06 0 .744-.18 1.452-.696 1.992.516.54.696 1.248.696 1.992 0 1.14-.408 2.04-.408 3.06 0 .54.12 1.044.516 1.44.06.06-.036.156-.096.096-.528-.54-.708-1.248-.708-2.004 0-1.164.432-2.076.432-3.12z"/>
    <use xlink:href="#reuse-0" transform="matrix(.004 0 0 -.004 64.882 19.771)"/>
    <rect width=".13" height="4.575" x="-.065" y="-1.814" fill="currentColor" ry=".04" transform="translate(64.947 21.771)"/>
    <use xlink:href="#reuse-0" transform="matrix(.004 0 0 -.004 67.282 10.771)"/>
    <rect width=".13" height="3.44" x="-.065" y="-1.814" fill="currentColor" ry=".04" transform="translate(67.347 12.771)"/>
    <use xlink:href="#reuse-0" transform="matrix(.004 0 0 -.004 69.786 10.271)"/>
    <rect width=".13" height="3.817" x="-.065" y="-2.314" fill="currentColor" ry=".04" transform="translate(69.851 12.771)"/>
    <use xlink:href="#reuse-0" transform="matrix(.004 0 0 -.004 72.29 10.771)"/>
    <text fill="currentColor" class="scale-degree" font-family="serif" font-size="2.2" transform="translate(72.29 9.733)">
<tspan>➂</tspan>
</text>
    <use xlink:href="#reuse-0" transform="matrix(.004 0 0 -.004 72.29 21.771)"/>
    <text fill="currentColor" class="scale-degree" font-family="serif" font-size="2.2" transform="translate(72.29 26.787)">
<tspan>➊</tspan>
</text>
    <rect width=".13" height="3.314" x="-.065" y="-1.814" fill="currentColor" ry=".04" transform="translate(72.356 12.771)"/>
    <use xlink:href="#reuse-3" transform="matrix(.004 0 0 -.004 72.42 14.231)"/>
    <rect width=".13" height="2.237" x="-.065" y=".186" fill="currentColor" ry=".04" transform="translate(72.356 21.771)"/>
    <use xlink:href="#reuse-4" transform="matrix(.004 0 0 -.004 77.32 12.771)"/>
    <use xlink:href="#reuse-0" transform="matrix(.004 0 0 -.004 77.32 19.771)"/>
    <rect width=".13" height="4.007" x="-.065" y="-1.814" fill="currentColor" ry=".04" transform="translate(77.385 21.771)"/>
    <use xlink:href="#reuse-0" transform="matrix(.004 0 0 -.004 81.947 10.271)"/>
    <use xlink:href="#reuse-0" transform="matrix(.004 0 0 -.004 81.947 21.271)"/>
    <rect width=".13" height="3.314" x="-.065" y="-2.314" fill="currentColor" ry=".04" transform="translate(82.012 12.771)"/>
    <use xlink:href="#reuse-3" transform="matrix(.004 0 0 -.004 82.077 13.731)"/>
    <rect width=".13" height="4.124" x="-.065" y="-.314" fill="currentColor" ry=".04" transform="translate(82.012 21.771)"/>
    <use xlink:href="#reuse-4" transform="matrix(.004 0 0 -.004 86.976 12.771)"/>
    <use xlink:href="#reuse-0" transform="matrix(.004 0 0 -.004 86.976 19.771)"/>
    <rect width=".13" height="5.624" x="-.065" y="-1.814" fill="currentColor" ry=".04" transform="translate(87.041 21.771)"/>
    <path fill="currentColor" d="M91.239 7.882c.193 0 .327.112.327.277 0 .255-.3.501-.585.501-.193 0-.325-.112-.325-.277 0-.255.297-.501.583-.501z"/>
    <rect width=".13" height="2.486" x="-.065" y="-7.1" fill="currentColor" ry=".04" transform="translate(91.509 12.771)"/>
    <path fill="currentColor" d="M91.574 6.305V6.9v-.596c0 .319.238.562.409.826A.374.374 0 0 0 92 7.019c0-.264-.244-.527-.426-.714zm.322 1.78c0-.03.12-.207.12-.473s-.252-.526-.442-.711v.21h-.059v-1.4h.059c0 .496.563.812.563 1.308a.643.643 0 0 1-.065.268c.05.101.082.208.082.325 0 .177-.042.35-.115.51-.014.028-.04.036-.065.036-.039 0-.078-.028-.078-.073z"/>
    <use xlink:href="#reuse-0" transform="matrix(.004 0 0 -.004 92.595 8.771)"/>
    <use xlink:href="#reuse-0" transform="matrix(.004 0 0 -.004 92.595 23.271)"/>
    <rect width=".13" height="3.814" x="-.065" y="-3.814" fill="currentColor" ry=".04" transform="translate(92.66 12.771)"/>
    <rect width=".13" height="2.124" x="-.065" y="1.686" fill="currentColor" ry=".04" transform="translate(92.66 21.771)"/>
    <use xlink:href="#reuse-0" transform="matrix(.004 0 0 -.004 97.624 9.271)"/>
    <use xlink:href="#reuse-0" transform="matrix(.004 0 0 -.004 97.624 19.771)"/>
    <rect width=".13" height="3.314" x="-.065" y="-3.314" fill="currentColor" ry=".04" transform="translate(97.689 12.771)"/>
    <rect width=".13" height="5.624" x="-.065" y="-1.814" fill="currentColor" ry=".04" transform="translate(97.689 21.771)"/>
    <use xlink:href="#reuse-0" transform="matrix(.004 0 0 -.004 101.328 8.771)"/>
    <rect width=".13" height="3.814" x="-.065" y="-3.814" fill="currentColor" ry=".04" transform="translate(101.393 12.771)"/>
</svg>
