<svg xmlns="http://www.w3.org/2000/svg" xmlns:xlink="http://www.w3.org/1999/xlink" width="793.701" height="406.639" version="1.2" viewBox="0 0 119.502 61.227">
    <defs>
        <path id="reuse-0" fill="currentColor" d="M266-635h-6c-108 0-195 88-195 197 0 58 53 103 112 103 54 0 95-47 95-103 0-52-43-95-95-95-11 0-21 2-31 6 26-39 68-65 117-65h4zm195 432c68 24 113 90 113 164 0 90-66 179-173 190 19-89 48-242 60-354zM74 28c0-145 141-247 264-247 1 0 47 0 82 6-7 64-29 203-63 364-79-8-124-61-124-119 0-44 25-91 81-123 5-5 7-10 7-15 0-11-10-22-22-22-15 0-126 62-126 187 0 88 58 174 160 197-14 58-29 117-46 175C180 310 74 188 74 28zm176 525c-29 96-52 170-52 346 0 115 55 224 149 292 6 5 14 5 20 0 68-80 133-245 133-358 0-143-86-255-180-364 21-68 39-138 56-207 2 0 7 1 13 1 155 0 256-128 256-261 0-113-74-212-180-246 3-35 5-70 5-105 0-19-1-39-2-58-7-119-88-225-202-228l1 43c93 2 153 92 159 191 1 18 2 37 2 55 0 31-1 61-4 92-5-1-44-8-89-8C142-262 2-82 2 112c0 177 131 306 248 441zm178 363c0 34 1 66-20 129-99-48-162-149-162-259 0-52 12-115 36-194 80 97 146 198 146 324z"/>
        <path id="reuse-1" fill="currentColor" d="M0 119c0 8 5 15 13 18l46 17v158c0 10 8 19 18 19s19-9 19-19V167l83 31v158c0 10 9 19 19 19s18-9 18-19V211l32 12c2 1 5 1 7 1 11 0 20-9 20-20v-60c0-8-5-16-13-19l-46-16V-51l32 11c2 1 5 1 7 1 11 0 20-9 20-20v-60c0-8-5-15-13-18l-46-17v-158c0-10-8-19-18-19s-19 9-19 19v145l-83-31v-158c0-10-9-19-19-19s-18 9-18 19v145l-32-12c-2-1-5-1-7-1-11 0-20 9-20 20v60c0 8 5 16 13 19l46 16V51L27 40c-2-1-5-1-7-1C9 39 0 48 0 59v60zm179-24L96 65V-95l83 30V95z"/>
        <path id="reuse-2" fill="currentColor" d="M250 262c116 0 176-106 176-163 0-40-30-72-67-72-31 0-75 25-75 75 0 38 27 77 72 77 4 0 9 0 14-1-28 37-72 59-120 59-106 0-113-73-113-186V-51c0-113 7-187 113-187 80 0 139 70 158 151 2 7 7 10 12 10 6 0 13-4 13-12 0-22-50-174-183-174C191-263 0-244 0 0c0 62 18 262 250 262z"/>
        <path id="reuse-3" fill="currentColor" d="M-6 78c0 59 124 83 124 182 0 24-8 49-25 69l-35 42c-3 3-4 7-4 10 0 9 9 15 17 15 4 0 8-1 11-5l151-180c7-9 10-17 10-25 0-59-124-83-124-182 0-24 7-49 24-69l84-99c3-3 4-7 4-10 0-9-8-16-16-16s-45 44-109 44c-16 0-53 0-53-67 0-35 11-74 28-94 7-8-5-19-12-11-45 54-92 148-92 202 0 41 27 42 40 42 33 0 78-13 119-31L4 53C-3 62-6 70-6 78z"/>
        <path id="reuse-4" fill="currentColor" d="M557-125c0 28 23 51 51 51s51-23 51-51-23-51-51-51-51 23-51 51zm0 250c0 28 23 51 51 51s51-23 51-51-23-51-51-51-51 23-51 51zM232 263c172 0 293-88 293-251 0-263-263-414-516-521-3-3-6-4-9-4-7 0-13 6-13 13 0 3 1 6 4 9C193-373 403-226 403 2c0 120-63 235-171 235-74 0-129-54-154-126 11 5 22 8 34 8 55 0 100-45 100-100 0-58-44-106-100-106C52-87 0-40 0 19c0 133 102 244 232 244z"/>
        <path id="reuse-5" fill="currentColor" d="M253 245 203 82C173-17 82-173-15-173c-45 0-87 27-87 69 0 39 17 77 52 77 24 0 44-20 44-44 0-30-38-24-38-54 0-10 11-11 23-11h6c48 0 61 58 73 108l68 273H77c-11 0-19 8-19 19s8 19 19 19h60c32 96 118 191 213 191 45 0 87-27 87-69 0-39-17-77-52-77-24 0-44 19-44 43 0 30 38 25 38 55 0 10-10 11-22 11h-7c-62 0-70-88-86-154h55c11 0 19-8 19-19s-8-19-19-19h-66z"/>
        <path id="reuse-6" fill="currentColor" d="M218 136c66 0 108-36 108-89 0-89-113-183-218-183C42-136 0-100 0-47c0 89 113 183 218 183z"/>
        <path id="reuse-7" fill="currentColor" d="M365-156H10c-6 0-10 4-10 10v136C0-4 4 0 10 0h355c6 0 10-4 10-10v-136c0-6-4-10-10-10z"/>
        <path id="reuse-8" fill="currentColor" d="M-81-366C-81-111-213-3-213 0c0 18 132 96 132 366 0 261-108 489-108 780 0 189 45 366 177 501 15 15 39-9 24-24-99-99-129-225-129-360 0-255 102-480 102-765 0-186-45-363-174-498C-60-135-15-312-15-498c0-285-102-510-102-765 0-135 30-261 129-360 15-15-9-39-24-24-132 135-177 312-177 501 0 291 108 519 108 780z"/>
    </defs>
    <style>
        tspan{white-space:pre}
    </style>
    <text fill="currentColor" font-family="serif" font-size="2.47" font-weight="bold" transform="translate(5.69 5.514)">
<tspan>Allegro</tspan>
</text>
    <path stroke="currentColor" stroke-linecap="round" stroke-linejoin="round" stroke-width=".1" d="M14.276 13.874h99.485m-99.485-1h99.485m-99.485-1h99.485m-99.485-1h99.485m-99.485-1h99.485"/>
    <rect width=".19" height="4.95" y="38.137" fill="currentColor" ry="0" transform="translate(113.621 6.547)"/>
    <rect width=".19" height="7.211" y="16.377" fill="currentColor" ry="0" transform="translate(113.621 6.547)"/>
    <rect width=".19" height="4.95" y="7.377" fill="currentColor" ry="0" transform="translate(113.621 6.547)"/>
    <rect width="1.956" height=".2" x="103.061" y="-.1" fill="currentColor" ry=".1" transform="translate(5.69 23.874)"/>
    <rect width="1.956" height=".2" x="93.919" y="-.1" fill="currentColor" ry=".1" transform="translate(5.69 23.874)"/>
    <rect width="1.956" height=".2" x="89.237" y="-.1" fill="currentColor" ry=".1" transform="translate(5.69 23.874)"/>
    <rect width="1.956" height=".2" x="89.237" y="-.1" fill="currentColor" ry=".1" transform="translate(5.69 24.874)"/>
    <rect width="1.956" height=".2" x="84.722" y="-.1" fill="currentColor" ry=".1" transform="translate(5.69 23.874)"/>
    <rect width="1.956" height=".2" x="75.524" y="-.1" fill="currentColor" ry=".1" transform="translate(5.69 23.874)"/>
    <rect width="1.956" height=".2" x="70.842" y="-.1" fill="currentColor" ry=".1" transform="translate(5.69 23.874)"/>
    <rect width="1.956" height=".2" x="70.842" y="-.1" fill="currentColor" ry=".1" transform="translate(5.69 24.874)"/>
    <rect width="1.956" height=".2" x="57.877" y="-.1" fill="currentColor" ry=".1" transform="translate(5.69 23.874)"/>
    <rect width="1.956" height=".2" x="46.053" y="-.1" fill="currentColor" ry=".1" transform="translate(5.69 23.874)"/>
    <rect width="1.956" height=".2" x="46.053" y="-.1" fill="currentColor" ry=".1" transform="translate(5.69 24.874)"/>
    <rect width="1.956" height=".2" x="36.855" y="-.1" fill="currentColor" ry=".1" transform="translate(5.69 23.874)"/>
    <rect width="1.956" height=".2" x="26.291" y="-.1" fill="currentColor" ry=".1" transform="translate(5.69 23.874)"/>
    <rect width="1.956" height=".2" x="26.291" y="-.1" fill="currentColor" ry=".1" transform="translate(5.69 24.874)"/>
    <path stroke="currentColor" stroke-linecap="round" stroke-linejoin="round" stroke-width=".1" d="M14.276 22.874h99.485m-99.485-1h99.485m-99.485-1h99.485m-99.485-1h99.485m-99.485-1h99.485"/>
    <rect width=".19" height="4.95" y="7.377" fill="currentColor" ry="0" transform="translate(113.621 6.547)"/>
    <rect width=".19" height="4.05" y="-2.05" fill="currentColor" ry="0" transform="translate(113.621 51.635)"/>
    <rect width=".19" height="4.05" y="-2" fill="currentColor" ry="0" transform="translate(113.621 42.635)"/>
    <rect width=".19" height="4.05" y="-2.05" fill="currentColor" ry="0" transform="translate(113.621 32.135)"/>
    <path stroke="currentColor" stroke-linecap="round" stroke-linejoin="round" stroke-width=".1" d="M14.276 34.135h99.485m-99.485-1h99.485m-99.485-1h99.485m-99.485-1.001h99.485m-99.485-1h99.485"/>
    <rect width=".19" height="4.1" y="-2.05" fill="currentColor" ry="0" transform="translate(113.621 20.874)"/>
    <rect width=".19" height="4.05" y="-2" fill="currentColor" ry="0" transform="translate(113.621 11.874)"/>
    <rect width=".19" height="4.95" y="38.137" fill="currentColor" ry="0" transform="translate(75.45 6.547)"/>
    <rect width=".19" height="7.211" y="16.377" fill="currentColor" ry="0" transform="translate(75.45 6.547)"/>
    <rect width=".19" height="4.95" y="7.377" fill="currentColor" ry="0" transform="translate(75.45 6.547)"/>
    <path stroke="currentColor" stroke-linecap="round" stroke-linejoin="round" stroke-width=".1" d="M14.276 44.635h99.485m-99.485-1h99.485m-99.485-1h99.485m-99.485-1h99.485m-99.485-1h99.485"/>
    <rect width=".19" height="4.95" y="7.377" fill="currentColor" ry="0" transform="translate(75.45 6.547)"/>
    <path stroke="currentColor" stroke-linecap="round" stroke-linejoin="round" stroke-width=".1" d="M14.276 53.635h99.485m-99.485-1h99.485m-99.485-1h99.485m-99.485-1h99.485m-99.485-1h99.485"/>
    <rect width=".19" height="4.05" y="-2.05" fill="currentColor" ry="0" transform="translate(75.45 51.635)"/>
    <rect width=".19" height="4.05" y="-2" fill="currentColor" ry="0" transform="translate(75.45 42.635)"/>
    <rect width=".19" height="4.05" y="-2.05" fill="currentColor" ry="0" transform="translate(75.45 32.135)"/>
    <rect width=".19" height="4.1" y="-2.05" fill="currentColor" ry="0" transform="translate(75.45 20.874)"/>
    <rect width=".19" height="4.05" y="-2" fill="currentColor" ry="0" transform="translate(75.45 11.874)"/>
    <rect width=".19" height="4.95" y="38.137" fill="currentColor" ry="0" transform="translate(29.214 6.547)"/>
    <rect width=".19" height="7.211" y="16.377" fill="currentColor" ry="0" transform="translate(29.214 6.547)"/>
    <rect width=".19" height="4.95" y="7.377" fill="currentColor" ry="0" transform="translate(29.214 6.547)"/>
    <rect width=".19" height="4.95" y="7.377" fill="currentColor" ry="0" transform="translate(29.214 6.547)"/>
    <rect width=".19" height="4.05" y="-2.05" fill="currentColor" ry="0" transform="translate(29.214 51.635)"/>
    <rect width=".19" height="4.05" y="-2" fill="currentColor" ry="0" transform="translate(29.214 42.635)"/>
    <rect width=".19" height="4.05" y="-2.05" fill="currentColor" ry="0" transform="translate(29.214 32.135)"/>
    <rect width=".19" height="4.1" y="-2.05" fill="currentColor" ry="0" transform="translate(29.214 20.874)"/>
    <rect width=".19" height="4.05" y="-2" fill="currentColor" ry="0" transform="translate(29.214 11.874)"/>
    <use xlink:href="#reuse-0" transform="matrix(.004 0 0 -.004 15.026 12.874)"/>
    <use xlink:href="#reuse-1" transform="matrix(.004 0 0 -.004 18.526 9.874)"/>
    <use xlink:href="#reuse-2" transform="matrix(.004 0 0 -.004 20.776 11.874)"/>
    <use xlink:href="#reuse-3" transform="matrix(.004 0 0 -.004 24.476 20.874)"/>
    <use xlink:href="#reuse-0" transform="matrix(.004 0 0 -.004 15.026 21.874)"/>
    <use xlink:href="#reuse-1" transform="matrix(.004 0 0 -.004 18.526 18.874)"/>
    <use xlink:href="#reuse-2" transform="matrix(.004 0 0 -.004 20.776 20.874)"/>
    <use xlink:href="#reuse-3" transform="matrix(.004 0 0 -.004 24.476 32.135)"/>
    <use xlink:href="#reuse-4" transform="matrix(.004 0 0 -.004 15.026 31.134)"/>
    <use xlink:href="#reuse-1" transform="matrix(.004 0 0 -.004 18.526 31.134)"/>
    <use xlink:href="#reuse-2" transform="matrix(.004 0 0 -.004 20.776 32.135)"/>
    <use xlink:href="#reuse-3" transform="matrix(.004 0 0 -.004 24.476 42.635)"/>
    <use xlink:href="#reuse-0" transform="matrix(.004 0 0 -.004 15.026 43.635)"/>
    <use xlink:href="#reuse-1" transform="matrix(.004 0 0 -.004 18.526 40.635)"/>
    <use xlink:href="#reuse-2" transform="matrix(.004 0 0 -.004 20.776 42.635)"/>
    <use xlink:href="#reuse-3" transform="matrix(.004 0 0 -.004 24.476 51.635)"/>
    <use xlink:href="#reuse-4" transform="matrix(.004 0 0 -.004 15.026 50.635)"/>
    <use xlink:href="#reuse-1" transform="matrix(.004 0 0 -.004 18.526 50.635)"/>
    <use xlink:href="#reuse-2" transform="matrix(.004 0 0 -.004 20.776 51.635)"/>
    <rect width=".13" height="3.314" x="-.065" y="-.814" fill="currentColor" ry=".04" transform="translate(24.541 11.874)"/>
    <path fill="currentColor" stroke="currentColor" stroke-linecap="round" stroke-linejoin="round" stroke-width=".08" d="M109.168 53.244v.4H95.294v-.4zm0-19.5v.4H95.294v-.4z"/>
    <path fill="currentColor" d="M30.802 10.984c.194 0 .328.112.328.278 0 .254-.3.5-.585.5-.193 0-.325-.111-.325-.276 0-.255.297-.502.582-.502z"/>
    <use xlink:href="#reuse-5" transform="matrix(.004 0 0 -.004 24.497 16.42)"/>
    <use xlink:href="#reuse-6" transform="matrix(.004 0 0 -.004 24.476 10.874)"/>
    <path fill="currentColor" stroke="currentColor" stroke-linecap="round" stroke-linejoin="round" stroke-width=".08" d="M110.342 19.674v.4l-13.874.19v-.4zm-19.514 33.57v.4h-13.93v-.4z"/>
    <rect width=".13" height="2.486" x="-.065" y="-3.1" fill="currentColor" ry=".04" transform="translate(31.073 11.874)"/>
    <path fill="currentColor" d="M31.138 9.407v.597-.597c0 .32.238.563.409.826a.374.374 0 0 0 .016-.112c0-.263-.243-.526-.425-.714zm.322 1.781c0-.03.12-.207.12-.473s-.252-.526-.442-.711v.21h-.059v-1.4h.059c0 .495.563.812.563 1.307a.643.643 0 0 1-.065.27c.05.1.081.206.081.324 0 .176-.042.35-.114.51-.014.028-.04.036-.065.036-.039 0-.078-.028-.078-.073z"/>
    <use xlink:href="#reuse-7" transform="matrix(.004 0 0 -.004 93.88 41.635)"/>
    <path fill="currentColor" stroke="currentColor" stroke-linecap="round" stroke-linejoin="round" stroke-width=".08" d="M90.828 33.744v.4h-13.93v-.4z"/>
    <use xlink:href="#reuse-6" transform="matrix(.004 0 0 -.004 32.308 11.874)"/>
    <use xlink:href="#reuse-6" transform="matrix(.004 0 0 -.004 32.308 25.374)"/>
    <use xlink:href="#reuse-5" transform="matrix(.004 0 0 -.004 32.328 28.392)"/>
    <use xlink:href="#reuse-6" transform="matrix(.004 0 0 -.004 32.308 30.634)"/>
    <use xlink:href="#reuse-5" transform="matrix(.004 0 0 -.004 32.328 36.68)"/>
    <use xlink:href="#reuse-6" transform="matrix(.004 0 0 -.004 32.308 50.135)"/>
    <use xlink:href="#reuse-5" transform="matrix(.004 0 0 -.004 32.328 56.18)"/>
    <rect width=".13" height="3.308" x="-.065" y="-3.494" fill="currentColor" ry=".04" transform="translate(33.547 11.874)"/>
    <rect width=".13" height="4.504" x="-.065" y="-.19" fill="currentColor" ry=".04" transform="translate(33.547 20.874)"/>
    <rect width=".13" height="3.124" x="-.065" y="-1.314" fill="currentColor" ry=".04" transform="translate(32.373 32.135)"/>
    <rect width=".13" height="3.124" x="-.065" y="-1.314" fill="currentColor" ry=".04" transform="translate(32.373 51.635)"/>
    <path fill="currentColor" stroke="currentColor" stroke-linecap="round" stroke-linejoin="round" stroke-width=".08" d="M92.002 19.674v.4l-13.93.19v-.4z"/>
    <use xlink:href="#reuse-6" transform="matrix(.004 0 0 -.004 36.969 12.374)"/>
    <use xlink:href="#reuse-6" transform="matrix(.004 0 0 -.004 36.969 23.374)"/>
    <use xlink:href="#reuse-6" transform="matrix(.004 0 0 -.004 36.969 30.634)"/>
    <use xlink:href="#reuse-6" transform="matrix(.004 0 0 -.004 36.969 50.135)"/>
    <rect width=".13" height="3.393" x="-.065" y="-3.079" fill="currentColor" ry=".04" transform="translate(38.208 11.874)"/>
    <rect width=".13" height="2.504" x="-.065" y="-.19" fill="currentColor" ry=".04" transform="translate(38.208 20.874)"/>
    <rect width=".13" height="3.124" x="-.065" y="-1.314" fill="currentColor" ry=".04" transform="translate(37.034 32.135)"/>
    <rect width=".13" height="3.124" x="-.065" y="-1.314" fill="currentColor" ry=".04" transform="translate(37.034 51.635)"/>
    <path fill="currentColor" stroke="currentColor" stroke-linecap="round" stroke-linejoin="round" stroke-width=".08" d="M69.887 53.244v.4H52.109v-.4z"/>
    <use xlink:href="#reuse-6" transform="matrix(.004 0 0 -.004 39.92 12.874)"/>
    <rect width=".13" height="3.63" x="-.065" y="-2.816" fill="currentColor" ry=".04" transform="translate(41.16 11.874)"/>
    <path fill="currentColor" stroke="currentColor" stroke-linecap="round" stroke-linejoin="round" stroke-width=".08" d="M69.887 33.744v.4H52.109v-.4z"/>
    <use xlink:href="#reuse-6" transform="matrix(.004 0 0 -.004 42.872 12.874)"/>
    <use xlink:href="#reuse-6" transform="matrix(.004 0 0 -.004 42.872 24.374)"/>
    <use xlink:href="#reuse-6" transform="matrix(.004 0 0 -.004 42.872 30.634)"/>
    <use xlink:href="#reuse-6" transform="matrix(.004 0 0 -.004 42.872 50.135)"/>
    <rect width=".13" height="3.314" x="-.065" y="-2.5" fill="currentColor" ry=".04" transform="translate(44.111 11.874)"/>
    <rect width=".13" height="3.504" x="-.065" y="-.19" fill="currentColor" ry=".04" transform="translate(44.111 20.874)"/>
    <rect width=".13" height="3.124" x="-.065" y="-1.314" fill="currentColor" ry=".04" transform="translate(42.937 32.135)"/>
    <rect width=".13" height="3.124" x="-.065" y="-1.314" fill="currentColor" ry=".04" transform="translate(42.937 51.635)"/>
    <path fill="currentColor" stroke="currentColor" stroke-linecap="round" stroke-linejoin="round" stroke-width=".08" d="M71.06 20.484v.4H53.285v-.4z"/>
    <use xlink:href="#reuse-6" transform="matrix(.004 0 0 -.004 47.554 23.374)"/>
    <use xlink:href="#reuse-6" transform="matrix(.004 0 0 -.004 47.554 30.634)"/>
    <use xlink:href="#reuse-6" transform="matrix(.004 0 0 -.004 47.554 50.135)"/>
    <rect width=".13" height="2.504" x="-.065" y="-.19" fill="currentColor" ry=".04" transform="translate(48.793 20.874)"/>
    <rect width=".13" height="3.124" x="-.065" y="-1.314" fill="currentColor" ry=".04" transform="translate(47.619 32.135)"/>
    <rect width=".13" height="3.124" x="-.065" y="-1.314" fill="currentColor" ry=".04" transform="translate(47.619 51.635)"/>
    <path fill="currentColor" stroke="currentColor" stroke-linecap="round" stroke-linejoin="round" stroke-width=".08" d="M72.838 11.864v.4l-8.904 1v-.4zm0 .81v.4l-8.904 1v-.4z"/>
    <use xlink:href="#reuse-6" transform="matrix(.004 0 0 -.004 52.07 12.874)"/>
    <use xlink:href="#reuse-6" transform="matrix(.004 0 0 -.004 52.07 25.374)"/>
    <use xlink:href="#reuse-6" transform="matrix(.004 0 0 -.004 52.07 30.634)"/>
    <use xlink:href="#reuse-6" transform="matrix(.004 0 0 -.004 52.07 50.135)"/>
    <rect width=".13" height="3.82" x="-.065" y="-3.006" fill="currentColor" ry=".04" transform="translate(53.309 11.874)"/>
    <rect width=".13" height="4.504" x="-.065" y="-.19" fill="currentColor" ry=".04" transform="translate(53.309 20.874)"/>
    <rect width=".13" height="3.124" x="-.065" y="-1.314" fill="currentColor" ry=".04" transform="translate(52.134 32.135)"/>
    <rect width=".13" height="3.124" x="-.065" y="-1.314" fill="currentColor" ry=".04" transform="translate(52.134 51.635)"/>
    <use xlink:href="#reuse-6" transform="matrix(.004 0 0 -.004 55.02 12.374)"/>
    <rect width=".13" height="3.586" x="-.065" y="-3.272" fill="currentColor" ry=".04" transform="translate(56.26 11.874)"/>
    <use xlink:href="#reuse-6" transform="matrix(.004 0 0 -.004 57.972 11.874)"/>
    <use xlink:href="#reuse-6" transform="matrix(.004 0 0 -.004 57.972 23.374)"/>
    <use xlink:href="#reuse-6" transform="matrix(.004 0 0 -.004 57.972 30.634)"/>
    <use xlink:href="#reuse-6" transform="matrix(.004 0 0 -.004 57.972 50.135)"/>
    <rect width=".13" height="3.352" x="-.065" y="-3.538" fill="currentColor" ry=".04" transform="translate(59.212 11.874)"/>
    <rect width=".13" height="2.504" x="-.065" y="-.19" fill="currentColor" ry=".04" transform="translate(59.212 20.874)"/>
    <rect width=".13" height="3.124" x="-.065" y="-1.314" fill="currentColor" ry=".04" transform="translate(58.037 32.135)"/>
    <rect width=".13" height="3.124" x="-.065" y="-1.314" fill="currentColor" ry=".04" transform="translate(58.037 51.635)"/>
    <use xlink:href="#reuse-6" transform="matrix(.004 0 0 -.004 60.924 11.374)"/>
    <rect width=".13" height="3.118" x="-.065" y="-3.804" fill="currentColor" ry=".04" transform="translate(62.163 11.874)"/>
    <path fill="currentColor" stroke="currentColor" stroke-linecap="round" stroke-linejoin="round" stroke-width=".08" d="M77.56 8.829c2.433-1.65 16.017-1.28 18.358.5h0c-2.344-1.66-15.928-2.03-18.358-.5z"/>
    <use xlink:href="#reuse-6" transform="matrix(.004 0 0 -.004 63.894 10.874)"/>
    <use xlink:href="#reuse-6" transform="matrix(.004 0 0 -.004 63.894 24.374)"/>
    <use xlink:href="#reuse-6" transform="matrix(.004 0 0 -.004 63.894 30.634)"/>
    <use xlink:href="#reuse-6" transform="matrix(.004 0 0 -.004 63.894 50.135)"/>
    <rect width=".13" height="2.807" x="-.065" y="-.814" fill="currentColor" ry=".04" transform="translate(63.959 11.874)"/>
    <rect width=".13" height="3.504" x="-.065" y="-.19" fill="currentColor" ry=".04" transform="translate(65.133 20.874)"/>
    <rect width=".13" height="3.124" x="-.065" y="-1.314" fill="currentColor" ry=".04" transform="translate(63.959 32.135)"/>
    <rect width=".13" height="3.124" x="-.065" y="-1.314" fill="currentColor" ry=".04" transform="translate(63.959 51.635)"/>
    <path fill="currentColor" stroke="currentColor" stroke-linecap="round" stroke-linejoin="round" stroke-width=".08" d="M62.188 7.864v.4l-8.904.81v-.4zm0 .81v.4l-8.904.81v-.4z"/>
    <use xlink:href="#reuse-6" transform="matrix(.004 0 0 -.004 66.845 10.374)"/>
    <rect width=".13" height="2.978" x="-.065" y="-1.314" fill="currentColor" ry=".04" transform="translate(66.91 11.874)"/>
    <path fill="currentColor" stroke="currentColor" stroke-linecap="round" stroke-linejoin="round" stroke-width=".08" d="M47.644 53.244v.4H32.348v-.4z"/>
    <use xlink:href="#reuse-6" transform="matrix(.004 0 0 -.004 69.796 9.874)"/>
    <use xlink:href="#reuse-6" transform="matrix(.004 0 0 -.004 69.796 23.374)"/>
    <use xlink:href="#reuse-6" transform="matrix(.004 0 0 -.004 69.796 30.634)"/>
    <use xlink:href="#reuse-6" transform="matrix(.004 0 0 -.004 69.796 50.135)"/>
    <rect width=".13" height="3.15" x="-.065" y="-1.814" fill="currentColor" ry=".04" transform="translate(69.862 11.874)"/>
    <rect width=".13" height="2.504" x="-.065" y="-.19" fill="currentColor" ry=".04" transform="translate(71.036 20.874)"/>
    <rect width=".13" height="3.124" x="-.065" y="-1.314" fill="currentColor" ry=".04" transform="translate(69.862 32.135)"/>
    <rect width=".13" height="3.124" x="-.065" y="-1.314" fill="currentColor" ry=".04" transform="translate(69.862 51.635)"/>
    <path fill="currentColor" stroke="currentColor" stroke-linecap="round" stroke-linejoin="round" stroke-width=".08" d="M47.644 33.744v.4H32.348v-.4z"/>
    <use xlink:href="#reuse-6" transform="matrix(.004 0 0 -.004 72.748 9.374)"/>
    <rect width=".13" height="3.321" x="-.065" y="-2.314" fill="currentColor" ry=".04" transform="translate(72.813 11.874)"/>
    <path fill="currentColor" stroke="currentColor" stroke-linecap="round" stroke-linejoin="round" stroke-width=".08" d="M48.818 20.484v.4H33.522v-.4z"/>
    <path fill="currentColor" d="M78.115 9.614a.166.166 0 0 0-.168-.164c-.156 0-.816.44-.924.572a.168.168 0 0 0-.04.112c0 .092.076.164.168.164.156 0 .812-.44.92-.572a.172.172 0 0 0 .044-.112zm-.208-.284c.164 0 .328.056.328.284 0 .104-.064.448-.296.604-.1.068-.348.2-.748.2-.164 0-.332-.056-.332-.284 0-.104.064-.448.296-.604.1-.068.352-.2.752-.2z"/>
    <rect width=".16" height="43.861" y="-21.93" fill="currentColor" ry=".05" transform="translate(14.166 31.754)"/>
    <use xlink:href="#reuse-6" transform="matrix(.004 0 0 -.004 76.859 25.374)"/>
    <use xlink:href="#reuse-8" transform="matrix(.004 0 0 -.004 13.866 47.135)"/>
    <use xlink:href="#reuse-6" transform="matrix(.004 0 0 -.004 76.859 30.634)"/>
    <text fill="currentColor" font-family="serif" font-size="2.2" transform="translate(3.258 47.882)">
<tspan>Cembalo</tspan>
</text>
    <use xlink:href="#reuse-6" transform="matrix(.004 0 0 -.004 76.859 50.135)"/>
    <path fill="currentColor" d="M77.314 54.81c-.097 0-.101.088-.101.202s.004.2.101.2c.101 0 .121-.083.121-.2s-.02-.202-.12-.202zm-.101-.068a.198.198 0 0 1 .101-.027c.227 0 .39.09.39.297s-.163.295-.39.295c-.25 0-.387-.273-.387-.55 0-.284.17-.55.433-.55.165 0 .31.114.31.27a.128.128 0 0 1-.255 0c0-.046.077-.05.077-.096 0-.057-.068-.08-.132-.08-.134 0-.152.133-.152.284 0 .051.005.106.005.157zm-.029.963c.022 0 .09.033.159.033.07 0 .138-.033.167-.033.033 0 .057.024.057.046a.028.028 0 0 1-.009.022l-.58.64h.294v-.009c0-.132.11-.09.165-.187.016-.024.018-.052.031-.079a.04.04 0 0 1 .037-.022c.025 0 .053.018.053.055v.242h.154c.04 0 .06.031.06.06s-.02.059-.06.059h-.154c.005.099.08.18.176.18.031 0 .049.022.049.047s-.018.048-.049.048c-.107 0-.21-.03-.319-.03s-.213.03-.32.03c-.032 0-.047-.024-.047-.048s.015-.047.046-.047a.183.183 0 0 0 .178-.18h-.295c-.094 0-.125-.055-.125-.092 0-.011.002-.022.007-.027a.97.97 0 0 0 .27-.64c0-.037.025-.068.055-.068z"/>
    <rect width=".13" height="3.241" x="-.065" y="-1.741" fill="currentColor" ry=".04" transform="translate(76.924 11.874)"/>
    <rect width=".13" height="5.125" x="-.065" y="-.811" fill="currentColor" ry=".04" transform="translate(78.098 20.874)"/>
    <rect width=".13" height="3.124" x="-.065" y="-1.314" fill="currentColor" ry=".04" transform="translate(76.924 32.135)"/>
    <path fill="currentColor" d="M12.916 9.823v-.348c0-.056.044-.1.1-.1h.2c.636 0 1.084-.544 1.448-1.08.048-.068.152.004.104.072-.396.576-.86 1.456-1.552 1.456h-.3zm0 24.363h.3c.692 0 1.156.88 1.552 1.456.048.068-.056.14-.104.072-.364-.536-.812-1.08-1.448-1.08h-.2a.099.099 0 0 1-.1-.1v-.348z"/>
    <rect width=".45" height="24.451" y="-12.225" fill="currentColor" ry="0" transform="translate(12.916 22.004)"/>
    <rect width=".13" height="3.124" x="-.065" y="-1.314" fill="currentColor" ry=".04" transform="translate(76.924 51.635)"/>
    <path fill="currentColor" stroke="currentColor" stroke-linecap="round" stroke-linejoin="round" stroke-width=".08" d="M43.724 13.624c1.173.923 7.624.923 8.797 0h0c-1.173.803-7.624.803-8.797 0z"/>
    <use xlink:href="#reuse-6" transform="matrix(.004 0 0 -.004 81.54 23.874)"/>
    <use xlink:href="#reuse-6" transform="matrix(.004 0 0 -.004 81.54 30.634)"/>
    <use xlink:href="#reuse-6" transform="matrix(.004 0 0 -.004 81.54 50.135)"/>
    <rect width=".13" height="3.688" x="-.065" y="-.874" fill="currentColor" ry=".04" transform="translate(82.78 20.874)"/>
    <rect width=".13" height="3.124" x="-.065" y="-1.314" fill="currentColor" ry=".04" transform="translate(81.606 32.135)"/>
    <rect width=".13" height="3.124" x="-.065" y="-1.314" fill="currentColor" ry=".04" transform="translate(81.606 51.635)"/>
    <path fill="currentColor" stroke="currentColor" stroke-linecap="round" stroke-linejoin="round" stroke-width=".08" d="M41.185 8.864v.4l-7.663-.69v-.4zm0 .81v.4l-3.002-.275v-.4z"/>
    <use xlink:href="#reuse-6" transform="matrix(.004 0 0 -.004 86.223 22.874)"/>
    <use xlink:href="#reuse-6" transform="matrix(.004 0 0 -.004 86.223 30.634)"/>
    <use xlink:href="#reuse-6" transform="matrix(.004 0 0 -.004 86.223 50.135)"/>
    <rect width=".13" height="2.752" x="-.065" y="-.938" fill="currentColor" ry=".04" transform="translate(87.462 20.874)"/>
    <rect width=".13" height="3.124" x="-.065" y="-1.314" fill="currentColor" ry=".04" transform="translate(86.288 32.135)"/>
    <rect width=".13" height="3.124" x="-.065" y="-1.314" fill="currentColor" ry=".04" transform="translate(86.288 51.635)"/>
    <use xlink:href="#reuse-6" transform="matrix(.004 0 0 -.004 90.738 23.874)"/>
    <use xlink:href="#reuse-6" transform="matrix(.004 0 0 -.004 90.738 30.634)"/>
    <use xlink:href="#reuse-6" transform="matrix(.004 0 0 -.004 90.738 50.135)"/>
    <rect width=".13" height="3.813" x="-.065" y="-.999" fill="currentColor" ry=".04" transform="translate(91.978 20.874)"/>
    <rect width=".13" height="3.124" x="-.065" y="-1.314" fill="currentColor" ry=".04" transform="translate(90.803 32.135)"/>
    <rect width=".13" height="3.124" x="-.065" y="-1.314" fill="currentColor" ry=".04" transform="translate(90.803 51.635)"/>
    <use xlink:href="#reuse-6" transform="matrix(.004 0 0 -.004 95.254 10.374)"/>
    <path fill="currentColor" d="M94.718 7.8c0 .06.032.12.156.12.04 0 .184-.009.412-.113l.02-.096a.542.542 0 0 0-.324-.116c-.204 0-.264.124-.264.204zm1.084.491c0 .244-.188.46-.392.46-.156 0-.224-.176-.224-.364 0-.056.004-.112.016-.164l.06-.304c-.08.032-.252.1-.404.1-.076 0-.24-.024-.24-.204 0-.152.128-.32.384-.32a.61.61 0 0 1 .328.1l.184-.928c.024.012.052.02.08.02.088 0 .192-.064.272-.14l-.212 1.064.256-.144a.622.622 0 0 1 .296-.08c.116 0 .212.04.256.112a.373.373 0 0 1 .276-.12c.144 0 .276.088.276.276 0 .196-.124.36-.26.36-.1 0-.152-.088-.152-.192 0-.2.148-.256.24-.256h.012c-.032-.056-.092-.08-.152-.08-.096 0-.2.064-.22.172l-.216 1.08c-.044-.028-.096-.044-.152-.044s-.116.016-.172.044l.216-1.08v-.028c0-.064-.048-.104-.116-.104a.236.236 0 0 0-.096.028l-.316.176-.028.124c.108.124.2.268.2.436zm-.24.26c.092 0 .14-.136.14-.244 0-.12-.056-.22-.128-.312l-.02.108c-.016.072-.052.224-.052.332 0 .068.016.116.06.116z"/>
    <use xlink:href="#reuse-6" transform="matrix(.004 0 0 -.004 95.254 25.374)"/>
    <use xlink:href="#reuse-6" transform="matrix(.004 0 0 -.004 95.254 30.634)"/>
    <use xlink:href="#reuse-6" transform="matrix(.004 0 0 -.004 95.254 50.135)"/>
    <rect width=".13" height="3.314" x="-.065" y="-1.314" fill="currentColor" ry=".04" transform="translate(95.319 11.874)"/>
    <rect width=".13" height="5.125" x="-.065" y="-.811" fill="currentColor" ry=".04" transform="translate(96.493 20.874)"/>
    <rect width=".13" height="3.124" x="-.065" y="-1.314" fill="currentColor" ry=".04" transform="translate(95.319 32.135)"/>
    <rect width=".13" height="3.124" x="-.065" y="-1.314" fill="currentColor" ry=".04" transform="translate(95.319 51.635)"/>
    <use xlink:href="#reuse-6" transform="matrix(.004 0 0 -.004 99.936 23.874)"/>
    <use xlink:href="#reuse-6" transform="matrix(.004 0 0 -.004 99.936 30.634)"/>
    <use xlink:href="#reuse-6" transform="matrix(.004 0 0 -.004 99.936 50.135)"/>
    <rect width=".13" height="3.688" x="-.065" y="-.875" fill="currentColor" ry=".04" transform="translate(101.175 20.874)"/>
    <rect width=".13" height="3.124" x="-.065" y="-1.314" fill="currentColor" ry=".04" transform="translate(100 32.135)"/>
    <rect width=".13" height="3.124" x="-.065" y="-1.314" fill="currentColor" ry=".04" transform="translate(100 51.635)"/>
    <path fill="currentColor" d="M104.898 11.054c.316 0 .184.392.364.392.064 0 .216-.192.244-.252.024-.048.092-.048.112 0l-.492 1.68c-.032.028-.068.04-.108.04s-.08-.012-.112-.04l.468-1.304a1.272 1.272 0 0 1-.42.088c-.188 0-.348-.136-.348-.316a.29.29 0 0 1 .292-.288z"/>
    <use xlink:href="#reuse-6" transform="matrix(.004 0 0 -.004 104.618 22.874)"/>
    <use xlink:href="#reuse-6" transform="matrix(.004 0 0 -.004 104.618 30.634)"/>
    <use xlink:href="#reuse-6" transform="matrix(.004 0 0 -.004 104.618 50.135)"/>
    <rect width=".13" height="2.752" x="-.065" y="-.938" fill="currentColor" ry=".04" transform="translate(105.857 20.874)"/>
    <rect width=".13" height="3.124" x="-.065" y="-1.314" fill="currentColor" ry=".04" transform="translate(104.683 32.135)"/>
    <rect width=".13" height="3.124" x="-.065" y="-1.314" fill="currentColor" ry=".04" transform="translate(104.683 51.635)"/>
    <use xlink:href="#reuse-7" transform="matrix(.004 0 0 -.004 51.677 41.635)"/>
    <use xlink:href="#reuse-6" transform="matrix(.004 0 0 -.004 109.078 10.374)"/>
    <use xlink:href="#reuse-6" transform="matrix(.004 0 0 -.004 109.078 23.874)"/>
    <use xlink:href="#reuse-6" transform="matrix(.004 0 0 -.004 109.078 30.634)"/>
    <use xlink:href="#reuse-6" transform="matrix(.004 0 0 -.004 109.078 50.135)"/>
    <rect width=".13" height="3.314" x="-.065" y="-1.314" fill="currentColor" ry=".04" transform="translate(109.143 11.874)"/>
    <path fill="currentColor" d="M109.208 13.834h-.064v-1h.064v1zm0 0v-1c.388-.236.896-.592.896-1.036 0-.228-.06-.448-.16-.652-.012-.064.04-.108.092-.108.028 0 .06.012.08.044.1.224.16.468.16.716 0 .812-1.068 1.224-1.068 2.036z"/>
    <rect width=".13" height="3.813" x="-.065" y="-.999" fill="currentColor" ry=".04" transform="translate(110.317 20.874)"/>
    <rect width=".13" height="3.124" x="-.065" y="-1.314" fill="currentColor" ry=".04" transform="translate(109.143 32.135)"/>
    <rect width=".13" height="3.124" x="-.065" y="-1.314" fill="currentColor" ry=".04" transform="translate(109.143 51.635)"/>
    <text fill="currentColor" font-family="serif" font-size="2.2" transform="translate(4.607 32.848)">
<tspan>Basso</tspan>
</text>
    <use xlink:href="#reuse-8" transform="matrix(.004 0 0 -.004 12.616 16.374)"/>
    <text fill="currentColor" font-family="serif" font-size="2.2" transform="translate(2.934 21.62)">
<tspan>Violino II</tspan>
</text>
    <text fill="currentColor" font-family="serif" font-size="2.2" transform="translate(3.31 12.62)">
<tspan>Violino I</tspan>
</text>
</svg>
