<svg xmlns="http://www.w3.org/2000/svg" xmlns:xlink="http://www.w3.org/1999/xlink" width="412.913" height="50.02mm" version="1.2" viewBox="0 0 62.169 28.464">
    <defs>
        <path id="reuse-0" fill="currentColor" d="M218 136c66 0 108-36 108-89 0-89-113-183-218-183C42-136 0-100 0-47c0 89 113 183 218 183z"/>
        <path id="reuse-1" fill="currentColor" d="M0 119c0 8 5 15 13 18l46 17v158c0 10 8 19 18 19s19-9 19-19V167l83 31v158c0 10 9 19 19 19s18-9 18-19V211l32 12c2 1 5 1 7 1 11 0 20-9 20-20v-60c0-8-5-16-13-19l-46-16V-51l32 11c2 1 5 1 7 1 11 0 20-9 20-20v-60c0-8-5-15-13-18l-46-17v-158c0-10-8-19-18-19s-19 9-19 19v145l-83-31v-158c0-10-9-19-19-19s-18 9-18 19v145l-32-12c-2-1-5-1-7-1-11 0-20 9-20 20v60c0 8 5 16 13 19l46 16V51L27 40c-2-1-5-1-7-1C9 39 0 48 0 59v60zm179-24L96 65V-95l83 30V95z"/>
        <path id="reuse-2" fill="currentColor" d="M263 265c0-33 70-23 70-125C333 48 254 0 154 0 75 0 0 42 0 113c0 36 30 66 66 66s65-30 65-66c0-25-40-28-40-53 0-27 32-37 63-37 49 0 63 61 63 117v16c0 54-2 94-50 94H87c-10 0-14 8-14 15s4 14 14 14h80c49 0 50 43 50 99v8c0 54-18 91-67 91-28 0-57-9-57-33 0-22 35-25 35-47 0-32-25-58-57-58s-58 26-58 58c0 64 67 103 137 103 91 0 169-33 169-114 0-122-56-80-56-121z"/>
        <path id="reuse-3" fill="currentColor" d="M196 117h117c0-48 27-94 72-94 8 0 12-5 12-11s-4-12-12-12c-44 0-87 13-131 13S167 0 123 0c-8 0-12 6-12 12s4 11 12 11c45 0 73 46 73 94zM-2 148c0 12 140 143 140 336 0 10 7 19 16 16 23-7 47-13 71-13s48 6 71 13c14 4 23-9 17-16L29 154h167v131c0 34 34 27 68 72 22 30 23 56 36 56 6 0 13-5 13-14V154h72c10 0 15-7 15-14s-5-15-15-15h-72v-8H196v8H29c-23 0-31 14-31 23z"/>
        <path id="reuse-4" fill="currentColor" d="M0 0c0 31 25 56 56 56s56-25 56-56-25-56-56-56S0-31 0 0z"/>
        <path id="reuse-5" fill="currentColor" d="M314 65c0 23-19 41-42 41C233 106 68-4 41-37c-7-8-10-18-10-28 0-23 19-41 42-41 39 0 203 110 230 143 7 8 11 18 11 28zm-52 71c41 0 82-14 82-71 0-26-16-112-74-151-25-17-87-50-187-50-41 0-83 14-83 71C0-39 16 47 74 86c25 17 88 50 188 50z"/>
    </defs>
    <style>
        tspan{white-space:pre}
    </style>
    <path stroke="currentColor" stroke-linecap="round" stroke-linejoin="round" stroke-width=".1" d="M5.74 12.924h49.517m-49.517-1h49.517m-49.517-1h49.517m-49.517-1h49.517m-49.517-1h49.517"/>
    <rect width=".19" height="4.95" y="9.128" fill="currentColor" ry="0" transform="translate(55.116 3.845)"/>
    <rect width="2.066" height=".2" x="29.195" y="-.1" fill="currentColor" ry=".1" transform="translate(5.69 22.924)"/>
    <path stroke="currentColor" stroke-linecap="round" stroke-linejoin="round" stroke-width=".1" d="M5.74 21.924h49.517m-49.517-1h49.517m-49.517-1h49.517m-49.517-1h49.517m-49.517-1h49.517"/>
    <rect width=".19" height="4.05" y="-2.05" fill="currentColor" ry="0" transform="translate(55.116 19.924)"/>
    <rect width=".19" height="4.05" y="-2" fill="currentColor" ry="0" transform="translate(55.116 10.924)"/>
    <rect width=".19" height="4.95" y="9.128" fill="currentColor" ry="0" transform="translate(34.14 3.845)"/>
    <rect width=".19" height="4.05" y="-2.05" fill="currentColor" ry="0" transform="translate(34.14 19.924)"/>
    <rect width=".19" height="4.05" y="-2" fill="currentColor" ry="0" transform="translate(34.14 10.924)"/>
    <text fill="currentColor" class="scale-degree" font-family="serif" font-size="2.2" transform="translate(35.23 26.017)">
<tspan>➀</tspan>
</text>
    <path fill="currentColor" stroke="currentColor" stroke-linecap="round" stroke-linejoin="round" stroke-width=".08" d="M32.663 9.723v.4l-2.554.19v-.4zm0 .811v.4l-2.554.19v-.4z"/>
    <use xlink:href="#reuse-0" transform="matrix(.004 0 0 -.004 16.945 13.424)"/>
    <text fill="currentColor" class="scale-degree" font-family="serif" font-size="2.2" transform="translate(16.945 8.136)">
<tspan>➊</tspan>
</text>
    <path fill="currentColor" d="M7.555 14.463H7.53a.783.783 0 0 1-.78-.787c0-.233.212-.413.448-.413.216 0 .38.188.38.412 0 .208-.172.38-.38.38a.326.326 0 0 1-.124-.023c.104.156.272.26.468.26h.016zm.78-1.727a.69.69 0 0 0 .452-.657.764.764 0 0 0-.692-.76c.076.356.192.968.24 1.416zm-1.548-.925c0 .58.564.989 1.056.989.004 0 .188 0 .328-.025a17.343 17.343 0 0 0-.252-1.455c-.316.032-.496.244-.496.476 0 .176.1.364.324.492.02.02.028.04.028.06 0 .044-.04.088-.088.088-.06 0-.504-.248-.504-.748 0-.352.232-.696.64-.788a15.048 15.048 0 0 0-.184-.7c-.428.484-.852.972-.852 1.612zm.704-2.1c-.116-.383-.208-.68-.208-1.383 0-.46.22-.896.596-1.168a.06.06 0 0 1 .08 0c.272.32.532.98.532 1.432 0 .571-.344 1.02-.72 1.455.084.272.156.552.224.828.008 0 .028-.004.052-.004.62 0 1.024.512 1.024 1.044 0 .453-.296.849-.72.985.012.14.02.28.02.42 0 .075-.004.155-.008.231-.028.476-.352.9-.808.912l.004-.171c.372-.009.612-.369.636-.765a3.775 3.775 0 0 0-.008-.588c-.02.004-.176.032-.356.032-.772 0-1.332-.72-1.332-1.496 0-.708.524-1.224.992-1.764zm.712-1.451c0-.136.004-.264-.08-.516a1.153 1.153 0 0 0-.648 1.036c0 .208.048.46.144.776.32-.388.584-.792.584-1.296z"/>
    <use xlink:href="#reuse-1" transform="matrix(.004 0 0 -.004 9.99 8.924)"/>
    <use xlink:href="#reuse-1" transform="matrix(.004 0 0 -.004 11.09 10.424)"/>
    <use xlink:href="#reuse-2" transform="matrix(.004 0 0 -.004 13.477 10.924)"/>
    <use xlink:href="#reuse-3" transform="matrix(.004 0 0 -.004 13.34 12.94)"/>
    <use xlink:href="#reuse-0" transform="matrix(.004 0 0 -.004 16.945 19.924)"/>
    <text fill="currentColor" class="scale-degree" font-family="serif" font-size="2.2" transform="translate(16.945 25.305)">
<tspan>➀</tspan>
</text>
    <path fill="currentColor" d="M8.719 19.424c0-.112.092-.204.204-.204s.204.092.204.204-.092.204-.204.204-.204-.092-.204-.204zm0-1c0-.112.092-.204.204-.204s.204.092.204.204-.092.204-.204.204-.204-.092-.204-.204zm-1.3-.552c.688 0 1.172.352 1.172 1.004 0 1.052-1.052 1.656-2.064 2.084a.049.049 0 0 1-.036.016.053.053 0 0 1-.052-.052c0-.012.004-.024.016-.036.808-.473 1.648-1.06 1.648-1.973 0-.48-.252-.94-.684-.94-.296 0-.516.216-.616.504a.323.323 0 0 1 .136-.032c.22 0 .4.18.4.4 0 .232-.176.424-.4.424-.24 0-.448-.188-.448-.424 0-.532.408-.976.928-.976z"/>
    <use xlink:href="#reuse-1" transform="matrix(.004 0 0 -.004 9.99 18.924)"/>
    <use xlink:href="#reuse-1" transform="matrix(.004 0 0 -.004 11.09 20.424)"/>
    <use xlink:href="#reuse-2" transform="matrix(.004 0 0 -.004 13.477 19.924)"/>
    <use xlink:href="#reuse-3" transform="matrix(.004 0 0 -.004 13.34 21.94)"/>
    <rect width=".13" height="3.314" x="-.065" y="-1" fill="currentColor" ry=".04" transform="translate(18.184 10.924)"/>
    <rect width=".13" height="3.147" x="-.065" y=".186" fill="currentColor" ry=".04" transform="translate(17.01 19.924)"/>
    <use xlink:href="#reuse-0" transform="matrix(.004 0 0 -.004 21.84 12.924)"/>
    <text fill="currentColor" class="scale-degree" font-family="serif" font-size="2.2" transform="translate(21.84 5.726)">
<tspan>➋</tspan>
</text>
    <path fill="currentColor" d="M21.305 7.715c0 .06.032.12.156.12.04 0 .184-.008.412-.112l.02-.096a.542.542 0 0 0-.325-.116c-.204 0-.264.124-.264.204zm1.084.492c0 .244-.188.46-.392.46-.156 0-.224-.175-.224-.363a.74.74 0 0 1 .016-.165l.06-.303c-.08.031-.253.1-.405.1-.076 0-.24-.025-.24-.205 0-.152.128-.32.384-.32a.61.61 0 0 1 .328.1l.184-.928c.024.012.052.02.08.02.088 0 .192-.064.272-.14l-.212 1.064.256-.144a.622.622 0 0 1 .296-.08c.116 0 .212.04.256.112a.373.373 0 0 1 .276-.12c.144 0 .276.088.276.276 0 .196-.124.36-.26.36-.1 0-.152-.088-.152-.192 0-.2.148-.256.24-.256h.012c-.032-.056-.092-.08-.152-.08-.096 0-.2.064-.22.172l-.216 1.08c-.044-.028-.096-.044-.152-.044s-.116.016-.172.044l.216-1.08v-.028c0-.064-.048-.104-.116-.104a.236.236 0 0 0-.096.028l-.316.176-.028.124c.108.124.2.268.2.436zm-.24.26c.091 0 .14-.136.14-.244 0-.12-.057-.22-.129-.312l-.02.108c-.016.072-.052.224-.052.332 0 .068.016.116.06.116z"/>
    <use xlink:href="#reuse-0" transform="matrix(.004 0 0 -.004 21.84 20.424)"/>
    <text fill="currentColor" class="scale-degree" font-family="serif" font-size="2.2" transform="translate(21.84 24.022)">
<tspan>➆</tspan>
</text>
    <use xlink:href="#reuse-4" transform="matrix(.004 0 0 -.004 23.595 12.424)"/>
    <rect width=".13" height="3.314" x="-.065" y="-1.5" fill="currentColor" ry=".04" transform="translate(23.08 10.924)"/>
    <rect width=".13" height="3.314" x="-.065" y="-3" fill="currentColor" ry=".04" transform="translate(23.08 19.924)"/>
    <use xlink:href="#reuse-0" transform="matrix(.004 0 0 -.004 26.495 21.424)"/>
    <rect width=".13" height="3.314" x="-.065" y="-2" fill="currentColor" ry=".04" transform="translate(27.734 19.924)"/>
    <use xlink:href="#reuse-0" transform="matrix(.004 0 0 -.004 28.895 13.424)"/>
    <rect width=".13" height="3.129" x="-.065" y="-.815" fill="currentColor" ry=".04" transform="translate(30.134 10.924)"/>
    <use xlink:href="#reuse-0" transform="matrix(.004 0 0 -.004 31.399 12.924)"/>
    <rect width=".13" height="2.809" x="-.065" y="-.995" fill="currentColor" ry=".04" transform="translate(32.638 10.924)"/>
    <use xlink:href="#reuse-0" transform="matrix(.004 0 0 -.004 35.23 12.424)"/>
    <use xlink:href="#reuse-0" transform="matrix(.004 0 0 -.004 35.23 13.424)"/>
    <text fill="currentColor" class="scale-degree" font-family="serif" font-size="2.2" transform="translate(35.23 8.136)">
<tspan>➌</tspan>
</text>
    <use xlink:href="#reuse-5" transform="matrix(.004 0 0 -.004 35.23 19.924)"/>
    <use xlink:href="#reuse-5" transform="matrix(.004 0 0 -.004 35.23 23.424)"/>
    <path fill="currentColor" stroke="currentColor" stroke-linecap="round" stroke-linejoin="round" stroke-width=".08" d="M52.51 7.533v.4l-11.162 1v-.4z"/>
    <rect width=".16" height="13.1" y="-6.55" fill="currentColor" ry=".05" transform="translate(5.63 15.424)"/>
    <rect width=".13" height="4.314" x="-.065" y="-2" fill="currentColor" ry=".04" transform="translate(36.469 10.924)"/>
    <use xlink:href="#reuse-4" transform="matrix(.004 0 0 -.004 37.057 19.424)"/>
    <rect width=".13" height="6.574" x="-.065" y="-3.333" fill="currentColor" ry=".04" transform="translate(36.542 19.924)"/>
    <use xlink:href="#reuse-4" transform="matrix(.004 0 0 -.004 37.057 23.424)"/>
    <path fill="currentColor" d="M5.007 16.887c0-1.02-.528-1.452-.528-1.464 0-.072.528-.384.528-1.464 0-1.044-.432-1.956-.432-3.12 0-.756.18-1.464.708-2.004.06-.06.156.036.096.096-.396.396-.516.9-.516 1.44 0 1.02.408 1.92.408 3.06 0 .744-.18 1.452-.696 1.992.516.54.696 1.248.696 1.992 0 1.14-.408 2.04-.408 3.06 0 .54.12 1.044.516 1.44.06.06-.036.156-.096.096-.528-.54-.708-1.248-.708-2.004 0-1.164.432-2.076.432-3.12z"/>
    <use xlink:href="#reuse-0" transform="matrix(.004 0 0 -.004 40.134 11.924)"/>
    <use xlink:href="#reuse-0" transform="matrix(.004 0 0 -.004 40.134 12.924)"/>
    <rect width=".13" height="4.01" x="-.065" y="-2.196" fill="currentColor" ry=".04" transform="translate(41.373 10.924)"/>
    <use xlink:href="#reuse-0" transform="matrix(.004 0 0 -.004 43.838 11.424)"/>
    <use xlink:href="#reuse-0" transform="matrix(.004 0 0 -.004 43.838 12.424)"/>
    <rect width=".13" height="3.839" x="-.065" y="-2.525" fill="currentColor" ry=".04" transform="translate(45.077 10.924)"/>
    <use xlink:href="#reuse-0" transform="matrix(.004 0 0 -.004 47.542 10.924)"/>
    <use xlink:href="#reuse-0" transform="matrix(.004 0 0 -.004 47.542 11.924)"/>
    <rect width=".13" height="3.669" x="-.065" y="-2.855" fill="currentColor" ry=".04" transform="translate(48.782 10.924)"/>
    <use xlink:href="#reuse-0" transform="matrix(.004 0 0 -.004 51.247 10.424)"/>
    <use xlink:href="#reuse-0" transform="matrix(.004 0 0 -.004 51.247 11.424)"/>
    <rect width=".13" height="3.498" x="-.065" y="-3.184" fill="currentColor" ry=".04" transform="translate(52.486 10.924)"/>
</svg>
