<svg xmlns="http://www.w3.org/2000/svg" width="680.315" height="60mm" class="d-block mx-auto" version="1.2" viewBox="0 0 102.43 34.143">
    <text fill="currentColor" font-family="serif" font-size="2.47" font-weight="bold" transform="translate(5.69 5.519)">
<tspan style="white-space:pre">Allegro di molto</tspan>
</text>
    <rect width="1.351" height=".2" x="51.792" y="-.1" fill="currentColor" ry=".1" transform="translate(5.69 11.244)"/>
    <rect width="1.956" height=".2" x="45.466" y="-.1" fill="currentColor" ry=".1" transform="translate(5.69 11.244)"/>
    <rect width="1.956" height=".2" x="41.068" y="-.1" fill="currentColor" ry=".1" transform="translate(5.69 11.244)"/>
    <rect width="1.956" height=".2" x="36.669" y="-.1" fill="currentColor" ry=".1" transform="translate(5.69 11.244)"/>
    <rect width="1.956" height=".2" x="33.218" y="-.1" fill="currentColor" ry=".1" transform="translate(5.69 11.244)"/>
    <rect width="1.956" height=".2" x="30.883" y="-.1" fill="currentColor" ry=".1" transform="translate(5.69 10.244)"/>
    <rect width="1.956" height=".2" x="30.883" y="-.1" fill="currentColor" ry=".1" transform="translate(5.69 11.244)"/>
    <rect width="1.81" height=".2" x="27.662" y="-.1" fill="currentColor" ry=".1" transform="translate(5.69 10.244)"/>
    <rect width="1.81" height=".2" x="27.662" y="-.1" fill="currentColor" ry=".1" transform="translate(5.69 11.244)"/>
    <rect width="1.277" height=".2" x="26.285" y="-.1" fill="currentColor" ry=".1" transform="translate(5.69 9.244)"/>
    <rect width="1.277" height=".2" x="26.285" y="-.1" fill="currentColor" ry=".1" transform="translate(5.69 10.244)"/>
    <rect width="1.277" height=".2" x="26.285" y="-.1" fill="currentColor" ry=".1" transform="translate(5.69 11.244)"/>
    <rect width="1.277" height=".2" x="24.908" y="-.1" fill="currentColor" ry=".1" transform="translate(5.69 10.244)"/>
    <rect width="1.277" height=".2" x="24.908" y="-.1" fill="currentColor" ry=".1" transform="translate(5.69 11.244)"/>
    <rect width="1.327" height=".2" x="23.482" y="-.1" fill="currentColor" ry=".1" transform="translate(5.69 10.244)"/>
    <rect width="1.327" height=".2" x="23.482" y="-.1" fill="currentColor" ry=".1" transform="translate(5.69 11.244)"/>
    <rect width="1.956" height=".2" x="19.821" y="-.1" fill="currentColor" ry=".1" transform="translate(5.69 10.244)"/>
    <rect width="1.956" height=".2" x="19.821" y="-.1" fill="currentColor" ry=".1" transform="translate(5.69 11.244)"/>
    <rect width="1.956" height=".2" x="15.422" y="-.1" fill="currentColor" ry=".1" transform="translate(5.69 10.244)"/>
    <rect width="1.956" height=".2" x="15.422" y="-.1" fill="currentColor" ry=".1" transform="translate(5.69 11.244)"/>
    <rect width="1.956" height=".2" x="11.024" y="-.1" fill="currentColor" ry=".1" transform="translate(5.69 10.244)"/>
    <rect width="1.956" height=".2" x="11.024" y="-.1" fill="currentColor" ry=".1" transform="translate(5.69 11.244)"/>
    <path stroke="currentColor" stroke-linecap="round" stroke-linejoin="round" stroke-width=".1" d="M5.74 16.244h90.95m-90.95-1h90.95m-90.95-1h90.95m-90.95-1h90.95m-90.95-1h90.95"/>
    <rect width=".19" height="4.95" y="9.742" fill="currentColor" ry="0" transform="translate(96.55 6.552)"/>
    <rect width="1.956" height=".2" x="45.466" y="-.1" fill="currentColor" ry=".1" transform="translate(5.69 20.244)"/>
    <rect width="1.956" height=".2" x="41.068" y="-.1" fill="currentColor" ry=".1" transform="translate(5.69 20.244)"/>
    <rect width="1.956" height=".2" x="36.669" y="-.1" fill="currentColor" ry=".1" transform="translate(5.69 20.244)"/>
    <rect width="1.956" height=".2" x="19.821" y="-.1" fill="currentColor" ry=".1" transform="translate(5.69 20.244)"/>
    <rect width="1.956" height=".2" x="15.422" y="-.1" fill="currentColor" ry=".1" transform="translate(5.69 20.244)"/>
    <rect width="1.956" height=".2" x="11.024" y="-.1" fill="currentColor" ry=".1" transform="translate(5.69 20.244)"/>
    <path stroke="currentColor" stroke-linecap="round" stroke-linejoin="round" stroke-width=".1" d="M5.74 25.244h90.95m-90.95-1h90.95m-90.95-1h90.95m-90.95-1h90.95m-90.95-1h90.95"/>
    <rect width=".19" height="4.05" y="-2.05" fill="currentColor" ry="0" transform="translate(96.55 23.244)"/>
    <rect width=".19" height="4.05" y="-2" fill="currentColor" ry="0" transform="translate(96.55 14.244)"/>
    <rect width=".19" height="4.95" y="9.742" fill="currentColor" ry="0" transform="translate(66.85 6.552)"/>
    <rect width=".19" height="4.05" y="-2.05" fill="currentColor" ry="0" transform="translate(66.85 23.244)"/>
    <rect width=".19" height="4.05" y="-2" fill="currentColor" ry="0" transform="translate(66.85 14.244)"/>
    <rect width=".19" height="4.95" y="9.742" fill="currentColor" ry="0" transform="translate(41.428 6.552)"/>
    <rect width=".19" height="4.05" y="-2.05" fill="currentColor" ry="0" transform="translate(41.428 23.244)"/>
    <rect width=".19" height="4.05" y="-2" fill="currentColor" ry="0" transform="translate(41.428 14.244)"/>
    <path fill="currentColor" d="M17.913 9.2c.264 0 .432.144.432.356 0 .356-.452.732-.872.732-.264 0-.432-.144-.432-.356 0-.356.452-.732.872-.732zm0 1.5c.264 0 .432.144.432.356 0 .356-.452.732-.872.732-.264 0-.432-.144-.432-.356 0-.356.452-.732.872-.732z"/>
    <path fill="currentColor" d="M17.913 11.7c.264 0 .432.144.432.356 0 .356-.452.732-.872.732-.264 0-.432-.144-.432-.356 0-.356.452-.732.872-.732z"/>
    <path fill="currentColor" d="M17.913 12.7c.264 0 .432.144.432.356 0 .356-.452.732-.872.732-.264 0-.432-.144-.432-.356 0-.356.452-.732.872-.732zM7.555 17.784H7.53a.783.783 0 0 1-.78-.788c0-.232.212-.412.448-.412.216 0 .38.188.38.412 0 .208-.172.38-.38.38a.326.326 0 0 1-.124-.024c.104.156.272.26.468.26h.016zm.78-1.728a.69.69 0 0 0 .452-.656.764.764 0 0 0-.692-.76c.076.356.192.968.24 1.416zm-1.548-.924c0 .58.564.988 1.056.988.004 0 .188 0 .328-.024a17.343 17.343 0 0 0-.252-1.456c-.316.032-.496.244-.496.476 0 .176.1.364.324.492.02.02.028.04.028.06 0 .044-.04.088-.088.088-.06 0-.504-.248-.504-.748 0-.352.232-.696.64-.788a15.048 15.048 0 0 0-.184-.7c-.428.484-.852.972-.852 1.612zm.704-2.1c-.116-.384-.208-.68-.208-1.384 0-.46.22-.896.596-1.168a.06.06 0 0 1 .08 0c.272.32.532.98.532 1.432 0 .572-.344 1.02-.72 1.456.084.272.156.552.224.828.008 0 .028-.004.052-.004.62 0 1.024.512 1.024 1.044 0 .452-.296.848-.72.984.012.14.02.28.02.42 0 .076-.004.156-.008.232-.028.476-.352.9-.808.912l.004-.172c.372-.008.612-.368.636-.764a3.775 3.775 0 0 0-.008-.588c-.02.004-.176.032-.356.032-.772 0-1.332-.72-1.332-1.496 0-.708.524-1.224.992-1.764zm.712-1.452c0-.136.004-.264-.08-.516a1.153 1.153 0 0 0-.648 1.036c0 .208.048.46.144.776.32-.388.584-.792.584-1.296zm1.787.188c0-.032.02-.06.053-.072l.184-.068v-.632c0-.04.032-.076.072-.076s.076.036.076.076v.58l.332-.124v-.632c0-.04.036-.076.076-.076s.072.036.072.076v.58l.128-.048c.008-.004.02-.004.028-.004a.08.08 0 0 1 .08.08v.24c0 .032-.02.064-.052.076l-.184.064v.64l.128-.044c.008-.004.02-.004.028-.004a.08.08 0 0 1 .08.08v.24c0 .032-.02.06-.052.072l-.184.068v.632c0 .04-.032.076-.072.076s-.076-.036-.076-.076v-.58l-.332.124v.632c0 .04-.036.076-.076.076s-.072-.036-.072-.076v-.58l-.128.048c-.008.004-.02.004-.028.004a.08.08 0 0 1-.08-.08v-.24c0-.032.02-.064.052-.076l.184-.064v-.64l-.128.044c-.008.004-.02.004-.028.004a.08.08 0 0 1-.08-.08v-.24zm.717.096-.332.12v.64l.332-.12v-.64zm.383 1.404c0-.032.02-.06.053-.072l.184-.068v-.632c0-.04.032-.076.072-.076s.076.036.076.076v.58l.332-.124v-.632c0-.04.036-.076.076-.076s.072.036.072.076v.58l.128-.048c.008-.004.02-.004.028-.004a.08.08 0 0 1 .08.08v.24c0 .032-.02.064-.052.076l-.184.064v.64l.128-.044c.008-.004.02-.004.028-.004a.08.08 0 0 1 .08.08v.24c0 .032-.02.06-.052.072l-.184.068v.632c0 .04-.032.076-.072.076s-.076-.036-.076-.076v-.58l-.332.124v.632c0 .04-.036.076-.076.076s-.072-.036-.072-.076v-.58l-.128.048c-.008.004-.02.004-.028.004a.08.08 0 0 1-.08-.08v-.24c0-.032.02-.064.052-.076l.184-.064v-.64l-.128.044c-.008.004-.02.004-.028.004a.08.08 0 0 1-.08-.08v-.24zm.717.096-.332.12v.64l.332-.12v-.64zm2.533-.168c.465 0 .705.424.705.652 0 .16-.12.288-.268.288-.124 0-.3-.1-.3-.3 0-.152.108-.308.288-.308.016 0 .036 0 .056.004a.599.599 0 0 0-.48-.236c-.424 0-.452.292-.452.744v.408c0 .452.028.748.452.748.32 0 .556-.28.632-.604.008-.028.028-.04.048-.04.024 0 .052.016.052.048 0 .088-.2.696-.732.696-.236 0-1-.076-1-1.052 0-.248.072-1.048 1-1.048zm3.573 6.004c.264 0 .432.144.432.356 0 .356-.452.732-.872.732-.264 0-.432-.144-.432-.356 0-.356.452-.732.872-.732zm0 1.5c.264 0 .432.144.432.356 0 .356-.452.732-.872.732-.264 0-.432-.144-.432-.356 0-.356.452-.732.872-.732z"/>
    <path fill="currentColor" d="M17.913 21.7c.264 0 .432.144.432.356 0 .356-.452.732-.872.732-.264 0-.432-.144-.432-.356 0-.356.452-.732.872-.732z"/>
    <path fill="currentColor" d="M17.913 22.7c.264 0 .432.144.432.356 0 .356-.452.732-.872.732-.264 0-.432-.144-.432-.356 0-.356.452-.732.872-.732zm-9.194.044c0-.112.092-.204.204-.204s.204.092.204.204-.092.204-.204.204-.204-.092-.204-.204zm0-1c0-.112.092-.204.204-.204s.204.092.204.204-.092.204-.204.204-.204-.092-.204-.204zm-1.3-.552c.688 0 1.172.352 1.172 1.004 0 1.052-1.052 1.656-2.064 2.084a.049.049 0 0 1-.036.016.053.053 0 0 1-.052-.052c0-.012.004-.024.016-.036.808-.472 1.648-1.06 1.648-1.972 0-.48-.252-.94-.684-.94-.296 0-.516.216-.616.504a.323.323 0 0 1 .136-.032c.22 0 .4.18.4.4 0 .232-.176.424-.4.424-.24 0-.448-.188-.448-.424 0-.532.408-.976.928-.976zm2.571.576c0-.032.02-.06.053-.072l.184-.068v-.632c0-.04.032-.076.072-.076s.076.036.076.076v.58l.332-.124v-.632c0-.04.036-.076.076-.076s.072.036.072.076v.58l.128-.048c.008-.004.02-.004.028-.004a.08.08 0 0 1 .08.08v.24c0 .032-.02.064-.052.076l-.184.064v.64l.128-.044c.008-.004.02-.004.028-.004a.08.08 0 0 1 .08.08v.24c0 .032-.02.06-.052.072l-.184.068v.632c0 .04-.032.076-.072.076s-.076-.036-.076-.076v-.58l-.332.124v.632c0 .04-.036.076-.076.076s-.072-.036-.072-.076v-.58l-.128.048c-.008.004-.02.004-.028.004a.08.08 0 0 1-.08-.08v-.24c0-.032.02-.064.052-.076l.184-.064v-.64l-.128.044c-.008.004-.02.004-.028.004a.08.08 0 0 1-.08-.08v-.24zm.717.096-.332.12v.64l.332-.12v-.64zm.383 1.404c0-.032.02-.06.053-.072l.184-.068v-.632c0-.04.032-.076.072-.076s.076.036.076.076v.58l.332-.124v-.632c0-.04.036-.076.076-.076s.072.036.072.076v.58l.128-.048c.008-.004.02-.004.028-.004a.08.08 0 0 1 .08.08v.24c0 .032-.02.064-.052.076l-.184.064v.64l.128-.044c.008-.004.02-.004.028-.004a.08.08 0 0 1 .08.08v.24c0 .032-.02.06-.052.072l-.184.068v.632c0 .04-.032.076-.072.076s-.076-.036-.076-.076v-.58l-.332.124v.632c0 .04-.036.076-.076.076s-.072-.036-.072-.076v-.58l-.128.048c-.008.004-.02.004-.028.004a.08.08 0 0 1-.08-.08v-.24c0-.032.02-.064.052-.076l.184-.064v-.64l-.128.044c-.008.004-.02.004-.028.004a.08.08 0 0 1-.08-.08v-.24zm.717.096-.332.12v.64l.332-.12v-.64zm2.533-1.168c.465 0 .705.424.705.652 0 .16-.12.288-.268.288-.124 0-.3-.1-.3-.3 0-.152.108-.308.288-.308.016 0 .036 0 .056.004a.599.599 0 0 0-.48-.236c-.424 0-.452.292-.452.744v.408c0 .452.028.748.452.748.32 0 .556-.28.632-.604.008-.028.028-.04.048-.04.024 0 .052.016.052.048 0 .088-.2.696-.732.696-.236 0-1-.076-1-1.052 0-.248.072-1.048 1-1.048z"/>
    <rect width=".13" height="6.814" x="-.065" y="-4.314" fill="currentColor" ry=".04" transform="translate(17.106 14.244)"/>
    <rect width=".13" height="6.647" x="-.065" y="-3.314" fill="currentColor" ry=".04" transform="translate(17.106 23.244)"/>
    <path fill="currentColor" stroke="currentColor" stroke-linecap="round" stroke-linejoin="round" stroke-width=".08" d="M88.237 14.924v.4l-1.87.14v-.4zm0 .81v.4l-1.87.14v-.4zm0 .81v.4l-6.868.5v-.4z"/>
    <path fill="currentColor" d="M22.311 9.2c.264 0 .432.144.432.356 0 .356-.452.732-.872.732-.264 0-.432-.144-.432-.356 0-.356.452-.732.872-.732zm0 1.5c.264 0 .432.144.432.356 0 .356-.452.732-.872.732-.264 0-.432-.144-.432-.356 0-.356.452-.732.872-.732z"/>
    <path fill="currentColor" d="M22.311 11.7c.264 0 .432.144.432.356 0 .356-.452.732-.872.732-.264 0-.432-.144-.432-.356 0-.356.452-.732.872-.732z"/>
    <path fill="currentColor" d="M22.311 12.7c.264 0 .432.144.432.356 0 .356-.452.732-.872.732-.264 0-.432-.144-.432-.356 0-.356.452-.732.872-.732zm0 6.5c.264 0 .432.144.432.356 0 .356-.452.732-.872.732-.264 0-.432-.144-.432-.356 0-.356.452-.732.872-.732zm0 1.5c.264 0 .432.144.432.356 0 .356-.452.732-.872.732-.264 0-.432-.144-.432-.356 0-.356.452-.732.872-.732z"/>
    <path fill="currentColor" d="M22.311 21.7c.264 0 .432.144.432.356 0 .356-.452.732-.872.732-.264 0-.432-.144-.432-.356 0-.356.452-.732.872-.732z"/>
    <path fill="currentColor" d="M22.311 22.7c.264 0 .432.144.432.356 0 .356-.452.732-.872.732-.264 0-.432-.144-.432-.356 0-.356.452-.732.872-.732z"/>
    <rect width=".13" height="6.814" x="-.065" y="-4.314" fill="currentColor" ry=".04" transform="translate(21.504 14.244)"/>
    <rect width=".13" height="6.647" x="-.065" y="-3.314" fill="currentColor" ry=".04" transform="translate(21.504 23.244)"/>
    <path fill="currentColor" stroke="currentColor" stroke-linecap="round" stroke-linejoin="round" stroke-width=".08" d="M78.204 25.044v.4l-10.124.81v-.4z"/>
    <path fill="currentColor" d="M26.71 9.2c.264 0 .432.144.432.356 0 .356-.452.732-.872.732-.264 0-.432-.144-.432-.356 0-.356.452-.732.872-.732zm0 1.5c.264 0 .432.144.432.356 0 .356-.452.732-.872.732-.264 0-.432-.144-.432-.356 0-.356.452-.732.872-.732z"/>
    <path fill="currentColor" d="M26.71 11.7c.264 0 .432.144.432.356 0 .356-.452.732-.872.732-.264 0-.432-.144-.432-.356 0-.356.452-.732.872-.732z"/>
    <path fill="currentColor" d="M26.71 12.7c.264 0 .432.144.432.356 0 .356-.452.732-.872.732-.264 0-.432-.144-.432-.356 0-.356.452-.732.872-.732zm0 6.5c.264 0 .432.144.432.356 0 .356-.452.732-.872.732-.264 0-.432-.144-.432-.356 0-.356.452-.732.872-.732zm0 1.5c.264 0 .432.144.432.356 0 .356-.452.732-.872.732-.264 0-.432-.144-.432-.356 0-.356.452-.732.872-.732z"/>
    <path fill="currentColor" d="M26.71 21.7c.264 0 .432.144.432.356 0 .356-.452.732-.872.732-.264 0-.432-.144-.432-.356 0-.356.452-.732.872-.732z"/>
    <path fill="currentColor" d="M26.71 22.7c.264 0 .432.144.432.356 0 .356-.452.732-.872.732-.264 0-.432-.144-.432-.356 0-.356.452-.732.872-.732z"/>
    <rect width=".13" height="6.814" x="-.065" y="-4.314" fill="currentColor" ry=".04" transform="translate(25.903 14.244)"/>
    <rect width=".13" height="6.647" x="-.065" y="-3.314" fill="currentColor" ry=".04" transform="translate(25.903 23.244)"/>
    <path fill="currentColor" stroke="currentColor" stroke-linecap="round" stroke-linejoin="round" stroke-width=".08" d="M81.918 12.7c1.232-1.445 5.223-2.03 6.818-1h0c-1.577-.911-5.568-.326-6.818 1z"/>
    <path fill="currentColor" d="M29.984 9.855c.193 0 .328.112.328.277 0 .255-.3.501-.586.501-.193 0-.324-.112-.324-.277 0-.255.296-.501.582-.501z"/>
    <rect width=".13" height="2.897" x="-.065" y="-7.011" fill="currentColor" ry=".04" transform="translate(30.255 14.244)"/>
    <path fill="currentColor" d="M31.36 9.355c.194 0 .328.112.328.277 0 .255-.3.501-.585.501-.193 0-.325-.112-.325-.277 0-.255.297-.501.583-.501z"/>
    <rect width=".13" height="2.636" x="-.065" y="-7.25" fill="currentColor" ry=".04" transform="translate(31.631 14.244)"/>
    <path fill="currentColor" stroke="currentColor" stroke-linecap="round" stroke-linejoin="round" stroke-width=".08" d="M64.842 15.044v.4l-2.386-.262v-.4zm0 .81v.4l-5.753-.62v-.4z"/>
    <path fill="currentColor" d="M32.738 8.855c.193 0 .327.112.327.277 0 .255-.3.501-.585.501-.193 0-.325-.112-.325-.277 0-.255.297-.501.583-.501z"/>
    <rect width=".13" height="2.374" x="-.065" y="-7.489" fill="currentColor" ry=".04" transform="translate(33.008 14.244)"/>
    <path fill="currentColor" stroke="currentColor" stroke-linecap="round" stroke-linejoin="round" stroke-width=".08" d="M58.577 8.592v.304l-2.751.5v-.304zm0 .648v.304l-2.751.5V9.74zm0 .648v.304l-2.751.5v-.304z"/>
    <path fill="currentColor" d="M34.404 9.2c.264 0 .432.144.432.356 0 .356-.452.732-.872.732-.264 0-.432-.144-.432-.356 0-.356.452-.732.872-.732zm-.896 13.732c0-.236.496-.332.496-.728a.427.427 0 0 0-.1-.276l-.14-.168a.057.057 0 0 1-.016-.04c0-.036.036-.06.068-.06.016 0 .032.004.044.02l.604.72a.16.16 0 0 1 .04.1c0 .236-.496.332-.496.728 0 .096.028.196.096.276l.336.396a.057.057 0 0 1 .016.04c0 .036-.032.064-.064.064s-.18-.176-.436-.176c-.064 0-.212 0-.212.268 0 .14.044.296.112.376.028.032-.02.076-.048.044-.18-.216-.368-.592-.368-.808 0-.164.108-.168.16-.168.132 0 .312.052.476.124l-.528-.632a.16.16 0 0 1-.04-.1z"/>
    <rect width=".13" height="4.314" x="-.065" y="-4.314" fill="currentColor" ry=".04" transform="translate(33.597 14.244)"/>
    <path fill="currentColor" d="M37.771 9.7c.264 0 .432.144.432.356 0 .356-.452.732-.872.732-.264 0-.432-.144-.432-.356 0-.356.452-.732.872-.732z"/>
    <rect width=".13" height="3.814" x="-.065" y="-3.814" fill="currentColor" ry=".04" transform="translate(36.964 14.244)"/>
    <path fill="currentColor" stroke="currentColor" stroke-linecap="round" stroke-linejoin="round" stroke-width=".08" d="M39.325 13.234v.4h-2.386v-.4zm0 .81v.4h-5.753v-.4z"/>
    <path fill="currentColor" d="M40.107 10.2c.264 0 .432.144.432.356 0 .356-.452.732-.872.732-.264 0-.432-.144-.432-.356 0-.356.452-.732.872-.732z"/>
    <rect width=".13" height="3.314" x="-.065" y="-3.314" fill="currentColor" ry=".04" transform="translate(39.3 14.244)"/>
    <path fill="currentColor" stroke="currentColor" stroke-linecap="round" stroke-linejoin="round" stroke-width=".08" d="M33.033 6.592v.304l-2.804.5v-.304zm0 .648v.304l-2.804.5V7.74zm0 .648v.304l-2.804.5v-.304z"/>
    <path fill="currentColor" d="M43.558 10.7c.264 0 .432.144.432.356 0 .356-.452.732-.872.732-.264 0-.432-.144-.432-.356 0-.356.452-.732.872-.732zm0 8.5c.264 0 .432.144.432.356 0 .356-.452.732-.872.732-.264 0-.432-.144-.432-.356 0-.356.452-.732.872-.732zm0 1.5c.264 0 .432.144.432.356 0 .356-.452.732-.872.732-.264 0-.432-.144-.432-.356 0-.356.452-.732.872-.732z"/>
    <path fill="currentColor" d="M43.558 21.7c.264 0 .432.144.432.356 0 .356-.452.732-.872.732-.264 0-.432-.144-.432-.356 0-.356.452-.732.872-.732z"/>
    <path fill="currentColor" d="M43.558 22.7c.264 0 .432.144.432.356 0 .356-.452.732-.872.732-.264 0-.432-.144-.432-.356 0-.356.452-.732.872-.732z"/>
    <rect width=".13" height="3.314" x="-.065" y="-2.814" fill="currentColor" ry=".04" transform="translate(42.75 14.244)"/>
    <rect width=".13" height="6.647" x="-.065" y="-3.314" fill="currentColor" ry=".04" transform="translate(42.75 23.244)"/>
    <path fill="currentColor" d="M47.956 10.7c.264 0 .432.144.432.356 0 .356-.452.732-.872.732-.264 0-.432-.144-.432-.356 0-.356.452-.732.872-.732z"/>
    <path fill="currentColor" d="M47.956 11.7c.264 0 .432.144.432.356 0 .356-.452.732-.872.732-.264 0-.432-.144-.432-.356 0-.356.452-.732.872-.732z"/>
    <path fill="currentColor" d="M47.956 12.7c.264 0 .432.144.432.356 0 .356-.452.732-.872.732-.264 0-.432-.144-.432-.356 0-.356.452-.732.872-.732zm0 1.5c.264 0 .432.144.432.356 0 .356-.452.732-.872.732-.264 0-.432-.144-.432-.356 0-.356.452-.732.872-.732zm0 5c.264 0 .432.144.432.356 0 .356-.452.732-.872.732-.264 0-.432-.144-.432-.356 0-.356.452-.732.872-.732zm0 1.5c.264 0 .432.144.432.356 0 .356-.452.732-.872.732-.264 0-.432-.144-.432-.356 0-.356.452-.732.872-.732z"/>
    <path fill="currentColor" d="M47.956 21.7c.264 0 .432.144.432.356 0 .356-.452.732-.872.732-.264 0-.432-.144-.432-.356 0-.356.452-.732.872-.732z"/>
    <path fill="currentColor" d="M47.956 22.7c.264 0 .432.144.432.356 0 .356-.452.732-.872.732-.264 0-.432-.144-.432-.356 0-.356.452-.732.872-.732z"/>
    <rect width=".13" height="6.481" x="-.065" y="-2.814" fill="currentColor" ry=".04" transform="translate(47.15 14.244)"/>
    <rect width=".13" height="6.647" x="-.065" y="-3.314" fill="currentColor" ry=".04" transform="translate(47.15 23.244)"/>
    <path fill="currentColor" d="M52.355 10.7c.264 0 .432.144.432.356 0 .356-.452.732-.872.732-.264 0-.432-.144-.432-.356 0-.356.452-.732.872-.732z"/>
    <path fill="currentColor" d="M52.355 11.7c.264 0 .432.144.432.356 0 .356-.452.732-.872.732-.264 0-.432-.144-.432-.356 0-.356.452-.732.872-.732z"/>
    <path fill="currentColor" d="M52.355 12.7c.264 0 .432.144.432.356 0 .356-.452.732-.872.732-.264 0-.432-.144-.432-.356 0-.356.452-.732.872-.732zm0 1.5c.264 0 .432.144.432.356 0 .356-.452.732-.872.732-.264 0-.432-.144-.432-.356 0-.356.452-.732.872-.732zm0 5c.264 0 .432.144.432.356 0 .356-.452.732-.872.732-.264 0-.432-.144-.432-.356 0-.356.452-.732.872-.732zm0 1.5c.264 0 .432.144.432.356 0 .356-.452.732-.872.732-.264 0-.432-.144-.432-.356 0-.356.452-.732.872-.732z"/>
    <path fill="currentColor" d="M52.355 21.7c.264 0 .432.144.432.356 0 .356-.452.732-.872.732-.264 0-.432-.144-.432-.356 0-.356.452-.732.872-.732z"/>
    <path fill="currentColor" d="M52.355 22.7c.264 0 .432.144.432.356 0 .356-.452.732-.872.732-.264 0-.432-.144-.432-.356 0-.356.452-.732.872-.732z"/>
    <rect width=".13" height="6.481" x="-.065" y="-2.814" fill="currentColor" ry=".04" transform="translate(51.548 14.244)"/>
    <rect width=".13" height="6.647" x="-.065" y="-3.314" fill="currentColor" ry=".04" transform="translate(51.548 23.244)"/>
    <path fill="currentColor" d="M55.58 11.855c.193 0 .328.112.328.277 0 .255-.3.501-.586.501-.193 0-.324-.112-.324-.277 0-.255.296-.501.582-.501z"/>
    <rect width=".13" height="2.897" x="-.065" y="-5.011" fill="currentColor" ry=".04" transform="translate(55.85 14.244)"/>
    <path fill="currentColor" stroke="currentColor" stroke-linecap="round" stroke-linejoin="round" stroke-width=".08" d="M93.55 24.854v.4H81.368v-.4z"/>
    <path fill="currentColor" d="M56.93 11.355c.194 0 .328.112.328.277 0 .255-.3.501-.585.501-.193 0-.325-.112-.325-.277 0-.255.297-.501.583-.501z"/>
    <rect width=".13" height="2.636" x="-.065" y="-5.25" fill="currentColor" ry=".04" transform="translate(57.201 14.244)"/>
    <path fill="currentColor" d="M58.281 10.855c.193 0 .328.112.328.277 0 .255-.3.501-.586.501-.193 0-.324-.112-.324-.277 0-.255.296-.501.582-.501z"/>
    <rect width=".13" height="2.374" x="-.065" y="-5.489" fill="currentColor" ry=".04" transform="translate(58.551 14.244)"/>
    <path fill="currentColor" d="M59.921 11.2c.264 0 .432.144.432.356 0 .356-.452.732-.872.732-.264 0-.432-.144-.432-.356 0-.356.452-.732.872-.732zm-.896 11.732c0-.236.496-.332.496-.728a.427.427 0 0 0-.1-.276l-.14-.168a.057.057 0 0 1-.016-.04c0-.036.036-.06.068-.06.016 0 .032.004.044.02l.604.72a.16.16 0 0 1 .04.1c0 .236-.496.332-.496.728 0 .096.028.196.096.276l.336.396a.057.057 0 0 1 .016.04c0 .036-.032.064-.064.064s-.18-.176-.436-.176c-.064 0-.212 0-.212.268 0 .14.044.296.112.376.028.032-.02.076-.048.044-.18-.216-.368-.592-.368-.808 0-.164.108-.168.16-.168.132 0 .312.052.476.124l-.528-.632a.16.16 0 0 1-.04-.1z"/>
    <rect width=".13" height="3.511" x="-.065" y="-2.314" fill="currentColor" ry=".04" transform="translate(59.114 14.244)"/>
    <path fill="currentColor" d="M63.288 11.7c.264 0 .432.144.432.356 0 .356-.452.732-.872.732-.264 0-.432-.144-.432-.356 0-.356.452-.732.872-.732z"/>
    <rect width=".13" height="3.369" x="-.065" y="-1.814" fill="currentColor" ry=".04" transform="translate(62.481 14.244)"/>
    <path fill="currentColor" d="M65.624 12.2c.264 0 .432.144.432.356 0 .356-.452.732-.872.732-.264 0-.432-.144-.432-.356 0-.356.452-.732.872-.732z"/>
    <rect width=".13" height="3.117" x="-.065" y="-1.314" fill="currentColor" ry=".04" transform="translate(64.817 14.244)"/>
    <path fill="currentColor" d="M68.912 12.7c.264 0 .432.144.432.356 0 .356-.452.732-.872.732-.264 0-.432-.144-.432-.356 0-.356.452-.732.872-.732zm0 10c.264 0 .432.144.432.356 0 .356-.452.732-.872.732-.264 0-.432-.144-.432-.356 0-.356.452-.732.872-.732z"/>
    <rect width=".16" height="13.1" y="-6.55" fill="currentColor" ry=".05" transform="translate(5.63 18.744)"/>
    <rect width=".13" height="3.314" x="-.065" y="-.814" fill="currentColor" ry=".04" transform="translate(68.105 14.244)"/>
    <path fill="currentColor" d="M68.17 16.704h-.064v-1h.064v1zm0 0v-1c.388-.236.896-.592.896-1.036 0-.228-.06-.448-.16-.652-.012-.064.04-.108.092-.108.028 0 .06.012.08.044.1.224.16.468.16.716 0 .812-1.068 1.224-1.068 2.036z"/>
    <rect width=".13" height="2.619" x="-.065" y=".186" fill="currentColor" ry=".04" transform="translate(68.105 23.244)"/>
    <path fill="currentColor" d="M5.007 20.208c0-1.02-.528-1.452-.528-1.464 0-.072.528-.384.528-1.464 0-1.044-.432-1.956-.432-3.12 0-.756.18-1.464.708-2.004.06-.06.156.036.096.096-.396.396-.516.9-.516 1.44 0 1.02.408 1.92.408 3.06 0 .744-.18 1.452-.696 1.992.516.54.696 1.248.696 1.992 0 1.14-.408 2.04-.408 3.06 0 .54.12 1.044.516 1.44.06.06-.036.156-.096.096-.528-.54-.708-1.248-.708-2.004 0-1.164.432-2.076.432-3.12zm66.805-6.784c.316 0 .184.392.364.392.064 0 .216-.192.244-.252.024-.048.092-.048.112 0l-.492 1.68c-.032.028-.068.04-.108.04s-.08-.012-.112-.04l.468-1.304a1.272 1.272 0 0 1-.42.088c-.188 0-.348-.136-.348-.316a.29.29 0 0 1 .292-.288zm.592 7.276c.264 0 .432.144.432.356 0 .356-.452.732-.872.732-.264 0-.432-.144-.432-.356 0-.356.452-.732.872-.732z"/>
    <rect width=".13" height="4.341" x="-.065" y="-1.814" fill="currentColor" ry=".04" transform="translate(71.597 23.244)"/>
    <path fill="currentColor" d="M75.494 12.7c.264 0 .432.144.432.356 0 .356-.452.732-.872.732-.264 0-.432-.144-.432-.356 0-.356.452-.732.872-.732zm-.31 5.637c.312 0 .388-.704.388-.712 0-.072-.028-.132-.1-.132-.244 0-.408.496-.408.692 0 .088.032.152.12.152zm-.856-.436c0-.008.204-.604.536-.604.14 0 .236.084.264.208.116-.124.268-.208.412-.208.276 0 .428.196.428.456 0 .472-.42.744-.636.744-.212 0-.28-.08-.336-.08-.028 0-.056.012-.064.036l-.116.344c-.004.008-.004.02-.004.028 0 .148.228.072.228.168 0 .028-.016.056-.052.056-.012 0-.2-.02-.464-.02s-.448.02-.46.02a.055.055 0 0 1-.056-.056c0-.124.348.004.408-.164l.408-1.2a.315.315 0 0 0 .016-.08c0-.032-.008-.056-.044-.056-.132 0-.252.24-.316.388a.104.104 0 0 1-.096.068c-.032 0-.056-.016-.056-.048zm1.166 3.799c.264 0 .432.144.432.356 0 .356-.452.732-.872.732-.264 0-.432-.144-.432-.356 0-.356.452-.732.872-.732z"/>
    <rect width=".13" height="3.314" x="-.065" y="-.814" fill="currentColor" ry=".04" transform="translate(74.687 14.244)"/>
    <path fill="currentColor" d="M74.752 16.704h-.064v-1h.064v1zm0 0v-1c.388-.236.896-.592.896-1.036 0-.228-.06-.448-.16-.652-.012-.064.04-.108.092-.108.028 0 .06.012.08.044.1.224.16.468.16.716 0 .812-1.068 1.224-1.068 2.036z"/>
    <rect width=".13" height="3.096" x="-.065" y="-.814" fill="currentColor" ry=".04" transform="translate(74.687 23.244)"/>
    <path fill="currentColor" d="M78.394 13.424c.316 0 .184.392.364.392.064 0 .216-.192.244-.252.024-.048.092-.048.112 0l-.492 1.68c-.032.028-.068.04-.108.04s-.08-.012-.112-.04l.468-1.304a1.272 1.272 0 0 1-.42.088c-.188 0-.348-.136-.348-.316a.29.29 0 0 1 .292-.288zm.592 7.276c.264 0 .432.144.432.356 0 .356-.452.732-.872.732-.264 0-.432-.144-.432-.356 0-.356.452-.732.872-.732z"/>
    <rect width=".13" height="3.819" x="-.065" y="-1.814" fill="currentColor" ry=".04" transform="translate(78.179 23.244)"/>
    <path fill="currentColor" d="M82.2 13.2c.265 0 .433.144.433.356 0 .356-.452.732-.872.732-.264 0-.432-.144-.432-.356 0-.356.452-.732.872-.732zm0 8c.265 0 .433.144.433.356 0 .356-.452.732-.872.732-.264 0-.432-.144-.432-.356 0-.356.452-.732.872-.732zm.883-7.456a.224.224 0 1 1 .447 0 .224.224 0 0 1-.447 0z"/>
    <rect width=".13" height="3.309" x="-.065" y="-.314" fill="currentColor" ry=".04" transform="translate(81.394 14.244)"/>
    <rect width=".13" height="3.124" x="-.065" y="-1.314" fill="currentColor" ry=".04" transform="translate(81.394 23.244)"/>
    <path fill="currentColor" d="M85.568 20.7c.264 0 .432.144.432.356 0 .356-.452.732-.872.732-.264 0-.432-.144-.432-.356 0-.356.452-.732.872-.732z"/>
    <rect width=".13" height="3.624" x="-.065" y="-1.814" fill="currentColor" ry=".04" transform="translate(84.761 23.244)"/>
    <path fill="currentColor" d="M87.2 12.7c.263 0 .431.144.431.356 0 .356-.452.732-.872.732-.264 0-.432-.144-.432-.356 0-.356.452-.732.872-.732z"/>
    <rect width=".13" height="3.45" x="-.065" y="-.814" fill="currentColor" ry=".04" transform="translate(86.392 14.244)"/>
    <path fill="currentColor" d="M89.02 12.2c.263 0 .431.144.431.356 0 .356-.452.732-.872.732-.264 0-.432-.144-.432-.356 0-.356.452-.732.872-.732z"/>
    <rect width=".13" height="3.819" x="-.065" y="-1.314" fill="currentColor" ry=".04" transform="translate(88.212 14.244)"/>
    <path fill="currentColor" d="M90.84 12.7c.263 0 .431.144.431.356 0 .356-.452.732-.872.732-.264 0-.432-.144-.432-.356 0-.356.452-.732.872-.732zm0 9c.263 0 .431.144.431.356 0 .356-.452.732-.872.732-.264 0-.432-.144-.432-.356 0-.356.452-.732.872-.732z"/>
    <rect width=".13" height="3.314" x="-.065" y="-.814" fill="currentColor" ry=".04" transform="translate(90.032 14.244)"/>
    <path fill="currentColor" d="M90.097 16.704h-.064v-1h.064v1zm0 0v-1c.388-.236.896-.592.896-1.036 0-.228-.06-.448-.16-.652-.012-.064.04-.108.092-.108.028 0 .06.012.08.044.1.224.16.468.16.716 0 .812-1.068 1.224-1.068 2.036z"/>
    <rect width=".13" height="2.624" x="-.065" y="-.814" fill="currentColor" ry=".04" transform="translate(90.032 23.244)"/>
    <path fill="currentColor" d="M93.74 13.424c.315 0 .183.392.363.392.064 0 .216-.192.244-.252.024-.048.092-.048.112 0l-.492 1.68c-.032.028-.068.04-.108.04s-.08-.012-.112-.04l.468-1.304a1.272 1.272 0 0 1-.42.088c-.188 0-.348-.136-.348-.316a.29.29 0 0 1 .292-.288zm.591 7.276c.264 0 .432.144.432.356 0 .356-.452.732-.872.732-.264 0-.432-.144-.432-.356 0-.356.452-.732.872-.732z"/>
    <rect width=".13" height="3.624" x="-.065" y="-1.814" fill="currentColor" ry=".04" transform="translate(93.524 23.244)"/>
</svg>
