<svg xmlns="http://www.w3.org/2000/svg" width="793.701" height="416.239" version="1.2" viewBox="0 0 119.502 62.669">
    <style>
        tspan{white-space:pre}
    </style>
    <text fill="currentColor" font-family="serif" font-size="2.47" font-weight="bold" transform="translate(5.69 5.514)">
<tspan>Allegro</tspan>
</text>
    <rect width="1.956" height=".2" x="26.613" y="-.1" fill="currentColor" ry=".1" transform="translate(5.69 14.007)"/>
    <rect width="1.956" height=".2" x="26.613" y="-.1" fill="currentColor" ry=".1" transform="translate(5.69 15.007)"/>
    <rect width="1.956" height=".2" x="20.12" y="-.1" fill="currentColor" ry=".1" transform="translate(5.69 14.007)"/>
    <rect width="1.956" height=".2" x="20.12" y="-.1" fill="currentColor" ry=".1" transform="translate(5.69 15.007)"/>
    <path stroke="currentColor" stroke-linecap="round" stroke-linejoin="round" stroke-width=".1" d="M14.276 13.007h99.485m-99.485-1h99.485m-99.485-1h99.485m-99.485-1h99.485m-99.485-1h99.485"/>
    <rect width=".19" height="4.95" y="37.271" fill="currentColor" ry="0" transform="translate(113.621 6.547)"/>
    <rect width=".19" height="7.211" y="15.51" fill="currentColor" ry="0" transform="translate(113.621 6.547)"/>
    <rect width=".19" height="4.95" y="6.51" fill="currentColor" ry="0" transform="translate(113.621 6.547)"/>
    <rect width="1.956" height=".2" x="66.849" y="-.1" fill="currentColor" ry=".1" transform="translate(5.69 23.007)"/>
    <rect width="1.956" height=".2" x="63.519" y="-.1" fill="currentColor" ry=".1" transform="translate(5.69 23.007)"/>
    <rect width="1.956" height=".2" x="63.519" y="-.1" fill="currentColor" ry=".1" transform="translate(5.69 24.007)"/>
    <rect width="1.956" height=".2" x="60.272" y="-.1" fill="currentColor" ry=".1" transform="translate(5.69 23.007)"/>
    <rect width="1.956" height=".2" x="60.272" y="-.1" fill="currentColor" ry=".1" transform="translate(5.69 24.007)"/>
    <rect width="1.956" height=".2" x="56.175" y="-.1" fill="currentColor" ry=".1" transform="translate(5.69 23.007)"/>
    <rect width="1.956" height=".2" x="52.928" y="-.1" fill="currentColor" ry=".1" transform="translate(5.69 23.007)"/>
    <rect width="1.956" height=".2" x="48.832" y="-.1" fill="currentColor" ry=".1" transform="translate(5.69 23.007)"/>
    <rect width="1.956" height=".2" x="48.832" y="-.1" fill="currentColor" ry=".1" transform="translate(5.69 24.007)"/>
    <rect width="1.956" height=".2" x="42.931" y="-.1" fill="currentColor" ry=".1" transform="translate(5.69 23.007)"/>
    <rect width="1.956" height=".2" x="39.601" y="-.1" fill="currentColor" ry=".1" transform="translate(5.69 23.007)"/>
    <rect width="1.956" height=".2" x="39.601" y="-.1" fill="currentColor" ry=".1" transform="translate(5.69 24.007)"/>
    <rect width="1.956" height=".2" x="36.437" y="-.1" fill="currentColor" ry=".1" transform="translate(5.69 23.007)"/>
    <rect width="1.956" height=".2" x="33.107" y="-.1" fill="currentColor" ry=".1" transform="translate(5.69 23.007)"/>
    <rect width="1.956" height=".2" x="33.107" y="-.1" fill="currentColor" ry=".1" transform="translate(5.69 24.007)"/>
    <rect width="1.956" height=".2" x="29.944" y="-.1" fill="currentColor" ry=".1" transform="translate(5.69 23.007)"/>
    <rect width="1.956" height=".2" x="26.613" y="-.1" fill="currentColor" ry=".1" transform="translate(5.69 23.007)"/>
    <rect width="1.956" height=".2" x="26.613" y="-.1" fill="currentColor" ry=".1" transform="translate(5.69 24.007)"/>
    <rect width="1.956" height=".2" x="23.45" y="-.1" fill="currentColor" ry=".1" transform="translate(5.69 23.007)"/>
    <rect width="1.956" height=".2" x="20.12" y="-.1" fill="currentColor" ry=".1" transform="translate(5.69 23.007)"/>
    <rect width="1.956" height=".2" x="20.12" y="-.1" fill="currentColor" ry=".1" transform="translate(5.69 24.007)"/>
    <path stroke="currentColor" stroke-linecap="round" stroke-linejoin="round" stroke-width=".1" d="M14.276 22.007h99.485m-99.485-1h99.485m-99.485-1h99.485m-99.485-1h99.485m-99.485-1h99.485"/>
    <rect width=".19" height="4.95" y="6.51" fill="currentColor" ry="0" transform="translate(113.621 6.547)"/>
    <rect width=".19" height="4.05" y="-2.05" fill="currentColor" ry="0" transform="translate(113.621 50.768)"/>
    <rect width=".19" height="4.05" y="-2" fill="currentColor" ry="0" transform="translate(113.621 41.768)"/>
    <rect width=".19" height="4.05" y="-2.05" fill="currentColor" ry="0" transform="translate(113.621 31.268)"/>
    <path stroke="currentColor" stroke-linecap="round" stroke-linejoin="round" stroke-width=".1" d="M14.276 33.268h99.485m-99.485-1h99.485m-99.485-1h99.485m-99.485-1h99.485m-99.485-1h99.485"/>
    <rect width=".19" height="4.1" y="-2.05" fill="currentColor" ry="0" transform="translate(113.621 20.007)"/>
    <rect width=".19" height="4.05" y="-2" fill="currentColor" ry="0" transform="translate(113.621 11.007)"/>
    <rect width=".19" height="4.95" y="37.271" fill="currentColor" ry="0" transform="translate(85.499 6.547)"/>
    <rect width=".19" height="7.211" y="15.51" fill="currentColor" ry="0" transform="translate(85.499 6.547)"/>
    <rect width=".19" height="4.95" y="6.51" fill="currentColor" ry="0" transform="translate(85.499 6.547)"/>
    <rect width=".19" height="4.95" y="6.51" fill="currentColor" ry="0" transform="translate(85.499 6.547)"/>
    <path stroke="currentColor" stroke-linecap="round" stroke-linejoin="round" stroke-width=".1" d="M14.276 43.768h99.485m-99.485-1h99.485m-99.485-1h99.485m-99.485-1h99.485m-99.485-1h99.485"/>
    <rect width=".19" height="4.05" y="-2.05" fill="currentColor" ry="0" transform="translate(85.499 50.768)"/>
    <path stroke="currentColor" stroke-linecap="round" stroke-linejoin="round" stroke-width=".1" d="M14.276 52.768h99.485m-99.485-1h99.485m-99.485-1h99.485m-99.485-1h99.485m-99.485-1h99.485"/>
    <rect width=".19" height="4.05" y="-2" fill="currentColor" ry="0" transform="translate(85.499 41.768)"/>
    <rect width=".19" height="4.05" y="-2.05" fill="currentColor" ry="0" transform="translate(85.499 31.268)"/>
    <rect width=".19" height="4.1" y="-2.05" fill="currentColor" ry="0" transform="translate(85.499 20.007)"/>
    <rect width=".19" height="4.05" y="-2" fill="currentColor" ry="0" transform="translate(85.499 11.007)"/>
    <rect width=".19" height="4.95" y="37.271" fill="currentColor" ry="0" transform="translate(53.735 6.547)"/>
    <rect width=".19" height="7.211" y="15.51" fill="currentColor" ry="0" transform="translate(53.735 6.547)"/>
    <rect width=".19" height="4.95" y="6.51" fill="currentColor" ry="0" transform="translate(53.735 6.547)"/>
    <rect width=".19" height="4.95" y="6.51" fill="currentColor" ry="0" transform="translate(53.735 6.547)"/>
    <rect width=".19" height="4.05" y="-2.05" fill="currentColor" ry="0" transform="translate(53.735 50.768)"/>
    <rect width=".19" height="4.05" y="-2" fill="currentColor" ry="0" transform="translate(53.735 41.768)"/>
    <rect width=".19" height="4.05" y="-2.05" fill="currentColor" ry="0" transform="translate(53.735 31.268)"/>
    <rect width=".19" height="4.1" y="-2.05" fill="currentColor" ry="0" transform="translate(53.735 20.007)"/>
    <rect width=".19" height="4.05" y="-2" fill="currentColor" ry="0" transform="translate(53.735 11.007)"/>
    <path fill="currentColor" d="M27.008 12.463c.264 0 .432.144.432.356 0 .356-.452.732-.872.732-.264 0-.432-.144-.432-.356 0-.356.452-.732.872-.732zM16.09 14.547h-.024a.783.783 0 0 1-.78-.788c0-.232.212-.412.448-.412.216 0 .38.188.38.412 0 .208-.172.38-.38.38a.326.326 0 0 1-.124-.024c.104.156.272.26.468.26h.016zm.78-1.728a.69.69 0 0 0 .452-.656.764.764 0 0 0-.692-.76c.076.356.192.968.24 1.416zm-1.548-.924c0 .58.564.988 1.056.988.004 0 .188 0 .328-.024a17.343 17.343 0 0 0-.252-1.456c-.316.032-.496.244-.496.476 0 .176.1.364.324.492.02.02.028.04.028.06 0 .044-.04.088-.088.088-.06 0-.504-.248-.504-.748 0-.352.232-.696.64-.788a15.048 15.048 0 0 0-.184-.7c-.428.484-.852.972-.852 1.612zm.704-2.1c-.116-.384-.208-.68-.208-1.384 0-.46.22-.896.596-1.168a.06.06 0 0 1 .08 0c.272.32.532.98.532 1.432 0 .572-.344 1.02-.72 1.456.084.272.156.552.224.828.008 0 .028-.004.052-.004.62 0 1.024.512 1.024 1.044 0 .452-.296.848-.72.984.012.14.02.28.02.42 0 .076-.004.156-.008.232-.028.476-.352.9-.808.912l.004-.172c.372-.008.612-.368.636-.764a3.775 3.775 0 0 0-.008-.588c-.02.004-.176.032-.356.032-.772 0-1.332-.72-1.332-1.496 0-.708.524-1.224.992-1.764zm.712-1.452c0-.136.004-.264-.08-.516a1.153 1.153 0 0 0-.648 1.036c0 .208.048.46.144.776.32-.388.584-.792.584-1.296zm2.016 2.5-.004.264v.044c0 .088.004.176.016.264.18-.152.372-.32.372-.556 0-.132-.056-.268-.172-.268-.124 0-.208.12-.212.252zm-.168.716-.048-2.38c.032-.02.072-.032.108-.032s.076.012.108.032l-.028 1.38a.577.577 0 0 1 .364-.136c.208 0 .356.192.356.408 0 .32-.344.468-.588.676-.06.052-.096.152-.18.152-.052 0-.092-.044-.092-.1zm1.088-2.216-.004.264v.044c0 .088.004.176.016.264.18-.152.372-.32.372-.556 0-.132-.056-.268-.172-.268-.124 0-.208.12-.212.252zm-.168.716-.048-2.38c.032-.02.072-.032.108-.032s.076.012.108.032l-.028 1.38a.577.577 0 0 1 .364-.136c.208 0 .356.192.356.408 0 .32-.344.468-.588.676-.06.052-.096.152-.18.152-.052 0-.092-.044-.092-.1zm1.088 1.284-.004.264v.044c0 .088.004.176.016.264.18-.152.372-.32.372-.556 0-.132-.056-.268-.172-.268-.124 0-.208.12-.212.252zm-.168.716-.048-2.38c.032-.02.072-.032.108-.032s.076.012.108.032l-.028 1.38a.577.577 0 0 1 .364-.136c.208 0 .356.192.356.408 0 .32-.344.468-.588.676-.06.052-.096.152-.18.152-.052 0-.092-.044-.092-.1zm3.01-2.099c.464 0 .704.423.704.651 0 .16-.12.288-.268.288-.124 0-.3-.1-.3-.3 0-.152.108-.308.288-.308.016 0 .036 0 .056.004a.599.599 0 0 0-.48-.236c-.424 0-.452.292-.452.744v.408c0 .452.028.748.452.748.32 0 .556-.28.632-.604.008-.028.028-.04.048-.04.024 0 .052.016.052.048 0 .088-.2.696-.732.696-.236 0-1-.076-1-1.052 0-.248.072-1.048 1-1.048zm3.572 14.003c.264 0 .432.144.432.356 0 .356-.452.732-.872.732-.264 0-.432-.144-.432-.356 0-.356.452-.732.872-.732zm.161 2.583-.2.652c-.12.396-.484 1.02-.872 1.02-.18 0-.348-.108-.348-.276 0-.156.068-.308.208-.308.096 0 .176.08.176.176 0 .12-.152.096-.152.216 0 .04.044.044.092.044h.024c.192 0 .244-.232.292-.432l.272-1.092h-.196c-.044 0-.076-.032-.076-.076s.032-.076.076-.076h.24c.128-.384.472-.764.852-.764.18 0 .348.108.348.276 0 .156-.068.308-.208.308a.174.174 0 0 1-.176-.172c0-.12.152-.1.152-.22 0-.04-.04-.044-.088-.044h-.028c-.248 0-.28.352-.344.616h.22c.044 0 .076.032.076.076s-.032.076-.076.076h-.264zM16.09 23.547h-.024a.783.783 0 0 1-.78-.788c0-.232.212-.412.448-.412.216 0 .38.188.38.412 0 .208-.172.38-.38.38a.326.326 0 0 1-.124-.024c.104.156.272.26.468.26h.016zm.78-1.728a.69.69 0 0 0 .452-.656.764.764 0 0 0-.692-.76c.076.356.192.968.24 1.416zm-1.548-.924c0 .58.564.988 1.056.988.004 0 .188 0 .328-.024a17.343 17.343 0 0 0-.252-1.456c-.316.032-.496.244-.496.476 0 .176.1.364.324.492.02.02.028.04.028.06 0 .044-.04.088-.088.088-.06 0-.504-.248-.504-.748 0-.352.232-.696.64-.788a15.048 15.048 0 0 0-.184-.7c-.428.484-.852.972-.852 1.612zm.704-2.1c-.116-.384-.208-.68-.208-1.384 0-.46.22-.896.596-1.168a.06.06 0 0 1 .08 0c.272.32.532.98.532 1.432 0 .572-.344 1.02-.72 1.456.084.272.156.552.224.828.008 0 .028-.004.052-.004.62 0 1.024.512 1.024 1.044 0 .452-.296.848-.72.984.012.14.02.28.02.42 0 .076-.004.156-.008.232-.028.476-.352.9-.808.912l.004-.172c.372-.008.612-.368.636-.764a3.775 3.775 0 0 0-.008-.588c-.02.004-.176.032-.356.032-.772 0-1.332-.72-1.332-1.496 0-.708.524-1.224.992-1.764zm.712-1.452c0-.136.004-.264-.08-.516a1.153 1.153 0 0 0-.648 1.036c0 .208.048.46.144.776.32-.388.584-.792.584-1.296zm2.016 2.5-.004.264v.044c0 .088.004.176.016.264.18-.152.372-.32.372-.556 0-.132-.056-.268-.172-.268-.124 0-.208.12-.212.252zm-.168.716-.048-2.38c.032-.02.072-.032.108-.032s.076.012.108.032l-.028 1.38a.577.577 0 0 1 .364-.136c.208 0 .356.192.356.408 0 .32-.344.468-.588.676-.06.052-.096.152-.18.152-.052 0-.092-.044-.092-.1zm1.088-2.216-.004.264v.044c0 .088.004.176.016.264.18-.152.372-.32.372-.556 0-.132-.056-.268-.172-.268-.124 0-.208.12-.212.252zm-.168.716-.048-2.38c.032-.02.072-.032.108-.032s.076.012.108.032l-.028 1.38a.577.577 0 0 1 .364-.136c.208 0 .356.192.356.408 0 .32-.344.468-.588.676-.06.052-.096.152-.18.152-.052 0-.092-.044-.092-.1zm1.088 1.284-.004.264v.044c0 .088.004.176.016.264.18-.152.372-.32.372-.556 0-.132-.056-.268-.172-.268-.124 0-.208.12-.212.252zm-.168.716-.048-2.38c.032-.02.072-.032.108-.032s.076.012.108.032l-.028 1.38a.577.577 0 0 1 .364-.136c.208 0 .356.192.356.408 0 .32-.344.468-.588.676-.06.052-.096.152-.18.152-.052 0-.092-.044-.092-.1zm3.01-2.099c.464 0 .704.423.704.651 0 .16-.12.288-.268.288-.124 0-.3-.1-.3-.3 0-.152.108-.308.288-.308.016 0 .036 0 .056.004a.599.599 0 0 0-.48-.236c-.424 0-.452.292-.452.744v.408c0 .452.028.748.452.748.32 0 .556-.28.632-.604.008-.028.028-.04.048-.04.024 0 .052.016.052.048 0 .088-.2.696-.732.696-.236 0-1-.076-1-1.052 0-.248.072-1.048 1-1.048zm3.572 11.264c.264 0 .432.144.432.356 0 .356-.452.732-.872.732-.264 0-.432-.144-.432-.356 0-.356.452-.732.872-.732zm.161 5.47-.2.652c-.12.396-.484 1.02-.872 1.02-.18 0-.348-.108-.348-.276 0-.156.068-.308.208-.308.096 0 .176.08.176.176 0 .12-.152.096-.152.216 0 .04.044.044.092.044h.024c.192 0 .244-.232.292-.432l.272-1.092h-.196c-.044 0-.076-.032-.076-.076s.032-.076.076-.076h.24c.128-.384.472-.764.852-.764.18 0 .348.108.348.276 0 .156-.068.308-.208.308a.174.174 0 0 1-.176-.172c0-.12.152-.1.152-.22 0-.04-.04-.044-.088-.044h-.028c-.248 0-.28.352-.344.616h.22c.044 0 .076.032.076.076s-.032.076-.076.076h-.264zm-9.915-4.926c0-.112.092-.204.204-.204s.204.092.204.204-.092.204-.204.204-.204-.092-.204-.204zm0-1c0-.112.092-.204.204-.204s.204.092.204.204-.092.204-.204.204-.204-.092-.204-.204zm-1.3-.552c.688 0 1.172.352 1.172 1.004 0 1.052-1.052 1.656-2.064 2.084a.049.049 0 0 1-.036.016.053.053 0 0 1-.052-.052c0-.012.004-.024.016-.036.808-.472 1.648-1.06 1.648-1.972 0-.48-.252-.94-.684-.94-.296 0-.516.216-.616.504a.323.323 0 0 1 .136-.032c.22 0 .4.18.4.4 0 .232-.176.424-.4.424-.24 0-.448-.188-.448-.424 0-.532.408-.976.928-.976zm2.8 2.888-.004.264v.044c0 .088.004.176.016.264.18-.152.372-.32.372-.556 0-.132-.056-.268-.172-.268-.124 0-.208.12-.212.252zm-.168.716-.048-2.38c.032-.02.072-.032.108-.032s.076.012.108.032l-.028 1.38a.577.577 0 0 1 .364-.136c.208 0 .356.192.356.408 0 .32-.344.468-.588.676-.06.052-.096.152-.18.152-.052 0-.092-.044-.092-.1zm1.088-2.216-.004.264v.044c0 .088.004.176.016.264.18-.152.372-.32.372-.556 0-.132-.056-.268-.172-.268-.124 0-.208.12-.212.252zm-.168.716-.048-2.38c.032-.02.072-.032.108-.032s.076.012.108.032l-.028 1.38a.577.577 0 0 1 .364-.136c.208 0 .356.192.356.408 0 .32-.344.468-.588.676-.06.052-.096.152-.18.152-.052 0-.092-.044-.092-.1zm1.088 1.284-.004.264v.044c0 .088.004.176.016.264.18-.152.372-.32.372-.556 0-.132-.056-.268-.172-.268-.124 0-.208.12-.212.252zm-.168.716-.048-2.38c.032-.02.072-.032.108-.032s.076.012.108.032l-.028 1.38a.577.577 0 0 1 .364-.136c.208 0 .356.192.356.408 0 .32-.344.468-.588.676-.06.052-.096.152-.18.152-.052 0-.092-.044-.092-.1zm3.01-3.1c.464 0 .704.424.704.652 0 .16-.12.288-.268.288-.124 0-.3-.1-.3-.3 0-.152.108-.308.288-.308.016 0 .036 0 .056.004a.599.599 0 0 0-.48-.236c-.424 0-.452.292-.452.744v.408c0 .452.028.748.452.748.32 0 .556-.28.632-.604.008-.028.028-.04.048-.04.024 0 .052.016.052.048 0 .088-.2.696-.732.696-.236 0-1-.076-1-1.052 0-.248.072-1.048 1-1.048zM16.09 45.308h-.024a.783.783 0 0 1-.78-.788c0-.232.212-.412.448-.412.216 0 .38.188.38.412 0 .208-.172.38-.38.38a.326.326 0 0 1-.124-.024c.104.156.272.26.468.26h.016zm.78-1.728a.69.69 0 0 0 .452-.656.764.764 0 0 0-.692-.76c.076.356.192.968.24 1.416zm-1.548-.924c0 .58.564.988 1.056.988.004 0 .188 0 .328-.024a17.343 17.343 0 0 0-.252-1.456c-.316.032-.496.244-.496.476 0 .176.1.364.324.492.02.02.028.04.028.06 0 .044-.04.088-.088.088-.06 0-.504-.248-.504-.748 0-.352.232-.696.64-.788a15.048 15.048 0 0 0-.184-.7c-.428.484-.852.972-.852 1.612zm.704-2.1c-.116-.384-.208-.68-.208-1.384 0-.46.22-.896.596-1.168a.06.06 0 0 1 .08 0c.272.32.532.98.532 1.432 0 .572-.344 1.02-.72 1.456.084.272.156.552.224.828.008 0 .028-.004.052-.004.62 0 1.024.512 1.024 1.044 0 .452-.296.848-.72.984.012.14.02.28.02.42 0 .076-.004.156-.008.232-.028.476-.352.9-.808.912l.004-.172c.372-.008.612-.368.636-.764a3.775 3.775 0 0 0-.008-.588c-.02.004-.176.032-.356.032-.772 0-1.332-.72-1.332-1.496 0-.708.524-1.224.992-1.764zm.712-1.452c0-.136.004-.264-.08-.516a1.153 1.153 0 0 0-.648 1.036c0 .208.048.46.144.776.32-.388.584-.792.584-1.296zm2.016 2.5-.004.264v.044c0 .088.004.176.016.264.18-.152.372-.32.372-.556 0-.132-.056-.268-.172-.268-.124 0-.208.12-.212.252zm-.168.716-.048-2.38c.032-.02.072-.032.108-.032s.076.012.108.032l-.028 1.38a.577.577 0 0 1 .364-.136c.208 0 .356.192.356.408 0 .32-.344.468-.588.676-.06.052-.096.152-.18.152-.052 0-.092-.044-.092-.1zm1.088-2.216-.004.264v.044c0 .088.004.176.016.264.18-.152.372-.32.372-.556 0-.132-.056-.268-.172-.268-.124 0-.208.12-.212.252zm-.168.716-.048-2.38c.032-.02.072-.032.108-.032s.076.012.108.032l-.028 1.38a.577.577 0 0 1 .364-.136c.208 0 .356.192.356.408 0 .32-.344.468-.588.676-.06.052-.096.152-.18.152-.052 0-.092-.044-.092-.1zm1.088 1.284-.004.264v.044c0 .088.004.176.016.264.18-.152.372-.32.372-.556 0-.132-.056-.268-.172-.268-.124 0-.208.12-.212.252zm-.168.716-.048-2.38c.032-.02.072-.032.108-.032s.076.012.108.032l-.028 1.38a.577.577 0 0 1 .364-.136c.208 0 .356.192.356.408 0 .32-.344.468-.588.676-.06.052-.096.152-.18.152-.052 0-.092-.044-.092-.1zm3.01-2.1c.464 0 .704.424.704.652 0 .16-.12.288-.268.288-.124 0-.3-.1-.3-.3 0-.152.108-.308.288-.308.016 0 .036 0 .056.004a.599.599 0 0 0-.48-.236c-.424 0-.452.292-.452.744v.408c0 .452.028.748.452.748.32 0 .556-.28.632-.604.008-.028.028-.04.048-.04.024 0 .052.016.052.048 0 .088-.2.696-.732.696-.236 0-1-.076-1-1.052 0-.248.072-1.048 1-1.048zm3.572 9.004c.264 0 .432.144.432.356 0 .356-.452.732-.872.732-.264 0-.432-.144-.432-.356 0-.356.452-.732.872-.732zm.161 5.47-.2.652c-.12.396-.484 1.02-.872 1.02-.18 0-.348-.108-.348-.276 0-.156.068-.308.208-.308.096 0 .176.08.176.176 0 .12-.152.096-.152.216 0 .04.044.044.092.044h.024c.192 0 .244-.232.292-.432l.272-1.092h-.196c-.044 0-.076-.032-.076-.076s.032-.076.076-.076h.24c.128-.384.472-.764.852-.764.18 0 .348.108.348.276 0 .156-.068.308-.208.308a.174.174 0 0 1-.176-.172c0-.12.152-.1.152-.22 0-.04-.04-.044-.088-.044h-.028c-.248 0-.28.352-.344.616h.22c.044 0 .076.032.076.076s-.032.076-.076.076h-.264zm-9.915-4.926c0-.112.092-.204.204-.204s.204.092.204.204-.092.204-.204.204-.204-.092-.204-.204zm0-1c0-.112.092-.204.204-.204s.204.092.204.204-.092.204-.204.204-.204-.092-.204-.204zm-1.3-.552c.688 0 1.172.352 1.172 1.004 0 1.052-1.052 1.656-2.064 2.084a.049.049 0 0 1-.036.016.053.053 0 0 1-.052-.052c0-.012.004-.024.016-.036.808-.472 1.648-1.06 1.648-1.972 0-.48-.252-.94-.684-.94-.296 0-.516.216-.616.504a.323.323 0 0 1 .136-.032c.22 0 .4.18.4.4 0 .232-.176.424-.4.424-.24 0-.448-.188-.448-.424 0-.532.408-.976.928-.976zm2.8 2.888-.004.264v.044c0 .088.004.176.016.264.18-.152.372-.32.372-.556 0-.132-.056-.268-.172-.268-.124 0-.208.12-.212.252zm-.168.716-.048-2.38c.032-.02.072-.032.108-.032s.076.012.108.032l-.028 1.38a.577.577 0 0 1 .364-.136c.208 0 .356.192.356.408 0 .32-.344.468-.588.676-.06.052-.096.152-.18.152-.052 0-.092-.044-.092-.1zm1.088-2.216-.004.264v.044c0 .088.004.176.016.264.18-.152.372-.32.372-.556 0-.132-.056-.268-.172-.268-.124 0-.208.12-.212.252zm-.168.716-.048-2.38c.032-.02.072-.032.108-.032s.076.012.108.032l-.028 1.38a.577.577 0 0 1 .364-.136c.208 0 .356.192.356.408 0 .32-.344.468-.588.676-.06.052-.096.152-.18.152-.052 0-.092-.044-.092-.1zm1.088 1.284-.004.264v.044c0 .088.004.176.016.264.18-.152.372-.32.372-.556 0-.132-.056-.268-.172-.268-.124 0-.208.12-.212.252zm-.168.716-.048-2.38c.032-.02.072-.032.108-.032s.076.012.108.032l-.028 1.38a.577.577 0 0 1 .364-.136c.208 0 .356.192.356.408 0 .32-.344.468-.588.676-.06.052-.096.152-.18.152-.052 0-.092-.044-.092-.1zm3.01-3.1c.464 0 .704.424.704.652 0 .16-.12.288-.268.288-.124 0-.3-.1-.3-.3 0-.152.108-.308.288-.308.016 0 .036 0 .056.004a.599.599 0 0 0-.48-.236c-.424 0-.452.292-.452.744v.408c0 .452.028.748.452.748.32 0 .556-.28.632-.604.008-.028.028-.04.048-.04.024 0 .052.016.052.048 0 .088-.2.696-.732.696-.236 0-1-.076-1-1.052 0-.248.072-1.048 1-1.048z"/>
    <rect width=".13" height="5.814" x="-.065" y="-1.5" fill="currentColor" ry=".04" transform="translate(27.376 11.007)"/>
    <rect width=".13" height="4.314" x="-.065" fill="currentColor" ry=".04" transform="translate(27.376 20.007)"/>
    <rect width=".13" height="3.124" x="-.065" y="-.314" fill="currentColor" ry=".04" transform="translate(26.201 31.268)"/>
    <rect width=".13" height="3.124" x="-.065" y="-.314" fill="currentColor" ry=".04" transform="translate(26.201 50.768)"/>
    <path fill="currentColor" stroke="currentColor" stroke-linecap="round" stroke-linejoin="round" stroke-width=".08" d="M110.63 53.378v.4H99.64v-.4z"/>
    <path fill="currentColor" d="M30.338 22.963c.264 0 .432.144.432.356 0 .356-.452.732-.872.732-.264 0-.432-.144-.432-.356 0-.356.452-.732.872-.732zm0 7.261c.264 0 .432.144.432.356 0 .356-.452.732-.872.732-.264 0-.432-.144-.432-.356 0-.356.452-.732.872-.732zm0 19.5c.264 0 .432.144.432.356 0 .356-.452.732-.872.732-.264 0-.432-.144-.432-.356 0-.356.452-.732.872-.732z"/>
    <rect width=".13" height="3.314" x="-.065" fill="currentColor" ry=".04" transform="translate(30.706 20.007)"/>
    <rect width=".13" height="3.124" x="-.065" y="-.314" fill="currentColor" ry=".04" transform="translate(29.532 31.268)"/>
    <rect width=".13" height="3.124" x="-.065" y="-.314" fill="currentColor" ry=".04" transform="translate(29.532 50.768)"/>
    <path fill="currentColor" stroke="currentColor" stroke-linecap="round" stroke-linejoin="round" stroke-width=".08" d="M110.63 33.878v.4H99.64v-.4z"/>
    <path fill="currentColor" d="M33.502 14.963c.264 0 .432.144.432.356 0 .356-.452.732-.872.732-.264 0-.432-.144-.432-.356 0-.356.452-.732.872-.732zm0-2.5c.264 0 .432.144.432.356 0 .356-.452.732-.872.732-.264 0-.432-.144-.432-.356 0-.356.452-.732.872-.732zm0 11.5c.264 0 .432.144.432.356 0 .356-.452.732-.872.732-.264 0-.432-.144-.432-.356 0-.356.452-.732.872-.732zm0 6.261c.264 0 .432.144.432.356 0 .356-.452.732-.872.732-.264 0-.432-.144-.432-.356 0-.356.452-.732.872-.732zm0 19.5c.264 0 .432.144.432.356 0 .356-.452.732-.872.732-.264 0-.432-.144-.432-.356 0-.356.452-.732.872-.732z"/>
    <rect width=".13" height="5.814" x="-.065" y="-1.5" fill="currentColor" ry=".04" transform="translate(33.87 11.007)"/>
    <rect width=".13" height="4.314" x="-.065" fill="currentColor" ry=".04" transform="translate(33.87 20.007)"/>
    <rect width=".13" height="3.124" x="-.065" y="-.314" fill="currentColor" ry=".04" transform="translate(32.695 31.268)"/>
    <rect width=".13" height="3.124" x="-.065" y="-.314" fill="currentColor" ry=".04" transform="translate(32.695 50.768)"/>
    <path fill="currentColor" stroke="currentColor" stroke-linecap="round" stroke-linejoin="round" stroke-width=".08" d="M110.232 17.617v.4l-2.325.38v-.4zm-1.24 1.006v.4l-1.085.184v-.4z"/>
    <path fill="currentColor" d="M36.832 22.963c.264 0 .432.144.432.356 0 .356-.452.732-.872.732-.264 0-.432-.144-.432-.356 0-.356.452-.732.872-.732zm0 7.261c.264 0 .432.144.432.356 0 .356-.452.732-.872.732-.264 0-.432-.144-.432-.356 0-.356.452-.732.872-.732zm0 19.5c.264 0 .432.144.432.356 0 .356-.452.732-.872.732-.264 0-.432-.144-.432-.356 0-.356.452-.732.872-.732z"/>
    <rect width=".13" height="3.314" x="-.065" fill="currentColor" ry=".04" transform="translate(37.2 20.007)"/>
    <rect width=".13" height="3.124" x="-.065" y="-.314" fill="currentColor" ry=".04" transform="translate(36.025 31.268)"/>
    <rect width=".13" height="3.124" x="-.065" y="-.314" fill="currentColor" ry=".04" transform="translate(36.025 50.768)"/>
    <path fill="currentColor" stroke="currentColor" stroke-linecap="round" stroke-linejoin="round" stroke-width=".08" d="M107.818 11.905v.4l-1.085.092v-.4zm1.24.712v.4l-2.325.19v-.4z"/>
    <path fill="currentColor" d="M39.996 12.463c.264 0 .432.144.432.356 0 .356-.452.732-.872.732-.264 0-.432-.144-.432-.356 0-.356.452-.732.872-.732zM38.588 7.8c0 .06.032.12.156.12.04 0 .184-.009.412-.113l.02-.096a.542.542 0 0 0-.324-.116c-.204 0-.264.124-.264.204zm1.084.491c0 .244-.188.46-.392.46-.156 0-.224-.176-.224-.364 0-.056.004-.112.016-.164l.06-.304c-.08.032-.252.1-.404.1-.076 0-.24-.024-.24-.204 0-.152.128-.32.384-.32a.61.61 0 0 1 .328.1l.184-.928c.024.012.052.02.08.02.088 0 .192-.064.272-.14l-.212 1.064.256-.144a.622.622 0 0 1 .296-.08c.116 0 .212.04.256.112a.373.373 0 0 1 .276-.12c.144 0 .276.088.276.276 0 .196-.124.36-.26.36-.1 0-.152-.088-.152-.192 0-.2.148-.256.24-.256h.012c-.032-.056-.092-.08-.152-.08-.096 0-.2.064-.22.172l-.216 1.08c-.044-.028-.096-.044-.152-.044s-.116.016-.172.044l.216-1.08v-.028c0-.064-.048-.104-.116-.104a.236.236 0 0 0-.096.028l-.316.176-.028.124c.108.124.2.268.2.436zm-.24.26c.092 0 .14-.136.14-.244 0-.12-.056-.22-.128-.312l-.02.108c-.016.072-.052.224-.052.332 0 .068.016.116.06.116zm.564 15.412c.264 0 .432.144.432.356 0 .356-.452.732-.872.732-.264 0-.432-.144-.432-.356 0-.356.452-.732.872-.732zm0 6.261c.264 0 .432.144.432.356 0 .356-.452.732-.872.732-.264 0-.432-.144-.432-.356 0-.356.452-.732.872-.732zm0 19.5c.264 0 .432.144.432.356 0 .356-.452.732-.872.732-.264 0-.432-.144-.432-.356 0-.356.452-.732.872-.732zm.882-37.217a.224.224 0 1 1 .447 0 .224.224 0 0 1-.447 0z"/>
    <rect width=".13" height="3.314" x="-.065" y="-1.5" fill="currentColor" ry=".04" transform="translate(40.363 11.007)"/>
    <rect width=".13" height="4.314" x="-.065" fill="currentColor" ry=".04" transform="translate(40.363 20.007)"/>
    <rect width=".13" height="3.124" x="-.065" y="-.314" fill="currentColor" ry=".04" transform="translate(39.189 31.268)"/>
    <rect width=".13" height="3.124" x="-.065" y="-.314" fill="currentColor" ry=".04" transform="translate(39.189 50.768)"/>
    <path fill="currentColor" d="M43.326 22.963c.264 0 .432.144.432.356 0 .356-.452.732-.872.732-.264 0-.432-.144-.432-.356 0-.356.452-.732.872-.732zm0 7.261c.264 0 .432.144.432.356 0 .356-.452.732-.872.732-.264 0-.432-.144-.432-.356 0-.356.452-.732.872-.732zm0 19.5c.264 0 .432.144.432.356 0 .356-.452.732-.872.732-.264 0-.432-.144-.432-.356 0-.356.452-.732.872-.732z"/>
    <rect width=".13" height="3.314" x="-.065" fill="currentColor" ry=".04" transform="translate(43.693 20.007)"/>
    <rect width=".13" height="3.124" x="-.065" y="-.314" fill="currentColor" ry=".04" transform="translate(42.519 31.268)"/>
    <rect width=".13" height="3.124" x="-.065" y="-.314" fill="currentColor" ry=".04" transform="translate(42.519 50.768)"/>
    <path fill="currentColor" d="M46.49 23.963c.263 0 .431.144.431.356 0 .356-.452.732-.872.732-.264 0-.432-.144-.432-.356 0-.356.452-.732.872-.732zm0 6.261c.263 0 .431.144.431.356 0 .356-.452.732-.872.732-.264 0-.432-.144-.432-.356 0-.356.452-.732.872-.732zm0 19.5c.263 0 .431.144.431.356 0 .356-.452.732-.872.732-.264 0-.432-.144-.432-.356 0-.356.452-.732.872-.732z"/>
    <rect width=".13" height="4.314" x="-.065" fill="currentColor" ry=".04" transform="translate(46.856 20.007)"/>
    <rect width=".13" height="3.124" x="-.065" y="-.314" fill="currentColor" ry=".04" transform="translate(45.682 31.268)"/>
    <rect width=".13" height="3.124" x="-.065" y="-.314" fill="currentColor" ry=".04" transform="translate(45.682 50.768)"/>
    <path fill="currentColor" stroke="currentColor" stroke-linecap="round" stroke-linejoin="round" stroke-width=".08" d="M103.139 16.807v.4l-2.326.19v-.4zm-1.241.908v.4l-1.085.092v-.4z"/>
    <path fill="currentColor" d="M49.82 12.963c.263 0 .431.144.431.356 0 .356-.452.732-.872.732-.264 0-.432-.144-.432-.356 0-.356.452-.732.872-.732zm0 10c.263 0 .431.144.431.356 0 .356-.452.732-.872.732-.264 0-.432-.144-.432-.356 0-.356.452-.732.872-.732zm0 7.261c.263 0 .431.144.431.356 0 .356-.452.732-.872.732-.264 0-.432-.144-.432-.356 0-.356.452-.732.872-.732zm0 19.5c.263 0 .431.144.431.356 0 .356-.452.732-.872.732-.264 0-.432-.144-.432-.356 0-.356.452-.732.872-.732z"/>
    <rect width=".13" height="3.129" x="-.065" y="-.815" fill="currentColor" ry=".04" transform="translate(50.187 11.007)"/>
    <rect width=".13" height="3.314" x="-.065" fill="currentColor" ry=".04" transform="translate(50.187 20.007)"/>
    <rect width=".13" height="3.124" x="-.065" y="-.314" fill="currentColor" ry=".04" transform="translate(49.012 31.268)"/>
    <rect width=".13" height="3.124" x="-.065" y="-.314" fill="currentColor" ry=".04" transform="translate(49.012 50.768)"/>
    <path fill="currentColor" stroke="currentColor" stroke-linecap="round" stroke-linejoin="round" stroke-width=".08" d="M100.724 13.347v.4l-1.085.15v-.4zm1.241.65v.4l-2.326.31v-.4z"/>
    <path fill="currentColor" d="M52.095 12.463c.264 0 .432.144.432.356 0 .356-.452.732-.872.732-.264 0-.432-.144-.432-.356 0-.356.452-.732.872-.732z"/>
    <rect width=".13" height="2.809" x="-.065" y="-.995" fill="currentColor" ry=".04" transform="translate(52.462 11.007)"/>
    <path fill="currentColor" d="M55.72 11.963c.264 0 .432.144.432.356 0 .356-.452.732-.872.732-.264 0-.432-.144-.432-.356 0-.356.452-.732.872-.732zm-28.712 3c.264 0 .432.144.432.356 0 .356-.452.732-.872.732-.264 0-.432-.144-.432-.356 0-.356.452-.732.872-.732zm28.712 8.5c.264 0 .432.144.432.356 0 .356-.452.732-.872.732-.264 0-.432-.144-.432-.356 0-.356.452-.732.872-.732zm0 6.761c.264 0 .432.144.432.356 0 .356-.452.732-.872.732-.264 0-.432-.144-.432-.356 0-.356.452-.732.872-.732z"/>
    <path fill="currentColor" stroke="currentColor" stroke-linecap="round" stroke-linejoin="round" stroke-width=".08" d="M107.41 22.552c.711.499 1.749.339 2.276-.35h0c-.546.57-1.583.73-2.275.35z"/>
    <path fill="currentColor" d="M55.72 49.724c.264 0 .432.144.432.356 0 .356-.452.732-.872.732-.264 0-.432-.144-.432-.356 0-.356.452-.732.872-.732zm44.645-8.332h-1.42c-.024 0-.04-.016-.04-.04v-.544c0-.024.016-.04.04-.04h1.42c.024 0 .04.016.04.04v.544c0 .024-.016.04-.04.04zM55.304 55.308c-.097 0-.102.088-.102.202s.005.2.102.2c.1 0 .12-.083.12-.2s-.02-.202-.12-.202zm-.102-.069a.198.198 0 0 1 .102-.026c.226 0 .39.09.39.297s-.164.295-.39.295c-.251 0-.388-.273-.388-.55 0-.284.17-.55.434-.55.165 0 .31.114.31.27a.128.128 0 0 1-.255 0c0-.046.077-.05.077-.096 0-.058-.068-.08-.132-.08-.134 0-.152.132-.152.284 0 .05.004.106.004.156zm-.028.964c.022 0 .09.033.158.033.07 0 .139-.033.168-.033.033 0 .057.024.057.046a.028.028 0 0 1-.01.022l-.58.64h.295v-.009c0-.132.11-.09.165-.187.015-.024.018-.053.03-.079.007-.015.023-.022.038-.022.024 0 .053.018.053.055v.242h.154c.04 0 .06.03.06.06s-.02.059-.06.059h-.154c.004.099.08.18.176.18.03 0 .048.022.048.046s-.017.049-.048.049c-.108 0-.211-.031-.32-.031s-.213.03-.32.03c-.031 0-.047-.023-.047-.048s.016-.046.047-.046c.096 0 .173-.081.178-.18h-.295c-.095 0-.125-.055-.125-.093 0-.01.002-.022.006-.026a.97.97 0 0 0 .27-.64c0-.038.025-.068.056-.068z"/>
    <rect width=".13" height="3.334" x="-.065" y="-2.02" fill="currentColor" ry=".04" transform="translate(56.087 11.007)"/>
    <rect width=".13" height="3.814" x="-.065" fill="currentColor" ry=".04" transform="translate(56.087 20.007)"/>
    <rect width=".13" height="3.124" x="-.065" y="-.314" fill="currentColor" ry=".04" transform="translate(54.913 31.268)"/>
    <rect width=".13" height="3.124" x="-.065" y="-.314" fill="currentColor" ry=".04" transform="translate(54.913 50.768)"/>
    <rect width=".16" height="43.861" y="-21.93" fill="currentColor" ry=".05" transform="translate(14.166 30.888)"/>
    <path fill="currentColor" stroke="currentColor" stroke-linecap="round" stroke-linejoin="round" stroke-width=".08" d="M107.279 8.812c.528-.689 1.565-.848 2.275-.35h0c-.692-.38-1.73-.22-2.275.35z"/>
    <path fill="currentColor" d="M58.246 10.963c.264 0 .432.144.432.356 0 .356-.452.732-.872.732-.264 0-.432-.144-.432-.356 0-.356.452-.732.872-.732zm.882.544a.224.224 0 1 1 .447 0 .224.224 0 0 1-.447 0z"/>
    <rect width=".13" height="3.104" x="-.065" y="-2.79" fill="currentColor" ry=".04" transform="translate(58.613 11.007)"/>
    <path fill="currentColor" d="M59.817 22.463c.264 0 .432.144.432.356 0 .356-.452.732-.872.732-.264 0-.432-.144-.432-.356 0-.356.452-.732.872-.732zm0 7.761c.264 0 .432.144.432.356 0 .356-.452.732-.872.732-.264 0-.432-.144-.432-.356 0-.356.452-.732.872-.732zm0 19.5c.264 0 .432.144.432.356 0 .356-.452.732-.872.732-.264 0-.432-.144-.432-.356 0-.356.452-.732.872-.732z"/>
    <rect width=".13" height="2.814" x="-.065" fill="currentColor" ry=".04" transform="translate(60.184 20.007)"/>
    <rect width=".13" height="3.124" x="-.065" y="-.314" fill="currentColor" ry=".04" transform="translate(59.01 31.268)"/>
    <rect width=".13" height="3.124" x="-.065" y="-.314" fill="currentColor" ry=".04" transform="translate(59.01 50.768)"/>
    <path fill="currentColor" d="M63.064 12.963c.264 0 .432.144.432.356 0 .356-.452.732-.872.732-.264 0-.432-.144-.432-.356 0-.356.452-.732.872-.732zm0 10c.264 0 .432.144.432.356 0 .356-.452.732-.872.732-.264 0-.432-.144-.432-.356 0-.356.452-.732.872-.732zm0 7.261c.264 0 .432.144.432.356 0 .356-.452.732-.872.732-.264 0-.432-.144-.432-.356 0-.356.452-.732.872-.732zm0 19.5c.264 0 .432.144.432.356 0 .356-.452.732-.872.732-.264 0-.432-.144-.432-.356 0-.356.452-.732.872-.732zm.067 5.04c0 .053-.317.396-.317.812 0 .101.018.158.018.174 0 .03-.026.057-.055.057-.024 0-.092-.033-.16-.033-.07 0-.137.033-.163.033-.031 0-.055-.024-.055-.05 0-.01.07-.227.404-.713a.293.293 0 0 1-.061.006c-.134 0-.143-.099-.224-.099-.069 0-.115.123-.115.17 0 .04-.03.059-.06.059s-.059-.02-.059-.06v-.356c0-.04.031-.06.06-.06s.06.02.06.06v.035c0 .022.03.042.047.042.02 0 .08-.13.196-.13s.141.11.227.11c.112 0 .14-.116.196-.116.03 0 .061.026.061.06zm-.695 2.396c-.132 0-.086.145-.158.145-.025 0-.049-.016-.049-.046 0-.34.51-.357.51-.735 0-.11-.037-.225-.134-.225-.072 0-.143.033-.143.097 0 .053.069.082.069.134a.134.134 0 1 1-.269 0c0-.182.156-.325.343-.325.216 0 .418.12.418.319 0 .308-.288.339-.495.45.187.005.25.135.363.135.1 0 .062-.09.126-.09.024 0 .05.017.05.046 0 .064-.107.24-.319.24-.202 0-.21-.145-.312-.145z"/>
    <rect width=".13" height="3.334" x="-.065" y="-1.02" fill="currentColor" ry=".04" transform="translate(63.431 11.007)"/>
    <rect width=".13" height="3.314" x="-.065" fill="currentColor" ry=".04" transform="translate(63.431 20.007)"/>
    <rect width=".13" height="3.124" x="-.065" y="-.314" fill="currentColor" ry=".04" transform="translate(62.257 31.268)"/>
    <rect width=".13" height="3.124" x="-.065" y="-.314" fill="currentColor" ry=".04" transform="translate(62.257 50.768)"/>
    <path fill="currentColor" stroke="currentColor" stroke-linecap="round" stroke-linejoin="round" stroke-width=".08" d="M96.442 53.378v.4h-9.79v-.4z"/>
    <path fill="currentColor" d="M65.59 11.963c.263 0 .431.144.431.356 0 .356-.452.732-.872.732-.264 0-.432-.144-.432-.356 0-.356.452-.732.872-.732zm.882.544a.224.224 0 1 1 .447 0 .224.224 0 0 1-.447 0z"/>
    <rect width=".13" height="3.104" x="-.065" y="-1.79" fill="currentColor" ry=".04" transform="translate(65.957 11.007)"/>
    <path fill="currentColor" stroke="currentColor" stroke-linecap="round" stroke-linejoin="round" stroke-width=".08" d="M96.442 33.878v.4h-9.79v-.4z"/>
    <path fill="currentColor" d="M67.16 23.463c.265 0 .433.144.433.356 0 .356-.452.732-.872.732-.264 0-.432-.144-.432-.356 0-.356.452-.732.872-.732zm0 6.761c.265 0 .433.144.433.356 0 .356-.452.732-.872.732-.264 0-.432-.144-.432-.356 0-.356.452-.732.872-.732zm0 19.5c.265 0 .433.144.433.356 0 .356-.452.732-.872.732-.264 0-.432-.144-.432-.356 0-.356.452-.732.872-.732z"/>
    <rect width=".13" height="3.814" x="-.065" fill="currentColor" ry=".04" transform="translate(67.528 20.007)"/>
    <rect width=".13" height="3.124" x="-.065" y="-.314" fill="currentColor" ry=".04" transform="translate(66.354 31.268)"/>
    <rect width=".13" height="3.124" x="-.065" y="-.314" fill="currentColor" ry=".04" transform="translate(66.354 50.768)"/>
    <path fill="currentColor" stroke="currentColor" stroke-linecap="round" stroke-linejoin="round" stroke-width=".08" d="M97.617 16.997v.4h-9.79v-.4z"/>
    <path fill="currentColor" d="M70.407 12.463c.264 0 .432.144.432.356 0 .356-.452.732-.872.732-.264 0-.432-.144-.432-.356 0-.356.452-.732.872-.732zm0 11.5c.264 0 .432.144.432.356 0 .356-.452.732-.872.732-.264 0-.432-.144-.432-.356 0-.356.452-.732.872-.732zm0 6.261c.264 0 .432.144.432.356 0 .356-.452.732-.872.732-.264 0-.432-.144-.432-.356 0-.356.452-.732.872-.732zm0 19.5c.264 0 .432.144.432.356 0 .356-.452.732-.872.732-.264 0-.432-.144-.432-.356 0-.356.452-.732.872-.732zm-.689 4.981c.018 0 .152.03.288.03.119 0 .293-.032.295-.032.037 0 .06.026.06.048 0 .029-.194.22-.515.22a.069.069 0 0 0-.069.068v.09c.055-.055.139-.055.216-.055h.009c.253 0 .4.121.4.366 0 .217-.211.365-.444.365-.194 0-.372-.115-.372-.293a.128.128 0 0 1 .255 0c0 .049-.079.057-.079.106 0 .079.103.092.196.092.114 0 .16-.138.16-.27 0-.117-.015-.247-.116-.247-.293 0-.19.097-.282.097a.06.06 0 0 1-.061-.06v-.46c0-.037.026-.065.059-.065zm.469 2.127c0 .119.184.088.184.275 0 .207-.182.31-.409.31-.185 0-.35-.119-.35-.292a.128.128 0 0 1 .256 0c0 .048-.08.057-.08.105 0 .073.09.093.174.093.09 0 .126-.11.126-.216v-.046c0-.097-.007-.17-.097-.17h-.143c-.04 0-.06-.03-.06-.059s.02-.06.06-.06h.143c.092 0 .097-.078.097-.182v-.024c0-.095-.044-.154-.135-.154-.072 0-.15.02-.15.083 0 .042.069.051.069.093a.11.11 0 1 1-.222 0c0-.156.14-.27.303-.27.205 0 .383.067.383.248 0 .207-.15.147-.15.266z"/>
    <rect width=".13" height="3.314" x="-.065" y="-1.5" fill="currentColor" ry=".04" transform="translate(70.775 11.007)"/>
    <rect width=".13" height="4.317" x="-.065" y="-.004" fill="currentColor" ry=".04" transform="translate(70.775 20.007)"/>
    <rect width=".13" height="3.124" x="-.065" y="-.314" fill="currentColor" ry=".04" transform="translate(69.6 31.268)"/>
    <rect width=".13" height="3.124" x="-.065" y="-.314" fill="currentColor" ry=".04" transform="translate(69.6 50.768)"/>
    <path fill="currentColor" d="M73.738 22.963c.264 0 .432.144.432.356 0 .356-.452.732-.872.732-.264 0-.432-.144-.432-.356 0-.356.452-.732.872-.732zm0 7.261c.264 0 .432.144.432.356 0 .356-.452.732-.872.732-.264 0-.432-.144-.432-.356 0-.356.452-.732.872-.732zm0 19.5c.264 0 .432.144.432.356 0 .356-.452.732-.872.732-.264 0-.432-.144-.432-.356 0-.356.452-.732.872-.732z"/>
    <rect width=".13" height="3.5" x="-.065" y="-.186" fill="currentColor" ry=".04" transform="translate(74.105 20.007)"/>
    <rect width=".13" height="3.124" x="-.065" y="-.314" fill="currentColor" ry=".04" transform="translate(72.93 31.268)"/>
    <rect width=".13" height="3.124" x="-.065" y="-.314" fill="currentColor" ry=".04" transform="translate(72.93 50.768)"/>
    <path fill="currentColor" d="M77.068 12.463c.264 0 .432.144.432.356 0 .356-.452.732-.872.732-.264 0-.432-.144-.432-.356 0-.356.452-.732.872-.732zm0 9c.264 0 .432.144.432.356 0 .356-.452.732-.872.732-.264 0-.432-.144-.432-.356 0-.356.452-.732.872-.732zm0 8.761c.264 0 .432.144.432.356 0 .356-.452.732-.872.732-.264 0-.432-.144-.432-.356 0-.356.452-.732.872-.732zm0 19.5c.264 0 .432.144.432.356 0 .356-.452.732-.872.732-.264 0-.432-.144-.432-.356 0-.356.452-.732.872-.732z"/>
    <rect width=".13" height="3.821" x="-.065" y="-2.008" fill="currentColor" ry=".04" transform="translate(77.435 11.007)"/>
    <rect width=".13" height="2.626" x="-.065" y="-.812" fill="currentColor" ry=".04" transform="translate(77.435 20.007)"/>
    <rect width=".13" height="3.124" x="-.065" y="-.314" fill="currentColor" ry=".04" transform="translate(76.26 31.268)"/>
    <rect width=".13" height="3.124" x="-.065" y="-.314" fill="currentColor" ry=".04" transform="translate(76.26 50.768)"/>
    <path fill="currentColor" d="M79.343 11.963c.264 0 .432.144.432.356 0 .356-.452.732-.872.732-.264 0-.432-.144-.432-.356 0-.356.452-.732.872-.732zm0 10c.264 0 .432.144.432.356 0 .356-.452.732-.872.732-.264 0-.432-.144-.432-.356 0-.356.452-.732.872-.732z"/>
    <rect width=".13" height="3.586" x="-.065" y="-2.272" fill="currentColor" ry=".04" transform="translate(79.71 11.007)"/>
    <rect width=".13" height="3.188" x="-.065" y="-.874" fill="currentColor" ry=".04" transform="translate(79.71 20.007)"/>
    <path fill="currentColor" stroke="currentColor" stroke-linecap="round" stroke-linejoin="round" stroke-width=".08" d="M100.37 22.202c.786.414 1.828.116 2.276-.65h0c-.48.651-1.523.949-2.275.65z"/>
    <path fill="currentColor" d="M81.619 11.463c.264 0 .432.144.432.356 0 .356-.452.732-.872.732-.264 0-.432-.144-.432-.356 0-.356.452-.732.872-.732zm0 10c.264 0 .432.144.432.356 0 .356-.452.732-.872.732-.264 0-.432-.144-.432-.356 0-.356.452-.732.872-.732zm0 8.761c.264 0 .432.144.432.356 0 .356-.452.732-.872.732-.264 0-.432-.144-.432-.356 0-.356.452-.732.872-.732zm0 19.5c.264 0 .432.144.432.356 0 .356-.452.732-.872.732-.264 0-.432-.144-.432-.356 0-.356.452-.732.872-.732z"/>
    <rect width=".13" height="3.351" x="-.065" y="-2.538" fill="currentColor" ry=".04" transform="translate(81.986 11.007)"/>
    <rect width=".13" height="2.75" x="-.065" y="-.936" fill="currentColor" ry=".04" transform="translate(81.986 20.007)"/>
    <rect width=".13" height="3.124" x="-.065" y="-.314" fill="currentColor" ry=".04" transform="translate(80.812 31.268)"/>
    <rect width=".13" height="3.124" x="-.065" y="-.314" fill="currentColor" ry=".04" transform="translate(80.812 50.768)"/>
    <path fill="currentColor" stroke="currentColor" stroke-linecap="round" stroke-linejoin="round" stroke-width=".08" d="M100.185 9.823c.528-.653 1.565-.813 2.276-.35h0c-.692-.344-1.73-.185-2.276.35z"/>
    <path fill="currentColor" d="M83.894 10.963c.264 0 .432.144.432.356 0 .356-.452.732-.872.732-.264 0-.432-.144-.432-.356 0-.356.452-.732.872-.732zm0 10c.264 0 .432.144.432.356 0 .356-.452.732-.872.732-.264 0-.432-.144-.432-.356 0-.356.452-.732.872-.732z"/>
    <rect width=".13" height="3.116" x="-.065" y="-2.802" fill="currentColor" ry=".04" transform="translate(84.261 11.007)"/>
    <rect width=".13" height="2.312" x="-.065" y="-.998" fill="currentColor" ry=".04" transform="translate(84.261 20.007)"/>
    <path fill="currentColor" stroke="currentColor" stroke-linecap="round" stroke-linejoin="round" stroke-width=".08" d="M93.711 21.155c.745.698 2.334.87 3.247.35h0c-.9.4-2.49.229-3.247-.35zM80.837 53.378v.4H69.575v-.4z"/>
    <path fill="currentColor" d="M87.484 10.463c.264 0 .432.144.432.356 0 .356-.452.732-.872.732-.264 0-.432-.144-.432-.356 0-.356.452-.732.872-.732zM13.542 47.732c0-1.02-.528-1.452-.528-1.464 0-.072.528-.384.528-1.464 0-1.044-.432-1.956-.432-3.12 0-.756.18-1.464.708-2.004.06-.06.156.036.096.096-.396.396-.516.9-.516 1.44 0 1.02.408 1.92.408 3.06 0 .744-.18 1.452-.696 1.992.516.54.696 1.248.696 1.992 0 1.14-.408 2.04-.408 3.06 0 .54.12 1.044.516 1.44.06.06-.036.156-.096.096-.528-.54-.708-1.248-.708-2.004 0-1.164.432-2.076.432-3.12zm73.942-27.269c.264 0 .432.144.432.356 0 .356-.452.732-.872.732-.264 0-.432-.144-.432-.356 0-.356.452-.732.872-.732z"/>
    <text fill="currentColor" font-family="serif" font-size="2.2" transform="translate(3.258 47.015)">
<tspan>Cembalo</tspan>
</text>
    <path fill="currentColor" d="M87.484 30.224c.264 0 .432.144.432.356 0 .356-.452.732-.872.732-.264 0-.432-.144-.432-.356 0-.356.452-.732.872-.732zm0 19.5c.264 0 .432.144.432.356 0 .356-.452.732-.872.732-.264 0-.432-.144-.432-.356 0-.356.452-.732.872-.732z"/>
    <rect width=".13" height="3.147" x="-.065" y=".186" fill="currentColor" ry=".04" transform="translate(86.677 11.007)"/>
    <rect width=".13" height="3.624" x="-.065" y="-2.81" fill="currentColor" ry=".04" transform="translate(87.851 20.007)"/>
    <path fill="currentColor" d="M39.646 41.392h-1.42c-.024 0-.04-.016-.04-.04v-.544c0-.024.016-.04.04-.04h1.42c.024 0 .04.016.04.04v.544c0 .024-.016.04-.04.04z"/>
    <rect width=".13" height="3.124" x="-.065" y="-.314" fill="currentColor" ry=".04" transform="translate(86.677 31.268)"/>
    <path fill="currentColor" d="M12.916 8.956v-.348c0-.056.044-.1.1-.1h.2c.636 0 1.084-.544 1.448-1.08.048-.068.152.004.104.072-.396.576-.86 1.456-1.552 1.456h-.3zm0 24.363h.3c.692 0 1.156.88 1.552 1.456.048.068-.056.14-.104.072-.364-.536-.812-1.08-1.448-1.08h-.2a.099.099 0 0 1-.1-.1v-.348z"/>
    <rect width=".45" height="24.451" y="-12.225" fill="currentColor" ry="0" transform="translate(12.916 21.138)"/>
    <rect width=".13" height="3.124" x="-.065" y="-.314" fill="currentColor" ry=".04" transform="translate(86.677 50.768)"/>
    <path fill="currentColor" stroke="currentColor" stroke-linecap="round" stroke-linejoin="round" stroke-width=".08" d="M80.837 33.878v.4H69.575v-.4z"/>
    <path fill="currentColor" d="M90.647 21.463c.264 0 .432.144.432.356 0 .356-.452.732-.872.732-.264 0-.432-.144-.432-.356 0-.356.452-.732.872-.732zm0 8.761c.264 0 .432.144.432.356 0 .356-.452.732-.872.732-.264 0-.432-.144-.432-.356 0-.356.452-.732.872-.732zm0 19.5c.264 0 .432.144.432.356 0 .356-.452.732-.872.732-.264 0-.432-.144-.432-.356 0-.356.452-.732.872-.732z"/>
    <rect width=".13" height="4.624" x="-.065" y="-2.81" fill="currentColor" ry=".04" transform="translate(91.015 20.007)"/>
    <rect width=".13" height="3.124" x="-.065" y="-.314" fill="currentColor" ry=".04" transform="translate(89.84 31.268)"/>
    <rect width=".13" height="3.124" x="-.065" y="-.314" fill="currentColor" ry=".04" transform="translate(89.84 50.768)"/>
    <path fill="currentColor" stroke="currentColor" stroke-linecap="round" stroke-linejoin="round" stroke-width=".08" d="M84.286 18.807v.4l-6.876.19v-.4zm0 .81v.4l-6.876.19v-.4z"/>
    <path fill="currentColor" d="M93.978 10.463c.264 0 .432.144.432.356 0 .356-.452.732-.872.732-.264 0-.432-.144-.432-.356 0-.356.452-.732.872-.732zm0 9c.264 0 .432.144.432.356 0 .356-.452.732-.872.732-.264 0-.432-.144-.432-.356 0-.356.452-.732.872-.732zm0 10.761c.264 0 .432.144.432.356 0 .356-.452.732-.872.732-.264 0-.432-.144-.432-.356 0-.356.452-.732.872-.732zm0 19.5c.264 0 .432.144.432.356 0 .356-.452.732-.872.732-.264 0-.432-.144-.432-.356 0-.356.452-.732.872-.732z"/>
    <rect width=".13" height="3.147" x="-.065" y=".186" fill="currentColor" ry=".04" transform="translate(93.17 11.007)"/>
    <rect width=".13" height="2.624" x="-.065" y="-2.81" fill="currentColor" ry=".04" transform="translate(94.345 20.007)"/>
    <rect width=".13" height="3.124" x="-.065" y="-.314" fill="currentColor" ry=".04" transform="translate(93.17 31.268)"/>
    <rect width=".13" height="3.124" x="-.065" y="-.314" fill="currentColor" ry=".04" transform="translate(93.17 50.768)"/>
    <path fill="currentColor" stroke="currentColor" stroke-linecap="round" stroke-linejoin="round" stroke-width=".08" d="M84.286 7.997v.4l-6.876.81v-.4zm0 .81v.4l-6.876.81v-.4z"/>
    <path fill="currentColor" d="M97.224 19.963c.264 0 .432.144.432.356 0 .356-.452.732-.872.732-.264 0-.432-.144-.432-.356 0-.356.452-.732.872-.732zm0 10.261c.264 0 .432.144.432.356 0 .356-.452.732-.872.732-.264 0-.432-.144-.432-.356 0-.356.452-.732.872-.732zm0 19.5c.264 0 .432.144.432.356 0 .356-.452.732-.872.732-.264 0-.432-.144-.432-.356 0-.356.452-.732.872-.732z"/>
    <rect width=".13" height="3.124" x="-.065" y="-2.81" fill="currentColor" ry=".04" transform="translate(97.591 20.007)"/>
    <rect width=".13" height="3.124" x="-.065" y="-.314" fill="currentColor" ry=".04" transform="translate(96.417 31.268)"/>
    <rect width=".13" height="3.124" x="-.065" y="-.314" fill="currentColor" ry=".04" transform="translate(96.417 50.768)"/>
    <path fill="currentColor" d="M100.471 10.463c.264 0 .432.144.432.356 0 .356-.452.732-.872.732-.264 0-.432-.144-.432-.356 0-.356.452-.732.872-.732zm0 10c.264 0 .432.144.432.356 0 .356-.452.732-.872.732-.264 0-.432-.144-.432-.356 0-.356.452-.732.872-.732zm0 9.761c.264 0 .432.144.432.356 0 .356-.452.732-.872.732-.264 0-.432-.144-.432-.356 0-.356.452-.732.872-.732zm0 19.5c.264 0 .432.144.432.356 0 .356-.452.732-.872.732-.264 0-.432-.144-.432-.356 0-.356.452-.732.872-.732zm-.416 6.594c-.097 0-.102.088-.102.202s.005.2.101.2c.102 0 .122-.083.122-.2s-.02-.202-.122-.202zm-.102-.069a.198.198 0 0 1 .102-.026c.226 0 .389.09.389.297s-.163.295-.39.295c-.25 0-.387-.273-.387-.55 0-.284.17-.55.434-.55.165 0 .31.114.31.27a.128.128 0 0 1-.255 0c0-.046.077-.05.077-.096 0-.058-.068-.08-.132-.08-.134 0-.152.132-.152.284 0 .05.004.106.004.156zm-.028.964c.022 0 .09.033.158.033.07 0 .139-.033.167-.033.033 0 .057.024.057.046a.028.028 0 0 1-.008.022l-.581.64h.295v-.009c0-.132.11-.09.165-.187.015-.024.017-.053.03-.079.007-.015.023-.022.038-.022.024 0 .053.018.053.055v.242h.154c.04 0 .06.03.06.06s-.02.059-.06.059h-.154c.004.099.079.18.176.18.03 0 .048.022.048.046s-.017.049-.048.049c-.108 0-.211-.031-.32-.031s-.213.03-.32.03c-.031 0-.047-.023-.047-.048s.016-.046.047-.046c.096 0 .173-.081.178-.18h-.295c-.095 0-.125-.055-.125-.093 0-.01.002-.022.006-.026a.97.97 0 0 0 .27-.64c0-.038.025-.068.056-.068z"/>
    <rect width=".13" height="3.305" x="-.065" y=".186" fill="currentColor" ry=".04" transform="translate(99.664 11.007)"/>
    <rect width=".13" height="3.629" x="-.065" y="-2.815" fill="currentColor" ry=".04" transform="translate(100.838 20.007)"/>
    <rect width=".13" height="3.124" x="-.065" y="-.314" fill="currentColor" ry=".04" transform="translate(99.664 31.268)"/>
    <rect width=".13" height="3.124" x="-.065" y="-.314" fill="currentColor" ry=".04" transform="translate(99.664 50.768)"/>
    <path fill="currentColor" d="M102.747 9.963c.264 0 .432.144.432.356 0 .356-.452.732-.872.732-.264 0-.432-.144-.432-.356 0-.356.452-.732.872-.732zm0 10c.264 0 .432.144.432.356 0 .356-.452.732-.872.732-.264 0-.432-.144-.432-.356 0-.356.452-.732.872-.732zm.882-9.456a.224.224 0 1 1 .447 0 .224.224 0 0 1-.447 0z"/>
    <rect width=".13" height="3.512" x="-.065" y="-.314" fill="currentColor" ry=".04" transform="translate(101.94 11.007)"/>
    <path fill="currentColor" d="M103.629 20.507a.224.224 0 1 1 .447 0 .224.224 0 0 1-.447 0z"/>
    <rect width=".13" height="3.309" x="-.065" y="-2.995" fill="currentColor" ry=".04" transform="translate(103.114 20.007)"/>
    <path fill="currentColor" stroke="currentColor" stroke-linecap="round" stroke-linejoin="round" stroke-width=".08" d="M87.151 22.202c.603.978 2.152 1.394 3.164.85h0c-.98.428-2.53.012-3.164-.85z"/>
    <path fill="currentColor" d="M104.318 30.224c.264 0 .432.144.432.356 0 .356-.452.732-.872.732-.264 0-.432-.144-.432-.356 0-.356.452-.732.872-.732zm0 19.5c.264 0 .432.144.432.356 0 .356-.452.732-.872.732-.264 0-.432-.144-.432-.356 0-.356.452-.732.872-.732z"/>
    <rect width=".13" height="3.124" x="-.065" y="-.314" fill="currentColor" ry=".04" transform="translate(103.51 31.268)"/>
    <rect width=".13" height="3.124" x="-.065" y="-.314" fill="currentColor" ry=".04" transform="translate(103.51 50.768)"/>
    <path fill="currentColor" stroke="currentColor" stroke-linecap="round" stroke-linejoin="round" stroke-width=".08" d="M74.13 19.617v.4l-3.38.19v-.4z"/>
    <path fill="currentColor" d="M107.565 9.463c.264 0 .432.144.432.356 0 .356-.452.732-.872.732-.264 0-.432-.144-.432-.356 0-.356.452-.732.872-.732zm0 11.5c.264 0 .432.144.432.356 0 .356-.452.732-.872.732-.264 0-.432-.144-.432-.356 0-.356.452-.732.872-.732zm0 9.261c.264 0 .432.144.432.356 0 .356-.452.732-.872.732-.264 0-.432-.144-.432-.356 0-.356.452-.732.872-.732zm0 19.5c.264 0 .432.144.432.356 0 .356-.452.732-.872.732-.264 0-.432-.144-.432-.356 0-.356.452-.732.872-.732zm.067 6.05c0 .053-.317.396-.317.812 0 .101.018.158.018.174 0 .03-.026.057-.055.057-.024 0-.093-.033-.16-.033-.071 0-.137.033-.163.033-.031 0-.056-.024-.056-.05 0-.01.07-.227.405-.713a.293.293 0 0 1-.061.006c-.135 0-.143-.099-.225-.099-.068 0-.114.123-.114.17 0 .04-.03.059-.06.059s-.059-.02-.059-.06v-.356c0-.04.03-.06.06-.06s.059.02.059.06v.035c0 .022.03.042.048.042.02 0 .08-.13.196-.13s.14.11.227.11c.112 0 .14-.116.195-.116.031 0 .062.026.062.06zm-.695 2.396c-.132 0-.086.145-.158.145-.025 0-.049-.016-.049-.046 0-.34.51-.357.51-.735 0-.11-.037-.225-.134-.225-.072 0-.143.033-.143.097 0 .053.069.082.069.134a.134.134 0 1 1-.269 0c0-.182.156-.325.343-.325.216 0 .418.12.418.319 0 .308-.288.339-.495.45.187.005.249.135.363.135.1 0 .062-.09.126-.09.024 0 .05.017.05.046 0 .064-.108.24-.319.24-.202 0-.21-.145-.312-.145z"/>
    <rect width=".13" height="2.809" x="-.065" y="-.814" fill="currentColor" ry=".04" transform="translate(106.758 11.007)"/>
    <rect width=".13" height="3.134" x="-.065" y="-1.82" fill="currentColor" ry=".04" transform="translate(107.932 20.007)"/>
    <rect width=".13" height="3.124" x="-.065" y="-.314" fill="currentColor" ry=".04" transform="translate(106.758 31.268)"/>
    <rect width=".13" height="3.124" x="-.065" y="-.314" fill="currentColor" ry=".04" transform="translate(106.758 50.768)"/>
    <path stroke="currentColor" stroke-linecap="round" stroke-linejoin="round" stroke-width=".1" d="M70.657 56.856H81.64"/>
    <path fill="currentColor" d="M109.84 8.963c.264 0 .432.144.432.356 0 .356-.452.732-.872.732-.264 0-.432-.144-.432-.356 0-.356.452-.732.872-.732zm0 11.5c.264 0 .432.144.432.356 0 .356-.452.732-.872.732-.264 0-.432-.144-.432-.356 0-.356.452-.732.872-.732zm.882-10.956a.224.224 0 1 1 .448 0 .224.224 0 0 1-.448 0z"/>
    <rect width=".13" height="3.129" x="-.065" y="-1.314" fill="currentColor" ry=".04" transform="translate(109.033 11.007)"/>
    <path fill="currentColor" d="M110.722 20.507a.224.224 0 1 1 .448 0 .224.224 0 0 1-.448 0z"/>
    <rect width=".13" height="2.994" x="-.065" y="-2.18" fill="currentColor" ry=".04" transform="translate(110.207 20.007)"/>
    <path stroke="currentColor" stroke-linecap="round" stroke-linejoin="round" stroke-width=".1" d="M70.657 55.242H81.64"/>
    <path fill="currentColor" d="M111.412 30.224c.263 0 .431.144.431.356 0 .356-.451.732-.871.732-.264 0-.432-.144-.432-.356 0-.356.451-.732.871-.732zm0 19.5c.263 0 .431.144.431.356 0 .356-.451.732-.871.732-.264 0-.432-.144-.432-.356 0-.356.451-.732.871-.732z"/>
    <rect width=".13" height="3.124" x="-.065" y="-.314" fill="currentColor" ry=".04" transform="translate(110.605 31.268)"/>
    <rect width=".13" height="3.124" x="-.065" y="-.314" fill="currentColor" ry=".04" transform="translate(110.605 50.768)"/>
    <path fill="currentColor" stroke="currentColor" stroke-linecap="round" stroke-linejoin="round" stroke-width=".08" d="M66.379 53.378v.4h-11.49v-.4z"/>
    <text fill="currentColor" font-family="serif" font-size="2.2" transform="translate(4.607 31.981)">
<tspan>Basso</tspan>
</text>
    <path fill="currentColor" d="M12.292 16.971c0-1.02-.528-1.452-.528-1.464 0-.072.528-.384.528-1.464 0-1.044-.432-1.956-.432-3.12 0-.756.18-1.464.708-2.004.06-.06.156.036.096.096-.396.396-.516.9-.516 1.44 0 1.02.408 1.92.408 3.06 0 .744-.18 1.452-.696 1.992.516.54.696 1.248.696 1.992 0 1.14-.408 2.04-.408 3.06 0 .54.12 1.044.516 1.44.06.06-.036.156-.096.096-.528-.54-.708-1.248-.708-2.004 0-1.164.432-2.076.432-3.12z"/>
    <text fill="currentColor" font-family="serif" font-size="2.2" transform="translate(2.934 20.754)">
<tspan>Violino II</tspan>
</text>
    <text fill="currentColor" font-family="serif" font-size="2.2" transform="translate(3.31 11.754)">
<tspan>Violino I</tspan>
</text>
    <path fill="currentColor" stroke="currentColor" stroke-linecap="round" stroke-linejoin="round" stroke-width=".08" d="M37.224 19.807v.4h-9.873v-.4zM36.05 33.878v.4h-9.874v-.4zm0 19.5v.4h-9.874v-.4zm19.61-39.826c.92.371 2.11-.1 2.526-1h0c-.46.79-1.65 1.26-2.526 1z"/>
    <path fill="currentColor" d="M70.422 41.392h-1.42c-.024 0-.04-.016-.04-.04v-.544c0-.024.016-.04.04-.04h1.42c.024 0 .04.016.04.04v.544c0 .024-.016.04-.04.04z"/>
    <path fill="currentColor" stroke="currentColor" stroke-linecap="round" stroke-linejoin="round" stroke-width=".08" d="M52.487 9.807v.4l-2.326.19v-.4zm0 .81v.4l-2.326.19v-.4zm-2.275 9.19v.4h-9.874v-.4zm-1.175 14.071v.4h-9.873v-.4zm0 19.5v.4h-9.873v-.4zm13.967-38.826c.92.371 2.109-.1 2.526-1h0c-.461.79-1.65 1.26-2.526 1zm-4.366-6.555v.4l-2.575.81v-.4zm-1.49 1.265v.4l-1.086.355v-.4zm8.834-.265v.4l-2.576.81v-.4zm-1.491 1.265v.4l-1.085.355v-.4zm3.062 9.545v.4h-11.49v-.4zm-1.174 14.071v.4h-11.49v-.4z"/>
</svg>
