<svg xmlns="http://www.w3.org/2000/svg" xmlns:xlink="http://www.w3.org/1999/xlink" width="793.701" height="416.239" version="1.2" viewBox="0 0 119.502 62.669">
    <defs>
        <path id="reuse-0" fill="currentColor" d="M218 136c66 0 108-36 108-89 0-89-113-183-218-183C42-136 0-100 0-47c0 89 113 183 218 183z"/>
        <path id="reuse-1" fill="currentColor" d="M266-635h-6c-108 0-195 88-195 197 0 58 53 103 112 103 54 0 95-47 95-103 0-52-43-95-95-95-11 0-21 2-31 6 26-39 68-65 117-65h4zm195 432c68 24 113 90 113 164 0 90-66 179-173 190 19-89 48-242 60-354zM74 28c0-145 141-247 264-247 1 0 47 0 82 6-7 64-29 203-63 364-79-8-124-61-124-119 0-44 25-91 81-123 5-5 7-10 7-15 0-11-10-22-22-22-15 0-126 62-126 187 0 88 58 174 160 197-14 58-29 117-46 175C180 310 74 188 74 28zm176 525c-29 96-52 170-52 346 0 115 55 224 149 292 6 5 14 5 20 0 68-80 133-245 133-358 0-143-86-255-180-364 21-68 39-138 56-207 2 0 7 1 13 1 155 0 256-128 256-261 0-113-74-212-180-246 3-35 5-70 5-105 0-19-1-39-2-58-7-119-88-225-202-228l1 43c93 2 153 92 159 191 1 18 2 37 2 55 0 31-1 61-4 92-5-1-44-8-89-8C142-262 2-82 2 112c0 177 131 306 248 441zm178 363c0 34 1 66-20 129-99-48-162-149-162-259 0-52 12-115 36-194 80 97 146 198 146 324z"/>
        <path id="reuse-2" fill="currentColor" d="m27 41-1-66v-11c0-22 1-44 4-66 45 38 93 80 93 139 0 33-14 67-43 67-31 0-52-30-53-63zm-42-179-12 595c8 5 18 8 27 8s19-3 27-8l-7-345c25 21 58 34 91 34 52 0 89-48 89-102 0-80-86-117-147-169-15-13-24-38-45-38-13 0-23 11-23 25z"/>
        <path id="reuse-3" fill="currentColor" d="M250 262c116 0 176-106 176-163 0-40-30-72-67-72-31 0-75 25-75 75 0 38 27 77 72 77 4 0 9 0 14-1-28 37-72 59-120 59-106 0-113-73-113-186V-51c0-113 7-187 113-187 80 0 139 70 158 151 2 7 7 10 12 10 6 0 13-4 13-12 0-22-50-174-183-174C191-263 0-244 0 0c0 62 18 262 250 262z"/>
        <path id="reuse-4" fill="currentColor" d="M253 245 203 82C173-17 82-173-15-173c-45 0-87 27-87 69 0 39 17 77 52 77 24 0 44-20 44-44 0-30-38-24-38-54 0-10 11-11 23-11h6c48 0 61 58 73 108l68 273H77c-11 0-19 8-19 19s8 19 19 19h60c32 96 118 191 213 191 45 0 87-27 87-69 0-39-17-77-52-77-24 0-44 19-44 43 0 30 38 25 38 55 0 10-10 11-22 11h-7c-62 0-70-88-86-154h55c11 0 19-8 19-19s-8-19-19-19h-66z"/>
        <path id="reuse-5" fill="currentColor" d="M557-125c0 28 23 51 51 51s51-23 51-51-23-51-51-51-51 23-51 51zm0 250c0 28 23 51 51 51s51-23 51-51-23-51-51-51-51 23-51 51zM232 263c172 0 293-88 293-251 0-263-263-414-516-521-3-3-6-4-9-4-7 0-13 6-13 13 0 3 1 6 4 9C193-373 403-226 403 2c0 120-63 235-171 235-74 0-129-54-154-126 11 5 22 8 34 8 55 0 100-45 100-100 0-58-44-106-100-106C52-87 0-40 0 19c0 133 102 244 232 244z"/>
        <path id="reuse-6" fill="currentColor" d="M0 0c0 31 25 56 56 56s56-25 56-56-25-56-56-56S0-31 0 0z"/>
        <path id="reuse-7" fill="currentColor" d="M365-156H10c-6 0-10 4-10 10v136C0-4 4 0 10 0h355c6 0 10-4 10-10v-136c0-6-4-10-10-10z"/>
        <path id="reuse-8" fill="currentColor" d="M207 226c-44 0-46-40-46-92s2-91 46-91c46 0 55 38 55 91s-9 92-55 92zm-46 31c14 8 29 12 46 12 103 0 177-41 177-135S310 0 207 0C93 0 31 124 31 250c0 129 77 250 197 250 75 0 141-52 141-123 0-32-26-58-58-58s-58 26-58 58c0 21 35 23 35 44 0 26-31 36-60 36-61 0-69-60-69-129 0-23 2-48 2-71z"/>
        <path id="reuse-9" fill="currentColor" d="M148 501c10 0 41-15 72-15 32 0 63 15 76 15 15 0 26-11 26-21 0-4-1-7-4-10L54 179h134v4c0 60 50 41 75 85 7 11 8 24 14 36 3 7 10 10 17 10 11 0 24-8 24-25V179h70c18 0 27-14 27-27s-9-27-27-27h-70c2-45 36-82 80-82 14 0 22-10 22-21s-8-22-22-22c-49 0-96 14-145 14S156 0 107 0C93 0 86 11 86 22s7 21 21 21c44 0 79 37 81 82H54c-43 0-57 25-57 42 0 5 1 10 3 12 73 81 123 182 123 291 0 17 11 31 25 31z"/>
        <path id="reuse-10" fill="currentColor" d="M427 473c0-24-144-180-144-369 0-46 8-72 8-79 0-14-12-26-25-26-11 0-42 15-73 15-32 0-62-15-74-15-14 0-25 11-25 23 0 4 32 103 184 324-9-2-19-3-28-3-61 0-65 45-102 45-31 0-52-56-52-77 0-18-14-27-27-27s-27 9-27 27v162c0 18 14 27 27 27s27-9 27-27v-16c0-10 14-19 22-19 9 0 36 59 89 59s64-50 103-50c51 0 64 53 89 53 14 0 28-12 28-27z"/>
        <path id="reuse-11" fill="currentColor" d="M111 66C51 66 72 0 39 0 28 0 17 7 17 21c0 154 232 162 232 334 0 50-17 102-61 102-33 0-65-15-65-44 0-24 31-37 31-61 0-34-27-61-61-61s-61 27-61 61c0 83 71 148 156 148 98 0 190-55 190-145 0-140-131-154-225-205 85-2 113-61 165-61 45 0 28 41 57 41 11 0 23-8 23-21C398 80 349 0 253 0c-92 0-96 66-142 66z"/>
        <path id="reuse-12" fill="currentColor" d="M-81-366C-81-111-213-3-213 0c0 18 132 96 132 366 0 261-108 489-108 780 0 189 45 366 177 501 15 15 39-9 24-24-99-99-129-225-129-360 0-255 102-480 102-765 0-186-45-363-174-498C-60-135-15-312-15-498c0-285-102-510-102-765 0-135 30-261 129-360 15-15-9-39-24-24-132 135-177 312-177 501 0 291 108 519 108 780z"/>
    </defs>
    <style>
        tspan{white-space:pre}
    </style>
    <text fill="currentColor" font-family="serif" font-size="2.47" font-weight="bold" transform="translate(5.69 5.514)">
<tspan>Allegro</tspan>
</text>
    <rect width="1.956" height=".2" x="26.613" y="-.1" fill="currentColor" ry=".1" transform="translate(5.69 14.007)"/>
    <rect width="1.956" height=".2" x="26.613" y="-.1" fill="currentColor" ry=".1" transform="translate(5.69 15.007)"/>
    <rect width="1.956" height=".2" x="20.12" y="-.1" fill="currentColor" ry=".1" transform="translate(5.69 14.007)"/>
    <rect width="1.956" height=".2" x="20.12" y="-.1" fill="currentColor" ry=".1" transform="translate(5.69 15.007)"/>
    <path stroke="currentColor" stroke-linecap="round" stroke-linejoin="round" stroke-width=".1" d="M14.276 13.007h99.485m-99.485-1h99.485m-99.485-1h99.485m-99.485-1h99.485m-99.485-1h99.485"/>
    <rect width=".19" height="4.95" y="37.271" fill="currentColor" ry="0" transform="translate(113.621 6.547)"/>
    <rect width=".19" height="7.211" y="15.51" fill="currentColor" ry="0" transform="translate(113.621 6.547)"/>
    <rect width=".19" height="4.95" y="6.51" fill="currentColor" ry="0" transform="translate(113.621 6.547)"/>
    <rect width="1.956" height=".2" x="66.849" y="-.1" fill="currentColor" ry=".1" transform="translate(5.69 23.007)"/>
    <rect width="1.956" height=".2" x="63.519" y="-.1" fill="currentColor" ry=".1" transform="translate(5.69 23.007)"/>
    <rect width="1.956" height=".2" x="63.519" y="-.1" fill="currentColor" ry=".1" transform="translate(5.69 24.007)"/>
    <rect width="1.956" height=".2" x="60.272" y="-.1" fill="currentColor" ry=".1" transform="translate(5.69 23.007)"/>
    <rect width="1.956" height=".2" x="60.272" y="-.1" fill="currentColor" ry=".1" transform="translate(5.69 24.007)"/>
    <rect width="1.956" height=".2" x="56.175" y="-.1" fill="currentColor" ry=".1" transform="translate(5.69 23.007)"/>
    <rect width="1.956" height=".2" x="52.928" y="-.1" fill="currentColor" ry=".1" transform="translate(5.69 23.007)"/>
    <rect width="1.956" height=".2" x="48.832" y="-.1" fill="currentColor" ry=".1" transform="translate(5.69 23.007)"/>
    <rect width="1.956" height=".2" x="48.832" y="-.1" fill="currentColor" ry=".1" transform="translate(5.69 24.007)"/>
    <rect width="1.956" height=".2" x="42.931" y="-.1" fill="currentColor" ry=".1" transform="translate(5.69 23.007)"/>
    <rect width="1.956" height=".2" x="39.601" y="-.1" fill="currentColor" ry=".1" transform="translate(5.69 23.007)"/>
    <rect width="1.956" height=".2" x="39.601" y="-.1" fill="currentColor" ry=".1" transform="translate(5.69 24.007)"/>
    <rect width="1.956" height=".2" x="36.437" y="-.1" fill="currentColor" ry=".1" transform="translate(5.69 23.007)"/>
    <rect width="1.956" height=".2" x="33.107" y="-.1" fill="currentColor" ry=".1" transform="translate(5.69 23.007)"/>
    <rect width="1.956" height=".2" x="33.107" y="-.1" fill="currentColor" ry=".1" transform="translate(5.69 24.007)"/>
    <rect width="1.956" height=".2" x="29.944" y="-.1" fill="currentColor" ry=".1" transform="translate(5.69 23.007)"/>
    <rect width="1.956" height=".2" x="26.613" y="-.1" fill="currentColor" ry=".1" transform="translate(5.69 23.007)"/>
    <rect width="1.956" height=".2" x="26.613" y="-.1" fill="currentColor" ry=".1" transform="translate(5.69 24.007)"/>
    <rect width="1.956" height=".2" x="23.45" y="-.1" fill="currentColor" ry=".1" transform="translate(5.69 23.007)"/>
    <rect width="1.956" height=".2" x="20.12" y="-.1" fill="currentColor" ry=".1" transform="translate(5.69 23.007)"/>
    <rect width="1.956" height=".2" x="20.12" y="-.1" fill="currentColor" ry=".1" transform="translate(5.69 24.007)"/>
    <path stroke="currentColor" stroke-linecap="round" stroke-linejoin="round" stroke-width=".1" d="M14.276 22.007h99.485m-99.485-1h99.485m-99.485-1h99.485m-99.485-1h99.485m-99.485-1h99.485"/>
    <rect width=".19" height="4.95" y="6.51" fill="currentColor" ry="0" transform="translate(113.621 6.547)"/>
    <rect width=".19" height="4.05" y="-2.05" fill="currentColor" ry="0" transform="translate(113.621 50.768)"/>
    <rect width=".19" height="4.05" y="-2" fill="currentColor" ry="0" transform="translate(113.621 41.768)"/>
    <rect width=".19" height="4.05" y="-2.05" fill="currentColor" ry="0" transform="translate(113.621 31.268)"/>
    <path stroke="currentColor" stroke-linecap="round" stroke-linejoin="round" stroke-width=".1" d="M14.276 33.268h99.485m-99.485-1h99.485m-99.485-1h99.485m-99.485-1h99.485m-99.485-1h99.485"/>
    <rect width=".19" height="4.1" y="-2.05" fill="currentColor" ry="0" transform="translate(113.621 20.007)"/>
    <rect width=".19" height="4.05" y="-2" fill="currentColor" ry="0" transform="translate(113.621 11.007)"/>
    <rect width=".19" height="4.95" y="37.271" fill="currentColor" ry="0" transform="translate(85.499 6.547)"/>
    <rect width=".19" height="7.211" y="15.51" fill="currentColor" ry="0" transform="translate(85.499 6.547)"/>
    <rect width=".19" height="4.95" y="6.51" fill="currentColor" ry="0" transform="translate(85.499 6.547)"/>
    <rect width=".19" height="4.95" y="6.51" fill="currentColor" ry="0" transform="translate(85.499 6.547)"/>
    <path stroke="currentColor" stroke-linecap="round" stroke-linejoin="round" stroke-width=".1" d="M14.276 43.768h99.485m-99.485-1h99.485m-99.485-1h99.485m-99.485-1h99.485m-99.485-1h99.485"/>
    <rect width=".19" height="4.05" y="-2.05" fill="currentColor" ry="0" transform="translate(85.499 50.768)"/>
    <path stroke="currentColor" stroke-linecap="round" stroke-linejoin="round" stroke-width=".1" d="M14.276 52.768h99.485m-99.485-1h99.485m-99.485-1h99.485m-99.485-1h99.485m-99.485-1h99.485"/>
    <rect width=".19" height="4.05" y="-2" fill="currentColor" ry="0" transform="translate(85.499 41.768)"/>
    <rect width=".19" height="4.05" y="-2.05" fill="currentColor" ry="0" transform="translate(85.499 31.268)"/>
    <rect width=".19" height="4.1" y="-2.05" fill="currentColor" ry="0" transform="translate(85.499 20.007)"/>
    <rect width=".19" height="4.05" y="-2" fill="currentColor" ry="0" transform="translate(85.499 11.007)"/>
    <rect width=".19" height="4.95" y="37.271" fill="currentColor" ry="0" transform="translate(53.735 6.547)"/>
    <rect width=".19" height="7.211" y="15.51" fill="currentColor" ry="0" transform="translate(53.735 6.547)"/>
    <rect width=".19" height="4.95" y="6.51" fill="currentColor" ry="0" transform="translate(53.735 6.547)"/>
    <rect width=".19" height="4.95" y="6.51" fill="currentColor" ry="0" transform="translate(53.735 6.547)"/>
    <rect width=".19" height="4.05" y="-2.05" fill="currentColor" ry="0" transform="translate(53.735 50.768)"/>
    <rect width=".19" height="4.05" y="-2" fill="currentColor" ry="0" transform="translate(53.735 41.768)"/>
    <rect width=".19" height="4.05" y="-2.05" fill="currentColor" ry="0" transform="translate(53.735 31.268)"/>
    <rect width=".19" height="4.1" y="-2.05" fill="currentColor" ry="0" transform="translate(53.735 20.007)"/>
    <rect width=".19" height="4.05" y="-2" fill="currentColor" ry="0" transform="translate(53.735 11.007)"/>
    <use xlink:href="#reuse-0" transform="matrix(.004 0 0 -.004 26.136 13.007)"/>
    <use xlink:href="#reuse-1" transform="matrix(.004 0 0 -.004 15.026 12.007)"/>
    <use xlink:href="#reuse-2" transform="matrix(.004 0 0 -.004 18.646 11.007)"/>
    <use xlink:href="#reuse-2" transform="matrix(.004 0 0 -.004 19.566 9.507)"/>
    <use xlink:href="#reuse-2" transform="matrix(.004 0 0 -.004 20.486 11.507)"/>
    <use xlink:href="#reuse-3" transform="matrix(.004 0 0 -.004 22.436 11.007)"/>
    <use xlink:href="#reuse-0" transform="matrix(.004 0 0 -.004 26.136 24.507)"/>
    <use xlink:href="#reuse-4" transform="matrix(.004 0 0 -.004 26.157 27.526)"/>
    <use xlink:href="#reuse-1" transform="matrix(.004 0 0 -.004 15.026 21.007)"/>
    <use xlink:href="#reuse-2" transform="matrix(.004 0 0 -.004 18.646 20.007)"/>
    <use xlink:href="#reuse-2" transform="matrix(.004 0 0 -.004 19.566 18.507)"/>
    <use xlink:href="#reuse-2" transform="matrix(.004 0 0 -.004 20.486 20.507)"/>
    <use xlink:href="#reuse-3" transform="matrix(.004 0 0 -.004 22.436 20.007)"/>
    <use xlink:href="#reuse-0" transform="matrix(.004 0 0 -.004 26.136 30.768)"/>
    <use xlink:href="#reuse-4" transform="matrix(.004 0 0 -.004 26.157 36.674)"/>
    <use xlink:href="#reuse-5" transform="matrix(.004 0 0 -.004 15.026 30.268)"/>
    <use xlink:href="#reuse-2" transform="matrix(.004 0 0 -.004 18.646 32.268)"/>
    <use xlink:href="#reuse-2" transform="matrix(.004 0 0 -.004 19.566 30.768)"/>
    <use xlink:href="#reuse-2" transform="matrix(.004 0 0 -.004 20.486 32.768)"/>
    <use xlink:href="#reuse-3" transform="matrix(.004 0 0 -.004 22.436 31.268)"/>
    <use xlink:href="#reuse-1" transform="matrix(.004 0 0 -.004 15.026 42.768)"/>
    <use xlink:href="#reuse-2" transform="matrix(.004 0 0 -.004 18.646 41.768)"/>
    <use xlink:href="#reuse-2" transform="matrix(.004 0 0 -.004 19.566 40.268)"/>
    <use xlink:href="#reuse-2" transform="matrix(.004 0 0 -.004 20.486 42.268)"/>
    <use xlink:href="#reuse-3" transform="matrix(.004 0 0 -.004 22.436 41.768)"/>
    <use xlink:href="#reuse-0" transform="matrix(.004 0 0 -.004 26.136 50.268)"/>
    <use xlink:href="#reuse-4" transform="matrix(.004 0 0 -.004 26.157 56.174)"/>
    <use xlink:href="#reuse-5" transform="matrix(.004 0 0 -.004 15.026 49.768)"/>
    <use xlink:href="#reuse-2" transform="matrix(.004 0 0 -.004 18.646 51.768)"/>
    <use xlink:href="#reuse-2" transform="matrix(.004 0 0 -.004 19.566 50.268)"/>
    <use xlink:href="#reuse-2" transform="matrix(.004 0 0 -.004 20.486 52.268)"/>
    <use xlink:href="#reuse-3" transform="matrix(.004 0 0 -.004 22.436 50.768)"/>
    <rect width=".13" height="5.814" x="-.065" y="-1.5" fill="currentColor" ry=".04" transform="translate(27.376 11.007)"/>
    <rect width=".13" height="4.314" x="-.065" fill="currentColor" ry=".04" transform="translate(27.376 20.007)"/>
    <rect width=".13" height="3.124" x="-.065" y="-.314" fill="currentColor" ry=".04" transform="translate(26.201 31.268)"/>
    <rect width=".13" height="3.124" x="-.065" y="-.314" fill="currentColor" ry=".04" transform="translate(26.201 50.768)"/>
    <path fill="currentColor" stroke="currentColor" stroke-linecap="round" stroke-linejoin="round" stroke-width=".08" d="M110.63 53.378v.4H99.64v-.4z"/>
    <use xlink:href="#reuse-0" transform="matrix(.004 0 0 -.004 29.466 23.507)"/>
    <use xlink:href="#reuse-0" transform="matrix(.004 0 0 -.004 29.466 30.768)"/>
    <use xlink:href="#reuse-0" transform="matrix(.004 0 0 -.004 29.466 50.268)"/>
    <rect width=".13" height="3.314" x="-.065" fill="currentColor" ry=".04" transform="translate(30.706 20.007)"/>
    <rect width=".13" height="3.124" x="-.065" y="-.314" fill="currentColor" ry=".04" transform="translate(29.532 31.268)"/>
    <rect width=".13" height="3.124" x="-.065" y="-.314" fill="currentColor" ry=".04" transform="translate(29.532 50.768)"/>
    <path fill="currentColor" stroke="currentColor" stroke-linecap="round" stroke-linejoin="round" stroke-width=".08" d="M110.63 33.878v.4H99.64v-.4z"/>
    <use xlink:href="#reuse-0" transform="matrix(.004 0 0 -.004 32.63 15.507)"/>
    <use xlink:href="#reuse-0" transform="matrix(.004 0 0 -.004 32.63 13.007)"/>
    <use xlink:href="#reuse-0" transform="matrix(.004 0 0 -.004 32.63 24.507)"/>
    <use xlink:href="#reuse-0" transform="matrix(.004 0 0 -.004 32.63 30.768)"/>
    <use xlink:href="#reuse-0" transform="matrix(.004 0 0 -.004 32.63 50.268)"/>
    <rect width=".13" height="5.814" x="-.065" y="-1.5" fill="currentColor" ry=".04" transform="translate(33.87 11.007)"/>
    <rect width=".13" height="4.314" x="-.065" fill="currentColor" ry=".04" transform="translate(33.87 20.007)"/>
    <rect width=".13" height="3.124" x="-.065" y="-.314" fill="currentColor" ry=".04" transform="translate(32.695 31.268)"/>
    <rect width=".13" height="3.124" x="-.065" y="-.314" fill="currentColor" ry=".04" transform="translate(32.695 50.768)"/>
    <path fill="currentColor" stroke="currentColor" stroke-linecap="round" stroke-linejoin="round" stroke-width=".08" d="M110.232 17.617v.4l-2.325.38v-.4zm-1.24 1.006v.4l-1.085.184v-.4z"/>
    <use xlink:href="#reuse-0" transform="matrix(.004 0 0 -.004 35.96 23.507)"/>
    <use xlink:href="#reuse-0" transform="matrix(.004 0 0 -.004 35.96 30.768)"/>
    <use xlink:href="#reuse-0" transform="matrix(.004 0 0 -.004 35.96 50.268)"/>
    <rect width=".13" height="3.314" x="-.065" fill="currentColor" ry=".04" transform="translate(37.2 20.007)"/>
    <rect width=".13" height="3.124" x="-.065" y="-.314" fill="currentColor" ry=".04" transform="translate(36.025 31.268)"/>
    <rect width=".13" height="3.124" x="-.065" y="-.314" fill="currentColor" ry=".04" transform="translate(36.025 50.768)"/>
    <path fill="currentColor" stroke="currentColor" stroke-linecap="round" stroke-linejoin="round" stroke-width=".08" d="M107.818 11.905v.4l-1.085.092v-.4zm1.24.712v.4l-2.325.19v-.4z"/>
    <use xlink:href="#reuse-0" transform="matrix(.004 0 0 -.004 39.124 13.007)"/>
    <path fill="currentColor" d="M38.588 7.8c0 .06.032.12.156.12.04 0 .184-.009.412-.113l.02-.096a.542.542 0 0 0-.324-.116c-.204 0-.264.124-.264.204zm1.084.491c0 .244-.188.46-.392.46-.156 0-.224-.176-.224-.364 0-.056.004-.112.016-.164l.06-.304c-.08.032-.252.1-.404.1-.076 0-.24-.024-.24-.204 0-.152.128-.32.384-.32a.61.61 0 0 1 .328.1l.184-.928c.024.012.052.02.08.02.088 0 .192-.064.272-.14l-.212 1.064.256-.144a.622.622 0 0 1 .296-.08c.116 0 .212.04.256.112a.373.373 0 0 1 .276-.12c.144 0 .276.088.276.276 0 .196-.124.36-.26.36-.1 0-.152-.088-.152-.192 0-.2.148-.256.24-.256h.012c-.032-.056-.092-.08-.152-.08-.096 0-.2.064-.22.172l-.216 1.08c-.044-.028-.096-.044-.152-.044s-.116.016-.172.044l.216-1.08v-.028c0-.064-.048-.104-.116-.104a.236.236 0 0 0-.096.028l-.316.176-.028.124c.108.124.2.268.2.436zm-.24.26c.092 0 .14-.136.14-.244 0-.12-.056-.22-.128-.312l-.02.108c-.016.072-.052.224-.052.332 0 .068.016.116.06.116z"/>
    <use xlink:href="#reuse-0" transform="matrix(.004 0 0 -.004 39.124 24.507)"/>
    <use xlink:href="#reuse-0" transform="matrix(.004 0 0 -.004 39.124 30.768)"/>
    <use xlink:href="#reuse-0" transform="matrix(.004 0 0 -.004 39.124 50.268)"/>
    <use xlink:href="#reuse-6" transform="matrix(.004 0 0 -.004 40.878 12.507)"/>
    <rect width=".13" height="3.314" x="-.065" y="-1.5" fill="currentColor" ry=".04" transform="translate(40.363 11.007)"/>
    <rect width=".13" height="4.314" x="-.065" fill="currentColor" ry=".04" transform="translate(40.363 20.007)"/>
    <rect width=".13" height="3.124" x="-.065" y="-.314" fill="currentColor" ry=".04" transform="translate(39.189 31.268)"/>
    <rect width=".13" height="3.124" x="-.065" y="-.314" fill="currentColor" ry=".04" transform="translate(39.189 50.768)"/>
    <use xlink:href="#reuse-0" transform="matrix(.004 0 0 -.004 42.454 23.507)"/>
    <use xlink:href="#reuse-0" transform="matrix(.004 0 0 -.004 42.454 30.768)"/>
    <use xlink:href="#reuse-0" transform="matrix(.004 0 0 -.004 42.454 50.268)"/>
    <rect width=".13" height="3.314" x="-.065" fill="currentColor" ry=".04" transform="translate(43.693 20.007)"/>
    <rect width=".13" height="3.124" x="-.065" y="-.314" fill="currentColor" ry=".04" transform="translate(42.519 31.268)"/>
    <rect width=".13" height="3.124" x="-.065" y="-.314" fill="currentColor" ry=".04" transform="translate(42.519 50.768)"/>
    <use xlink:href="#reuse-0" transform="matrix(.004 0 0 -.004 45.617 24.507)"/>
    <use xlink:href="#reuse-0" transform="matrix(.004 0 0 -.004 45.617 30.768)"/>
    <use xlink:href="#reuse-0" transform="matrix(.004 0 0 -.004 45.617 50.268)"/>
    <rect width=".13" height="4.314" x="-.065" fill="currentColor" ry=".04" transform="translate(46.856 20.007)"/>
    <rect width=".13" height="3.124" x="-.065" y="-.314" fill="currentColor" ry=".04" transform="translate(45.682 31.268)"/>
    <rect width=".13" height="3.124" x="-.065" y="-.314" fill="currentColor" ry=".04" transform="translate(45.682 50.768)"/>
    <path fill="currentColor" stroke="currentColor" stroke-linecap="round" stroke-linejoin="round" stroke-width=".08" d="M103.139 16.807v.4l-2.326.19v-.4zm-1.241.908v.4l-1.085.092v-.4z"/>
    <use xlink:href="#reuse-0" transform="matrix(.004 0 0 -.004 48.947 13.507)"/>
    <use xlink:href="#reuse-0" transform="matrix(.004 0 0 -.004 48.947 23.507)"/>
    <use xlink:href="#reuse-0" transform="matrix(.004 0 0 -.004 48.947 30.768)"/>
    <use xlink:href="#reuse-0" transform="matrix(.004 0 0 -.004 48.947 50.268)"/>
    <rect width=".13" height="3.129" x="-.065" y="-.815" fill="currentColor" ry=".04" transform="translate(50.187 11.007)"/>
    <rect width=".13" height="3.314" x="-.065" fill="currentColor" ry=".04" transform="translate(50.187 20.007)"/>
    <rect width=".13" height="3.124" x="-.065" y="-.314" fill="currentColor" ry=".04" transform="translate(49.012 31.268)"/>
    <rect width=".13" height="3.124" x="-.065" y="-.314" fill="currentColor" ry=".04" transform="translate(49.012 50.768)"/>
    <path fill="currentColor" stroke="currentColor" stroke-linecap="round" stroke-linejoin="round" stroke-width=".08" d="M100.724 13.347v.4l-1.085.15v-.4zm1.241.65v.4l-2.326.31v-.4z"/>
    <use xlink:href="#reuse-0" transform="matrix(.004 0 0 -.004 51.223 13.007)"/>
    <rect width=".13" height="2.809" x="-.065" y="-.995" fill="currentColor" ry=".04" transform="translate(52.462 11.007)"/>
    <use xlink:href="#reuse-0" transform="matrix(.004 0 0 -.004 54.848 12.507)"/>
    <use xlink:href="#reuse-0" transform="matrix(.004 0 0 -.004 26.136 15.507)"/>
    <use xlink:href="#reuse-0" transform="matrix(.004 0 0 -.004 54.848 24.007)"/>
    <use xlink:href="#reuse-0" transform="matrix(.004 0 0 -.004 54.848 30.768)"/>
    <path fill="currentColor" stroke="currentColor" stroke-linecap="round" stroke-linejoin="round" stroke-width=".08" d="M107.41 22.552c.711.499 1.749.339 2.276-.35h0c-.546.57-1.583.73-2.275.35z"/>
    <use xlink:href="#reuse-0" transform="matrix(.004 0 0 -.004 54.848 50.268)"/>
    <use xlink:href="#reuse-7" transform="matrix(.004 0 0 -.004 98.905 40.768)"/>
    <use xlink:href="#reuse-8" transform="matrix(.0022 0 0 -.0022 54.848 55.805)"/>
    <use xlink:href="#reuse-9" transform="matrix(.0022 0 0 -.0022 54.848 57.305)"/>
    <rect width=".13" height="3.334" x="-.065" y="-2.02" fill="currentColor" ry=".04" transform="translate(56.087 11.007)"/>
    <rect width=".13" height="3.814" x="-.065" fill="currentColor" ry=".04" transform="translate(56.087 20.007)"/>
    <rect width=".13" height="3.124" x="-.065" y="-.314" fill="currentColor" ry=".04" transform="translate(54.913 31.268)"/>
    <rect width=".13" height="3.124" x="-.065" y="-.314" fill="currentColor" ry=".04" transform="translate(54.913 50.768)"/>
    <rect width=".16" height="43.861" y="-21.93" fill="currentColor" ry=".05" transform="translate(14.166 30.888)"/>
    <path fill="currentColor" stroke="currentColor" stroke-linecap="round" stroke-linejoin="round" stroke-width=".08" d="M107.279 8.812c.528-.689 1.565-.848 2.275-.35h0c-.692-.38-1.73-.22-2.275.35z"/>
    <use xlink:href="#reuse-0" transform="matrix(.004 0 0 -.004 57.374 11.507)"/>
    <use xlink:href="#reuse-6" transform="matrix(.004 0 0 -.004 59.128 11.507)"/>
    <rect width=".13" height="3.104" x="-.065" y="-2.79" fill="currentColor" ry=".04" transform="translate(58.613 11.007)"/>
    <use xlink:href="#reuse-0" transform="matrix(.004 0 0 -.004 58.945 23.007)"/>
    <use xlink:href="#reuse-0" transform="matrix(.004 0 0 -.004 58.945 30.768)"/>
    <use xlink:href="#reuse-0" transform="matrix(.004 0 0 -.004 58.945 50.268)"/>
    <rect width=".13" height="2.814" x="-.065" fill="currentColor" ry=".04" transform="translate(60.184 20.007)"/>
    <rect width=".13" height="3.124" x="-.065" y="-.314" fill="currentColor" ry=".04" transform="translate(59.01 31.268)"/>
    <rect width=".13" height="3.124" x="-.065" y="-.314" fill="currentColor" ry=".04" transform="translate(59.01 50.768)"/>
    <use xlink:href="#reuse-0" transform="matrix(.004 0 0 -.004 62.192 13.507)"/>
    <use xlink:href="#reuse-0" transform="matrix(.004 0 0 -.004 62.192 23.507)"/>
    <use xlink:href="#reuse-0" transform="matrix(.004 0 0 -.004 62.192 30.768)"/>
    <use xlink:href="#reuse-0" transform="matrix(.004 0 0 -.004 62.192 50.268)"/>
    <use xlink:href="#reuse-10" transform="matrix(.0022 0 0 -.0022 62.192 55.805)"/>
    <use xlink:href="#reuse-11" transform="matrix(.0022 0 0 -.0022 62.192 57.305)"/>
    <rect width=".13" height="3.334" x="-.065" y="-1.02" fill="currentColor" ry=".04" transform="translate(63.431 11.007)"/>
    <rect width=".13" height="3.314" x="-.065" fill="currentColor" ry=".04" transform="translate(63.431 20.007)"/>
    <rect width=".13" height="3.124" x="-.065" y="-.314" fill="currentColor" ry=".04" transform="translate(62.257 31.268)"/>
    <rect width=".13" height="3.124" x="-.065" y="-.314" fill="currentColor" ry=".04" transform="translate(62.257 50.768)"/>
    <path fill="currentColor" stroke="currentColor" stroke-linecap="round" stroke-linejoin="round" stroke-width=".08" d="M96.442 53.378v.4h-9.79v-.4z"/>
    <use xlink:href="#reuse-0" transform="matrix(.004 0 0 -.004 64.717 12.507)"/>
    <use xlink:href="#reuse-6" transform="matrix(.004 0 0 -.004 66.472 12.507)"/>
    <rect width=".13" height="3.104" x="-.065" y="-1.79" fill="currentColor" ry=".04" transform="translate(65.957 11.007)"/>
    <path fill="currentColor" stroke="currentColor" stroke-linecap="round" stroke-linejoin="round" stroke-width=".08" d="M96.442 33.878v.4h-9.79v-.4z"/>
    <use xlink:href="#reuse-0" transform="matrix(.004 0 0 -.004 66.289 24.007)"/>
    <use xlink:href="#reuse-0" transform="matrix(.004 0 0 -.004 66.289 30.768)"/>
    <use xlink:href="#reuse-0" transform="matrix(.004 0 0 -.004 66.289 50.268)"/>
    <rect width=".13" height="3.814" x="-.065" fill="currentColor" ry=".04" transform="translate(67.528 20.007)"/>
    <rect width=".13" height="3.124" x="-.065" y="-.314" fill="currentColor" ry=".04" transform="translate(66.354 31.268)"/>
    <rect width=".13" height="3.124" x="-.065" y="-.314" fill="currentColor" ry=".04" transform="translate(66.354 50.768)"/>
    <path fill="currentColor" stroke="currentColor" stroke-linecap="round" stroke-linejoin="round" stroke-width=".08" d="M97.617 16.997v.4h-9.79v-.4z"/>
    <use xlink:href="#reuse-0" transform="matrix(.004 0 0 -.004 69.535 13.007)"/>
    <use xlink:href="#reuse-0" transform="matrix(.004 0 0 -.004 69.535 24.507)"/>
    <use xlink:href="#reuse-0" transform="matrix(.004 0 0 -.004 69.535 30.768)"/>
    <use xlink:href="#reuse-0" transform="matrix(.004 0 0 -.004 69.535 50.268)"/>
    <path fill="currentColor" d="M69.718 54.705c.018 0 .152.03.288.03.119 0 .293-.032.295-.032.037 0 .06.026.06.048 0 .029-.194.22-.515.22a.069.069 0 0 0-.069.068v.09c.055-.055.139-.055.216-.055h.009c.253 0 .4.121.4.366 0 .217-.211.365-.444.365-.194 0-.372-.115-.372-.293a.128.128 0 0 1 .255 0c0 .049-.079.057-.079.106 0 .079.103.092.196.092.114 0 .16-.138.16-.27 0-.117-.015-.247-.116-.247-.293 0-.19.097-.282.097a.06.06 0 0 1-.061-.06v-.46c0-.037.026-.065.059-.065zm.469 2.127c0 .119.184.088.184.275 0 .207-.182.31-.409.31-.185 0-.35-.119-.35-.292a.128.128 0 0 1 .256 0c0 .048-.08.057-.08.105 0 .073.09.093.174.093.09 0 .126-.11.126-.216v-.046c0-.097-.007-.17-.097-.17h-.143c-.04 0-.06-.03-.06-.059s.02-.06.06-.06h.143c.092 0 .097-.078.097-.182v-.024c0-.095-.044-.154-.135-.154-.072 0-.15.02-.15.083 0 .042.069.051.069.093a.11.11 0 1 1-.222 0c0-.156.14-.27.303-.27.205 0 .383.067.383.248 0 .207-.15.147-.15.266z"/>
    <rect width=".13" height="3.314" x="-.065" y="-1.5" fill="currentColor" ry=".04" transform="translate(70.775 11.007)"/>
    <rect width=".13" height="4.317" x="-.065" y="-.004" fill="currentColor" ry=".04" transform="translate(70.775 20.007)"/>
    <rect width=".13" height="3.124" x="-.065" y="-.314" fill="currentColor" ry=".04" transform="translate(69.6 31.268)"/>
    <rect width=".13" height="3.124" x="-.065" y="-.314" fill="currentColor" ry=".04" transform="translate(69.6 50.768)"/>
    <use xlink:href="#reuse-0" transform="matrix(.004 0 0 -.004 72.866 23.507)"/>
    <use xlink:href="#reuse-0" transform="matrix(.004 0 0 -.004 72.866 30.768)"/>
    <use xlink:href="#reuse-0" transform="matrix(.004 0 0 -.004 72.866 50.268)"/>
    <rect width=".13" height="3.5" x="-.065" y="-.186" fill="currentColor" ry=".04" transform="translate(74.105 20.007)"/>
    <rect width=".13" height="3.124" x="-.065" y="-.314" fill="currentColor" ry=".04" transform="translate(72.93 31.268)"/>
    <rect width=".13" height="3.124" x="-.065" y="-.314" fill="currentColor" ry=".04" transform="translate(72.93 50.768)"/>
    <use xlink:href="#reuse-0" transform="matrix(.004 0 0 -.004 76.196 13.007)"/>
    <use xlink:href="#reuse-0" transform="matrix(.004 0 0 -.004 76.196 22.007)"/>
    <use xlink:href="#reuse-0" transform="matrix(.004 0 0 -.004 76.196 30.768)"/>
    <use xlink:href="#reuse-0" transform="matrix(.004 0 0 -.004 76.196 50.268)"/>
    <rect width=".13" height="3.821" x="-.065" y="-2.008" fill="currentColor" ry=".04" transform="translate(77.435 11.007)"/>
    <rect width=".13" height="2.626" x="-.065" y="-.812" fill="currentColor" ry=".04" transform="translate(77.435 20.007)"/>
    <rect width=".13" height="3.124" x="-.065" y="-.314" fill="currentColor" ry=".04" transform="translate(76.26 31.268)"/>
    <rect width=".13" height="3.124" x="-.065" y="-.314" fill="currentColor" ry=".04" transform="translate(76.26 50.768)"/>
    <use xlink:href="#reuse-0" transform="matrix(.004 0 0 -.004 78.471 12.507)"/>
    <use xlink:href="#reuse-0" transform="matrix(.004 0 0 -.004 78.471 22.507)"/>
    <rect width=".13" height="3.586" x="-.065" y="-2.272" fill="currentColor" ry=".04" transform="translate(79.71 11.007)"/>
    <rect width=".13" height="3.188" x="-.065" y="-.874" fill="currentColor" ry=".04" transform="translate(79.71 20.007)"/>
    <path fill="currentColor" stroke="currentColor" stroke-linecap="round" stroke-linejoin="round" stroke-width=".08" d="M100.37 22.202c.786.414 1.828.116 2.276-.65h0c-.48.651-1.523.949-2.275.65z"/>
    <use xlink:href="#reuse-0" transform="matrix(.004 0 0 -.004 80.747 12.007)"/>
    <use xlink:href="#reuse-0" transform="matrix(.004 0 0 -.004 80.747 22.007)"/>
    <use xlink:href="#reuse-0" transform="matrix(.004 0 0 -.004 80.747 30.768)"/>
    <use xlink:href="#reuse-0" transform="matrix(.004 0 0 -.004 80.747 50.268)"/>
    <rect width=".13" height="3.351" x="-.065" y="-2.538" fill="currentColor" ry=".04" transform="translate(81.986 11.007)"/>
    <rect width=".13" height="2.75" x="-.065" y="-.936" fill="currentColor" ry=".04" transform="translate(81.986 20.007)"/>
    <rect width=".13" height="3.124" x="-.065" y="-.314" fill="currentColor" ry=".04" transform="translate(80.812 31.268)"/>
    <rect width=".13" height="3.124" x="-.065" y="-.314" fill="currentColor" ry=".04" transform="translate(80.812 50.768)"/>
    <path fill="currentColor" stroke="currentColor" stroke-linecap="round" stroke-linejoin="round" stroke-width=".08" d="M100.185 9.823c.528-.653 1.565-.813 2.276-.35h0c-.692-.344-1.73-.185-2.276.35z"/>
    <use xlink:href="#reuse-0" transform="matrix(.004 0 0 -.004 83.022 11.507)"/>
    <use xlink:href="#reuse-0" transform="matrix(.004 0 0 -.004 83.022 21.507)"/>
    <rect width=".13" height="3.116" x="-.065" y="-2.802" fill="currentColor" ry=".04" transform="translate(84.261 11.007)"/>
    <rect width=".13" height="2.312" x="-.065" y="-.998" fill="currentColor" ry=".04" transform="translate(84.261 20.007)"/>
    <path fill="currentColor" stroke="currentColor" stroke-linecap="round" stroke-linejoin="round" stroke-width=".08" d="M93.711 21.155c.745.698 2.334.87 3.247.35h0c-.9.4-2.49.229-3.247-.35zM80.837 53.378v.4H69.575v-.4z"/>
    <use xlink:href="#reuse-0" transform="matrix(.004 0 0 -.004 86.612 11.007)"/>
    <use xlink:href="#reuse-12" transform="matrix(.004 0 0 -.004 13.866 46.268)"/>
    <use xlink:href="#reuse-0" transform="matrix(.004 0 0 -.004 86.612 21.007)"/>
    <text fill="currentColor" font-family="serif" font-size="2.2" transform="translate(3.258 47.015)">
<tspan>Cembalo</tspan>
</text>
    <use xlink:href="#reuse-0" transform="matrix(.004 0 0 -.004 86.612 30.768)"/>
    <use xlink:href="#reuse-0" transform="matrix(.004 0 0 -.004 86.612 50.268)"/>
    <rect width=".13" height="3.147" x="-.065" y=".186" fill="currentColor" ry=".04" transform="translate(86.677 11.007)"/>
    <rect width=".13" height="3.624" x="-.065" y="-2.81" fill="currentColor" ry=".04" transform="translate(87.851 20.007)"/>
    <use xlink:href="#reuse-7" transform="matrix(.004 0 0 -.004 38.186 40.768)"/>
    <rect width=".13" height="3.124" x="-.065" y="-.314" fill="currentColor" ry=".04" transform="translate(86.677 31.268)"/>
    <path fill="currentColor" d="M12.916 8.956v-.348c0-.056.044-.1.1-.1h.2c.636 0 1.084-.544 1.448-1.08.048-.068.152.004.104.072-.396.576-.86 1.456-1.552 1.456h-.3zm0 24.363h.3c.692 0 1.156.88 1.552 1.456.048.068-.056.14-.104.072-.364-.536-.812-1.08-1.448-1.08h-.2a.099.099 0 0 1-.1-.1v-.348z"/>
    <rect width=".45" height="24.451" y="-12.225" fill="currentColor" ry="0" transform="translate(12.916 21.138)"/>
    <rect width=".13" height="3.124" x="-.065" y="-.314" fill="currentColor" ry=".04" transform="translate(86.677 50.768)"/>
    <path fill="currentColor" stroke="currentColor" stroke-linecap="round" stroke-linejoin="round" stroke-width=".08" d="M80.837 33.878v.4H69.575v-.4z"/>
    <use xlink:href="#reuse-0" transform="matrix(.004 0 0 -.004 89.775 22.007)"/>
    <use xlink:href="#reuse-0" transform="matrix(.004 0 0 -.004 89.775 30.768)"/>
    <use xlink:href="#reuse-0" transform="matrix(.004 0 0 -.004 89.775 50.268)"/>
    <rect width=".13" height="4.624" x="-.065" y="-2.81" fill="currentColor" ry=".04" transform="translate(91.015 20.007)"/>
    <rect width=".13" height="3.124" x="-.065" y="-.314" fill="currentColor" ry=".04" transform="translate(89.84 31.268)"/>
    <rect width=".13" height="3.124" x="-.065" y="-.314" fill="currentColor" ry=".04" transform="translate(89.84 50.768)"/>
    <path fill="currentColor" stroke="currentColor" stroke-linecap="round" stroke-linejoin="round" stroke-width=".08" d="M84.286 18.807v.4l-6.876.19v-.4zm0 .81v.4l-6.876.19v-.4z"/>
    <use xlink:href="#reuse-0" transform="matrix(.004 0 0 -.004 93.106 11.007)"/>
    <use xlink:href="#reuse-0" transform="matrix(.004 0 0 -.004 93.106 20.007)"/>
    <use xlink:href="#reuse-0" transform="matrix(.004 0 0 -.004 93.106 30.768)"/>
    <use xlink:href="#reuse-0" transform="matrix(.004 0 0 -.004 93.106 50.268)"/>
    <rect width=".13" height="3.147" x="-.065" y=".186" fill="currentColor" ry=".04" transform="translate(93.17 11.007)"/>
    <rect width=".13" height="2.624" x="-.065" y="-2.81" fill="currentColor" ry=".04" transform="translate(94.345 20.007)"/>
    <rect width=".13" height="3.124" x="-.065" y="-.314" fill="currentColor" ry=".04" transform="translate(93.17 31.268)"/>
    <rect width=".13" height="3.124" x="-.065" y="-.314" fill="currentColor" ry=".04" transform="translate(93.17 50.768)"/>
    <path fill="currentColor" stroke="currentColor" stroke-linecap="round" stroke-linejoin="round" stroke-width=".08" d="M84.286 7.997v.4l-6.876.81v-.4zm0 .81v.4l-6.876.81v-.4z"/>
    <use xlink:href="#reuse-0" transform="matrix(.004 0 0 -.004 96.352 20.507)"/>
    <use xlink:href="#reuse-0" transform="matrix(.004 0 0 -.004 96.352 30.768)"/>
    <use xlink:href="#reuse-0" transform="matrix(.004 0 0 -.004 96.352 50.268)"/>
    <rect width=".13" height="3.124" x="-.065" y="-2.81" fill="currentColor" ry=".04" transform="translate(97.591 20.007)"/>
    <rect width=".13" height="3.124" x="-.065" y="-.314" fill="currentColor" ry=".04" transform="translate(96.417 31.268)"/>
    <rect width=".13" height="3.124" x="-.065" y="-.314" fill="currentColor" ry=".04" transform="translate(96.417 50.768)"/>
    <use xlink:href="#reuse-0" transform="matrix(.004 0 0 -.004 99.6 11.007)"/>
    <use xlink:href="#reuse-0" transform="matrix(.004 0 0 -.004 99.6 21.007)"/>
    <use xlink:href="#reuse-0" transform="matrix(.004 0 0 -.004 99.6 30.768)"/>
    <use xlink:href="#reuse-0" transform="matrix(.004 0 0 -.004 99.6 50.268)"/>
    <use xlink:href="#reuse-8" transform="matrix(.0022 0 0 -.0022 99.6 56.815)"/>
    <use xlink:href="#reuse-9" transform="matrix(.0022 0 0 -.0022 99.6 58.315)"/>
    <rect width=".13" height="3.305" x="-.065" y=".186" fill="currentColor" ry=".04" transform="translate(99.664 11.007)"/>
    <rect width=".13" height="3.629" x="-.065" y="-2.815" fill="currentColor" ry=".04" transform="translate(100.838 20.007)"/>
    <rect width=".13" height="3.124" x="-.065" y="-.314" fill="currentColor" ry=".04" transform="translate(99.664 31.268)"/>
    <rect width=".13" height="3.124" x="-.065" y="-.314" fill="currentColor" ry=".04" transform="translate(99.664 50.768)"/>
    <use xlink:href="#reuse-0" transform="matrix(.004 0 0 -.004 101.875 10.507)"/>
    <use xlink:href="#reuse-0" transform="matrix(.004 0 0 -.004 101.875 20.507)"/>
    <use xlink:href="#reuse-6" transform="matrix(.004 0 0 -.004 103.629 10.507)"/>
    <rect width=".13" height="3.512" x="-.065" y="-.314" fill="currentColor" ry=".04" transform="translate(101.94 11.007)"/>
    <use xlink:href="#reuse-6" transform="matrix(.004 0 0 -.004 103.629 20.507)"/>
    <rect width=".13" height="3.309" x="-.065" y="-2.995" fill="currentColor" ry=".04" transform="translate(103.114 20.007)"/>
    <path fill="currentColor" stroke="currentColor" stroke-linecap="round" stroke-linejoin="round" stroke-width=".08" d="M87.151 22.202c.603.978 2.152 1.394 3.164.85h0c-.98.428-2.53.012-3.164-.85z"/>
    <use xlink:href="#reuse-0" transform="matrix(.004 0 0 -.004 103.446 30.768)"/>
    <use xlink:href="#reuse-0" transform="matrix(.004 0 0 -.004 103.446 50.268)"/>
    <rect width=".13" height="3.124" x="-.065" y="-.314" fill="currentColor" ry=".04" transform="translate(103.51 31.268)"/>
    <rect width=".13" height="3.124" x="-.065" y="-.314" fill="currentColor" ry=".04" transform="translate(103.51 50.768)"/>
    <path fill="currentColor" stroke="currentColor" stroke-linecap="round" stroke-linejoin="round" stroke-width=".08" d="M74.13 19.617v.4l-3.38.19v-.4z"/>
    <use xlink:href="#reuse-0" transform="matrix(.004 0 0 -.004 106.693 10.007)"/>
    <use xlink:href="#reuse-0" transform="matrix(.004 0 0 -.004 106.693 21.507)"/>
    <use xlink:href="#reuse-0" transform="matrix(.004 0 0 -.004 106.693 30.768)"/>
    <use xlink:href="#reuse-0" transform="matrix(.004 0 0 -.004 106.693 50.268)"/>
    <use xlink:href="#reuse-10" transform="matrix(.0022 0 0 -.0022 106.693 56.815)"/>
    <use xlink:href="#reuse-11" transform="matrix(.0022 0 0 -.0022 106.693 58.315)"/>
    <rect width=".13" height="2.809" x="-.065" y="-.814" fill="currentColor" ry=".04" transform="translate(106.758 11.007)"/>
    <rect width=".13" height="3.134" x="-.065" y="-1.82" fill="currentColor" ry=".04" transform="translate(107.932 20.007)"/>
    <rect width=".13" height="3.124" x="-.065" y="-.314" fill="currentColor" ry=".04" transform="translate(106.758 31.268)"/>
    <rect width=".13" height="3.124" x="-.065" y="-.314" fill="currentColor" ry=".04" transform="translate(106.758 50.768)"/>
    <path stroke="currentColor" stroke-linecap="round" stroke-linejoin="round" stroke-width=".1" d="M70.657 56.856H81.64"/>
    <use xlink:href="#reuse-0" transform="matrix(.004 0 0 -.004 108.968 9.507)"/>
    <use xlink:href="#reuse-0" transform="matrix(.004 0 0 -.004 108.968 21.007)"/>
    <use xlink:href="#reuse-6" transform="matrix(.004 0 0 -.004 110.722 9.507)"/>
    <rect width=".13" height="3.129" x="-.065" y="-1.314" fill="currentColor" ry=".04" transform="translate(109.033 11.007)"/>
    <use xlink:href="#reuse-6" transform="matrix(.004 0 0 -.004 110.722 20.507)"/>
    <rect width=".13" height="2.994" x="-.065" y="-2.18" fill="currentColor" ry=".04" transform="translate(110.207 20.007)"/>
    <path stroke="currentColor" stroke-linecap="round" stroke-linejoin="round" stroke-width=".1" d="M70.657 55.242H81.64"/>
    <use xlink:href="#reuse-0" transform="matrix(.004 0 0 -.004 110.54 30.768)"/>
    <use xlink:href="#reuse-0" transform="matrix(.004 0 0 -.004 110.54 50.268)"/>
    <rect width=".13" height="3.124" x="-.065" y="-.314" fill="currentColor" ry=".04" transform="translate(110.605 31.268)"/>
    <rect width=".13" height="3.124" x="-.065" y="-.314" fill="currentColor" ry=".04" transform="translate(110.605 50.768)"/>
    <path fill="currentColor" stroke="currentColor" stroke-linecap="round" stroke-linejoin="round" stroke-width=".08" d="M66.379 53.378v.4h-11.49v-.4z"/>
    <text fill="currentColor" font-family="serif" font-size="2.2" transform="translate(4.607 31.981)">
<tspan>Basso</tspan>
</text>
    <use xlink:href="#reuse-12" transform="matrix(.004 0 0 -.004 12.616 15.507)"/>
    <text fill="currentColor" font-family="serif" font-size="2.2" transform="translate(2.934 20.754)">
<tspan>Violino II</tspan>
</text>
    <text fill="currentColor" font-family="serif" font-size="2.2" transform="translate(3.31 11.754)">
<tspan>Violino I</tspan>
</text>
    <path fill="currentColor" stroke="currentColor" stroke-linecap="round" stroke-linejoin="round" stroke-width=".08" d="M37.224 19.807v.4h-9.873v-.4zM36.05 33.878v.4h-9.874v-.4zm0 19.5v.4h-9.874v-.4zm19.61-39.826c.92.371 2.11-.1 2.526-1h0c-.46.79-1.65 1.26-2.526 1z"/>
    <use xlink:href="#reuse-7" transform="matrix(.004 0 0 -.004 68.962 40.768)"/>
    <path fill="currentColor" stroke="currentColor" stroke-linecap="round" stroke-linejoin="round" stroke-width=".08" d="M52.487 9.807v.4l-2.326.19v-.4zm0 .81v.4l-2.326.19v-.4zm-2.275 9.19v.4h-9.874v-.4zm-1.175 14.071v.4h-9.873v-.4zm0 19.5v.4h-9.873v-.4zm13.967-38.826c.92.371 2.109-.1 2.526-1h0c-.461.79-1.65 1.26-2.526 1zm-4.366-6.555v.4l-2.575.81v-.4zm-1.49 1.265v.4l-1.086.355v-.4zm8.834-.265v.4l-2.576.81v-.4zm-1.491 1.265v.4l-1.085.355v-.4zm3.062 9.545v.4h-11.49v-.4zm-1.174 14.071v.4h-11.49v-.4z"/>
</svg>
